%TF.GenerationSoftware,KiCad,Pcbnew,(5.1.8)-1*%
%TF.CreationDate,2022-08-29T12:55:05+09:00*%
%TF.ProjectId,face,66616365-2e6b-4696-9361-645f70636258,rev?*%
%TF.SameCoordinates,Original*%
%TF.FileFunction,Legend,Bot*%
%TF.FilePolarity,Positive*%
%FSLAX46Y46*%
G04 Gerber Fmt 4.6, Leading zero omitted, Abs format (unit mm)*
G04 Created by KiCad (PCBNEW (5.1.8)-1) date 2022-08-29 12:55:05*
%MOMM*%
%LPD*%
G01*
G04 APERTURE LIST*
%ADD10C,0.120000*%
%ADD11C,0.150000*%
G04 APERTURE END LIST*
D10*
%TO.C,D1*%
X197015000Y-112265000D02*
X199300000Y-112265000D01*
X197015000Y-113735000D02*
X197015000Y-112265000D01*
X199300000Y-113735000D02*
X197015000Y-113735000D01*
%TO.C,D2*%
X199300000Y-95235000D02*
X197015000Y-95235000D01*
X197015000Y-95235000D02*
X197015000Y-93765000D01*
X197015000Y-93765000D02*
X199300000Y-93765000D01*
%TO.C,D1*%
D11*
X199238095Y-114882380D02*
X199238095Y-113882380D01*
X199000000Y-113882380D01*
X198857142Y-113930000D01*
X198761904Y-114025238D01*
X198714285Y-114120476D01*
X198666666Y-114310952D01*
X198666666Y-114453809D01*
X198714285Y-114644285D01*
X198761904Y-114739523D01*
X198857142Y-114834761D01*
X199000000Y-114882380D01*
X199238095Y-114882380D01*
X197714285Y-114882380D02*
X198285714Y-114882380D01*
X198000000Y-114882380D02*
X198000000Y-113882380D01*
X198095238Y-114025238D01*
X198190476Y-114120476D01*
X198285714Y-114168095D01*
%TO.C,D2*%
X199238095Y-96382380D02*
X199238095Y-95382380D01*
X199000000Y-95382380D01*
X198857142Y-95430000D01*
X198761904Y-95525238D01*
X198714285Y-95620476D01*
X198666666Y-95810952D01*
X198666666Y-95953809D01*
X198714285Y-96144285D01*
X198761904Y-96239523D01*
X198857142Y-96334761D01*
X199000000Y-96382380D01*
X199238095Y-96382380D01*
X198285714Y-95477619D02*
X198238095Y-95430000D01*
X198142857Y-95382380D01*
X197904761Y-95382380D01*
X197809523Y-95430000D01*
X197761904Y-95477619D01*
X197714285Y-95572857D01*
X197714285Y-95668095D01*
X197761904Y-95810952D01*
X198333333Y-96382380D01*
X197714285Y-96382380D01*
%TO.C,J1*%
X81333333Y-120452380D02*
X81333333Y-121166666D01*
X81380952Y-121309523D01*
X81476190Y-121404761D01*
X81619047Y-121452380D01*
X81714285Y-121452380D01*
X80333333Y-121452380D02*
X80904761Y-121452380D01*
X80619047Y-121452380D02*
X80619047Y-120452380D01*
X80714285Y-120595238D01*
X80809523Y-120690476D01*
X80904761Y-120738095D01*
%TO.C,J2*%
X80333333Y-80952380D02*
X80333333Y-81666666D01*
X80380952Y-81809523D01*
X80476190Y-81904761D01*
X80619047Y-81952380D01*
X80714285Y-81952380D01*
X79904761Y-81047619D02*
X79857142Y-81000000D01*
X79761904Y-80952380D01*
X79523809Y-80952380D01*
X79428571Y-81000000D01*
X79380952Y-81047619D01*
X79333333Y-81142857D01*
X79333333Y-81238095D01*
X79380952Y-81380952D01*
X79952380Y-81952380D01*
X79333333Y-81952380D01*
%TD*%
M02*
