%TF.GenerationSoftware,KiCad,Pcbnew,(5.1.8)-1*%
%TF.CreationDate,2022-08-29T12:55:05+09:00*%
%TF.ProjectId,face,66616365-2e6b-4696-9361-645f70636258,rev?*%
%TF.SameCoordinates,Original*%
%TF.FileFunction,Soldermask,Bot*%
%TF.FilePolarity,Negative*%
%FSLAX46Y46*%
G04 Gerber Fmt 4.6, Leading zero omitted, Abs format (unit mm)*
G04 Created by KiCad (PCBNEW (5.1.8)-1) date 2022-08-29 12:55:05*
%MOMM*%
%LPD*%
G01*
G04 APERTURE LIST*
%ADD10C,0.100000*%
G04 APERTURE END LIST*
%TO.C,D1*%
G36*
G01*
X198850000Y-113256250D02*
X198850000Y-112743750D01*
G75*
G02*
X199068750Y-112525000I218750J0D01*
G01*
X199506250Y-112525000D01*
G75*
G02*
X199725000Y-112743750I0J-218750D01*
G01*
X199725000Y-113256250D01*
G75*
G02*
X199506250Y-113475000I-218750J0D01*
G01*
X199068750Y-113475000D01*
G75*
G02*
X198850000Y-113256250I0J218750D01*
G01*
G37*
G36*
G01*
X197275000Y-113256250D02*
X197275000Y-112743750D01*
G75*
G02*
X197493750Y-112525000I218750J0D01*
G01*
X197931250Y-112525000D01*
G75*
G02*
X198150000Y-112743750I0J-218750D01*
G01*
X198150000Y-113256250D01*
G75*
G02*
X197931250Y-113475000I-218750J0D01*
G01*
X197493750Y-113475000D01*
G75*
G02*
X197275000Y-113256250I0J218750D01*
G01*
G37*
%TD*%
%TO.C,D2*%
G36*
G01*
X197275000Y-94756250D02*
X197275000Y-94243750D01*
G75*
G02*
X197493750Y-94025000I218750J0D01*
G01*
X197931250Y-94025000D01*
G75*
G02*
X198150000Y-94243750I0J-218750D01*
G01*
X198150000Y-94756250D01*
G75*
G02*
X197931250Y-94975000I-218750J0D01*
G01*
X197493750Y-94975000D01*
G75*
G02*
X197275000Y-94756250I0J218750D01*
G01*
G37*
G36*
G01*
X198850000Y-94756250D02*
X198850000Y-94243750D01*
G75*
G02*
X199068750Y-94025000I218750J0D01*
G01*
X199506250Y-94025000D01*
G75*
G02*
X199725000Y-94243750I0J-218750D01*
G01*
X199725000Y-94756250D01*
G75*
G02*
X199506250Y-94975000I-218750J0D01*
G01*
X199068750Y-94975000D01*
G75*
G02*
X198850000Y-94756250I0J218750D01*
G01*
G37*
%TD*%
D10*
%TO.C,J1*%
G36*
X80909755Y-119450961D02*
G01*
X80918570Y-119453576D01*
X82418570Y-120053576D01*
X82427270Y-120058091D01*
X82434922Y-120064216D01*
X82441232Y-120071717D01*
X82445957Y-120080304D01*
X82850213Y-121023568D01*
X82878510Y-121014984D01*
X82926635Y-121005412D01*
X82975466Y-121000602D01*
X83024534Y-121000602D01*
X83073365Y-121005412D01*
X83121490Y-121014984D01*
X83168445Y-121029228D01*
X83213778Y-121048005D01*
X83257051Y-121071136D01*
X83297850Y-121098396D01*
X83335779Y-121129524D01*
X83370476Y-121164221D01*
X83401604Y-121202150D01*
X83428864Y-121242949D01*
X83451995Y-121286222D01*
X83470772Y-121331555D01*
X83485016Y-121378510D01*
X83494588Y-121426635D01*
X83499398Y-121475466D01*
X83499398Y-121524534D01*
X83494588Y-121573365D01*
X83485016Y-121621490D01*
X83470772Y-121668445D01*
X83451995Y-121713778D01*
X83428864Y-121757051D01*
X83401604Y-121797850D01*
X83370476Y-121835779D01*
X83335779Y-121870476D01*
X83297850Y-121901604D01*
X83257051Y-121928864D01*
X83213778Y-121951995D01*
X83168445Y-121970772D01*
X83121490Y-121985016D01*
X83073365Y-121994588D01*
X83024534Y-121999398D01*
X82975466Y-121999398D01*
X82926635Y-121994588D01*
X82878510Y-121985016D01*
X82850213Y-121976432D01*
X82445957Y-122919696D01*
X82441232Y-122928283D01*
X82434922Y-122935784D01*
X82427270Y-122941909D01*
X82418570Y-122946424D01*
X80918570Y-123546424D01*
X80909156Y-123549155D01*
X80899390Y-123549996D01*
X80889648Y-123548917D01*
X80880304Y-123545957D01*
X80871717Y-123541232D01*
X80864216Y-123534922D01*
X80858091Y-123527270D01*
X80853576Y-123518570D01*
X80850845Y-123509156D01*
X80850000Y-123500000D01*
X80850000Y-122900000D01*
X80850961Y-122890245D01*
X80853806Y-122880866D01*
X80858427Y-122872221D01*
X80864645Y-122864645D01*
X80872221Y-122858427D01*
X80880866Y-122853806D01*
X80890245Y-122850961D01*
X80900000Y-122850000D01*
X81750000Y-122850000D01*
X81750000Y-121850000D01*
X80100000Y-121850000D01*
X80090245Y-121849039D01*
X80080866Y-121846194D01*
X80072221Y-121841573D01*
X80064645Y-121835355D01*
X80058427Y-121827779D01*
X80053806Y-121819134D01*
X80050961Y-121809755D01*
X80050000Y-121800000D01*
X80050000Y-121200000D01*
X80050961Y-121190245D01*
X80053806Y-121180866D01*
X80058427Y-121172221D01*
X80064645Y-121164645D01*
X80072221Y-121158427D01*
X80080866Y-121153806D01*
X80090245Y-121150961D01*
X80100000Y-121150000D01*
X81750000Y-121150000D01*
X81750000Y-120150000D01*
X80900000Y-120150000D01*
X80890245Y-120149039D01*
X80880866Y-120146194D01*
X80872221Y-120141573D01*
X80864645Y-120135355D01*
X80858427Y-120127779D01*
X80853806Y-120119134D01*
X80850961Y-120109755D01*
X80850000Y-120100000D01*
X80850000Y-119500000D01*
X80850961Y-119490245D01*
X80853806Y-119480866D01*
X80858427Y-119472221D01*
X80864645Y-119464645D01*
X80872221Y-119458427D01*
X80880866Y-119453806D01*
X80890245Y-119450961D01*
X80900000Y-119450000D01*
X80909755Y-119450961D01*
G37*
G36*
X80606254Y-119550393D02*
G01*
X80615811Y-119552566D01*
X80624762Y-119556562D01*
X80632760Y-119562227D01*
X80639500Y-119569344D01*
X80644721Y-119577639D01*
X80648224Y-119586794D01*
X80650000Y-119600000D01*
X80650000Y-120350000D01*
X81500000Y-120350000D01*
X81509755Y-120350961D01*
X81519134Y-120353806D01*
X81527779Y-120358427D01*
X81535355Y-120364645D01*
X81541573Y-120372221D01*
X81546194Y-120380866D01*
X81549039Y-120390245D01*
X81550000Y-120400000D01*
X81550000Y-120900000D01*
X81549039Y-120909755D01*
X81546194Y-120919134D01*
X81541573Y-120927779D01*
X81535355Y-120935355D01*
X81527779Y-120941573D01*
X81519134Y-120946194D01*
X81509755Y-120949039D01*
X81500000Y-120950000D01*
X79850000Y-120950000D01*
X79850000Y-122050000D01*
X81500000Y-122050000D01*
X81509755Y-122050961D01*
X81519134Y-122053806D01*
X81527779Y-122058427D01*
X81535355Y-122064645D01*
X81541573Y-122072221D01*
X81546194Y-122080866D01*
X81549039Y-122090245D01*
X81550000Y-122100000D01*
X81550000Y-122600000D01*
X81549039Y-122609755D01*
X81546194Y-122619134D01*
X81541573Y-122627779D01*
X81535355Y-122635355D01*
X81527779Y-122641573D01*
X81519134Y-122646194D01*
X81509755Y-122649039D01*
X81500000Y-122650000D01*
X80650000Y-122650000D01*
X80650000Y-123400000D01*
X80649039Y-123409755D01*
X80646194Y-123419134D01*
X80641573Y-123427779D01*
X80635355Y-123435355D01*
X80627779Y-123441573D01*
X80619134Y-123446194D01*
X80609755Y-123449039D01*
X80600000Y-123450000D01*
X80590245Y-123449039D01*
X80577639Y-123444721D01*
X79577639Y-122944721D01*
X79569344Y-122939500D01*
X79562227Y-122932760D01*
X79556562Y-122924762D01*
X79554043Y-122919696D01*
X79149787Y-121976432D01*
X79121490Y-121985016D01*
X79073365Y-121994588D01*
X79024534Y-121999398D01*
X78975466Y-121999398D01*
X78926635Y-121994588D01*
X78878510Y-121985016D01*
X78831555Y-121970772D01*
X78786222Y-121951995D01*
X78742949Y-121928864D01*
X78702150Y-121901604D01*
X78664221Y-121870476D01*
X78629524Y-121835779D01*
X78598396Y-121797850D01*
X78571136Y-121757051D01*
X78548005Y-121713778D01*
X78529228Y-121668445D01*
X78514984Y-121621490D01*
X78505412Y-121573365D01*
X78500602Y-121524534D01*
X78500602Y-121475466D01*
X78505412Y-121426635D01*
X78514984Y-121378510D01*
X78529228Y-121331555D01*
X78548005Y-121286222D01*
X78571136Y-121242949D01*
X78598396Y-121202150D01*
X78629524Y-121164221D01*
X78664221Y-121129524D01*
X78702150Y-121098396D01*
X78742949Y-121071136D01*
X78786222Y-121048005D01*
X78831555Y-121029228D01*
X78878510Y-121014984D01*
X78926635Y-121005412D01*
X78975466Y-121000602D01*
X79024534Y-121000602D01*
X79073365Y-121005412D01*
X79121490Y-121014984D01*
X79149787Y-121023568D01*
X79554043Y-120080304D01*
X79558768Y-120071717D01*
X79565078Y-120064216D01*
X79572730Y-120058091D01*
X79577639Y-120055279D01*
X80577639Y-119555279D01*
X80586794Y-119551776D01*
X80596456Y-119550126D01*
X80606254Y-119550393D01*
G37*
%TD*%
%TO.C,J2*%
G36*
X79606254Y-80050393D02*
G01*
X79615811Y-80052566D01*
X79624762Y-80056562D01*
X79632760Y-80062227D01*
X79639500Y-80069344D01*
X79644721Y-80077639D01*
X79648224Y-80086794D01*
X79650000Y-80100000D01*
X79650000Y-80850000D01*
X80500000Y-80850000D01*
X80509755Y-80850961D01*
X80519134Y-80853806D01*
X80527779Y-80858427D01*
X80535355Y-80864645D01*
X80541573Y-80872221D01*
X80546194Y-80880866D01*
X80549039Y-80890245D01*
X80550000Y-80900000D01*
X80550000Y-81400000D01*
X80549039Y-81409755D01*
X80546194Y-81419134D01*
X80541573Y-81427779D01*
X80535355Y-81435355D01*
X80527779Y-81441573D01*
X80519134Y-81446194D01*
X80509755Y-81449039D01*
X80500000Y-81450000D01*
X78850000Y-81450000D01*
X78850000Y-82550000D01*
X80500000Y-82550000D01*
X80509755Y-82550961D01*
X80519134Y-82553806D01*
X80527779Y-82558427D01*
X80535355Y-82564645D01*
X80541573Y-82572221D01*
X80546194Y-82580866D01*
X80549039Y-82590245D01*
X80550000Y-82600000D01*
X80550000Y-83100000D01*
X80549039Y-83109755D01*
X80546194Y-83119134D01*
X80541573Y-83127779D01*
X80535355Y-83135355D01*
X80527779Y-83141573D01*
X80519134Y-83146194D01*
X80509755Y-83149039D01*
X80500000Y-83150000D01*
X79650000Y-83150000D01*
X79650000Y-83900000D01*
X79649039Y-83909755D01*
X79646194Y-83919134D01*
X79641573Y-83927779D01*
X79635355Y-83935355D01*
X79627779Y-83941573D01*
X79619134Y-83946194D01*
X79609755Y-83949039D01*
X79600000Y-83950000D01*
X79590245Y-83949039D01*
X79577639Y-83944721D01*
X78577639Y-83444721D01*
X78569344Y-83439500D01*
X78562227Y-83432760D01*
X78556562Y-83424762D01*
X78554043Y-83419696D01*
X78149787Y-82476432D01*
X78121490Y-82485016D01*
X78073365Y-82494588D01*
X78024534Y-82499398D01*
X77975466Y-82499398D01*
X77926635Y-82494588D01*
X77878510Y-82485016D01*
X77831555Y-82470772D01*
X77786222Y-82451995D01*
X77742949Y-82428864D01*
X77702150Y-82401604D01*
X77664221Y-82370476D01*
X77629524Y-82335779D01*
X77598396Y-82297850D01*
X77571136Y-82257051D01*
X77548005Y-82213778D01*
X77529228Y-82168445D01*
X77514984Y-82121490D01*
X77505412Y-82073365D01*
X77500602Y-82024534D01*
X77500602Y-81975466D01*
X77505412Y-81926635D01*
X77514984Y-81878510D01*
X77529228Y-81831555D01*
X77548005Y-81786222D01*
X77571136Y-81742949D01*
X77598396Y-81702150D01*
X77629524Y-81664221D01*
X77664221Y-81629524D01*
X77702150Y-81598396D01*
X77742949Y-81571136D01*
X77786222Y-81548005D01*
X77831555Y-81529228D01*
X77878510Y-81514984D01*
X77926635Y-81505412D01*
X77975466Y-81500602D01*
X78024534Y-81500602D01*
X78073365Y-81505412D01*
X78121490Y-81514984D01*
X78149787Y-81523568D01*
X78554043Y-80580304D01*
X78558768Y-80571717D01*
X78565078Y-80564216D01*
X78572730Y-80558091D01*
X78577639Y-80555279D01*
X79577639Y-80055279D01*
X79586794Y-80051776D01*
X79596456Y-80050126D01*
X79606254Y-80050393D01*
G37*
G36*
X79909755Y-79950961D02*
G01*
X79918570Y-79953576D01*
X81418570Y-80553576D01*
X81427270Y-80558091D01*
X81434922Y-80564216D01*
X81441232Y-80571717D01*
X81445957Y-80580304D01*
X81850213Y-81523568D01*
X81878510Y-81514984D01*
X81926635Y-81505412D01*
X81975466Y-81500602D01*
X82024534Y-81500602D01*
X82073365Y-81505412D01*
X82121490Y-81514984D01*
X82168445Y-81529228D01*
X82213778Y-81548005D01*
X82257051Y-81571136D01*
X82297850Y-81598396D01*
X82335779Y-81629524D01*
X82370476Y-81664221D01*
X82401604Y-81702150D01*
X82428864Y-81742949D01*
X82451995Y-81786222D01*
X82470772Y-81831555D01*
X82485016Y-81878510D01*
X82494588Y-81926635D01*
X82499398Y-81975466D01*
X82499398Y-82024534D01*
X82494588Y-82073365D01*
X82485016Y-82121490D01*
X82470772Y-82168445D01*
X82451995Y-82213778D01*
X82428864Y-82257051D01*
X82401604Y-82297850D01*
X82370476Y-82335779D01*
X82335779Y-82370476D01*
X82297850Y-82401604D01*
X82257051Y-82428864D01*
X82213778Y-82451995D01*
X82168445Y-82470772D01*
X82121490Y-82485016D01*
X82073365Y-82494588D01*
X82024534Y-82499398D01*
X81975466Y-82499398D01*
X81926635Y-82494588D01*
X81878510Y-82485016D01*
X81850213Y-82476432D01*
X81445957Y-83419696D01*
X81441232Y-83428283D01*
X81434922Y-83435784D01*
X81427270Y-83441909D01*
X81418570Y-83446424D01*
X79918570Y-84046424D01*
X79909156Y-84049155D01*
X79899390Y-84049996D01*
X79889648Y-84048917D01*
X79880304Y-84045957D01*
X79871717Y-84041232D01*
X79864216Y-84034922D01*
X79858091Y-84027270D01*
X79853576Y-84018570D01*
X79850845Y-84009156D01*
X79850000Y-84000000D01*
X79850000Y-83400000D01*
X79850961Y-83390245D01*
X79853806Y-83380866D01*
X79858427Y-83372221D01*
X79864645Y-83364645D01*
X79872221Y-83358427D01*
X79880866Y-83353806D01*
X79890245Y-83350961D01*
X79900000Y-83350000D01*
X80750000Y-83350000D01*
X80750000Y-82350000D01*
X79100000Y-82350000D01*
X79090245Y-82349039D01*
X79080866Y-82346194D01*
X79072221Y-82341573D01*
X79064645Y-82335355D01*
X79058427Y-82327779D01*
X79053806Y-82319134D01*
X79050961Y-82309755D01*
X79050000Y-82300000D01*
X79050000Y-81700000D01*
X79050961Y-81690245D01*
X79053806Y-81680866D01*
X79058427Y-81672221D01*
X79064645Y-81664645D01*
X79072221Y-81658427D01*
X79080866Y-81653806D01*
X79090245Y-81650961D01*
X79100000Y-81650000D01*
X80750000Y-81650000D01*
X80750000Y-80650000D01*
X79900000Y-80650000D01*
X79890245Y-80649039D01*
X79880866Y-80646194D01*
X79872221Y-80641573D01*
X79864645Y-80635355D01*
X79858427Y-80627779D01*
X79853806Y-80619134D01*
X79850961Y-80609755D01*
X79850000Y-80600000D01*
X79850000Y-80000000D01*
X79850961Y-79990245D01*
X79853806Y-79980866D01*
X79858427Y-79972221D01*
X79864645Y-79964645D01*
X79872221Y-79958427D01*
X79880866Y-79953806D01*
X79890245Y-79950961D01*
X79900000Y-79950000D01*
X79909755Y-79950961D01*
G37*
%TD*%
M02*
