%TF.GenerationSoftware,KiCad,Pcbnew,(5.1.8)-1*%
%TF.CreationDate,2023-06-17T15:14:55+09:00*%
%TF.ProjectId,face,66616365-2e6b-4696-9361-645f70636258,rev?*%
%TF.SameCoordinates,Original*%
%TF.FileFunction,Copper,L2,Bot*%
%TF.FilePolarity,Positive*%
%FSLAX46Y46*%
G04 Gerber Fmt 4.6, Leading zero omitted, Abs format (unit mm)*
G04 Created by KiCad (PCBNEW (5.1.8)-1) date 2023-06-17 15:14:55*
%MOMM*%
%LPD*%
G01*
G04 APERTURE LIST*
%TA.AperFunction,SMDPad,CuDef*%
%ADD10C,0.100000*%
%TD*%
%TA.AperFunction,ViaPad*%
%ADD11C,2.400000*%
%TD*%
%TA.AperFunction,Conductor*%
%ADD12C,0.250000*%
%TD*%
%TA.AperFunction,Conductor*%
%ADD13C,0.254000*%
%TD*%
%TA.AperFunction,Conductor*%
%ADD14C,0.100000*%
%TD*%
G04 APERTURE END LIST*
%TO.P,D1,2*%
%TO.N,VCC*%
%TA.AperFunction,SMDPad,CuDef*%
G36*
G01*
X198850000Y-113256250D02*
X198850000Y-112743750D01*
G75*
G02*
X199068750Y-112525000I218750J0D01*
G01*
X199506250Y-112525000D01*
G75*
G02*
X199725000Y-112743750I0J-218750D01*
G01*
X199725000Y-113256250D01*
G75*
G02*
X199506250Y-113475000I-218750J0D01*
G01*
X199068750Y-113475000D01*
G75*
G02*
X198850000Y-113256250I0J218750D01*
G01*
G37*
%TD.AperFunction*%
%TO.P,D1,1*%
%TO.N,GND*%
%TA.AperFunction,SMDPad,CuDef*%
G36*
G01*
X197275000Y-113256250D02*
X197275000Y-112743750D01*
G75*
G02*
X197493750Y-112525000I218750J0D01*
G01*
X197931250Y-112525000D01*
G75*
G02*
X198150000Y-112743750I0J-218750D01*
G01*
X198150000Y-113256250D01*
G75*
G02*
X197931250Y-113475000I-218750J0D01*
G01*
X197493750Y-113475000D01*
G75*
G02*
X197275000Y-113256250I0J218750D01*
G01*
G37*
%TD.AperFunction*%
%TD*%
%TO.P,D2,1*%
%TO.N,GND*%
%TA.AperFunction,SMDPad,CuDef*%
G36*
G01*
X197275000Y-94756250D02*
X197275000Y-94243750D01*
G75*
G02*
X197493750Y-94025000I218750J0D01*
G01*
X197931250Y-94025000D01*
G75*
G02*
X198150000Y-94243750I0J-218750D01*
G01*
X198150000Y-94756250D01*
G75*
G02*
X197931250Y-94975000I-218750J0D01*
G01*
X197493750Y-94975000D01*
G75*
G02*
X197275000Y-94756250I0J218750D01*
G01*
G37*
%TD.AperFunction*%
%TO.P,D2,2*%
%TO.N,VCC*%
%TA.AperFunction,SMDPad,CuDef*%
G36*
G01*
X198850000Y-94756250D02*
X198850000Y-94243750D01*
G75*
G02*
X199068750Y-94025000I218750J0D01*
G01*
X199506250Y-94025000D01*
G75*
G02*
X199725000Y-94243750I0J-218750D01*
G01*
X199725000Y-94756250D01*
G75*
G02*
X199506250Y-94975000I-218750J0D01*
G01*
X199068750Y-94975000D01*
G75*
G02*
X198850000Y-94756250I0J218750D01*
G01*
G37*
%TD.AperFunction*%
%TD*%
%TA.AperFunction,SMDPad,CuDef*%
D10*
%TO.P,J1,2*%
%TO.N,GND*%
G36*
X80909755Y-119450961D02*
G01*
X80918570Y-119453576D01*
X82418570Y-120053576D01*
X82427270Y-120058091D01*
X82434922Y-120064216D01*
X82441232Y-120071717D01*
X82445957Y-120080304D01*
X82850213Y-121023568D01*
X82878510Y-121014984D01*
X82926635Y-121005412D01*
X82975466Y-121000602D01*
X83024534Y-121000602D01*
X83073365Y-121005412D01*
X83121490Y-121014984D01*
X83168445Y-121029228D01*
X83213778Y-121048005D01*
X83257051Y-121071136D01*
X83297850Y-121098396D01*
X83335779Y-121129524D01*
X83370476Y-121164221D01*
X83401604Y-121202150D01*
X83428864Y-121242949D01*
X83451995Y-121286222D01*
X83470772Y-121331555D01*
X83485016Y-121378510D01*
X83494588Y-121426635D01*
X83499398Y-121475466D01*
X83499398Y-121524534D01*
X83494588Y-121573365D01*
X83485016Y-121621490D01*
X83470772Y-121668445D01*
X83451995Y-121713778D01*
X83428864Y-121757051D01*
X83401604Y-121797850D01*
X83370476Y-121835779D01*
X83335779Y-121870476D01*
X83297850Y-121901604D01*
X83257051Y-121928864D01*
X83213778Y-121951995D01*
X83168445Y-121970772D01*
X83121490Y-121985016D01*
X83073365Y-121994588D01*
X83024534Y-121999398D01*
X82975466Y-121999398D01*
X82926635Y-121994588D01*
X82878510Y-121985016D01*
X82850213Y-121976432D01*
X82445957Y-122919696D01*
X82441232Y-122928283D01*
X82434922Y-122935784D01*
X82427270Y-122941909D01*
X82418570Y-122946424D01*
X80918570Y-123546424D01*
X80909156Y-123549155D01*
X80899390Y-123549996D01*
X80889648Y-123548917D01*
X80880304Y-123545957D01*
X80871717Y-123541232D01*
X80864216Y-123534922D01*
X80858091Y-123527270D01*
X80853576Y-123518570D01*
X80850845Y-123509156D01*
X80850000Y-123500000D01*
X80850000Y-122900000D01*
X80850961Y-122890245D01*
X80853806Y-122880866D01*
X80858427Y-122872221D01*
X80864645Y-122864645D01*
X80872221Y-122858427D01*
X80880866Y-122853806D01*
X80890245Y-122850961D01*
X80900000Y-122850000D01*
X81750000Y-122850000D01*
X81750000Y-121850000D01*
X80100000Y-121850000D01*
X80090245Y-121849039D01*
X80080866Y-121846194D01*
X80072221Y-121841573D01*
X80064645Y-121835355D01*
X80058427Y-121827779D01*
X80053806Y-121819134D01*
X80050961Y-121809755D01*
X80050000Y-121800000D01*
X80050000Y-121200000D01*
X80050961Y-121190245D01*
X80053806Y-121180866D01*
X80058427Y-121172221D01*
X80064645Y-121164645D01*
X80072221Y-121158427D01*
X80080866Y-121153806D01*
X80090245Y-121150961D01*
X80100000Y-121150000D01*
X81750000Y-121150000D01*
X81750000Y-120150000D01*
X80900000Y-120150000D01*
X80890245Y-120149039D01*
X80880866Y-120146194D01*
X80872221Y-120141573D01*
X80864645Y-120135355D01*
X80858427Y-120127779D01*
X80853806Y-120119134D01*
X80850961Y-120109755D01*
X80850000Y-120100000D01*
X80850000Y-119500000D01*
X80850961Y-119490245D01*
X80853806Y-119480866D01*
X80858427Y-119472221D01*
X80864645Y-119464645D01*
X80872221Y-119458427D01*
X80880866Y-119453806D01*
X80890245Y-119450961D01*
X80900000Y-119450000D01*
X80909755Y-119450961D01*
G37*
%TD.AperFunction*%
%TA.AperFunction,SMDPad,CuDef*%
%TO.P,J1,1*%
%TO.N,VCC*%
G36*
X80606254Y-119550393D02*
G01*
X80615811Y-119552566D01*
X80624762Y-119556562D01*
X80632760Y-119562227D01*
X80639500Y-119569344D01*
X80644721Y-119577639D01*
X80648224Y-119586794D01*
X80650000Y-119600000D01*
X80650000Y-120350000D01*
X81500000Y-120350000D01*
X81509755Y-120350961D01*
X81519134Y-120353806D01*
X81527779Y-120358427D01*
X81535355Y-120364645D01*
X81541573Y-120372221D01*
X81546194Y-120380866D01*
X81549039Y-120390245D01*
X81550000Y-120400000D01*
X81550000Y-120900000D01*
X81549039Y-120909755D01*
X81546194Y-120919134D01*
X81541573Y-120927779D01*
X81535355Y-120935355D01*
X81527779Y-120941573D01*
X81519134Y-120946194D01*
X81509755Y-120949039D01*
X81500000Y-120950000D01*
X79850000Y-120950000D01*
X79850000Y-122050000D01*
X81500000Y-122050000D01*
X81509755Y-122050961D01*
X81519134Y-122053806D01*
X81527779Y-122058427D01*
X81535355Y-122064645D01*
X81541573Y-122072221D01*
X81546194Y-122080866D01*
X81549039Y-122090245D01*
X81550000Y-122100000D01*
X81550000Y-122600000D01*
X81549039Y-122609755D01*
X81546194Y-122619134D01*
X81541573Y-122627779D01*
X81535355Y-122635355D01*
X81527779Y-122641573D01*
X81519134Y-122646194D01*
X81509755Y-122649039D01*
X81500000Y-122650000D01*
X80650000Y-122650000D01*
X80650000Y-123400000D01*
X80649039Y-123409755D01*
X80646194Y-123419134D01*
X80641573Y-123427779D01*
X80635355Y-123435355D01*
X80627779Y-123441573D01*
X80619134Y-123446194D01*
X80609755Y-123449039D01*
X80600000Y-123450000D01*
X80590245Y-123449039D01*
X80577639Y-123444721D01*
X79577639Y-122944721D01*
X79569344Y-122939500D01*
X79562227Y-122932760D01*
X79556562Y-122924762D01*
X79554043Y-122919696D01*
X79149787Y-121976432D01*
X79121490Y-121985016D01*
X79073365Y-121994588D01*
X79024534Y-121999398D01*
X78975466Y-121999398D01*
X78926635Y-121994588D01*
X78878510Y-121985016D01*
X78831555Y-121970772D01*
X78786222Y-121951995D01*
X78742949Y-121928864D01*
X78702150Y-121901604D01*
X78664221Y-121870476D01*
X78629524Y-121835779D01*
X78598396Y-121797850D01*
X78571136Y-121757051D01*
X78548005Y-121713778D01*
X78529228Y-121668445D01*
X78514984Y-121621490D01*
X78505412Y-121573365D01*
X78500602Y-121524534D01*
X78500602Y-121475466D01*
X78505412Y-121426635D01*
X78514984Y-121378510D01*
X78529228Y-121331555D01*
X78548005Y-121286222D01*
X78571136Y-121242949D01*
X78598396Y-121202150D01*
X78629524Y-121164221D01*
X78664221Y-121129524D01*
X78702150Y-121098396D01*
X78742949Y-121071136D01*
X78786222Y-121048005D01*
X78831555Y-121029228D01*
X78878510Y-121014984D01*
X78926635Y-121005412D01*
X78975466Y-121000602D01*
X79024534Y-121000602D01*
X79073365Y-121005412D01*
X79121490Y-121014984D01*
X79149787Y-121023568D01*
X79554043Y-120080304D01*
X79558768Y-120071717D01*
X79565078Y-120064216D01*
X79572730Y-120058091D01*
X79577639Y-120055279D01*
X80577639Y-119555279D01*
X80586794Y-119551776D01*
X80596456Y-119550126D01*
X80606254Y-119550393D01*
G37*
%TD.AperFunction*%
%TD*%
%TA.AperFunction,SMDPad,CuDef*%
%TO.P,J2,1*%
%TO.N,VCC*%
G36*
X79606254Y-80050393D02*
G01*
X79615811Y-80052566D01*
X79624762Y-80056562D01*
X79632760Y-80062227D01*
X79639500Y-80069344D01*
X79644721Y-80077639D01*
X79648224Y-80086794D01*
X79650000Y-80100000D01*
X79650000Y-80850000D01*
X80500000Y-80850000D01*
X80509755Y-80850961D01*
X80519134Y-80853806D01*
X80527779Y-80858427D01*
X80535355Y-80864645D01*
X80541573Y-80872221D01*
X80546194Y-80880866D01*
X80549039Y-80890245D01*
X80550000Y-80900000D01*
X80550000Y-81400000D01*
X80549039Y-81409755D01*
X80546194Y-81419134D01*
X80541573Y-81427779D01*
X80535355Y-81435355D01*
X80527779Y-81441573D01*
X80519134Y-81446194D01*
X80509755Y-81449039D01*
X80500000Y-81450000D01*
X78850000Y-81450000D01*
X78850000Y-82550000D01*
X80500000Y-82550000D01*
X80509755Y-82550961D01*
X80519134Y-82553806D01*
X80527779Y-82558427D01*
X80535355Y-82564645D01*
X80541573Y-82572221D01*
X80546194Y-82580866D01*
X80549039Y-82590245D01*
X80550000Y-82600000D01*
X80550000Y-83100000D01*
X80549039Y-83109755D01*
X80546194Y-83119134D01*
X80541573Y-83127779D01*
X80535355Y-83135355D01*
X80527779Y-83141573D01*
X80519134Y-83146194D01*
X80509755Y-83149039D01*
X80500000Y-83150000D01*
X79650000Y-83150000D01*
X79650000Y-83900000D01*
X79649039Y-83909755D01*
X79646194Y-83919134D01*
X79641573Y-83927779D01*
X79635355Y-83935355D01*
X79627779Y-83941573D01*
X79619134Y-83946194D01*
X79609755Y-83949039D01*
X79600000Y-83950000D01*
X79590245Y-83949039D01*
X79577639Y-83944721D01*
X78577639Y-83444721D01*
X78569344Y-83439500D01*
X78562227Y-83432760D01*
X78556562Y-83424762D01*
X78554043Y-83419696D01*
X78149787Y-82476432D01*
X78121490Y-82485016D01*
X78073365Y-82494588D01*
X78024534Y-82499398D01*
X77975466Y-82499398D01*
X77926635Y-82494588D01*
X77878510Y-82485016D01*
X77831555Y-82470772D01*
X77786222Y-82451995D01*
X77742949Y-82428864D01*
X77702150Y-82401604D01*
X77664221Y-82370476D01*
X77629524Y-82335779D01*
X77598396Y-82297850D01*
X77571136Y-82257051D01*
X77548005Y-82213778D01*
X77529228Y-82168445D01*
X77514984Y-82121490D01*
X77505412Y-82073365D01*
X77500602Y-82024534D01*
X77500602Y-81975466D01*
X77505412Y-81926635D01*
X77514984Y-81878510D01*
X77529228Y-81831555D01*
X77548005Y-81786222D01*
X77571136Y-81742949D01*
X77598396Y-81702150D01*
X77629524Y-81664221D01*
X77664221Y-81629524D01*
X77702150Y-81598396D01*
X77742949Y-81571136D01*
X77786222Y-81548005D01*
X77831555Y-81529228D01*
X77878510Y-81514984D01*
X77926635Y-81505412D01*
X77975466Y-81500602D01*
X78024534Y-81500602D01*
X78073365Y-81505412D01*
X78121490Y-81514984D01*
X78149787Y-81523568D01*
X78554043Y-80580304D01*
X78558768Y-80571717D01*
X78565078Y-80564216D01*
X78572730Y-80558091D01*
X78577639Y-80555279D01*
X79577639Y-80055279D01*
X79586794Y-80051776D01*
X79596456Y-80050126D01*
X79606254Y-80050393D01*
G37*
%TD.AperFunction*%
%TA.AperFunction,SMDPad,CuDef*%
%TO.P,J2,2*%
%TO.N,GND*%
G36*
X79909755Y-79950961D02*
G01*
X79918570Y-79953576D01*
X81418570Y-80553576D01*
X81427270Y-80558091D01*
X81434922Y-80564216D01*
X81441232Y-80571717D01*
X81445957Y-80580304D01*
X81850213Y-81523568D01*
X81878510Y-81514984D01*
X81926635Y-81505412D01*
X81975466Y-81500602D01*
X82024534Y-81500602D01*
X82073365Y-81505412D01*
X82121490Y-81514984D01*
X82168445Y-81529228D01*
X82213778Y-81548005D01*
X82257051Y-81571136D01*
X82297850Y-81598396D01*
X82335779Y-81629524D01*
X82370476Y-81664221D01*
X82401604Y-81702150D01*
X82428864Y-81742949D01*
X82451995Y-81786222D01*
X82470772Y-81831555D01*
X82485016Y-81878510D01*
X82494588Y-81926635D01*
X82499398Y-81975466D01*
X82499398Y-82024534D01*
X82494588Y-82073365D01*
X82485016Y-82121490D01*
X82470772Y-82168445D01*
X82451995Y-82213778D01*
X82428864Y-82257051D01*
X82401604Y-82297850D01*
X82370476Y-82335779D01*
X82335779Y-82370476D01*
X82297850Y-82401604D01*
X82257051Y-82428864D01*
X82213778Y-82451995D01*
X82168445Y-82470772D01*
X82121490Y-82485016D01*
X82073365Y-82494588D01*
X82024534Y-82499398D01*
X81975466Y-82499398D01*
X81926635Y-82494588D01*
X81878510Y-82485016D01*
X81850213Y-82476432D01*
X81445957Y-83419696D01*
X81441232Y-83428283D01*
X81434922Y-83435784D01*
X81427270Y-83441909D01*
X81418570Y-83446424D01*
X79918570Y-84046424D01*
X79909156Y-84049155D01*
X79899390Y-84049996D01*
X79889648Y-84048917D01*
X79880304Y-84045957D01*
X79871717Y-84041232D01*
X79864216Y-84034922D01*
X79858091Y-84027270D01*
X79853576Y-84018570D01*
X79850845Y-84009156D01*
X79850000Y-84000000D01*
X79850000Y-83400000D01*
X79850961Y-83390245D01*
X79853806Y-83380866D01*
X79858427Y-83372221D01*
X79864645Y-83364645D01*
X79872221Y-83358427D01*
X79880866Y-83353806D01*
X79890245Y-83350961D01*
X79900000Y-83350000D01*
X80750000Y-83350000D01*
X80750000Y-82350000D01*
X79100000Y-82350000D01*
X79090245Y-82349039D01*
X79080866Y-82346194D01*
X79072221Y-82341573D01*
X79064645Y-82335355D01*
X79058427Y-82327779D01*
X79053806Y-82319134D01*
X79050961Y-82309755D01*
X79050000Y-82300000D01*
X79050000Y-81700000D01*
X79050961Y-81690245D01*
X79053806Y-81680866D01*
X79058427Y-81672221D01*
X79064645Y-81664645D01*
X79072221Y-81658427D01*
X79080866Y-81653806D01*
X79090245Y-81650961D01*
X79100000Y-81650000D01*
X80750000Y-81650000D01*
X80750000Y-80650000D01*
X79900000Y-80650000D01*
X79890245Y-80649039D01*
X79880866Y-80646194D01*
X79872221Y-80641573D01*
X79864645Y-80635355D01*
X79858427Y-80627779D01*
X79853806Y-80619134D01*
X79850961Y-80609755D01*
X79850000Y-80600000D01*
X79850000Y-80000000D01*
X79850961Y-79990245D01*
X79853806Y-79980866D01*
X79858427Y-79972221D01*
X79864645Y-79964645D01*
X79872221Y-79958427D01*
X79880866Y-79953806D01*
X79890245Y-79950961D01*
X79900000Y-79950000D01*
X79909755Y-79950961D01*
G37*
%TD.AperFunction*%
%TD*%
D11*
%TO.N,GND*%
X79500000Y-129500000D03*
X202500000Y-129500000D03*
X202500000Y-76500000D03*
X79500000Y-76500000D03*
%TD*%
D12*
%TO.N,VCC*%
X199287500Y-113000000D02*
X199287500Y-94500000D01*
X199287500Y-113000000D02*
X199287500Y-113712500D01*
X199287500Y-113712500D02*
X198500000Y-114500000D01*
X198500000Y-114500000D02*
X108000000Y-114500000D01*
X106809634Y-115690366D02*
X105309638Y-115690366D01*
X108000000Y-114500000D02*
X106809634Y-115690366D01*
X77000000Y-82000000D02*
X78000000Y-82000000D01*
X77000000Y-121500000D02*
X79000000Y-121500000D01*
X105309638Y-115690366D02*
X101000002Y-120000002D01*
X101000002Y-120000002D02*
X85500002Y-120000002D01*
X84000000Y-118500000D02*
X77000000Y-118500000D01*
X85500002Y-120000002D02*
X84000000Y-118500000D01*
X77000000Y-118500000D02*
X77000000Y-82000000D01*
X77000000Y-121500000D02*
X77000000Y-118500000D01*
%TO.N,GND*%
X82000000Y-78000000D02*
X82000000Y-76500000D01*
X82000000Y-76500000D02*
X81000000Y-75500000D01*
X78000000Y-75500000D02*
X76000000Y-77500000D01*
X76000000Y-77500000D02*
X76000000Y-128500000D01*
X79500000Y-132000000D02*
X82500000Y-132000000D01*
X82500000Y-132000000D02*
X83500000Y-131000000D01*
X83500000Y-129500000D02*
X82000000Y-128000000D01*
X83500000Y-131000000D02*
X83500000Y-129500000D01*
X197712500Y-113000000D02*
X197712500Y-94500000D01*
X114042824Y-89500000D02*
X104225368Y-89500000D01*
X114181513Y-89638689D02*
X114042824Y-89500000D01*
X194638689Y-89638689D02*
X114181513Y-89638689D01*
X197712500Y-92712500D02*
X194638689Y-89638689D01*
X197712500Y-94500000D02*
X197712500Y-92712500D01*
X104225368Y-89500000D02*
X102725368Y-88000000D01*
X102725368Y-88000000D02*
X102725368Y-75225368D01*
X102725368Y-75225368D02*
X101000000Y-73500000D01*
X85000000Y-73500000D02*
X82000000Y-76500000D01*
X101000000Y-73500000D02*
X85000000Y-73500000D01*
X78500000Y-75500000D02*
X79500000Y-76500000D01*
X78000000Y-75500000D02*
X78500000Y-75500000D01*
X80500000Y-75500000D02*
X79500000Y-76500000D01*
X81000000Y-75500000D02*
X80500000Y-75500000D01*
X82000000Y-78000000D02*
X82000000Y-82000000D01*
X79500000Y-129500000D02*
X78500000Y-129500000D01*
X78500000Y-129500000D02*
X77750000Y-130250000D01*
X77750000Y-130250000D02*
X79500000Y-132000000D01*
X76000000Y-128500000D02*
X77750000Y-130250000D01*
X82000000Y-122500000D02*
X83000000Y-121500000D01*
X82000000Y-128000000D02*
X82000000Y-122500000D01*
%TD*%
D13*
%TO.N,GND*%
X101065424Y-71669580D02*
X101128356Y-71688580D01*
X101186405Y-71719445D01*
X101237343Y-71760989D01*
X101286216Y-71820066D01*
X101297857Y-71840001D01*
X103340000Y-77123121D01*
X103340001Y-88032419D01*
X103342783Y-88060664D01*
X103342740Y-88066801D01*
X103343640Y-88075972D01*
X103364041Y-88270069D01*
X103376068Y-88328658D01*
X103387277Y-88387423D01*
X103389941Y-88396245D01*
X103447653Y-88582683D01*
X103470838Y-88637838D01*
X103493242Y-88693291D01*
X103497568Y-88701427D01*
X103590393Y-88873104D01*
X103623846Y-88922699D01*
X103656600Y-88972753D01*
X103662424Y-88979894D01*
X103786828Y-89130272D01*
X103829263Y-89172411D01*
X103871126Y-89215161D01*
X103878227Y-89221034D01*
X104029469Y-89344384D01*
X104079277Y-89377477D01*
X104128651Y-89411284D01*
X104136757Y-89415667D01*
X104309080Y-89507292D01*
X104364392Y-89530090D01*
X104419366Y-89553652D01*
X104428169Y-89556377D01*
X104615006Y-89612786D01*
X104673686Y-89624405D01*
X104732196Y-89636842D01*
X104741361Y-89637805D01*
X104935594Y-89656850D01*
X104935598Y-89656850D01*
X104967581Y-89660000D01*
X197032419Y-89660000D01*
X197060674Y-89657217D01*
X197066801Y-89657260D01*
X197075972Y-89656360D01*
X197270069Y-89635959D01*
X197328658Y-89623932D01*
X197387423Y-89612723D01*
X197396245Y-89610059D01*
X197582683Y-89552347D01*
X197637838Y-89529162D01*
X197693291Y-89506758D01*
X197701427Y-89502432D01*
X197873104Y-89409607D01*
X197922699Y-89376154D01*
X197972753Y-89343400D01*
X197979894Y-89337576D01*
X198130272Y-89213172D01*
X198172411Y-89170737D01*
X198215161Y-89128874D01*
X198221034Y-89121773D01*
X198344384Y-88970531D01*
X198377477Y-88920723D01*
X198411284Y-88871349D01*
X198415667Y-88863243D01*
X198507292Y-88690920D01*
X198530090Y-88635608D01*
X198553652Y-88580634D01*
X198556377Y-88571831D01*
X198612786Y-88384994D01*
X198624405Y-88326314D01*
X198636842Y-88267804D01*
X198637805Y-88258639D01*
X198656850Y-88064406D01*
X198656850Y-88064402D01*
X198660000Y-88032419D01*
X198660000Y-72032279D01*
X198669580Y-71934576D01*
X198688580Y-71871644D01*
X198719445Y-71813595D01*
X198760989Y-71762657D01*
X198811644Y-71720752D01*
X198869471Y-71689485D01*
X198932272Y-71670044D01*
X199027835Y-71660000D01*
X200972911Y-71660000D01*
X201871797Y-71733902D01*
X202720182Y-71947001D01*
X203522371Y-72295803D01*
X204256818Y-72770938D01*
X204903798Y-73359646D01*
X205445946Y-74046125D01*
X205868692Y-74811928D01*
X206160684Y-75636491D01*
X206316116Y-76509076D01*
X206340001Y-77015568D01*
X206340000Y-128972911D01*
X206266098Y-129871802D01*
X206052999Y-130720180D01*
X205704197Y-131522371D01*
X205229062Y-132256818D01*
X204640354Y-132903799D01*
X203953875Y-133445946D01*
X203188076Y-133868691D01*
X202363514Y-134160683D01*
X201490925Y-134316116D01*
X200984453Y-134340000D01*
X199032279Y-134340000D01*
X198934576Y-134330420D01*
X198871643Y-134311420D01*
X198813594Y-134280554D01*
X198762657Y-134239011D01*
X198720752Y-134188356D01*
X198689485Y-134130529D01*
X198670044Y-134067728D01*
X198660000Y-133972165D01*
X198660000Y-117967581D01*
X198657217Y-117939326D01*
X198657260Y-117933199D01*
X198656360Y-117924028D01*
X198635959Y-117729931D01*
X198623934Y-117671348D01*
X198612723Y-117612577D01*
X198610059Y-117603755D01*
X198552347Y-117417317D01*
X198529162Y-117362162D01*
X198506758Y-117306709D01*
X198502432Y-117298573D01*
X198409607Y-117126896D01*
X198376139Y-117077278D01*
X198343400Y-117027247D01*
X198337576Y-117020106D01*
X198213172Y-116869728D01*
X198170737Y-116827589D01*
X198128874Y-116784839D01*
X198121773Y-116778966D01*
X197970531Y-116655616D01*
X197920738Y-116622534D01*
X197871349Y-116588716D01*
X197863243Y-116584333D01*
X197690921Y-116492708D01*
X197635606Y-116469909D01*
X197580634Y-116446348D01*
X197571831Y-116443623D01*
X197384995Y-116387214D01*
X197326307Y-116375594D01*
X197267804Y-116363158D01*
X197258639Y-116362195D01*
X197064405Y-116343150D01*
X197064402Y-116343150D01*
X197032419Y-116340000D01*
X107206483Y-116340000D01*
X107233910Y-116325340D01*
X107349635Y-116230367D01*
X107373438Y-116201363D01*
X108314802Y-115260000D01*
X198462678Y-115260000D01*
X198500000Y-115263676D01*
X198537322Y-115260000D01*
X198537333Y-115260000D01*
X198648986Y-115249003D01*
X198792247Y-115205546D01*
X198924276Y-115134974D01*
X199040001Y-115040001D01*
X199063803Y-115010998D01*
X199798502Y-114276299D01*
X199827501Y-114252501D01*
X199922474Y-114136776D01*
X199993046Y-114004747D01*
X200011187Y-113944944D01*
X200112115Y-113862115D01*
X200218671Y-113732275D01*
X200297850Y-113584142D01*
X200346608Y-113423408D01*
X200363072Y-113256250D01*
X200363072Y-112743750D01*
X200346608Y-112576592D01*
X200297850Y-112415858D01*
X200218671Y-112267725D01*
X200112115Y-112137885D01*
X200047500Y-112084857D01*
X200047500Y-95415143D01*
X200112115Y-95362115D01*
X200218671Y-95232275D01*
X200297850Y-95084142D01*
X200346608Y-94923408D01*
X200363072Y-94756250D01*
X200363072Y-94243750D01*
X200346608Y-94076592D01*
X200297850Y-93915858D01*
X200218671Y-93767725D01*
X200112115Y-93637885D01*
X199982275Y-93531329D01*
X199834142Y-93452150D01*
X199673408Y-93403392D01*
X199506250Y-93386928D01*
X199068750Y-93386928D01*
X198901592Y-93403392D01*
X198740858Y-93452150D01*
X198592725Y-93531329D01*
X198571070Y-93549100D01*
X198504494Y-93494463D01*
X198394180Y-93435498D01*
X198274482Y-93399188D01*
X198150000Y-93386928D01*
X197998250Y-93390000D01*
X197839500Y-93548750D01*
X197839500Y-94373000D01*
X197859500Y-94373000D01*
X197859500Y-94627000D01*
X197839500Y-94627000D01*
X197839500Y-95451250D01*
X197998250Y-95610000D01*
X198150000Y-95613072D01*
X198274482Y-95600812D01*
X198394180Y-95564502D01*
X198504494Y-95505537D01*
X198527501Y-95486656D01*
X198527500Y-112013344D01*
X198504494Y-111994463D01*
X198394180Y-111935498D01*
X198274482Y-111899188D01*
X198150000Y-111886928D01*
X197998250Y-111890000D01*
X197839500Y-112048750D01*
X197839500Y-112873000D01*
X197859500Y-112873000D01*
X197859500Y-113127000D01*
X197839500Y-113127000D01*
X197839500Y-113147000D01*
X197585500Y-113147000D01*
X197585500Y-113127000D01*
X196798750Y-113127000D01*
X196640000Y-113285750D01*
X196636928Y-113475000D01*
X196649188Y-113599482D01*
X196685498Y-113719180D01*
X196696627Y-113740000D01*
X108037325Y-113740000D01*
X108000000Y-113736324D01*
X107962675Y-113740000D01*
X107962667Y-113740000D01*
X107851014Y-113750997D01*
X107707753Y-113794454D01*
X107575724Y-113865026D01*
X107459999Y-113959999D01*
X107436201Y-113988997D01*
X106494833Y-114930366D01*
X105346963Y-114930366D01*
X105309638Y-114926690D01*
X105272313Y-114930366D01*
X105272305Y-114930366D01*
X105160652Y-114941363D01*
X105017391Y-114984820D01*
X104885362Y-115055392D01*
X104769637Y-115150365D01*
X104745839Y-115179363D01*
X100685201Y-119240002D01*
X85814804Y-119240002D01*
X84563804Y-117989003D01*
X84540001Y-117959999D01*
X84424276Y-117865026D01*
X84292247Y-117794454D01*
X84148986Y-117750997D01*
X84037333Y-117740000D01*
X84037322Y-117740000D01*
X84000000Y-117736324D01*
X83962678Y-117740000D01*
X77760000Y-117740000D01*
X77760000Y-102180496D01*
X77840767Y-102180496D01*
X77840767Y-103819504D01*
X78006583Y-105450101D01*
X78336512Y-107055558D01*
X78827171Y-108619399D01*
X79473523Y-110125577D01*
X80268936Y-111558638D01*
X81205249Y-112903875D01*
X82272853Y-114147485D01*
X83460793Y-115276706D01*
X84756880Y-116279952D01*
X86147814Y-117146928D01*
X87619322Y-117868737D01*
X89156305Y-118437973D01*
X90742990Y-118848794D01*
X92363097Y-119096986D01*
X94000000Y-119180000D01*
X95636903Y-119096986D01*
X97257010Y-118848794D01*
X98843695Y-118437973D01*
X100380678Y-117868737D01*
X101852186Y-117146928D01*
X103243120Y-116279952D01*
X104539207Y-115276706D01*
X105727147Y-114147485D01*
X106794751Y-112903875D01*
X107058455Y-112525000D01*
X196636928Y-112525000D01*
X196640000Y-112714250D01*
X196798750Y-112873000D01*
X197585500Y-112873000D01*
X197585500Y-112048750D01*
X197426750Y-111890000D01*
X197275000Y-111886928D01*
X197150518Y-111899188D01*
X197030820Y-111935498D01*
X196920506Y-111994463D01*
X196823815Y-112073815D01*
X196744463Y-112170506D01*
X196685498Y-112280820D01*
X196649188Y-112400518D01*
X196636928Y-112525000D01*
X107058455Y-112525000D01*
X107731064Y-111558638D01*
X108526477Y-110125577D01*
X109172829Y-108619399D01*
X109663488Y-107055558D01*
X109993417Y-105450101D01*
X110159233Y-103819504D01*
X110159233Y-102180496D01*
X109993417Y-100549899D01*
X109663488Y-98944442D01*
X109172829Y-97380601D01*
X108526477Y-95874423D01*
X108027257Y-94975000D01*
X196636928Y-94975000D01*
X196649188Y-95099482D01*
X196685498Y-95219180D01*
X196744463Y-95329494D01*
X196823815Y-95426185D01*
X196920506Y-95505537D01*
X197030820Y-95564502D01*
X197150518Y-95600812D01*
X197275000Y-95613072D01*
X197426750Y-95610000D01*
X197585500Y-95451250D01*
X197585500Y-94627000D01*
X196798750Y-94627000D01*
X196640000Y-94785750D01*
X196636928Y-94975000D01*
X108027257Y-94975000D01*
X107731064Y-94441362D01*
X107441268Y-94025000D01*
X196636928Y-94025000D01*
X196640000Y-94214250D01*
X196798750Y-94373000D01*
X197585500Y-94373000D01*
X197585500Y-93548750D01*
X197426750Y-93390000D01*
X197275000Y-93386928D01*
X197150518Y-93399188D01*
X197030820Y-93435498D01*
X196920506Y-93494463D01*
X196823815Y-93573815D01*
X196744463Y-93670506D01*
X196685498Y-93780820D01*
X196649188Y-93900518D01*
X196636928Y-94025000D01*
X107441268Y-94025000D01*
X106794751Y-93096125D01*
X105727147Y-91852515D01*
X104539207Y-90723294D01*
X103243120Y-89720048D01*
X101852186Y-88853072D01*
X100380678Y-88131263D01*
X98843695Y-87562027D01*
X97257010Y-87151206D01*
X95636903Y-86903014D01*
X94000000Y-86820000D01*
X92363097Y-86903014D01*
X90742990Y-87151206D01*
X89156305Y-87562027D01*
X87619322Y-88131263D01*
X86147814Y-88853072D01*
X84756880Y-89720048D01*
X83460793Y-90723294D01*
X82272853Y-91852515D01*
X81205249Y-93096125D01*
X80268936Y-94441362D01*
X79473523Y-95874423D01*
X78827171Y-97380601D01*
X78336512Y-98944442D01*
X78006583Y-100549899D01*
X77840767Y-102180496D01*
X77760000Y-102180496D01*
X77760000Y-83186735D01*
X77967562Y-83671045D01*
X77982704Y-83703787D01*
X77985223Y-83708853D01*
X78035872Y-83793568D01*
X78041537Y-83801566D01*
X78123479Y-83896049D01*
X78130596Y-83902789D01*
X78229454Y-83979510D01*
X78237749Y-83984731D01*
X78292285Y-84015430D01*
X79292285Y-84515430D01*
X79370871Y-84548362D01*
X79383477Y-84552680D01*
X79527689Y-84584037D01*
X79537444Y-84584998D01*
X79541857Y-84584998D01*
X79564111Y-84600262D01*
X79572698Y-84604987D01*
X79687612Y-84654238D01*
X79696956Y-84657198D01*
X79819406Y-84683111D01*
X79829148Y-84684190D01*
X79954135Y-84685715D01*
X79963901Y-84684874D01*
X80086931Y-84661962D01*
X80096345Y-84659231D01*
X80155544Y-84638859D01*
X81655544Y-84038859D01*
X81712485Y-84012772D01*
X81721185Y-84008257D01*
X81826005Y-83940052D01*
X81833657Y-83933927D01*
X81923203Y-83846536D01*
X81929513Y-83839035D01*
X82000262Y-83735889D01*
X82004987Y-83727302D01*
X82032438Y-83671045D01*
X82276191Y-83102290D01*
X82389319Y-83067973D01*
X82479875Y-83030464D01*
X82590192Y-82971498D01*
X82671691Y-82917042D01*
X82768382Y-82837690D01*
X82837690Y-82768382D01*
X82917042Y-82671691D01*
X82971498Y-82590192D01*
X83030464Y-82479875D01*
X83067973Y-82389319D01*
X83104282Y-82269623D01*
X83123404Y-82173490D01*
X83135664Y-82049009D01*
X83135664Y-81950991D01*
X83123404Y-81826510D01*
X83104282Y-81730377D01*
X83067973Y-81610681D01*
X83030464Y-81520125D01*
X82971498Y-81409808D01*
X82917042Y-81328309D01*
X82837690Y-81231618D01*
X82768382Y-81162310D01*
X82671691Y-81082958D01*
X82590192Y-81028502D01*
X82479875Y-80969536D01*
X82389319Y-80932027D01*
X82276191Y-80897710D01*
X82032438Y-80328955D01*
X82004987Y-80272698D01*
X82000262Y-80264111D01*
X81929513Y-80160965D01*
X81923203Y-80153464D01*
X81833657Y-80066073D01*
X81826005Y-80059948D01*
X81721185Y-79991743D01*
X81712485Y-79987228D01*
X81655544Y-79961141D01*
X80155544Y-79361141D01*
X80100040Y-79341853D01*
X80091225Y-79339238D01*
X79972311Y-79315963D01*
X79962556Y-79315002D01*
X79837444Y-79315002D01*
X79827689Y-79315963D01*
X79705028Y-79340363D01*
X79695649Y-79343208D01*
X79580073Y-79391081D01*
X79571428Y-79395702D01*
X79538601Y-79417637D01*
X79489046Y-79421159D01*
X79479384Y-79422809D01*
X79358769Y-79455839D01*
X79349614Y-79459342D01*
X79292285Y-79484570D01*
X78292285Y-79984570D01*
X78260484Y-80001611D01*
X78255575Y-80004423D01*
X78173995Y-80059948D01*
X78166343Y-80066073D01*
X78076797Y-80153464D01*
X78070487Y-80160965D01*
X77999738Y-80264111D01*
X77995013Y-80272698D01*
X77967562Y-80328955D01*
X77723809Y-80897710D01*
X77610681Y-80932027D01*
X77520125Y-80969536D01*
X77409808Y-81028502D01*
X77328309Y-81082958D01*
X77231618Y-81162310D01*
X77162310Y-81231618D01*
X77155431Y-81240000D01*
X77037333Y-81240000D01*
X77000000Y-81236323D01*
X76962667Y-81240000D01*
X76851014Y-81250997D01*
X76707753Y-81294454D01*
X76575724Y-81365026D01*
X76459999Y-81459999D01*
X76365026Y-81575724D01*
X76294454Y-81707753D01*
X76250997Y-81851014D01*
X76236323Y-82000000D01*
X76240001Y-82037343D01*
X76240000Y-118462667D01*
X76236323Y-118500000D01*
X76240001Y-118537343D01*
X76240000Y-121462667D01*
X76236323Y-121500000D01*
X76250997Y-121648986D01*
X76294454Y-121792247D01*
X76365026Y-121924276D01*
X76410655Y-121979875D01*
X76459999Y-122040001D01*
X76575724Y-122134974D01*
X76707753Y-122205546D01*
X76851014Y-122249003D01*
X77000000Y-122263677D01*
X77037333Y-122260000D01*
X78155431Y-122260000D01*
X78162310Y-122268382D01*
X78231618Y-122337690D01*
X78328309Y-122417042D01*
X78409808Y-122471498D01*
X78520125Y-122530464D01*
X78610681Y-122567973D01*
X78723809Y-122602290D01*
X78967562Y-123171045D01*
X78982704Y-123203787D01*
X78985223Y-123208853D01*
X79035872Y-123293568D01*
X79041537Y-123301566D01*
X79123479Y-123396049D01*
X79130596Y-123402789D01*
X79229454Y-123479510D01*
X79237749Y-123484731D01*
X79292285Y-123515430D01*
X80292285Y-124015430D01*
X80370871Y-124048362D01*
X80383477Y-124052680D01*
X80527689Y-124084037D01*
X80537444Y-124084998D01*
X80541857Y-124084998D01*
X80564111Y-124100262D01*
X80572698Y-124104987D01*
X80687612Y-124154238D01*
X80696956Y-124157198D01*
X80819406Y-124183111D01*
X80829148Y-124184190D01*
X80954135Y-124185715D01*
X80963901Y-124184874D01*
X81086931Y-124161962D01*
X81096345Y-124159231D01*
X81155544Y-124138859D01*
X82655544Y-123538859D01*
X82712485Y-123512772D01*
X82721185Y-123508257D01*
X82826005Y-123440052D01*
X82833657Y-123433927D01*
X82923203Y-123346536D01*
X82929513Y-123339035D01*
X83000262Y-123235889D01*
X83004987Y-123227302D01*
X83032438Y-123171045D01*
X83276191Y-122602290D01*
X83389319Y-122567973D01*
X83479875Y-122530464D01*
X83590192Y-122471498D01*
X83671691Y-122417042D01*
X83768382Y-122337690D01*
X83837690Y-122268382D01*
X83917042Y-122171691D01*
X83971498Y-122090192D01*
X84030464Y-121979875D01*
X84067973Y-121889319D01*
X84104282Y-121769623D01*
X84123404Y-121673490D01*
X84135664Y-121549009D01*
X84135664Y-121450991D01*
X84123404Y-121326510D01*
X84104282Y-121230377D01*
X84067973Y-121110681D01*
X84030464Y-121020125D01*
X83971498Y-120909808D01*
X83917042Y-120828309D01*
X83837690Y-120731618D01*
X83768382Y-120662310D01*
X83671691Y-120582958D01*
X83590192Y-120528502D01*
X83479875Y-120469536D01*
X83389319Y-120432027D01*
X83276191Y-120397710D01*
X83032438Y-119828955D01*
X83004987Y-119772698D01*
X83000262Y-119764111D01*
X82929513Y-119660965D01*
X82923203Y-119653464D01*
X82833657Y-119566073D01*
X82826005Y-119559948D01*
X82721185Y-119491743D01*
X82712485Y-119487228D01*
X82655544Y-119461141D01*
X82152691Y-119260000D01*
X83685199Y-119260000D01*
X84936203Y-120511005D01*
X84960001Y-120540003D01*
X85075726Y-120634976D01*
X85207755Y-120705548D01*
X85351016Y-120749005D01*
X85462669Y-120760002D01*
X85462678Y-120760002D01*
X85500001Y-120763678D01*
X85537324Y-120760002D01*
X100962680Y-120760002D01*
X101000002Y-120763678D01*
X101037324Y-120760002D01*
X101037335Y-120760002D01*
X101148988Y-120749005D01*
X101292249Y-120705548D01*
X101424278Y-120634976D01*
X101540003Y-120540003D01*
X101563806Y-120510999D01*
X103340001Y-118734804D01*
X103340000Y-128876879D01*
X101301798Y-134149804D01*
X101266277Y-134206287D01*
X101221137Y-134254079D01*
X101167579Y-134292190D01*
X101107629Y-134319177D01*
X101032938Y-134336468D01*
X100978583Y-134340000D01*
X81027089Y-134340000D01*
X80128198Y-134266098D01*
X79279820Y-134052999D01*
X78477629Y-133704197D01*
X77743182Y-133229062D01*
X77096201Y-132640354D01*
X76554054Y-131953875D01*
X76131309Y-131188076D01*
X75839317Y-130363514D01*
X75683884Y-129490925D01*
X75660000Y-128984453D01*
X75660000Y-77027089D01*
X75733902Y-76128203D01*
X75947001Y-75279818D01*
X76295803Y-74477629D01*
X76770938Y-73743182D01*
X77359646Y-73096202D01*
X78046125Y-72554054D01*
X78811928Y-72131308D01*
X79636491Y-71839316D01*
X80509076Y-71683884D01*
X81015547Y-71660000D01*
X100967721Y-71660000D01*
X101065424Y-71669580D01*
%TA.AperFunction,Conductor*%
D14*
G36*
X101065424Y-71669580D02*
G01*
X101128356Y-71688580D01*
X101186405Y-71719445D01*
X101237343Y-71760989D01*
X101286216Y-71820066D01*
X101297857Y-71840001D01*
X103340000Y-77123121D01*
X103340001Y-88032419D01*
X103342783Y-88060664D01*
X103342740Y-88066801D01*
X103343640Y-88075972D01*
X103364041Y-88270069D01*
X103376068Y-88328658D01*
X103387277Y-88387423D01*
X103389941Y-88396245D01*
X103447653Y-88582683D01*
X103470838Y-88637838D01*
X103493242Y-88693291D01*
X103497568Y-88701427D01*
X103590393Y-88873104D01*
X103623846Y-88922699D01*
X103656600Y-88972753D01*
X103662424Y-88979894D01*
X103786828Y-89130272D01*
X103829263Y-89172411D01*
X103871126Y-89215161D01*
X103878227Y-89221034D01*
X104029469Y-89344384D01*
X104079277Y-89377477D01*
X104128651Y-89411284D01*
X104136757Y-89415667D01*
X104309080Y-89507292D01*
X104364392Y-89530090D01*
X104419366Y-89553652D01*
X104428169Y-89556377D01*
X104615006Y-89612786D01*
X104673686Y-89624405D01*
X104732196Y-89636842D01*
X104741361Y-89637805D01*
X104935594Y-89656850D01*
X104935598Y-89656850D01*
X104967581Y-89660000D01*
X197032419Y-89660000D01*
X197060674Y-89657217D01*
X197066801Y-89657260D01*
X197075972Y-89656360D01*
X197270069Y-89635959D01*
X197328658Y-89623932D01*
X197387423Y-89612723D01*
X197396245Y-89610059D01*
X197582683Y-89552347D01*
X197637838Y-89529162D01*
X197693291Y-89506758D01*
X197701427Y-89502432D01*
X197873104Y-89409607D01*
X197922699Y-89376154D01*
X197972753Y-89343400D01*
X197979894Y-89337576D01*
X198130272Y-89213172D01*
X198172411Y-89170737D01*
X198215161Y-89128874D01*
X198221034Y-89121773D01*
X198344384Y-88970531D01*
X198377477Y-88920723D01*
X198411284Y-88871349D01*
X198415667Y-88863243D01*
X198507292Y-88690920D01*
X198530090Y-88635608D01*
X198553652Y-88580634D01*
X198556377Y-88571831D01*
X198612786Y-88384994D01*
X198624405Y-88326314D01*
X198636842Y-88267804D01*
X198637805Y-88258639D01*
X198656850Y-88064406D01*
X198656850Y-88064402D01*
X198660000Y-88032419D01*
X198660000Y-72032279D01*
X198669580Y-71934576D01*
X198688580Y-71871644D01*
X198719445Y-71813595D01*
X198760989Y-71762657D01*
X198811644Y-71720752D01*
X198869471Y-71689485D01*
X198932272Y-71670044D01*
X199027835Y-71660000D01*
X200972911Y-71660000D01*
X201871797Y-71733902D01*
X202720182Y-71947001D01*
X203522371Y-72295803D01*
X204256818Y-72770938D01*
X204903798Y-73359646D01*
X205445946Y-74046125D01*
X205868692Y-74811928D01*
X206160684Y-75636491D01*
X206316116Y-76509076D01*
X206340001Y-77015568D01*
X206340000Y-128972911D01*
X206266098Y-129871802D01*
X206052999Y-130720180D01*
X205704197Y-131522371D01*
X205229062Y-132256818D01*
X204640354Y-132903799D01*
X203953875Y-133445946D01*
X203188076Y-133868691D01*
X202363514Y-134160683D01*
X201490925Y-134316116D01*
X200984453Y-134340000D01*
X199032279Y-134340000D01*
X198934576Y-134330420D01*
X198871643Y-134311420D01*
X198813594Y-134280554D01*
X198762657Y-134239011D01*
X198720752Y-134188356D01*
X198689485Y-134130529D01*
X198670044Y-134067728D01*
X198660000Y-133972165D01*
X198660000Y-117967581D01*
X198657217Y-117939326D01*
X198657260Y-117933199D01*
X198656360Y-117924028D01*
X198635959Y-117729931D01*
X198623934Y-117671348D01*
X198612723Y-117612577D01*
X198610059Y-117603755D01*
X198552347Y-117417317D01*
X198529162Y-117362162D01*
X198506758Y-117306709D01*
X198502432Y-117298573D01*
X198409607Y-117126896D01*
X198376139Y-117077278D01*
X198343400Y-117027247D01*
X198337576Y-117020106D01*
X198213172Y-116869728D01*
X198170737Y-116827589D01*
X198128874Y-116784839D01*
X198121773Y-116778966D01*
X197970531Y-116655616D01*
X197920738Y-116622534D01*
X197871349Y-116588716D01*
X197863243Y-116584333D01*
X197690921Y-116492708D01*
X197635606Y-116469909D01*
X197580634Y-116446348D01*
X197571831Y-116443623D01*
X197384995Y-116387214D01*
X197326307Y-116375594D01*
X197267804Y-116363158D01*
X197258639Y-116362195D01*
X197064405Y-116343150D01*
X197064402Y-116343150D01*
X197032419Y-116340000D01*
X107206483Y-116340000D01*
X107233910Y-116325340D01*
X107349635Y-116230367D01*
X107373438Y-116201363D01*
X108314802Y-115260000D01*
X198462678Y-115260000D01*
X198500000Y-115263676D01*
X198537322Y-115260000D01*
X198537333Y-115260000D01*
X198648986Y-115249003D01*
X198792247Y-115205546D01*
X198924276Y-115134974D01*
X199040001Y-115040001D01*
X199063803Y-115010998D01*
X199798502Y-114276299D01*
X199827501Y-114252501D01*
X199922474Y-114136776D01*
X199993046Y-114004747D01*
X200011187Y-113944944D01*
X200112115Y-113862115D01*
X200218671Y-113732275D01*
X200297850Y-113584142D01*
X200346608Y-113423408D01*
X200363072Y-113256250D01*
X200363072Y-112743750D01*
X200346608Y-112576592D01*
X200297850Y-112415858D01*
X200218671Y-112267725D01*
X200112115Y-112137885D01*
X200047500Y-112084857D01*
X200047500Y-95415143D01*
X200112115Y-95362115D01*
X200218671Y-95232275D01*
X200297850Y-95084142D01*
X200346608Y-94923408D01*
X200363072Y-94756250D01*
X200363072Y-94243750D01*
X200346608Y-94076592D01*
X200297850Y-93915858D01*
X200218671Y-93767725D01*
X200112115Y-93637885D01*
X199982275Y-93531329D01*
X199834142Y-93452150D01*
X199673408Y-93403392D01*
X199506250Y-93386928D01*
X199068750Y-93386928D01*
X198901592Y-93403392D01*
X198740858Y-93452150D01*
X198592725Y-93531329D01*
X198571070Y-93549100D01*
X198504494Y-93494463D01*
X198394180Y-93435498D01*
X198274482Y-93399188D01*
X198150000Y-93386928D01*
X197998250Y-93390000D01*
X197839500Y-93548750D01*
X197839500Y-94373000D01*
X197859500Y-94373000D01*
X197859500Y-94627000D01*
X197839500Y-94627000D01*
X197839500Y-95451250D01*
X197998250Y-95610000D01*
X198150000Y-95613072D01*
X198274482Y-95600812D01*
X198394180Y-95564502D01*
X198504494Y-95505537D01*
X198527501Y-95486656D01*
X198527500Y-112013344D01*
X198504494Y-111994463D01*
X198394180Y-111935498D01*
X198274482Y-111899188D01*
X198150000Y-111886928D01*
X197998250Y-111890000D01*
X197839500Y-112048750D01*
X197839500Y-112873000D01*
X197859500Y-112873000D01*
X197859500Y-113127000D01*
X197839500Y-113127000D01*
X197839500Y-113147000D01*
X197585500Y-113147000D01*
X197585500Y-113127000D01*
X196798750Y-113127000D01*
X196640000Y-113285750D01*
X196636928Y-113475000D01*
X196649188Y-113599482D01*
X196685498Y-113719180D01*
X196696627Y-113740000D01*
X108037325Y-113740000D01*
X108000000Y-113736324D01*
X107962675Y-113740000D01*
X107962667Y-113740000D01*
X107851014Y-113750997D01*
X107707753Y-113794454D01*
X107575724Y-113865026D01*
X107459999Y-113959999D01*
X107436201Y-113988997D01*
X106494833Y-114930366D01*
X105346963Y-114930366D01*
X105309638Y-114926690D01*
X105272313Y-114930366D01*
X105272305Y-114930366D01*
X105160652Y-114941363D01*
X105017391Y-114984820D01*
X104885362Y-115055392D01*
X104769637Y-115150365D01*
X104745839Y-115179363D01*
X100685201Y-119240002D01*
X85814804Y-119240002D01*
X84563804Y-117989003D01*
X84540001Y-117959999D01*
X84424276Y-117865026D01*
X84292247Y-117794454D01*
X84148986Y-117750997D01*
X84037333Y-117740000D01*
X84037322Y-117740000D01*
X84000000Y-117736324D01*
X83962678Y-117740000D01*
X77760000Y-117740000D01*
X77760000Y-102180496D01*
X77840767Y-102180496D01*
X77840767Y-103819504D01*
X78006583Y-105450101D01*
X78336512Y-107055558D01*
X78827171Y-108619399D01*
X79473523Y-110125577D01*
X80268936Y-111558638D01*
X81205249Y-112903875D01*
X82272853Y-114147485D01*
X83460793Y-115276706D01*
X84756880Y-116279952D01*
X86147814Y-117146928D01*
X87619322Y-117868737D01*
X89156305Y-118437973D01*
X90742990Y-118848794D01*
X92363097Y-119096986D01*
X94000000Y-119180000D01*
X95636903Y-119096986D01*
X97257010Y-118848794D01*
X98843695Y-118437973D01*
X100380678Y-117868737D01*
X101852186Y-117146928D01*
X103243120Y-116279952D01*
X104539207Y-115276706D01*
X105727147Y-114147485D01*
X106794751Y-112903875D01*
X107058455Y-112525000D01*
X196636928Y-112525000D01*
X196640000Y-112714250D01*
X196798750Y-112873000D01*
X197585500Y-112873000D01*
X197585500Y-112048750D01*
X197426750Y-111890000D01*
X197275000Y-111886928D01*
X197150518Y-111899188D01*
X197030820Y-111935498D01*
X196920506Y-111994463D01*
X196823815Y-112073815D01*
X196744463Y-112170506D01*
X196685498Y-112280820D01*
X196649188Y-112400518D01*
X196636928Y-112525000D01*
X107058455Y-112525000D01*
X107731064Y-111558638D01*
X108526477Y-110125577D01*
X109172829Y-108619399D01*
X109663488Y-107055558D01*
X109993417Y-105450101D01*
X110159233Y-103819504D01*
X110159233Y-102180496D01*
X109993417Y-100549899D01*
X109663488Y-98944442D01*
X109172829Y-97380601D01*
X108526477Y-95874423D01*
X108027257Y-94975000D01*
X196636928Y-94975000D01*
X196649188Y-95099482D01*
X196685498Y-95219180D01*
X196744463Y-95329494D01*
X196823815Y-95426185D01*
X196920506Y-95505537D01*
X197030820Y-95564502D01*
X197150518Y-95600812D01*
X197275000Y-95613072D01*
X197426750Y-95610000D01*
X197585500Y-95451250D01*
X197585500Y-94627000D01*
X196798750Y-94627000D01*
X196640000Y-94785750D01*
X196636928Y-94975000D01*
X108027257Y-94975000D01*
X107731064Y-94441362D01*
X107441268Y-94025000D01*
X196636928Y-94025000D01*
X196640000Y-94214250D01*
X196798750Y-94373000D01*
X197585500Y-94373000D01*
X197585500Y-93548750D01*
X197426750Y-93390000D01*
X197275000Y-93386928D01*
X197150518Y-93399188D01*
X197030820Y-93435498D01*
X196920506Y-93494463D01*
X196823815Y-93573815D01*
X196744463Y-93670506D01*
X196685498Y-93780820D01*
X196649188Y-93900518D01*
X196636928Y-94025000D01*
X107441268Y-94025000D01*
X106794751Y-93096125D01*
X105727147Y-91852515D01*
X104539207Y-90723294D01*
X103243120Y-89720048D01*
X101852186Y-88853072D01*
X100380678Y-88131263D01*
X98843695Y-87562027D01*
X97257010Y-87151206D01*
X95636903Y-86903014D01*
X94000000Y-86820000D01*
X92363097Y-86903014D01*
X90742990Y-87151206D01*
X89156305Y-87562027D01*
X87619322Y-88131263D01*
X86147814Y-88853072D01*
X84756880Y-89720048D01*
X83460793Y-90723294D01*
X82272853Y-91852515D01*
X81205249Y-93096125D01*
X80268936Y-94441362D01*
X79473523Y-95874423D01*
X78827171Y-97380601D01*
X78336512Y-98944442D01*
X78006583Y-100549899D01*
X77840767Y-102180496D01*
X77760000Y-102180496D01*
X77760000Y-83186735D01*
X77967562Y-83671045D01*
X77982704Y-83703787D01*
X77985223Y-83708853D01*
X78035872Y-83793568D01*
X78041537Y-83801566D01*
X78123479Y-83896049D01*
X78130596Y-83902789D01*
X78229454Y-83979510D01*
X78237749Y-83984731D01*
X78292285Y-84015430D01*
X79292285Y-84515430D01*
X79370871Y-84548362D01*
X79383477Y-84552680D01*
X79527689Y-84584037D01*
X79537444Y-84584998D01*
X79541857Y-84584998D01*
X79564111Y-84600262D01*
X79572698Y-84604987D01*
X79687612Y-84654238D01*
X79696956Y-84657198D01*
X79819406Y-84683111D01*
X79829148Y-84684190D01*
X79954135Y-84685715D01*
X79963901Y-84684874D01*
X80086931Y-84661962D01*
X80096345Y-84659231D01*
X80155544Y-84638859D01*
X81655544Y-84038859D01*
X81712485Y-84012772D01*
X81721185Y-84008257D01*
X81826005Y-83940052D01*
X81833657Y-83933927D01*
X81923203Y-83846536D01*
X81929513Y-83839035D01*
X82000262Y-83735889D01*
X82004987Y-83727302D01*
X82032438Y-83671045D01*
X82276191Y-83102290D01*
X82389319Y-83067973D01*
X82479875Y-83030464D01*
X82590192Y-82971498D01*
X82671691Y-82917042D01*
X82768382Y-82837690D01*
X82837690Y-82768382D01*
X82917042Y-82671691D01*
X82971498Y-82590192D01*
X83030464Y-82479875D01*
X83067973Y-82389319D01*
X83104282Y-82269623D01*
X83123404Y-82173490D01*
X83135664Y-82049009D01*
X83135664Y-81950991D01*
X83123404Y-81826510D01*
X83104282Y-81730377D01*
X83067973Y-81610681D01*
X83030464Y-81520125D01*
X82971498Y-81409808D01*
X82917042Y-81328309D01*
X82837690Y-81231618D01*
X82768382Y-81162310D01*
X82671691Y-81082958D01*
X82590192Y-81028502D01*
X82479875Y-80969536D01*
X82389319Y-80932027D01*
X82276191Y-80897710D01*
X82032438Y-80328955D01*
X82004987Y-80272698D01*
X82000262Y-80264111D01*
X81929513Y-80160965D01*
X81923203Y-80153464D01*
X81833657Y-80066073D01*
X81826005Y-80059948D01*
X81721185Y-79991743D01*
X81712485Y-79987228D01*
X81655544Y-79961141D01*
X80155544Y-79361141D01*
X80100040Y-79341853D01*
X80091225Y-79339238D01*
X79972311Y-79315963D01*
X79962556Y-79315002D01*
X79837444Y-79315002D01*
X79827689Y-79315963D01*
X79705028Y-79340363D01*
X79695649Y-79343208D01*
X79580073Y-79391081D01*
X79571428Y-79395702D01*
X79538601Y-79417637D01*
X79489046Y-79421159D01*
X79479384Y-79422809D01*
X79358769Y-79455839D01*
X79349614Y-79459342D01*
X79292285Y-79484570D01*
X78292285Y-79984570D01*
X78260484Y-80001611D01*
X78255575Y-80004423D01*
X78173995Y-80059948D01*
X78166343Y-80066073D01*
X78076797Y-80153464D01*
X78070487Y-80160965D01*
X77999738Y-80264111D01*
X77995013Y-80272698D01*
X77967562Y-80328955D01*
X77723809Y-80897710D01*
X77610681Y-80932027D01*
X77520125Y-80969536D01*
X77409808Y-81028502D01*
X77328309Y-81082958D01*
X77231618Y-81162310D01*
X77162310Y-81231618D01*
X77155431Y-81240000D01*
X77037333Y-81240000D01*
X77000000Y-81236323D01*
X76962667Y-81240000D01*
X76851014Y-81250997D01*
X76707753Y-81294454D01*
X76575724Y-81365026D01*
X76459999Y-81459999D01*
X76365026Y-81575724D01*
X76294454Y-81707753D01*
X76250997Y-81851014D01*
X76236323Y-82000000D01*
X76240001Y-82037343D01*
X76240000Y-118462667D01*
X76236323Y-118500000D01*
X76240001Y-118537343D01*
X76240000Y-121462667D01*
X76236323Y-121500000D01*
X76250997Y-121648986D01*
X76294454Y-121792247D01*
X76365026Y-121924276D01*
X76410655Y-121979875D01*
X76459999Y-122040001D01*
X76575724Y-122134974D01*
X76707753Y-122205546D01*
X76851014Y-122249003D01*
X77000000Y-122263677D01*
X77037333Y-122260000D01*
X78155431Y-122260000D01*
X78162310Y-122268382D01*
X78231618Y-122337690D01*
X78328309Y-122417042D01*
X78409808Y-122471498D01*
X78520125Y-122530464D01*
X78610681Y-122567973D01*
X78723809Y-122602290D01*
X78967562Y-123171045D01*
X78982704Y-123203787D01*
X78985223Y-123208853D01*
X79035872Y-123293568D01*
X79041537Y-123301566D01*
X79123479Y-123396049D01*
X79130596Y-123402789D01*
X79229454Y-123479510D01*
X79237749Y-123484731D01*
X79292285Y-123515430D01*
X80292285Y-124015430D01*
X80370871Y-124048362D01*
X80383477Y-124052680D01*
X80527689Y-124084037D01*
X80537444Y-124084998D01*
X80541857Y-124084998D01*
X80564111Y-124100262D01*
X80572698Y-124104987D01*
X80687612Y-124154238D01*
X80696956Y-124157198D01*
X80819406Y-124183111D01*
X80829148Y-124184190D01*
X80954135Y-124185715D01*
X80963901Y-124184874D01*
X81086931Y-124161962D01*
X81096345Y-124159231D01*
X81155544Y-124138859D01*
X82655544Y-123538859D01*
X82712485Y-123512772D01*
X82721185Y-123508257D01*
X82826005Y-123440052D01*
X82833657Y-123433927D01*
X82923203Y-123346536D01*
X82929513Y-123339035D01*
X83000262Y-123235889D01*
X83004987Y-123227302D01*
X83032438Y-123171045D01*
X83276191Y-122602290D01*
X83389319Y-122567973D01*
X83479875Y-122530464D01*
X83590192Y-122471498D01*
X83671691Y-122417042D01*
X83768382Y-122337690D01*
X83837690Y-122268382D01*
X83917042Y-122171691D01*
X83971498Y-122090192D01*
X84030464Y-121979875D01*
X84067973Y-121889319D01*
X84104282Y-121769623D01*
X84123404Y-121673490D01*
X84135664Y-121549009D01*
X84135664Y-121450991D01*
X84123404Y-121326510D01*
X84104282Y-121230377D01*
X84067973Y-121110681D01*
X84030464Y-121020125D01*
X83971498Y-120909808D01*
X83917042Y-120828309D01*
X83837690Y-120731618D01*
X83768382Y-120662310D01*
X83671691Y-120582958D01*
X83590192Y-120528502D01*
X83479875Y-120469536D01*
X83389319Y-120432027D01*
X83276191Y-120397710D01*
X83032438Y-119828955D01*
X83004987Y-119772698D01*
X83000262Y-119764111D01*
X82929513Y-119660965D01*
X82923203Y-119653464D01*
X82833657Y-119566073D01*
X82826005Y-119559948D01*
X82721185Y-119491743D01*
X82712485Y-119487228D01*
X82655544Y-119461141D01*
X82152691Y-119260000D01*
X83685199Y-119260000D01*
X84936203Y-120511005D01*
X84960001Y-120540003D01*
X85075726Y-120634976D01*
X85207755Y-120705548D01*
X85351016Y-120749005D01*
X85462669Y-120760002D01*
X85462678Y-120760002D01*
X85500001Y-120763678D01*
X85537324Y-120760002D01*
X100962680Y-120760002D01*
X101000002Y-120763678D01*
X101037324Y-120760002D01*
X101037335Y-120760002D01*
X101148988Y-120749005D01*
X101292249Y-120705548D01*
X101424278Y-120634976D01*
X101540003Y-120540003D01*
X101563806Y-120510999D01*
X103340001Y-118734804D01*
X103340000Y-128876879D01*
X101301798Y-134149804D01*
X101266277Y-134206287D01*
X101221137Y-134254079D01*
X101167579Y-134292190D01*
X101107629Y-134319177D01*
X101032938Y-134336468D01*
X100978583Y-134340000D01*
X81027089Y-134340000D01*
X80128198Y-134266098D01*
X79279820Y-134052999D01*
X78477629Y-133704197D01*
X77743182Y-133229062D01*
X77096201Y-132640354D01*
X76554054Y-131953875D01*
X76131309Y-131188076D01*
X75839317Y-130363514D01*
X75683884Y-129490925D01*
X75660000Y-128984453D01*
X75660000Y-77027089D01*
X75733902Y-76128203D01*
X75947001Y-75279818D01*
X76295803Y-74477629D01*
X76770938Y-73743182D01*
X77359646Y-73096202D01*
X78046125Y-72554054D01*
X78811928Y-72131308D01*
X79636491Y-71839316D01*
X80509076Y-71683884D01*
X81015547Y-71660000D01*
X100967721Y-71660000D01*
X101065424Y-71669580D01*
G37*
%TD.AperFunction*%
%TD*%
M02*
