%TF.GenerationSoftware,KiCad,Pcbnew,(5.1.8)-1*%
%TF.CreationDate,2023-06-17T15:14:55+09:00*%
%TF.ProjectId,face,66616365-2e6b-4696-9361-645f70636258,rev?*%
%TF.SameCoordinates,Original*%
%TF.FileFunction,Copper,L1,Top*%
%TF.FilePolarity,Positive*%
%FSLAX46Y46*%
G04 Gerber Fmt 4.6, Leading zero omitted, Abs format (unit mm)*
G04 Created by KiCad (PCBNEW (5.1.8)-1) date 2023-06-17 15:14:55*
%MOMM*%
%LPD*%
G01*
G04 APERTURE LIST*
%TA.AperFunction,ViaPad*%
%ADD10C,2.400000*%
%TD*%
%TA.AperFunction,Conductor*%
%ADD11C,0.254000*%
%TD*%
%TA.AperFunction,Conductor*%
%ADD12C,0.100000*%
%TD*%
G04 APERTURE END LIST*
D10*
%TO.N,GND*%
X79500000Y-129500000D03*
X202500000Y-129500000D03*
X202500000Y-76500000D03*
X79500000Y-76500000D03*
%TD*%
D11*
%TO.N,GND*%
X101065424Y-71669580D02*
X101128356Y-71688580D01*
X101186405Y-71719445D01*
X101237343Y-71760989D01*
X101286216Y-71820066D01*
X101297857Y-71840001D01*
X103340000Y-77123121D01*
X103340001Y-88032419D01*
X103342783Y-88060664D01*
X103342740Y-88066801D01*
X103343640Y-88075972D01*
X103364041Y-88270069D01*
X103376068Y-88328658D01*
X103387277Y-88387423D01*
X103389941Y-88396245D01*
X103447653Y-88582683D01*
X103470838Y-88637838D01*
X103493242Y-88693291D01*
X103497568Y-88701427D01*
X103590393Y-88873104D01*
X103623846Y-88922699D01*
X103656600Y-88972753D01*
X103662424Y-88979894D01*
X103786828Y-89130272D01*
X103829263Y-89172411D01*
X103871126Y-89215161D01*
X103878227Y-89221034D01*
X104029469Y-89344384D01*
X104079277Y-89377477D01*
X104128651Y-89411284D01*
X104136757Y-89415667D01*
X104309080Y-89507292D01*
X104364392Y-89530090D01*
X104419366Y-89553652D01*
X104428169Y-89556377D01*
X104615006Y-89612786D01*
X104673686Y-89624405D01*
X104732196Y-89636842D01*
X104741361Y-89637805D01*
X104935594Y-89656850D01*
X104935598Y-89656850D01*
X104967581Y-89660000D01*
X197032419Y-89660000D01*
X197060674Y-89657217D01*
X197066801Y-89657260D01*
X197075972Y-89656360D01*
X197270069Y-89635959D01*
X197328658Y-89623932D01*
X197387423Y-89612723D01*
X197396245Y-89610059D01*
X197582683Y-89552347D01*
X197637838Y-89529162D01*
X197693291Y-89506758D01*
X197701427Y-89502432D01*
X197873104Y-89409607D01*
X197922699Y-89376154D01*
X197972753Y-89343400D01*
X197979894Y-89337576D01*
X198130272Y-89213172D01*
X198172411Y-89170737D01*
X198215161Y-89128874D01*
X198221034Y-89121773D01*
X198344384Y-88970531D01*
X198377477Y-88920723D01*
X198411284Y-88871349D01*
X198415667Y-88863243D01*
X198507292Y-88690920D01*
X198530090Y-88635608D01*
X198553652Y-88580634D01*
X198556377Y-88571831D01*
X198612786Y-88384994D01*
X198624405Y-88326314D01*
X198636842Y-88267804D01*
X198637805Y-88258639D01*
X198656850Y-88064406D01*
X198656850Y-88064402D01*
X198660000Y-88032419D01*
X198660000Y-72032279D01*
X198669580Y-71934576D01*
X198688580Y-71871644D01*
X198719445Y-71813595D01*
X198760989Y-71762657D01*
X198811644Y-71720752D01*
X198869471Y-71689485D01*
X198932272Y-71670044D01*
X199027835Y-71660000D01*
X200972911Y-71660000D01*
X201871797Y-71733902D01*
X202720182Y-71947001D01*
X203522371Y-72295803D01*
X204256818Y-72770938D01*
X204903798Y-73359646D01*
X205445946Y-74046125D01*
X205868692Y-74811928D01*
X206160684Y-75636491D01*
X206316116Y-76509076D01*
X206340001Y-77015568D01*
X206340000Y-128972911D01*
X206266098Y-129871802D01*
X206052999Y-130720180D01*
X205704197Y-131522371D01*
X205229062Y-132256818D01*
X204640354Y-132903799D01*
X203953875Y-133445946D01*
X203188076Y-133868691D01*
X202363514Y-134160683D01*
X201490925Y-134316116D01*
X200984453Y-134340000D01*
X199032279Y-134340000D01*
X198934576Y-134330420D01*
X198871643Y-134311420D01*
X198813594Y-134280554D01*
X198762657Y-134239011D01*
X198720752Y-134188356D01*
X198689485Y-134130529D01*
X198670044Y-134067728D01*
X198660000Y-133972165D01*
X198660000Y-117967581D01*
X198657217Y-117939326D01*
X198657260Y-117933199D01*
X198656360Y-117924028D01*
X198635959Y-117729931D01*
X198623934Y-117671348D01*
X198612723Y-117612577D01*
X198610059Y-117603755D01*
X198552347Y-117417317D01*
X198529162Y-117362162D01*
X198506758Y-117306709D01*
X198502432Y-117298573D01*
X198409607Y-117126896D01*
X198376139Y-117077278D01*
X198343400Y-117027247D01*
X198337576Y-117020106D01*
X198213172Y-116869728D01*
X198170737Y-116827589D01*
X198128874Y-116784839D01*
X198121773Y-116778966D01*
X197970531Y-116655616D01*
X197920738Y-116622534D01*
X197871349Y-116588716D01*
X197863243Y-116584333D01*
X197690921Y-116492708D01*
X197635606Y-116469909D01*
X197580634Y-116446348D01*
X197571831Y-116443623D01*
X197384995Y-116387214D01*
X197326307Y-116375594D01*
X197267804Y-116363158D01*
X197258639Y-116362195D01*
X197064405Y-116343150D01*
X197064402Y-116343150D01*
X197032419Y-116340000D01*
X104967581Y-116340000D01*
X104939326Y-116342783D01*
X104933199Y-116342740D01*
X104924028Y-116343640D01*
X104729931Y-116364041D01*
X104671348Y-116376066D01*
X104612577Y-116387277D01*
X104603755Y-116389941D01*
X104417317Y-116447653D01*
X104362162Y-116470838D01*
X104306709Y-116493242D01*
X104298573Y-116497568D01*
X104126896Y-116590393D01*
X104077278Y-116623861D01*
X104027247Y-116656600D01*
X104020106Y-116662424D01*
X103869728Y-116786828D01*
X103827589Y-116829263D01*
X103784839Y-116871126D01*
X103778966Y-116878227D01*
X103655616Y-117029469D01*
X103622534Y-117079262D01*
X103588716Y-117128651D01*
X103584333Y-117136757D01*
X103492708Y-117309079D01*
X103469909Y-117364394D01*
X103446348Y-117419366D01*
X103443623Y-117428169D01*
X103387214Y-117615005D01*
X103375594Y-117673693D01*
X103363158Y-117732196D01*
X103362195Y-117741361D01*
X103343150Y-117935595D01*
X103343150Y-117935608D01*
X103340001Y-117967581D01*
X103340000Y-128876879D01*
X101301798Y-134149804D01*
X101266277Y-134206287D01*
X101221137Y-134254079D01*
X101167579Y-134292190D01*
X101107629Y-134319177D01*
X101032938Y-134336468D01*
X100978583Y-134340000D01*
X81027089Y-134340000D01*
X80128198Y-134266098D01*
X79279820Y-134052999D01*
X78477629Y-133704197D01*
X77743182Y-133229062D01*
X77096201Y-132640354D01*
X76554054Y-131953875D01*
X76131309Y-131188076D01*
X75839317Y-130363514D01*
X75683884Y-129490925D01*
X75660000Y-128984453D01*
X75660000Y-102180496D01*
X77840767Y-102180496D01*
X77840767Y-103819504D01*
X78006583Y-105450101D01*
X78336512Y-107055558D01*
X78827171Y-108619399D01*
X79473523Y-110125577D01*
X80268936Y-111558638D01*
X81205249Y-112903875D01*
X82272853Y-114147485D01*
X83460793Y-115276706D01*
X84756880Y-116279952D01*
X86147814Y-117146928D01*
X87619322Y-117868737D01*
X89156305Y-118437973D01*
X90742990Y-118848794D01*
X92363097Y-119096986D01*
X94000000Y-119180000D01*
X95636903Y-119096986D01*
X97257010Y-118848794D01*
X98843695Y-118437973D01*
X100380678Y-117868737D01*
X101852186Y-117146928D01*
X103243120Y-116279952D01*
X104539207Y-115276706D01*
X105727147Y-114147485D01*
X106794751Y-112903875D01*
X107731064Y-111558638D01*
X108526477Y-110125577D01*
X109172829Y-108619399D01*
X109663488Y-107055558D01*
X109993417Y-105450101D01*
X110159233Y-103819504D01*
X110159233Y-102180496D01*
X109993417Y-100549899D01*
X109663488Y-98944442D01*
X109172829Y-97380601D01*
X108526477Y-95874423D01*
X107731064Y-94441362D01*
X106794751Y-93096125D01*
X105727147Y-91852515D01*
X104539207Y-90723294D01*
X103243120Y-89720048D01*
X101852186Y-88853072D01*
X100380678Y-88131263D01*
X98843695Y-87562027D01*
X97257010Y-87151206D01*
X95636903Y-86903014D01*
X94000000Y-86820000D01*
X92363097Y-86903014D01*
X90742990Y-87151206D01*
X89156305Y-87562027D01*
X87619322Y-88131263D01*
X86147814Y-88853072D01*
X84756880Y-89720048D01*
X83460793Y-90723294D01*
X82272853Y-91852515D01*
X81205249Y-93096125D01*
X80268936Y-94441362D01*
X79473523Y-95874423D01*
X78827171Y-97380601D01*
X78336512Y-98944442D01*
X78006583Y-100549899D01*
X77840767Y-102180496D01*
X75660000Y-102180496D01*
X75660000Y-77027089D01*
X75733902Y-76128203D01*
X75947001Y-75279818D01*
X76295803Y-74477629D01*
X76770938Y-73743182D01*
X77359646Y-73096202D01*
X78046125Y-72554054D01*
X78811928Y-72131308D01*
X79636491Y-71839316D01*
X80509076Y-71683884D01*
X81015547Y-71660000D01*
X100967721Y-71660000D01*
X101065424Y-71669580D01*
%TA.AperFunction,Conductor*%
D12*
G36*
X101065424Y-71669580D02*
G01*
X101128356Y-71688580D01*
X101186405Y-71719445D01*
X101237343Y-71760989D01*
X101286216Y-71820066D01*
X101297857Y-71840001D01*
X103340000Y-77123121D01*
X103340001Y-88032419D01*
X103342783Y-88060664D01*
X103342740Y-88066801D01*
X103343640Y-88075972D01*
X103364041Y-88270069D01*
X103376068Y-88328658D01*
X103387277Y-88387423D01*
X103389941Y-88396245D01*
X103447653Y-88582683D01*
X103470838Y-88637838D01*
X103493242Y-88693291D01*
X103497568Y-88701427D01*
X103590393Y-88873104D01*
X103623846Y-88922699D01*
X103656600Y-88972753D01*
X103662424Y-88979894D01*
X103786828Y-89130272D01*
X103829263Y-89172411D01*
X103871126Y-89215161D01*
X103878227Y-89221034D01*
X104029469Y-89344384D01*
X104079277Y-89377477D01*
X104128651Y-89411284D01*
X104136757Y-89415667D01*
X104309080Y-89507292D01*
X104364392Y-89530090D01*
X104419366Y-89553652D01*
X104428169Y-89556377D01*
X104615006Y-89612786D01*
X104673686Y-89624405D01*
X104732196Y-89636842D01*
X104741361Y-89637805D01*
X104935594Y-89656850D01*
X104935598Y-89656850D01*
X104967581Y-89660000D01*
X197032419Y-89660000D01*
X197060674Y-89657217D01*
X197066801Y-89657260D01*
X197075972Y-89656360D01*
X197270069Y-89635959D01*
X197328658Y-89623932D01*
X197387423Y-89612723D01*
X197396245Y-89610059D01*
X197582683Y-89552347D01*
X197637838Y-89529162D01*
X197693291Y-89506758D01*
X197701427Y-89502432D01*
X197873104Y-89409607D01*
X197922699Y-89376154D01*
X197972753Y-89343400D01*
X197979894Y-89337576D01*
X198130272Y-89213172D01*
X198172411Y-89170737D01*
X198215161Y-89128874D01*
X198221034Y-89121773D01*
X198344384Y-88970531D01*
X198377477Y-88920723D01*
X198411284Y-88871349D01*
X198415667Y-88863243D01*
X198507292Y-88690920D01*
X198530090Y-88635608D01*
X198553652Y-88580634D01*
X198556377Y-88571831D01*
X198612786Y-88384994D01*
X198624405Y-88326314D01*
X198636842Y-88267804D01*
X198637805Y-88258639D01*
X198656850Y-88064406D01*
X198656850Y-88064402D01*
X198660000Y-88032419D01*
X198660000Y-72032279D01*
X198669580Y-71934576D01*
X198688580Y-71871644D01*
X198719445Y-71813595D01*
X198760989Y-71762657D01*
X198811644Y-71720752D01*
X198869471Y-71689485D01*
X198932272Y-71670044D01*
X199027835Y-71660000D01*
X200972911Y-71660000D01*
X201871797Y-71733902D01*
X202720182Y-71947001D01*
X203522371Y-72295803D01*
X204256818Y-72770938D01*
X204903798Y-73359646D01*
X205445946Y-74046125D01*
X205868692Y-74811928D01*
X206160684Y-75636491D01*
X206316116Y-76509076D01*
X206340001Y-77015568D01*
X206340000Y-128972911D01*
X206266098Y-129871802D01*
X206052999Y-130720180D01*
X205704197Y-131522371D01*
X205229062Y-132256818D01*
X204640354Y-132903799D01*
X203953875Y-133445946D01*
X203188076Y-133868691D01*
X202363514Y-134160683D01*
X201490925Y-134316116D01*
X200984453Y-134340000D01*
X199032279Y-134340000D01*
X198934576Y-134330420D01*
X198871643Y-134311420D01*
X198813594Y-134280554D01*
X198762657Y-134239011D01*
X198720752Y-134188356D01*
X198689485Y-134130529D01*
X198670044Y-134067728D01*
X198660000Y-133972165D01*
X198660000Y-117967581D01*
X198657217Y-117939326D01*
X198657260Y-117933199D01*
X198656360Y-117924028D01*
X198635959Y-117729931D01*
X198623934Y-117671348D01*
X198612723Y-117612577D01*
X198610059Y-117603755D01*
X198552347Y-117417317D01*
X198529162Y-117362162D01*
X198506758Y-117306709D01*
X198502432Y-117298573D01*
X198409607Y-117126896D01*
X198376139Y-117077278D01*
X198343400Y-117027247D01*
X198337576Y-117020106D01*
X198213172Y-116869728D01*
X198170737Y-116827589D01*
X198128874Y-116784839D01*
X198121773Y-116778966D01*
X197970531Y-116655616D01*
X197920738Y-116622534D01*
X197871349Y-116588716D01*
X197863243Y-116584333D01*
X197690921Y-116492708D01*
X197635606Y-116469909D01*
X197580634Y-116446348D01*
X197571831Y-116443623D01*
X197384995Y-116387214D01*
X197326307Y-116375594D01*
X197267804Y-116363158D01*
X197258639Y-116362195D01*
X197064405Y-116343150D01*
X197064402Y-116343150D01*
X197032419Y-116340000D01*
X104967581Y-116340000D01*
X104939326Y-116342783D01*
X104933199Y-116342740D01*
X104924028Y-116343640D01*
X104729931Y-116364041D01*
X104671348Y-116376066D01*
X104612577Y-116387277D01*
X104603755Y-116389941D01*
X104417317Y-116447653D01*
X104362162Y-116470838D01*
X104306709Y-116493242D01*
X104298573Y-116497568D01*
X104126896Y-116590393D01*
X104077278Y-116623861D01*
X104027247Y-116656600D01*
X104020106Y-116662424D01*
X103869728Y-116786828D01*
X103827589Y-116829263D01*
X103784839Y-116871126D01*
X103778966Y-116878227D01*
X103655616Y-117029469D01*
X103622534Y-117079262D01*
X103588716Y-117128651D01*
X103584333Y-117136757D01*
X103492708Y-117309079D01*
X103469909Y-117364394D01*
X103446348Y-117419366D01*
X103443623Y-117428169D01*
X103387214Y-117615005D01*
X103375594Y-117673693D01*
X103363158Y-117732196D01*
X103362195Y-117741361D01*
X103343150Y-117935595D01*
X103343150Y-117935608D01*
X103340001Y-117967581D01*
X103340000Y-128876879D01*
X101301798Y-134149804D01*
X101266277Y-134206287D01*
X101221137Y-134254079D01*
X101167579Y-134292190D01*
X101107629Y-134319177D01*
X101032938Y-134336468D01*
X100978583Y-134340000D01*
X81027089Y-134340000D01*
X80128198Y-134266098D01*
X79279820Y-134052999D01*
X78477629Y-133704197D01*
X77743182Y-133229062D01*
X77096201Y-132640354D01*
X76554054Y-131953875D01*
X76131309Y-131188076D01*
X75839317Y-130363514D01*
X75683884Y-129490925D01*
X75660000Y-128984453D01*
X75660000Y-102180496D01*
X77840767Y-102180496D01*
X77840767Y-103819504D01*
X78006583Y-105450101D01*
X78336512Y-107055558D01*
X78827171Y-108619399D01*
X79473523Y-110125577D01*
X80268936Y-111558638D01*
X81205249Y-112903875D01*
X82272853Y-114147485D01*
X83460793Y-115276706D01*
X84756880Y-116279952D01*
X86147814Y-117146928D01*
X87619322Y-117868737D01*
X89156305Y-118437973D01*
X90742990Y-118848794D01*
X92363097Y-119096986D01*
X94000000Y-119180000D01*
X95636903Y-119096986D01*
X97257010Y-118848794D01*
X98843695Y-118437973D01*
X100380678Y-117868737D01*
X101852186Y-117146928D01*
X103243120Y-116279952D01*
X104539207Y-115276706D01*
X105727147Y-114147485D01*
X106794751Y-112903875D01*
X107731064Y-111558638D01*
X108526477Y-110125577D01*
X109172829Y-108619399D01*
X109663488Y-107055558D01*
X109993417Y-105450101D01*
X110159233Y-103819504D01*
X110159233Y-102180496D01*
X109993417Y-100549899D01*
X109663488Y-98944442D01*
X109172829Y-97380601D01*
X108526477Y-95874423D01*
X107731064Y-94441362D01*
X106794751Y-93096125D01*
X105727147Y-91852515D01*
X104539207Y-90723294D01*
X103243120Y-89720048D01*
X101852186Y-88853072D01*
X100380678Y-88131263D01*
X98843695Y-87562027D01*
X97257010Y-87151206D01*
X95636903Y-86903014D01*
X94000000Y-86820000D01*
X92363097Y-86903014D01*
X90742990Y-87151206D01*
X89156305Y-87562027D01*
X87619322Y-88131263D01*
X86147814Y-88853072D01*
X84756880Y-89720048D01*
X83460793Y-90723294D01*
X82272853Y-91852515D01*
X81205249Y-93096125D01*
X80268936Y-94441362D01*
X79473523Y-95874423D01*
X78827171Y-97380601D01*
X78336512Y-98944442D01*
X78006583Y-100549899D01*
X77840767Y-102180496D01*
X75660000Y-102180496D01*
X75660000Y-77027089D01*
X75733902Y-76128203D01*
X75947001Y-75279818D01*
X76295803Y-74477629D01*
X76770938Y-73743182D01*
X77359646Y-73096202D01*
X78046125Y-72554054D01*
X78811928Y-72131308D01*
X79636491Y-71839316D01*
X80509076Y-71683884D01*
X81015547Y-71660000D01*
X100967721Y-71660000D01*
X101065424Y-71669580D01*
G37*
%TD.AperFunction*%
%TD*%
M02*
