G04 #@! TF.FileFunction,Legend,Bot*
%FSLAX46Y46*%
G04 Gerber Fmt 4.6, Leading zero omitted, Abs format (unit mm)*
G04 Created by KiCad (PCBNEW 4.0.1-stable) date 2020/07/15 22:51:45*
%MOMM*%
G01*
G04 APERTURE LIST*
%ADD10C,0.100000*%
%ADD11C,0.150000*%
%ADD12C,0.120000*%
G04 APERTURE END LIST*
D10*
D11*
X157670000Y-60090000D02*
X157670000Y-63090000D01*
X157670000Y-63090000D02*
X149670000Y-63090000D01*
X149670000Y-63090000D02*
X149670000Y-60090000D01*
X146170000Y-110590000D02*
X146170000Y-116590000D01*
X146170000Y-116590000D02*
X161170000Y-116590000D01*
X161170000Y-116590000D02*
X161170000Y-110590000D01*
X140970000Y-110490000D02*
X140970000Y-59690000D01*
X140970000Y-59690000D02*
X166370000Y-59690000D01*
X166370000Y-59690000D02*
X166370000Y-110490000D01*
X166370000Y-110490000D02*
X140970000Y-110490000D01*
X139350000Y-59620000D02*
X127350000Y-59620000D01*
X127350000Y-59620000D02*
X127350000Y-70620000D01*
X127350000Y-70620000D02*
X139350000Y-70620000D01*
X139350000Y-70620000D02*
X139350000Y-59620000D01*
X133470000Y-148470000D02*
X148470000Y-148470000D01*
X148470000Y-148470000D02*
X148470000Y-133470000D01*
X148470000Y-133470000D02*
X133470000Y-133470000D01*
X133470000Y-133470000D02*
X133470000Y-148470000D01*
X133470000Y-131960000D02*
X148470000Y-131960000D01*
X148470000Y-131960000D02*
X148470000Y-116960000D01*
X148470000Y-116960000D02*
X133470000Y-116960000D01*
X133470000Y-116960000D02*
X133470000Y-131960000D01*
D12*
X148650000Y-130870000D02*
X145990000Y-130870000D01*
X148650000Y-128270000D02*
X148650000Y-130870000D01*
X145990000Y-128270000D02*
X145990000Y-130870000D01*
X148650000Y-128270000D02*
X145990000Y-128270000D01*
X148650000Y-127000000D02*
X148650000Y-125670000D01*
X148650000Y-125670000D02*
X147320000Y-125670000D01*
X148650000Y-144840000D02*
X145990000Y-144840000D01*
X148650000Y-142240000D02*
X148650000Y-144840000D01*
X145990000Y-142240000D02*
X145990000Y-144840000D01*
X148650000Y-142240000D02*
X145990000Y-142240000D01*
X148650000Y-140970000D02*
X148650000Y-139640000D01*
X148650000Y-139640000D02*
X147320000Y-139640000D01*
D11*
X127850000Y-81160000D02*
X127850000Y-91660000D01*
X127850000Y-91660000D02*
X138850000Y-91660000D01*
X138850000Y-91660000D02*
X138850000Y-81160000D01*
X138850000Y-81160000D02*
X127850000Y-81160000D01*
X158312857Y-107878571D02*
X157979523Y-107878571D01*
X157836666Y-108402381D02*
X158312857Y-108402381D01*
X158312857Y-107402381D01*
X157836666Y-107402381D01*
X157455714Y-108354762D02*
X157312857Y-108402381D01*
X157074761Y-108402381D01*
X156979523Y-108354762D01*
X156931904Y-108307143D01*
X156884285Y-108211905D01*
X156884285Y-108116667D01*
X156931904Y-108021429D01*
X156979523Y-107973810D01*
X157074761Y-107926190D01*
X157265238Y-107878571D01*
X157360476Y-107830952D01*
X157408095Y-107783333D01*
X157455714Y-107688095D01*
X157455714Y-107592857D01*
X157408095Y-107497619D01*
X157360476Y-107450000D01*
X157265238Y-107402381D01*
X157027142Y-107402381D01*
X156884285Y-107450000D01*
X156455714Y-108402381D02*
X156455714Y-107402381D01*
X156074761Y-107402381D01*
X155979523Y-107450000D01*
X155931904Y-107497619D01*
X155884285Y-107592857D01*
X155884285Y-107735714D01*
X155931904Y-107830952D01*
X155979523Y-107878571D01*
X156074761Y-107926190D01*
X156455714Y-107926190D01*
X155550952Y-107402381D02*
X154931904Y-107402381D01*
X155265238Y-107783333D01*
X155122380Y-107783333D01*
X155027142Y-107830952D01*
X154979523Y-107878571D01*
X154931904Y-107973810D01*
X154931904Y-108211905D01*
X154979523Y-108307143D01*
X155027142Y-108354762D01*
X155122380Y-108402381D01*
X155408095Y-108402381D01*
X155503333Y-108354762D01*
X155550952Y-108307143D01*
X154550952Y-107497619D02*
X154503333Y-107450000D01*
X154408095Y-107402381D01*
X154169999Y-107402381D01*
X154074761Y-107450000D01*
X154027142Y-107497619D01*
X153979523Y-107592857D01*
X153979523Y-107688095D01*
X154027142Y-107830952D01*
X154598571Y-108402381D01*
X153979523Y-108402381D01*
X153550952Y-108402381D02*
X153550952Y-107402381D01*
X153312857Y-107402381D01*
X153169999Y-107450000D01*
X153074761Y-107545238D01*
X153027142Y-107640476D01*
X152979523Y-107830952D01*
X152979523Y-107973810D01*
X153027142Y-108164286D01*
X153074761Y-108259524D01*
X153169999Y-108354762D01*
X153312857Y-108402381D01*
X153550952Y-108402381D01*
X152550952Y-107878571D02*
X152217618Y-107878571D01*
X152074761Y-108402381D02*
X152550952Y-108402381D01*
X152550952Y-107402381D01*
X152074761Y-107402381D01*
X151789047Y-107402381D02*
X151455714Y-108402381D01*
X151122380Y-107402381D01*
X150789047Y-108402381D02*
X150789047Y-107402381D01*
X150217618Y-108402381D02*
X150646190Y-107830952D01*
X150217618Y-107402381D02*
X150789047Y-107973810D01*
X149789047Y-108402381D02*
X149789047Y-107402381D01*
X149455714Y-107402381D02*
X148884285Y-107402381D01*
X149170000Y-108402381D02*
X149170000Y-107402381D01*
X137540476Y-66492381D02*
X137540476Y-65492381D01*
X137540476Y-65968571D02*
X136969047Y-65968571D01*
X136969047Y-66492381D02*
X136969047Y-65492381D01*
X136492857Y-65968571D02*
X136159523Y-65968571D01*
X136016666Y-66492381D02*
X136492857Y-66492381D01*
X136492857Y-65492381D01*
X136016666Y-65492381D01*
X135635714Y-66206667D02*
X135159523Y-66206667D01*
X135730952Y-66492381D02*
X135397619Y-65492381D01*
X135064285Y-66492381D01*
X134730952Y-66492381D02*
X134730952Y-65492381D01*
X134492857Y-65492381D01*
X134349999Y-65540000D01*
X134254761Y-65635238D01*
X134207142Y-65730476D01*
X134159523Y-65920952D01*
X134159523Y-66063810D01*
X134207142Y-66254286D01*
X134254761Y-66349524D01*
X134349999Y-66444762D01*
X134492857Y-66492381D01*
X134730952Y-66492381D01*
X133730952Y-66492381D02*
X133730952Y-65492381D01*
X133349999Y-65492381D01*
X133254761Y-65540000D01*
X133207142Y-65587619D01*
X133159523Y-65682857D01*
X133159523Y-65825714D01*
X133207142Y-65920952D01*
X133254761Y-65968571D01*
X133349999Y-66016190D01*
X133730952Y-66016190D01*
X132730952Y-66492381D02*
X132730952Y-65492381D01*
X132730952Y-65968571D02*
X132159523Y-65968571D01*
X132159523Y-66492381D02*
X132159523Y-65492381D01*
X131492857Y-65492381D02*
X131302380Y-65492381D01*
X131207142Y-65540000D01*
X131111904Y-65635238D01*
X131064285Y-65825714D01*
X131064285Y-66159048D01*
X131111904Y-66349524D01*
X131207142Y-66444762D01*
X131302380Y-66492381D01*
X131492857Y-66492381D01*
X131588095Y-66444762D01*
X131683333Y-66349524D01*
X131730952Y-66159048D01*
X131730952Y-65825714D01*
X131683333Y-65635238D01*
X131588095Y-65540000D01*
X131492857Y-65492381D01*
X130635714Y-66492381D02*
X130635714Y-65492381D01*
X130064285Y-66492381D01*
X130064285Y-65492381D01*
X129588095Y-65968571D02*
X129254761Y-65968571D01*
X129111904Y-66492381D02*
X129588095Y-66492381D01*
X129588095Y-65492381D01*
X129111904Y-65492381D01*
X143065238Y-137612381D02*
X143065238Y-136612381D01*
X142493809Y-137612381D02*
X142922381Y-137040952D01*
X142493809Y-136612381D02*
X143065238Y-137183810D01*
X141684285Y-137564762D02*
X141779523Y-137612381D01*
X141970000Y-137612381D01*
X142065238Y-137564762D01*
X142112857Y-137469524D01*
X142112857Y-137088571D01*
X142065238Y-136993333D01*
X141970000Y-136945714D01*
X141779523Y-136945714D01*
X141684285Y-136993333D01*
X141636666Y-137088571D01*
X141636666Y-137183810D01*
X142112857Y-137279048D01*
X141303333Y-136945714D02*
X141065238Y-137612381D01*
X140827142Y-136945714D02*
X141065238Y-137612381D01*
X141160476Y-137850476D01*
X141208095Y-137898095D01*
X141303333Y-137945714D01*
X140446190Y-136612381D02*
X140446190Y-137421905D01*
X140398571Y-137517143D01*
X140350952Y-137564762D01*
X140255714Y-137612381D01*
X140065237Y-137612381D01*
X139969999Y-137564762D01*
X139922380Y-137517143D01*
X139874761Y-137421905D01*
X139874761Y-136612381D01*
X139398571Y-137612381D02*
X139398571Y-136612381D01*
X139017618Y-136612381D01*
X138922380Y-136660000D01*
X138874761Y-136707619D01*
X138827142Y-136802857D01*
X138827142Y-136945714D01*
X138874761Y-137040952D01*
X138922380Y-137088571D01*
X139017618Y-137136190D01*
X139398571Y-137136190D01*
X143970000Y-121102381D02*
X143970000Y-120102381D01*
X143398571Y-121102381D02*
X143827143Y-120530952D01*
X143398571Y-120102381D02*
X143970000Y-120673810D01*
X142589047Y-121054762D02*
X142684285Y-121102381D01*
X142874762Y-121102381D01*
X142970000Y-121054762D01*
X143017619Y-120959524D01*
X143017619Y-120578571D01*
X142970000Y-120483333D01*
X142874762Y-120435714D01*
X142684285Y-120435714D01*
X142589047Y-120483333D01*
X142541428Y-120578571D01*
X142541428Y-120673810D01*
X143017619Y-120769048D01*
X142208095Y-120435714D02*
X141970000Y-121102381D01*
X141731904Y-120435714D02*
X141970000Y-121102381D01*
X142065238Y-121340476D01*
X142112857Y-121388095D01*
X142208095Y-121435714D01*
X141350952Y-121102381D02*
X141350952Y-120102381D01*
X141112857Y-120102381D01*
X140969999Y-120150000D01*
X140874761Y-120245238D01*
X140827142Y-120340476D01*
X140779523Y-120530952D01*
X140779523Y-120673810D01*
X140827142Y-120864286D01*
X140874761Y-120959524D01*
X140969999Y-121054762D01*
X141112857Y-121102381D01*
X141350952Y-121102381D01*
X140208095Y-121102381D02*
X140303333Y-121054762D01*
X140350952Y-121007143D01*
X140398571Y-120911905D01*
X140398571Y-120626190D01*
X140350952Y-120530952D01*
X140303333Y-120483333D01*
X140208095Y-120435714D01*
X140065237Y-120435714D01*
X139969999Y-120483333D01*
X139922380Y-120530952D01*
X139874761Y-120626190D01*
X139874761Y-120911905D01*
X139922380Y-121007143D01*
X139969999Y-121054762D01*
X140065237Y-121102381D01*
X140208095Y-121102381D01*
X139541428Y-120435714D02*
X139350952Y-121102381D01*
X139160475Y-120626190D01*
X138969999Y-121102381D01*
X138779523Y-120435714D01*
X138398571Y-120435714D02*
X138398571Y-121102381D01*
X138398571Y-120530952D02*
X138350952Y-120483333D01*
X138255714Y-120435714D01*
X138112856Y-120435714D01*
X138017618Y-120483333D01*
X137969999Y-120578571D01*
X137969999Y-121102381D01*
X150312381Y-126984286D02*
X149312381Y-126984286D01*
X150312381Y-127555715D02*
X149740952Y-127127143D01*
X149312381Y-127555715D02*
X149883810Y-126984286D01*
X150312381Y-127984286D02*
X149312381Y-127984286D01*
X149312381Y-128222381D01*
X149360000Y-128365239D01*
X149455238Y-128460477D01*
X149550476Y-128508096D01*
X149740952Y-128555715D01*
X149883810Y-128555715D01*
X150074286Y-128508096D01*
X150169524Y-128460477D01*
X150264762Y-128365239D01*
X150312381Y-128222381D01*
X150312381Y-127984286D01*
X150312381Y-128984286D02*
X149312381Y-128984286D01*
X150312381Y-129555715D01*
X149312381Y-129555715D01*
X150312381Y-140954286D02*
X149312381Y-140954286D01*
X150312381Y-141525715D02*
X149740952Y-141097143D01*
X149312381Y-141525715D02*
X149883810Y-140954286D01*
X149312381Y-141954286D02*
X150121905Y-141954286D01*
X150217143Y-142001905D01*
X150264762Y-142049524D01*
X150312381Y-142144762D01*
X150312381Y-142335239D01*
X150264762Y-142430477D01*
X150217143Y-142478096D01*
X150121905Y-142525715D01*
X149312381Y-142525715D01*
X150312381Y-143001905D02*
X149312381Y-143001905D01*
X149312381Y-143382858D01*
X149360000Y-143478096D01*
X149407619Y-143525715D01*
X149502857Y-143573334D01*
X149645714Y-143573334D01*
X149740952Y-143525715D01*
X149788571Y-143478096D01*
X149836190Y-143382858D01*
X149836190Y-143001905D01*
X134659524Y-85891667D02*
X134183333Y-85891667D01*
X134754762Y-86177381D02*
X134421429Y-85177381D01*
X134088095Y-86177381D01*
X133754762Y-86177381D02*
X133754762Y-85177381D01*
X133421428Y-85891667D01*
X133088095Y-85177381D01*
X133088095Y-86177381D01*
X132611905Y-86177381D02*
X132611905Y-85177381D01*
X132230952Y-85177381D01*
X132135714Y-85225000D01*
X132088095Y-85272619D01*
X132040476Y-85367857D01*
X132040476Y-85510714D01*
X132088095Y-85605952D01*
X132135714Y-85653571D01*
X132230952Y-85701190D01*
X132611905Y-85701190D01*
X132095714Y-88669762D02*
X131952857Y-88717381D01*
X131714761Y-88717381D01*
X131619523Y-88669762D01*
X131571904Y-88622143D01*
X131524285Y-88526905D01*
X131524285Y-88431667D01*
X131571904Y-88336429D01*
X131619523Y-88288810D01*
X131714761Y-88241190D01*
X131905238Y-88193571D01*
X132000476Y-88145952D01*
X132048095Y-88098333D01*
X132095714Y-88003095D01*
X132095714Y-87907857D01*
X132048095Y-87812619D01*
X132000476Y-87765000D01*
X131905238Y-87717381D01*
X131667142Y-87717381D01*
X131524285Y-87765000D01*
X130524285Y-88717381D02*
X130857619Y-88241190D01*
X131095714Y-88717381D02*
X131095714Y-87717381D01*
X130714761Y-87717381D01*
X130619523Y-87765000D01*
X130571904Y-87812619D01*
X130524285Y-87907857D01*
X130524285Y-88050714D01*
X130571904Y-88145952D01*
X130619523Y-88193571D01*
X130714761Y-88241190D01*
X131095714Y-88241190D01*
X129524285Y-88622143D02*
X129571904Y-88669762D01*
X129714761Y-88717381D01*
X129809999Y-88717381D01*
X129952857Y-88669762D01*
X130048095Y-88574524D01*
X130095714Y-88479286D01*
X130143333Y-88288810D01*
X130143333Y-88145952D01*
X130095714Y-87955476D01*
X130048095Y-87860238D01*
X129952857Y-87765000D01*
X129809999Y-87717381D01*
X129714761Y-87717381D01*
X129571904Y-87765000D01*
X129524285Y-87812619D01*
X136080476Y-87717381D02*
X136556667Y-87717381D01*
X136604286Y-88193571D01*
X136556667Y-88145952D01*
X136461429Y-88098333D01*
X136223333Y-88098333D01*
X136128095Y-88145952D01*
X136080476Y-88193571D01*
X136032857Y-88288810D01*
X136032857Y-88526905D01*
X136080476Y-88622143D01*
X136128095Y-88669762D01*
X136223333Y-88717381D01*
X136461429Y-88717381D01*
X136556667Y-88669762D01*
X136604286Y-88622143D01*
X135747143Y-87717381D02*
X135413810Y-88717381D01*
X135080476Y-87717381D01*
X131190952Y-83891429D02*
X130429047Y-83891429D01*
X136270952Y-83891429D02*
X135509047Y-83891429D01*
X135889999Y-84272381D02*
X135889999Y-83510476D01*
M02*
