G04 #@! TF.FileFunction,Legend,Top*
%FSLAX46Y46*%
G04 Gerber Fmt 4.6, Leading zero omitted, Abs format (unit mm)*
G04 Created by KiCad (PCBNEW 4.0.1-stable) date 2020/07/15 22:51:45*
%MOMM*%
G01*
G04 APERTURE LIST*
%ADD10C,0.100000*%
%ADD11C,0.300000*%
%ADD12C,0.200000*%
%ADD13C,0.150000*%
%ADD14C,0.120000*%
G04 APERTURE END LIST*
D10*
D11*
X148991429Y-86967143D02*
X149205715Y-87038571D01*
X149562858Y-87038571D01*
X149705715Y-86967143D01*
X149777144Y-86895714D01*
X149848572Y-86752857D01*
X149848572Y-86610000D01*
X149777144Y-86467143D01*
X149705715Y-86395714D01*
X149562858Y-86324286D01*
X149277144Y-86252857D01*
X149134286Y-86181429D01*
X149062858Y-86110000D01*
X148991429Y-85967143D01*
X148991429Y-85824286D01*
X149062858Y-85681429D01*
X149134286Y-85610000D01*
X149277144Y-85538571D01*
X149634286Y-85538571D01*
X149848572Y-85610000D01*
X150491429Y-87038571D02*
X150491429Y-85538571D01*
X151062857Y-85538571D01*
X151205715Y-85610000D01*
X151277143Y-85681429D01*
X151348572Y-85824286D01*
X151348572Y-86038571D01*
X151277143Y-86181429D01*
X151205715Y-86252857D01*
X151062857Y-86324286D01*
X150491429Y-86324286D01*
X151991429Y-86252857D02*
X152491429Y-86252857D01*
X152705715Y-87038571D02*
X151991429Y-87038571D01*
X151991429Y-85538571D01*
X152705715Y-85538571D01*
X153277143Y-86610000D02*
X153991429Y-86610000D01*
X153134286Y-87038571D02*
X153634286Y-85538571D01*
X154134286Y-87038571D01*
X154634286Y-87038571D02*
X154634286Y-85538571D01*
X155491429Y-87038571D02*
X154848572Y-86181429D01*
X155491429Y-85538571D02*
X154634286Y-86395714D01*
X156134286Y-86252857D02*
X156634286Y-86252857D01*
X156848572Y-87038571D02*
X156134286Y-87038571D01*
X156134286Y-85538571D01*
X156848572Y-85538571D01*
X158348572Y-87038571D02*
X157848572Y-86324286D01*
X157491429Y-87038571D02*
X157491429Y-85538571D01*
X158062857Y-85538571D01*
X158205715Y-85610000D01*
X158277143Y-85681429D01*
X158348572Y-85824286D01*
X158348572Y-86038571D01*
X158277143Y-86181429D01*
X158205715Y-86252857D01*
X158062857Y-86324286D01*
X157491429Y-86324286D01*
X149980000Y-145170000D02*
X150694286Y-145170000D01*
X149837143Y-145598571D02*
X150337143Y-144098571D01*
X150837143Y-145598571D01*
X151837143Y-144812857D02*
X151337143Y-144812857D01*
X151337143Y-145598571D02*
X151337143Y-144098571D01*
X152051429Y-144098571D01*
X152622857Y-144098571D02*
X152622857Y-145312857D01*
X152694285Y-145455714D01*
X152765714Y-145527143D01*
X152908571Y-145598571D01*
X153194285Y-145598571D01*
X153337143Y-145527143D01*
X153408571Y-145455714D01*
X153480000Y-145312857D01*
X153480000Y-144098571D01*
X154194286Y-144098571D02*
X154194286Y-145312857D01*
X154265714Y-145455714D01*
X154337143Y-145527143D01*
X154480000Y-145598571D01*
X154765714Y-145598571D01*
X154908572Y-145527143D01*
X154980000Y-145455714D01*
X155051429Y-145312857D01*
X155051429Y-144098571D01*
X155765715Y-144812857D02*
X156265715Y-144812857D01*
X156480001Y-145598571D02*
X155765715Y-145598571D01*
X155765715Y-144098571D01*
X156480001Y-144098571D01*
X158765715Y-144812857D02*
X158980001Y-144884286D01*
X159051429Y-144955714D01*
X159122858Y-145098571D01*
X159122858Y-145312857D01*
X159051429Y-145455714D01*
X158980001Y-145527143D01*
X158837143Y-145598571D01*
X158265715Y-145598571D01*
X158265715Y-144098571D01*
X158765715Y-144098571D01*
X158908572Y-144170000D01*
X158980001Y-144241429D01*
X159051429Y-144384286D01*
X159051429Y-144527143D01*
X158980001Y-144670000D01*
X158908572Y-144741429D01*
X158765715Y-144812857D01*
X158265715Y-144812857D01*
X160051429Y-144098571D02*
X160337143Y-144098571D01*
X160480001Y-144170000D01*
X160622858Y-144312857D01*
X160694286Y-144598571D01*
X160694286Y-145098571D01*
X160622858Y-145384286D01*
X160480001Y-145527143D01*
X160337143Y-145598571D01*
X160051429Y-145598571D01*
X159908572Y-145527143D01*
X159765715Y-145384286D01*
X159694286Y-145098571D01*
X159694286Y-144598571D01*
X159765715Y-144312857D01*
X159908572Y-144170000D01*
X160051429Y-144098571D01*
X161265715Y-145170000D02*
X161980001Y-145170000D01*
X161122858Y-145598571D02*
X161622858Y-144098571D01*
X162122858Y-145598571D01*
X163480001Y-145598571D02*
X162980001Y-144884286D01*
X162622858Y-145598571D02*
X162622858Y-144098571D01*
X163194286Y-144098571D01*
X163337144Y-144170000D01*
X163408572Y-144241429D01*
X163480001Y-144384286D01*
X163480001Y-144598571D01*
X163408572Y-144741429D01*
X163337144Y-144812857D01*
X163194286Y-144884286D01*
X162622858Y-144884286D01*
X164122858Y-145598571D02*
X164122858Y-144098571D01*
X164480001Y-144098571D01*
X164694286Y-144170000D01*
X164837144Y-144312857D01*
X164908572Y-144455714D01*
X164980001Y-144741429D01*
X164980001Y-144955714D01*
X164908572Y-145241429D01*
X164837144Y-145384286D01*
X164694286Y-145527143D01*
X164480001Y-145598571D01*
X164122858Y-145598571D01*
X146587144Y-146498571D02*
X147087144Y-147998571D01*
X147587144Y-146498571D01*
X148087144Y-147212857D02*
X148587144Y-147212857D01*
X148801430Y-147998571D02*
X148087144Y-147998571D01*
X148087144Y-146498571D01*
X148801430Y-146498571D01*
X150301430Y-147998571D02*
X149801430Y-147284286D01*
X149444287Y-147998571D02*
X149444287Y-146498571D01*
X150015715Y-146498571D01*
X150158573Y-146570000D01*
X150230001Y-146641429D01*
X150301430Y-146784286D01*
X150301430Y-146998571D01*
X150230001Y-147141429D01*
X150158573Y-147212857D01*
X150015715Y-147284286D01*
X149444287Y-147284286D01*
X151730001Y-147998571D02*
X150872858Y-147998571D01*
X151301430Y-147998571D02*
X151301430Y-146498571D01*
X151158573Y-146712857D01*
X151015715Y-146855714D01*
X150872858Y-146927143D01*
X152372858Y-147855714D02*
X152444286Y-147927143D01*
X152372858Y-147998571D01*
X152301429Y-147927143D01*
X152372858Y-147855714D01*
X152372858Y-147998571D01*
X153730001Y-146998571D02*
X153730001Y-147998571D01*
X153372858Y-146427143D02*
X153015715Y-147498571D01*
X153944287Y-147498571D01*
X155015715Y-147212857D02*
X155230001Y-147284286D01*
X155301429Y-147355714D01*
X155372858Y-147498571D01*
X155372858Y-147712857D01*
X155301429Y-147855714D01*
X155230001Y-147927143D01*
X155087143Y-147998571D01*
X154515715Y-147998571D01*
X154515715Y-146498571D01*
X155015715Y-146498571D01*
X155158572Y-146570000D01*
X155230001Y-146641429D01*
X155301429Y-146784286D01*
X155301429Y-146927143D01*
X155230001Y-147070000D01*
X155158572Y-147141429D01*
X155015715Y-147212857D01*
X154515715Y-147212857D01*
X157087143Y-146641429D02*
X157158572Y-146570000D01*
X157301429Y-146498571D01*
X157658572Y-146498571D01*
X157801429Y-146570000D01*
X157872858Y-146641429D01*
X157944286Y-146784286D01*
X157944286Y-146927143D01*
X157872858Y-147141429D01*
X157015715Y-147998571D01*
X157944286Y-147998571D01*
X158872857Y-146498571D02*
X159015714Y-146498571D01*
X159158571Y-146570000D01*
X159230000Y-146641429D01*
X159301429Y-146784286D01*
X159372857Y-147070000D01*
X159372857Y-147427143D01*
X159301429Y-147712857D01*
X159230000Y-147855714D01*
X159158571Y-147927143D01*
X159015714Y-147998571D01*
X158872857Y-147998571D01*
X158730000Y-147927143D01*
X158658571Y-147855714D01*
X158587143Y-147712857D01*
X158515714Y-147427143D01*
X158515714Y-147070000D01*
X158587143Y-146784286D01*
X158658571Y-146641429D01*
X158730000Y-146570000D01*
X158872857Y-146498571D01*
X161087142Y-146427143D02*
X159801428Y-148355714D01*
X161872857Y-146498571D02*
X162015714Y-146498571D01*
X162158571Y-146570000D01*
X162230000Y-146641429D01*
X162301429Y-146784286D01*
X162372857Y-147070000D01*
X162372857Y-147427143D01*
X162301429Y-147712857D01*
X162230000Y-147855714D01*
X162158571Y-147927143D01*
X162015714Y-147998571D01*
X161872857Y-147998571D01*
X161730000Y-147927143D01*
X161658571Y-147855714D01*
X161587143Y-147712857D01*
X161515714Y-147427143D01*
X161515714Y-147070000D01*
X161587143Y-146784286D01*
X161658571Y-146641429D01*
X161730000Y-146570000D01*
X161872857Y-146498571D01*
X162872857Y-146498571D02*
X163872857Y-146498571D01*
X163230000Y-147998571D01*
X165515713Y-146427143D02*
X164229999Y-148355714D01*
X166801428Y-147998571D02*
X165944285Y-147998571D01*
X166372857Y-147998571D02*
X166372857Y-146498571D01*
X166230000Y-146712857D01*
X166087142Y-146855714D01*
X165944285Y-146927143D01*
X168158571Y-146498571D02*
X167444285Y-146498571D01*
X167372856Y-147212857D01*
X167444285Y-147141429D01*
X167587142Y-147070000D01*
X167944285Y-147070000D01*
X168087142Y-147141429D01*
X168158571Y-147212857D01*
X168229999Y-147355714D01*
X168229999Y-147712857D01*
X168158571Y-147855714D01*
X168087142Y-147927143D01*
X167944285Y-147998571D01*
X167587142Y-147998571D01*
X167444285Y-147927143D01*
X167372856Y-147855714D01*
X152265714Y-148898571D02*
X152551428Y-148898571D01*
X152694286Y-148970000D01*
X152837143Y-149112857D01*
X152908571Y-149398571D01*
X152908571Y-149898571D01*
X152837143Y-150184286D01*
X152694286Y-150327143D01*
X152551428Y-150398571D01*
X152265714Y-150398571D01*
X152122857Y-150327143D01*
X151980000Y-150184286D01*
X151908571Y-149898571D01*
X151908571Y-149398571D01*
X151980000Y-149112857D01*
X152122857Y-148970000D01*
X152265714Y-148898571D01*
X153337143Y-149398571D02*
X153908572Y-149398571D01*
X153551429Y-148898571D02*
X153551429Y-150184286D01*
X153622857Y-150327143D01*
X153765715Y-150398571D01*
X153908572Y-150398571D01*
X154622858Y-150398571D02*
X154480000Y-150327143D01*
X154408572Y-150255714D01*
X154337143Y-150112857D01*
X154337143Y-149684286D01*
X154408572Y-149541429D01*
X154480000Y-149470000D01*
X154622858Y-149398571D01*
X154837143Y-149398571D01*
X154980000Y-149470000D01*
X155051429Y-149541429D01*
X155122858Y-149684286D01*
X155122858Y-150112857D01*
X155051429Y-150255714D01*
X154980000Y-150327143D01*
X154837143Y-150398571D01*
X154622858Y-150398571D01*
X155980001Y-150398571D02*
X155837143Y-150327143D01*
X155765715Y-150255714D01*
X155694286Y-150112857D01*
X155694286Y-149684286D01*
X155765715Y-149541429D01*
X155837143Y-149470000D01*
X155980001Y-149398571D01*
X156194286Y-149398571D01*
X156337143Y-149470000D01*
X156408572Y-149541429D01*
X156480001Y-149684286D01*
X156480001Y-150112857D01*
X156408572Y-150255714D01*
X156337143Y-150327143D01*
X156194286Y-150398571D01*
X155980001Y-150398571D01*
X157122858Y-149398571D02*
X157122858Y-150398571D01*
X157122858Y-149541429D02*
X157194286Y-149470000D01*
X157337144Y-149398571D01*
X157551429Y-149398571D01*
X157694286Y-149470000D01*
X157765715Y-149612857D01*
X157765715Y-150398571D01*
X159051429Y-150327143D02*
X158908572Y-150398571D01*
X158622858Y-150398571D01*
X158480001Y-150327143D01*
X158408572Y-150184286D01*
X158408572Y-149612857D01*
X158480001Y-149470000D01*
X158622858Y-149398571D01*
X158908572Y-149398571D01*
X159051429Y-149470000D01*
X159122858Y-149612857D01*
X159122858Y-149755714D01*
X158408572Y-149898571D01*
X159765715Y-150398571D02*
X159765715Y-148898571D01*
X160122858Y-148898571D01*
X160337143Y-148970000D01*
X160480001Y-149112857D01*
X160551429Y-149255714D01*
X160622858Y-149541429D01*
X160622858Y-149755714D01*
X160551429Y-150041429D01*
X160480001Y-150184286D01*
X160337143Y-150327143D01*
X160122858Y-150398571D01*
X159765715Y-150398571D01*
X161837143Y-150327143D02*
X161694286Y-150398571D01*
X161408572Y-150398571D01*
X161265715Y-150327143D01*
X161194286Y-150184286D01*
X161194286Y-149612857D01*
X161265715Y-149470000D01*
X161408572Y-149398571D01*
X161694286Y-149398571D01*
X161837143Y-149470000D01*
X161908572Y-149612857D01*
X161908572Y-149755714D01*
X161194286Y-149898571D01*
X162408572Y-149398571D02*
X162765715Y-150398571D01*
X163122857Y-149398571D01*
D12*
X164850340Y-86360000D02*
G75*
G03X164850340Y-86360000I-11180340J0D01*
G01*
D13*
X148170000Y-72770000D02*
X159170000Y-72770000D01*
X159170000Y-72770000D02*
X159170000Y-62270000D01*
X159170000Y-62270000D02*
X148170000Y-62270000D01*
X148170000Y-62270000D02*
X148170000Y-72770000D01*
X161670000Y-64770000D02*
G75*
G03X161670000Y-64770000I-8000000J0D01*
G01*
X126880000Y-62350000D02*
X126880000Y-77350000D01*
X126880000Y-77350000D02*
X111880000Y-77350000D01*
X111880000Y-77350000D02*
X111880000Y-62350000D01*
X111880000Y-62350000D02*
X126880000Y-62350000D01*
D14*
X138490000Y-152460000D02*
X138490000Y-149800000D01*
X130810000Y-152460000D02*
X138490000Y-152460000D01*
X130810000Y-149800000D02*
X138490000Y-149800000D01*
X130810000Y-152460000D02*
X130810000Y-149800000D01*
X129540000Y-152460000D02*
X128210000Y-152460000D01*
X128210000Y-152460000D02*
X128210000Y-151130000D01*
X130750000Y-74870000D02*
X130750000Y-77530000D01*
X133350000Y-74870000D02*
X130750000Y-74870000D01*
X133350000Y-77530000D02*
X130750000Y-77530000D01*
X133350000Y-74870000D02*
X133350000Y-77530000D01*
X134620000Y-74870000D02*
X135950000Y-74870000D01*
X135950000Y-74870000D02*
X135950000Y-76200000D01*
D13*
X126880000Y-80130000D02*
X126880000Y-95130000D01*
X126880000Y-95130000D02*
X111880000Y-95130000D01*
X111880000Y-95130000D02*
X111880000Y-80130000D01*
X111880000Y-80130000D02*
X126880000Y-80130000D01*
X126880000Y-97910000D02*
X126880000Y-112910000D01*
X126880000Y-112910000D02*
X111880000Y-112910000D01*
X111880000Y-112910000D02*
X111880000Y-97910000D01*
X111880000Y-97910000D02*
X126880000Y-97910000D01*
X126880000Y-115690000D02*
X126880000Y-130690000D01*
X126880000Y-130690000D02*
X111880000Y-130690000D01*
X111880000Y-130690000D02*
X111880000Y-115690000D01*
X111880000Y-115690000D02*
X126880000Y-115690000D01*
X126880000Y-133470000D02*
X126880000Y-148470000D01*
X126880000Y-148470000D02*
X111880000Y-148470000D01*
X111880000Y-148470000D02*
X111880000Y-133470000D01*
X111880000Y-133470000D02*
X126880000Y-133470000D01*
X169030000Y-77350000D02*
X169030000Y-62350000D01*
X169030000Y-62350000D02*
X184030000Y-62350000D01*
X184030000Y-62350000D02*
X184030000Y-77350000D01*
X184030000Y-77350000D02*
X169030000Y-77350000D01*
X169030000Y-95130000D02*
X169030000Y-80130000D01*
X169030000Y-80130000D02*
X184030000Y-80130000D01*
X184030000Y-80130000D02*
X184030000Y-95130000D01*
X184030000Y-95130000D02*
X169030000Y-95130000D01*
X169030000Y-112910000D02*
X169030000Y-97910000D01*
X169030000Y-97910000D02*
X184030000Y-97910000D01*
X184030000Y-97910000D02*
X184030000Y-112910000D01*
X184030000Y-112910000D02*
X169030000Y-112910000D01*
X169030000Y-130690000D02*
X169030000Y-115690000D01*
X169030000Y-115690000D02*
X184030000Y-115690000D01*
X184030000Y-115690000D02*
X184030000Y-130690000D01*
X184030000Y-130690000D02*
X169030000Y-130690000D01*
X169030000Y-148470000D02*
X169030000Y-133470000D01*
X169030000Y-133470000D02*
X184030000Y-133470000D01*
X184030000Y-133470000D02*
X184030000Y-148470000D01*
X184030000Y-148470000D02*
X169030000Y-148470000D01*
D14*
X128210000Y-128330000D02*
X130870000Y-128330000D01*
X128210000Y-125730000D02*
X128210000Y-128330000D01*
X130870000Y-125730000D02*
X130870000Y-128330000D01*
X128210000Y-125730000D02*
X130870000Y-125730000D01*
X128210000Y-124460000D02*
X128210000Y-123130000D01*
X128210000Y-123130000D02*
X129540000Y-123130000D01*
X153610000Y-130870000D02*
X156270000Y-130870000D01*
X153610000Y-123190000D02*
X153610000Y-130870000D01*
X156270000Y-123190000D02*
X156270000Y-130870000D01*
X153610000Y-123190000D02*
X156270000Y-123190000D01*
X153610000Y-121920000D02*
X153610000Y-120590000D01*
X153610000Y-120590000D02*
X154940000Y-120590000D01*
X130870000Y-134560000D02*
X128210000Y-134560000D01*
X130870000Y-144780000D02*
X130870000Y-134560000D01*
X128210000Y-144780000D02*
X128210000Y-134560000D01*
X130870000Y-144780000D02*
X128210000Y-144780000D01*
X130870000Y-146050000D02*
X130870000Y-147380000D01*
X130870000Y-147380000D02*
X129540000Y-147380000D01*
D13*
X150860476Y-66762381D02*
X151193809Y-67762381D01*
X151527143Y-66762381D01*
X152050952Y-66762381D02*
X152241429Y-66762381D01*
X152336667Y-66810000D01*
X152431905Y-66905238D01*
X152479524Y-67095714D01*
X152479524Y-67429048D01*
X152431905Y-67619524D01*
X152336667Y-67714762D01*
X152241429Y-67762381D01*
X152050952Y-67762381D01*
X151955714Y-67714762D01*
X151860476Y-67619524D01*
X151812857Y-67429048D01*
X151812857Y-67095714D01*
X151860476Y-66905238D01*
X151955714Y-66810000D01*
X152050952Y-66762381D01*
X153384286Y-67762381D02*
X152908095Y-67762381D01*
X152908095Y-66762381D01*
X153717619Y-66762381D02*
X153717619Y-67571905D01*
X153765238Y-67667143D01*
X153812857Y-67714762D01*
X153908095Y-67762381D01*
X154098572Y-67762381D01*
X154193810Y-67714762D01*
X154241429Y-67667143D01*
X154289048Y-67571905D01*
X154289048Y-66762381D01*
X154765238Y-67762381D02*
X154765238Y-66762381D01*
X155098572Y-67476667D01*
X155431905Y-66762381D01*
X155431905Y-67762381D01*
X155908095Y-67238571D02*
X156241429Y-67238571D01*
X156384286Y-67762381D02*
X155908095Y-67762381D01*
X155908095Y-66762381D01*
X156384286Y-66762381D01*
X116022381Y-73302381D02*
X115022381Y-73302381D01*
X116022381Y-72730952D02*
X115450952Y-73159524D01*
X115022381Y-72730952D02*
X115593810Y-73302381D01*
X115974762Y-71921428D02*
X116022381Y-72016666D01*
X116022381Y-72207143D01*
X115974762Y-72302381D01*
X115879524Y-72350000D01*
X115498571Y-72350000D01*
X115403333Y-72302381D01*
X115355714Y-72207143D01*
X115355714Y-72016666D01*
X115403333Y-71921428D01*
X115498571Y-71873809D01*
X115593810Y-71873809D01*
X115689048Y-72350000D01*
X115355714Y-71540476D02*
X116022381Y-71302381D01*
X115355714Y-71064285D02*
X116022381Y-71302381D01*
X116260476Y-71397619D01*
X116308095Y-71445238D01*
X116355714Y-71540476D01*
X116022381Y-70207142D02*
X116022381Y-70683333D01*
X115022381Y-70683333D01*
X116022381Y-69730952D02*
X115974762Y-69826190D01*
X115927143Y-69873809D01*
X115831905Y-69921428D01*
X115546190Y-69921428D01*
X115450952Y-69873809D01*
X115403333Y-69826190D01*
X115355714Y-69730952D01*
X115355714Y-69588094D01*
X115403333Y-69492856D01*
X115450952Y-69445237D01*
X115546190Y-69397618D01*
X115831905Y-69397618D01*
X115927143Y-69445237D01*
X115974762Y-69492856D01*
X116022381Y-69588094D01*
X116022381Y-69730952D01*
X115355714Y-69064285D02*
X116022381Y-68873809D01*
X115546190Y-68683332D01*
X116022381Y-68492856D01*
X115355714Y-68302380D01*
X115927143Y-67349999D02*
X115974762Y-67397618D01*
X116022381Y-67540475D01*
X116022381Y-67635713D01*
X115974762Y-67778571D01*
X115879524Y-67873809D01*
X115784286Y-67921428D01*
X115593810Y-67969047D01*
X115450952Y-67969047D01*
X115260476Y-67921428D01*
X115165238Y-67873809D01*
X115070000Y-67778571D01*
X115022381Y-67635713D01*
X115022381Y-67540475D01*
X115070000Y-67397618D01*
X115117619Y-67349999D01*
X115355714Y-66969047D02*
X115355714Y-66254761D01*
X114927143Y-66683333D02*
X116212857Y-66969047D01*
X115784286Y-66349999D02*
X115784286Y-67064285D01*
X116212857Y-66635713D02*
X114927143Y-66349999D01*
X131135715Y-148518571D02*
X131278572Y-148566190D01*
X131326191Y-148613810D01*
X131373810Y-148709048D01*
X131373810Y-148851905D01*
X131326191Y-148947143D01*
X131278572Y-148994762D01*
X131183334Y-149042381D01*
X130802381Y-149042381D01*
X130802381Y-148042381D01*
X131135715Y-148042381D01*
X131230953Y-148090000D01*
X131278572Y-148137619D01*
X131326191Y-148232857D01*
X131326191Y-148328095D01*
X131278572Y-148423333D01*
X131230953Y-148470952D01*
X131135715Y-148518571D01*
X130802381Y-148518571D01*
X132373810Y-149042381D02*
X132040476Y-148566190D01*
X131802381Y-149042381D02*
X131802381Y-148042381D01*
X132183334Y-148042381D01*
X132278572Y-148090000D01*
X132326191Y-148137619D01*
X132373810Y-148232857D01*
X132373810Y-148375714D01*
X132326191Y-148470952D01*
X132278572Y-148518571D01*
X132183334Y-148566190D01*
X131802381Y-148566190D01*
X132802381Y-148518571D02*
X133135715Y-148518571D01*
X133278572Y-149042381D02*
X132802381Y-149042381D01*
X132802381Y-148042381D01*
X133278572Y-148042381D01*
X133659524Y-148756667D02*
X134135715Y-148756667D01*
X133564286Y-149042381D02*
X133897619Y-148042381D01*
X134230953Y-149042381D01*
X134421429Y-148042381D02*
X134992858Y-148042381D01*
X134707143Y-149042381D02*
X134707143Y-148042381D01*
X135326191Y-149042381D02*
X135326191Y-148042381D01*
X135326191Y-148518571D02*
X135897620Y-148518571D01*
X135897620Y-149042381D02*
X135897620Y-148042381D01*
X130230952Y-74064762D02*
X130373809Y-74112381D01*
X130611905Y-74112381D01*
X130707143Y-74064762D01*
X130754762Y-74017143D01*
X130802381Y-73921905D01*
X130802381Y-73826667D01*
X130754762Y-73731429D01*
X130707143Y-73683810D01*
X130611905Y-73636190D01*
X130421428Y-73588571D01*
X130326190Y-73540952D01*
X130278571Y-73493333D01*
X130230952Y-73398095D01*
X130230952Y-73302857D01*
X130278571Y-73207619D01*
X130326190Y-73160000D01*
X130421428Y-73112381D01*
X130659524Y-73112381D01*
X130802381Y-73160000D01*
X131230952Y-74112381D02*
X131230952Y-73112381D01*
X131611905Y-73112381D01*
X131707143Y-73160000D01*
X131754762Y-73207619D01*
X131802381Y-73302857D01*
X131802381Y-73445714D01*
X131754762Y-73540952D01*
X131707143Y-73588571D01*
X131611905Y-73636190D01*
X131230952Y-73636190D01*
X132230952Y-73588571D02*
X132564286Y-73588571D01*
X132707143Y-74112381D02*
X132230952Y-74112381D01*
X132230952Y-73112381D01*
X132707143Y-73112381D01*
X133088095Y-73826667D02*
X133564286Y-73826667D01*
X132992857Y-74112381D02*
X133326190Y-73112381D01*
X133659524Y-74112381D01*
X133992857Y-74112381D02*
X133992857Y-73112381D01*
X134564286Y-74112381D02*
X134135714Y-73540952D01*
X134564286Y-73112381D02*
X133992857Y-73683810D01*
X134992857Y-73588571D02*
X135326191Y-73588571D01*
X135469048Y-74112381D02*
X134992857Y-74112381D01*
X134992857Y-73112381D01*
X135469048Y-73112381D01*
X136469048Y-74112381D02*
X136135714Y-73636190D01*
X135897619Y-74112381D02*
X135897619Y-73112381D01*
X136278572Y-73112381D01*
X136373810Y-73160000D01*
X136421429Y-73207619D01*
X136469048Y-73302857D01*
X136469048Y-73445714D01*
X136421429Y-73540952D01*
X136373810Y-73588571D01*
X136278572Y-73636190D01*
X135897619Y-73636190D01*
X116022381Y-89701429D02*
X115022381Y-89701429D01*
X116022381Y-89130000D02*
X115450952Y-89558572D01*
X115022381Y-89130000D02*
X115593810Y-89701429D01*
X115974762Y-88320476D02*
X116022381Y-88415714D01*
X116022381Y-88606191D01*
X115974762Y-88701429D01*
X115879524Y-88749048D01*
X115498571Y-88749048D01*
X115403333Y-88701429D01*
X115355714Y-88606191D01*
X115355714Y-88415714D01*
X115403333Y-88320476D01*
X115498571Y-88272857D01*
X115593810Y-88272857D01*
X115689048Y-88749048D01*
X115355714Y-87939524D02*
X116022381Y-87701429D01*
X115355714Y-87463333D02*
X116022381Y-87701429D01*
X116260476Y-87796667D01*
X116308095Y-87844286D01*
X116355714Y-87939524D01*
X115070000Y-86558571D02*
X115022381Y-86653809D01*
X115022381Y-86796666D01*
X115070000Y-86939524D01*
X115165238Y-87034762D01*
X115260476Y-87082381D01*
X115450952Y-87130000D01*
X115593810Y-87130000D01*
X115784286Y-87082381D01*
X115879524Y-87034762D01*
X115974762Y-86939524D01*
X116022381Y-86796666D01*
X116022381Y-86701428D01*
X115974762Y-86558571D01*
X115927143Y-86510952D01*
X115593810Y-86510952D01*
X115593810Y-86701428D01*
X115355714Y-86130000D02*
X115355714Y-85415714D01*
X114927143Y-85844286D02*
X116212857Y-86130000D01*
X115784286Y-85510952D02*
X115784286Y-86225238D01*
X116212857Y-85796666D02*
X114927143Y-85510952D01*
X116022381Y-106981429D02*
X115022381Y-106981429D01*
X116022381Y-106410000D02*
X115450952Y-106838572D01*
X115022381Y-106410000D02*
X115593810Y-106981429D01*
X115974762Y-105600476D02*
X116022381Y-105695714D01*
X116022381Y-105886191D01*
X115974762Y-105981429D01*
X115879524Y-106029048D01*
X115498571Y-106029048D01*
X115403333Y-105981429D01*
X115355714Y-105886191D01*
X115355714Y-105695714D01*
X115403333Y-105600476D01*
X115498571Y-105552857D01*
X115593810Y-105552857D01*
X115689048Y-106029048D01*
X115355714Y-105219524D02*
X116022381Y-104981429D01*
X115355714Y-104743333D02*
X116022381Y-104981429D01*
X116260476Y-105076667D01*
X116308095Y-105124286D01*
X116355714Y-105219524D01*
X115070000Y-103838571D02*
X115022381Y-103933809D01*
X115022381Y-104076666D01*
X115070000Y-104219524D01*
X115165238Y-104314762D01*
X115260476Y-104362381D01*
X115450952Y-104410000D01*
X115593810Y-104410000D01*
X115784286Y-104362381D01*
X115879524Y-104314762D01*
X115974762Y-104219524D01*
X116022381Y-104076666D01*
X116022381Y-103981428D01*
X115974762Y-103838571D01*
X115927143Y-103790952D01*
X115593810Y-103790952D01*
X115593810Y-103981428D01*
X116022381Y-124690000D02*
X115022381Y-124690000D01*
X116022381Y-124118571D02*
X115450952Y-124547143D01*
X115022381Y-124118571D02*
X115593810Y-124690000D01*
X115974762Y-123309047D02*
X116022381Y-123404285D01*
X116022381Y-123594762D01*
X115974762Y-123690000D01*
X115879524Y-123737619D01*
X115498571Y-123737619D01*
X115403333Y-123690000D01*
X115355714Y-123594762D01*
X115355714Y-123404285D01*
X115403333Y-123309047D01*
X115498571Y-123261428D01*
X115593810Y-123261428D01*
X115689048Y-123737619D01*
X115355714Y-122928095D02*
X116022381Y-122690000D01*
X115355714Y-122451904D02*
X116022381Y-122690000D01*
X116260476Y-122785238D01*
X116308095Y-122832857D01*
X116355714Y-122928095D01*
X115736667Y-122118571D02*
X115736667Y-121642380D01*
X116022381Y-122213809D02*
X115022381Y-121880476D01*
X116022381Y-121547142D01*
X116022381Y-142541429D02*
X115022381Y-142541429D01*
X116022381Y-141970000D02*
X115450952Y-142398572D01*
X115022381Y-141970000D02*
X115593810Y-142541429D01*
X115974762Y-141160476D02*
X116022381Y-141255714D01*
X116022381Y-141446191D01*
X115974762Y-141541429D01*
X115879524Y-141589048D01*
X115498571Y-141589048D01*
X115403333Y-141541429D01*
X115355714Y-141446191D01*
X115355714Y-141255714D01*
X115403333Y-141160476D01*
X115498571Y-141112857D01*
X115593810Y-141112857D01*
X115689048Y-141589048D01*
X115355714Y-140779524D02*
X116022381Y-140541429D01*
X115355714Y-140303333D02*
X116022381Y-140541429D01*
X116260476Y-140636667D01*
X116308095Y-140684286D01*
X116355714Y-140779524D01*
X115498571Y-139589047D02*
X115546190Y-139446190D01*
X115593810Y-139398571D01*
X115689048Y-139350952D01*
X115831905Y-139350952D01*
X115927143Y-139398571D01*
X115974762Y-139446190D01*
X116022381Y-139541428D01*
X116022381Y-139922381D01*
X115022381Y-139922381D01*
X115022381Y-139589047D01*
X115070000Y-139493809D01*
X115117619Y-139446190D01*
X115212857Y-139398571D01*
X115308095Y-139398571D01*
X115403333Y-139446190D01*
X115450952Y-139493809D01*
X115498571Y-139589047D01*
X115498571Y-139922381D01*
X180792381Y-72802381D02*
X179792381Y-72802381D01*
X180792381Y-72230952D02*
X180220952Y-72659524D01*
X179792381Y-72230952D02*
X180363810Y-72802381D01*
X180744762Y-71421428D02*
X180792381Y-71516666D01*
X180792381Y-71707143D01*
X180744762Y-71802381D01*
X180649524Y-71850000D01*
X180268571Y-71850000D01*
X180173333Y-71802381D01*
X180125714Y-71707143D01*
X180125714Y-71516666D01*
X180173333Y-71421428D01*
X180268571Y-71373809D01*
X180363810Y-71373809D01*
X180459048Y-71850000D01*
X180125714Y-71040476D02*
X180792381Y-70802381D01*
X180125714Y-70564285D02*
X180792381Y-70802381D01*
X181030476Y-70897619D01*
X181078095Y-70945238D01*
X181125714Y-71040476D01*
X180792381Y-69707142D02*
X180792381Y-70183333D01*
X179792381Y-70183333D01*
X180792381Y-69230952D02*
X180744762Y-69326190D01*
X180697143Y-69373809D01*
X180601905Y-69421428D01*
X180316190Y-69421428D01*
X180220952Y-69373809D01*
X180173333Y-69326190D01*
X180125714Y-69230952D01*
X180125714Y-69088094D01*
X180173333Y-68992856D01*
X180220952Y-68945237D01*
X180316190Y-68897618D01*
X180601905Y-68897618D01*
X180697143Y-68945237D01*
X180744762Y-68992856D01*
X180792381Y-69088094D01*
X180792381Y-69230952D01*
X180125714Y-68564285D02*
X180792381Y-68373809D01*
X180316190Y-68183332D01*
X180792381Y-67992856D01*
X180125714Y-67802380D01*
X180697143Y-66849999D02*
X180744762Y-66897618D01*
X180792381Y-67040475D01*
X180792381Y-67135713D01*
X180744762Y-67278571D01*
X180649524Y-67373809D01*
X180554286Y-67421428D01*
X180363810Y-67469047D01*
X180220952Y-67469047D01*
X180030476Y-67421428D01*
X179935238Y-67373809D01*
X179840000Y-67278571D01*
X179792381Y-67135713D01*
X179792381Y-67040475D01*
X179840000Y-66897618D01*
X179887619Y-66849999D01*
X180792381Y-89606191D02*
X179792381Y-89606191D01*
X180792381Y-89034762D02*
X180220952Y-89463334D01*
X179792381Y-89034762D02*
X180363810Y-89606191D01*
X180744762Y-88225238D02*
X180792381Y-88320476D01*
X180792381Y-88510953D01*
X180744762Y-88606191D01*
X180649524Y-88653810D01*
X180268571Y-88653810D01*
X180173333Y-88606191D01*
X180125714Y-88510953D01*
X180125714Y-88320476D01*
X180173333Y-88225238D01*
X180268571Y-88177619D01*
X180363810Y-88177619D01*
X180459048Y-88653810D01*
X180125714Y-87844286D02*
X180792381Y-87606191D01*
X180125714Y-87368095D02*
X180792381Y-87606191D01*
X181030476Y-87701429D01*
X181078095Y-87749048D01*
X181125714Y-87844286D01*
X180268571Y-86987143D02*
X180268571Y-86653809D01*
X180792381Y-86510952D02*
X180792381Y-86987143D01*
X179792381Y-86987143D01*
X179792381Y-86510952D01*
X180792381Y-86082381D02*
X179792381Y-86082381D01*
X180173333Y-86082381D02*
X180125714Y-85987143D01*
X180125714Y-85796666D01*
X180173333Y-85701428D01*
X180220952Y-85653809D01*
X180316190Y-85606190D01*
X180601905Y-85606190D01*
X180697143Y-85653809D01*
X180744762Y-85701428D01*
X180792381Y-85796666D01*
X180792381Y-85987143D01*
X180744762Y-86082381D01*
X180792381Y-106981429D02*
X179792381Y-106981429D01*
X180792381Y-106410000D02*
X180220952Y-106838572D01*
X179792381Y-106410000D02*
X180363810Y-106981429D01*
X180744762Y-105600476D02*
X180792381Y-105695714D01*
X180792381Y-105886191D01*
X180744762Y-105981429D01*
X180649524Y-106029048D01*
X180268571Y-106029048D01*
X180173333Y-105981429D01*
X180125714Y-105886191D01*
X180125714Y-105695714D01*
X180173333Y-105600476D01*
X180268571Y-105552857D01*
X180363810Y-105552857D01*
X180459048Y-106029048D01*
X180125714Y-105219524D02*
X180792381Y-104981429D01*
X180125714Y-104743333D02*
X180792381Y-104981429D01*
X181030476Y-105076667D01*
X181078095Y-105124286D01*
X181125714Y-105219524D01*
X180792381Y-104362381D02*
X179792381Y-104362381D01*
X179792381Y-104124286D01*
X179840000Y-103981428D01*
X179935238Y-103886190D01*
X180030476Y-103838571D01*
X180220952Y-103790952D01*
X180363810Y-103790952D01*
X180554286Y-103838571D01*
X180649524Y-103886190D01*
X180744762Y-103981428D01*
X180792381Y-104124286D01*
X180792381Y-104362381D01*
X180792381Y-124713810D02*
X179792381Y-124713810D01*
X180792381Y-124142381D02*
X180220952Y-124570953D01*
X179792381Y-124142381D02*
X180363810Y-124713810D01*
X180744762Y-123332857D02*
X180792381Y-123428095D01*
X180792381Y-123618572D01*
X180744762Y-123713810D01*
X180649524Y-123761429D01*
X180268571Y-123761429D01*
X180173333Y-123713810D01*
X180125714Y-123618572D01*
X180125714Y-123428095D01*
X180173333Y-123332857D01*
X180268571Y-123285238D01*
X180363810Y-123285238D01*
X180459048Y-123761429D01*
X180125714Y-122951905D02*
X180792381Y-122713810D01*
X180125714Y-122475714D02*
X180792381Y-122713810D01*
X181030476Y-122809048D01*
X181078095Y-122856667D01*
X181125714Y-122951905D01*
X180268571Y-122094762D02*
X180268571Y-121761428D01*
X180792381Y-121618571D02*
X180792381Y-122094762D01*
X179792381Y-122094762D01*
X179792381Y-121618571D01*
X180792381Y-142470000D02*
X179792381Y-142470000D01*
X180792381Y-141898571D02*
X180220952Y-142327143D01*
X179792381Y-141898571D02*
X180363810Y-142470000D01*
X180744762Y-141089047D02*
X180792381Y-141184285D01*
X180792381Y-141374762D01*
X180744762Y-141470000D01*
X180649524Y-141517619D01*
X180268571Y-141517619D01*
X180173333Y-141470000D01*
X180125714Y-141374762D01*
X180125714Y-141184285D01*
X180173333Y-141089047D01*
X180268571Y-141041428D01*
X180363810Y-141041428D01*
X180459048Y-141517619D01*
X180125714Y-140708095D02*
X180792381Y-140470000D01*
X180125714Y-140231904D02*
X180792381Y-140470000D01*
X181030476Y-140565238D01*
X181078095Y-140612857D01*
X181125714Y-140708095D01*
X180268571Y-139517618D02*
X180268571Y-139850952D01*
X180792381Y-139850952D02*
X179792381Y-139850952D01*
X179792381Y-139374761D01*
X128420953Y-121848571D02*
X128563810Y-121896190D01*
X128611429Y-121943810D01*
X128659048Y-122039048D01*
X128659048Y-122181905D01*
X128611429Y-122277143D01*
X128563810Y-122324762D01*
X128468572Y-122372381D01*
X128087619Y-122372381D01*
X128087619Y-121372381D01*
X128420953Y-121372381D01*
X128516191Y-121420000D01*
X128563810Y-121467619D01*
X128611429Y-121562857D01*
X128611429Y-121658095D01*
X128563810Y-121753333D01*
X128516191Y-121800952D01*
X128420953Y-121848571D01*
X128087619Y-121848571D01*
X129040000Y-122086667D02*
X129516191Y-122086667D01*
X128944762Y-122372381D02*
X129278095Y-121372381D01*
X129611429Y-122372381D01*
X129801905Y-121372381D02*
X130373334Y-121372381D01*
X130087619Y-122372381D02*
X130087619Y-121372381D01*
X130563810Y-121372381D02*
X131135239Y-121372381D01*
X130849524Y-122372381D02*
X130849524Y-121372381D01*
X153868571Y-119308571D02*
X154201905Y-119308571D01*
X154344762Y-119832381D02*
X153868571Y-119832381D01*
X153868571Y-118832381D01*
X154344762Y-118832381D01*
X154678095Y-118832381D02*
X155344762Y-119832381D01*
X155344762Y-118832381D02*
X154678095Y-119832381D01*
X155582857Y-118832381D02*
X156154286Y-118832381D01*
X155868571Y-119832381D02*
X155868571Y-118832381D01*
X128563810Y-133802381D02*
X128563810Y-132802381D01*
X128992381Y-132897619D02*
X129040000Y-132850000D01*
X129135238Y-132802381D01*
X129373334Y-132802381D01*
X129468572Y-132850000D01*
X129516191Y-132897619D01*
X129563810Y-132992857D01*
X129563810Y-133088095D01*
X129516191Y-133230952D01*
X128944762Y-133802381D01*
X129563810Y-133802381D01*
X130563810Y-133707143D02*
X130516191Y-133754762D01*
X130373334Y-133802381D01*
X130278096Y-133802381D01*
X130135238Y-133754762D01*
X130040000Y-133659524D01*
X129992381Y-133564286D01*
X129944762Y-133373810D01*
X129944762Y-133230952D01*
X129992381Y-133040476D01*
X130040000Y-132945238D01*
X130135238Y-132850000D01*
X130278096Y-132802381D01*
X130373334Y-132802381D01*
X130516191Y-132850000D01*
X130563810Y-132897619D01*
M02*
