G04 #@! TF.FileFunction,Copper,L1,Top,Signal*
%FSLAX46Y46*%
G04 Gerber Fmt 4.6, Leading zero omitted, Abs format (unit mm)*
G04 Created by KiCad (PCBNEW 4.0.1-stable) date 2020/11/03 12:41:02*
%MOMM*%
G01*
G04 APERTURE LIST*
%ADD10C,0.100000*%
%ADD11C,2.000000*%
%ADD12C,1.800000*%
%ADD13C,1.524000*%
%ADD14C,4.200000*%
%ADD15R,1.700000X1.700000*%
%ADD16O,1.700000X1.700000*%
%ADD17C,2.500000*%
%ADD18O,2.500000X2.300000*%
%ADD19R,1.350000X1.350000*%
%ADD20O,1.350000X1.350000*%
%ADD21C,0.600000*%
%ADD22C,0.250000*%
G04 APERTURE END LIST*
D10*
D11*
X121365000Y-159980000D03*
D12*
X122365000Y-149980000D03*
X126365000Y-149980000D03*
X130365000Y-149980000D03*
D11*
X131365000Y-159980000D03*
D13*
X140970000Y-85090000D03*
X166370000Y-85090000D03*
X140970000Y-87630000D03*
X140970000Y-90170000D03*
X140970000Y-92710000D03*
X140970000Y-95250000D03*
X140970000Y-97790000D03*
X140970000Y-82550000D03*
X140970000Y-80010000D03*
X140970000Y-77470000D03*
X140970000Y-74930000D03*
X140970000Y-72390000D03*
X140970000Y-69850000D03*
X140970000Y-67310000D03*
X140970000Y-100330000D03*
X140970000Y-102870000D03*
X140970000Y-64770000D03*
X140970000Y-105410000D03*
X140970000Y-107950000D03*
X140970000Y-62230000D03*
X166370000Y-62230000D03*
X166370000Y-64770000D03*
X166370000Y-67310000D03*
X166370000Y-69850000D03*
X166370000Y-72390000D03*
X166370000Y-74930000D03*
X166370000Y-77470000D03*
X166370000Y-80010000D03*
X166370000Y-82550000D03*
X166370000Y-87630000D03*
X166370000Y-90170000D03*
X166370000Y-92710000D03*
X166370000Y-95250000D03*
X166370000Y-97790000D03*
X166370000Y-100330000D03*
X166370000Y-102870000D03*
X166370000Y-105410000D03*
X166370000Y-107950000D03*
D11*
X121920000Y-66040000D03*
X124460000Y-72390000D03*
D14*
X119380000Y-69850000D03*
D11*
X121920000Y-83820000D03*
X124460000Y-90170000D03*
D14*
X119380000Y-87630000D03*
D11*
X121920000Y-101600000D03*
X124460000Y-107950000D03*
D14*
X119380000Y-105410000D03*
D11*
X121920000Y-119380000D03*
X124460000Y-125730000D03*
D14*
X119380000Y-123190000D03*
D11*
X121920000Y-137160000D03*
X124460000Y-143510000D03*
D14*
X119380000Y-140970000D03*
D11*
X173990000Y-73660000D03*
X171450000Y-67310000D03*
D14*
X176530000Y-69850000D03*
D11*
X173990000Y-91440000D03*
X171450000Y-85090000D03*
D14*
X176530000Y-87630000D03*
D11*
X173990000Y-109220000D03*
X171450000Y-102870000D03*
D14*
X176530000Y-105410000D03*
D11*
X173990000Y-127000000D03*
X171450000Y-120650000D03*
D14*
X176530000Y-123190000D03*
D11*
X173990000Y-144780000D03*
X171450000Y-138430000D03*
D14*
X176530000Y-140970000D03*
D11*
X137160000Y-143510000D03*
X143510000Y-146050000D03*
D14*
X140970000Y-140970000D03*
D11*
X137160000Y-127000000D03*
X143510000Y-129540000D03*
D14*
X140970000Y-124460000D03*
D13*
X130175000Y-93345000D03*
X132715000Y-93345000D03*
X135255000Y-93345000D03*
X137795000Y-93345000D03*
X130175000Y-100965000D03*
X132715000Y-100965000D03*
X135255000Y-100965000D03*
X137795000Y-100965000D03*
D15*
X147955000Y-92710000D03*
D16*
X147955000Y-90170000D03*
D15*
X130175000Y-144145000D03*
D16*
X130175000Y-146685000D03*
D15*
X160020000Y-78740000D03*
D16*
X157480000Y-78740000D03*
D15*
X151130000Y-78740000D03*
D16*
X153670000Y-78740000D03*
D17*
X148320000Y-64050000D03*
D18*
X148520000Y-70250000D03*
D17*
X148320000Y-75850000D03*
X146320000Y-66550000D03*
D18*
X146120000Y-72150000D03*
D17*
X159750000Y-64050000D03*
D18*
X159950000Y-70250000D03*
D17*
X159750000Y-75850000D03*
X157750000Y-66550000D03*
D18*
X157550000Y-72150000D03*
D15*
X130175000Y-137795000D03*
D16*
X130175000Y-135255000D03*
D15*
X129540000Y-69215000D03*
D16*
X132080000Y-69215000D03*
X134620000Y-69215000D03*
X137160000Y-69215000D03*
D11*
X153035000Y-126880000D03*
X153035000Y-111880000D03*
D19*
X159385000Y-137795000D03*
D20*
X157385000Y-137795000D03*
X155385000Y-137795000D03*
X153385000Y-137795000D03*
D19*
X131445000Y-109220000D03*
D20*
X131445000Y-111220000D03*
X131445000Y-113220000D03*
D19*
X164465000Y-149860000D03*
D20*
X162465000Y-149860000D03*
X160465000Y-149860000D03*
X158465000Y-149860000D03*
X156465000Y-149860000D03*
D21*
X147320000Y-119380000D03*
X153035000Y-119380000D03*
X130810000Y-74295000D03*
X130810000Y-85090000D03*
X147320000Y-129540000D03*
X152400000Y-129540000D03*
X163195000Y-105410000D03*
X136525000Y-120650000D03*
X139065000Y-116205000D03*
X147320000Y-97790000D03*
X153670000Y-97790000D03*
X132080000Y-74295000D03*
X136525000Y-90170000D03*
X153035000Y-117475000D03*
X147320000Y-117475000D03*
X133350000Y-74295000D03*
X136525000Y-88265000D03*
X135255000Y-107950000D03*
X157480000Y-135255000D03*
X148590000Y-135255000D03*
X153670000Y-96520000D03*
X148590000Y-96520000D03*
D22*
X166370000Y-102870000D02*
X167640000Y-104140000D01*
X155385000Y-134175000D02*
X155385000Y-137795000D01*
X156210000Y-133350000D02*
X155385000Y-134175000D01*
X167005000Y-133350000D02*
X156210000Y-133350000D01*
X167640000Y-132715000D02*
X167005000Y-133350000D01*
X167640000Y-104140000D02*
X167640000Y-132715000D01*
X155385000Y-137795000D02*
X155385000Y-140780000D01*
X160465000Y-145860000D02*
X160465000Y-149860000D01*
X155385000Y-140780000D02*
X160465000Y-145860000D01*
X166370000Y-95250000D02*
X167005000Y-95250000D01*
X167005000Y-95250000D02*
X167640000Y-95885000D01*
X153385000Y-133000000D02*
X153385000Y-137795000D01*
X154305000Y-132080000D02*
X153385000Y-133000000D01*
X163830000Y-132080000D02*
X154305000Y-132080000D01*
X164465000Y-131445000D02*
X163830000Y-132080000D01*
X164465000Y-102235000D02*
X164465000Y-131445000D01*
X165100000Y-101600000D02*
X164465000Y-102235000D01*
X167005000Y-101600000D02*
X165100000Y-101600000D01*
X167640000Y-100965000D02*
X167005000Y-101600000D01*
X167640000Y-95885000D02*
X167640000Y-100965000D01*
X153385000Y-137795000D02*
X153385000Y-140685000D01*
X158465000Y-145765000D02*
X158465000Y-149860000D01*
X153385000Y-140685000D02*
X158465000Y-145765000D01*
X166370000Y-95250000D02*
X167005000Y-95250000D01*
X153035000Y-126880000D02*
X153035000Y-119380000D01*
X132715000Y-103505000D02*
X130175000Y-100965000D01*
X135890000Y-103505000D02*
X132715000Y-103505000D01*
X136525000Y-104140000D02*
X135890000Y-103505000D01*
X136525000Y-117475000D02*
X136525000Y-104140000D01*
X138430000Y-119380000D02*
X136525000Y-117475000D01*
X147320000Y-119380000D02*
X138430000Y-119380000D01*
X131445000Y-109220000D02*
X130175000Y-109220000D01*
X128270000Y-95250000D02*
X130175000Y-93345000D01*
X128270000Y-107315000D02*
X128270000Y-95250000D01*
X130175000Y-109220000D02*
X128270000Y-107315000D01*
X130175000Y-93345000D02*
X130175000Y-85725000D01*
X129540000Y-73025000D02*
X129540000Y-69215000D01*
X130810000Y-74295000D02*
X129540000Y-73025000D01*
X130175000Y-85725000D02*
X130810000Y-85090000D01*
X164465000Y-149860000D02*
X183515000Y-149860000D01*
X142240000Y-60960000D02*
X140970000Y-62230000D01*
X183515000Y-60960000D02*
X142240000Y-60960000D01*
X184150000Y-61595000D02*
X183515000Y-60960000D01*
X184150000Y-149225000D02*
X184150000Y-61595000D01*
X183515000Y-149860000D02*
X184150000Y-149225000D01*
X130175000Y-93345000D02*
X129540000Y-93345000D01*
X129540000Y-69215000D02*
X129540000Y-62865000D01*
X129540000Y-62865000D02*
X130175000Y-62230000D01*
X130175000Y-62230000D02*
X140970000Y-62230000D01*
X140970000Y-62230000D02*
X140970000Y-61595000D01*
X140970000Y-82550000D02*
X128270000Y-82550000D01*
X121920000Y-107950000D02*
X121920000Y-119380000D01*
X124460000Y-105410000D02*
X121920000Y-107950000D01*
X124460000Y-92710000D02*
X124460000Y-105410000D01*
X127000000Y-90170000D02*
X124460000Y-92710000D01*
X127000000Y-83820000D02*
X127000000Y-90170000D01*
X128270000Y-82550000D02*
X127000000Y-83820000D01*
X140970000Y-85090000D02*
X139700000Y-83820000D01*
X121920000Y-125730000D02*
X121920000Y-137160000D01*
X124460000Y-123190000D02*
X121920000Y-125730000D01*
X124460000Y-111760000D02*
X124460000Y-123190000D01*
X127000000Y-109220000D02*
X124460000Y-111760000D01*
X127000000Y-92075000D02*
X127000000Y-109220000D01*
X128270000Y-90805000D02*
X127000000Y-92075000D01*
X128270000Y-84455000D02*
X128270000Y-90805000D01*
X128905000Y-83820000D02*
X128270000Y-84455000D01*
X139700000Y-83820000D02*
X128905000Y-83820000D01*
X166370000Y-85090000D02*
X168910000Y-85090000D01*
X179070000Y-109220000D02*
X173990000Y-109220000D01*
X180340000Y-107950000D02*
X179070000Y-109220000D01*
X180340000Y-95250000D02*
X180340000Y-107950000D01*
X179070000Y-93980000D02*
X180340000Y-95250000D01*
X172720000Y-93980000D02*
X179070000Y-93980000D01*
X171450000Y-92710000D02*
X172720000Y-93980000D01*
X171450000Y-87630000D02*
X171450000Y-92710000D01*
X168910000Y-85090000D02*
X171450000Y-87630000D01*
X145415000Y-127635000D02*
X137795000Y-127635000D01*
X147320000Y-129540000D02*
X145415000Y-127635000D01*
X162560000Y-129540000D02*
X152400000Y-129540000D01*
X163195000Y-128905000D02*
X162560000Y-129540000D01*
X163195000Y-105410000D02*
X163195000Y-128905000D01*
X137795000Y-127635000D02*
X137160000Y-127000000D01*
X166370000Y-87630000D02*
X168910000Y-87630000D01*
X172720000Y-127000000D02*
X173990000Y-127000000D01*
X171450000Y-125730000D02*
X172720000Y-127000000D01*
X171450000Y-123190000D02*
X171450000Y-125730000D01*
X173990000Y-120650000D02*
X171450000Y-123190000D01*
X173990000Y-113030000D02*
X173990000Y-120650000D01*
X171450000Y-110490000D02*
X173990000Y-113030000D01*
X171450000Y-105410000D02*
X171450000Y-110490000D01*
X173990000Y-102870000D02*
X171450000Y-105410000D01*
X173990000Y-97790000D02*
X173990000Y-102870000D01*
X170180000Y-93980000D02*
X173990000Y-97790000D01*
X170180000Y-88900000D02*
X170180000Y-93980000D01*
X168910000Y-87630000D02*
X170180000Y-88900000D01*
X166370000Y-82550000D02*
X179070000Y-82550000D01*
X179070000Y-91440000D02*
X173990000Y-91440000D01*
X180340000Y-90170000D02*
X179070000Y-91440000D01*
X180340000Y-83820000D02*
X180340000Y-90170000D01*
X179070000Y-82550000D02*
X180340000Y-83820000D01*
X170180000Y-123825000D02*
X168910000Y-122555000D01*
X168910000Y-122555000D02*
X168910000Y-90805000D01*
X168910000Y-90805000D02*
X168275000Y-90170000D01*
X173990000Y-144780000D02*
X173990000Y-144145000D01*
X173990000Y-144145000D02*
X172720000Y-142875000D01*
X172720000Y-142875000D02*
X172720000Y-140335000D01*
X172720000Y-140335000D02*
X173355000Y-139700000D01*
X173355000Y-139700000D02*
X173355000Y-130810000D01*
X173355000Y-130810000D02*
X170180000Y-127635000D01*
X170180000Y-127635000D02*
X170180000Y-123825000D01*
X168275000Y-90170000D02*
X166370000Y-90170000D01*
X140970000Y-77470000D02*
X123190000Y-77470000D01*
X121920000Y-78740000D02*
X121920000Y-83820000D01*
X123190000Y-77470000D02*
X121920000Y-78740000D01*
X140970000Y-80010000D02*
X125730000Y-80010000D01*
X121920000Y-90170000D02*
X121920000Y-101600000D01*
X124460000Y-87630000D02*
X121920000Y-90170000D01*
X124460000Y-81280000D02*
X124460000Y-87630000D01*
X125730000Y-80010000D02*
X124460000Y-81280000D01*
X140970000Y-72390000D02*
X137160000Y-76200000D01*
X121920000Y-74295000D02*
X121920000Y-66040000D01*
X123825000Y-76200000D02*
X121920000Y-74295000D01*
X137160000Y-76200000D02*
X123825000Y-76200000D01*
X173990000Y-73660000D02*
X173990000Y-78740000D01*
X172720000Y-80010000D02*
X166370000Y-80010000D01*
X173990000Y-78740000D02*
X172720000Y-80010000D01*
X135255000Y-141605000D02*
X137160000Y-143510000D01*
X135255000Y-121920000D02*
X135255000Y-141605000D01*
X136525000Y-120650000D02*
X135255000Y-121920000D01*
X139065000Y-107315000D02*
X139065000Y-116205000D01*
X139700000Y-106680000D02*
X139065000Y-107315000D01*
X146050000Y-106680000D02*
X139700000Y-106680000D01*
X146685000Y-106045000D02*
X146050000Y-106680000D01*
X146685000Y-98425000D02*
X146685000Y-106045000D01*
X147320000Y-97790000D02*
X146685000Y-98425000D01*
X162560000Y-97790000D02*
X153670000Y-97790000D01*
X163195000Y-97155000D02*
X162560000Y-97790000D01*
X163195000Y-79375000D02*
X163195000Y-97155000D01*
X165100000Y-77470000D02*
X163195000Y-79375000D01*
X166370000Y-77470000D02*
X165100000Y-77470000D01*
X140970000Y-92710000D02*
X138430000Y-90170000D01*
X132080000Y-74295000D02*
X132080000Y-69215000D01*
X138430000Y-90170000D02*
X136525000Y-90170000D01*
X132080000Y-69850000D02*
X132080000Y-69215000D01*
X135255000Y-93345000D02*
X135255000Y-87630000D01*
X144495000Y-75850000D02*
X148320000Y-75850000D01*
X143510000Y-76835000D02*
X144495000Y-75850000D01*
X143510000Y-85725000D02*
X143510000Y-76835000D01*
X142875000Y-86360000D02*
X143510000Y-85725000D01*
X136525000Y-86360000D02*
X142875000Y-86360000D01*
X135255000Y-87630000D02*
X136525000Y-86360000D01*
X148320000Y-70250000D02*
X148320000Y-75850000D01*
X146320000Y-66550000D02*
X149100000Y-66550000D01*
X127755000Y-148590000D02*
X126365000Y-149980000D01*
X150495000Y-148590000D02*
X127755000Y-148590000D01*
X151130000Y-147955000D02*
X150495000Y-148590000D01*
X151130000Y-84455000D02*
X151130000Y-147955000D01*
X147955000Y-81280000D02*
X151130000Y-84455000D01*
X147955000Y-78740000D02*
X147955000Y-81280000D01*
X151130000Y-75565000D02*
X147955000Y-78740000D01*
X151130000Y-68580000D02*
X151130000Y-75565000D01*
X149100000Y-66550000D02*
X151130000Y-68580000D01*
X146320000Y-66550000D02*
X146320000Y-72150000D01*
X137795000Y-100965000D02*
X137795000Y-116840000D01*
X153035000Y-117475000D02*
X153035000Y-111880000D01*
X138430000Y-117475000D02*
X147320000Y-117475000D01*
X137795000Y-116840000D02*
X138430000Y-117475000D01*
X140970000Y-90170000D02*
X139065000Y-88265000D01*
X134620000Y-73025000D02*
X134620000Y-69215000D01*
X133350000Y-74295000D02*
X134620000Y-73025000D01*
X139065000Y-88265000D02*
X136525000Y-88265000D01*
X140970000Y-90170000D02*
X147955000Y-90170000D01*
X134620000Y-69850000D02*
X134620000Y-69215000D01*
X157480000Y-78740000D02*
X157480000Y-72420000D01*
X157480000Y-72420000D02*
X157750000Y-72150000D01*
X153670000Y-78740000D02*
X153670000Y-70630000D01*
X153670000Y-70630000D02*
X157750000Y-66550000D01*
X166370000Y-100330000D02*
X153035000Y-100330000D01*
X152400000Y-80010000D02*
X151130000Y-78740000D01*
X152400000Y-99695000D02*
X152400000Y-80010000D01*
X153035000Y-100330000D02*
X152400000Y-99695000D01*
X140970000Y-87630000D02*
X149225000Y-87630000D01*
X134620000Y-144145000D02*
X130175000Y-144145000D01*
X135890000Y-145415000D02*
X134620000Y-144145000D01*
X140335000Y-145415000D02*
X135890000Y-145415000D01*
X141605000Y-144145000D02*
X140335000Y-145415000D01*
X149225000Y-144145000D02*
X141605000Y-144145000D01*
X149860000Y-143510000D02*
X149225000Y-144145000D01*
X149860000Y-88265000D02*
X149860000Y-143510000D01*
X149225000Y-87630000D02*
X149860000Y-88265000D01*
X122365000Y-149980000D02*
X122365000Y-146875000D01*
X123190000Y-146050000D02*
X127635000Y-146050000D01*
X122365000Y-146875000D02*
X123190000Y-146050000D01*
X130175000Y-137795000D02*
X128270000Y-137795000D01*
X128270000Y-146685000D02*
X130175000Y-146685000D01*
X127635000Y-146050000D02*
X128270000Y-146685000D01*
X127635000Y-138430000D02*
X127635000Y-146050000D01*
X128270000Y-137795000D02*
X127635000Y-138430000D01*
X133255000Y-111220000D02*
X131445000Y-111220000D01*
X135255000Y-109220000D02*
X133255000Y-111220000D01*
X135255000Y-107950000D02*
X135255000Y-109220000D01*
X147320000Y-107950000D02*
X148590000Y-109220000D01*
X157480000Y-135255000D02*
X159385000Y-137160000D01*
X148590000Y-109220000D02*
X148590000Y-135255000D01*
X159385000Y-137160000D02*
X159385000Y-137795000D01*
X159385000Y-137795000D02*
X159385000Y-142875000D01*
X162465000Y-145955000D02*
X162465000Y-149860000D01*
X159385000Y-142875000D02*
X162465000Y-145955000D01*
X147320000Y-107950000D02*
X148590000Y-106680000D01*
X160020000Y-80645000D02*
X160020000Y-78740000D01*
X159385000Y-81280000D02*
X160020000Y-80645000D01*
X156210000Y-81280000D02*
X159385000Y-81280000D01*
X154940000Y-82550000D02*
X156210000Y-81280000D01*
X154940000Y-95250000D02*
X154940000Y-82550000D01*
X153670000Y-96520000D02*
X154940000Y-95250000D01*
X148590000Y-106680000D02*
X148590000Y-96520000D01*
X140970000Y-107950000D02*
X147320000Y-107950000D01*
M02*
