G04 #@! TF.FileFunction,Copper,L2,Bot,Signal*
%FSLAX46Y46*%
G04 Gerber Fmt 4.6, Leading zero omitted, Abs format (unit mm)*
G04 Created by KiCad (PCBNEW 4.0.1-stable) date 2020/11/03 12:41:02*
%MOMM*%
G01*
G04 APERTURE LIST*
%ADD10C,0.100000*%
%ADD11C,2.000000*%
%ADD12C,1.800000*%
%ADD13C,1.524000*%
%ADD14C,4.200000*%
%ADD15R,1.700000X1.700000*%
%ADD16O,1.700000X1.700000*%
%ADD17C,2.500000*%
%ADD18O,2.500000X2.300000*%
%ADD19R,1.350000X1.350000*%
%ADD20O,1.350000X1.350000*%
%ADD21C,0.600000*%
%ADD22C,0.250000*%
%ADD23C,0.254000*%
G04 APERTURE END LIST*
D10*
D11*
X121365000Y-159980000D03*
D12*
X122365000Y-149980000D03*
X126365000Y-149980000D03*
X130365000Y-149980000D03*
D11*
X131365000Y-159980000D03*
D13*
X140970000Y-85090000D03*
X166370000Y-85090000D03*
X140970000Y-87630000D03*
X140970000Y-90170000D03*
X140970000Y-92710000D03*
X140970000Y-95250000D03*
X140970000Y-97790000D03*
X140970000Y-82550000D03*
X140970000Y-80010000D03*
X140970000Y-77470000D03*
X140970000Y-74930000D03*
X140970000Y-72390000D03*
X140970000Y-69850000D03*
X140970000Y-67310000D03*
X140970000Y-100330000D03*
X140970000Y-102870000D03*
X140970000Y-64770000D03*
X140970000Y-105410000D03*
X140970000Y-107950000D03*
X140970000Y-62230000D03*
X166370000Y-62230000D03*
X166370000Y-64770000D03*
X166370000Y-67310000D03*
X166370000Y-69850000D03*
X166370000Y-72390000D03*
X166370000Y-74930000D03*
X166370000Y-77470000D03*
X166370000Y-80010000D03*
X166370000Y-82550000D03*
X166370000Y-87630000D03*
X166370000Y-90170000D03*
X166370000Y-92710000D03*
X166370000Y-95250000D03*
X166370000Y-97790000D03*
X166370000Y-100330000D03*
X166370000Y-102870000D03*
X166370000Y-105410000D03*
X166370000Y-107950000D03*
D11*
X121920000Y-66040000D03*
X124460000Y-72390000D03*
D14*
X119380000Y-69850000D03*
D11*
X121920000Y-83820000D03*
X124460000Y-90170000D03*
D14*
X119380000Y-87630000D03*
D11*
X121920000Y-101600000D03*
X124460000Y-107950000D03*
D14*
X119380000Y-105410000D03*
D11*
X121920000Y-119380000D03*
X124460000Y-125730000D03*
D14*
X119380000Y-123190000D03*
D11*
X121920000Y-137160000D03*
X124460000Y-143510000D03*
D14*
X119380000Y-140970000D03*
D11*
X173990000Y-73660000D03*
X171450000Y-67310000D03*
D14*
X176530000Y-69850000D03*
D11*
X173990000Y-91440000D03*
X171450000Y-85090000D03*
D14*
X176530000Y-87630000D03*
D11*
X173990000Y-109220000D03*
X171450000Y-102870000D03*
D14*
X176530000Y-105410000D03*
D11*
X173990000Y-127000000D03*
X171450000Y-120650000D03*
D14*
X176530000Y-123190000D03*
D11*
X173990000Y-144780000D03*
X171450000Y-138430000D03*
D14*
X176530000Y-140970000D03*
D11*
X137160000Y-143510000D03*
X143510000Y-146050000D03*
D14*
X140970000Y-140970000D03*
D11*
X137160000Y-127000000D03*
X143510000Y-129540000D03*
D14*
X140970000Y-124460000D03*
D13*
X130175000Y-93345000D03*
X132715000Y-93345000D03*
X135255000Y-93345000D03*
X137795000Y-93345000D03*
X130175000Y-100965000D03*
X132715000Y-100965000D03*
X135255000Y-100965000D03*
X137795000Y-100965000D03*
D15*
X147955000Y-92710000D03*
D16*
X147955000Y-90170000D03*
D15*
X130175000Y-144145000D03*
D16*
X130175000Y-146685000D03*
D15*
X160020000Y-78740000D03*
D16*
X157480000Y-78740000D03*
D15*
X151130000Y-78740000D03*
D16*
X153670000Y-78740000D03*
D17*
X148320000Y-64050000D03*
D18*
X148520000Y-70250000D03*
D17*
X148320000Y-75850000D03*
X146320000Y-66550000D03*
D18*
X146120000Y-72150000D03*
D17*
X159750000Y-64050000D03*
D18*
X159950000Y-70250000D03*
D17*
X159750000Y-75850000D03*
X157750000Y-66550000D03*
D18*
X157550000Y-72150000D03*
D15*
X130175000Y-137795000D03*
D16*
X130175000Y-135255000D03*
D15*
X129540000Y-69215000D03*
D16*
X132080000Y-69215000D03*
X134620000Y-69215000D03*
X137160000Y-69215000D03*
D11*
X153035000Y-126880000D03*
X153035000Y-111880000D03*
D19*
X159385000Y-137795000D03*
D20*
X157385000Y-137795000D03*
X155385000Y-137795000D03*
X153385000Y-137795000D03*
D19*
X131445000Y-109220000D03*
D20*
X131445000Y-111220000D03*
X131445000Y-113220000D03*
D19*
X164465000Y-149860000D03*
D20*
X162465000Y-149860000D03*
X160465000Y-149860000D03*
X158465000Y-149860000D03*
X156465000Y-149860000D03*
D21*
X147320000Y-119380000D03*
X153035000Y-119380000D03*
X130810000Y-74295000D03*
X130810000Y-85090000D03*
X147320000Y-129540000D03*
X152400000Y-129540000D03*
X163195000Y-105410000D03*
X136525000Y-120650000D03*
X139065000Y-116205000D03*
X147320000Y-97790000D03*
X153670000Y-97790000D03*
X132080000Y-74295000D03*
X136525000Y-90170000D03*
X153035000Y-117475000D03*
X147320000Y-117475000D03*
X133350000Y-74295000D03*
X136525000Y-88265000D03*
X135255000Y-107950000D03*
X157480000Y-135255000D03*
X148590000Y-135255000D03*
X153670000Y-96520000D03*
X148590000Y-96520000D03*
D22*
X131445000Y-113220000D02*
X129730000Y-113220000D01*
X129730000Y-113220000D02*
X124460000Y-107950000D01*
X156465000Y-149860000D02*
X156465000Y-138715000D01*
X156465000Y-138715000D02*
X157385000Y-137795000D01*
X143510000Y-146050000D02*
X152655000Y-146050000D01*
X152655000Y-146050000D02*
X156465000Y-149860000D01*
X124650000Y-125920000D02*
X124460000Y-125730000D01*
X124460000Y-143510000D02*
X124460000Y-137160000D01*
X126365000Y-135255000D02*
X130175000Y-135255000D01*
X124460000Y-137160000D02*
X126365000Y-135255000D01*
X130365000Y-149980000D02*
X132595000Y-149980000D01*
X136525000Y-146050000D02*
X143510000Y-146050000D01*
X132595000Y-149980000D02*
X136525000Y-146050000D01*
X124460000Y-143510000D02*
X125285000Y-143510000D01*
X143510000Y-129540000D02*
X128270000Y-129540000D01*
X128270000Y-129540000D02*
X124460000Y-125730000D01*
X137795000Y-93345000D02*
X137795000Y-94615000D01*
X132715000Y-94615000D02*
X132715000Y-93345000D01*
X133350000Y-95250000D02*
X132715000Y-94615000D01*
X137160000Y-95250000D02*
X133350000Y-95250000D01*
X137795000Y-94615000D02*
X137160000Y-95250000D01*
X147955000Y-92710000D02*
X166370000Y-92710000D01*
X137160000Y-69215000D02*
X137160000Y-62230000D01*
X137160000Y-62230000D02*
X135890000Y-60960000D01*
X140970000Y-74930000D02*
X142240000Y-74930000D01*
X144865000Y-64050000D02*
X148320000Y-64050000D01*
X143510000Y-65405000D02*
X144865000Y-64050000D01*
X143510000Y-73660000D02*
X143510000Y-65405000D01*
X142240000Y-74930000D02*
X143510000Y-73660000D01*
X171450000Y-120015000D02*
X171450000Y-120650000D01*
X132715000Y-93345000D02*
X132715000Y-93980000D01*
X124460000Y-90170000D02*
X131445000Y-90170000D01*
X132715000Y-91440000D02*
X132715000Y-93345000D01*
X131445000Y-90170000D02*
X132715000Y-91440000D01*
X143510000Y-129540000D02*
X143510000Y-146050000D01*
X124460000Y-143510000D02*
X121920000Y-146050000D01*
X114300000Y-144780000D02*
X114300000Y-127000000D01*
X115570000Y-146050000D02*
X114300000Y-144780000D01*
X121920000Y-146050000D02*
X115570000Y-146050000D01*
X124460000Y-125730000D02*
X121920000Y-128270000D01*
X121920000Y-128270000D02*
X115570000Y-128270000D01*
X115570000Y-128270000D02*
X114300000Y-127000000D01*
X114300000Y-127000000D02*
X114300000Y-107950000D01*
X123190000Y-63500000D02*
X125730000Y-60960000D01*
X124460000Y-64770000D02*
X123190000Y-63500000D01*
X124460000Y-72390000D02*
X124460000Y-64770000D01*
X125730000Y-60960000D02*
X135890000Y-60960000D01*
X135890000Y-60960000D02*
X145230000Y-60960000D01*
X145230000Y-60960000D02*
X148320000Y-64050000D01*
X180340000Y-119380000D02*
X181610000Y-118110000D01*
X172720000Y-101600000D02*
X171450000Y-102870000D01*
X180340000Y-101600000D02*
X172720000Y-101600000D01*
X181610000Y-102870000D02*
X180340000Y-101600000D01*
X181610000Y-118110000D02*
X181610000Y-102870000D01*
X171450000Y-138430000D02*
X173990000Y-138430000D01*
X173990000Y-138430000D02*
X181610000Y-130810000D01*
X181610000Y-130810000D02*
X181610000Y-120650000D01*
X181610000Y-120650000D02*
X180340000Y-119380000D01*
X172720000Y-119380000D02*
X171450000Y-120650000D01*
X180340000Y-119380000D02*
X172720000Y-119380000D01*
X124460000Y-107950000D02*
X121920000Y-110490000D01*
X114300000Y-107950000D02*
X114300000Y-90170000D01*
X116840000Y-110490000D02*
X114300000Y-107950000D01*
X121920000Y-110490000D02*
X116840000Y-110490000D01*
X124460000Y-72390000D02*
X123190000Y-72390000D01*
X121920000Y-92710000D02*
X124460000Y-90170000D01*
X116840000Y-92710000D02*
X121920000Y-92710000D01*
X115570000Y-91440000D02*
X116840000Y-92710000D01*
X114300000Y-90170000D02*
X115570000Y-91440000D01*
X114300000Y-81280000D02*
X114300000Y-90170000D01*
X123190000Y-72390000D02*
X114300000Y-81280000D01*
X166370000Y-107950000D02*
X170180000Y-107950000D01*
X170180000Y-107950000D02*
X171450000Y-106680000D01*
X171450000Y-106680000D02*
X171450000Y-102870000D01*
X171450000Y-102870000D02*
X171450000Y-91440000D01*
X171450000Y-85090000D02*
X171450000Y-91440000D01*
X170180000Y-92710000D02*
X166370000Y-92710000D01*
X171450000Y-91440000D02*
X170180000Y-92710000D01*
X171450000Y-67310000D02*
X171450000Y-85090000D01*
X159750000Y-64050000D02*
X159750000Y-64500000D01*
X159750000Y-64500000D02*
X161290000Y-66040000D01*
X170180000Y-66040000D02*
X171450000Y-67310000D01*
X161290000Y-66040000D02*
X170180000Y-66040000D01*
X148320000Y-64050000D02*
X159750000Y-64050000D01*
X153035000Y-119380000D02*
X147320000Y-119380000D01*
X130810000Y-85090000D02*
X130810000Y-74295000D01*
X166370000Y-105410000D02*
X163195000Y-105410000D01*
X152400000Y-129540000D02*
X147320000Y-129540000D01*
X136525000Y-118745000D02*
X136525000Y-120650000D01*
X139065000Y-116205000D02*
X136525000Y-118745000D01*
X153670000Y-97790000D02*
X147320000Y-97790000D01*
X132080000Y-85725000D02*
X132080000Y-74295000D01*
X136525000Y-90170000D02*
X132080000Y-85725000D01*
X140970000Y-92710000D02*
X140335000Y-92710000D01*
X147320000Y-117475000D02*
X153035000Y-117475000D01*
X133350000Y-85090000D02*
X133350000Y-74295000D01*
X136525000Y-88265000D02*
X133350000Y-85090000D01*
X140970000Y-107950000D02*
X135255000Y-107950000D01*
X148590000Y-135255000D02*
X157480000Y-135255000D01*
X148590000Y-96520000D02*
X153670000Y-96520000D01*
D23*
G36*
X184710000Y-151690000D02*
X133985000Y-151690000D01*
X133713295Y-151744046D01*
X133482954Y-151897954D01*
X133329046Y-152128295D01*
X133275000Y-152400000D01*
X133275000Y-160580000D01*
X132886211Y-160580000D01*
X132999716Y-160306648D01*
X133000284Y-159656205D01*
X132751894Y-159055057D01*
X132292363Y-158594722D01*
X131691648Y-158345284D01*
X131041205Y-158344716D01*
X130440057Y-158593106D01*
X129979722Y-159052637D01*
X129730284Y-159653352D01*
X129729716Y-160303795D01*
X129843842Y-160580000D01*
X122886211Y-160580000D01*
X122999716Y-160306648D01*
X123000284Y-159656205D01*
X122751894Y-159055057D01*
X122292363Y-158594722D01*
X121691648Y-158345284D01*
X121041205Y-158344716D01*
X120440057Y-158593106D01*
X119979722Y-159052637D01*
X119730284Y-159653352D01*
X119729716Y-160303795D01*
X119843842Y-160580000D01*
X119455000Y-160580000D01*
X119455000Y-152400000D01*
X119400954Y-152128295D01*
X119247046Y-151897954D01*
X119016705Y-151744046D01*
X118745000Y-151690000D01*
X111200000Y-151690000D01*
X111200000Y-150283991D01*
X120829735Y-150283991D01*
X121062932Y-150848371D01*
X121494357Y-151280551D01*
X122058330Y-151514733D01*
X122668991Y-151515265D01*
X123233371Y-151282068D01*
X123665551Y-150850643D01*
X123899733Y-150286670D01*
X123899735Y-150283991D01*
X124829735Y-150283991D01*
X125062932Y-150848371D01*
X125494357Y-151280551D01*
X126058330Y-151514733D01*
X126668991Y-151515265D01*
X127233371Y-151282068D01*
X127455668Y-151060159D01*
X129464446Y-151060159D01*
X129550852Y-151316643D01*
X130124336Y-151526458D01*
X130734460Y-151500839D01*
X131179148Y-151316643D01*
X131265554Y-151060159D01*
X130365000Y-150159605D01*
X129464446Y-151060159D01*
X127455668Y-151060159D01*
X127665551Y-150850643D01*
X127899733Y-150286670D01*
X127900209Y-149739336D01*
X128818542Y-149739336D01*
X128844161Y-150349460D01*
X129028357Y-150794148D01*
X129284841Y-150880554D01*
X130185395Y-149980000D01*
X130544605Y-149980000D01*
X131445159Y-150880554D01*
X131701643Y-150794148D01*
X131911458Y-150220664D01*
X131910146Y-150189402D01*
X155197080Y-150189402D01*
X155419651Y-150649540D01*
X155801367Y-150989478D01*
X156135600Y-151127910D01*
X156338000Y-151004224D01*
X156338000Y-149987000D01*
X155319910Y-149987000D01*
X155197080Y-150189402D01*
X131910146Y-150189402D01*
X131885839Y-149610540D01*
X131852726Y-149530598D01*
X155197080Y-149530598D01*
X155319910Y-149733000D01*
X156338000Y-149733000D01*
X156338000Y-148715776D01*
X156592000Y-148715776D01*
X156592000Y-149733000D01*
X156612000Y-149733000D01*
X156612000Y-149987000D01*
X156592000Y-149987000D01*
X156592000Y-151004224D01*
X156794400Y-151127910D01*
X157128633Y-150989478D01*
X157460072Y-150694314D01*
X157538690Y-150811974D01*
X157963685Y-151095946D01*
X158465000Y-151195664D01*
X158966315Y-151095946D01*
X159391310Y-150811974D01*
X159465000Y-150701689D01*
X159538690Y-150811974D01*
X159963685Y-151095946D01*
X160465000Y-151195664D01*
X160966315Y-151095946D01*
X161391310Y-150811974D01*
X161465000Y-150701689D01*
X161538690Y-150811974D01*
X161963685Y-151095946D01*
X162465000Y-151195664D01*
X162966315Y-151095946D01*
X163267064Y-150894992D01*
X163325910Y-150986441D01*
X163538110Y-151131431D01*
X163790000Y-151182440D01*
X165140000Y-151182440D01*
X165375317Y-151138162D01*
X165591441Y-150999090D01*
X165736431Y-150786890D01*
X165787440Y-150535000D01*
X165787440Y-149185000D01*
X165743162Y-148949683D01*
X165604090Y-148733559D01*
X165391890Y-148588569D01*
X165140000Y-148537560D01*
X163790000Y-148537560D01*
X163554683Y-148581838D01*
X163338559Y-148720910D01*
X163267317Y-148825177D01*
X162966315Y-148624054D01*
X162465000Y-148524336D01*
X161963685Y-148624054D01*
X161538690Y-148908026D01*
X161465000Y-149018311D01*
X161391310Y-148908026D01*
X160966315Y-148624054D01*
X160465000Y-148524336D01*
X159963685Y-148624054D01*
X159538690Y-148908026D01*
X159465000Y-149018311D01*
X159391310Y-148908026D01*
X158966315Y-148624054D01*
X158465000Y-148524336D01*
X157963685Y-148624054D01*
X157538690Y-148908026D01*
X157460072Y-149025686D01*
X157128633Y-148730522D01*
X156794400Y-148592090D01*
X156592000Y-148715776D01*
X156338000Y-148715776D01*
X156135600Y-148592090D01*
X155801367Y-148730522D01*
X155419651Y-149070460D01*
X155197080Y-149530598D01*
X131852726Y-149530598D01*
X131701643Y-149165852D01*
X131445159Y-149079446D01*
X130544605Y-149980000D01*
X130185395Y-149980000D01*
X129284841Y-149079446D01*
X129028357Y-149165852D01*
X128818542Y-149739336D01*
X127900209Y-149739336D01*
X127900265Y-149676009D01*
X127667068Y-149111629D01*
X127455650Y-148899841D01*
X129464446Y-148899841D01*
X130365000Y-149800395D01*
X131265554Y-148899841D01*
X131179148Y-148643357D01*
X130605664Y-148433542D01*
X129995540Y-148459161D01*
X129550852Y-148643357D01*
X129464446Y-148899841D01*
X127455650Y-148899841D01*
X127235643Y-148679449D01*
X126671670Y-148445267D01*
X126061009Y-148444735D01*
X125496629Y-148677932D01*
X125064449Y-149109357D01*
X124830267Y-149673330D01*
X124829735Y-150283991D01*
X123899735Y-150283991D01*
X123900265Y-149676009D01*
X123667068Y-149111629D01*
X123235643Y-148679449D01*
X122671670Y-148445267D01*
X122061009Y-148444735D01*
X121496629Y-148677932D01*
X121064449Y-149109357D01*
X120830267Y-149673330D01*
X120829735Y-150283991D01*
X111200000Y-150283991D01*
X111200000Y-146685000D01*
X128660907Y-146685000D01*
X128773946Y-147253285D01*
X129095853Y-147735054D01*
X129577622Y-148056961D01*
X130145907Y-148170000D01*
X130204093Y-148170000D01*
X130772378Y-148056961D01*
X131254147Y-147735054D01*
X131576054Y-147253285D01*
X131586149Y-147202532D01*
X142537073Y-147202532D01*
X142635736Y-147469387D01*
X143245461Y-147695908D01*
X143895460Y-147671856D01*
X144384264Y-147469387D01*
X144482927Y-147202532D01*
X143510000Y-146229605D01*
X142537073Y-147202532D01*
X131586149Y-147202532D01*
X131689093Y-146685000D01*
X131576054Y-146116715D01*
X131354718Y-145785461D01*
X141864092Y-145785461D01*
X141888144Y-146435460D01*
X142090613Y-146924264D01*
X142357468Y-147022927D01*
X143330395Y-146050000D01*
X143689605Y-146050000D01*
X144662532Y-147022927D01*
X144929387Y-146924264D01*
X145155908Y-146314539D01*
X145131856Y-145664540D01*
X144929387Y-145175736D01*
X144734808Y-145103795D01*
X172354716Y-145103795D01*
X172603106Y-145704943D01*
X173062637Y-146165278D01*
X173663352Y-146414716D01*
X174313795Y-146415284D01*
X174914943Y-146166894D01*
X175375278Y-145707363D01*
X175624716Y-145106648D01*
X175625284Y-144456205D01*
X175376894Y-143855057D01*
X174917363Y-143394722D01*
X174316648Y-143145284D01*
X173666205Y-143144716D01*
X173065057Y-143393106D01*
X172604722Y-143852637D01*
X172355284Y-144453352D01*
X172354716Y-145103795D01*
X144734808Y-145103795D01*
X144662532Y-145077073D01*
X143689605Y-146050000D01*
X143330395Y-146050000D01*
X142357468Y-145077073D01*
X142090613Y-145175736D01*
X141864092Y-145785461D01*
X131354718Y-145785461D01*
X131254147Y-145634946D01*
X131212548Y-145607150D01*
X131260317Y-145598162D01*
X131476441Y-145459090D01*
X131621431Y-145246890D01*
X131672440Y-144995000D01*
X131672440Y-143833795D01*
X135524716Y-143833795D01*
X135773106Y-144434943D01*
X136232637Y-144895278D01*
X136833352Y-145144716D01*
X137483795Y-145145284D01*
X138083553Y-144897468D01*
X142537073Y-144897468D01*
X143510000Y-145870395D01*
X144482927Y-144897468D01*
X144384264Y-144630613D01*
X143774539Y-144404092D01*
X143124540Y-144428144D01*
X142635736Y-144630613D01*
X142537073Y-144897468D01*
X138083553Y-144897468D01*
X138084943Y-144896894D01*
X138545278Y-144437363D01*
X138794716Y-143836648D01*
X138795284Y-143186205D01*
X138546894Y-142585057D01*
X138087363Y-142124722D01*
X137486648Y-141875284D01*
X136836205Y-141874716D01*
X136235057Y-142123106D01*
X135774722Y-142582637D01*
X135525284Y-143183352D01*
X135524716Y-143833795D01*
X131672440Y-143833795D01*
X131672440Y-143295000D01*
X131628162Y-143059683D01*
X131489090Y-142843559D01*
X131276890Y-142698569D01*
X131025000Y-142647560D01*
X129325000Y-142647560D01*
X129089683Y-142691838D01*
X128873559Y-142830910D01*
X128728569Y-143043110D01*
X128677560Y-143295000D01*
X128677560Y-144995000D01*
X128721838Y-145230317D01*
X128860910Y-145446441D01*
X129073110Y-145591431D01*
X129140541Y-145605086D01*
X129095853Y-145634946D01*
X128773946Y-146116715D01*
X128660907Y-146685000D01*
X111200000Y-146685000D01*
X111200000Y-144662532D01*
X123487073Y-144662532D01*
X123585736Y-144929387D01*
X124195461Y-145155908D01*
X124845460Y-145131856D01*
X125334264Y-144929387D01*
X125432927Y-144662532D01*
X124460000Y-143689605D01*
X123487073Y-144662532D01*
X111200000Y-144662532D01*
X111200000Y-141511638D01*
X116644526Y-141511638D01*
X117060028Y-142517229D01*
X117828724Y-143287268D01*
X118833588Y-143704524D01*
X119921638Y-143705474D01*
X120927229Y-143289972D01*
X120971817Y-143245461D01*
X122814092Y-143245461D01*
X122838144Y-143895460D01*
X123040613Y-144384264D01*
X123307468Y-144482927D01*
X124280395Y-143510000D01*
X124639605Y-143510000D01*
X125612532Y-144482927D01*
X125879387Y-144384264D01*
X126105908Y-143774539D01*
X126081856Y-143124540D01*
X125879387Y-142635736D01*
X125612532Y-142537073D01*
X124639605Y-143510000D01*
X124280395Y-143510000D01*
X123307468Y-142537073D01*
X123040613Y-142635736D01*
X122814092Y-143245461D01*
X120971817Y-143245461D01*
X121697268Y-142521276D01*
X121765287Y-142357468D01*
X123487073Y-142357468D01*
X124460000Y-143330395D01*
X125432927Y-142357468D01*
X125334264Y-142090613D01*
X124724539Y-141864092D01*
X124074540Y-141888144D01*
X123585736Y-142090613D01*
X123487073Y-142357468D01*
X121765287Y-142357468D01*
X122114524Y-141516412D01*
X122114528Y-141511638D01*
X138234526Y-141511638D01*
X138650028Y-142517229D01*
X139418724Y-143287268D01*
X140423588Y-143704524D01*
X141511638Y-143705474D01*
X142517229Y-143289972D01*
X143287268Y-142521276D01*
X143704524Y-141516412D01*
X143704528Y-141511638D01*
X173794526Y-141511638D01*
X174210028Y-142517229D01*
X174978724Y-143287268D01*
X175983588Y-143704524D01*
X177071638Y-143705474D01*
X178077229Y-143289972D01*
X178847268Y-142521276D01*
X179264524Y-141516412D01*
X179265474Y-140428362D01*
X178849972Y-139422771D01*
X178081276Y-138652732D01*
X177076412Y-138235476D01*
X175988362Y-138234526D01*
X174982771Y-138650028D01*
X174212732Y-139418724D01*
X173795476Y-140423588D01*
X173794526Y-141511638D01*
X143704528Y-141511638D01*
X143705474Y-140428362D01*
X143355984Y-139582532D01*
X170477073Y-139582532D01*
X170575736Y-139849387D01*
X171185461Y-140075908D01*
X171835460Y-140051856D01*
X172324264Y-139849387D01*
X172422927Y-139582532D01*
X171450000Y-138609605D01*
X170477073Y-139582532D01*
X143355984Y-139582532D01*
X143289972Y-139422771D01*
X142521276Y-138652732D01*
X141516412Y-138235476D01*
X140428362Y-138234526D01*
X139422771Y-138650028D01*
X138652732Y-139418724D01*
X138235476Y-140423588D01*
X138234526Y-141511638D01*
X122114528Y-141511638D01*
X122115474Y-140428362D01*
X121699972Y-139422771D01*
X120931276Y-138652732D01*
X119926412Y-138235476D01*
X118838362Y-138234526D01*
X117832771Y-138650028D01*
X117062732Y-139418724D01*
X116645476Y-140423588D01*
X116644526Y-141511638D01*
X111200000Y-141511638D01*
X111200000Y-137483795D01*
X120284716Y-137483795D01*
X120533106Y-138084943D01*
X120992637Y-138545278D01*
X121593352Y-138794716D01*
X122243795Y-138795284D01*
X122844943Y-138546894D01*
X123305278Y-138087363D01*
X123554716Y-137486648D01*
X123555188Y-136945000D01*
X128677560Y-136945000D01*
X128677560Y-138645000D01*
X128721838Y-138880317D01*
X128860910Y-139096441D01*
X129073110Y-139241431D01*
X129325000Y-139292440D01*
X131025000Y-139292440D01*
X131260317Y-139248162D01*
X131476441Y-139109090D01*
X131621431Y-138896890D01*
X131672440Y-138645000D01*
X131672440Y-137769336D01*
X152075000Y-137769336D01*
X152075000Y-137820664D01*
X152174718Y-138321979D01*
X152458690Y-138746974D01*
X152883685Y-139030946D01*
X153385000Y-139130664D01*
X153886315Y-139030946D01*
X154311310Y-138746974D01*
X154385000Y-138636689D01*
X154458690Y-138746974D01*
X154883685Y-139030946D01*
X155385000Y-139130664D01*
X155886315Y-139030946D01*
X156311310Y-138746974D01*
X156389928Y-138629314D01*
X156721367Y-138924478D01*
X157055600Y-139062910D01*
X157258000Y-138939224D01*
X157258000Y-137922000D01*
X157238000Y-137922000D01*
X157238000Y-137668000D01*
X157258000Y-137668000D01*
X157258000Y-136650776D01*
X157512000Y-136650776D01*
X157512000Y-137668000D01*
X157532000Y-137668000D01*
X157532000Y-137922000D01*
X157512000Y-137922000D01*
X157512000Y-138939224D01*
X157714400Y-139062910D01*
X158048633Y-138924478D01*
X158175285Y-138811687D01*
X158245910Y-138921441D01*
X158458110Y-139066431D01*
X158710000Y-139117440D01*
X160060000Y-139117440D01*
X160295317Y-139073162D01*
X160511441Y-138934090D01*
X160656431Y-138721890D01*
X160707440Y-138470000D01*
X160707440Y-138165461D01*
X169804092Y-138165461D01*
X169828144Y-138815460D01*
X170030613Y-139304264D01*
X170297468Y-139402927D01*
X171270395Y-138430000D01*
X171629605Y-138430000D01*
X172602532Y-139402927D01*
X172869387Y-139304264D01*
X173095908Y-138694539D01*
X173071856Y-138044540D01*
X172869387Y-137555736D01*
X172602532Y-137457073D01*
X171629605Y-138430000D01*
X171270395Y-138430000D01*
X170297468Y-137457073D01*
X170030613Y-137555736D01*
X169804092Y-138165461D01*
X160707440Y-138165461D01*
X160707440Y-137277468D01*
X170477073Y-137277468D01*
X171450000Y-138250395D01*
X172422927Y-137277468D01*
X172324264Y-137010613D01*
X171714539Y-136784092D01*
X171064540Y-136808144D01*
X170575736Y-137010613D01*
X170477073Y-137277468D01*
X160707440Y-137277468D01*
X160707440Y-137120000D01*
X160663162Y-136884683D01*
X160524090Y-136668559D01*
X160311890Y-136523569D01*
X160060000Y-136472560D01*
X158710000Y-136472560D01*
X158474683Y-136516838D01*
X158258559Y-136655910D01*
X158175061Y-136778113D01*
X158048633Y-136665522D01*
X157714400Y-136527090D01*
X157512000Y-136650776D01*
X157258000Y-136650776D01*
X157055600Y-136527090D01*
X156721367Y-136665522D01*
X156389928Y-136960686D01*
X156311310Y-136843026D01*
X155886315Y-136559054D01*
X155385000Y-136459336D01*
X154883685Y-136559054D01*
X154458690Y-136843026D01*
X154385000Y-136953311D01*
X154311310Y-136843026D01*
X153886315Y-136559054D01*
X153385000Y-136459336D01*
X152883685Y-136559054D01*
X152458690Y-136843026D01*
X152174718Y-137268021D01*
X152075000Y-137769336D01*
X131672440Y-137769336D01*
X131672440Y-136945000D01*
X131628162Y-136709683D01*
X131489090Y-136493559D01*
X131276890Y-136348569D01*
X131168893Y-136326699D01*
X131446645Y-136021924D01*
X131616476Y-135611890D01*
X131525852Y-135440167D01*
X147654838Y-135440167D01*
X147796883Y-135783943D01*
X148059673Y-136047192D01*
X148403201Y-136189838D01*
X148775167Y-136190162D01*
X149118943Y-136048117D01*
X149152118Y-136015000D01*
X156917537Y-136015000D01*
X156949673Y-136047192D01*
X157293201Y-136189838D01*
X157665167Y-136190162D01*
X158008943Y-136048117D01*
X158272192Y-135785327D01*
X158414838Y-135441799D01*
X158415162Y-135069833D01*
X158273117Y-134726057D01*
X158010327Y-134462808D01*
X157666799Y-134320162D01*
X157294833Y-134319838D01*
X156951057Y-134461883D01*
X156917882Y-134495000D01*
X149152463Y-134495000D01*
X149120327Y-134462808D01*
X148776799Y-134320162D01*
X148404833Y-134319838D01*
X148061057Y-134461883D01*
X147797808Y-134724673D01*
X147655162Y-135068201D01*
X147654838Y-135440167D01*
X131525852Y-135440167D01*
X131495155Y-135382000D01*
X130302000Y-135382000D01*
X130302000Y-135402000D01*
X130048000Y-135402000D01*
X130048000Y-135382000D01*
X128854845Y-135382000D01*
X128733524Y-135611890D01*
X128903355Y-136021924D01*
X129179501Y-136324937D01*
X129089683Y-136341838D01*
X128873559Y-136480910D01*
X128728569Y-136693110D01*
X128677560Y-136945000D01*
X123555188Y-136945000D01*
X123555284Y-136836205D01*
X123306894Y-136235057D01*
X122847363Y-135774722D01*
X122246648Y-135525284D01*
X121596205Y-135524716D01*
X120995057Y-135773106D01*
X120534722Y-136232637D01*
X120285284Y-136833352D01*
X120284716Y-137483795D01*
X111200000Y-137483795D01*
X111200000Y-134898110D01*
X128733524Y-134898110D01*
X128854845Y-135128000D01*
X130048000Y-135128000D01*
X130048000Y-133934181D01*
X130302000Y-133934181D01*
X130302000Y-135128000D01*
X131495155Y-135128000D01*
X131616476Y-134898110D01*
X131446645Y-134488076D01*
X131056358Y-134059817D01*
X130531892Y-133813514D01*
X130302000Y-133934181D01*
X130048000Y-133934181D01*
X129818108Y-133813514D01*
X129293642Y-134059817D01*
X128903355Y-134488076D01*
X128733524Y-134898110D01*
X111200000Y-134898110D01*
X111200000Y-130692532D01*
X142537073Y-130692532D01*
X142635736Y-130959387D01*
X143245461Y-131185908D01*
X143895460Y-131161856D01*
X144384264Y-130959387D01*
X144482927Y-130692532D01*
X143510000Y-129719605D01*
X142537073Y-130692532D01*
X111200000Y-130692532D01*
X111200000Y-129275461D01*
X141864092Y-129275461D01*
X141888144Y-129925460D01*
X142090613Y-130414264D01*
X142357468Y-130512927D01*
X143330395Y-129540000D01*
X143689605Y-129540000D01*
X144662532Y-130512927D01*
X144929387Y-130414264D01*
X145155908Y-129804539D01*
X145152971Y-129725167D01*
X146384838Y-129725167D01*
X146526883Y-130068943D01*
X146789673Y-130332192D01*
X147133201Y-130474838D01*
X147505167Y-130475162D01*
X147848943Y-130333117D01*
X147882118Y-130300000D01*
X151837537Y-130300000D01*
X151869673Y-130332192D01*
X152213201Y-130474838D01*
X152585167Y-130475162D01*
X152928943Y-130333117D01*
X153192192Y-130070327D01*
X153334838Y-129726799D01*
X153335162Y-129354833D01*
X153193117Y-129011057D01*
X152930327Y-128747808D01*
X152586799Y-128605162D01*
X152214833Y-128604838D01*
X151871057Y-128746883D01*
X151837882Y-128780000D01*
X147882463Y-128780000D01*
X147850327Y-128747808D01*
X147506799Y-128605162D01*
X147134833Y-128604838D01*
X146791057Y-128746883D01*
X146527808Y-129009673D01*
X146385162Y-129353201D01*
X146384838Y-129725167D01*
X145152971Y-129725167D01*
X145131856Y-129154540D01*
X144929387Y-128665736D01*
X144662532Y-128567073D01*
X143689605Y-129540000D01*
X143330395Y-129540000D01*
X142357468Y-128567073D01*
X142090613Y-128665736D01*
X141864092Y-129275461D01*
X111200000Y-129275461D01*
X111200000Y-126882532D01*
X123487073Y-126882532D01*
X123585736Y-127149387D01*
X124195461Y-127375908D01*
X124845460Y-127351856D01*
X124913205Y-127323795D01*
X135524716Y-127323795D01*
X135773106Y-127924943D01*
X136232637Y-128385278D01*
X136833352Y-128634716D01*
X137483795Y-128635284D01*
X138083553Y-128387468D01*
X142537073Y-128387468D01*
X143510000Y-129360395D01*
X144482927Y-128387468D01*
X144384264Y-128120613D01*
X143774539Y-127894092D01*
X143124540Y-127918144D01*
X142635736Y-128120613D01*
X142537073Y-128387468D01*
X138083553Y-128387468D01*
X138084943Y-128386894D01*
X138545278Y-127927363D01*
X138794716Y-127326648D01*
X138794823Y-127203795D01*
X151399716Y-127203795D01*
X151648106Y-127804943D01*
X152107637Y-128265278D01*
X152708352Y-128514716D01*
X153358795Y-128515284D01*
X153959943Y-128266894D01*
X154420278Y-127807363D01*
X154621072Y-127323795D01*
X172354716Y-127323795D01*
X172603106Y-127924943D01*
X173062637Y-128385278D01*
X173663352Y-128634716D01*
X174313795Y-128635284D01*
X174914943Y-128386894D01*
X175375278Y-127927363D01*
X175624716Y-127326648D01*
X175625284Y-126676205D01*
X175376894Y-126075057D01*
X174917363Y-125614722D01*
X174316648Y-125365284D01*
X173666205Y-125364716D01*
X173065057Y-125613106D01*
X172604722Y-126072637D01*
X172355284Y-126673352D01*
X172354716Y-127323795D01*
X154621072Y-127323795D01*
X154669716Y-127206648D01*
X154670284Y-126556205D01*
X154421894Y-125955057D01*
X153962363Y-125494722D01*
X153361648Y-125245284D01*
X152711205Y-125244716D01*
X152110057Y-125493106D01*
X151649722Y-125952637D01*
X151400284Y-126553352D01*
X151399716Y-127203795D01*
X138794823Y-127203795D01*
X138795284Y-126676205D01*
X138546894Y-126075057D01*
X138087363Y-125614722D01*
X137486648Y-125365284D01*
X136836205Y-125364716D01*
X136235057Y-125613106D01*
X135774722Y-126072637D01*
X135525284Y-126673352D01*
X135524716Y-127323795D01*
X124913205Y-127323795D01*
X125334264Y-127149387D01*
X125432927Y-126882532D01*
X124460000Y-125909605D01*
X123487073Y-126882532D01*
X111200000Y-126882532D01*
X111200000Y-123731638D01*
X116644526Y-123731638D01*
X117060028Y-124737229D01*
X117828724Y-125507268D01*
X118833588Y-125924524D01*
X119921638Y-125925474D01*
X120927229Y-125509972D01*
X120971817Y-125465461D01*
X122814092Y-125465461D01*
X122838144Y-126115460D01*
X123040613Y-126604264D01*
X123307468Y-126702927D01*
X124280395Y-125730000D01*
X124639605Y-125730000D01*
X125612532Y-126702927D01*
X125879387Y-126604264D01*
X126105908Y-125994539D01*
X126081856Y-125344540D01*
X125939822Y-125001638D01*
X138234526Y-125001638D01*
X138650028Y-126007229D01*
X139418724Y-126777268D01*
X140423588Y-127194524D01*
X141511638Y-127195474D01*
X142517229Y-126779972D01*
X143287268Y-126011276D01*
X143704524Y-125006412D01*
X143705474Y-123918362D01*
X143628322Y-123731638D01*
X173794526Y-123731638D01*
X174210028Y-124737229D01*
X174978724Y-125507268D01*
X175983588Y-125924524D01*
X177071638Y-125925474D01*
X178077229Y-125509972D01*
X178847268Y-124741276D01*
X179264524Y-123736412D01*
X179265474Y-122648362D01*
X178849972Y-121642771D01*
X178081276Y-120872732D01*
X177076412Y-120455476D01*
X175988362Y-120454526D01*
X174982771Y-120870028D01*
X174212732Y-121638724D01*
X173795476Y-122643588D01*
X173794526Y-123731638D01*
X143628322Y-123731638D01*
X143289972Y-122912771D01*
X142521276Y-122142732D01*
X141701984Y-121802532D01*
X170477073Y-121802532D01*
X170575736Y-122069387D01*
X171185461Y-122295908D01*
X171835460Y-122271856D01*
X172324264Y-122069387D01*
X172422927Y-121802532D01*
X171450000Y-120829605D01*
X170477073Y-121802532D01*
X141701984Y-121802532D01*
X141516412Y-121725476D01*
X140428362Y-121724526D01*
X139422771Y-122140028D01*
X138652732Y-122908724D01*
X138235476Y-123913588D01*
X138234526Y-125001638D01*
X125939822Y-125001638D01*
X125879387Y-124855736D01*
X125612532Y-124757073D01*
X124639605Y-125730000D01*
X124280395Y-125730000D01*
X123307468Y-124757073D01*
X123040613Y-124855736D01*
X122814092Y-125465461D01*
X120971817Y-125465461D01*
X121697268Y-124741276D01*
X121765287Y-124577468D01*
X123487073Y-124577468D01*
X124460000Y-125550395D01*
X125432927Y-124577468D01*
X125334264Y-124310613D01*
X124724539Y-124084092D01*
X124074540Y-124108144D01*
X123585736Y-124310613D01*
X123487073Y-124577468D01*
X121765287Y-124577468D01*
X122114524Y-123736412D01*
X122115474Y-122648362D01*
X121699972Y-121642771D01*
X120931276Y-120872732D01*
X119926412Y-120455476D01*
X118838362Y-120454526D01*
X117832771Y-120870028D01*
X117062732Y-121638724D01*
X116645476Y-122643588D01*
X116644526Y-123731638D01*
X111200000Y-123731638D01*
X111200000Y-119703795D01*
X120284716Y-119703795D01*
X120533106Y-120304943D01*
X120992637Y-120765278D01*
X121593352Y-121014716D01*
X122243795Y-121015284D01*
X122679710Y-120835167D01*
X135589838Y-120835167D01*
X135731883Y-121178943D01*
X135994673Y-121442192D01*
X136338201Y-121584838D01*
X136710167Y-121585162D01*
X137053943Y-121443117D01*
X137317192Y-121180327D01*
X137459838Y-120836799D01*
X137460162Y-120464833D01*
X137427367Y-120385461D01*
X169804092Y-120385461D01*
X169828144Y-121035460D01*
X170030613Y-121524264D01*
X170297468Y-121622927D01*
X171270395Y-120650000D01*
X171629605Y-120650000D01*
X172602532Y-121622927D01*
X172869387Y-121524264D01*
X173095908Y-120914539D01*
X173071856Y-120264540D01*
X172869387Y-119775736D01*
X172602532Y-119677073D01*
X171629605Y-120650000D01*
X171270395Y-120650000D01*
X170297468Y-119677073D01*
X170030613Y-119775736D01*
X169804092Y-120385461D01*
X137427367Y-120385461D01*
X137318117Y-120121057D01*
X137285000Y-120087882D01*
X137285000Y-119565167D01*
X146384838Y-119565167D01*
X146526883Y-119908943D01*
X146789673Y-120172192D01*
X147133201Y-120314838D01*
X147505167Y-120315162D01*
X147848943Y-120173117D01*
X147882118Y-120140000D01*
X152472537Y-120140000D01*
X152504673Y-120172192D01*
X152848201Y-120314838D01*
X153220167Y-120315162D01*
X153563943Y-120173117D01*
X153827192Y-119910327D01*
X153969838Y-119566799D01*
X153969898Y-119497468D01*
X170477073Y-119497468D01*
X171450000Y-120470395D01*
X172422927Y-119497468D01*
X172324264Y-119230613D01*
X171714539Y-119004092D01*
X171064540Y-119028144D01*
X170575736Y-119230613D01*
X170477073Y-119497468D01*
X153969898Y-119497468D01*
X153970162Y-119194833D01*
X153828117Y-118851057D01*
X153565327Y-118587808D01*
X153221799Y-118445162D01*
X152849833Y-118444838D01*
X152506057Y-118586883D01*
X152472882Y-118620000D01*
X147882463Y-118620000D01*
X147850327Y-118587808D01*
X147506799Y-118445162D01*
X147134833Y-118444838D01*
X146791057Y-118586883D01*
X146527808Y-118849673D01*
X146385162Y-119193201D01*
X146384838Y-119565167D01*
X137285000Y-119565167D01*
X137285000Y-119059802D01*
X138684635Y-117660167D01*
X146384838Y-117660167D01*
X146526883Y-118003943D01*
X146789673Y-118267192D01*
X147133201Y-118409838D01*
X147505167Y-118410162D01*
X147848943Y-118268117D01*
X147882118Y-118235000D01*
X152472537Y-118235000D01*
X152504673Y-118267192D01*
X152848201Y-118409838D01*
X153220167Y-118410162D01*
X153563943Y-118268117D01*
X153827192Y-118005327D01*
X153969838Y-117661799D01*
X153970162Y-117289833D01*
X153828117Y-116946057D01*
X153565327Y-116682808D01*
X153221799Y-116540162D01*
X152849833Y-116539838D01*
X152506057Y-116681883D01*
X152472882Y-116715000D01*
X147882463Y-116715000D01*
X147850327Y-116682808D01*
X147506799Y-116540162D01*
X147134833Y-116539838D01*
X146791057Y-116681883D01*
X146527808Y-116944673D01*
X146385162Y-117288201D01*
X146384838Y-117660167D01*
X138684635Y-117660167D01*
X139204680Y-117140122D01*
X139250167Y-117140162D01*
X139593943Y-116998117D01*
X139857192Y-116735327D01*
X139999838Y-116391799D01*
X140000162Y-116019833D01*
X139858117Y-115676057D01*
X139595327Y-115412808D01*
X139251799Y-115270162D01*
X138879833Y-115269838D01*
X138536057Y-115411883D01*
X138272808Y-115674673D01*
X138130162Y-116018201D01*
X138130121Y-116065077D01*
X135987599Y-118207599D01*
X135822852Y-118454161D01*
X135765000Y-118745000D01*
X135765000Y-120087537D01*
X135732808Y-120119673D01*
X135590162Y-120463201D01*
X135589838Y-120835167D01*
X122679710Y-120835167D01*
X122844943Y-120766894D01*
X123305278Y-120307363D01*
X123554716Y-119706648D01*
X123555284Y-119056205D01*
X123306894Y-118455057D01*
X122847363Y-117994722D01*
X122246648Y-117745284D01*
X121596205Y-117744716D01*
X120995057Y-117993106D01*
X120534722Y-118452637D01*
X120285284Y-119053352D01*
X120284716Y-119703795D01*
X111200000Y-119703795D01*
X111200000Y-113549400D01*
X130177090Y-113549400D01*
X130315522Y-113883633D01*
X130655460Y-114265349D01*
X131115598Y-114487920D01*
X131318000Y-114365090D01*
X131318000Y-113347000D01*
X131572000Y-113347000D01*
X131572000Y-114365090D01*
X131774402Y-114487920D01*
X132234540Y-114265349D01*
X132574478Y-113883633D01*
X132712910Y-113549400D01*
X132589224Y-113347000D01*
X131572000Y-113347000D01*
X131318000Y-113347000D01*
X130300776Y-113347000D01*
X130177090Y-113549400D01*
X111200000Y-113549400D01*
X111200000Y-111220000D01*
X130109336Y-111220000D01*
X130209054Y-111721315D01*
X130493026Y-112146310D01*
X130610686Y-112224928D01*
X130315522Y-112556367D01*
X130177090Y-112890600D01*
X130300776Y-113093000D01*
X131318000Y-113093000D01*
X131318000Y-113073000D01*
X131572000Y-113073000D01*
X131572000Y-113093000D01*
X132589224Y-113093000D01*
X132712910Y-112890600D01*
X132574478Y-112556367D01*
X132279314Y-112224928D01*
X132310941Y-112203795D01*
X151399716Y-112203795D01*
X151648106Y-112804943D01*
X152107637Y-113265278D01*
X152708352Y-113514716D01*
X153358795Y-113515284D01*
X153959943Y-113266894D01*
X154420278Y-112807363D01*
X154669716Y-112206648D01*
X154670284Y-111556205D01*
X154421894Y-110955057D01*
X153962363Y-110494722D01*
X153361648Y-110245284D01*
X152711205Y-110244716D01*
X152110057Y-110493106D01*
X151649722Y-110952637D01*
X151400284Y-111553352D01*
X151399716Y-112203795D01*
X132310941Y-112203795D01*
X132396974Y-112146310D01*
X132680946Y-111721315D01*
X132780664Y-111220000D01*
X132680946Y-110718685D01*
X132479992Y-110417936D01*
X132571441Y-110359090D01*
X132716431Y-110146890D01*
X132767440Y-109895000D01*
X132767440Y-109543795D01*
X172354716Y-109543795D01*
X172603106Y-110144943D01*
X173062637Y-110605278D01*
X173663352Y-110854716D01*
X174313795Y-110855284D01*
X174914943Y-110606894D01*
X175375278Y-110147363D01*
X175624716Y-109546648D01*
X175625284Y-108896205D01*
X175376894Y-108295057D01*
X174917363Y-107834722D01*
X174316648Y-107585284D01*
X173666205Y-107584716D01*
X173065057Y-107833106D01*
X172604722Y-108292637D01*
X172355284Y-108893352D01*
X172354716Y-109543795D01*
X132767440Y-109543795D01*
X132767440Y-108545000D01*
X132723162Y-108309683D01*
X132610865Y-108135167D01*
X134319838Y-108135167D01*
X134461883Y-108478943D01*
X134724673Y-108742192D01*
X135068201Y-108884838D01*
X135440167Y-108885162D01*
X135783943Y-108743117D01*
X135817118Y-108710000D01*
X139772469Y-108710000D01*
X139784990Y-108740303D01*
X140177630Y-109133629D01*
X140690900Y-109346757D01*
X141246661Y-109347242D01*
X141760303Y-109135010D01*
X141965457Y-108930213D01*
X165569392Y-108930213D01*
X165638857Y-109172397D01*
X166162302Y-109359144D01*
X166717368Y-109331362D01*
X167101143Y-109172397D01*
X167170608Y-108930213D01*
X166370000Y-108129605D01*
X165569392Y-108930213D01*
X141965457Y-108930213D01*
X142153629Y-108742370D01*
X142366757Y-108229100D01*
X142367181Y-107742302D01*
X164960856Y-107742302D01*
X164988638Y-108297368D01*
X165147603Y-108681143D01*
X165389787Y-108750608D01*
X166190395Y-107950000D01*
X166549605Y-107950000D01*
X167350213Y-108750608D01*
X167592397Y-108681143D01*
X167779144Y-108157698D01*
X167751362Y-107602632D01*
X167592397Y-107218857D01*
X167350213Y-107149392D01*
X166549605Y-107950000D01*
X166190395Y-107950000D01*
X165389787Y-107149392D01*
X165147603Y-107218857D01*
X164960856Y-107742302D01*
X142367181Y-107742302D01*
X142367242Y-107673339D01*
X142155010Y-107159697D01*
X141762370Y-106766371D01*
X141554488Y-106680051D01*
X141760303Y-106595010D01*
X142153629Y-106202370D01*
X142366757Y-105689100D01*
X142366838Y-105595167D01*
X162259838Y-105595167D01*
X162401883Y-105938943D01*
X162664673Y-106202192D01*
X163008201Y-106344838D01*
X163380167Y-106345162D01*
X163723943Y-106203117D01*
X163757118Y-106170000D01*
X165172469Y-106170000D01*
X165184990Y-106200303D01*
X165577630Y-106593629D01*
X165769727Y-106673395D01*
X165638857Y-106727603D01*
X165569392Y-106969787D01*
X166370000Y-107770395D01*
X167170608Y-106969787D01*
X167101143Y-106727603D01*
X166960682Y-106677491D01*
X167160303Y-106595010D01*
X167553629Y-106202370D01*
X167657741Y-105951638D01*
X173794526Y-105951638D01*
X174210028Y-106957229D01*
X174978724Y-107727268D01*
X175983588Y-108144524D01*
X177071638Y-108145474D01*
X178077229Y-107729972D01*
X178847268Y-106961276D01*
X179264524Y-105956412D01*
X179265474Y-104868362D01*
X178849972Y-103862771D01*
X178081276Y-103092732D01*
X177076412Y-102675476D01*
X175988362Y-102674526D01*
X174982771Y-103090028D01*
X174212732Y-103858724D01*
X173795476Y-104863588D01*
X173794526Y-105951638D01*
X167657741Y-105951638D01*
X167766757Y-105689100D01*
X167767242Y-105133339D01*
X167555010Y-104619697D01*
X167162370Y-104226371D01*
X166954488Y-104140051D01*
X167160303Y-104055010D01*
X167192837Y-104022532D01*
X170477073Y-104022532D01*
X170575736Y-104289387D01*
X171185461Y-104515908D01*
X171835460Y-104491856D01*
X172324264Y-104289387D01*
X172422927Y-104022532D01*
X171450000Y-103049605D01*
X170477073Y-104022532D01*
X167192837Y-104022532D01*
X167553629Y-103662370D01*
X167766757Y-103149100D01*
X167767231Y-102605461D01*
X169804092Y-102605461D01*
X169828144Y-103255460D01*
X170030613Y-103744264D01*
X170297468Y-103842927D01*
X171270395Y-102870000D01*
X171629605Y-102870000D01*
X172602532Y-103842927D01*
X172869387Y-103744264D01*
X173095908Y-103134539D01*
X173071856Y-102484540D01*
X172869387Y-101995736D01*
X172602532Y-101897073D01*
X171629605Y-102870000D01*
X171270395Y-102870000D01*
X170297468Y-101897073D01*
X170030613Y-101995736D01*
X169804092Y-102605461D01*
X167767231Y-102605461D01*
X167767242Y-102593339D01*
X167555010Y-102079697D01*
X167193413Y-101717468D01*
X170477073Y-101717468D01*
X171450000Y-102690395D01*
X172422927Y-101717468D01*
X172324264Y-101450613D01*
X171714539Y-101224092D01*
X171064540Y-101248144D01*
X170575736Y-101450613D01*
X170477073Y-101717468D01*
X167193413Y-101717468D01*
X167162370Y-101686371D01*
X166954488Y-101600051D01*
X167160303Y-101515010D01*
X167553629Y-101122370D01*
X167766757Y-100609100D01*
X167767242Y-100053339D01*
X167555010Y-99539697D01*
X167162370Y-99146371D01*
X166954488Y-99060051D01*
X167160303Y-98975010D01*
X167553629Y-98582370D01*
X167766757Y-98069100D01*
X167767242Y-97513339D01*
X167555010Y-96999697D01*
X167162370Y-96606371D01*
X166954488Y-96520051D01*
X167160303Y-96435010D01*
X167553629Y-96042370D01*
X167766757Y-95529100D01*
X167767242Y-94973339D01*
X167555010Y-94459697D01*
X167162370Y-94066371D01*
X166970273Y-93986605D01*
X167101143Y-93932397D01*
X167170608Y-93690213D01*
X166370000Y-92889605D01*
X165569392Y-93690213D01*
X165638857Y-93932397D01*
X165779318Y-93982509D01*
X165579697Y-94064990D01*
X165186371Y-94457630D01*
X164973243Y-94970900D01*
X164972758Y-95526661D01*
X165184990Y-96040303D01*
X165577630Y-96433629D01*
X165785512Y-96519949D01*
X165579697Y-96604990D01*
X165186371Y-96997630D01*
X164973243Y-97510900D01*
X164972758Y-98066661D01*
X165184990Y-98580303D01*
X165577630Y-98973629D01*
X165785512Y-99059949D01*
X165579697Y-99144990D01*
X165186371Y-99537630D01*
X164973243Y-100050900D01*
X164972758Y-100606661D01*
X165184990Y-101120303D01*
X165577630Y-101513629D01*
X165785512Y-101599949D01*
X165579697Y-101684990D01*
X165186371Y-102077630D01*
X164973243Y-102590900D01*
X164972758Y-103146661D01*
X165184990Y-103660303D01*
X165577630Y-104053629D01*
X165785512Y-104139949D01*
X165579697Y-104224990D01*
X165186371Y-104617630D01*
X165172930Y-104650000D01*
X163757463Y-104650000D01*
X163725327Y-104617808D01*
X163381799Y-104475162D01*
X163009833Y-104474838D01*
X162666057Y-104616883D01*
X162402808Y-104879673D01*
X162260162Y-105223201D01*
X162259838Y-105595167D01*
X142366838Y-105595167D01*
X142367242Y-105133339D01*
X142155010Y-104619697D01*
X141762370Y-104226371D01*
X141554488Y-104140051D01*
X141760303Y-104055010D01*
X142153629Y-103662370D01*
X142366757Y-103149100D01*
X142367242Y-102593339D01*
X142155010Y-102079697D01*
X141762370Y-101686371D01*
X141554488Y-101600051D01*
X141760303Y-101515010D01*
X142153629Y-101122370D01*
X142366757Y-100609100D01*
X142367242Y-100053339D01*
X142155010Y-99539697D01*
X141762370Y-99146371D01*
X141554488Y-99060051D01*
X141760303Y-98975010D01*
X142153629Y-98582370D01*
X142366757Y-98069100D01*
X142366838Y-97975167D01*
X146384838Y-97975167D01*
X146526883Y-98318943D01*
X146789673Y-98582192D01*
X147133201Y-98724838D01*
X147505167Y-98725162D01*
X147848943Y-98583117D01*
X147882118Y-98550000D01*
X153107537Y-98550000D01*
X153139673Y-98582192D01*
X153483201Y-98724838D01*
X153855167Y-98725162D01*
X154198943Y-98583117D01*
X154462192Y-98320327D01*
X154604838Y-97976799D01*
X154605162Y-97604833D01*
X154463117Y-97261057D01*
X154357290Y-97155046D01*
X154462192Y-97050327D01*
X154604838Y-96706799D01*
X154605162Y-96334833D01*
X154463117Y-95991057D01*
X154200327Y-95727808D01*
X153856799Y-95585162D01*
X153484833Y-95584838D01*
X153141057Y-95726883D01*
X153107882Y-95760000D01*
X149152463Y-95760000D01*
X149120327Y-95727808D01*
X148776799Y-95585162D01*
X148404833Y-95584838D01*
X148061057Y-95726883D01*
X147797808Y-95989673D01*
X147655162Y-96333201D01*
X147654838Y-96705167D01*
X147760310Y-96960430D01*
X147506799Y-96855162D01*
X147134833Y-96854838D01*
X146791057Y-96996883D01*
X146527808Y-97259673D01*
X146385162Y-97603201D01*
X146384838Y-97975167D01*
X142366838Y-97975167D01*
X142367242Y-97513339D01*
X142155010Y-96999697D01*
X141762370Y-96606371D01*
X141554488Y-96520051D01*
X141760303Y-96435010D01*
X142153629Y-96042370D01*
X142366757Y-95529100D01*
X142367242Y-94973339D01*
X142155010Y-94459697D01*
X141762370Y-94066371D01*
X141554488Y-93980051D01*
X141760303Y-93895010D01*
X142153629Y-93502370D01*
X142363995Y-92995750D01*
X146470000Y-92995750D01*
X146470000Y-93686310D01*
X146566673Y-93919699D01*
X146745302Y-94098327D01*
X146978691Y-94195000D01*
X147669250Y-94195000D01*
X147828000Y-94036250D01*
X147828000Y-92837000D01*
X148082000Y-92837000D01*
X148082000Y-94036250D01*
X148240750Y-94195000D01*
X148931309Y-94195000D01*
X149164698Y-94098327D01*
X149343327Y-93919699D01*
X149440000Y-93686310D01*
X149440000Y-92995750D01*
X149281250Y-92837000D01*
X148082000Y-92837000D01*
X147828000Y-92837000D01*
X146628750Y-92837000D01*
X146470000Y-92995750D01*
X142363995Y-92995750D01*
X142366757Y-92989100D01*
X142367242Y-92433339D01*
X142155010Y-91919697D01*
X141762370Y-91526371D01*
X141554488Y-91440051D01*
X141760303Y-91355010D01*
X142153629Y-90962370D01*
X142366757Y-90449100D01*
X142367000Y-90170000D01*
X146440907Y-90170000D01*
X146553946Y-90738285D01*
X146875853Y-91220054D01*
X146919777Y-91249403D01*
X146745302Y-91321673D01*
X146566673Y-91500301D01*
X146470000Y-91733690D01*
X146470000Y-92424250D01*
X146628750Y-92583000D01*
X147828000Y-92583000D01*
X147828000Y-92563000D01*
X148082000Y-92563000D01*
X148082000Y-92583000D01*
X149281250Y-92583000D01*
X149361948Y-92502302D01*
X164960856Y-92502302D01*
X164988638Y-93057368D01*
X165147603Y-93441143D01*
X165389787Y-93510608D01*
X166190395Y-92710000D01*
X166549605Y-92710000D01*
X167350213Y-93510608D01*
X167592397Y-93441143D01*
X167779144Y-92917698D01*
X167751362Y-92362632D01*
X167592397Y-91978857D01*
X167350213Y-91909392D01*
X166549605Y-92710000D01*
X166190395Y-92710000D01*
X165389787Y-91909392D01*
X165147603Y-91978857D01*
X164960856Y-92502302D01*
X149361948Y-92502302D01*
X149440000Y-92424250D01*
X149440000Y-91733690D01*
X149343327Y-91500301D01*
X149164698Y-91321673D01*
X148990223Y-91249403D01*
X149034147Y-91220054D01*
X149356054Y-90738285D01*
X149469093Y-90170000D01*
X149356054Y-89601715D01*
X149034147Y-89119946D01*
X148552378Y-88798039D01*
X147984093Y-88685000D01*
X147925907Y-88685000D01*
X147357622Y-88798039D01*
X146875853Y-89119946D01*
X146553946Y-89601715D01*
X146440907Y-90170000D01*
X142367000Y-90170000D01*
X142367242Y-89893339D01*
X142155010Y-89379697D01*
X141762370Y-88986371D01*
X141554488Y-88900051D01*
X141760303Y-88815010D01*
X142153629Y-88422370D01*
X142366757Y-87909100D01*
X142367242Y-87353339D01*
X142155010Y-86839697D01*
X141762370Y-86446371D01*
X141554488Y-86360051D01*
X141760303Y-86275010D01*
X142153629Y-85882370D01*
X142366757Y-85369100D01*
X142367242Y-84813339D01*
X142155010Y-84299697D01*
X141762370Y-83906371D01*
X141554488Y-83820051D01*
X141760303Y-83735010D01*
X142153629Y-83342370D01*
X142366757Y-82829100D01*
X142367242Y-82273339D01*
X142155010Y-81759697D01*
X141762370Y-81366371D01*
X141554488Y-81280051D01*
X141760303Y-81195010D01*
X142153629Y-80802370D01*
X142366757Y-80289100D01*
X142367242Y-79733339D01*
X142155010Y-79219697D01*
X141762370Y-78826371D01*
X141554488Y-78740051D01*
X141760303Y-78655010D01*
X142153629Y-78262370D01*
X142308250Y-77890000D01*
X149632560Y-77890000D01*
X149632560Y-79590000D01*
X149676838Y-79825317D01*
X149815910Y-80041441D01*
X150028110Y-80186431D01*
X150280000Y-80237440D01*
X151980000Y-80237440D01*
X152215317Y-80193162D01*
X152431441Y-80054090D01*
X152576431Y-79841890D01*
X152590086Y-79774459D01*
X152619946Y-79819147D01*
X153101715Y-80141054D01*
X153670000Y-80254093D01*
X154238285Y-80141054D01*
X154720054Y-79819147D01*
X155041961Y-79337378D01*
X155155000Y-78769093D01*
X155155000Y-78710907D01*
X155995000Y-78710907D01*
X155995000Y-78769093D01*
X156108039Y-79337378D01*
X156429946Y-79819147D01*
X156911715Y-80141054D01*
X157480000Y-80254093D01*
X158048285Y-80141054D01*
X158530054Y-79819147D01*
X158557850Y-79777548D01*
X158566838Y-79825317D01*
X158705910Y-80041441D01*
X158918110Y-80186431D01*
X159170000Y-80237440D01*
X160870000Y-80237440D01*
X161105317Y-80193162D01*
X161321441Y-80054090D01*
X161466431Y-79841890D01*
X161517440Y-79590000D01*
X161517440Y-77890000D01*
X161473162Y-77654683D01*
X161334090Y-77438559D01*
X161121890Y-77293569D01*
X160997305Y-77268340D01*
X161347093Y-76919161D01*
X161634672Y-76226595D01*
X161635326Y-75476695D01*
X161348957Y-74783628D01*
X160819161Y-74252907D01*
X160126595Y-73965328D01*
X159376695Y-73964674D01*
X158683628Y-74251043D01*
X158152907Y-74780839D01*
X157865328Y-75473405D01*
X157864674Y-76223305D01*
X158151043Y-76916372D01*
X158680839Y-77447093D01*
X158698948Y-77454612D01*
X158573569Y-77638110D01*
X158559914Y-77705541D01*
X158530054Y-77660853D01*
X158048285Y-77338946D01*
X157480000Y-77225907D01*
X156911715Y-77338946D01*
X156429946Y-77660853D01*
X156108039Y-78142622D01*
X155995000Y-78710907D01*
X155155000Y-78710907D01*
X155041961Y-78142622D01*
X154720054Y-77660853D01*
X154238285Y-77338946D01*
X153670000Y-77225907D01*
X153101715Y-77338946D01*
X152619946Y-77660853D01*
X152592150Y-77702452D01*
X152583162Y-77654683D01*
X152444090Y-77438559D01*
X152231890Y-77293569D01*
X151980000Y-77242560D01*
X150280000Y-77242560D01*
X150044683Y-77286838D01*
X149828559Y-77425910D01*
X149683569Y-77638110D01*
X149632560Y-77890000D01*
X142308250Y-77890000D01*
X142366757Y-77749100D01*
X142367242Y-77193339D01*
X142155010Y-76679697D01*
X141762370Y-76286371D01*
X141610491Y-76223305D01*
X146434674Y-76223305D01*
X146721043Y-76916372D01*
X147250839Y-77447093D01*
X147943405Y-77734672D01*
X148693305Y-77735326D01*
X149386372Y-77448957D01*
X149917093Y-76919161D01*
X150204672Y-76226595D01*
X150205326Y-75476695D01*
X149918957Y-74783628D01*
X149389161Y-74252907D01*
X148696595Y-73965328D01*
X147946695Y-73964674D01*
X147253628Y-74251043D01*
X146722907Y-74780839D01*
X146435328Y-75473405D01*
X146434674Y-76223305D01*
X141610491Y-76223305D01*
X141570273Y-76206605D01*
X141701143Y-76152397D01*
X141770608Y-75910213D01*
X140970000Y-75109605D01*
X140169392Y-75910213D01*
X140238857Y-76152397D01*
X140379318Y-76202509D01*
X140179697Y-76284990D01*
X139786371Y-76677630D01*
X139573243Y-77190900D01*
X139572758Y-77746661D01*
X139784990Y-78260303D01*
X140177630Y-78653629D01*
X140385512Y-78739949D01*
X140179697Y-78824990D01*
X139786371Y-79217630D01*
X139573243Y-79730900D01*
X139572758Y-80286661D01*
X139784990Y-80800303D01*
X140177630Y-81193629D01*
X140385512Y-81279949D01*
X140179697Y-81364990D01*
X139786371Y-81757630D01*
X139573243Y-82270900D01*
X139572758Y-82826661D01*
X139784990Y-83340303D01*
X140177630Y-83733629D01*
X140385512Y-83819949D01*
X140179697Y-83904990D01*
X139786371Y-84297630D01*
X139573243Y-84810900D01*
X139572758Y-85366661D01*
X139784990Y-85880303D01*
X140177630Y-86273629D01*
X140385512Y-86359949D01*
X140179697Y-86444990D01*
X139786371Y-86837630D01*
X139573243Y-87350900D01*
X139572758Y-87906661D01*
X139784990Y-88420303D01*
X140177630Y-88813629D01*
X140385512Y-88899949D01*
X140179697Y-88984990D01*
X139786371Y-89377630D01*
X139573243Y-89890900D01*
X139572758Y-90446661D01*
X139784990Y-90960303D01*
X140177630Y-91353629D01*
X140385512Y-91439949D01*
X140179697Y-91524990D01*
X139786371Y-91917630D01*
X139573243Y-92430900D01*
X139572758Y-92986661D01*
X139784990Y-93500303D01*
X140177630Y-93893629D01*
X140385512Y-93979949D01*
X140179697Y-94064990D01*
X139786371Y-94457630D01*
X139573243Y-94970900D01*
X139572758Y-95526661D01*
X139784990Y-96040303D01*
X140177630Y-96433629D01*
X140385512Y-96519949D01*
X140179697Y-96604990D01*
X139786371Y-96997630D01*
X139573243Y-97510900D01*
X139572758Y-98066661D01*
X139784990Y-98580303D01*
X140177630Y-98973629D01*
X140385512Y-99059949D01*
X140179697Y-99144990D01*
X139786371Y-99537630D01*
X139573243Y-100050900D01*
X139572758Y-100606661D01*
X139784990Y-101120303D01*
X140177630Y-101513629D01*
X140385512Y-101599949D01*
X140179697Y-101684990D01*
X139786371Y-102077630D01*
X139573243Y-102590900D01*
X139572758Y-103146661D01*
X139784990Y-103660303D01*
X140177630Y-104053629D01*
X140385512Y-104139949D01*
X140179697Y-104224990D01*
X139786371Y-104617630D01*
X139573243Y-105130900D01*
X139572758Y-105686661D01*
X139784990Y-106200303D01*
X140177630Y-106593629D01*
X140385512Y-106679949D01*
X140179697Y-106764990D01*
X139786371Y-107157630D01*
X139772930Y-107190000D01*
X135817463Y-107190000D01*
X135785327Y-107157808D01*
X135441799Y-107015162D01*
X135069833Y-107014838D01*
X134726057Y-107156883D01*
X134462808Y-107419673D01*
X134320162Y-107763201D01*
X134319838Y-108135167D01*
X132610865Y-108135167D01*
X132584090Y-108093559D01*
X132371890Y-107948569D01*
X132120000Y-107897560D01*
X130770000Y-107897560D01*
X130534683Y-107941838D01*
X130318559Y-108080910D01*
X130173569Y-108293110D01*
X130122560Y-108545000D01*
X130122560Y-109895000D01*
X130166838Y-110130317D01*
X130305910Y-110346441D01*
X130410177Y-110417683D01*
X130209054Y-110718685D01*
X130109336Y-111220000D01*
X111200000Y-111220000D01*
X111200000Y-109102532D01*
X123487073Y-109102532D01*
X123585736Y-109369387D01*
X124195461Y-109595908D01*
X124845460Y-109571856D01*
X125334264Y-109369387D01*
X125432927Y-109102532D01*
X124460000Y-108129605D01*
X123487073Y-109102532D01*
X111200000Y-109102532D01*
X111200000Y-105951638D01*
X116644526Y-105951638D01*
X117060028Y-106957229D01*
X117828724Y-107727268D01*
X118833588Y-108144524D01*
X119921638Y-108145474D01*
X120927229Y-107729972D01*
X120971817Y-107685461D01*
X122814092Y-107685461D01*
X122838144Y-108335460D01*
X123040613Y-108824264D01*
X123307468Y-108922927D01*
X124280395Y-107950000D01*
X124639605Y-107950000D01*
X125612532Y-108922927D01*
X125879387Y-108824264D01*
X126105908Y-108214539D01*
X126081856Y-107564540D01*
X125879387Y-107075736D01*
X125612532Y-106977073D01*
X124639605Y-107950000D01*
X124280395Y-107950000D01*
X123307468Y-106977073D01*
X123040613Y-107075736D01*
X122814092Y-107685461D01*
X120971817Y-107685461D01*
X121697268Y-106961276D01*
X121765287Y-106797468D01*
X123487073Y-106797468D01*
X124460000Y-107770395D01*
X125432927Y-106797468D01*
X125334264Y-106530613D01*
X124724539Y-106304092D01*
X124074540Y-106328144D01*
X123585736Y-106530613D01*
X123487073Y-106797468D01*
X121765287Y-106797468D01*
X122114524Y-105956412D01*
X122115474Y-104868362D01*
X121699972Y-103862771D01*
X120931276Y-103092732D01*
X119926412Y-102675476D01*
X118838362Y-102674526D01*
X117832771Y-103090028D01*
X117062732Y-103858724D01*
X116645476Y-104863588D01*
X116644526Y-105951638D01*
X111200000Y-105951638D01*
X111200000Y-101923795D01*
X120284716Y-101923795D01*
X120533106Y-102524943D01*
X120992637Y-102985278D01*
X121593352Y-103234716D01*
X122243795Y-103235284D01*
X122844943Y-102986894D01*
X123305278Y-102527363D01*
X123554716Y-101926648D01*
X123555284Y-101276205D01*
X123541011Y-101241661D01*
X128777758Y-101241661D01*
X128989990Y-101755303D01*
X129382630Y-102148629D01*
X129895900Y-102361757D01*
X130451661Y-102362242D01*
X130965303Y-102150010D01*
X131358629Y-101757370D01*
X131444949Y-101549488D01*
X131529990Y-101755303D01*
X131922630Y-102148629D01*
X132435900Y-102361757D01*
X132991661Y-102362242D01*
X133505303Y-102150010D01*
X133898629Y-101757370D01*
X133984949Y-101549488D01*
X134069990Y-101755303D01*
X134462630Y-102148629D01*
X134975900Y-102361757D01*
X135531661Y-102362242D01*
X136045303Y-102150010D01*
X136438629Y-101757370D01*
X136524949Y-101549488D01*
X136609990Y-101755303D01*
X137002630Y-102148629D01*
X137515900Y-102361757D01*
X138071661Y-102362242D01*
X138585303Y-102150010D01*
X138978629Y-101757370D01*
X139191757Y-101244100D01*
X139192242Y-100688339D01*
X138980010Y-100174697D01*
X138587370Y-99781371D01*
X138074100Y-99568243D01*
X137518339Y-99567758D01*
X137004697Y-99779990D01*
X136611371Y-100172630D01*
X136525051Y-100380512D01*
X136440010Y-100174697D01*
X136047370Y-99781371D01*
X135534100Y-99568243D01*
X134978339Y-99567758D01*
X134464697Y-99779990D01*
X134071371Y-100172630D01*
X133985051Y-100380512D01*
X133900010Y-100174697D01*
X133507370Y-99781371D01*
X132994100Y-99568243D01*
X132438339Y-99567758D01*
X131924697Y-99779990D01*
X131531371Y-100172630D01*
X131445051Y-100380512D01*
X131360010Y-100174697D01*
X130967370Y-99781371D01*
X130454100Y-99568243D01*
X129898339Y-99567758D01*
X129384697Y-99779990D01*
X128991371Y-100172630D01*
X128778243Y-100685900D01*
X128777758Y-101241661D01*
X123541011Y-101241661D01*
X123306894Y-100675057D01*
X122847363Y-100214722D01*
X122246648Y-99965284D01*
X121596205Y-99964716D01*
X120995057Y-100213106D01*
X120534722Y-100672637D01*
X120285284Y-101273352D01*
X120284716Y-101923795D01*
X111200000Y-101923795D01*
X111200000Y-93621661D01*
X128777758Y-93621661D01*
X128989990Y-94135303D01*
X129382630Y-94528629D01*
X129895900Y-94741757D01*
X130451661Y-94742242D01*
X130965303Y-94530010D01*
X131170457Y-94325213D01*
X131914392Y-94325213D01*
X131983857Y-94567397D01*
X132507302Y-94754144D01*
X133062368Y-94726362D01*
X133446143Y-94567397D01*
X133515608Y-94325213D01*
X132715000Y-93524605D01*
X131914392Y-94325213D01*
X131170457Y-94325213D01*
X131358629Y-94137370D01*
X131438395Y-93945273D01*
X131492603Y-94076143D01*
X131734787Y-94145608D01*
X132535395Y-93345000D01*
X132894605Y-93345000D01*
X133695213Y-94145608D01*
X133937397Y-94076143D01*
X133987509Y-93935682D01*
X134069990Y-94135303D01*
X134462630Y-94528629D01*
X134975900Y-94741757D01*
X135531661Y-94742242D01*
X136045303Y-94530010D01*
X136250457Y-94325213D01*
X136994392Y-94325213D01*
X137063857Y-94567397D01*
X137587302Y-94754144D01*
X138142368Y-94726362D01*
X138526143Y-94567397D01*
X138595608Y-94325213D01*
X137795000Y-93524605D01*
X136994392Y-94325213D01*
X136250457Y-94325213D01*
X136438629Y-94137370D01*
X136518395Y-93945273D01*
X136572603Y-94076143D01*
X136814787Y-94145608D01*
X137615395Y-93345000D01*
X137974605Y-93345000D01*
X138775213Y-94145608D01*
X139017397Y-94076143D01*
X139204144Y-93552698D01*
X139176362Y-92997632D01*
X139017397Y-92613857D01*
X138775213Y-92544392D01*
X137974605Y-93345000D01*
X137615395Y-93345000D01*
X136814787Y-92544392D01*
X136572603Y-92613857D01*
X136522491Y-92754318D01*
X136440010Y-92554697D01*
X136250432Y-92364787D01*
X136994392Y-92364787D01*
X137795000Y-93165395D01*
X138595608Y-92364787D01*
X138526143Y-92122603D01*
X138002698Y-91935856D01*
X137447632Y-91963638D01*
X137063857Y-92122603D01*
X136994392Y-92364787D01*
X136250432Y-92364787D01*
X136047370Y-92161371D01*
X135534100Y-91948243D01*
X134978339Y-91947758D01*
X134464697Y-92159990D01*
X134071371Y-92552630D01*
X133991605Y-92744727D01*
X133937397Y-92613857D01*
X133695213Y-92544392D01*
X132894605Y-93345000D01*
X132535395Y-93345000D01*
X131734787Y-92544392D01*
X131492603Y-92613857D01*
X131442491Y-92754318D01*
X131360010Y-92554697D01*
X131170432Y-92364787D01*
X131914392Y-92364787D01*
X132715000Y-93165395D01*
X133515608Y-92364787D01*
X133446143Y-92122603D01*
X132922698Y-91935856D01*
X132367632Y-91963638D01*
X131983857Y-92122603D01*
X131914392Y-92364787D01*
X131170432Y-92364787D01*
X130967370Y-92161371D01*
X130454100Y-91948243D01*
X129898339Y-91947758D01*
X129384697Y-92159990D01*
X128991371Y-92552630D01*
X128778243Y-93065900D01*
X128777758Y-93621661D01*
X111200000Y-93621661D01*
X111200000Y-91322532D01*
X123487073Y-91322532D01*
X123585736Y-91589387D01*
X124195461Y-91815908D01*
X124845460Y-91791856D01*
X125334264Y-91589387D01*
X125432927Y-91322532D01*
X124460000Y-90349605D01*
X123487073Y-91322532D01*
X111200000Y-91322532D01*
X111200000Y-88171638D01*
X116644526Y-88171638D01*
X117060028Y-89177229D01*
X117828724Y-89947268D01*
X118833588Y-90364524D01*
X119921638Y-90365474D01*
X120927229Y-89949972D01*
X120971817Y-89905461D01*
X122814092Y-89905461D01*
X122838144Y-90555460D01*
X123040613Y-91044264D01*
X123307468Y-91142927D01*
X124280395Y-90170000D01*
X124639605Y-90170000D01*
X125612532Y-91142927D01*
X125879387Y-91044264D01*
X126105908Y-90434539D01*
X126081856Y-89784540D01*
X125879387Y-89295736D01*
X125612532Y-89197073D01*
X124639605Y-90170000D01*
X124280395Y-90170000D01*
X123307468Y-89197073D01*
X123040613Y-89295736D01*
X122814092Y-89905461D01*
X120971817Y-89905461D01*
X121697268Y-89181276D01*
X121765287Y-89017468D01*
X123487073Y-89017468D01*
X124460000Y-89990395D01*
X125432927Y-89017468D01*
X125334264Y-88750613D01*
X124724539Y-88524092D01*
X124074540Y-88548144D01*
X123585736Y-88750613D01*
X123487073Y-89017468D01*
X121765287Y-89017468D01*
X122114524Y-88176412D01*
X122115474Y-87088362D01*
X121699972Y-86082771D01*
X120931276Y-85312732D01*
X119926412Y-84895476D01*
X118838362Y-84894526D01*
X117832771Y-85310028D01*
X117062732Y-86078724D01*
X116645476Y-87083588D01*
X116644526Y-88171638D01*
X111200000Y-88171638D01*
X111200000Y-84143795D01*
X120284716Y-84143795D01*
X120533106Y-84744943D01*
X120992637Y-85205278D01*
X121593352Y-85454716D01*
X122243795Y-85455284D01*
X122844943Y-85206894D01*
X123305278Y-84747363D01*
X123554716Y-84146648D01*
X123555284Y-83496205D01*
X123306894Y-82895057D01*
X122847363Y-82434722D01*
X122246648Y-82185284D01*
X121596205Y-82184716D01*
X120995057Y-82433106D01*
X120534722Y-82892637D01*
X120285284Y-83493352D01*
X120284716Y-84143795D01*
X111200000Y-84143795D01*
X111200000Y-74480167D01*
X129874838Y-74480167D01*
X130016883Y-74823943D01*
X130050000Y-74857118D01*
X130050000Y-84527537D01*
X130017808Y-84559673D01*
X129875162Y-84903201D01*
X129874838Y-85275167D01*
X130016883Y-85618943D01*
X130279673Y-85882192D01*
X130623201Y-86024838D01*
X130995167Y-86025162D01*
X131338943Y-85883117D01*
X131349379Y-85872699D01*
X131377852Y-86015839D01*
X131542599Y-86262401D01*
X135589878Y-90309680D01*
X135589838Y-90355167D01*
X135731883Y-90698943D01*
X135994673Y-90962192D01*
X136338201Y-91104838D01*
X136710167Y-91105162D01*
X137053943Y-90963117D01*
X137317192Y-90700327D01*
X137459838Y-90356799D01*
X137460162Y-89984833D01*
X137318117Y-89641057D01*
X137055327Y-89377808D01*
X136711799Y-89235162D01*
X136664923Y-89235121D01*
X136629894Y-89200092D01*
X136710167Y-89200162D01*
X137053943Y-89058117D01*
X137317192Y-88795327D01*
X137459838Y-88451799D01*
X137460162Y-88079833D01*
X137318117Y-87736057D01*
X137055327Y-87472808D01*
X136711799Y-87330162D01*
X136664923Y-87330121D01*
X134110000Y-84775198D01*
X134110000Y-74857463D01*
X134142192Y-74825327D01*
X134184971Y-74722302D01*
X139560856Y-74722302D01*
X139588638Y-75277368D01*
X139747603Y-75661143D01*
X139989787Y-75730608D01*
X140790395Y-74930000D01*
X141149605Y-74930000D01*
X141950213Y-75730608D01*
X142192397Y-75661143D01*
X142379144Y-75137698D01*
X142351362Y-74582632D01*
X142192397Y-74198857D01*
X141950213Y-74129392D01*
X141149605Y-74930000D01*
X140790395Y-74930000D01*
X139989787Y-74129392D01*
X139747603Y-74198857D01*
X139560856Y-74722302D01*
X134184971Y-74722302D01*
X134284838Y-74481799D01*
X134285162Y-74109833D01*
X134143117Y-73766057D01*
X133880327Y-73502808D01*
X133536799Y-73360162D01*
X133164833Y-73359838D01*
X132821057Y-73501883D01*
X132715046Y-73607710D01*
X132610327Y-73502808D01*
X132266799Y-73360162D01*
X131894833Y-73359838D01*
X131551057Y-73501883D01*
X131445046Y-73607710D01*
X131340327Y-73502808D01*
X130996799Y-73360162D01*
X130624833Y-73359838D01*
X130281057Y-73501883D01*
X130017808Y-73764673D01*
X129875162Y-74108201D01*
X129874838Y-74480167D01*
X111200000Y-74480167D01*
X111200000Y-73542532D01*
X123487073Y-73542532D01*
X123585736Y-73809387D01*
X124195461Y-74035908D01*
X124845460Y-74011856D01*
X125334264Y-73809387D01*
X125432927Y-73542532D01*
X124460000Y-72569605D01*
X123487073Y-73542532D01*
X111200000Y-73542532D01*
X111200000Y-70391638D01*
X116644526Y-70391638D01*
X117060028Y-71397229D01*
X117828724Y-72167268D01*
X118833588Y-72584524D01*
X119921638Y-72585474D01*
X120927229Y-72169972D01*
X120971817Y-72125461D01*
X122814092Y-72125461D01*
X122838144Y-72775460D01*
X123040613Y-73264264D01*
X123307468Y-73362927D01*
X124280395Y-72390000D01*
X124639605Y-72390000D01*
X125612532Y-73362927D01*
X125879387Y-73264264D01*
X126105908Y-72654539D01*
X126081856Y-72004540D01*
X125879387Y-71515736D01*
X125612532Y-71417073D01*
X124639605Y-72390000D01*
X124280395Y-72390000D01*
X123307468Y-71417073D01*
X123040613Y-71515736D01*
X122814092Y-72125461D01*
X120971817Y-72125461D01*
X121697268Y-71401276D01*
X121765287Y-71237468D01*
X123487073Y-71237468D01*
X124460000Y-72210395D01*
X125432927Y-71237468D01*
X125334264Y-70970613D01*
X124724539Y-70744092D01*
X124074540Y-70768144D01*
X123585736Y-70970613D01*
X123487073Y-71237468D01*
X121765287Y-71237468D01*
X122114524Y-70396412D01*
X122115474Y-69308362D01*
X121725685Y-68365000D01*
X128042560Y-68365000D01*
X128042560Y-70065000D01*
X128086838Y-70300317D01*
X128225910Y-70516441D01*
X128438110Y-70661431D01*
X128690000Y-70712440D01*
X130390000Y-70712440D01*
X130625317Y-70668162D01*
X130841441Y-70529090D01*
X130986431Y-70316890D01*
X131000086Y-70249459D01*
X131029946Y-70294147D01*
X131511715Y-70616054D01*
X132080000Y-70729093D01*
X132648285Y-70616054D01*
X133130054Y-70294147D01*
X133350000Y-69964974D01*
X133569946Y-70294147D01*
X134051715Y-70616054D01*
X134620000Y-70729093D01*
X135188285Y-70616054D01*
X135670054Y-70294147D01*
X135897702Y-69953447D01*
X135964817Y-70096358D01*
X136393076Y-70486645D01*
X136803110Y-70656476D01*
X137033000Y-70535155D01*
X137033000Y-69342000D01*
X137287000Y-69342000D01*
X137287000Y-70535155D01*
X137516890Y-70656476D01*
X137926924Y-70486645D01*
X138355183Y-70096358D01*
X138601486Y-69571892D01*
X138480819Y-69342000D01*
X137287000Y-69342000D01*
X137033000Y-69342000D01*
X137013000Y-69342000D01*
X137013000Y-69088000D01*
X137033000Y-69088000D01*
X137033000Y-67894845D01*
X137287000Y-67894845D01*
X137287000Y-69088000D01*
X138480819Y-69088000D01*
X138601486Y-68858108D01*
X138355183Y-68333642D01*
X137926924Y-67943355D01*
X137516890Y-67773524D01*
X137287000Y-67894845D01*
X137033000Y-67894845D01*
X136803110Y-67773524D01*
X136393076Y-67943355D01*
X135964817Y-68333642D01*
X135897702Y-68476553D01*
X135670054Y-68135853D01*
X135188285Y-67813946D01*
X134620000Y-67700907D01*
X134051715Y-67813946D01*
X133569946Y-68135853D01*
X133350000Y-68465026D01*
X133130054Y-68135853D01*
X132648285Y-67813946D01*
X132080000Y-67700907D01*
X131511715Y-67813946D01*
X131029946Y-68135853D01*
X131002150Y-68177452D01*
X130993162Y-68129683D01*
X130854090Y-67913559D01*
X130641890Y-67768569D01*
X130390000Y-67717560D01*
X128690000Y-67717560D01*
X128454683Y-67761838D01*
X128238559Y-67900910D01*
X128093569Y-68113110D01*
X128042560Y-68365000D01*
X121725685Y-68365000D01*
X121699972Y-68302771D01*
X120931276Y-67532732D01*
X119926412Y-67115476D01*
X118838362Y-67114526D01*
X117832771Y-67530028D01*
X117062732Y-68298724D01*
X116645476Y-69303588D01*
X116644526Y-70391638D01*
X111200000Y-70391638D01*
X111200000Y-66363795D01*
X120284716Y-66363795D01*
X120533106Y-66964943D01*
X120992637Y-67425278D01*
X121593352Y-67674716D01*
X122243795Y-67675284D01*
X122844943Y-67426894D01*
X123305278Y-66967363D01*
X123554716Y-66366648D01*
X123555284Y-65716205D01*
X123306894Y-65115057D01*
X122847363Y-64654722D01*
X122246648Y-64405284D01*
X121596205Y-64404716D01*
X120995057Y-64653106D01*
X120534722Y-65112637D01*
X120285284Y-65713352D01*
X120284716Y-66363795D01*
X111200000Y-66363795D01*
X111200000Y-62506661D01*
X139572758Y-62506661D01*
X139784990Y-63020303D01*
X140177630Y-63413629D01*
X140385512Y-63499949D01*
X140179697Y-63584990D01*
X139786371Y-63977630D01*
X139573243Y-64490900D01*
X139572758Y-65046661D01*
X139784990Y-65560303D01*
X140177630Y-65953629D01*
X140385512Y-66039949D01*
X140179697Y-66124990D01*
X139786371Y-66517630D01*
X139573243Y-67030900D01*
X139572758Y-67586661D01*
X139784990Y-68100303D01*
X140177630Y-68493629D01*
X140385512Y-68579949D01*
X140179697Y-68664990D01*
X139786371Y-69057630D01*
X139573243Y-69570900D01*
X139572758Y-70126661D01*
X139784990Y-70640303D01*
X140177630Y-71033629D01*
X140385512Y-71119949D01*
X140179697Y-71204990D01*
X139786371Y-71597630D01*
X139573243Y-72110900D01*
X139572758Y-72666661D01*
X139784990Y-73180303D01*
X140177630Y-73573629D01*
X140369727Y-73653395D01*
X140238857Y-73707603D01*
X140169392Y-73949787D01*
X140970000Y-74750395D01*
X141770608Y-73949787D01*
X141701143Y-73707603D01*
X141560682Y-73657491D01*
X141760303Y-73575010D01*
X142153629Y-73182370D01*
X142366757Y-72669100D01*
X142367210Y-72150000D01*
X144198071Y-72150000D01*
X144333946Y-72833090D01*
X144720885Y-73412186D01*
X145299981Y-73799125D01*
X145983071Y-73935000D01*
X146256929Y-73935000D01*
X146940019Y-73799125D01*
X147519115Y-73412186D01*
X147906054Y-72833090D01*
X148041929Y-72150000D01*
X155628071Y-72150000D01*
X155763946Y-72833090D01*
X156150885Y-73412186D01*
X156729981Y-73799125D01*
X157413071Y-73935000D01*
X157686929Y-73935000D01*
X158370019Y-73799125D01*
X158949115Y-73412186D01*
X159336054Y-72833090D01*
X159471929Y-72150000D01*
X159434058Y-71959610D01*
X159813071Y-72035000D01*
X160086929Y-72035000D01*
X160770019Y-71899125D01*
X161349115Y-71512186D01*
X161736054Y-70933090D01*
X161871929Y-70250000D01*
X161736054Y-69566910D01*
X161349115Y-68987814D01*
X160770019Y-68600875D01*
X160086929Y-68465000D01*
X159813071Y-68465000D01*
X159129981Y-68600875D01*
X158550885Y-68987814D01*
X158163946Y-69566910D01*
X158028071Y-70250000D01*
X158065942Y-70440390D01*
X157686929Y-70365000D01*
X157413071Y-70365000D01*
X156729981Y-70500875D01*
X156150885Y-70887814D01*
X155763946Y-71466910D01*
X155628071Y-72150000D01*
X148041929Y-72150000D01*
X148004058Y-71959610D01*
X148383071Y-72035000D01*
X148656929Y-72035000D01*
X149340019Y-71899125D01*
X149919115Y-71512186D01*
X150306054Y-70933090D01*
X150441929Y-70250000D01*
X150306054Y-69566910D01*
X149919115Y-68987814D01*
X149340019Y-68600875D01*
X148656929Y-68465000D01*
X148383071Y-68465000D01*
X147699981Y-68600875D01*
X147120885Y-68987814D01*
X146733946Y-69566910D01*
X146598071Y-70250000D01*
X146635942Y-70440390D01*
X146256929Y-70365000D01*
X145983071Y-70365000D01*
X145299981Y-70500875D01*
X144720885Y-70887814D01*
X144333946Y-71466910D01*
X144198071Y-72150000D01*
X142367210Y-72150000D01*
X142367242Y-72113339D01*
X142155010Y-71599697D01*
X141762370Y-71206371D01*
X141554488Y-71120051D01*
X141760303Y-71035010D01*
X142153629Y-70642370D01*
X142366757Y-70129100D01*
X142367242Y-69573339D01*
X142155010Y-69059697D01*
X141762370Y-68666371D01*
X141554488Y-68580051D01*
X141760303Y-68495010D01*
X142153629Y-68102370D01*
X142366757Y-67589100D01*
X142367242Y-67033339D01*
X142321777Y-66923305D01*
X144434674Y-66923305D01*
X144721043Y-67616372D01*
X145250839Y-68147093D01*
X145943405Y-68434672D01*
X146693305Y-68435326D01*
X147386372Y-68148957D01*
X147917093Y-67619161D01*
X148204672Y-66926595D01*
X148204674Y-66923305D01*
X155864674Y-66923305D01*
X156151043Y-67616372D01*
X156680839Y-68147093D01*
X157373405Y-68434672D01*
X158123305Y-68435326D01*
X158816372Y-68148957D01*
X159347093Y-67619161D01*
X159634672Y-66926595D01*
X159635326Y-66176695D01*
X159538092Y-65941372D01*
X160175435Y-65924250D01*
X160774467Y-65676123D01*
X160903715Y-65383320D01*
X159750000Y-64229605D01*
X159735858Y-64243748D01*
X159556253Y-64064143D01*
X159570395Y-64050000D01*
X159929605Y-64050000D01*
X161083320Y-65203715D01*
X161376123Y-65074467D01*
X161644388Y-64374194D01*
X161624250Y-63624565D01*
X161376123Y-63025533D01*
X161083320Y-62896285D01*
X159929605Y-64050000D01*
X159570395Y-64050000D01*
X158416680Y-62896285D01*
X158123877Y-63025533D01*
X157855612Y-63725806D01*
X157875750Y-64475435D01*
X157954344Y-64665178D01*
X157376695Y-64664674D01*
X156683628Y-64951043D01*
X156152907Y-65480839D01*
X155865328Y-66173405D01*
X155864674Y-66923305D01*
X148204674Y-66923305D01*
X148205326Y-66176695D01*
X148108092Y-65941372D01*
X148745435Y-65924250D01*
X149344467Y-65676123D01*
X149473715Y-65383320D01*
X148320000Y-64229605D01*
X148305858Y-64243748D01*
X148126253Y-64064143D01*
X148140395Y-64050000D01*
X148499605Y-64050000D01*
X149653320Y-65203715D01*
X149946123Y-65074467D01*
X150214388Y-64374194D01*
X150194250Y-63624565D01*
X149946123Y-63025533D01*
X149653320Y-62896285D01*
X148499605Y-64050000D01*
X148140395Y-64050000D01*
X146986680Y-62896285D01*
X146693877Y-63025533D01*
X146425612Y-63725806D01*
X146445750Y-64475435D01*
X146524344Y-64665178D01*
X145946695Y-64664674D01*
X145253628Y-64951043D01*
X144722907Y-65480839D01*
X144435328Y-66173405D01*
X144434674Y-66923305D01*
X142321777Y-66923305D01*
X142155010Y-66519697D01*
X141762370Y-66126371D01*
X141554488Y-66040051D01*
X141760303Y-65955010D01*
X142153629Y-65562370D01*
X142366757Y-65049100D01*
X142367242Y-64493339D01*
X142155010Y-63979697D01*
X141762370Y-63586371D01*
X141554488Y-63500051D01*
X141760303Y-63415010D01*
X142153629Y-63022370D01*
X142280562Y-62716680D01*
X147166285Y-62716680D01*
X148320000Y-63870395D01*
X149473715Y-62716680D01*
X158596285Y-62716680D01*
X159750000Y-63870395D01*
X160903715Y-62716680D01*
X160811010Y-62506661D01*
X164972758Y-62506661D01*
X165184990Y-63020303D01*
X165577630Y-63413629D01*
X165785512Y-63499949D01*
X165579697Y-63584990D01*
X165186371Y-63977630D01*
X164973243Y-64490900D01*
X164972758Y-65046661D01*
X165184990Y-65560303D01*
X165577630Y-65953629D01*
X165785512Y-66039949D01*
X165579697Y-66124990D01*
X165186371Y-66517630D01*
X164973243Y-67030900D01*
X164972758Y-67586661D01*
X165184990Y-68100303D01*
X165577630Y-68493629D01*
X165785512Y-68579949D01*
X165579697Y-68664990D01*
X165186371Y-69057630D01*
X164973243Y-69570900D01*
X164972758Y-70126661D01*
X165184990Y-70640303D01*
X165577630Y-71033629D01*
X165785512Y-71119949D01*
X165579697Y-71204990D01*
X165186371Y-71597630D01*
X164973243Y-72110900D01*
X164972758Y-72666661D01*
X165184990Y-73180303D01*
X165577630Y-73573629D01*
X165785512Y-73659949D01*
X165579697Y-73744990D01*
X165186371Y-74137630D01*
X164973243Y-74650900D01*
X164972758Y-75206661D01*
X165184990Y-75720303D01*
X165577630Y-76113629D01*
X165785512Y-76199949D01*
X165579697Y-76284990D01*
X165186371Y-76677630D01*
X164973243Y-77190900D01*
X164972758Y-77746661D01*
X165184990Y-78260303D01*
X165577630Y-78653629D01*
X165785512Y-78739949D01*
X165579697Y-78824990D01*
X165186371Y-79217630D01*
X164973243Y-79730900D01*
X164972758Y-80286661D01*
X165184990Y-80800303D01*
X165577630Y-81193629D01*
X165785512Y-81279949D01*
X165579697Y-81364990D01*
X165186371Y-81757630D01*
X164973243Y-82270900D01*
X164972758Y-82826661D01*
X165184990Y-83340303D01*
X165577630Y-83733629D01*
X165785512Y-83819949D01*
X165579697Y-83904990D01*
X165186371Y-84297630D01*
X164973243Y-84810900D01*
X164972758Y-85366661D01*
X165184990Y-85880303D01*
X165577630Y-86273629D01*
X165785512Y-86359949D01*
X165579697Y-86444990D01*
X165186371Y-86837630D01*
X164973243Y-87350900D01*
X164972758Y-87906661D01*
X165184990Y-88420303D01*
X165577630Y-88813629D01*
X165785512Y-88899949D01*
X165579697Y-88984990D01*
X165186371Y-89377630D01*
X164973243Y-89890900D01*
X164972758Y-90446661D01*
X165184990Y-90960303D01*
X165577630Y-91353629D01*
X165769727Y-91433395D01*
X165638857Y-91487603D01*
X165569392Y-91729787D01*
X166370000Y-92530395D01*
X167136600Y-91763795D01*
X172354716Y-91763795D01*
X172603106Y-92364943D01*
X173062637Y-92825278D01*
X173663352Y-93074716D01*
X174313795Y-93075284D01*
X174914943Y-92826894D01*
X175375278Y-92367363D01*
X175624716Y-91766648D01*
X175625284Y-91116205D01*
X175376894Y-90515057D01*
X174917363Y-90054722D01*
X174316648Y-89805284D01*
X173666205Y-89804716D01*
X173065057Y-90053106D01*
X172604722Y-90512637D01*
X172355284Y-91113352D01*
X172354716Y-91763795D01*
X167136600Y-91763795D01*
X167170608Y-91729787D01*
X167101143Y-91487603D01*
X166960682Y-91437491D01*
X167160303Y-91355010D01*
X167553629Y-90962370D01*
X167766757Y-90449100D01*
X167767242Y-89893339D01*
X167555010Y-89379697D01*
X167162370Y-88986371D01*
X166954488Y-88900051D01*
X167160303Y-88815010D01*
X167553629Y-88422370D01*
X167657741Y-88171638D01*
X173794526Y-88171638D01*
X174210028Y-89177229D01*
X174978724Y-89947268D01*
X175983588Y-90364524D01*
X177071638Y-90365474D01*
X178077229Y-89949972D01*
X178847268Y-89181276D01*
X179264524Y-88176412D01*
X179265474Y-87088362D01*
X178849972Y-86082771D01*
X178081276Y-85312732D01*
X177076412Y-84895476D01*
X175988362Y-84894526D01*
X174982771Y-85310028D01*
X174212732Y-86078724D01*
X173795476Y-87083588D01*
X173794526Y-88171638D01*
X167657741Y-88171638D01*
X167766757Y-87909100D01*
X167767242Y-87353339D01*
X167555010Y-86839697D01*
X167162370Y-86446371D01*
X166954488Y-86360051D01*
X167160303Y-86275010D01*
X167192837Y-86242532D01*
X170477073Y-86242532D01*
X170575736Y-86509387D01*
X171185461Y-86735908D01*
X171835460Y-86711856D01*
X172324264Y-86509387D01*
X172422927Y-86242532D01*
X171450000Y-85269605D01*
X170477073Y-86242532D01*
X167192837Y-86242532D01*
X167553629Y-85882370D01*
X167766757Y-85369100D01*
X167767231Y-84825461D01*
X169804092Y-84825461D01*
X169828144Y-85475460D01*
X170030613Y-85964264D01*
X170297468Y-86062927D01*
X171270395Y-85090000D01*
X171629605Y-85090000D01*
X172602532Y-86062927D01*
X172869387Y-85964264D01*
X173095908Y-85354539D01*
X173071856Y-84704540D01*
X172869387Y-84215736D01*
X172602532Y-84117073D01*
X171629605Y-85090000D01*
X171270395Y-85090000D01*
X170297468Y-84117073D01*
X170030613Y-84215736D01*
X169804092Y-84825461D01*
X167767231Y-84825461D01*
X167767242Y-84813339D01*
X167555010Y-84299697D01*
X167193413Y-83937468D01*
X170477073Y-83937468D01*
X171450000Y-84910395D01*
X172422927Y-83937468D01*
X172324264Y-83670613D01*
X171714539Y-83444092D01*
X171064540Y-83468144D01*
X170575736Y-83670613D01*
X170477073Y-83937468D01*
X167193413Y-83937468D01*
X167162370Y-83906371D01*
X166954488Y-83820051D01*
X167160303Y-83735010D01*
X167553629Y-83342370D01*
X167766757Y-82829100D01*
X167767242Y-82273339D01*
X167555010Y-81759697D01*
X167162370Y-81366371D01*
X166954488Y-81280051D01*
X167160303Y-81195010D01*
X167553629Y-80802370D01*
X167766757Y-80289100D01*
X167767242Y-79733339D01*
X167555010Y-79219697D01*
X167162370Y-78826371D01*
X166954488Y-78740051D01*
X167160303Y-78655010D01*
X167553629Y-78262370D01*
X167766757Y-77749100D01*
X167767242Y-77193339D01*
X167555010Y-76679697D01*
X167162370Y-76286371D01*
X166954488Y-76200051D01*
X167160303Y-76115010D01*
X167553629Y-75722370D01*
X167766757Y-75209100D01*
X167767242Y-74653339D01*
X167555010Y-74139697D01*
X167399380Y-73983795D01*
X172354716Y-73983795D01*
X172603106Y-74584943D01*
X173062637Y-75045278D01*
X173663352Y-75294716D01*
X174313795Y-75295284D01*
X174914943Y-75046894D01*
X175375278Y-74587363D01*
X175624716Y-73986648D01*
X175625284Y-73336205D01*
X175376894Y-72735057D01*
X174917363Y-72274722D01*
X174316648Y-72025284D01*
X173666205Y-72024716D01*
X173065057Y-72273106D01*
X172604722Y-72732637D01*
X172355284Y-73333352D01*
X172354716Y-73983795D01*
X167399380Y-73983795D01*
X167162370Y-73746371D01*
X166954488Y-73660051D01*
X167160303Y-73575010D01*
X167553629Y-73182370D01*
X167766757Y-72669100D01*
X167767242Y-72113339D01*
X167555010Y-71599697D01*
X167162370Y-71206371D01*
X166954488Y-71120051D01*
X167160303Y-71035010D01*
X167553629Y-70642370D01*
X167657741Y-70391638D01*
X173794526Y-70391638D01*
X174210028Y-71397229D01*
X174978724Y-72167268D01*
X175983588Y-72584524D01*
X177071638Y-72585474D01*
X178077229Y-72169972D01*
X178847268Y-71401276D01*
X179264524Y-70396412D01*
X179265474Y-69308362D01*
X178849972Y-68302771D01*
X178081276Y-67532732D01*
X177076412Y-67115476D01*
X175988362Y-67114526D01*
X174982771Y-67530028D01*
X174212732Y-68298724D01*
X173795476Y-69303588D01*
X173794526Y-70391638D01*
X167657741Y-70391638D01*
X167766757Y-70129100D01*
X167767242Y-69573339D01*
X167555010Y-69059697D01*
X167162370Y-68666371D01*
X166954488Y-68580051D01*
X167160303Y-68495010D01*
X167192837Y-68462532D01*
X170477073Y-68462532D01*
X170575736Y-68729387D01*
X171185461Y-68955908D01*
X171835460Y-68931856D01*
X172324264Y-68729387D01*
X172422927Y-68462532D01*
X171450000Y-67489605D01*
X170477073Y-68462532D01*
X167192837Y-68462532D01*
X167553629Y-68102370D01*
X167766757Y-67589100D01*
X167767231Y-67045461D01*
X169804092Y-67045461D01*
X169828144Y-67695460D01*
X170030613Y-68184264D01*
X170297468Y-68282927D01*
X171270395Y-67310000D01*
X171629605Y-67310000D01*
X172602532Y-68282927D01*
X172869387Y-68184264D01*
X173095908Y-67574539D01*
X173071856Y-66924540D01*
X172869387Y-66435736D01*
X172602532Y-66337073D01*
X171629605Y-67310000D01*
X171270395Y-67310000D01*
X170297468Y-66337073D01*
X170030613Y-66435736D01*
X169804092Y-67045461D01*
X167767231Y-67045461D01*
X167767242Y-67033339D01*
X167555010Y-66519697D01*
X167193413Y-66157468D01*
X170477073Y-66157468D01*
X171450000Y-67130395D01*
X172422927Y-66157468D01*
X172324264Y-65890613D01*
X171714539Y-65664092D01*
X171064540Y-65688144D01*
X170575736Y-65890613D01*
X170477073Y-66157468D01*
X167193413Y-66157468D01*
X167162370Y-66126371D01*
X166954488Y-66040051D01*
X167160303Y-65955010D01*
X167553629Y-65562370D01*
X167766757Y-65049100D01*
X167767242Y-64493339D01*
X167555010Y-63979697D01*
X167162370Y-63586371D01*
X166954488Y-63500051D01*
X167160303Y-63415010D01*
X167553629Y-63022370D01*
X167766757Y-62509100D01*
X167767242Y-61953339D01*
X167555010Y-61439697D01*
X167162370Y-61046371D01*
X166649100Y-60833243D01*
X166093339Y-60832758D01*
X165579697Y-61044990D01*
X165186371Y-61437630D01*
X164973243Y-61950900D01*
X164972758Y-62506661D01*
X160811010Y-62506661D01*
X160774467Y-62423877D01*
X160074194Y-62155612D01*
X159324565Y-62175750D01*
X158725533Y-62423877D01*
X158596285Y-62716680D01*
X149473715Y-62716680D01*
X149344467Y-62423877D01*
X148644194Y-62155612D01*
X147894565Y-62175750D01*
X147295533Y-62423877D01*
X147166285Y-62716680D01*
X142280562Y-62716680D01*
X142366757Y-62509100D01*
X142367242Y-61953339D01*
X142155010Y-61439697D01*
X141762370Y-61046371D01*
X141249100Y-60833243D01*
X140693339Y-60832758D01*
X140179697Y-61044990D01*
X139786371Y-61437630D01*
X139573243Y-61950900D01*
X139572758Y-62506661D01*
X111200000Y-62506661D01*
X111200000Y-60400000D01*
X184710000Y-60400000D01*
X184710000Y-151690000D01*
X184710000Y-151690000D01*
G37*
X184710000Y-151690000D02*
X133985000Y-151690000D01*
X133713295Y-151744046D01*
X133482954Y-151897954D01*
X133329046Y-152128295D01*
X133275000Y-152400000D01*
X133275000Y-160580000D01*
X132886211Y-160580000D01*
X132999716Y-160306648D01*
X133000284Y-159656205D01*
X132751894Y-159055057D01*
X132292363Y-158594722D01*
X131691648Y-158345284D01*
X131041205Y-158344716D01*
X130440057Y-158593106D01*
X129979722Y-159052637D01*
X129730284Y-159653352D01*
X129729716Y-160303795D01*
X129843842Y-160580000D01*
X122886211Y-160580000D01*
X122999716Y-160306648D01*
X123000284Y-159656205D01*
X122751894Y-159055057D01*
X122292363Y-158594722D01*
X121691648Y-158345284D01*
X121041205Y-158344716D01*
X120440057Y-158593106D01*
X119979722Y-159052637D01*
X119730284Y-159653352D01*
X119729716Y-160303795D01*
X119843842Y-160580000D01*
X119455000Y-160580000D01*
X119455000Y-152400000D01*
X119400954Y-152128295D01*
X119247046Y-151897954D01*
X119016705Y-151744046D01*
X118745000Y-151690000D01*
X111200000Y-151690000D01*
X111200000Y-150283991D01*
X120829735Y-150283991D01*
X121062932Y-150848371D01*
X121494357Y-151280551D01*
X122058330Y-151514733D01*
X122668991Y-151515265D01*
X123233371Y-151282068D01*
X123665551Y-150850643D01*
X123899733Y-150286670D01*
X123899735Y-150283991D01*
X124829735Y-150283991D01*
X125062932Y-150848371D01*
X125494357Y-151280551D01*
X126058330Y-151514733D01*
X126668991Y-151515265D01*
X127233371Y-151282068D01*
X127455668Y-151060159D01*
X129464446Y-151060159D01*
X129550852Y-151316643D01*
X130124336Y-151526458D01*
X130734460Y-151500839D01*
X131179148Y-151316643D01*
X131265554Y-151060159D01*
X130365000Y-150159605D01*
X129464446Y-151060159D01*
X127455668Y-151060159D01*
X127665551Y-150850643D01*
X127899733Y-150286670D01*
X127900209Y-149739336D01*
X128818542Y-149739336D01*
X128844161Y-150349460D01*
X129028357Y-150794148D01*
X129284841Y-150880554D01*
X130185395Y-149980000D01*
X130544605Y-149980000D01*
X131445159Y-150880554D01*
X131701643Y-150794148D01*
X131911458Y-150220664D01*
X131910146Y-150189402D01*
X155197080Y-150189402D01*
X155419651Y-150649540D01*
X155801367Y-150989478D01*
X156135600Y-151127910D01*
X156338000Y-151004224D01*
X156338000Y-149987000D01*
X155319910Y-149987000D01*
X155197080Y-150189402D01*
X131910146Y-150189402D01*
X131885839Y-149610540D01*
X131852726Y-149530598D01*
X155197080Y-149530598D01*
X155319910Y-149733000D01*
X156338000Y-149733000D01*
X156338000Y-148715776D01*
X156592000Y-148715776D01*
X156592000Y-149733000D01*
X156612000Y-149733000D01*
X156612000Y-149987000D01*
X156592000Y-149987000D01*
X156592000Y-151004224D01*
X156794400Y-151127910D01*
X157128633Y-150989478D01*
X157460072Y-150694314D01*
X157538690Y-150811974D01*
X157963685Y-151095946D01*
X158465000Y-151195664D01*
X158966315Y-151095946D01*
X159391310Y-150811974D01*
X159465000Y-150701689D01*
X159538690Y-150811974D01*
X159963685Y-151095946D01*
X160465000Y-151195664D01*
X160966315Y-151095946D01*
X161391310Y-150811974D01*
X161465000Y-150701689D01*
X161538690Y-150811974D01*
X161963685Y-151095946D01*
X162465000Y-151195664D01*
X162966315Y-151095946D01*
X163267064Y-150894992D01*
X163325910Y-150986441D01*
X163538110Y-151131431D01*
X163790000Y-151182440D01*
X165140000Y-151182440D01*
X165375317Y-151138162D01*
X165591441Y-150999090D01*
X165736431Y-150786890D01*
X165787440Y-150535000D01*
X165787440Y-149185000D01*
X165743162Y-148949683D01*
X165604090Y-148733559D01*
X165391890Y-148588569D01*
X165140000Y-148537560D01*
X163790000Y-148537560D01*
X163554683Y-148581838D01*
X163338559Y-148720910D01*
X163267317Y-148825177D01*
X162966315Y-148624054D01*
X162465000Y-148524336D01*
X161963685Y-148624054D01*
X161538690Y-148908026D01*
X161465000Y-149018311D01*
X161391310Y-148908026D01*
X160966315Y-148624054D01*
X160465000Y-148524336D01*
X159963685Y-148624054D01*
X159538690Y-148908026D01*
X159465000Y-149018311D01*
X159391310Y-148908026D01*
X158966315Y-148624054D01*
X158465000Y-148524336D01*
X157963685Y-148624054D01*
X157538690Y-148908026D01*
X157460072Y-149025686D01*
X157128633Y-148730522D01*
X156794400Y-148592090D01*
X156592000Y-148715776D01*
X156338000Y-148715776D01*
X156135600Y-148592090D01*
X155801367Y-148730522D01*
X155419651Y-149070460D01*
X155197080Y-149530598D01*
X131852726Y-149530598D01*
X131701643Y-149165852D01*
X131445159Y-149079446D01*
X130544605Y-149980000D01*
X130185395Y-149980000D01*
X129284841Y-149079446D01*
X129028357Y-149165852D01*
X128818542Y-149739336D01*
X127900209Y-149739336D01*
X127900265Y-149676009D01*
X127667068Y-149111629D01*
X127455650Y-148899841D01*
X129464446Y-148899841D01*
X130365000Y-149800395D01*
X131265554Y-148899841D01*
X131179148Y-148643357D01*
X130605664Y-148433542D01*
X129995540Y-148459161D01*
X129550852Y-148643357D01*
X129464446Y-148899841D01*
X127455650Y-148899841D01*
X127235643Y-148679449D01*
X126671670Y-148445267D01*
X126061009Y-148444735D01*
X125496629Y-148677932D01*
X125064449Y-149109357D01*
X124830267Y-149673330D01*
X124829735Y-150283991D01*
X123899735Y-150283991D01*
X123900265Y-149676009D01*
X123667068Y-149111629D01*
X123235643Y-148679449D01*
X122671670Y-148445267D01*
X122061009Y-148444735D01*
X121496629Y-148677932D01*
X121064449Y-149109357D01*
X120830267Y-149673330D01*
X120829735Y-150283991D01*
X111200000Y-150283991D01*
X111200000Y-146685000D01*
X128660907Y-146685000D01*
X128773946Y-147253285D01*
X129095853Y-147735054D01*
X129577622Y-148056961D01*
X130145907Y-148170000D01*
X130204093Y-148170000D01*
X130772378Y-148056961D01*
X131254147Y-147735054D01*
X131576054Y-147253285D01*
X131586149Y-147202532D01*
X142537073Y-147202532D01*
X142635736Y-147469387D01*
X143245461Y-147695908D01*
X143895460Y-147671856D01*
X144384264Y-147469387D01*
X144482927Y-147202532D01*
X143510000Y-146229605D01*
X142537073Y-147202532D01*
X131586149Y-147202532D01*
X131689093Y-146685000D01*
X131576054Y-146116715D01*
X131354718Y-145785461D01*
X141864092Y-145785461D01*
X141888144Y-146435460D01*
X142090613Y-146924264D01*
X142357468Y-147022927D01*
X143330395Y-146050000D01*
X143689605Y-146050000D01*
X144662532Y-147022927D01*
X144929387Y-146924264D01*
X145155908Y-146314539D01*
X145131856Y-145664540D01*
X144929387Y-145175736D01*
X144734808Y-145103795D01*
X172354716Y-145103795D01*
X172603106Y-145704943D01*
X173062637Y-146165278D01*
X173663352Y-146414716D01*
X174313795Y-146415284D01*
X174914943Y-146166894D01*
X175375278Y-145707363D01*
X175624716Y-145106648D01*
X175625284Y-144456205D01*
X175376894Y-143855057D01*
X174917363Y-143394722D01*
X174316648Y-143145284D01*
X173666205Y-143144716D01*
X173065057Y-143393106D01*
X172604722Y-143852637D01*
X172355284Y-144453352D01*
X172354716Y-145103795D01*
X144734808Y-145103795D01*
X144662532Y-145077073D01*
X143689605Y-146050000D01*
X143330395Y-146050000D01*
X142357468Y-145077073D01*
X142090613Y-145175736D01*
X141864092Y-145785461D01*
X131354718Y-145785461D01*
X131254147Y-145634946D01*
X131212548Y-145607150D01*
X131260317Y-145598162D01*
X131476441Y-145459090D01*
X131621431Y-145246890D01*
X131672440Y-144995000D01*
X131672440Y-143833795D01*
X135524716Y-143833795D01*
X135773106Y-144434943D01*
X136232637Y-144895278D01*
X136833352Y-145144716D01*
X137483795Y-145145284D01*
X138083553Y-144897468D01*
X142537073Y-144897468D01*
X143510000Y-145870395D01*
X144482927Y-144897468D01*
X144384264Y-144630613D01*
X143774539Y-144404092D01*
X143124540Y-144428144D01*
X142635736Y-144630613D01*
X142537073Y-144897468D01*
X138083553Y-144897468D01*
X138084943Y-144896894D01*
X138545278Y-144437363D01*
X138794716Y-143836648D01*
X138795284Y-143186205D01*
X138546894Y-142585057D01*
X138087363Y-142124722D01*
X137486648Y-141875284D01*
X136836205Y-141874716D01*
X136235057Y-142123106D01*
X135774722Y-142582637D01*
X135525284Y-143183352D01*
X135524716Y-143833795D01*
X131672440Y-143833795D01*
X131672440Y-143295000D01*
X131628162Y-143059683D01*
X131489090Y-142843559D01*
X131276890Y-142698569D01*
X131025000Y-142647560D01*
X129325000Y-142647560D01*
X129089683Y-142691838D01*
X128873559Y-142830910D01*
X128728569Y-143043110D01*
X128677560Y-143295000D01*
X128677560Y-144995000D01*
X128721838Y-145230317D01*
X128860910Y-145446441D01*
X129073110Y-145591431D01*
X129140541Y-145605086D01*
X129095853Y-145634946D01*
X128773946Y-146116715D01*
X128660907Y-146685000D01*
X111200000Y-146685000D01*
X111200000Y-144662532D01*
X123487073Y-144662532D01*
X123585736Y-144929387D01*
X124195461Y-145155908D01*
X124845460Y-145131856D01*
X125334264Y-144929387D01*
X125432927Y-144662532D01*
X124460000Y-143689605D01*
X123487073Y-144662532D01*
X111200000Y-144662532D01*
X111200000Y-141511638D01*
X116644526Y-141511638D01*
X117060028Y-142517229D01*
X117828724Y-143287268D01*
X118833588Y-143704524D01*
X119921638Y-143705474D01*
X120927229Y-143289972D01*
X120971817Y-143245461D01*
X122814092Y-143245461D01*
X122838144Y-143895460D01*
X123040613Y-144384264D01*
X123307468Y-144482927D01*
X124280395Y-143510000D01*
X124639605Y-143510000D01*
X125612532Y-144482927D01*
X125879387Y-144384264D01*
X126105908Y-143774539D01*
X126081856Y-143124540D01*
X125879387Y-142635736D01*
X125612532Y-142537073D01*
X124639605Y-143510000D01*
X124280395Y-143510000D01*
X123307468Y-142537073D01*
X123040613Y-142635736D01*
X122814092Y-143245461D01*
X120971817Y-143245461D01*
X121697268Y-142521276D01*
X121765287Y-142357468D01*
X123487073Y-142357468D01*
X124460000Y-143330395D01*
X125432927Y-142357468D01*
X125334264Y-142090613D01*
X124724539Y-141864092D01*
X124074540Y-141888144D01*
X123585736Y-142090613D01*
X123487073Y-142357468D01*
X121765287Y-142357468D01*
X122114524Y-141516412D01*
X122114528Y-141511638D01*
X138234526Y-141511638D01*
X138650028Y-142517229D01*
X139418724Y-143287268D01*
X140423588Y-143704524D01*
X141511638Y-143705474D01*
X142517229Y-143289972D01*
X143287268Y-142521276D01*
X143704524Y-141516412D01*
X143704528Y-141511638D01*
X173794526Y-141511638D01*
X174210028Y-142517229D01*
X174978724Y-143287268D01*
X175983588Y-143704524D01*
X177071638Y-143705474D01*
X178077229Y-143289972D01*
X178847268Y-142521276D01*
X179264524Y-141516412D01*
X179265474Y-140428362D01*
X178849972Y-139422771D01*
X178081276Y-138652732D01*
X177076412Y-138235476D01*
X175988362Y-138234526D01*
X174982771Y-138650028D01*
X174212732Y-139418724D01*
X173795476Y-140423588D01*
X173794526Y-141511638D01*
X143704528Y-141511638D01*
X143705474Y-140428362D01*
X143355984Y-139582532D01*
X170477073Y-139582532D01*
X170575736Y-139849387D01*
X171185461Y-140075908D01*
X171835460Y-140051856D01*
X172324264Y-139849387D01*
X172422927Y-139582532D01*
X171450000Y-138609605D01*
X170477073Y-139582532D01*
X143355984Y-139582532D01*
X143289972Y-139422771D01*
X142521276Y-138652732D01*
X141516412Y-138235476D01*
X140428362Y-138234526D01*
X139422771Y-138650028D01*
X138652732Y-139418724D01*
X138235476Y-140423588D01*
X138234526Y-141511638D01*
X122114528Y-141511638D01*
X122115474Y-140428362D01*
X121699972Y-139422771D01*
X120931276Y-138652732D01*
X119926412Y-138235476D01*
X118838362Y-138234526D01*
X117832771Y-138650028D01*
X117062732Y-139418724D01*
X116645476Y-140423588D01*
X116644526Y-141511638D01*
X111200000Y-141511638D01*
X111200000Y-137483795D01*
X120284716Y-137483795D01*
X120533106Y-138084943D01*
X120992637Y-138545278D01*
X121593352Y-138794716D01*
X122243795Y-138795284D01*
X122844943Y-138546894D01*
X123305278Y-138087363D01*
X123554716Y-137486648D01*
X123555188Y-136945000D01*
X128677560Y-136945000D01*
X128677560Y-138645000D01*
X128721838Y-138880317D01*
X128860910Y-139096441D01*
X129073110Y-139241431D01*
X129325000Y-139292440D01*
X131025000Y-139292440D01*
X131260317Y-139248162D01*
X131476441Y-139109090D01*
X131621431Y-138896890D01*
X131672440Y-138645000D01*
X131672440Y-137769336D01*
X152075000Y-137769336D01*
X152075000Y-137820664D01*
X152174718Y-138321979D01*
X152458690Y-138746974D01*
X152883685Y-139030946D01*
X153385000Y-139130664D01*
X153886315Y-139030946D01*
X154311310Y-138746974D01*
X154385000Y-138636689D01*
X154458690Y-138746974D01*
X154883685Y-139030946D01*
X155385000Y-139130664D01*
X155886315Y-139030946D01*
X156311310Y-138746974D01*
X156389928Y-138629314D01*
X156721367Y-138924478D01*
X157055600Y-139062910D01*
X157258000Y-138939224D01*
X157258000Y-137922000D01*
X157238000Y-137922000D01*
X157238000Y-137668000D01*
X157258000Y-137668000D01*
X157258000Y-136650776D01*
X157512000Y-136650776D01*
X157512000Y-137668000D01*
X157532000Y-137668000D01*
X157532000Y-137922000D01*
X157512000Y-137922000D01*
X157512000Y-138939224D01*
X157714400Y-139062910D01*
X158048633Y-138924478D01*
X158175285Y-138811687D01*
X158245910Y-138921441D01*
X158458110Y-139066431D01*
X158710000Y-139117440D01*
X160060000Y-139117440D01*
X160295317Y-139073162D01*
X160511441Y-138934090D01*
X160656431Y-138721890D01*
X160707440Y-138470000D01*
X160707440Y-138165461D01*
X169804092Y-138165461D01*
X169828144Y-138815460D01*
X170030613Y-139304264D01*
X170297468Y-139402927D01*
X171270395Y-138430000D01*
X171629605Y-138430000D01*
X172602532Y-139402927D01*
X172869387Y-139304264D01*
X173095908Y-138694539D01*
X173071856Y-138044540D01*
X172869387Y-137555736D01*
X172602532Y-137457073D01*
X171629605Y-138430000D01*
X171270395Y-138430000D01*
X170297468Y-137457073D01*
X170030613Y-137555736D01*
X169804092Y-138165461D01*
X160707440Y-138165461D01*
X160707440Y-137277468D01*
X170477073Y-137277468D01*
X171450000Y-138250395D01*
X172422927Y-137277468D01*
X172324264Y-137010613D01*
X171714539Y-136784092D01*
X171064540Y-136808144D01*
X170575736Y-137010613D01*
X170477073Y-137277468D01*
X160707440Y-137277468D01*
X160707440Y-137120000D01*
X160663162Y-136884683D01*
X160524090Y-136668559D01*
X160311890Y-136523569D01*
X160060000Y-136472560D01*
X158710000Y-136472560D01*
X158474683Y-136516838D01*
X158258559Y-136655910D01*
X158175061Y-136778113D01*
X158048633Y-136665522D01*
X157714400Y-136527090D01*
X157512000Y-136650776D01*
X157258000Y-136650776D01*
X157055600Y-136527090D01*
X156721367Y-136665522D01*
X156389928Y-136960686D01*
X156311310Y-136843026D01*
X155886315Y-136559054D01*
X155385000Y-136459336D01*
X154883685Y-136559054D01*
X154458690Y-136843026D01*
X154385000Y-136953311D01*
X154311310Y-136843026D01*
X153886315Y-136559054D01*
X153385000Y-136459336D01*
X152883685Y-136559054D01*
X152458690Y-136843026D01*
X152174718Y-137268021D01*
X152075000Y-137769336D01*
X131672440Y-137769336D01*
X131672440Y-136945000D01*
X131628162Y-136709683D01*
X131489090Y-136493559D01*
X131276890Y-136348569D01*
X131168893Y-136326699D01*
X131446645Y-136021924D01*
X131616476Y-135611890D01*
X131525852Y-135440167D01*
X147654838Y-135440167D01*
X147796883Y-135783943D01*
X148059673Y-136047192D01*
X148403201Y-136189838D01*
X148775167Y-136190162D01*
X149118943Y-136048117D01*
X149152118Y-136015000D01*
X156917537Y-136015000D01*
X156949673Y-136047192D01*
X157293201Y-136189838D01*
X157665167Y-136190162D01*
X158008943Y-136048117D01*
X158272192Y-135785327D01*
X158414838Y-135441799D01*
X158415162Y-135069833D01*
X158273117Y-134726057D01*
X158010327Y-134462808D01*
X157666799Y-134320162D01*
X157294833Y-134319838D01*
X156951057Y-134461883D01*
X156917882Y-134495000D01*
X149152463Y-134495000D01*
X149120327Y-134462808D01*
X148776799Y-134320162D01*
X148404833Y-134319838D01*
X148061057Y-134461883D01*
X147797808Y-134724673D01*
X147655162Y-135068201D01*
X147654838Y-135440167D01*
X131525852Y-135440167D01*
X131495155Y-135382000D01*
X130302000Y-135382000D01*
X130302000Y-135402000D01*
X130048000Y-135402000D01*
X130048000Y-135382000D01*
X128854845Y-135382000D01*
X128733524Y-135611890D01*
X128903355Y-136021924D01*
X129179501Y-136324937D01*
X129089683Y-136341838D01*
X128873559Y-136480910D01*
X128728569Y-136693110D01*
X128677560Y-136945000D01*
X123555188Y-136945000D01*
X123555284Y-136836205D01*
X123306894Y-136235057D01*
X122847363Y-135774722D01*
X122246648Y-135525284D01*
X121596205Y-135524716D01*
X120995057Y-135773106D01*
X120534722Y-136232637D01*
X120285284Y-136833352D01*
X120284716Y-137483795D01*
X111200000Y-137483795D01*
X111200000Y-134898110D01*
X128733524Y-134898110D01*
X128854845Y-135128000D01*
X130048000Y-135128000D01*
X130048000Y-133934181D01*
X130302000Y-133934181D01*
X130302000Y-135128000D01*
X131495155Y-135128000D01*
X131616476Y-134898110D01*
X131446645Y-134488076D01*
X131056358Y-134059817D01*
X130531892Y-133813514D01*
X130302000Y-133934181D01*
X130048000Y-133934181D01*
X129818108Y-133813514D01*
X129293642Y-134059817D01*
X128903355Y-134488076D01*
X128733524Y-134898110D01*
X111200000Y-134898110D01*
X111200000Y-130692532D01*
X142537073Y-130692532D01*
X142635736Y-130959387D01*
X143245461Y-131185908D01*
X143895460Y-131161856D01*
X144384264Y-130959387D01*
X144482927Y-130692532D01*
X143510000Y-129719605D01*
X142537073Y-130692532D01*
X111200000Y-130692532D01*
X111200000Y-129275461D01*
X141864092Y-129275461D01*
X141888144Y-129925460D01*
X142090613Y-130414264D01*
X142357468Y-130512927D01*
X143330395Y-129540000D01*
X143689605Y-129540000D01*
X144662532Y-130512927D01*
X144929387Y-130414264D01*
X145155908Y-129804539D01*
X145152971Y-129725167D01*
X146384838Y-129725167D01*
X146526883Y-130068943D01*
X146789673Y-130332192D01*
X147133201Y-130474838D01*
X147505167Y-130475162D01*
X147848943Y-130333117D01*
X147882118Y-130300000D01*
X151837537Y-130300000D01*
X151869673Y-130332192D01*
X152213201Y-130474838D01*
X152585167Y-130475162D01*
X152928943Y-130333117D01*
X153192192Y-130070327D01*
X153334838Y-129726799D01*
X153335162Y-129354833D01*
X153193117Y-129011057D01*
X152930327Y-128747808D01*
X152586799Y-128605162D01*
X152214833Y-128604838D01*
X151871057Y-128746883D01*
X151837882Y-128780000D01*
X147882463Y-128780000D01*
X147850327Y-128747808D01*
X147506799Y-128605162D01*
X147134833Y-128604838D01*
X146791057Y-128746883D01*
X146527808Y-129009673D01*
X146385162Y-129353201D01*
X146384838Y-129725167D01*
X145152971Y-129725167D01*
X145131856Y-129154540D01*
X144929387Y-128665736D01*
X144662532Y-128567073D01*
X143689605Y-129540000D01*
X143330395Y-129540000D01*
X142357468Y-128567073D01*
X142090613Y-128665736D01*
X141864092Y-129275461D01*
X111200000Y-129275461D01*
X111200000Y-126882532D01*
X123487073Y-126882532D01*
X123585736Y-127149387D01*
X124195461Y-127375908D01*
X124845460Y-127351856D01*
X124913205Y-127323795D01*
X135524716Y-127323795D01*
X135773106Y-127924943D01*
X136232637Y-128385278D01*
X136833352Y-128634716D01*
X137483795Y-128635284D01*
X138083553Y-128387468D01*
X142537073Y-128387468D01*
X143510000Y-129360395D01*
X144482927Y-128387468D01*
X144384264Y-128120613D01*
X143774539Y-127894092D01*
X143124540Y-127918144D01*
X142635736Y-128120613D01*
X142537073Y-128387468D01*
X138083553Y-128387468D01*
X138084943Y-128386894D01*
X138545278Y-127927363D01*
X138794716Y-127326648D01*
X138794823Y-127203795D01*
X151399716Y-127203795D01*
X151648106Y-127804943D01*
X152107637Y-128265278D01*
X152708352Y-128514716D01*
X153358795Y-128515284D01*
X153959943Y-128266894D01*
X154420278Y-127807363D01*
X154621072Y-127323795D01*
X172354716Y-127323795D01*
X172603106Y-127924943D01*
X173062637Y-128385278D01*
X173663352Y-128634716D01*
X174313795Y-128635284D01*
X174914943Y-128386894D01*
X175375278Y-127927363D01*
X175624716Y-127326648D01*
X175625284Y-126676205D01*
X175376894Y-126075057D01*
X174917363Y-125614722D01*
X174316648Y-125365284D01*
X173666205Y-125364716D01*
X173065057Y-125613106D01*
X172604722Y-126072637D01*
X172355284Y-126673352D01*
X172354716Y-127323795D01*
X154621072Y-127323795D01*
X154669716Y-127206648D01*
X154670284Y-126556205D01*
X154421894Y-125955057D01*
X153962363Y-125494722D01*
X153361648Y-125245284D01*
X152711205Y-125244716D01*
X152110057Y-125493106D01*
X151649722Y-125952637D01*
X151400284Y-126553352D01*
X151399716Y-127203795D01*
X138794823Y-127203795D01*
X138795284Y-126676205D01*
X138546894Y-126075057D01*
X138087363Y-125614722D01*
X137486648Y-125365284D01*
X136836205Y-125364716D01*
X136235057Y-125613106D01*
X135774722Y-126072637D01*
X135525284Y-126673352D01*
X135524716Y-127323795D01*
X124913205Y-127323795D01*
X125334264Y-127149387D01*
X125432927Y-126882532D01*
X124460000Y-125909605D01*
X123487073Y-126882532D01*
X111200000Y-126882532D01*
X111200000Y-123731638D01*
X116644526Y-123731638D01*
X117060028Y-124737229D01*
X117828724Y-125507268D01*
X118833588Y-125924524D01*
X119921638Y-125925474D01*
X120927229Y-125509972D01*
X120971817Y-125465461D01*
X122814092Y-125465461D01*
X122838144Y-126115460D01*
X123040613Y-126604264D01*
X123307468Y-126702927D01*
X124280395Y-125730000D01*
X124639605Y-125730000D01*
X125612532Y-126702927D01*
X125879387Y-126604264D01*
X126105908Y-125994539D01*
X126081856Y-125344540D01*
X125939822Y-125001638D01*
X138234526Y-125001638D01*
X138650028Y-126007229D01*
X139418724Y-126777268D01*
X140423588Y-127194524D01*
X141511638Y-127195474D01*
X142517229Y-126779972D01*
X143287268Y-126011276D01*
X143704524Y-125006412D01*
X143705474Y-123918362D01*
X143628322Y-123731638D01*
X173794526Y-123731638D01*
X174210028Y-124737229D01*
X174978724Y-125507268D01*
X175983588Y-125924524D01*
X177071638Y-125925474D01*
X178077229Y-125509972D01*
X178847268Y-124741276D01*
X179264524Y-123736412D01*
X179265474Y-122648362D01*
X178849972Y-121642771D01*
X178081276Y-120872732D01*
X177076412Y-120455476D01*
X175988362Y-120454526D01*
X174982771Y-120870028D01*
X174212732Y-121638724D01*
X173795476Y-122643588D01*
X173794526Y-123731638D01*
X143628322Y-123731638D01*
X143289972Y-122912771D01*
X142521276Y-122142732D01*
X141701984Y-121802532D01*
X170477073Y-121802532D01*
X170575736Y-122069387D01*
X171185461Y-122295908D01*
X171835460Y-122271856D01*
X172324264Y-122069387D01*
X172422927Y-121802532D01*
X171450000Y-120829605D01*
X170477073Y-121802532D01*
X141701984Y-121802532D01*
X141516412Y-121725476D01*
X140428362Y-121724526D01*
X139422771Y-122140028D01*
X138652732Y-122908724D01*
X138235476Y-123913588D01*
X138234526Y-125001638D01*
X125939822Y-125001638D01*
X125879387Y-124855736D01*
X125612532Y-124757073D01*
X124639605Y-125730000D01*
X124280395Y-125730000D01*
X123307468Y-124757073D01*
X123040613Y-124855736D01*
X122814092Y-125465461D01*
X120971817Y-125465461D01*
X121697268Y-124741276D01*
X121765287Y-124577468D01*
X123487073Y-124577468D01*
X124460000Y-125550395D01*
X125432927Y-124577468D01*
X125334264Y-124310613D01*
X124724539Y-124084092D01*
X124074540Y-124108144D01*
X123585736Y-124310613D01*
X123487073Y-124577468D01*
X121765287Y-124577468D01*
X122114524Y-123736412D01*
X122115474Y-122648362D01*
X121699972Y-121642771D01*
X120931276Y-120872732D01*
X119926412Y-120455476D01*
X118838362Y-120454526D01*
X117832771Y-120870028D01*
X117062732Y-121638724D01*
X116645476Y-122643588D01*
X116644526Y-123731638D01*
X111200000Y-123731638D01*
X111200000Y-119703795D01*
X120284716Y-119703795D01*
X120533106Y-120304943D01*
X120992637Y-120765278D01*
X121593352Y-121014716D01*
X122243795Y-121015284D01*
X122679710Y-120835167D01*
X135589838Y-120835167D01*
X135731883Y-121178943D01*
X135994673Y-121442192D01*
X136338201Y-121584838D01*
X136710167Y-121585162D01*
X137053943Y-121443117D01*
X137317192Y-121180327D01*
X137459838Y-120836799D01*
X137460162Y-120464833D01*
X137427367Y-120385461D01*
X169804092Y-120385461D01*
X169828144Y-121035460D01*
X170030613Y-121524264D01*
X170297468Y-121622927D01*
X171270395Y-120650000D01*
X171629605Y-120650000D01*
X172602532Y-121622927D01*
X172869387Y-121524264D01*
X173095908Y-120914539D01*
X173071856Y-120264540D01*
X172869387Y-119775736D01*
X172602532Y-119677073D01*
X171629605Y-120650000D01*
X171270395Y-120650000D01*
X170297468Y-119677073D01*
X170030613Y-119775736D01*
X169804092Y-120385461D01*
X137427367Y-120385461D01*
X137318117Y-120121057D01*
X137285000Y-120087882D01*
X137285000Y-119565167D01*
X146384838Y-119565167D01*
X146526883Y-119908943D01*
X146789673Y-120172192D01*
X147133201Y-120314838D01*
X147505167Y-120315162D01*
X147848943Y-120173117D01*
X147882118Y-120140000D01*
X152472537Y-120140000D01*
X152504673Y-120172192D01*
X152848201Y-120314838D01*
X153220167Y-120315162D01*
X153563943Y-120173117D01*
X153827192Y-119910327D01*
X153969838Y-119566799D01*
X153969898Y-119497468D01*
X170477073Y-119497468D01*
X171450000Y-120470395D01*
X172422927Y-119497468D01*
X172324264Y-119230613D01*
X171714539Y-119004092D01*
X171064540Y-119028144D01*
X170575736Y-119230613D01*
X170477073Y-119497468D01*
X153969898Y-119497468D01*
X153970162Y-119194833D01*
X153828117Y-118851057D01*
X153565327Y-118587808D01*
X153221799Y-118445162D01*
X152849833Y-118444838D01*
X152506057Y-118586883D01*
X152472882Y-118620000D01*
X147882463Y-118620000D01*
X147850327Y-118587808D01*
X147506799Y-118445162D01*
X147134833Y-118444838D01*
X146791057Y-118586883D01*
X146527808Y-118849673D01*
X146385162Y-119193201D01*
X146384838Y-119565167D01*
X137285000Y-119565167D01*
X137285000Y-119059802D01*
X138684635Y-117660167D01*
X146384838Y-117660167D01*
X146526883Y-118003943D01*
X146789673Y-118267192D01*
X147133201Y-118409838D01*
X147505167Y-118410162D01*
X147848943Y-118268117D01*
X147882118Y-118235000D01*
X152472537Y-118235000D01*
X152504673Y-118267192D01*
X152848201Y-118409838D01*
X153220167Y-118410162D01*
X153563943Y-118268117D01*
X153827192Y-118005327D01*
X153969838Y-117661799D01*
X153970162Y-117289833D01*
X153828117Y-116946057D01*
X153565327Y-116682808D01*
X153221799Y-116540162D01*
X152849833Y-116539838D01*
X152506057Y-116681883D01*
X152472882Y-116715000D01*
X147882463Y-116715000D01*
X147850327Y-116682808D01*
X147506799Y-116540162D01*
X147134833Y-116539838D01*
X146791057Y-116681883D01*
X146527808Y-116944673D01*
X146385162Y-117288201D01*
X146384838Y-117660167D01*
X138684635Y-117660167D01*
X139204680Y-117140122D01*
X139250167Y-117140162D01*
X139593943Y-116998117D01*
X139857192Y-116735327D01*
X139999838Y-116391799D01*
X140000162Y-116019833D01*
X139858117Y-115676057D01*
X139595327Y-115412808D01*
X139251799Y-115270162D01*
X138879833Y-115269838D01*
X138536057Y-115411883D01*
X138272808Y-115674673D01*
X138130162Y-116018201D01*
X138130121Y-116065077D01*
X135987599Y-118207599D01*
X135822852Y-118454161D01*
X135765000Y-118745000D01*
X135765000Y-120087537D01*
X135732808Y-120119673D01*
X135590162Y-120463201D01*
X135589838Y-120835167D01*
X122679710Y-120835167D01*
X122844943Y-120766894D01*
X123305278Y-120307363D01*
X123554716Y-119706648D01*
X123555284Y-119056205D01*
X123306894Y-118455057D01*
X122847363Y-117994722D01*
X122246648Y-117745284D01*
X121596205Y-117744716D01*
X120995057Y-117993106D01*
X120534722Y-118452637D01*
X120285284Y-119053352D01*
X120284716Y-119703795D01*
X111200000Y-119703795D01*
X111200000Y-113549400D01*
X130177090Y-113549400D01*
X130315522Y-113883633D01*
X130655460Y-114265349D01*
X131115598Y-114487920D01*
X131318000Y-114365090D01*
X131318000Y-113347000D01*
X131572000Y-113347000D01*
X131572000Y-114365090D01*
X131774402Y-114487920D01*
X132234540Y-114265349D01*
X132574478Y-113883633D01*
X132712910Y-113549400D01*
X132589224Y-113347000D01*
X131572000Y-113347000D01*
X131318000Y-113347000D01*
X130300776Y-113347000D01*
X130177090Y-113549400D01*
X111200000Y-113549400D01*
X111200000Y-111220000D01*
X130109336Y-111220000D01*
X130209054Y-111721315D01*
X130493026Y-112146310D01*
X130610686Y-112224928D01*
X130315522Y-112556367D01*
X130177090Y-112890600D01*
X130300776Y-113093000D01*
X131318000Y-113093000D01*
X131318000Y-113073000D01*
X131572000Y-113073000D01*
X131572000Y-113093000D01*
X132589224Y-113093000D01*
X132712910Y-112890600D01*
X132574478Y-112556367D01*
X132279314Y-112224928D01*
X132310941Y-112203795D01*
X151399716Y-112203795D01*
X151648106Y-112804943D01*
X152107637Y-113265278D01*
X152708352Y-113514716D01*
X153358795Y-113515284D01*
X153959943Y-113266894D01*
X154420278Y-112807363D01*
X154669716Y-112206648D01*
X154670284Y-111556205D01*
X154421894Y-110955057D01*
X153962363Y-110494722D01*
X153361648Y-110245284D01*
X152711205Y-110244716D01*
X152110057Y-110493106D01*
X151649722Y-110952637D01*
X151400284Y-111553352D01*
X151399716Y-112203795D01*
X132310941Y-112203795D01*
X132396974Y-112146310D01*
X132680946Y-111721315D01*
X132780664Y-111220000D01*
X132680946Y-110718685D01*
X132479992Y-110417936D01*
X132571441Y-110359090D01*
X132716431Y-110146890D01*
X132767440Y-109895000D01*
X132767440Y-109543795D01*
X172354716Y-109543795D01*
X172603106Y-110144943D01*
X173062637Y-110605278D01*
X173663352Y-110854716D01*
X174313795Y-110855284D01*
X174914943Y-110606894D01*
X175375278Y-110147363D01*
X175624716Y-109546648D01*
X175625284Y-108896205D01*
X175376894Y-108295057D01*
X174917363Y-107834722D01*
X174316648Y-107585284D01*
X173666205Y-107584716D01*
X173065057Y-107833106D01*
X172604722Y-108292637D01*
X172355284Y-108893352D01*
X172354716Y-109543795D01*
X132767440Y-109543795D01*
X132767440Y-108545000D01*
X132723162Y-108309683D01*
X132610865Y-108135167D01*
X134319838Y-108135167D01*
X134461883Y-108478943D01*
X134724673Y-108742192D01*
X135068201Y-108884838D01*
X135440167Y-108885162D01*
X135783943Y-108743117D01*
X135817118Y-108710000D01*
X139772469Y-108710000D01*
X139784990Y-108740303D01*
X140177630Y-109133629D01*
X140690900Y-109346757D01*
X141246661Y-109347242D01*
X141760303Y-109135010D01*
X141965457Y-108930213D01*
X165569392Y-108930213D01*
X165638857Y-109172397D01*
X166162302Y-109359144D01*
X166717368Y-109331362D01*
X167101143Y-109172397D01*
X167170608Y-108930213D01*
X166370000Y-108129605D01*
X165569392Y-108930213D01*
X141965457Y-108930213D01*
X142153629Y-108742370D01*
X142366757Y-108229100D01*
X142367181Y-107742302D01*
X164960856Y-107742302D01*
X164988638Y-108297368D01*
X165147603Y-108681143D01*
X165389787Y-108750608D01*
X166190395Y-107950000D01*
X166549605Y-107950000D01*
X167350213Y-108750608D01*
X167592397Y-108681143D01*
X167779144Y-108157698D01*
X167751362Y-107602632D01*
X167592397Y-107218857D01*
X167350213Y-107149392D01*
X166549605Y-107950000D01*
X166190395Y-107950000D01*
X165389787Y-107149392D01*
X165147603Y-107218857D01*
X164960856Y-107742302D01*
X142367181Y-107742302D01*
X142367242Y-107673339D01*
X142155010Y-107159697D01*
X141762370Y-106766371D01*
X141554488Y-106680051D01*
X141760303Y-106595010D01*
X142153629Y-106202370D01*
X142366757Y-105689100D01*
X142366838Y-105595167D01*
X162259838Y-105595167D01*
X162401883Y-105938943D01*
X162664673Y-106202192D01*
X163008201Y-106344838D01*
X163380167Y-106345162D01*
X163723943Y-106203117D01*
X163757118Y-106170000D01*
X165172469Y-106170000D01*
X165184990Y-106200303D01*
X165577630Y-106593629D01*
X165769727Y-106673395D01*
X165638857Y-106727603D01*
X165569392Y-106969787D01*
X166370000Y-107770395D01*
X167170608Y-106969787D01*
X167101143Y-106727603D01*
X166960682Y-106677491D01*
X167160303Y-106595010D01*
X167553629Y-106202370D01*
X167657741Y-105951638D01*
X173794526Y-105951638D01*
X174210028Y-106957229D01*
X174978724Y-107727268D01*
X175983588Y-108144524D01*
X177071638Y-108145474D01*
X178077229Y-107729972D01*
X178847268Y-106961276D01*
X179264524Y-105956412D01*
X179265474Y-104868362D01*
X178849972Y-103862771D01*
X178081276Y-103092732D01*
X177076412Y-102675476D01*
X175988362Y-102674526D01*
X174982771Y-103090028D01*
X174212732Y-103858724D01*
X173795476Y-104863588D01*
X173794526Y-105951638D01*
X167657741Y-105951638D01*
X167766757Y-105689100D01*
X167767242Y-105133339D01*
X167555010Y-104619697D01*
X167162370Y-104226371D01*
X166954488Y-104140051D01*
X167160303Y-104055010D01*
X167192837Y-104022532D01*
X170477073Y-104022532D01*
X170575736Y-104289387D01*
X171185461Y-104515908D01*
X171835460Y-104491856D01*
X172324264Y-104289387D01*
X172422927Y-104022532D01*
X171450000Y-103049605D01*
X170477073Y-104022532D01*
X167192837Y-104022532D01*
X167553629Y-103662370D01*
X167766757Y-103149100D01*
X167767231Y-102605461D01*
X169804092Y-102605461D01*
X169828144Y-103255460D01*
X170030613Y-103744264D01*
X170297468Y-103842927D01*
X171270395Y-102870000D01*
X171629605Y-102870000D01*
X172602532Y-103842927D01*
X172869387Y-103744264D01*
X173095908Y-103134539D01*
X173071856Y-102484540D01*
X172869387Y-101995736D01*
X172602532Y-101897073D01*
X171629605Y-102870000D01*
X171270395Y-102870000D01*
X170297468Y-101897073D01*
X170030613Y-101995736D01*
X169804092Y-102605461D01*
X167767231Y-102605461D01*
X167767242Y-102593339D01*
X167555010Y-102079697D01*
X167193413Y-101717468D01*
X170477073Y-101717468D01*
X171450000Y-102690395D01*
X172422927Y-101717468D01*
X172324264Y-101450613D01*
X171714539Y-101224092D01*
X171064540Y-101248144D01*
X170575736Y-101450613D01*
X170477073Y-101717468D01*
X167193413Y-101717468D01*
X167162370Y-101686371D01*
X166954488Y-101600051D01*
X167160303Y-101515010D01*
X167553629Y-101122370D01*
X167766757Y-100609100D01*
X167767242Y-100053339D01*
X167555010Y-99539697D01*
X167162370Y-99146371D01*
X166954488Y-99060051D01*
X167160303Y-98975010D01*
X167553629Y-98582370D01*
X167766757Y-98069100D01*
X167767242Y-97513339D01*
X167555010Y-96999697D01*
X167162370Y-96606371D01*
X166954488Y-96520051D01*
X167160303Y-96435010D01*
X167553629Y-96042370D01*
X167766757Y-95529100D01*
X167767242Y-94973339D01*
X167555010Y-94459697D01*
X167162370Y-94066371D01*
X166970273Y-93986605D01*
X167101143Y-93932397D01*
X167170608Y-93690213D01*
X166370000Y-92889605D01*
X165569392Y-93690213D01*
X165638857Y-93932397D01*
X165779318Y-93982509D01*
X165579697Y-94064990D01*
X165186371Y-94457630D01*
X164973243Y-94970900D01*
X164972758Y-95526661D01*
X165184990Y-96040303D01*
X165577630Y-96433629D01*
X165785512Y-96519949D01*
X165579697Y-96604990D01*
X165186371Y-96997630D01*
X164973243Y-97510900D01*
X164972758Y-98066661D01*
X165184990Y-98580303D01*
X165577630Y-98973629D01*
X165785512Y-99059949D01*
X165579697Y-99144990D01*
X165186371Y-99537630D01*
X164973243Y-100050900D01*
X164972758Y-100606661D01*
X165184990Y-101120303D01*
X165577630Y-101513629D01*
X165785512Y-101599949D01*
X165579697Y-101684990D01*
X165186371Y-102077630D01*
X164973243Y-102590900D01*
X164972758Y-103146661D01*
X165184990Y-103660303D01*
X165577630Y-104053629D01*
X165785512Y-104139949D01*
X165579697Y-104224990D01*
X165186371Y-104617630D01*
X165172930Y-104650000D01*
X163757463Y-104650000D01*
X163725327Y-104617808D01*
X163381799Y-104475162D01*
X163009833Y-104474838D01*
X162666057Y-104616883D01*
X162402808Y-104879673D01*
X162260162Y-105223201D01*
X162259838Y-105595167D01*
X142366838Y-105595167D01*
X142367242Y-105133339D01*
X142155010Y-104619697D01*
X141762370Y-104226371D01*
X141554488Y-104140051D01*
X141760303Y-104055010D01*
X142153629Y-103662370D01*
X142366757Y-103149100D01*
X142367242Y-102593339D01*
X142155010Y-102079697D01*
X141762370Y-101686371D01*
X141554488Y-101600051D01*
X141760303Y-101515010D01*
X142153629Y-101122370D01*
X142366757Y-100609100D01*
X142367242Y-100053339D01*
X142155010Y-99539697D01*
X141762370Y-99146371D01*
X141554488Y-99060051D01*
X141760303Y-98975010D01*
X142153629Y-98582370D01*
X142366757Y-98069100D01*
X142366838Y-97975167D01*
X146384838Y-97975167D01*
X146526883Y-98318943D01*
X146789673Y-98582192D01*
X147133201Y-98724838D01*
X147505167Y-98725162D01*
X147848943Y-98583117D01*
X147882118Y-98550000D01*
X153107537Y-98550000D01*
X153139673Y-98582192D01*
X153483201Y-98724838D01*
X153855167Y-98725162D01*
X154198943Y-98583117D01*
X154462192Y-98320327D01*
X154604838Y-97976799D01*
X154605162Y-97604833D01*
X154463117Y-97261057D01*
X154357290Y-97155046D01*
X154462192Y-97050327D01*
X154604838Y-96706799D01*
X154605162Y-96334833D01*
X154463117Y-95991057D01*
X154200327Y-95727808D01*
X153856799Y-95585162D01*
X153484833Y-95584838D01*
X153141057Y-95726883D01*
X153107882Y-95760000D01*
X149152463Y-95760000D01*
X149120327Y-95727808D01*
X148776799Y-95585162D01*
X148404833Y-95584838D01*
X148061057Y-95726883D01*
X147797808Y-95989673D01*
X147655162Y-96333201D01*
X147654838Y-96705167D01*
X147760310Y-96960430D01*
X147506799Y-96855162D01*
X147134833Y-96854838D01*
X146791057Y-96996883D01*
X146527808Y-97259673D01*
X146385162Y-97603201D01*
X146384838Y-97975167D01*
X142366838Y-97975167D01*
X142367242Y-97513339D01*
X142155010Y-96999697D01*
X141762370Y-96606371D01*
X141554488Y-96520051D01*
X141760303Y-96435010D01*
X142153629Y-96042370D01*
X142366757Y-95529100D01*
X142367242Y-94973339D01*
X142155010Y-94459697D01*
X141762370Y-94066371D01*
X141554488Y-93980051D01*
X141760303Y-93895010D01*
X142153629Y-93502370D01*
X142363995Y-92995750D01*
X146470000Y-92995750D01*
X146470000Y-93686310D01*
X146566673Y-93919699D01*
X146745302Y-94098327D01*
X146978691Y-94195000D01*
X147669250Y-94195000D01*
X147828000Y-94036250D01*
X147828000Y-92837000D01*
X148082000Y-92837000D01*
X148082000Y-94036250D01*
X148240750Y-94195000D01*
X148931309Y-94195000D01*
X149164698Y-94098327D01*
X149343327Y-93919699D01*
X149440000Y-93686310D01*
X149440000Y-92995750D01*
X149281250Y-92837000D01*
X148082000Y-92837000D01*
X147828000Y-92837000D01*
X146628750Y-92837000D01*
X146470000Y-92995750D01*
X142363995Y-92995750D01*
X142366757Y-92989100D01*
X142367242Y-92433339D01*
X142155010Y-91919697D01*
X141762370Y-91526371D01*
X141554488Y-91440051D01*
X141760303Y-91355010D01*
X142153629Y-90962370D01*
X142366757Y-90449100D01*
X142367000Y-90170000D01*
X146440907Y-90170000D01*
X146553946Y-90738285D01*
X146875853Y-91220054D01*
X146919777Y-91249403D01*
X146745302Y-91321673D01*
X146566673Y-91500301D01*
X146470000Y-91733690D01*
X146470000Y-92424250D01*
X146628750Y-92583000D01*
X147828000Y-92583000D01*
X147828000Y-92563000D01*
X148082000Y-92563000D01*
X148082000Y-92583000D01*
X149281250Y-92583000D01*
X149361948Y-92502302D01*
X164960856Y-92502302D01*
X164988638Y-93057368D01*
X165147603Y-93441143D01*
X165389787Y-93510608D01*
X166190395Y-92710000D01*
X166549605Y-92710000D01*
X167350213Y-93510608D01*
X167592397Y-93441143D01*
X167779144Y-92917698D01*
X167751362Y-92362632D01*
X167592397Y-91978857D01*
X167350213Y-91909392D01*
X166549605Y-92710000D01*
X166190395Y-92710000D01*
X165389787Y-91909392D01*
X165147603Y-91978857D01*
X164960856Y-92502302D01*
X149361948Y-92502302D01*
X149440000Y-92424250D01*
X149440000Y-91733690D01*
X149343327Y-91500301D01*
X149164698Y-91321673D01*
X148990223Y-91249403D01*
X149034147Y-91220054D01*
X149356054Y-90738285D01*
X149469093Y-90170000D01*
X149356054Y-89601715D01*
X149034147Y-89119946D01*
X148552378Y-88798039D01*
X147984093Y-88685000D01*
X147925907Y-88685000D01*
X147357622Y-88798039D01*
X146875853Y-89119946D01*
X146553946Y-89601715D01*
X146440907Y-90170000D01*
X142367000Y-90170000D01*
X142367242Y-89893339D01*
X142155010Y-89379697D01*
X141762370Y-88986371D01*
X141554488Y-88900051D01*
X141760303Y-88815010D01*
X142153629Y-88422370D01*
X142366757Y-87909100D01*
X142367242Y-87353339D01*
X142155010Y-86839697D01*
X141762370Y-86446371D01*
X141554488Y-86360051D01*
X141760303Y-86275010D01*
X142153629Y-85882370D01*
X142366757Y-85369100D01*
X142367242Y-84813339D01*
X142155010Y-84299697D01*
X141762370Y-83906371D01*
X141554488Y-83820051D01*
X141760303Y-83735010D01*
X142153629Y-83342370D01*
X142366757Y-82829100D01*
X142367242Y-82273339D01*
X142155010Y-81759697D01*
X141762370Y-81366371D01*
X141554488Y-81280051D01*
X141760303Y-81195010D01*
X142153629Y-80802370D01*
X142366757Y-80289100D01*
X142367242Y-79733339D01*
X142155010Y-79219697D01*
X141762370Y-78826371D01*
X141554488Y-78740051D01*
X141760303Y-78655010D01*
X142153629Y-78262370D01*
X142308250Y-77890000D01*
X149632560Y-77890000D01*
X149632560Y-79590000D01*
X149676838Y-79825317D01*
X149815910Y-80041441D01*
X150028110Y-80186431D01*
X150280000Y-80237440D01*
X151980000Y-80237440D01*
X152215317Y-80193162D01*
X152431441Y-80054090D01*
X152576431Y-79841890D01*
X152590086Y-79774459D01*
X152619946Y-79819147D01*
X153101715Y-80141054D01*
X153670000Y-80254093D01*
X154238285Y-80141054D01*
X154720054Y-79819147D01*
X155041961Y-79337378D01*
X155155000Y-78769093D01*
X155155000Y-78710907D01*
X155995000Y-78710907D01*
X155995000Y-78769093D01*
X156108039Y-79337378D01*
X156429946Y-79819147D01*
X156911715Y-80141054D01*
X157480000Y-80254093D01*
X158048285Y-80141054D01*
X158530054Y-79819147D01*
X158557850Y-79777548D01*
X158566838Y-79825317D01*
X158705910Y-80041441D01*
X158918110Y-80186431D01*
X159170000Y-80237440D01*
X160870000Y-80237440D01*
X161105317Y-80193162D01*
X161321441Y-80054090D01*
X161466431Y-79841890D01*
X161517440Y-79590000D01*
X161517440Y-77890000D01*
X161473162Y-77654683D01*
X161334090Y-77438559D01*
X161121890Y-77293569D01*
X160997305Y-77268340D01*
X161347093Y-76919161D01*
X161634672Y-76226595D01*
X161635326Y-75476695D01*
X161348957Y-74783628D01*
X160819161Y-74252907D01*
X160126595Y-73965328D01*
X159376695Y-73964674D01*
X158683628Y-74251043D01*
X158152907Y-74780839D01*
X157865328Y-75473405D01*
X157864674Y-76223305D01*
X158151043Y-76916372D01*
X158680839Y-77447093D01*
X158698948Y-77454612D01*
X158573569Y-77638110D01*
X158559914Y-77705541D01*
X158530054Y-77660853D01*
X158048285Y-77338946D01*
X157480000Y-77225907D01*
X156911715Y-77338946D01*
X156429946Y-77660853D01*
X156108039Y-78142622D01*
X155995000Y-78710907D01*
X155155000Y-78710907D01*
X155041961Y-78142622D01*
X154720054Y-77660853D01*
X154238285Y-77338946D01*
X153670000Y-77225907D01*
X153101715Y-77338946D01*
X152619946Y-77660853D01*
X152592150Y-77702452D01*
X152583162Y-77654683D01*
X152444090Y-77438559D01*
X152231890Y-77293569D01*
X151980000Y-77242560D01*
X150280000Y-77242560D01*
X150044683Y-77286838D01*
X149828559Y-77425910D01*
X149683569Y-77638110D01*
X149632560Y-77890000D01*
X142308250Y-77890000D01*
X142366757Y-77749100D01*
X142367242Y-77193339D01*
X142155010Y-76679697D01*
X141762370Y-76286371D01*
X141610491Y-76223305D01*
X146434674Y-76223305D01*
X146721043Y-76916372D01*
X147250839Y-77447093D01*
X147943405Y-77734672D01*
X148693305Y-77735326D01*
X149386372Y-77448957D01*
X149917093Y-76919161D01*
X150204672Y-76226595D01*
X150205326Y-75476695D01*
X149918957Y-74783628D01*
X149389161Y-74252907D01*
X148696595Y-73965328D01*
X147946695Y-73964674D01*
X147253628Y-74251043D01*
X146722907Y-74780839D01*
X146435328Y-75473405D01*
X146434674Y-76223305D01*
X141610491Y-76223305D01*
X141570273Y-76206605D01*
X141701143Y-76152397D01*
X141770608Y-75910213D01*
X140970000Y-75109605D01*
X140169392Y-75910213D01*
X140238857Y-76152397D01*
X140379318Y-76202509D01*
X140179697Y-76284990D01*
X139786371Y-76677630D01*
X139573243Y-77190900D01*
X139572758Y-77746661D01*
X139784990Y-78260303D01*
X140177630Y-78653629D01*
X140385512Y-78739949D01*
X140179697Y-78824990D01*
X139786371Y-79217630D01*
X139573243Y-79730900D01*
X139572758Y-80286661D01*
X139784990Y-80800303D01*
X140177630Y-81193629D01*
X140385512Y-81279949D01*
X140179697Y-81364990D01*
X139786371Y-81757630D01*
X139573243Y-82270900D01*
X139572758Y-82826661D01*
X139784990Y-83340303D01*
X140177630Y-83733629D01*
X140385512Y-83819949D01*
X140179697Y-83904990D01*
X139786371Y-84297630D01*
X139573243Y-84810900D01*
X139572758Y-85366661D01*
X139784990Y-85880303D01*
X140177630Y-86273629D01*
X140385512Y-86359949D01*
X140179697Y-86444990D01*
X139786371Y-86837630D01*
X139573243Y-87350900D01*
X139572758Y-87906661D01*
X139784990Y-88420303D01*
X140177630Y-88813629D01*
X140385512Y-88899949D01*
X140179697Y-88984990D01*
X139786371Y-89377630D01*
X139573243Y-89890900D01*
X139572758Y-90446661D01*
X139784990Y-90960303D01*
X140177630Y-91353629D01*
X140385512Y-91439949D01*
X140179697Y-91524990D01*
X139786371Y-91917630D01*
X139573243Y-92430900D01*
X139572758Y-92986661D01*
X139784990Y-93500303D01*
X140177630Y-93893629D01*
X140385512Y-93979949D01*
X140179697Y-94064990D01*
X139786371Y-94457630D01*
X139573243Y-94970900D01*
X139572758Y-95526661D01*
X139784990Y-96040303D01*
X140177630Y-96433629D01*
X140385512Y-96519949D01*
X140179697Y-96604990D01*
X139786371Y-96997630D01*
X139573243Y-97510900D01*
X139572758Y-98066661D01*
X139784990Y-98580303D01*
X140177630Y-98973629D01*
X140385512Y-99059949D01*
X140179697Y-99144990D01*
X139786371Y-99537630D01*
X139573243Y-100050900D01*
X139572758Y-100606661D01*
X139784990Y-101120303D01*
X140177630Y-101513629D01*
X140385512Y-101599949D01*
X140179697Y-101684990D01*
X139786371Y-102077630D01*
X139573243Y-102590900D01*
X139572758Y-103146661D01*
X139784990Y-103660303D01*
X140177630Y-104053629D01*
X140385512Y-104139949D01*
X140179697Y-104224990D01*
X139786371Y-104617630D01*
X139573243Y-105130900D01*
X139572758Y-105686661D01*
X139784990Y-106200303D01*
X140177630Y-106593629D01*
X140385512Y-106679949D01*
X140179697Y-106764990D01*
X139786371Y-107157630D01*
X139772930Y-107190000D01*
X135817463Y-107190000D01*
X135785327Y-107157808D01*
X135441799Y-107015162D01*
X135069833Y-107014838D01*
X134726057Y-107156883D01*
X134462808Y-107419673D01*
X134320162Y-107763201D01*
X134319838Y-108135167D01*
X132610865Y-108135167D01*
X132584090Y-108093559D01*
X132371890Y-107948569D01*
X132120000Y-107897560D01*
X130770000Y-107897560D01*
X130534683Y-107941838D01*
X130318559Y-108080910D01*
X130173569Y-108293110D01*
X130122560Y-108545000D01*
X130122560Y-109895000D01*
X130166838Y-110130317D01*
X130305910Y-110346441D01*
X130410177Y-110417683D01*
X130209054Y-110718685D01*
X130109336Y-111220000D01*
X111200000Y-111220000D01*
X111200000Y-109102532D01*
X123487073Y-109102532D01*
X123585736Y-109369387D01*
X124195461Y-109595908D01*
X124845460Y-109571856D01*
X125334264Y-109369387D01*
X125432927Y-109102532D01*
X124460000Y-108129605D01*
X123487073Y-109102532D01*
X111200000Y-109102532D01*
X111200000Y-105951638D01*
X116644526Y-105951638D01*
X117060028Y-106957229D01*
X117828724Y-107727268D01*
X118833588Y-108144524D01*
X119921638Y-108145474D01*
X120927229Y-107729972D01*
X120971817Y-107685461D01*
X122814092Y-107685461D01*
X122838144Y-108335460D01*
X123040613Y-108824264D01*
X123307468Y-108922927D01*
X124280395Y-107950000D01*
X124639605Y-107950000D01*
X125612532Y-108922927D01*
X125879387Y-108824264D01*
X126105908Y-108214539D01*
X126081856Y-107564540D01*
X125879387Y-107075736D01*
X125612532Y-106977073D01*
X124639605Y-107950000D01*
X124280395Y-107950000D01*
X123307468Y-106977073D01*
X123040613Y-107075736D01*
X122814092Y-107685461D01*
X120971817Y-107685461D01*
X121697268Y-106961276D01*
X121765287Y-106797468D01*
X123487073Y-106797468D01*
X124460000Y-107770395D01*
X125432927Y-106797468D01*
X125334264Y-106530613D01*
X124724539Y-106304092D01*
X124074540Y-106328144D01*
X123585736Y-106530613D01*
X123487073Y-106797468D01*
X121765287Y-106797468D01*
X122114524Y-105956412D01*
X122115474Y-104868362D01*
X121699972Y-103862771D01*
X120931276Y-103092732D01*
X119926412Y-102675476D01*
X118838362Y-102674526D01*
X117832771Y-103090028D01*
X117062732Y-103858724D01*
X116645476Y-104863588D01*
X116644526Y-105951638D01*
X111200000Y-105951638D01*
X111200000Y-101923795D01*
X120284716Y-101923795D01*
X120533106Y-102524943D01*
X120992637Y-102985278D01*
X121593352Y-103234716D01*
X122243795Y-103235284D01*
X122844943Y-102986894D01*
X123305278Y-102527363D01*
X123554716Y-101926648D01*
X123555284Y-101276205D01*
X123541011Y-101241661D01*
X128777758Y-101241661D01*
X128989990Y-101755303D01*
X129382630Y-102148629D01*
X129895900Y-102361757D01*
X130451661Y-102362242D01*
X130965303Y-102150010D01*
X131358629Y-101757370D01*
X131444949Y-101549488D01*
X131529990Y-101755303D01*
X131922630Y-102148629D01*
X132435900Y-102361757D01*
X132991661Y-102362242D01*
X133505303Y-102150010D01*
X133898629Y-101757370D01*
X133984949Y-101549488D01*
X134069990Y-101755303D01*
X134462630Y-102148629D01*
X134975900Y-102361757D01*
X135531661Y-102362242D01*
X136045303Y-102150010D01*
X136438629Y-101757370D01*
X136524949Y-101549488D01*
X136609990Y-101755303D01*
X137002630Y-102148629D01*
X137515900Y-102361757D01*
X138071661Y-102362242D01*
X138585303Y-102150010D01*
X138978629Y-101757370D01*
X139191757Y-101244100D01*
X139192242Y-100688339D01*
X138980010Y-100174697D01*
X138587370Y-99781371D01*
X138074100Y-99568243D01*
X137518339Y-99567758D01*
X137004697Y-99779990D01*
X136611371Y-100172630D01*
X136525051Y-100380512D01*
X136440010Y-100174697D01*
X136047370Y-99781371D01*
X135534100Y-99568243D01*
X134978339Y-99567758D01*
X134464697Y-99779990D01*
X134071371Y-100172630D01*
X133985051Y-100380512D01*
X133900010Y-100174697D01*
X133507370Y-99781371D01*
X132994100Y-99568243D01*
X132438339Y-99567758D01*
X131924697Y-99779990D01*
X131531371Y-100172630D01*
X131445051Y-100380512D01*
X131360010Y-100174697D01*
X130967370Y-99781371D01*
X130454100Y-99568243D01*
X129898339Y-99567758D01*
X129384697Y-99779990D01*
X128991371Y-100172630D01*
X128778243Y-100685900D01*
X128777758Y-101241661D01*
X123541011Y-101241661D01*
X123306894Y-100675057D01*
X122847363Y-100214722D01*
X122246648Y-99965284D01*
X121596205Y-99964716D01*
X120995057Y-100213106D01*
X120534722Y-100672637D01*
X120285284Y-101273352D01*
X120284716Y-101923795D01*
X111200000Y-101923795D01*
X111200000Y-93621661D01*
X128777758Y-93621661D01*
X128989990Y-94135303D01*
X129382630Y-94528629D01*
X129895900Y-94741757D01*
X130451661Y-94742242D01*
X130965303Y-94530010D01*
X131170457Y-94325213D01*
X131914392Y-94325213D01*
X131983857Y-94567397D01*
X132507302Y-94754144D01*
X133062368Y-94726362D01*
X133446143Y-94567397D01*
X133515608Y-94325213D01*
X132715000Y-93524605D01*
X131914392Y-94325213D01*
X131170457Y-94325213D01*
X131358629Y-94137370D01*
X131438395Y-93945273D01*
X131492603Y-94076143D01*
X131734787Y-94145608D01*
X132535395Y-93345000D01*
X132894605Y-93345000D01*
X133695213Y-94145608D01*
X133937397Y-94076143D01*
X133987509Y-93935682D01*
X134069990Y-94135303D01*
X134462630Y-94528629D01*
X134975900Y-94741757D01*
X135531661Y-94742242D01*
X136045303Y-94530010D01*
X136250457Y-94325213D01*
X136994392Y-94325213D01*
X137063857Y-94567397D01*
X137587302Y-94754144D01*
X138142368Y-94726362D01*
X138526143Y-94567397D01*
X138595608Y-94325213D01*
X137795000Y-93524605D01*
X136994392Y-94325213D01*
X136250457Y-94325213D01*
X136438629Y-94137370D01*
X136518395Y-93945273D01*
X136572603Y-94076143D01*
X136814787Y-94145608D01*
X137615395Y-93345000D01*
X137974605Y-93345000D01*
X138775213Y-94145608D01*
X139017397Y-94076143D01*
X139204144Y-93552698D01*
X139176362Y-92997632D01*
X139017397Y-92613857D01*
X138775213Y-92544392D01*
X137974605Y-93345000D01*
X137615395Y-93345000D01*
X136814787Y-92544392D01*
X136572603Y-92613857D01*
X136522491Y-92754318D01*
X136440010Y-92554697D01*
X136250432Y-92364787D01*
X136994392Y-92364787D01*
X137795000Y-93165395D01*
X138595608Y-92364787D01*
X138526143Y-92122603D01*
X138002698Y-91935856D01*
X137447632Y-91963638D01*
X137063857Y-92122603D01*
X136994392Y-92364787D01*
X136250432Y-92364787D01*
X136047370Y-92161371D01*
X135534100Y-91948243D01*
X134978339Y-91947758D01*
X134464697Y-92159990D01*
X134071371Y-92552630D01*
X133991605Y-92744727D01*
X133937397Y-92613857D01*
X133695213Y-92544392D01*
X132894605Y-93345000D01*
X132535395Y-93345000D01*
X131734787Y-92544392D01*
X131492603Y-92613857D01*
X131442491Y-92754318D01*
X131360010Y-92554697D01*
X131170432Y-92364787D01*
X131914392Y-92364787D01*
X132715000Y-93165395D01*
X133515608Y-92364787D01*
X133446143Y-92122603D01*
X132922698Y-91935856D01*
X132367632Y-91963638D01*
X131983857Y-92122603D01*
X131914392Y-92364787D01*
X131170432Y-92364787D01*
X130967370Y-92161371D01*
X130454100Y-91948243D01*
X129898339Y-91947758D01*
X129384697Y-92159990D01*
X128991371Y-92552630D01*
X128778243Y-93065900D01*
X128777758Y-93621661D01*
X111200000Y-93621661D01*
X111200000Y-91322532D01*
X123487073Y-91322532D01*
X123585736Y-91589387D01*
X124195461Y-91815908D01*
X124845460Y-91791856D01*
X125334264Y-91589387D01*
X125432927Y-91322532D01*
X124460000Y-90349605D01*
X123487073Y-91322532D01*
X111200000Y-91322532D01*
X111200000Y-88171638D01*
X116644526Y-88171638D01*
X117060028Y-89177229D01*
X117828724Y-89947268D01*
X118833588Y-90364524D01*
X119921638Y-90365474D01*
X120927229Y-89949972D01*
X120971817Y-89905461D01*
X122814092Y-89905461D01*
X122838144Y-90555460D01*
X123040613Y-91044264D01*
X123307468Y-91142927D01*
X124280395Y-90170000D01*
X124639605Y-90170000D01*
X125612532Y-91142927D01*
X125879387Y-91044264D01*
X126105908Y-90434539D01*
X126081856Y-89784540D01*
X125879387Y-89295736D01*
X125612532Y-89197073D01*
X124639605Y-90170000D01*
X124280395Y-90170000D01*
X123307468Y-89197073D01*
X123040613Y-89295736D01*
X122814092Y-89905461D01*
X120971817Y-89905461D01*
X121697268Y-89181276D01*
X121765287Y-89017468D01*
X123487073Y-89017468D01*
X124460000Y-89990395D01*
X125432927Y-89017468D01*
X125334264Y-88750613D01*
X124724539Y-88524092D01*
X124074540Y-88548144D01*
X123585736Y-88750613D01*
X123487073Y-89017468D01*
X121765287Y-89017468D01*
X122114524Y-88176412D01*
X122115474Y-87088362D01*
X121699972Y-86082771D01*
X120931276Y-85312732D01*
X119926412Y-84895476D01*
X118838362Y-84894526D01*
X117832771Y-85310028D01*
X117062732Y-86078724D01*
X116645476Y-87083588D01*
X116644526Y-88171638D01*
X111200000Y-88171638D01*
X111200000Y-84143795D01*
X120284716Y-84143795D01*
X120533106Y-84744943D01*
X120992637Y-85205278D01*
X121593352Y-85454716D01*
X122243795Y-85455284D01*
X122844943Y-85206894D01*
X123305278Y-84747363D01*
X123554716Y-84146648D01*
X123555284Y-83496205D01*
X123306894Y-82895057D01*
X122847363Y-82434722D01*
X122246648Y-82185284D01*
X121596205Y-82184716D01*
X120995057Y-82433106D01*
X120534722Y-82892637D01*
X120285284Y-83493352D01*
X120284716Y-84143795D01*
X111200000Y-84143795D01*
X111200000Y-74480167D01*
X129874838Y-74480167D01*
X130016883Y-74823943D01*
X130050000Y-74857118D01*
X130050000Y-84527537D01*
X130017808Y-84559673D01*
X129875162Y-84903201D01*
X129874838Y-85275167D01*
X130016883Y-85618943D01*
X130279673Y-85882192D01*
X130623201Y-86024838D01*
X130995167Y-86025162D01*
X131338943Y-85883117D01*
X131349379Y-85872699D01*
X131377852Y-86015839D01*
X131542599Y-86262401D01*
X135589878Y-90309680D01*
X135589838Y-90355167D01*
X135731883Y-90698943D01*
X135994673Y-90962192D01*
X136338201Y-91104838D01*
X136710167Y-91105162D01*
X137053943Y-90963117D01*
X137317192Y-90700327D01*
X137459838Y-90356799D01*
X137460162Y-89984833D01*
X137318117Y-89641057D01*
X137055327Y-89377808D01*
X136711799Y-89235162D01*
X136664923Y-89235121D01*
X136629894Y-89200092D01*
X136710167Y-89200162D01*
X137053943Y-89058117D01*
X137317192Y-88795327D01*
X137459838Y-88451799D01*
X137460162Y-88079833D01*
X137318117Y-87736057D01*
X137055327Y-87472808D01*
X136711799Y-87330162D01*
X136664923Y-87330121D01*
X134110000Y-84775198D01*
X134110000Y-74857463D01*
X134142192Y-74825327D01*
X134184971Y-74722302D01*
X139560856Y-74722302D01*
X139588638Y-75277368D01*
X139747603Y-75661143D01*
X139989787Y-75730608D01*
X140790395Y-74930000D01*
X141149605Y-74930000D01*
X141950213Y-75730608D01*
X142192397Y-75661143D01*
X142379144Y-75137698D01*
X142351362Y-74582632D01*
X142192397Y-74198857D01*
X141950213Y-74129392D01*
X141149605Y-74930000D01*
X140790395Y-74930000D01*
X139989787Y-74129392D01*
X139747603Y-74198857D01*
X139560856Y-74722302D01*
X134184971Y-74722302D01*
X134284838Y-74481799D01*
X134285162Y-74109833D01*
X134143117Y-73766057D01*
X133880327Y-73502808D01*
X133536799Y-73360162D01*
X133164833Y-73359838D01*
X132821057Y-73501883D01*
X132715046Y-73607710D01*
X132610327Y-73502808D01*
X132266799Y-73360162D01*
X131894833Y-73359838D01*
X131551057Y-73501883D01*
X131445046Y-73607710D01*
X131340327Y-73502808D01*
X130996799Y-73360162D01*
X130624833Y-73359838D01*
X130281057Y-73501883D01*
X130017808Y-73764673D01*
X129875162Y-74108201D01*
X129874838Y-74480167D01*
X111200000Y-74480167D01*
X111200000Y-73542532D01*
X123487073Y-73542532D01*
X123585736Y-73809387D01*
X124195461Y-74035908D01*
X124845460Y-74011856D01*
X125334264Y-73809387D01*
X125432927Y-73542532D01*
X124460000Y-72569605D01*
X123487073Y-73542532D01*
X111200000Y-73542532D01*
X111200000Y-70391638D01*
X116644526Y-70391638D01*
X117060028Y-71397229D01*
X117828724Y-72167268D01*
X118833588Y-72584524D01*
X119921638Y-72585474D01*
X120927229Y-72169972D01*
X120971817Y-72125461D01*
X122814092Y-72125461D01*
X122838144Y-72775460D01*
X123040613Y-73264264D01*
X123307468Y-73362927D01*
X124280395Y-72390000D01*
X124639605Y-72390000D01*
X125612532Y-73362927D01*
X125879387Y-73264264D01*
X126105908Y-72654539D01*
X126081856Y-72004540D01*
X125879387Y-71515736D01*
X125612532Y-71417073D01*
X124639605Y-72390000D01*
X124280395Y-72390000D01*
X123307468Y-71417073D01*
X123040613Y-71515736D01*
X122814092Y-72125461D01*
X120971817Y-72125461D01*
X121697268Y-71401276D01*
X121765287Y-71237468D01*
X123487073Y-71237468D01*
X124460000Y-72210395D01*
X125432927Y-71237468D01*
X125334264Y-70970613D01*
X124724539Y-70744092D01*
X124074540Y-70768144D01*
X123585736Y-70970613D01*
X123487073Y-71237468D01*
X121765287Y-71237468D01*
X122114524Y-70396412D01*
X122115474Y-69308362D01*
X121725685Y-68365000D01*
X128042560Y-68365000D01*
X128042560Y-70065000D01*
X128086838Y-70300317D01*
X128225910Y-70516441D01*
X128438110Y-70661431D01*
X128690000Y-70712440D01*
X130390000Y-70712440D01*
X130625317Y-70668162D01*
X130841441Y-70529090D01*
X130986431Y-70316890D01*
X131000086Y-70249459D01*
X131029946Y-70294147D01*
X131511715Y-70616054D01*
X132080000Y-70729093D01*
X132648285Y-70616054D01*
X133130054Y-70294147D01*
X133350000Y-69964974D01*
X133569946Y-70294147D01*
X134051715Y-70616054D01*
X134620000Y-70729093D01*
X135188285Y-70616054D01*
X135670054Y-70294147D01*
X135897702Y-69953447D01*
X135964817Y-70096358D01*
X136393076Y-70486645D01*
X136803110Y-70656476D01*
X137033000Y-70535155D01*
X137033000Y-69342000D01*
X137287000Y-69342000D01*
X137287000Y-70535155D01*
X137516890Y-70656476D01*
X137926924Y-70486645D01*
X138355183Y-70096358D01*
X138601486Y-69571892D01*
X138480819Y-69342000D01*
X137287000Y-69342000D01*
X137033000Y-69342000D01*
X137013000Y-69342000D01*
X137013000Y-69088000D01*
X137033000Y-69088000D01*
X137033000Y-67894845D01*
X137287000Y-67894845D01*
X137287000Y-69088000D01*
X138480819Y-69088000D01*
X138601486Y-68858108D01*
X138355183Y-68333642D01*
X137926924Y-67943355D01*
X137516890Y-67773524D01*
X137287000Y-67894845D01*
X137033000Y-67894845D01*
X136803110Y-67773524D01*
X136393076Y-67943355D01*
X135964817Y-68333642D01*
X135897702Y-68476553D01*
X135670054Y-68135853D01*
X135188285Y-67813946D01*
X134620000Y-67700907D01*
X134051715Y-67813946D01*
X133569946Y-68135853D01*
X133350000Y-68465026D01*
X133130054Y-68135853D01*
X132648285Y-67813946D01*
X132080000Y-67700907D01*
X131511715Y-67813946D01*
X131029946Y-68135853D01*
X131002150Y-68177452D01*
X130993162Y-68129683D01*
X130854090Y-67913559D01*
X130641890Y-67768569D01*
X130390000Y-67717560D01*
X128690000Y-67717560D01*
X128454683Y-67761838D01*
X128238559Y-67900910D01*
X128093569Y-68113110D01*
X128042560Y-68365000D01*
X121725685Y-68365000D01*
X121699972Y-68302771D01*
X120931276Y-67532732D01*
X119926412Y-67115476D01*
X118838362Y-67114526D01*
X117832771Y-67530028D01*
X117062732Y-68298724D01*
X116645476Y-69303588D01*
X116644526Y-70391638D01*
X111200000Y-70391638D01*
X111200000Y-66363795D01*
X120284716Y-66363795D01*
X120533106Y-66964943D01*
X120992637Y-67425278D01*
X121593352Y-67674716D01*
X122243795Y-67675284D01*
X122844943Y-67426894D01*
X123305278Y-66967363D01*
X123554716Y-66366648D01*
X123555284Y-65716205D01*
X123306894Y-65115057D01*
X122847363Y-64654722D01*
X122246648Y-64405284D01*
X121596205Y-64404716D01*
X120995057Y-64653106D01*
X120534722Y-65112637D01*
X120285284Y-65713352D01*
X120284716Y-66363795D01*
X111200000Y-66363795D01*
X111200000Y-62506661D01*
X139572758Y-62506661D01*
X139784990Y-63020303D01*
X140177630Y-63413629D01*
X140385512Y-63499949D01*
X140179697Y-63584990D01*
X139786371Y-63977630D01*
X139573243Y-64490900D01*
X139572758Y-65046661D01*
X139784990Y-65560303D01*
X140177630Y-65953629D01*
X140385512Y-66039949D01*
X140179697Y-66124990D01*
X139786371Y-66517630D01*
X139573243Y-67030900D01*
X139572758Y-67586661D01*
X139784990Y-68100303D01*
X140177630Y-68493629D01*
X140385512Y-68579949D01*
X140179697Y-68664990D01*
X139786371Y-69057630D01*
X139573243Y-69570900D01*
X139572758Y-70126661D01*
X139784990Y-70640303D01*
X140177630Y-71033629D01*
X140385512Y-71119949D01*
X140179697Y-71204990D01*
X139786371Y-71597630D01*
X139573243Y-72110900D01*
X139572758Y-72666661D01*
X139784990Y-73180303D01*
X140177630Y-73573629D01*
X140369727Y-73653395D01*
X140238857Y-73707603D01*
X140169392Y-73949787D01*
X140970000Y-74750395D01*
X141770608Y-73949787D01*
X141701143Y-73707603D01*
X141560682Y-73657491D01*
X141760303Y-73575010D01*
X142153629Y-73182370D01*
X142366757Y-72669100D01*
X142367210Y-72150000D01*
X144198071Y-72150000D01*
X144333946Y-72833090D01*
X144720885Y-73412186D01*
X145299981Y-73799125D01*
X145983071Y-73935000D01*
X146256929Y-73935000D01*
X146940019Y-73799125D01*
X147519115Y-73412186D01*
X147906054Y-72833090D01*
X148041929Y-72150000D01*
X155628071Y-72150000D01*
X155763946Y-72833090D01*
X156150885Y-73412186D01*
X156729981Y-73799125D01*
X157413071Y-73935000D01*
X157686929Y-73935000D01*
X158370019Y-73799125D01*
X158949115Y-73412186D01*
X159336054Y-72833090D01*
X159471929Y-72150000D01*
X159434058Y-71959610D01*
X159813071Y-72035000D01*
X160086929Y-72035000D01*
X160770019Y-71899125D01*
X161349115Y-71512186D01*
X161736054Y-70933090D01*
X161871929Y-70250000D01*
X161736054Y-69566910D01*
X161349115Y-68987814D01*
X160770019Y-68600875D01*
X160086929Y-68465000D01*
X159813071Y-68465000D01*
X159129981Y-68600875D01*
X158550885Y-68987814D01*
X158163946Y-69566910D01*
X158028071Y-70250000D01*
X158065942Y-70440390D01*
X157686929Y-70365000D01*
X157413071Y-70365000D01*
X156729981Y-70500875D01*
X156150885Y-70887814D01*
X155763946Y-71466910D01*
X155628071Y-72150000D01*
X148041929Y-72150000D01*
X148004058Y-71959610D01*
X148383071Y-72035000D01*
X148656929Y-72035000D01*
X149340019Y-71899125D01*
X149919115Y-71512186D01*
X150306054Y-70933090D01*
X150441929Y-70250000D01*
X150306054Y-69566910D01*
X149919115Y-68987814D01*
X149340019Y-68600875D01*
X148656929Y-68465000D01*
X148383071Y-68465000D01*
X147699981Y-68600875D01*
X147120885Y-68987814D01*
X146733946Y-69566910D01*
X146598071Y-70250000D01*
X146635942Y-70440390D01*
X146256929Y-70365000D01*
X145983071Y-70365000D01*
X145299981Y-70500875D01*
X144720885Y-70887814D01*
X144333946Y-71466910D01*
X144198071Y-72150000D01*
X142367210Y-72150000D01*
X142367242Y-72113339D01*
X142155010Y-71599697D01*
X141762370Y-71206371D01*
X141554488Y-71120051D01*
X141760303Y-71035010D01*
X142153629Y-70642370D01*
X142366757Y-70129100D01*
X142367242Y-69573339D01*
X142155010Y-69059697D01*
X141762370Y-68666371D01*
X141554488Y-68580051D01*
X141760303Y-68495010D01*
X142153629Y-68102370D01*
X142366757Y-67589100D01*
X142367242Y-67033339D01*
X142321777Y-66923305D01*
X144434674Y-66923305D01*
X144721043Y-67616372D01*
X145250839Y-68147093D01*
X145943405Y-68434672D01*
X146693305Y-68435326D01*
X147386372Y-68148957D01*
X147917093Y-67619161D01*
X148204672Y-66926595D01*
X148204674Y-66923305D01*
X155864674Y-66923305D01*
X156151043Y-67616372D01*
X156680839Y-68147093D01*
X157373405Y-68434672D01*
X158123305Y-68435326D01*
X158816372Y-68148957D01*
X159347093Y-67619161D01*
X159634672Y-66926595D01*
X159635326Y-66176695D01*
X159538092Y-65941372D01*
X160175435Y-65924250D01*
X160774467Y-65676123D01*
X160903715Y-65383320D01*
X159750000Y-64229605D01*
X159735858Y-64243748D01*
X159556253Y-64064143D01*
X159570395Y-64050000D01*
X159929605Y-64050000D01*
X161083320Y-65203715D01*
X161376123Y-65074467D01*
X161644388Y-64374194D01*
X161624250Y-63624565D01*
X161376123Y-63025533D01*
X161083320Y-62896285D01*
X159929605Y-64050000D01*
X159570395Y-64050000D01*
X158416680Y-62896285D01*
X158123877Y-63025533D01*
X157855612Y-63725806D01*
X157875750Y-64475435D01*
X157954344Y-64665178D01*
X157376695Y-64664674D01*
X156683628Y-64951043D01*
X156152907Y-65480839D01*
X155865328Y-66173405D01*
X155864674Y-66923305D01*
X148204674Y-66923305D01*
X148205326Y-66176695D01*
X148108092Y-65941372D01*
X148745435Y-65924250D01*
X149344467Y-65676123D01*
X149473715Y-65383320D01*
X148320000Y-64229605D01*
X148305858Y-64243748D01*
X148126253Y-64064143D01*
X148140395Y-64050000D01*
X148499605Y-64050000D01*
X149653320Y-65203715D01*
X149946123Y-65074467D01*
X150214388Y-64374194D01*
X150194250Y-63624565D01*
X149946123Y-63025533D01*
X149653320Y-62896285D01*
X148499605Y-64050000D01*
X148140395Y-64050000D01*
X146986680Y-62896285D01*
X146693877Y-63025533D01*
X146425612Y-63725806D01*
X146445750Y-64475435D01*
X146524344Y-64665178D01*
X145946695Y-64664674D01*
X145253628Y-64951043D01*
X144722907Y-65480839D01*
X144435328Y-66173405D01*
X144434674Y-66923305D01*
X142321777Y-66923305D01*
X142155010Y-66519697D01*
X141762370Y-66126371D01*
X141554488Y-66040051D01*
X141760303Y-65955010D01*
X142153629Y-65562370D01*
X142366757Y-65049100D01*
X142367242Y-64493339D01*
X142155010Y-63979697D01*
X141762370Y-63586371D01*
X141554488Y-63500051D01*
X141760303Y-63415010D01*
X142153629Y-63022370D01*
X142280562Y-62716680D01*
X147166285Y-62716680D01*
X148320000Y-63870395D01*
X149473715Y-62716680D01*
X158596285Y-62716680D01*
X159750000Y-63870395D01*
X160903715Y-62716680D01*
X160811010Y-62506661D01*
X164972758Y-62506661D01*
X165184990Y-63020303D01*
X165577630Y-63413629D01*
X165785512Y-63499949D01*
X165579697Y-63584990D01*
X165186371Y-63977630D01*
X164973243Y-64490900D01*
X164972758Y-65046661D01*
X165184990Y-65560303D01*
X165577630Y-65953629D01*
X165785512Y-66039949D01*
X165579697Y-66124990D01*
X165186371Y-66517630D01*
X164973243Y-67030900D01*
X164972758Y-67586661D01*
X165184990Y-68100303D01*
X165577630Y-68493629D01*
X165785512Y-68579949D01*
X165579697Y-68664990D01*
X165186371Y-69057630D01*
X164973243Y-69570900D01*
X164972758Y-70126661D01*
X165184990Y-70640303D01*
X165577630Y-71033629D01*
X165785512Y-71119949D01*
X165579697Y-71204990D01*
X165186371Y-71597630D01*
X164973243Y-72110900D01*
X164972758Y-72666661D01*
X165184990Y-73180303D01*
X165577630Y-73573629D01*
X165785512Y-73659949D01*
X165579697Y-73744990D01*
X165186371Y-74137630D01*
X164973243Y-74650900D01*
X164972758Y-75206661D01*
X165184990Y-75720303D01*
X165577630Y-76113629D01*
X165785512Y-76199949D01*
X165579697Y-76284990D01*
X165186371Y-76677630D01*
X164973243Y-77190900D01*
X164972758Y-77746661D01*
X165184990Y-78260303D01*
X165577630Y-78653629D01*
X165785512Y-78739949D01*
X165579697Y-78824990D01*
X165186371Y-79217630D01*
X164973243Y-79730900D01*
X164972758Y-80286661D01*
X165184990Y-80800303D01*
X165577630Y-81193629D01*
X165785512Y-81279949D01*
X165579697Y-81364990D01*
X165186371Y-81757630D01*
X164973243Y-82270900D01*
X164972758Y-82826661D01*
X165184990Y-83340303D01*
X165577630Y-83733629D01*
X165785512Y-83819949D01*
X165579697Y-83904990D01*
X165186371Y-84297630D01*
X164973243Y-84810900D01*
X164972758Y-85366661D01*
X165184990Y-85880303D01*
X165577630Y-86273629D01*
X165785512Y-86359949D01*
X165579697Y-86444990D01*
X165186371Y-86837630D01*
X164973243Y-87350900D01*
X164972758Y-87906661D01*
X165184990Y-88420303D01*
X165577630Y-88813629D01*
X165785512Y-88899949D01*
X165579697Y-88984990D01*
X165186371Y-89377630D01*
X164973243Y-89890900D01*
X164972758Y-90446661D01*
X165184990Y-90960303D01*
X165577630Y-91353629D01*
X165769727Y-91433395D01*
X165638857Y-91487603D01*
X165569392Y-91729787D01*
X166370000Y-92530395D01*
X167136600Y-91763795D01*
X172354716Y-91763795D01*
X172603106Y-92364943D01*
X173062637Y-92825278D01*
X173663352Y-93074716D01*
X174313795Y-93075284D01*
X174914943Y-92826894D01*
X175375278Y-92367363D01*
X175624716Y-91766648D01*
X175625284Y-91116205D01*
X175376894Y-90515057D01*
X174917363Y-90054722D01*
X174316648Y-89805284D01*
X173666205Y-89804716D01*
X173065057Y-90053106D01*
X172604722Y-90512637D01*
X172355284Y-91113352D01*
X172354716Y-91763795D01*
X167136600Y-91763795D01*
X167170608Y-91729787D01*
X167101143Y-91487603D01*
X166960682Y-91437491D01*
X167160303Y-91355010D01*
X167553629Y-90962370D01*
X167766757Y-90449100D01*
X167767242Y-89893339D01*
X167555010Y-89379697D01*
X167162370Y-88986371D01*
X166954488Y-88900051D01*
X167160303Y-88815010D01*
X167553629Y-88422370D01*
X167657741Y-88171638D01*
X173794526Y-88171638D01*
X174210028Y-89177229D01*
X174978724Y-89947268D01*
X175983588Y-90364524D01*
X177071638Y-90365474D01*
X178077229Y-89949972D01*
X178847268Y-89181276D01*
X179264524Y-88176412D01*
X179265474Y-87088362D01*
X178849972Y-86082771D01*
X178081276Y-85312732D01*
X177076412Y-84895476D01*
X175988362Y-84894526D01*
X174982771Y-85310028D01*
X174212732Y-86078724D01*
X173795476Y-87083588D01*
X173794526Y-88171638D01*
X167657741Y-88171638D01*
X167766757Y-87909100D01*
X167767242Y-87353339D01*
X167555010Y-86839697D01*
X167162370Y-86446371D01*
X166954488Y-86360051D01*
X167160303Y-86275010D01*
X167192837Y-86242532D01*
X170477073Y-86242532D01*
X170575736Y-86509387D01*
X171185461Y-86735908D01*
X171835460Y-86711856D01*
X172324264Y-86509387D01*
X172422927Y-86242532D01*
X171450000Y-85269605D01*
X170477073Y-86242532D01*
X167192837Y-86242532D01*
X167553629Y-85882370D01*
X167766757Y-85369100D01*
X167767231Y-84825461D01*
X169804092Y-84825461D01*
X169828144Y-85475460D01*
X170030613Y-85964264D01*
X170297468Y-86062927D01*
X171270395Y-85090000D01*
X171629605Y-85090000D01*
X172602532Y-86062927D01*
X172869387Y-85964264D01*
X173095908Y-85354539D01*
X173071856Y-84704540D01*
X172869387Y-84215736D01*
X172602532Y-84117073D01*
X171629605Y-85090000D01*
X171270395Y-85090000D01*
X170297468Y-84117073D01*
X170030613Y-84215736D01*
X169804092Y-84825461D01*
X167767231Y-84825461D01*
X167767242Y-84813339D01*
X167555010Y-84299697D01*
X167193413Y-83937468D01*
X170477073Y-83937468D01*
X171450000Y-84910395D01*
X172422927Y-83937468D01*
X172324264Y-83670613D01*
X171714539Y-83444092D01*
X171064540Y-83468144D01*
X170575736Y-83670613D01*
X170477073Y-83937468D01*
X167193413Y-83937468D01*
X167162370Y-83906371D01*
X166954488Y-83820051D01*
X167160303Y-83735010D01*
X167553629Y-83342370D01*
X167766757Y-82829100D01*
X167767242Y-82273339D01*
X167555010Y-81759697D01*
X167162370Y-81366371D01*
X166954488Y-81280051D01*
X167160303Y-81195010D01*
X167553629Y-80802370D01*
X167766757Y-80289100D01*
X167767242Y-79733339D01*
X167555010Y-79219697D01*
X167162370Y-78826371D01*
X166954488Y-78740051D01*
X167160303Y-78655010D01*
X167553629Y-78262370D01*
X167766757Y-77749100D01*
X167767242Y-77193339D01*
X167555010Y-76679697D01*
X167162370Y-76286371D01*
X166954488Y-76200051D01*
X167160303Y-76115010D01*
X167553629Y-75722370D01*
X167766757Y-75209100D01*
X167767242Y-74653339D01*
X167555010Y-74139697D01*
X167399380Y-73983795D01*
X172354716Y-73983795D01*
X172603106Y-74584943D01*
X173062637Y-75045278D01*
X173663352Y-75294716D01*
X174313795Y-75295284D01*
X174914943Y-75046894D01*
X175375278Y-74587363D01*
X175624716Y-73986648D01*
X175625284Y-73336205D01*
X175376894Y-72735057D01*
X174917363Y-72274722D01*
X174316648Y-72025284D01*
X173666205Y-72024716D01*
X173065057Y-72273106D01*
X172604722Y-72732637D01*
X172355284Y-73333352D01*
X172354716Y-73983795D01*
X167399380Y-73983795D01*
X167162370Y-73746371D01*
X166954488Y-73660051D01*
X167160303Y-73575010D01*
X167553629Y-73182370D01*
X167766757Y-72669100D01*
X167767242Y-72113339D01*
X167555010Y-71599697D01*
X167162370Y-71206371D01*
X166954488Y-71120051D01*
X167160303Y-71035010D01*
X167553629Y-70642370D01*
X167657741Y-70391638D01*
X173794526Y-70391638D01*
X174210028Y-71397229D01*
X174978724Y-72167268D01*
X175983588Y-72584524D01*
X177071638Y-72585474D01*
X178077229Y-72169972D01*
X178847268Y-71401276D01*
X179264524Y-70396412D01*
X179265474Y-69308362D01*
X178849972Y-68302771D01*
X178081276Y-67532732D01*
X177076412Y-67115476D01*
X175988362Y-67114526D01*
X174982771Y-67530028D01*
X174212732Y-68298724D01*
X173795476Y-69303588D01*
X173794526Y-70391638D01*
X167657741Y-70391638D01*
X167766757Y-70129100D01*
X167767242Y-69573339D01*
X167555010Y-69059697D01*
X167162370Y-68666371D01*
X166954488Y-68580051D01*
X167160303Y-68495010D01*
X167192837Y-68462532D01*
X170477073Y-68462532D01*
X170575736Y-68729387D01*
X171185461Y-68955908D01*
X171835460Y-68931856D01*
X172324264Y-68729387D01*
X172422927Y-68462532D01*
X171450000Y-67489605D01*
X170477073Y-68462532D01*
X167192837Y-68462532D01*
X167553629Y-68102370D01*
X167766757Y-67589100D01*
X167767231Y-67045461D01*
X169804092Y-67045461D01*
X169828144Y-67695460D01*
X170030613Y-68184264D01*
X170297468Y-68282927D01*
X171270395Y-67310000D01*
X171629605Y-67310000D01*
X172602532Y-68282927D01*
X172869387Y-68184264D01*
X173095908Y-67574539D01*
X173071856Y-66924540D01*
X172869387Y-66435736D01*
X172602532Y-66337073D01*
X171629605Y-67310000D01*
X171270395Y-67310000D01*
X170297468Y-66337073D01*
X170030613Y-66435736D01*
X169804092Y-67045461D01*
X167767231Y-67045461D01*
X167767242Y-67033339D01*
X167555010Y-66519697D01*
X167193413Y-66157468D01*
X170477073Y-66157468D01*
X171450000Y-67130395D01*
X172422927Y-66157468D01*
X172324264Y-65890613D01*
X171714539Y-65664092D01*
X171064540Y-65688144D01*
X170575736Y-65890613D01*
X170477073Y-66157468D01*
X167193413Y-66157468D01*
X167162370Y-66126371D01*
X166954488Y-66040051D01*
X167160303Y-65955010D01*
X167553629Y-65562370D01*
X167766757Y-65049100D01*
X167767242Y-64493339D01*
X167555010Y-63979697D01*
X167162370Y-63586371D01*
X166954488Y-63500051D01*
X167160303Y-63415010D01*
X167553629Y-63022370D01*
X167766757Y-62509100D01*
X167767242Y-61953339D01*
X167555010Y-61439697D01*
X167162370Y-61046371D01*
X166649100Y-60833243D01*
X166093339Y-60832758D01*
X165579697Y-61044990D01*
X165186371Y-61437630D01*
X164973243Y-61950900D01*
X164972758Y-62506661D01*
X160811010Y-62506661D01*
X160774467Y-62423877D01*
X160074194Y-62155612D01*
X159324565Y-62175750D01*
X158725533Y-62423877D01*
X158596285Y-62716680D01*
X149473715Y-62716680D01*
X149344467Y-62423877D01*
X148644194Y-62155612D01*
X147894565Y-62175750D01*
X147295533Y-62423877D01*
X147166285Y-62716680D01*
X142280562Y-62716680D01*
X142366757Y-62509100D01*
X142367242Y-61953339D01*
X142155010Y-61439697D01*
X141762370Y-61046371D01*
X141249100Y-60833243D01*
X140693339Y-60832758D01*
X140179697Y-61044990D01*
X139786371Y-61437630D01*
X139573243Y-61950900D01*
X139572758Y-62506661D01*
X111200000Y-62506661D01*
X111200000Y-60400000D01*
X184710000Y-60400000D01*
X184710000Y-151690000D01*
M02*
