M48
;DRILL file {KiCad 4.0.1-stable} date 2020/11/03 12:41:20
;FORMAT={-:-/ absolute / inch / decimal}
FMAT,2
INCH,TZ
T1C0.016
T2C0.031
T3C0.035
T4C0.039
T5C0.047
T6C0.055
T7C0.067
T8C0.157
%
G90
G05
M72
T1
X5.15Y-2.925
X5.15Y-3.35
X5.2Y-2.925
X5.25Y-2.925
X5.325Y-4.25
X5.375Y-3.475
X5.375Y-3.55
X5.375Y-4.75
X5.475Y-4.575
X5.8Y-3.85
X5.8Y-4.625
X5.8Y-4.7
X5.8Y-5.1
X5.85Y-3.8
X5.85Y-5.325
X6.Y-5.1
X6.025Y-4.625
X6.025Y-4.7
X6.05Y-3.8
X6.05Y-3.85
X6.2Y-5.325
X6.425Y-4.15
T2
X5.175Y-4.3
X5.175Y-4.3787
X5.175Y-4.4575
X6.0388Y-5.425
X6.1175Y-5.425
X6.16Y-5.9
X6.1963Y-5.425
X6.2388Y-5.9
X6.275Y-5.425
X6.3175Y-5.9
X6.3963Y-5.9
X6.475Y-5.9
T3
X5.125Y-3.675
X5.125Y-3.975
X5.225Y-3.675
X5.225Y-3.975
X5.325Y-3.675
X5.325Y-3.975
X5.425Y-3.675
X5.425Y-3.975
T4
X4.8175Y-5.9047
X4.975Y-5.9047
X5.1Y-2.725
X5.125Y-5.325
X5.125Y-5.425
X5.125Y-5.675
X5.125Y-5.775
X5.1325Y-5.9047
X5.2Y-2.725
X5.3Y-2.725
X5.4Y-2.725
X5.55Y-2.45
X5.55Y-2.55
X5.55Y-2.65
X5.55Y-2.75
X5.55Y-2.85
X5.55Y-2.95
X5.55Y-3.05
X5.55Y-3.15
X5.55Y-3.25
X5.55Y-3.35
X5.55Y-3.45
X5.55Y-3.55
X5.55Y-3.65
X5.55Y-3.75
X5.55Y-3.85
X5.55Y-3.95
X5.55Y-4.05
X5.55Y-4.15
X5.55Y-4.25
X5.825Y-3.55
X5.825Y-3.65
X5.95Y-3.1
X6.05Y-3.1
X6.2Y-3.1
X6.3Y-3.1
X6.55Y-2.45
X6.55Y-2.55
X6.55Y-2.65
X6.55Y-2.75
X6.55Y-2.85
X6.55Y-2.95
X6.55Y-3.05
X6.55Y-3.15
X6.55Y-3.25
X6.55Y-3.35
X6.55Y-3.45
X6.55Y-3.55
X6.55Y-3.65
X6.55Y-3.75
X6.55Y-3.85
X6.55Y-3.95
X6.55Y-4.05
X6.55Y-4.15
X6.55Y-4.25
T5
X4.8Y-2.6
X4.8Y-3.3
X4.8Y-4.
X4.8Y-4.7
X4.8Y-5.4
X4.9Y-2.85
X4.9Y-3.55
X4.9Y-4.25
X4.9Y-4.95
X4.9Y-5.65
X5.4Y-5.
X5.4Y-5.65
X5.65Y-5.1
X5.65Y-5.75
X6.025Y-4.4047
X6.025Y-4.9953
X6.75Y-2.65
X6.75Y-3.35
X6.75Y-4.05
X6.75Y-4.75
X6.75Y-5.45
X6.85Y-2.9
X6.85Y-3.6
X6.85Y-4.3
X6.85Y-5.
X6.85Y-5.7
T6
X4.7781Y-6.2984
X5.1719Y-6.2984
T7
X5.7606Y-2.6201
X5.7606Y-2.8406
X5.8394Y-2.5217
X5.8394Y-2.7657
X5.8394Y-2.9862
X6.2106Y-2.6201
X6.2106Y-2.8406
X6.2894Y-2.5217
X6.2894Y-2.7657
X6.2894Y-2.9862
T8
X4.7Y-2.75
X4.7Y-3.45
X4.7Y-4.15
X4.7Y-4.85
X4.7Y-5.55
X5.55Y-4.9
X5.55Y-5.55
X6.95Y-2.75
X6.95Y-3.45
X6.95Y-4.15
X6.95Y-4.85
X6.95Y-5.55
T0
M30
