%TF.GenerationSoftware,KiCad,Pcbnew,(5.1.8)-1*%
%TF.CreationDate,2021-11-23T00:18:45+09:00*%
%TF.ProjectId,pc1245,70633132-3435-42e6-9b69-6361645f7063,rev?*%
%TF.SameCoordinates,Original*%
%TF.FileFunction,Legend,Top*%
%TF.FilePolarity,Positive*%
%FSLAX46Y46*%
G04 Gerber Fmt 4.6, Leading zero omitted, Abs format (unit mm)*
G04 Created by KiCad (PCBNEW (5.1.8)-1) date 2021-11-23 00:18:45*
%MOMM*%
%LPD*%
G01*
G04 APERTURE LIST*
%ADD10C,0.150000*%
%ADD11C,0.120000*%
G04 APERTURE END LIST*
D10*
X172023809Y-75802380D02*
X172023809Y-74802380D01*
X172404761Y-74802380D01*
X172500000Y-74850000D01*
X172547619Y-74897619D01*
X172595238Y-74992857D01*
X172595238Y-75135714D01*
X172547619Y-75230952D01*
X172500000Y-75278571D01*
X172404761Y-75326190D01*
X172023809Y-75326190D01*
X173595238Y-75707142D02*
X173547619Y-75754761D01*
X173404761Y-75802380D01*
X173309523Y-75802380D01*
X173166666Y-75754761D01*
X173071428Y-75659523D01*
X173023809Y-75564285D01*
X172976190Y-75373809D01*
X172976190Y-75230952D01*
X173023809Y-75040476D01*
X173071428Y-74945238D01*
X173166666Y-74850000D01*
X173309523Y-74802380D01*
X173404761Y-74802380D01*
X173547619Y-74850000D01*
X173595238Y-74897619D01*
X174023809Y-75421428D02*
X174785714Y-75421428D01*
X175785714Y-75802380D02*
X175214285Y-75802380D01*
X175500000Y-75802380D02*
X175500000Y-74802380D01*
X175404761Y-74945238D01*
X175309523Y-75040476D01*
X175214285Y-75088095D01*
X176166666Y-74897619D02*
X176214285Y-74850000D01*
X176309523Y-74802380D01*
X176547619Y-74802380D01*
X176642857Y-74850000D01*
X176690476Y-74897619D01*
X176738095Y-74992857D01*
X176738095Y-75088095D01*
X176690476Y-75230952D01*
X176119047Y-75802380D01*
X176738095Y-75802380D01*
X177595238Y-75135714D02*
X177595238Y-75802380D01*
X177357142Y-74754761D02*
X177119047Y-75469047D01*
X177738095Y-75469047D01*
X178595238Y-74802380D02*
X178119047Y-74802380D01*
X178071428Y-75278571D01*
X178119047Y-75230952D01*
X178214285Y-75183333D01*
X178452380Y-75183333D01*
X178547619Y-75230952D01*
X178595238Y-75278571D01*
X178642857Y-75373809D01*
X178642857Y-75611904D01*
X178595238Y-75707142D01*
X178547619Y-75754761D01*
X178452380Y-75802380D01*
X178214285Y-75802380D01*
X178119047Y-75754761D01*
X178071428Y-75707142D01*
X180404761Y-75802380D02*
X180071428Y-75326190D01*
X179833333Y-75802380D02*
X179833333Y-74802380D01*
X180214285Y-74802380D01*
X180309523Y-74850000D01*
X180357142Y-74897619D01*
X180404761Y-74992857D01*
X180404761Y-75135714D01*
X180357142Y-75230952D01*
X180309523Y-75278571D01*
X180214285Y-75326190D01*
X179833333Y-75326190D01*
X181214285Y-75754761D02*
X181119047Y-75802380D01*
X180928571Y-75802380D01*
X180833333Y-75754761D01*
X180785714Y-75659523D01*
X180785714Y-75278571D01*
X180833333Y-75183333D01*
X180928571Y-75135714D01*
X181119047Y-75135714D01*
X181214285Y-75183333D01*
X181261904Y-75278571D01*
X181261904Y-75373809D01*
X180785714Y-75469047D01*
X181595238Y-75135714D02*
X181833333Y-75802380D01*
X182071428Y-75135714D01*
X182452380Y-75802380D02*
X182452380Y-75135714D01*
X182452380Y-74802380D02*
X182404761Y-74850000D01*
X182452380Y-74897619D01*
X182500000Y-74850000D01*
X182452380Y-74802380D01*
X182452380Y-74897619D01*
X182833333Y-75135714D02*
X183071428Y-75802380D01*
X183309523Y-75135714D01*
X184071428Y-75754761D02*
X183976190Y-75802380D01*
X183785714Y-75802380D01*
X183690476Y-75754761D01*
X183642857Y-75659523D01*
X183642857Y-75278571D01*
X183690476Y-75183333D01*
X183785714Y-75135714D01*
X183976190Y-75135714D01*
X184071428Y-75183333D01*
X184119047Y-75278571D01*
X184119047Y-75373809D01*
X183642857Y-75469047D01*
X184976190Y-75802380D02*
X184976190Y-74802380D01*
X184976190Y-75754761D02*
X184880952Y-75802380D01*
X184690476Y-75802380D01*
X184595238Y-75754761D01*
X184547619Y-75707142D01*
X184500000Y-75611904D01*
X184500000Y-75326190D01*
X184547619Y-75230952D01*
X184595238Y-75183333D01*
X184690476Y-75135714D01*
X184880952Y-75135714D01*
X184976190Y-75183333D01*
X173833333Y-76547619D02*
X173880952Y-76500000D01*
X173976190Y-76452380D01*
X174214285Y-76452380D01*
X174309523Y-76500000D01*
X174357142Y-76547619D01*
X174404761Y-76642857D01*
X174404761Y-76738095D01*
X174357142Y-76880952D01*
X173785714Y-77452380D01*
X174404761Y-77452380D01*
X175023809Y-76452380D02*
X175119047Y-76452380D01*
X175214285Y-76500000D01*
X175261904Y-76547619D01*
X175309523Y-76642857D01*
X175357142Y-76833333D01*
X175357142Y-77071428D01*
X175309523Y-77261904D01*
X175261904Y-77357142D01*
X175214285Y-77404761D01*
X175119047Y-77452380D01*
X175023809Y-77452380D01*
X174928571Y-77404761D01*
X174880952Y-77357142D01*
X174833333Y-77261904D01*
X174785714Y-77071428D01*
X174785714Y-76833333D01*
X174833333Y-76642857D01*
X174880952Y-76547619D01*
X174928571Y-76500000D01*
X175023809Y-76452380D01*
X175738095Y-76547619D02*
X175785714Y-76500000D01*
X175880952Y-76452380D01*
X176119047Y-76452380D01*
X176214285Y-76500000D01*
X176261904Y-76547619D01*
X176309523Y-76642857D01*
X176309523Y-76738095D01*
X176261904Y-76880952D01*
X175690476Y-77452380D01*
X176309523Y-77452380D01*
X177261904Y-77452380D02*
X176690476Y-77452380D01*
X176976190Y-77452380D02*
X176976190Y-76452380D01*
X176880952Y-76595238D01*
X176785714Y-76690476D01*
X176690476Y-76738095D01*
X178404761Y-76404761D02*
X177547619Y-77690476D01*
X179261904Y-77452380D02*
X178690476Y-77452380D01*
X178976190Y-77452380D02*
X178976190Y-76452380D01*
X178880952Y-76595238D01*
X178785714Y-76690476D01*
X178690476Y-76738095D01*
X180214285Y-77452380D02*
X179642857Y-77452380D01*
X179928571Y-77452380D02*
X179928571Y-76452380D01*
X179833333Y-76595238D01*
X179738095Y-76690476D01*
X179642857Y-76738095D01*
X181357142Y-76404761D02*
X180500000Y-77690476D01*
X181642857Y-76547619D02*
X181690476Y-76500000D01*
X181785714Y-76452380D01*
X182023809Y-76452380D01*
X182119047Y-76500000D01*
X182166666Y-76547619D01*
X182214285Y-76642857D01*
X182214285Y-76738095D01*
X182166666Y-76880952D01*
X181595238Y-77452380D01*
X182214285Y-77452380D01*
X182547619Y-76452380D02*
X183166666Y-76452380D01*
X182833333Y-76833333D01*
X182976190Y-76833333D01*
X183071428Y-76880952D01*
X183119047Y-76928571D01*
X183166666Y-77023809D01*
X183166666Y-77261904D01*
X183119047Y-77357142D01*
X183071428Y-77404761D01*
X182976190Y-77452380D01*
X182690476Y-77452380D01*
X182595238Y-77404761D01*
X182547619Y-77357142D01*
X174809523Y-78626190D02*
X174761904Y-78578571D01*
X174666666Y-78530952D01*
X174571428Y-78530952D01*
X174476190Y-78578571D01*
X174428571Y-78626190D01*
X174380952Y-78721428D01*
X174380952Y-78816666D01*
X174428571Y-78911904D01*
X174476190Y-78959523D01*
X174571428Y-79007142D01*
X174666666Y-79007142D01*
X174761904Y-78959523D01*
X174809523Y-78911904D01*
X174809523Y-78530952D02*
X174809523Y-78911904D01*
X174857142Y-78959523D01*
X174904761Y-78959523D01*
X175000000Y-78911904D01*
X175047619Y-78816666D01*
X175047619Y-78578571D01*
X174952380Y-78435714D01*
X174809523Y-78340476D01*
X174619047Y-78292857D01*
X174428571Y-78340476D01*
X174285714Y-78435714D01*
X174190476Y-78578571D01*
X174142857Y-78769047D01*
X174190476Y-78959523D01*
X174285714Y-79102380D01*
X174428571Y-79197619D01*
X174619047Y-79245238D01*
X174809523Y-79197619D01*
X174952380Y-79102380D01*
X175666666Y-78102380D02*
X175857142Y-78102380D01*
X175952380Y-78150000D01*
X176047619Y-78245238D01*
X176095238Y-78435714D01*
X176095238Y-78769047D01*
X176047619Y-78959523D01*
X175952380Y-79054761D01*
X175857142Y-79102380D01*
X175666666Y-79102380D01*
X175571428Y-79054761D01*
X175476190Y-78959523D01*
X175428571Y-78769047D01*
X175428571Y-78435714D01*
X175476190Y-78245238D01*
X175571428Y-78150000D01*
X175666666Y-78102380D01*
X176380952Y-78435714D02*
X176761904Y-78435714D01*
X176523809Y-78102380D02*
X176523809Y-78959523D01*
X176571428Y-79054761D01*
X176666666Y-79102380D01*
X176761904Y-79102380D01*
X177238095Y-79102380D02*
X177142857Y-79054761D01*
X177095238Y-79007142D01*
X177047619Y-78911904D01*
X177047619Y-78626190D01*
X177095238Y-78530952D01*
X177142857Y-78483333D01*
X177238095Y-78435714D01*
X177380952Y-78435714D01*
X177476190Y-78483333D01*
X177523809Y-78530952D01*
X177571428Y-78626190D01*
X177571428Y-78911904D01*
X177523809Y-79007142D01*
X177476190Y-79054761D01*
X177380952Y-79102380D01*
X177238095Y-79102380D01*
X178142857Y-79102380D02*
X178047619Y-79054761D01*
X178000000Y-79007142D01*
X177952380Y-78911904D01*
X177952380Y-78626190D01*
X178000000Y-78530952D01*
X178047619Y-78483333D01*
X178142857Y-78435714D01*
X178285714Y-78435714D01*
X178380952Y-78483333D01*
X178428571Y-78530952D01*
X178476190Y-78626190D01*
X178476190Y-78911904D01*
X178428571Y-79007142D01*
X178380952Y-79054761D01*
X178285714Y-79102380D01*
X178142857Y-79102380D01*
X178904761Y-78435714D02*
X178904761Y-79102380D01*
X178904761Y-78530952D02*
X178952380Y-78483333D01*
X179047619Y-78435714D01*
X179190476Y-78435714D01*
X179285714Y-78483333D01*
X179333333Y-78578571D01*
X179333333Y-79102380D01*
X180190476Y-79054761D02*
X180095238Y-79102380D01*
X179904761Y-79102380D01*
X179809523Y-79054761D01*
X179761904Y-78959523D01*
X179761904Y-78578571D01*
X179809523Y-78483333D01*
X179904761Y-78435714D01*
X180095238Y-78435714D01*
X180190476Y-78483333D01*
X180238095Y-78578571D01*
X180238095Y-78673809D01*
X179761904Y-78769047D01*
X180666666Y-79102380D02*
X180666666Y-78102380D01*
X180904761Y-78102380D01*
X181047619Y-78150000D01*
X181142857Y-78245238D01*
X181190476Y-78340476D01*
X181238095Y-78530952D01*
X181238095Y-78673809D01*
X181190476Y-78864285D01*
X181142857Y-78959523D01*
X181047619Y-79054761D01*
X180904761Y-79102380D01*
X180666666Y-79102380D01*
X182047619Y-79054761D02*
X181952380Y-79102380D01*
X181761904Y-79102380D01*
X181666666Y-79054761D01*
X181619047Y-78959523D01*
X181619047Y-78578571D01*
X181666666Y-78483333D01*
X181761904Y-78435714D01*
X181952380Y-78435714D01*
X182047619Y-78483333D01*
X182095238Y-78578571D01*
X182095238Y-78673809D01*
X181619047Y-78769047D01*
X182428571Y-78435714D02*
X182666666Y-79102380D01*
X182904761Y-78435714D01*
D11*
X80500000Y-86500000D02*
X80500000Y-67000000D01*
X156000000Y-86500000D02*
X80500000Y-86500000D01*
X156000000Y-67000000D02*
X156000000Y-86500000D01*
X80500000Y-67000000D02*
X156000000Y-67000000D01*
%TO.C,Display*%
X84470000Y-85670000D02*
X87130000Y-85670000D01*
X84470000Y-70370000D02*
X84470000Y-85670000D01*
X87130000Y-70370000D02*
X87130000Y-85670000D01*
X84470000Y-70370000D02*
X87130000Y-70370000D01*
X84470000Y-69100000D02*
X84470000Y-67770000D01*
X84470000Y-67770000D02*
X85800000Y-67770000D01*
%TO.C,Z*%
D10*
X83666666Y-120452380D02*
X84333333Y-120452380D01*
X83666666Y-121452380D01*
X84333333Y-121452380D01*
%TO.C,A*%
X83261904Y-110666666D02*
X83738095Y-110666666D01*
X83166666Y-110952380D02*
X83500000Y-109952380D01*
X83833333Y-110952380D01*
%TO.C,Q*%
X83880952Y-101547619D02*
X83785714Y-101500000D01*
X83690476Y-101404761D01*
X83547619Y-101261904D01*
X83452380Y-101214285D01*
X83357142Y-101214285D01*
X83404761Y-101452380D02*
X83309523Y-101404761D01*
X83214285Y-101309523D01*
X83166666Y-101119047D01*
X83166666Y-100785714D01*
X83214285Y-100595238D01*
X83309523Y-100500000D01*
X83404761Y-100452380D01*
X83595238Y-100452380D01*
X83690476Y-100500000D01*
X83785714Y-100595238D01*
X83833333Y-100785714D01*
X83833333Y-101119047D01*
X83785714Y-101309523D01*
X83690476Y-101404761D01*
X83595238Y-101452380D01*
X83404761Y-101452380D01*
%TO.C,DEF*%
X83357142Y-92452380D02*
X83357142Y-91452380D01*
X83595238Y-91452380D01*
X83738095Y-91500000D01*
X83833333Y-91595238D01*
X83880952Y-91690476D01*
X83928571Y-91880952D01*
X83928571Y-92023809D01*
X83880952Y-92214285D01*
X83833333Y-92309523D01*
X83738095Y-92404761D01*
X83595238Y-92452380D01*
X83357142Y-92452380D01*
X84357142Y-91928571D02*
X84690476Y-91928571D01*
X84833333Y-92452380D02*
X84357142Y-92452380D01*
X84357142Y-91452380D01*
X84833333Y-91452380D01*
X85595238Y-91928571D02*
X85261904Y-91928571D01*
X85261904Y-92452380D02*
X85261904Y-91452380D01*
X85738095Y-91452380D01*
%TO.C,W*%
X91071428Y-100452380D02*
X91309523Y-101452380D01*
X91500000Y-100738095D01*
X91690476Y-101452380D01*
X91928571Y-100452380D01*
%TO.C,S*%
X91214285Y-110904761D02*
X91357142Y-110952380D01*
X91595238Y-110952380D01*
X91690476Y-110904761D01*
X91738095Y-110857142D01*
X91785714Y-110761904D01*
X91785714Y-110666666D01*
X91738095Y-110571428D01*
X91690476Y-110523809D01*
X91595238Y-110476190D01*
X91404761Y-110428571D01*
X91309523Y-110380952D01*
X91261904Y-110333333D01*
X91214285Y-110238095D01*
X91214285Y-110142857D01*
X91261904Y-110047619D01*
X91309523Y-110000000D01*
X91404761Y-109952380D01*
X91642857Y-109952380D01*
X91785714Y-110000000D01*
%TO.C,X*%
X91166666Y-120452380D02*
X91833333Y-121452380D01*
X91833333Y-120452380D02*
X91166666Y-121452380D01*
%TO.C,C*%
X99809523Y-121357142D02*
X99761904Y-121404761D01*
X99619047Y-121452380D01*
X99523809Y-121452380D01*
X99380952Y-121404761D01*
X99285714Y-121309523D01*
X99238095Y-121214285D01*
X99190476Y-121023809D01*
X99190476Y-120880952D01*
X99238095Y-120690476D01*
X99285714Y-120595238D01*
X99380952Y-120500000D01*
X99523809Y-120452380D01*
X99619047Y-120452380D01*
X99761904Y-120500000D01*
X99809523Y-120547619D01*
%TO.C,D*%
X99238095Y-110952380D02*
X99238095Y-109952380D01*
X99476190Y-109952380D01*
X99619047Y-110000000D01*
X99714285Y-110095238D01*
X99761904Y-110190476D01*
X99809523Y-110380952D01*
X99809523Y-110523809D01*
X99761904Y-110714285D01*
X99714285Y-110809523D01*
X99619047Y-110904761D01*
X99476190Y-110952380D01*
X99238095Y-110952380D01*
%TO.C,E*%
X99285714Y-100928571D02*
X99619047Y-100928571D01*
X99761904Y-101452380D02*
X99285714Y-101452380D01*
X99285714Y-100452380D01*
X99761904Y-100452380D01*
%TO.C,SHIFT*%
X94142857Y-92404761D02*
X94285714Y-92452380D01*
X94523809Y-92452380D01*
X94619047Y-92404761D01*
X94666666Y-92357142D01*
X94714285Y-92261904D01*
X94714285Y-92166666D01*
X94666666Y-92071428D01*
X94619047Y-92023809D01*
X94523809Y-91976190D01*
X94333333Y-91928571D01*
X94238095Y-91880952D01*
X94190476Y-91833333D01*
X94142857Y-91738095D01*
X94142857Y-91642857D01*
X94190476Y-91547619D01*
X94238095Y-91500000D01*
X94333333Y-91452380D01*
X94571428Y-91452380D01*
X94714285Y-91500000D01*
X95142857Y-92452380D02*
X95142857Y-91452380D01*
X95142857Y-91928571D02*
X95714285Y-91928571D01*
X95714285Y-92452380D02*
X95714285Y-91452380D01*
X96190476Y-92452380D02*
X96190476Y-91452380D01*
X97000000Y-91928571D02*
X96666666Y-91928571D01*
X96666666Y-92452380D02*
X96666666Y-91452380D01*
X97142857Y-91452380D01*
X97380952Y-91452380D02*
X97952380Y-91452380D01*
X97666666Y-92452380D02*
X97666666Y-91452380D01*
%TO.C,Down*%
X105809523Y-92452380D02*
X105809523Y-91452380D01*
X106047619Y-91452380D01*
X106190476Y-91500000D01*
X106285714Y-91595238D01*
X106333333Y-91690476D01*
X106380952Y-91880952D01*
X106380952Y-92023809D01*
X106333333Y-92214285D01*
X106285714Y-92309523D01*
X106190476Y-92404761D01*
X106047619Y-92452380D01*
X105809523Y-92452380D01*
X106952380Y-92452380D02*
X106857142Y-92404761D01*
X106809523Y-92357142D01*
X106761904Y-92261904D01*
X106761904Y-91976190D01*
X106809523Y-91880952D01*
X106857142Y-91833333D01*
X106952380Y-91785714D01*
X107095238Y-91785714D01*
X107190476Y-91833333D01*
X107238095Y-91880952D01*
X107285714Y-91976190D01*
X107285714Y-92261904D01*
X107238095Y-92357142D01*
X107190476Y-92404761D01*
X107095238Y-92452380D01*
X106952380Y-92452380D01*
X107619047Y-91785714D02*
X107809523Y-92452380D01*
X108000000Y-91976190D01*
X108190476Y-92452380D01*
X108380952Y-91785714D01*
X108761904Y-91785714D02*
X108761904Y-92452380D01*
X108761904Y-91880952D02*
X108809523Y-91833333D01*
X108904761Y-91785714D01*
X109047619Y-91785714D01*
X109142857Y-91833333D01*
X109190476Y-91928571D01*
X109190476Y-92452380D01*
%TO.C,R*%
X107809523Y-101452380D02*
X107476190Y-100976190D01*
X107238095Y-101452380D02*
X107238095Y-100452380D01*
X107619047Y-100452380D01*
X107714285Y-100500000D01*
X107761904Y-100547619D01*
X107809523Y-100642857D01*
X107809523Y-100785714D01*
X107761904Y-100880952D01*
X107714285Y-100928571D01*
X107619047Y-100976190D01*
X107238095Y-100976190D01*
%TO.C,F*%
X107642857Y-110428571D02*
X107309523Y-110428571D01*
X107309523Y-110952380D02*
X107309523Y-109952380D01*
X107785714Y-109952380D01*
%TO.C,V*%
X107166666Y-120452380D02*
X107500000Y-121452380D01*
X107833333Y-120452380D01*
%TO.C,B*%
X115571428Y-120928571D02*
X115714285Y-120976190D01*
X115761904Y-121023809D01*
X115809523Y-121119047D01*
X115809523Y-121261904D01*
X115761904Y-121357142D01*
X115714285Y-121404761D01*
X115619047Y-121452380D01*
X115238095Y-121452380D01*
X115238095Y-120452380D01*
X115571428Y-120452380D01*
X115666666Y-120500000D01*
X115714285Y-120547619D01*
X115761904Y-120642857D01*
X115761904Y-120738095D01*
X115714285Y-120833333D01*
X115666666Y-120880952D01*
X115571428Y-120928571D01*
X115238095Y-120928571D01*
%TO.C,G*%
X115761904Y-110000000D02*
X115666666Y-109952380D01*
X115523809Y-109952380D01*
X115380952Y-110000000D01*
X115285714Y-110095238D01*
X115238095Y-110190476D01*
X115190476Y-110380952D01*
X115190476Y-110523809D01*
X115238095Y-110714285D01*
X115285714Y-110809523D01*
X115380952Y-110904761D01*
X115523809Y-110952380D01*
X115619047Y-110952380D01*
X115761904Y-110904761D01*
X115809523Y-110857142D01*
X115809523Y-110523809D01*
X115619047Y-110523809D01*
%TO.C,T*%
X115214285Y-100452380D02*
X115785714Y-100452380D01*
X115500000Y-101452380D02*
X115500000Y-100452380D01*
%TO.C,Up*%
X118261904Y-91452380D02*
X118261904Y-92261904D01*
X118309523Y-92357142D01*
X118357142Y-92404761D01*
X118452380Y-92452380D01*
X118642857Y-92452380D01*
X118738095Y-92404761D01*
X118785714Y-92357142D01*
X118833333Y-92261904D01*
X118833333Y-91452380D01*
X119309523Y-91785714D02*
X119309523Y-92785714D01*
X119309523Y-91833333D02*
X119404761Y-91785714D01*
X119595238Y-91785714D01*
X119690476Y-91833333D01*
X119738095Y-91880952D01*
X119785714Y-91976190D01*
X119785714Y-92261904D01*
X119738095Y-92357142D01*
X119690476Y-92404761D01*
X119595238Y-92452380D01*
X119404761Y-92452380D01*
X119309523Y-92404761D01*
%TO.C,N*%
X123214285Y-121452380D02*
X123214285Y-120452380D01*
X123785714Y-121452380D01*
X123785714Y-120452380D01*
%TO.C,H*%
X123214285Y-110952380D02*
X123214285Y-109952380D01*
X123214285Y-110428571D02*
X123785714Y-110428571D01*
X123785714Y-110952380D02*
X123785714Y-109952380D01*
%TO.C,Y*%
X123500000Y-100976190D02*
X123500000Y-101452380D01*
X123166666Y-100452380D02*
X123500000Y-100976190D01*
X123833333Y-100452380D01*
%TO.C,Left*%
X129809523Y-92452380D02*
X129333333Y-92452380D01*
X129333333Y-91452380D01*
X130523809Y-92404761D02*
X130428571Y-92452380D01*
X130238095Y-92452380D01*
X130142857Y-92404761D01*
X130095238Y-92309523D01*
X130095238Y-91928571D01*
X130142857Y-91833333D01*
X130238095Y-91785714D01*
X130428571Y-91785714D01*
X130523809Y-91833333D01*
X130571428Y-91928571D01*
X130571428Y-92023809D01*
X130095238Y-92119047D01*
X130857142Y-91785714D02*
X131238095Y-91785714D01*
X131000000Y-92452380D02*
X131000000Y-91595238D01*
X131047619Y-91500000D01*
X131142857Y-91452380D01*
X131238095Y-91452380D01*
X131428571Y-91785714D02*
X131809523Y-91785714D01*
X131571428Y-91452380D02*
X131571428Y-92309523D01*
X131619047Y-92404761D01*
X131714285Y-92452380D01*
X131809523Y-92452380D01*
%TO.C,U*%
X131214285Y-100452380D02*
X131214285Y-101261904D01*
X131261904Y-101357142D01*
X131309523Y-101404761D01*
X131404761Y-101452380D01*
X131595238Y-101452380D01*
X131690476Y-101404761D01*
X131738095Y-101357142D01*
X131785714Y-101261904D01*
X131785714Y-100452380D01*
%TO.C,J*%
X131642857Y-109952380D02*
X131642857Y-110666666D01*
X131595238Y-110809523D01*
X131500000Y-110904761D01*
X131357142Y-110952380D01*
X131261904Y-110952380D01*
%TO.C,M*%
X131166666Y-121452380D02*
X131166666Y-120452380D01*
X131500000Y-121166666D01*
X131833333Y-120452380D01*
X131833333Y-121452380D01*
%TO.C,SPC*%
X138214285Y-121404761D02*
X138357142Y-121452380D01*
X138595238Y-121452380D01*
X138690476Y-121404761D01*
X138738095Y-121357142D01*
X138785714Y-121261904D01*
X138785714Y-121166666D01*
X138738095Y-121071428D01*
X138690476Y-121023809D01*
X138595238Y-120976190D01*
X138404761Y-120928571D01*
X138309523Y-120880952D01*
X138261904Y-120833333D01*
X138214285Y-120738095D01*
X138214285Y-120642857D01*
X138261904Y-120547619D01*
X138309523Y-120500000D01*
X138404761Y-120452380D01*
X138642857Y-120452380D01*
X138785714Y-120500000D01*
X139214285Y-121452380D02*
X139214285Y-120452380D01*
X139595238Y-120452380D01*
X139690476Y-120500000D01*
X139738095Y-120547619D01*
X139785714Y-120642857D01*
X139785714Y-120785714D01*
X139738095Y-120880952D01*
X139690476Y-120928571D01*
X139595238Y-120976190D01*
X139214285Y-120976190D01*
X140785714Y-121357142D02*
X140738095Y-121404761D01*
X140595238Y-121452380D01*
X140500000Y-121452380D01*
X140357142Y-121404761D01*
X140261904Y-121309523D01*
X140214285Y-121214285D01*
X140166666Y-121023809D01*
X140166666Y-120880952D01*
X140214285Y-120690476D01*
X140261904Y-120595238D01*
X140357142Y-120500000D01*
X140500000Y-120452380D01*
X140595238Y-120452380D01*
X140738095Y-120500000D01*
X140785714Y-120547619D01*
%TO.C,K*%
X139238095Y-110952380D02*
X139238095Y-109952380D01*
X139809523Y-110952380D02*
X139380952Y-110380952D01*
X139809523Y-109952380D02*
X139238095Y-110523809D01*
%TO.C,I*%
X139500000Y-101452380D02*
X139500000Y-100452380D01*
%TO.C,Right*%
X140880952Y-92452380D02*
X140547619Y-91976190D01*
X140309523Y-92452380D02*
X140309523Y-91452380D01*
X140690476Y-91452380D01*
X140785714Y-91500000D01*
X140833333Y-91547619D01*
X140880952Y-91642857D01*
X140880952Y-91785714D01*
X140833333Y-91880952D01*
X140785714Y-91928571D01*
X140690476Y-91976190D01*
X140309523Y-91976190D01*
X141309523Y-92452380D02*
X141309523Y-91785714D01*
X141309523Y-91452380D02*
X141261904Y-91500000D01*
X141309523Y-91547619D01*
X141357142Y-91500000D01*
X141309523Y-91452380D01*
X141309523Y-91547619D01*
X142214285Y-91785714D02*
X142214285Y-92595238D01*
X142166666Y-92690476D01*
X142119047Y-92738095D01*
X142023809Y-92785714D01*
X141880952Y-92785714D01*
X141785714Y-92738095D01*
X142214285Y-92404761D02*
X142119047Y-92452380D01*
X141928571Y-92452380D01*
X141833333Y-92404761D01*
X141785714Y-92357142D01*
X141738095Y-92261904D01*
X141738095Y-91976190D01*
X141785714Y-91880952D01*
X141833333Y-91833333D01*
X141928571Y-91785714D01*
X142119047Y-91785714D01*
X142214285Y-91833333D01*
X142690476Y-92452380D02*
X142690476Y-91452380D01*
X143119047Y-92452380D02*
X143119047Y-91928571D01*
X143071428Y-91833333D01*
X142976190Y-91785714D01*
X142833333Y-91785714D01*
X142738095Y-91833333D01*
X142690476Y-91880952D01*
X143452380Y-91785714D02*
X143833333Y-91785714D01*
X143595238Y-91452380D02*
X143595238Y-92309523D01*
X143642857Y-92404761D01*
X143738095Y-92452380D01*
X143833333Y-92452380D01*
%TO.C,ENTER*%
X149428571Y-120928571D02*
X149761904Y-120928571D01*
X149904761Y-121452380D02*
X149428571Y-121452380D01*
X149428571Y-120452380D01*
X149904761Y-120452380D01*
X150333333Y-121452380D02*
X150333333Y-120452380D01*
X150904761Y-121452380D01*
X150904761Y-120452380D01*
X151238095Y-120452380D02*
X151809523Y-120452380D01*
X151523809Y-121452380D02*
X151523809Y-120452380D01*
X152142857Y-120928571D02*
X152476190Y-120928571D01*
X152619047Y-121452380D02*
X152142857Y-121452380D01*
X152142857Y-120452380D01*
X152619047Y-120452380D01*
X153619047Y-121452380D02*
X153285714Y-120976190D01*
X153047619Y-121452380D02*
X153047619Y-120452380D01*
X153428571Y-120452380D01*
X153523809Y-120500000D01*
X153571428Y-120547619D01*
X153619047Y-120642857D01*
X153619047Y-120785714D01*
X153571428Y-120880952D01*
X153523809Y-120928571D01*
X153428571Y-120976190D01*
X153047619Y-120976190D01*
%TO.C,L*%
X147809523Y-110952380D02*
X147333333Y-110952380D01*
X147333333Y-109952380D01*
%TO.C,O*%
X147404761Y-100452380D02*
X147595238Y-100452380D01*
X147690476Y-100500000D01*
X147785714Y-100595238D01*
X147833333Y-100785714D01*
X147833333Y-101119047D01*
X147785714Y-101309523D01*
X147690476Y-101404761D01*
X147595238Y-101452380D01*
X147404761Y-101452380D01*
X147309523Y-101404761D01*
X147214285Y-101309523D01*
X147166666Y-101119047D01*
X147166666Y-100785714D01*
X147214285Y-100595238D01*
X147309523Y-100500000D01*
X147404761Y-100452380D01*
%TO.C,BRK*%
X152571428Y-91928571D02*
X152714285Y-91976190D01*
X152761904Y-92023809D01*
X152809523Y-92119047D01*
X152809523Y-92261904D01*
X152761904Y-92357142D01*
X152714285Y-92404761D01*
X152619047Y-92452380D01*
X152238095Y-92452380D01*
X152238095Y-91452380D01*
X152571428Y-91452380D01*
X152666666Y-91500000D01*
X152714285Y-91547619D01*
X152761904Y-91642857D01*
X152761904Y-91738095D01*
X152714285Y-91833333D01*
X152666666Y-91880952D01*
X152571428Y-91928571D01*
X152238095Y-91928571D01*
X153809523Y-92452380D02*
X153476190Y-91976190D01*
X153238095Y-92452380D02*
X153238095Y-91452380D01*
X153619047Y-91452380D01*
X153714285Y-91500000D01*
X153761904Y-91547619D01*
X153809523Y-91642857D01*
X153809523Y-91785714D01*
X153761904Y-91880952D01*
X153714285Y-91928571D01*
X153619047Y-91976190D01*
X153238095Y-91976190D01*
X154238095Y-92452380D02*
X154238095Y-91452380D01*
X154809523Y-92452380D02*
X154380952Y-91880952D01*
X154809523Y-91452380D02*
X154238095Y-92023809D01*
%TO.C,P*%
X155238095Y-100952380D02*
X155238095Y-99952380D01*
X155619047Y-99952380D01*
X155714285Y-100000000D01*
X155761904Y-100047619D01*
X155809523Y-100142857D01*
X155809523Y-100285714D01*
X155761904Y-100380952D01*
X155714285Y-100428571D01*
X155619047Y-100476190D01*
X155238095Y-100476190D01*
%TO.C,=*%
X155119047Y-110428571D02*
X155880952Y-110428571D01*
X155880952Y-110714285D02*
X155119047Y-110714285D01*
%TO.C,0*%
X165452380Y-120452380D02*
X165547619Y-120452380D01*
X165642857Y-120500000D01*
X165690476Y-120547619D01*
X165738095Y-120642857D01*
X165785714Y-120833333D01*
X165785714Y-121071428D01*
X165738095Y-121261904D01*
X165690476Y-121357142D01*
X165642857Y-121404761D01*
X165547619Y-121452380D01*
X165452380Y-121452380D01*
X165357142Y-121404761D01*
X165309523Y-121357142D01*
X165261904Y-121261904D01*
X165214285Y-121071428D01*
X165214285Y-120833333D01*
X165261904Y-120642857D01*
X165309523Y-120547619D01*
X165357142Y-120500000D01*
X165452380Y-120452380D01*
%TO.C,1*%
X165785714Y-110952380D02*
X165214285Y-110952380D01*
X165500000Y-110952380D02*
X165500000Y-109952380D01*
X165404761Y-110095238D01*
X165309523Y-110190476D01*
X165214285Y-110238095D01*
%TO.C,4*%
X165690476Y-100785714D02*
X165690476Y-101452380D01*
X165452380Y-100404761D02*
X165214285Y-101119047D01*
X165833333Y-101119047D01*
%TO.C,7*%
X165166666Y-91452380D02*
X165833333Y-91452380D01*
X165404761Y-92452380D01*
%TO.C,.*%
X177500000Y-121357142D02*
X177547619Y-121404761D01*
X177500000Y-121452380D01*
X177452380Y-121404761D01*
X177500000Y-121357142D01*
X177500000Y-121452380D01*
%TO.C,2*%
X177214285Y-110047619D02*
X177261904Y-110000000D01*
X177357142Y-109952380D01*
X177595238Y-109952380D01*
X177690476Y-110000000D01*
X177738095Y-110047619D01*
X177785714Y-110142857D01*
X177785714Y-110238095D01*
X177738095Y-110380952D01*
X177166666Y-110952380D01*
X177785714Y-110952380D01*
%TO.C,5*%
X177738095Y-100452380D02*
X177261904Y-100452380D01*
X177214285Y-100928571D01*
X177261904Y-100880952D01*
X177357142Y-100833333D01*
X177595238Y-100833333D01*
X177690476Y-100880952D01*
X177738095Y-100928571D01*
X177785714Y-101023809D01*
X177785714Y-101261904D01*
X177738095Y-101357142D01*
X177690476Y-101404761D01*
X177595238Y-101452380D01*
X177357142Y-101452380D01*
X177261904Y-101404761D01*
X177214285Y-101357142D01*
%TO.C,8*%
X177404761Y-91880952D02*
X177309523Y-91833333D01*
X177261904Y-91785714D01*
X177214285Y-91690476D01*
X177214285Y-91642857D01*
X177261904Y-91547619D01*
X177309523Y-91500000D01*
X177404761Y-91452380D01*
X177595238Y-91452380D01*
X177690476Y-91500000D01*
X177738095Y-91547619D01*
X177785714Y-91642857D01*
X177785714Y-91690476D01*
X177738095Y-91785714D01*
X177690476Y-91833333D01*
X177595238Y-91880952D01*
X177404761Y-91880952D01*
X177309523Y-91928571D01*
X177261904Y-91976190D01*
X177214285Y-92071428D01*
X177214285Y-92261904D01*
X177261904Y-92357142D01*
X177309523Y-92404761D01*
X177404761Y-92452380D01*
X177595238Y-92452380D01*
X177690476Y-92404761D01*
X177738095Y-92357142D01*
X177785714Y-92261904D01*
X177785714Y-92071428D01*
X177738095Y-91976190D01*
X177690476Y-91928571D01*
X177595238Y-91880952D01*
%TO.C,+*%
X189119047Y-121071428D02*
X189880952Y-121071428D01*
X189500000Y-121452380D02*
X189500000Y-120690476D01*
%TO.C,3*%
X189166666Y-109952380D02*
X189785714Y-109952380D01*
X189452380Y-110333333D01*
X189595238Y-110333333D01*
X189690476Y-110380952D01*
X189738095Y-110428571D01*
X189785714Y-110523809D01*
X189785714Y-110761904D01*
X189738095Y-110857142D01*
X189690476Y-110904761D01*
X189595238Y-110952380D01*
X189309523Y-110952380D01*
X189214285Y-110904761D01*
X189166666Y-110857142D01*
%TO.C,6*%
X189690476Y-100452380D02*
X189500000Y-100452380D01*
X189404761Y-100500000D01*
X189357142Y-100547619D01*
X189261904Y-100690476D01*
X189214285Y-100880952D01*
X189214285Y-101261904D01*
X189261904Y-101357142D01*
X189309523Y-101404761D01*
X189404761Y-101452380D01*
X189595238Y-101452380D01*
X189690476Y-101404761D01*
X189738095Y-101357142D01*
X189785714Y-101261904D01*
X189785714Y-101023809D01*
X189738095Y-100928571D01*
X189690476Y-100880952D01*
X189595238Y-100833333D01*
X189404761Y-100833333D01*
X189309523Y-100880952D01*
X189261904Y-100928571D01*
X189214285Y-101023809D01*
%TO.C,-*%
X201119047Y-121071428D02*
X201880952Y-121071428D01*
%TO.C,\u002A*%
X201500000Y-110452380D02*
X201500000Y-110690476D01*
X201261904Y-110595238D02*
X201500000Y-110690476D01*
X201738095Y-110595238D01*
X201357142Y-110880952D02*
X201500000Y-110690476D01*
X201642857Y-110880952D01*
%TO.C,/*%
X201928571Y-100404761D02*
X201071428Y-101690476D01*
%TO.C,CL*%
X201404761Y-92357142D02*
X201357142Y-92404761D01*
X201214285Y-92452380D01*
X201119047Y-92452380D01*
X200976190Y-92404761D01*
X200880952Y-92309523D01*
X200833333Y-92214285D01*
X200785714Y-92023809D01*
X200785714Y-91880952D01*
X200833333Y-91690476D01*
X200880952Y-91595238D01*
X200976190Y-91500000D01*
X201119047Y-91452380D01*
X201214285Y-91452380D01*
X201357142Y-91500000D01*
X201404761Y-91547619D01*
X202309523Y-92452380D02*
X201833333Y-92452380D01*
X201833333Y-91452380D01*
%TO.C,9*%
X189309523Y-92452380D02*
X189500000Y-92452380D01*
X189595238Y-92404761D01*
X189642857Y-92357142D01*
X189738095Y-92214285D01*
X189785714Y-92023809D01*
X189785714Y-91642857D01*
X189738095Y-91547619D01*
X189690476Y-91500000D01*
X189595238Y-91452380D01*
X189404761Y-91452380D01*
X189309523Y-91500000D01*
X189261904Y-91547619D01*
X189214285Y-91642857D01*
X189214285Y-91880952D01*
X189261904Y-91976190D01*
X189309523Y-92023809D01*
X189404761Y-92071428D01*
X189595238Y-92071428D01*
X189690476Y-92023809D01*
X189738095Y-91976190D01*
X189785714Y-91880952D01*
%TO.C,MODE*%
X198690476Y-86452380D02*
X198690476Y-85452380D01*
X199023809Y-86166666D01*
X199357142Y-85452380D01*
X199357142Y-86452380D01*
X200023809Y-85452380D02*
X200214285Y-85452380D01*
X200309523Y-85500000D01*
X200404761Y-85595238D01*
X200452380Y-85785714D01*
X200452380Y-86119047D01*
X200404761Y-86309523D01*
X200309523Y-86404761D01*
X200214285Y-86452380D01*
X200023809Y-86452380D01*
X199928571Y-86404761D01*
X199833333Y-86309523D01*
X199785714Y-86119047D01*
X199785714Y-85785714D01*
X199833333Y-85595238D01*
X199928571Y-85500000D01*
X200023809Y-85452380D01*
X200880952Y-86452380D02*
X200880952Y-85452380D01*
X201119047Y-85452380D01*
X201261904Y-85500000D01*
X201357142Y-85595238D01*
X201404761Y-85690476D01*
X201452380Y-85880952D01*
X201452380Y-86023809D01*
X201404761Y-86214285D01*
X201357142Y-86309523D01*
X201261904Y-86404761D01*
X201119047Y-86452380D01*
X200880952Y-86452380D01*
X201880952Y-85928571D02*
X202214285Y-85928571D01*
X202357142Y-86452380D02*
X201880952Y-86452380D01*
X201880952Y-85452380D01*
X202357142Y-85452380D01*
%TO.C,PWR*%
X203666666Y-86452380D02*
X203666666Y-85452380D01*
X204047619Y-85452380D01*
X204142857Y-85500000D01*
X204190476Y-85547619D01*
X204238095Y-85642857D01*
X204238095Y-85785714D01*
X204190476Y-85880952D01*
X204142857Y-85928571D01*
X204047619Y-85976190D01*
X203666666Y-85976190D01*
X204571428Y-85452380D02*
X204809523Y-86452380D01*
X205000000Y-85738095D01*
X205190476Y-86452380D01*
X205428571Y-85452380D01*
X206380952Y-86452380D02*
X206047619Y-85976190D01*
X205809523Y-86452380D02*
X205809523Y-85452380D01*
X206190476Y-85452380D01*
X206285714Y-85500000D01*
X206333333Y-85547619D01*
X206380952Y-85642857D01*
X206380952Y-85785714D01*
X206333333Y-85880952D01*
X206285714Y-85928571D01*
X206190476Y-85976190D01*
X205809523Y-85976190D01*
%TO.C,Display*%
X119047619Y-68952380D02*
X119047619Y-67952380D01*
X119285714Y-67952380D01*
X119428571Y-68000000D01*
X119523809Y-68095238D01*
X119571428Y-68190476D01*
X119619047Y-68380952D01*
X119619047Y-68523809D01*
X119571428Y-68714285D01*
X119523809Y-68809523D01*
X119428571Y-68904761D01*
X119285714Y-68952380D01*
X119047619Y-68952380D01*
X120047619Y-68952380D02*
X120047619Y-68285714D01*
X120047619Y-67952380D02*
X120000000Y-68000000D01*
X120047619Y-68047619D01*
X120095238Y-68000000D01*
X120047619Y-67952380D01*
X120047619Y-68047619D01*
X120476190Y-68904761D02*
X120571428Y-68952380D01*
X120761904Y-68952380D01*
X120857142Y-68904761D01*
X120904761Y-68809523D01*
X120904761Y-68761904D01*
X120857142Y-68666666D01*
X120761904Y-68619047D01*
X120619047Y-68619047D01*
X120523809Y-68571428D01*
X120476190Y-68476190D01*
X120476190Y-68428571D01*
X120523809Y-68333333D01*
X120619047Y-68285714D01*
X120761904Y-68285714D01*
X120857142Y-68333333D01*
X121333333Y-68285714D02*
X121333333Y-69285714D01*
X121333333Y-68333333D02*
X121428571Y-68285714D01*
X121619047Y-68285714D01*
X121714285Y-68333333D01*
X121761904Y-68380952D01*
X121809523Y-68476190D01*
X121809523Y-68761904D01*
X121761904Y-68857142D01*
X121714285Y-68904761D01*
X121619047Y-68952380D01*
X121428571Y-68952380D01*
X121333333Y-68904761D01*
X122380952Y-68952380D02*
X122285714Y-68904761D01*
X122238095Y-68809523D01*
X122238095Y-67952380D01*
X123190476Y-68952380D02*
X123190476Y-68428571D01*
X123142857Y-68333333D01*
X123047619Y-68285714D01*
X122857142Y-68285714D01*
X122761904Y-68333333D01*
X123190476Y-68904761D02*
X123095238Y-68952380D01*
X122857142Y-68952380D01*
X122761904Y-68904761D01*
X122714285Y-68809523D01*
X122714285Y-68714285D01*
X122761904Y-68619047D01*
X122857142Y-68571428D01*
X123095238Y-68571428D01*
X123190476Y-68523809D01*
X123571428Y-68285714D02*
X123809523Y-68952380D01*
X124047619Y-68285714D02*
X123809523Y-68952380D01*
X123714285Y-69190476D01*
X123666666Y-69238095D01*
X123571428Y-69285714D01*
%TD*%
M02*
