%TF.GenerationSoftware,KiCad,Pcbnew,(5.1.8)-1*%
%TF.CreationDate,2021-11-23T00:18:45+09:00*%
%TF.ProjectId,pc1245,70633132-3435-42e6-9b69-6361645f7063,rev?*%
%TF.SameCoordinates,Original*%
%TF.FileFunction,Soldermask,Bot*%
%TF.FilePolarity,Negative*%
%FSLAX46Y46*%
G04 Gerber Fmt 4.6, Leading zero omitted, Abs format (unit mm)*
G04 Created by KiCad (PCBNEW (5.1.8)-1) date 2021-11-23 00:18:45*
%MOMM*%
%LPD*%
G01*
G04 APERTURE LIST*
%ADD10C,0.100000*%
%ADD11R,1.700000X1.700000*%
%ADD12O,1.700000X1.700000*%
%ADD13R,1.350000X1.350000*%
%ADD14O,1.350000X1.350000*%
G04 APERTURE END LIST*
D10*
%TO.C,M5Stamp*%
G36*
X182406247Y-84508191D02*
G01*
X182420836Y-84434849D01*
X182442543Y-84363290D01*
X182471160Y-84294203D01*
X182506411Y-84228254D01*
X182547956Y-84166077D01*
X182595395Y-84108272D01*
X182648272Y-84055395D01*
X182706077Y-84007956D01*
X182768254Y-83966411D01*
X182834203Y-83931160D01*
X182903290Y-83902543D01*
X182974849Y-83880836D01*
X183048191Y-83866247D01*
X183122610Y-83858918D01*
X183197390Y-83858918D01*
X183271809Y-83866247D01*
X183345151Y-83880836D01*
X183416710Y-83902543D01*
X183485797Y-83931160D01*
X183551746Y-83966411D01*
X183613923Y-84007956D01*
X183671728Y-84055395D01*
X183724605Y-84108272D01*
X183772044Y-84166077D01*
X183813589Y-84228254D01*
X183848840Y-84294203D01*
X183877457Y-84363290D01*
X183899164Y-84434849D01*
X183913753Y-84508191D01*
X183918218Y-84553524D01*
X183919086Y-84553786D01*
X183927735Y-84558397D01*
X183935318Y-84564608D01*
X183941544Y-84572178D01*
X183946174Y-84580818D01*
X183949029Y-84590194D01*
X183950000Y-84600000D01*
X183950000Y-88000000D01*
X183949039Y-88009755D01*
X183946194Y-88019134D01*
X183941573Y-88027779D01*
X183935355Y-88035355D01*
X183927779Y-88041573D01*
X183919134Y-88046194D01*
X183909755Y-88049039D01*
X183900000Y-88050000D01*
X182500000Y-88050000D01*
X182490245Y-88049039D01*
X182480866Y-88046194D01*
X182472221Y-88041573D01*
X182464645Y-88035355D01*
X182458427Y-88027779D01*
X182453806Y-88019134D01*
X182450961Y-88009755D01*
X182450000Y-88000000D01*
X182450000Y-84894713D01*
X182442543Y-84876710D01*
X182420836Y-84805151D01*
X182406247Y-84731809D01*
X182398918Y-84657390D01*
X182398918Y-84582610D01*
X182406247Y-84508191D01*
G37*
G36*
X179850961Y-84590245D02*
G01*
X179853806Y-84580866D01*
X179858427Y-84572221D01*
X179860147Y-84570126D01*
X179866247Y-84508191D01*
X179880836Y-84434849D01*
X179902543Y-84363290D01*
X179931160Y-84294203D01*
X179966411Y-84228254D01*
X180007956Y-84166077D01*
X180055395Y-84108272D01*
X180108272Y-84055395D01*
X180166077Y-84007956D01*
X180228254Y-83966411D01*
X180294203Y-83931160D01*
X180363290Y-83902543D01*
X180434849Y-83880836D01*
X180508191Y-83866247D01*
X180582610Y-83858918D01*
X180657390Y-83858918D01*
X180731809Y-83866247D01*
X180805151Y-83880836D01*
X180876710Y-83902543D01*
X180945797Y-83931160D01*
X181011746Y-83966411D01*
X181073923Y-84007956D01*
X181131728Y-84055395D01*
X181184605Y-84108272D01*
X181232044Y-84166077D01*
X181273589Y-84228254D01*
X181308840Y-84294203D01*
X181337457Y-84363290D01*
X181359164Y-84434849D01*
X181373753Y-84508191D01*
X181381082Y-84582610D01*
X181381082Y-84657390D01*
X181373753Y-84731809D01*
X181359164Y-84805151D01*
X181350000Y-84835361D01*
X181350000Y-88000000D01*
X181349039Y-88009755D01*
X181346194Y-88019134D01*
X181341573Y-88027779D01*
X181335355Y-88035355D01*
X181327779Y-88041573D01*
X181319134Y-88046194D01*
X181309755Y-88049039D01*
X181300000Y-88050000D01*
X179900000Y-88050000D01*
X179890245Y-88049039D01*
X179880866Y-88046194D01*
X179872221Y-88041573D01*
X179864645Y-88035355D01*
X179858427Y-88027779D01*
X179853806Y-88019134D01*
X179850961Y-88009755D01*
X179850000Y-88000000D01*
X179850000Y-84600000D01*
X179850961Y-84590245D01*
G37*
G36*
X177326247Y-84508191D02*
G01*
X177340836Y-84434849D01*
X177362543Y-84363290D01*
X177391160Y-84294203D01*
X177426411Y-84228254D01*
X177467956Y-84166077D01*
X177515395Y-84108272D01*
X177568272Y-84055395D01*
X177626077Y-84007956D01*
X177688254Y-83966411D01*
X177754203Y-83931160D01*
X177823290Y-83902543D01*
X177894849Y-83880836D01*
X177968191Y-83866247D01*
X178042610Y-83858918D01*
X178117390Y-83858918D01*
X178191809Y-83866247D01*
X178265151Y-83880836D01*
X178336710Y-83902543D01*
X178405797Y-83931160D01*
X178471746Y-83966411D01*
X178533923Y-84007956D01*
X178591728Y-84055395D01*
X178644605Y-84108272D01*
X178692044Y-84166077D01*
X178733589Y-84228254D01*
X178768840Y-84294203D01*
X178797457Y-84363290D01*
X178819164Y-84434849D01*
X178833753Y-84508191D01*
X178839852Y-84570121D01*
X178841544Y-84572178D01*
X178846174Y-84580818D01*
X178849029Y-84590194D01*
X178850000Y-84600000D01*
X178850000Y-88000000D01*
X178849039Y-88009755D01*
X178846194Y-88019134D01*
X178841573Y-88027779D01*
X178835355Y-88035355D01*
X178827779Y-88041573D01*
X178819134Y-88046194D01*
X178809755Y-88049039D01*
X178800000Y-88050000D01*
X177400000Y-88050000D01*
X177390245Y-88049039D01*
X177380866Y-88046194D01*
X177372221Y-88041573D01*
X177364645Y-88035355D01*
X177358427Y-88027779D01*
X177353806Y-88019134D01*
X177350961Y-88009755D01*
X177350000Y-88000000D01*
X177350000Y-84835361D01*
X177340836Y-84805151D01*
X177326247Y-84731809D01*
X177318918Y-84657390D01*
X177318918Y-84582610D01*
X177326247Y-84508191D01*
G37*
G36*
X174750961Y-84590245D02*
G01*
X174753806Y-84580866D01*
X174758427Y-84572221D01*
X174764645Y-84564645D01*
X174772221Y-84558427D01*
X174780866Y-84553806D01*
X174781782Y-84553528D01*
X174786247Y-84508191D01*
X174800836Y-84434849D01*
X174822543Y-84363290D01*
X174851160Y-84294203D01*
X174886411Y-84228254D01*
X174927956Y-84166077D01*
X174975395Y-84108272D01*
X175028272Y-84055395D01*
X175086077Y-84007956D01*
X175148254Y-83966411D01*
X175214203Y-83931160D01*
X175283290Y-83902543D01*
X175354849Y-83880836D01*
X175428191Y-83866247D01*
X175502610Y-83858918D01*
X175577390Y-83858918D01*
X175651809Y-83866247D01*
X175725151Y-83880836D01*
X175796710Y-83902543D01*
X175865797Y-83931160D01*
X175931746Y-83966411D01*
X175993923Y-84007956D01*
X176051728Y-84055395D01*
X176104605Y-84108272D01*
X176152044Y-84166077D01*
X176193589Y-84228254D01*
X176228840Y-84294203D01*
X176257457Y-84363290D01*
X176279164Y-84434849D01*
X176293753Y-84508191D01*
X176301082Y-84582610D01*
X176301082Y-84657390D01*
X176293753Y-84731809D01*
X176279164Y-84805151D01*
X176257457Y-84876710D01*
X176250000Y-84894713D01*
X176250000Y-88000000D01*
X176249039Y-88009755D01*
X176246194Y-88019134D01*
X176241573Y-88027779D01*
X176235355Y-88035355D01*
X176227779Y-88041573D01*
X176219134Y-88046194D01*
X176209755Y-88049039D01*
X176200000Y-88050000D01*
X174800000Y-88050000D01*
X174790245Y-88049039D01*
X174780866Y-88046194D01*
X174772221Y-88041573D01*
X174764645Y-88035355D01*
X174758427Y-88027779D01*
X174753806Y-88019134D01*
X174750961Y-88009755D01*
X174750000Y-88000000D01*
X174750000Y-84600000D01*
X174750961Y-84590245D01*
G37*
G36*
X172246247Y-84508191D02*
G01*
X172260836Y-84434849D01*
X172282543Y-84363290D01*
X172311160Y-84294203D01*
X172346411Y-84228254D01*
X172387956Y-84166077D01*
X172435395Y-84108272D01*
X172488272Y-84055395D01*
X172546077Y-84007956D01*
X172608254Y-83966411D01*
X172674203Y-83931160D01*
X172743290Y-83902543D01*
X172814849Y-83880836D01*
X172888191Y-83866247D01*
X172962610Y-83858918D01*
X173037390Y-83858918D01*
X173111809Y-83866247D01*
X173185151Y-83880836D01*
X173256710Y-83902543D01*
X173325797Y-83931160D01*
X173391746Y-83966411D01*
X173453923Y-84007956D01*
X173511728Y-84055395D01*
X173564605Y-84108272D01*
X173612044Y-84166077D01*
X173653589Y-84228254D01*
X173688840Y-84294203D01*
X173717457Y-84363290D01*
X173739164Y-84434849D01*
X173753753Y-84508191D01*
X173761082Y-84582610D01*
X173761082Y-84657390D01*
X173753753Y-84731809D01*
X173750000Y-84750676D01*
X173750000Y-88000000D01*
X173749039Y-88009755D01*
X173746194Y-88019134D01*
X173741573Y-88027779D01*
X173735355Y-88035355D01*
X173727779Y-88041573D01*
X173719134Y-88046194D01*
X173709755Y-88049039D01*
X173700000Y-88050000D01*
X172300000Y-88050000D01*
X172290245Y-88049039D01*
X172280866Y-88046194D01*
X172272221Y-88041573D01*
X172264645Y-88035355D01*
X172258427Y-88027779D01*
X172253806Y-88019134D01*
X172250961Y-88009755D01*
X172250000Y-88000000D01*
X172250000Y-84750676D01*
X172246247Y-84731809D01*
X172238918Y-84657390D01*
X172238918Y-84582610D01*
X172246247Y-84508191D01*
G37*
G36*
X169706247Y-84508191D02*
G01*
X169720836Y-84434849D01*
X169742543Y-84363290D01*
X169771160Y-84294203D01*
X169806411Y-84228254D01*
X169847956Y-84166077D01*
X169895395Y-84108272D01*
X169948272Y-84055395D01*
X170006077Y-84007956D01*
X170068254Y-83966411D01*
X170134203Y-83931160D01*
X170203290Y-83902543D01*
X170274849Y-83880836D01*
X170348191Y-83866247D01*
X170422610Y-83858918D01*
X170497390Y-83858918D01*
X170571809Y-83866247D01*
X170645151Y-83880836D01*
X170716710Y-83902543D01*
X170785797Y-83931160D01*
X170851746Y-83966411D01*
X170913923Y-84007956D01*
X170971728Y-84055395D01*
X171024605Y-84108272D01*
X171072044Y-84166077D01*
X171113589Y-84228254D01*
X171148840Y-84294203D01*
X171177457Y-84363290D01*
X171199164Y-84434849D01*
X171213753Y-84508191D01*
X171218218Y-84553524D01*
X171219086Y-84553786D01*
X171227735Y-84558397D01*
X171235318Y-84564608D01*
X171241544Y-84572178D01*
X171246174Y-84580818D01*
X171249029Y-84590194D01*
X171250000Y-84600000D01*
X171250000Y-88000000D01*
X171249039Y-88009755D01*
X171246194Y-88019134D01*
X171241573Y-88027779D01*
X171235355Y-88035355D01*
X171227779Y-88041573D01*
X171219134Y-88046194D01*
X171209755Y-88049039D01*
X171200000Y-88050000D01*
X169800000Y-88050000D01*
X169790245Y-88049039D01*
X169780866Y-88046194D01*
X169772221Y-88041573D01*
X169764645Y-88035355D01*
X169758427Y-88027779D01*
X169753806Y-88019134D01*
X169750961Y-88009755D01*
X169750000Y-88000000D01*
X169750000Y-84894713D01*
X169742543Y-84876710D01*
X169720836Y-84805151D01*
X169706247Y-84731809D01*
X169698918Y-84657390D01*
X169698918Y-84582610D01*
X169706247Y-84508191D01*
G37*
G36*
X167150961Y-84590245D02*
G01*
X167153806Y-84580866D01*
X167158427Y-84572221D01*
X167160147Y-84570126D01*
X167166247Y-84508191D01*
X167180836Y-84434849D01*
X167202543Y-84363290D01*
X167231160Y-84294203D01*
X167266411Y-84228254D01*
X167307956Y-84166077D01*
X167355395Y-84108272D01*
X167408272Y-84055395D01*
X167466077Y-84007956D01*
X167528254Y-83966411D01*
X167594203Y-83931160D01*
X167663290Y-83902543D01*
X167734849Y-83880836D01*
X167808191Y-83866247D01*
X167882610Y-83858918D01*
X167957390Y-83858918D01*
X168031809Y-83866247D01*
X168105151Y-83880836D01*
X168176710Y-83902543D01*
X168245797Y-83931160D01*
X168311746Y-83966411D01*
X168373923Y-84007956D01*
X168431728Y-84055395D01*
X168484605Y-84108272D01*
X168532044Y-84166077D01*
X168573589Y-84228254D01*
X168608840Y-84294203D01*
X168637457Y-84363290D01*
X168659164Y-84434849D01*
X168673753Y-84508191D01*
X168681082Y-84582610D01*
X168681082Y-84657390D01*
X168673753Y-84731809D01*
X168659164Y-84805151D01*
X168650000Y-84835361D01*
X168650000Y-88000000D01*
X168649039Y-88009755D01*
X168646194Y-88019134D01*
X168641573Y-88027779D01*
X168635355Y-88035355D01*
X168627779Y-88041573D01*
X168619134Y-88046194D01*
X168609755Y-88049039D01*
X168600000Y-88050000D01*
X167200000Y-88050000D01*
X167190245Y-88049039D01*
X167180866Y-88046194D01*
X167172221Y-88041573D01*
X167164645Y-88035355D01*
X167158427Y-88027779D01*
X167153806Y-88019134D01*
X167150961Y-88009755D01*
X167150000Y-88000000D01*
X167150000Y-84600000D01*
X167150961Y-84590245D01*
G37*
G36*
X164626247Y-84508191D02*
G01*
X164640836Y-84434849D01*
X164662543Y-84363290D01*
X164691160Y-84294203D01*
X164726411Y-84228254D01*
X164767956Y-84166077D01*
X164815395Y-84108272D01*
X164868272Y-84055395D01*
X164926077Y-84007956D01*
X164988254Y-83966411D01*
X165054203Y-83931160D01*
X165123290Y-83902543D01*
X165194849Y-83880836D01*
X165268191Y-83866247D01*
X165342610Y-83858918D01*
X165417390Y-83858918D01*
X165491809Y-83866247D01*
X165565151Y-83880836D01*
X165636710Y-83902543D01*
X165705797Y-83931160D01*
X165771746Y-83966411D01*
X165833923Y-84007956D01*
X165891728Y-84055395D01*
X165944605Y-84108272D01*
X165992044Y-84166077D01*
X166033589Y-84228254D01*
X166068840Y-84294203D01*
X166097457Y-84363290D01*
X166119164Y-84434849D01*
X166133753Y-84508191D01*
X166139852Y-84570121D01*
X166141544Y-84572178D01*
X166146174Y-84580818D01*
X166149029Y-84590194D01*
X166150000Y-84600000D01*
X166150000Y-88000000D01*
X166149039Y-88009755D01*
X166146194Y-88019134D01*
X166141573Y-88027779D01*
X166135355Y-88035355D01*
X166127779Y-88041573D01*
X166119134Y-88046194D01*
X166109755Y-88049039D01*
X166100000Y-88050000D01*
X164700000Y-88050000D01*
X164690245Y-88049039D01*
X164680866Y-88046194D01*
X164672221Y-88041573D01*
X164664645Y-88035355D01*
X164658427Y-88027779D01*
X164653806Y-88019134D01*
X164650961Y-88009755D01*
X164650000Y-88000000D01*
X164650000Y-84835361D01*
X164640836Y-84805151D01*
X164626247Y-84731809D01*
X164618918Y-84657390D01*
X164618918Y-84582610D01*
X164626247Y-84508191D01*
G37*
G36*
X162050961Y-84590245D02*
G01*
X162053806Y-84580866D01*
X162058427Y-84572221D01*
X162064645Y-84564645D01*
X162072221Y-84558427D01*
X162080866Y-84553806D01*
X162081782Y-84553528D01*
X162086247Y-84508191D01*
X162100836Y-84434849D01*
X162122543Y-84363290D01*
X162151160Y-84294203D01*
X162186411Y-84228254D01*
X162227956Y-84166077D01*
X162275395Y-84108272D01*
X162328272Y-84055395D01*
X162386077Y-84007956D01*
X162448254Y-83966411D01*
X162514203Y-83931160D01*
X162583290Y-83902543D01*
X162654849Y-83880836D01*
X162728191Y-83866247D01*
X162802610Y-83858918D01*
X162877390Y-83858918D01*
X162951809Y-83866247D01*
X163025151Y-83880836D01*
X163096710Y-83902543D01*
X163165797Y-83931160D01*
X163231746Y-83966411D01*
X163293923Y-84007956D01*
X163351728Y-84055395D01*
X163404605Y-84108272D01*
X163452044Y-84166077D01*
X163493589Y-84228254D01*
X163528840Y-84294203D01*
X163557457Y-84363290D01*
X163579164Y-84434849D01*
X163593753Y-84508191D01*
X163601082Y-84582610D01*
X163601082Y-84657390D01*
X163593753Y-84731809D01*
X163579164Y-84805151D01*
X163557457Y-84876710D01*
X163550000Y-84894713D01*
X163550000Y-88000000D01*
X163549039Y-88009755D01*
X163546194Y-88019134D01*
X163541573Y-88027779D01*
X163535355Y-88035355D01*
X163527779Y-88041573D01*
X163519134Y-88046194D01*
X163509755Y-88049039D01*
X163500000Y-88050000D01*
X162100000Y-88050000D01*
X162090245Y-88049039D01*
X162080866Y-88046194D01*
X162072221Y-88041573D01*
X162064645Y-88035355D01*
X162058427Y-88027779D01*
X162053806Y-88019134D01*
X162050961Y-88009755D01*
X162050000Y-88000000D01*
X162050000Y-84600000D01*
X162050961Y-84590245D01*
G37*
G36*
X158950961Y-79290245D02*
G01*
X158953806Y-79280866D01*
X158958427Y-79272221D01*
X158964645Y-79264645D01*
X158972221Y-79258427D01*
X158980866Y-79253806D01*
X158990245Y-79250961D01*
X159000000Y-79250000D01*
X162699324Y-79250000D01*
X162718191Y-79246247D01*
X162792610Y-79238918D01*
X162867390Y-79238918D01*
X162941809Y-79246247D01*
X163015151Y-79260836D01*
X163086710Y-79282543D01*
X163155797Y-79311160D01*
X163221746Y-79346411D01*
X163283923Y-79387956D01*
X163341728Y-79435395D01*
X163394605Y-79488272D01*
X163442044Y-79546077D01*
X163483589Y-79608254D01*
X163518840Y-79674203D01*
X163547457Y-79743290D01*
X163569164Y-79814849D01*
X163583753Y-79888191D01*
X163591082Y-79962610D01*
X163591082Y-80037390D01*
X163583753Y-80111809D01*
X163569164Y-80185151D01*
X163547457Y-80256710D01*
X163518840Y-80325797D01*
X163483589Y-80391746D01*
X163442044Y-80453923D01*
X163394605Y-80511728D01*
X163341728Y-80564605D01*
X163283923Y-80612044D01*
X163221746Y-80653589D01*
X163155797Y-80688840D01*
X163086710Y-80717457D01*
X163015151Y-80739164D01*
X162941809Y-80753753D01*
X162867390Y-80761082D01*
X162792610Y-80761082D01*
X162718191Y-80753753D01*
X162699324Y-80750000D01*
X159000000Y-80750000D01*
X158990245Y-80749039D01*
X158980866Y-80746194D01*
X158972221Y-80741573D01*
X158964645Y-80735355D01*
X158958427Y-80727779D01*
X158953806Y-80719134D01*
X158950961Y-80709755D01*
X158950000Y-80700000D01*
X158950000Y-79300000D01*
X158950961Y-79290245D01*
G37*
G36*
X158950961Y-77290245D02*
G01*
X158953806Y-77280866D01*
X158958427Y-77272221D01*
X158964645Y-77264645D01*
X158972221Y-77258427D01*
X158980866Y-77253806D01*
X158990245Y-77250961D01*
X159000000Y-77250000D01*
X162699324Y-77250000D01*
X162718191Y-77246247D01*
X162792610Y-77238918D01*
X162867390Y-77238918D01*
X162941809Y-77246247D01*
X163015151Y-77260836D01*
X163086710Y-77282543D01*
X163155797Y-77311160D01*
X163221746Y-77346411D01*
X163283923Y-77387956D01*
X163341728Y-77435395D01*
X163394605Y-77488272D01*
X163442044Y-77546077D01*
X163483589Y-77608254D01*
X163518840Y-77674203D01*
X163547457Y-77743290D01*
X163569164Y-77814849D01*
X163583753Y-77888191D01*
X163591082Y-77962610D01*
X163591082Y-78037390D01*
X163583753Y-78111809D01*
X163569164Y-78185151D01*
X163547457Y-78256710D01*
X163518840Y-78325797D01*
X163483589Y-78391746D01*
X163442044Y-78453923D01*
X163394605Y-78511728D01*
X163341728Y-78564605D01*
X163283923Y-78612044D01*
X163221746Y-78653589D01*
X163155797Y-78688840D01*
X163086710Y-78717457D01*
X163015151Y-78739164D01*
X162941809Y-78753753D01*
X162867390Y-78761082D01*
X162792610Y-78761082D01*
X162718191Y-78753753D01*
X162699324Y-78750000D01*
X159000000Y-78750000D01*
X158990245Y-78749039D01*
X158980866Y-78746194D01*
X158972221Y-78741573D01*
X158964645Y-78735355D01*
X158958427Y-78727779D01*
X158953806Y-78719134D01*
X158950961Y-78709755D01*
X158950000Y-78700000D01*
X158950000Y-77300000D01*
X158950961Y-77290245D01*
G37*
G36*
X158950961Y-75290245D02*
G01*
X158953806Y-75280866D01*
X158958427Y-75272221D01*
X158964645Y-75264645D01*
X158972221Y-75258427D01*
X158980866Y-75253806D01*
X158990245Y-75250961D01*
X159000000Y-75250000D01*
X162699324Y-75250000D01*
X162718191Y-75246247D01*
X162792610Y-75238918D01*
X162867390Y-75238918D01*
X162941809Y-75246247D01*
X163015151Y-75260836D01*
X163086710Y-75282543D01*
X163155797Y-75311160D01*
X163221746Y-75346411D01*
X163283923Y-75387956D01*
X163341728Y-75435395D01*
X163394605Y-75488272D01*
X163442044Y-75546077D01*
X163483589Y-75608254D01*
X163518840Y-75674203D01*
X163547457Y-75743290D01*
X163569164Y-75814849D01*
X163583753Y-75888191D01*
X163591082Y-75962610D01*
X163591082Y-76037390D01*
X163583753Y-76111809D01*
X163569164Y-76185151D01*
X163547457Y-76256710D01*
X163518840Y-76325797D01*
X163483589Y-76391746D01*
X163442044Y-76453923D01*
X163394605Y-76511728D01*
X163341728Y-76564605D01*
X163283923Y-76612044D01*
X163221746Y-76653589D01*
X163155797Y-76688840D01*
X163086710Y-76717457D01*
X163015151Y-76739164D01*
X162941809Y-76753753D01*
X162867390Y-76761082D01*
X162792610Y-76761082D01*
X162718191Y-76753753D01*
X162699324Y-76750000D01*
X159000000Y-76750000D01*
X158990245Y-76749039D01*
X158980866Y-76746194D01*
X158972221Y-76741573D01*
X158964645Y-76735355D01*
X158958427Y-76727779D01*
X158953806Y-76719134D01*
X158950961Y-76709755D01*
X158950000Y-76700000D01*
X158950000Y-75300000D01*
X158950961Y-75290245D01*
G37*
G36*
X158950961Y-73290245D02*
G01*
X158953806Y-73280866D01*
X158958427Y-73272221D01*
X158964645Y-73264645D01*
X158972221Y-73258427D01*
X158980866Y-73253806D01*
X158990245Y-73250961D01*
X159000000Y-73250000D01*
X162699324Y-73250000D01*
X162718191Y-73246247D01*
X162792610Y-73238918D01*
X162867390Y-73238918D01*
X162941809Y-73246247D01*
X163015151Y-73260836D01*
X163086710Y-73282543D01*
X163155797Y-73311160D01*
X163221746Y-73346411D01*
X163283923Y-73387956D01*
X163341728Y-73435395D01*
X163394605Y-73488272D01*
X163442044Y-73546077D01*
X163483589Y-73608254D01*
X163518840Y-73674203D01*
X163547457Y-73743290D01*
X163569164Y-73814849D01*
X163583753Y-73888191D01*
X163591082Y-73962610D01*
X163591082Y-74037390D01*
X163583753Y-74111809D01*
X163569164Y-74185151D01*
X163547457Y-74256710D01*
X163518840Y-74325797D01*
X163483589Y-74391746D01*
X163442044Y-74453923D01*
X163394605Y-74511728D01*
X163341728Y-74564605D01*
X163283923Y-74612044D01*
X163221746Y-74653589D01*
X163155797Y-74688840D01*
X163086710Y-74717457D01*
X163015151Y-74739164D01*
X162941809Y-74753753D01*
X162867390Y-74761082D01*
X162792610Y-74761082D01*
X162718191Y-74753753D01*
X162699324Y-74750000D01*
X159000000Y-74750000D01*
X158990245Y-74749039D01*
X158980866Y-74746194D01*
X158972221Y-74741573D01*
X158964645Y-74735355D01*
X158958427Y-74727779D01*
X158953806Y-74719134D01*
X158950961Y-74709755D01*
X158950000Y-74700000D01*
X158950000Y-73300000D01*
X158950961Y-73290245D01*
G37*
G36*
X162050961Y-65990245D02*
G01*
X162053806Y-65980866D01*
X162058427Y-65972221D01*
X162064645Y-65964645D01*
X162072221Y-65958427D01*
X162080866Y-65953806D01*
X162090245Y-65950961D01*
X162100000Y-65950000D01*
X163500000Y-65950000D01*
X163509755Y-65950961D01*
X163519134Y-65953806D01*
X163527779Y-65958427D01*
X163535355Y-65964645D01*
X163541573Y-65972221D01*
X163546194Y-65980866D01*
X163549039Y-65990245D01*
X163550000Y-66000000D01*
X163550000Y-69105287D01*
X163557457Y-69123290D01*
X163579164Y-69194849D01*
X163593753Y-69268191D01*
X163601082Y-69342610D01*
X163601082Y-69417390D01*
X163593753Y-69491809D01*
X163579164Y-69565151D01*
X163557457Y-69636710D01*
X163528840Y-69705797D01*
X163493589Y-69771746D01*
X163452044Y-69833923D01*
X163404605Y-69891728D01*
X163351728Y-69944605D01*
X163293923Y-69992044D01*
X163231746Y-70033589D01*
X163165797Y-70068840D01*
X163096710Y-70097457D01*
X163025151Y-70119164D01*
X162951809Y-70133753D01*
X162877390Y-70141082D01*
X162802610Y-70141082D01*
X162728191Y-70133753D01*
X162654849Y-70119164D01*
X162583290Y-70097457D01*
X162514203Y-70068840D01*
X162448254Y-70033589D01*
X162386077Y-69992044D01*
X162328272Y-69944605D01*
X162275395Y-69891728D01*
X162227956Y-69833923D01*
X162186411Y-69771746D01*
X162151160Y-69705797D01*
X162122543Y-69636710D01*
X162100836Y-69565151D01*
X162086247Y-69491809D01*
X162081782Y-69446476D01*
X162080914Y-69446214D01*
X162072265Y-69441603D01*
X162064682Y-69435392D01*
X162058456Y-69427822D01*
X162053826Y-69419182D01*
X162050971Y-69409806D01*
X162050000Y-69400000D01*
X162050000Y-66000000D01*
X162050961Y-65990245D01*
G37*
G36*
X164626247Y-69268191D02*
G01*
X164640836Y-69194849D01*
X164650000Y-69164639D01*
X164650000Y-66000000D01*
X164650961Y-65990245D01*
X164653806Y-65980866D01*
X164658427Y-65972221D01*
X164664645Y-65964645D01*
X164672221Y-65958427D01*
X164680866Y-65953806D01*
X164690245Y-65950961D01*
X164700000Y-65950000D01*
X166100000Y-65950000D01*
X166109755Y-65950961D01*
X166119134Y-65953806D01*
X166127779Y-65958427D01*
X166135355Y-65964645D01*
X166141573Y-65972221D01*
X166146194Y-65980866D01*
X166149039Y-65990245D01*
X166150000Y-66000000D01*
X166150000Y-69400000D01*
X166149039Y-69409755D01*
X166146194Y-69419134D01*
X166141573Y-69427779D01*
X166139853Y-69429874D01*
X166133753Y-69491809D01*
X166119164Y-69565151D01*
X166097457Y-69636710D01*
X166068840Y-69705797D01*
X166033589Y-69771746D01*
X165992044Y-69833923D01*
X165944605Y-69891728D01*
X165891728Y-69944605D01*
X165833923Y-69992044D01*
X165771746Y-70033589D01*
X165705797Y-70068840D01*
X165636710Y-70097457D01*
X165565151Y-70119164D01*
X165491809Y-70133753D01*
X165417390Y-70141082D01*
X165342610Y-70141082D01*
X165268191Y-70133753D01*
X165194849Y-70119164D01*
X165123290Y-70097457D01*
X165054203Y-70068840D01*
X164988254Y-70033589D01*
X164926077Y-69992044D01*
X164868272Y-69944605D01*
X164815395Y-69891728D01*
X164767956Y-69833923D01*
X164726411Y-69771746D01*
X164691160Y-69705797D01*
X164662543Y-69636710D01*
X164640836Y-69565151D01*
X164626247Y-69491809D01*
X164618918Y-69417390D01*
X164618918Y-69342610D01*
X164626247Y-69268191D01*
G37*
G36*
X167150961Y-65990245D02*
G01*
X167153806Y-65980866D01*
X167158427Y-65972221D01*
X167164645Y-65964645D01*
X167172221Y-65958427D01*
X167180866Y-65953806D01*
X167190245Y-65950961D01*
X167200000Y-65950000D01*
X168600000Y-65950000D01*
X168609755Y-65950961D01*
X168619134Y-65953806D01*
X168627779Y-65958427D01*
X168635355Y-65964645D01*
X168641573Y-65972221D01*
X168646194Y-65980866D01*
X168649039Y-65990245D01*
X168650000Y-66000000D01*
X168650000Y-69164639D01*
X168659164Y-69194849D01*
X168673753Y-69268191D01*
X168681082Y-69342610D01*
X168681082Y-69417390D01*
X168673753Y-69491809D01*
X168659164Y-69565151D01*
X168637457Y-69636710D01*
X168608840Y-69705797D01*
X168573589Y-69771746D01*
X168532044Y-69833923D01*
X168484605Y-69891728D01*
X168431728Y-69944605D01*
X168373923Y-69992044D01*
X168311746Y-70033589D01*
X168245797Y-70068840D01*
X168176710Y-70097457D01*
X168105151Y-70119164D01*
X168031809Y-70133753D01*
X167957390Y-70141082D01*
X167882610Y-70141082D01*
X167808191Y-70133753D01*
X167734849Y-70119164D01*
X167663290Y-70097457D01*
X167594203Y-70068840D01*
X167528254Y-70033589D01*
X167466077Y-69992044D01*
X167408272Y-69944605D01*
X167355395Y-69891728D01*
X167307956Y-69833923D01*
X167266411Y-69771746D01*
X167231160Y-69705797D01*
X167202543Y-69636710D01*
X167180836Y-69565151D01*
X167166247Y-69491809D01*
X167160148Y-69429879D01*
X167158456Y-69427822D01*
X167153826Y-69419182D01*
X167150971Y-69409806D01*
X167150000Y-69400000D01*
X167150000Y-66000000D01*
X167150961Y-65990245D01*
G37*
G36*
X169706247Y-69268191D02*
G01*
X169720836Y-69194849D01*
X169742543Y-69123290D01*
X169750000Y-69105287D01*
X169750000Y-66000000D01*
X169750961Y-65990245D01*
X169753806Y-65980866D01*
X169758427Y-65972221D01*
X169764645Y-65964645D01*
X169772221Y-65958427D01*
X169780866Y-65953806D01*
X169790245Y-65950961D01*
X169800000Y-65950000D01*
X171200000Y-65950000D01*
X171209755Y-65950961D01*
X171219134Y-65953806D01*
X171227779Y-65958427D01*
X171235355Y-65964645D01*
X171241573Y-65972221D01*
X171246194Y-65980866D01*
X171249039Y-65990245D01*
X171250000Y-66000000D01*
X171250000Y-69400000D01*
X171249039Y-69409755D01*
X171246194Y-69419134D01*
X171241573Y-69427779D01*
X171235355Y-69435355D01*
X171227779Y-69441573D01*
X171219134Y-69446194D01*
X171218218Y-69446472D01*
X171213753Y-69491809D01*
X171199164Y-69565151D01*
X171177457Y-69636710D01*
X171148840Y-69705797D01*
X171113589Y-69771746D01*
X171072044Y-69833923D01*
X171024605Y-69891728D01*
X170971728Y-69944605D01*
X170913923Y-69992044D01*
X170851746Y-70033589D01*
X170785797Y-70068840D01*
X170716710Y-70097457D01*
X170645151Y-70119164D01*
X170571809Y-70133753D01*
X170497390Y-70141082D01*
X170422610Y-70141082D01*
X170348191Y-70133753D01*
X170274849Y-70119164D01*
X170203290Y-70097457D01*
X170134203Y-70068840D01*
X170068254Y-70033589D01*
X170006077Y-69992044D01*
X169948272Y-69944605D01*
X169895395Y-69891728D01*
X169847956Y-69833923D01*
X169806411Y-69771746D01*
X169771160Y-69705797D01*
X169742543Y-69636710D01*
X169720836Y-69565151D01*
X169706247Y-69491809D01*
X169698918Y-69417390D01*
X169698918Y-69342610D01*
X169706247Y-69268191D01*
G37*
G36*
X172246247Y-69268191D02*
G01*
X172250000Y-69249324D01*
X172250000Y-66000000D01*
X172250961Y-65990245D01*
X172253806Y-65980866D01*
X172258427Y-65972221D01*
X172264645Y-65964645D01*
X172272221Y-65958427D01*
X172280866Y-65953806D01*
X172290245Y-65950961D01*
X172300000Y-65950000D01*
X173700000Y-65950000D01*
X173709755Y-65950961D01*
X173719134Y-65953806D01*
X173727779Y-65958427D01*
X173735355Y-65964645D01*
X173741573Y-65972221D01*
X173746194Y-65980866D01*
X173749039Y-65990245D01*
X173750000Y-66000000D01*
X173750000Y-69249324D01*
X173753753Y-69268191D01*
X173761082Y-69342610D01*
X173761082Y-69417390D01*
X173753753Y-69491809D01*
X173739164Y-69565151D01*
X173717457Y-69636710D01*
X173688840Y-69705797D01*
X173653589Y-69771746D01*
X173612044Y-69833923D01*
X173564605Y-69891728D01*
X173511728Y-69944605D01*
X173453923Y-69992044D01*
X173391746Y-70033589D01*
X173325797Y-70068840D01*
X173256710Y-70097457D01*
X173185151Y-70119164D01*
X173111809Y-70133753D01*
X173037390Y-70141082D01*
X172962610Y-70141082D01*
X172888191Y-70133753D01*
X172814849Y-70119164D01*
X172743290Y-70097457D01*
X172674203Y-70068840D01*
X172608254Y-70033589D01*
X172546077Y-69992044D01*
X172488272Y-69944605D01*
X172435395Y-69891728D01*
X172387956Y-69833923D01*
X172346411Y-69771746D01*
X172311160Y-69705797D01*
X172282543Y-69636710D01*
X172260836Y-69565151D01*
X172246247Y-69491809D01*
X172238918Y-69417390D01*
X172238918Y-69342610D01*
X172246247Y-69268191D01*
G37*
G36*
X174750961Y-65990245D02*
G01*
X174753806Y-65980866D01*
X174758427Y-65972221D01*
X174764645Y-65964645D01*
X174772221Y-65958427D01*
X174780866Y-65953806D01*
X174790245Y-65950961D01*
X174800000Y-65950000D01*
X176200000Y-65950000D01*
X176209755Y-65950961D01*
X176219134Y-65953806D01*
X176227779Y-65958427D01*
X176235355Y-65964645D01*
X176241573Y-65972221D01*
X176246194Y-65980866D01*
X176249039Y-65990245D01*
X176250000Y-66000000D01*
X176250000Y-69105287D01*
X176257457Y-69123290D01*
X176279164Y-69194849D01*
X176293753Y-69268191D01*
X176301082Y-69342610D01*
X176301082Y-69417390D01*
X176293753Y-69491809D01*
X176279164Y-69565151D01*
X176257457Y-69636710D01*
X176228840Y-69705797D01*
X176193589Y-69771746D01*
X176152044Y-69833923D01*
X176104605Y-69891728D01*
X176051728Y-69944605D01*
X175993923Y-69992044D01*
X175931746Y-70033589D01*
X175865797Y-70068840D01*
X175796710Y-70097457D01*
X175725151Y-70119164D01*
X175651809Y-70133753D01*
X175577390Y-70141082D01*
X175502610Y-70141082D01*
X175428191Y-70133753D01*
X175354849Y-70119164D01*
X175283290Y-70097457D01*
X175214203Y-70068840D01*
X175148254Y-70033589D01*
X175086077Y-69992044D01*
X175028272Y-69944605D01*
X174975395Y-69891728D01*
X174927956Y-69833923D01*
X174886411Y-69771746D01*
X174851160Y-69705797D01*
X174822543Y-69636710D01*
X174800836Y-69565151D01*
X174786247Y-69491809D01*
X174781782Y-69446476D01*
X174780914Y-69446214D01*
X174772265Y-69441603D01*
X174764682Y-69435392D01*
X174758456Y-69427822D01*
X174753826Y-69419182D01*
X174750971Y-69409806D01*
X174750000Y-69400000D01*
X174750000Y-66000000D01*
X174750961Y-65990245D01*
G37*
%TD*%
D11*
%TO.C,BATT*%
X194000000Y-83000000D03*
D12*
X191460000Y-83000000D03*
%TD*%
%TO.C,U1*%
G36*
G01*
X100375000Y-105595000D02*
X100375000Y-105895000D01*
G75*
G02*
X100225000Y-106045000I-150000J0D01*
G01*
X98475000Y-106045000D01*
G75*
G02*
X98325000Y-105895000I0J150000D01*
G01*
X98325000Y-105595000D01*
G75*
G02*
X98475000Y-105445000I150000J0D01*
G01*
X100225000Y-105445000D01*
G75*
G02*
X100375000Y-105595000I0J-150000D01*
G01*
G37*
G36*
G01*
X100375000Y-106865000D02*
X100375000Y-107165000D01*
G75*
G02*
X100225000Y-107315000I-150000J0D01*
G01*
X98475000Y-107315000D01*
G75*
G02*
X98325000Y-107165000I0J150000D01*
G01*
X98325000Y-106865000D01*
G75*
G02*
X98475000Y-106715000I150000J0D01*
G01*
X100225000Y-106715000D01*
G75*
G02*
X100375000Y-106865000I0J-150000D01*
G01*
G37*
G36*
G01*
X100375000Y-108135000D02*
X100375000Y-108435000D01*
G75*
G02*
X100225000Y-108585000I-150000J0D01*
G01*
X98475000Y-108585000D01*
G75*
G02*
X98325000Y-108435000I0J150000D01*
G01*
X98325000Y-108135000D01*
G75*
G02*
X98475000Y-107985000I150000J0D01*
G01*
X100225000Y-107985000D01*
G75*
G02*
X100375000Y-108135000I0J-150000D01*
G01*
G37*
G36*
G01*
X100375000Y-109405000D02*
X100375000Y-109705000D01*
G75*
G02*
X100225000Y-109855000I-150000J0D01*
G01*
X98475000Y-109855000D01*
G75*
G02*
X98325000Y-109705000I0J150000D01*
G01*
X98325000Y-109405000D01*
G75*
G02*
X98475000Y-109255000I150000J0D01*
G01*
X100225000Y-109255000D01*
G75*
G02*
X100375000Y-109405000I0J-150000D01*
G01*
G37*
G36*
G01*
X100375000Y-110675000D02*
X100375000Y-110975000D01*
G75*
G02*
X100225000Y-111125000I-150000J0D01*
G01*
X98475000Y-111125000D01*
G75*
G02*
X98325000Y-110975000I0J150000D01*
G01*
X98325000Y-110675000D01*
G75*
G02*
X98475000Y-110525000I150000J0D01*
G01*
X100225000Y-110525000D01*
G75*
G02*
X100375000Y-110675000I0J-150000D01*
G01*
G37*
G36*
G01*
X100375000Y-111945000D02*
X100375000Y-112245000D01*
G75*
G02*
X100225000Y-112395000I-150000J0D01*
G01*
X98475000Y-112395000D01*
G75*
G02*
X98325000Y-112245000I0J150000D01*
G01*
X98325000Y-111945000D01*
G75*
G02*
X98475000Y-111795000I150000J0D01*
G01*
X100225000Y-111795000D01*
G75*
G02*
X100375000Y-111945000I0J-150000D01*
G01*
G37*
G36*
G01*
X100375000Y-113215000D02*
X100375000Y-113515000D01*
G75*
G02*
X100225000Y-113665000I-150000J0D01*
G01*
X98475000Y-113665000D01*
G75*
G02*
X98325000Y-113515000I0J150000D01*
G01*
X98325000Y-113215000D01*
G75*
G02*
X98475000Y-113065000I150000J0D01*
G01*
X100225000Y-113065000D01*
G75*
G02*
X100375000Y-113215000I0J-150000D01*
G01*
G37*
G36*
G01*
X100375000Y-114485000D02*
X100375000Y-114785000D01*
G75*
G02*
X100225000Y-114935000I-150000J0D01*
G01*
X98475000Y-114935000D01*
G75*
G02*
X98325000Y-114785000I0J150000D01*
G01*
X98325000Y-114485000D01*
G75*
G02*
X98475000Y-114335000I150000J0D01*
G01*
X100225000Y-114335000D01*
G75*
G02*
X100375000Y-114485000I0J-150000D01*
G01*
G37*
G36*
G01*
X100375000Y-115755000D02*
X100375000Y-116055000D01*
G75*
G02*
X100225000Y-116205000I-150000J0D01*
G01*
X98475000Y-116205000D01*
G75*
G02*
X98325000Y-116055000I0J150000D01*
G01*
X98325000Y-115755000D01*
G75*
G02*
X98475000Y-115605000I150000J0D01*
G01*
X100225000Y-115605000D01*
G75*
G02*
X100375000Y-115755000I0J-150000D01*
G01*
G37*
G36*
G01*
X100375000Y-117025000D02*
X100375000Y-117325000D01*
G75*
G02*
X100225000Y-117475000I-150000J0D01*
G01*
X98475000Y-117475000D01*
G75*
G02*
X98325000Y-117325000I0J150000D01*
G01*
X98325000Y-117025000D01*
G75*
G02*
X98475000Y-116875000I150000J0D01*
G01*
X100225000Y-116875000D01*
G75*
G02*
X100375000Y-117025000I0J-150000D01*
G01*
G37*
G36*
G01*
X100375000Y-118295000D02*
X100375000Y-118595000D01*
G75*
G02*
X100225000Y-118745000I-150000J0D01*
G01*
X98475000Y-118745000D01*
G75*
G02*
X98325000Y-118595000I0J150000D01*
G01*
X98325000Y-118295000D01*
G75*
G02*
X98475000Y-118145000I150000J0D01*
G01*
X100225000Y-118145000D01*
G75*
G02*
X100375000Y-118295000I0J-150000D01*
G01*
G37*
G36*
G01*
X100375000Y-119565000D02*
X100375000Y-119865000D01*
G75*
G02*
X100225000Y-120015000I-150000J0D01*
G01*
X98475000Y-120015000D01*
G75*
G02*
X98325000Y-119865000I0J150000D01*
G01*
X98325000Y-119565000D01*
G75*
G02*
X98475000Y-119415000I150000J0D01*
G01*
X100225000Y-119415000D01*
G75*
G02*
X100375000Y-119565000I0J-150000D01*
G01*
G37*
G36*
G01*
X100375000Y-120835000D02*
X100375000Y-121135000D01*
G75*
G02*
X100225000Y-121285000I-150000J0D01*
G01*
X98475000Y-121285000D01*
G75*
G02*
X98325000Y-121135000I0J150000D01*
G01*
X98325000Y-120835000D01*
G75*
G02*
X98475000Y-120685000I150000J0D01*
G01*
X100225000Y-120685000D01*
G75*
G02*
X100375000Y-120835000I0J-150000D01*
G01*
G37*
G36*
G01*
X100375000Y-122105000D02*
X100375000Y-122405000D01*
G75*
G02*
X100225000Y-122555000I-150000J0D01*
G01*
X98475000Y-122555000D01*
G75*
G02*
X98325000Y-122405000I0J150000D01*
G01*
X98325000Y-122105000D01*
G75*
G02*
X98475000Y-121955000I150000J0D01*
G01*
X100225000Y-121955000D01*
G75*
G02*
X100375000Y-122105000I0J-150000D01*
G01*
G37*
G36*
G01*
X109675000Y-122105000D02*
X109675000Y-122405000D01*
G75*
G02*
X109525000Y-122555000I-150000J0D01*
G01*
X107775000Y-122555000D01*
G75*
G02*
X107625000Y-122405000I0J150000D01*
G01*
X107625000Y-122105000D01*
G75*
G02*
X107775000Y-121955000I150000J0D01*
G01*
X109525000Y-121955000D01*
G75*
G02*
X109675000Y-122105000I0J-150000D01*
G01*
G37*
G36*
G01*
X109675000Y-120835000D02*
X109675000Y-121135000D01*
G75*
G02*
X109525000Y-121285000I-150000J0D01*
G01*
X107775000Y-121285000D01*
G75*
G02*
X107625000Y-121135000I0J150000D01*
G01*
X107625000Y-120835000D01*
G75*
G02*
X107775000Y-120685000I150000J0D01*
G01*
X109525000Y-120685000D01*
G75*
G02*
X109675000Y-120835000I0J-150000D01*
G01*
G37*
G36*
G01*
X109675000Y-119565000D02*
X109675000Y-119865000D01*
G75*
G02*
X109525000Y-120015000I-150000J0D01*
G01*
X107775000Y-120015000D01*
G75*
G02*
X107625000Y-119865000I0J150000D01*
G01*
X107625000Y-119565000D01*
G75*
G02*
X107775000Y-119415000I150000J0D01*
G01*
X109525000Y-119415000D01*
G75*
G02*
X109675000Y-119565000I0J-150000D01*
G01*
G37*
G36*
G01*
X109675000Y-118295000D02*
X109675000Y-118595000D01*
G75*
G02*
X109525000Y-118745000I-150000J0D01*
G01*
X107775000Y-118745000D01*
G75*
G02*
X107625000Y-118595000I0J150000D01*
G01*
X107625000Y-118295000D01*
G75*
G02*
X107775000Y-118145000I150000J0D01*
G01*
X109525000Y-118145000D01*
G75*
G02*
X109675000Y-118295000I0J-150000D01*
G01*
G37*
G36*
G01*
X109675000Y-117025000D02*
X109675000Y-117325000D01*
G75*
G02*
X109525000Y-117475000I-150000J0D01*
G01*
X107775000Y-117475000D01*
G75*
G02*
X107625000Y-117325000I0J150000D01*
G01*
X107625000Y-117025000D01*
G75*
G02*
X107775000Y-116875000I150000J0D01*
G01*
X109525000Y-116875000D01*
G75*
G02*
X109675000Y-117025000I0J-150000D01*
G01*
G37*
G36*
G01*
X109675000Y-115755000D02*
X109675000Y-116055000D01*
G75*
G02*
X109525000Y-116205000I-150000J0D01*
G01*
X107775000Y-116205000D01*
G75*
G02*
X107625000Y-116055000I0J150000D01*
G01*
X107625000Y-115755000D01*
G75*
G02*
X107775000Y-115605000I150000J0D01*
G01*
X109525000Y-115605000D01*
G75*
G02*
X109675000Y-115755000I0J-150000D01*
G01*
G37*
G36*
G01*
X109675000Y-114485000D02*
X109675000Y-114785000D01*
G75*
G02*
X109525000Y-114935000I-150000J0D01*
G01*
X107775000Y-114935000D01*
G75*
G02*
X107625000Y-114785000I0J150000D01*
G01*
X107625000Y-114485000D01*
G75*
G02*
X107775000Y-114335000I150000J0D01*
G01*
X109525000Y-114335000D01*
G75*
G02*
X109675000Y-114485000I0J-150000D01*
G01*
G37*
G36*
G01*
X109675000Y-113215000D02*
X109675000Y-113515000D01*
G75*
G02*
X109525000Y-113665000I-150000J0D01*
G01*
X107775000Y-113665000D01*
G75*
G02*
X107625000Y-113515000I0J150000D01*
G01*
X107625000Y-113215000D01*
G75*
G02*
X107775000Y-113065000I150000J0D01*
G01*
X109525000Y-113065000D01*
G75*
G02*
X109675000Y-113215000I0J-150000D01*
G01*
G37*
G36*
G01*
X109675000Y-111945000D02*
X109675000Y-112245000D01*
G75*
G02*
X109525000Y-112395000I-150000J0D01*
G01*
X107775000Y-112395000D01*
G75*
G02*
X107625000Y-112245000I0J150000D01*
G01*
X107625000Y-111945000D01*
G75*
G02*
X107775000Y-111795000I150000J0D01*
G01*
X109525000Y-111795000D01*
G75*
G02*
X109675000Y-111945000I0J-150000D01*
G01*
G37*
G36*
G01*
X109675000Y-110675000D02*
X109675000Y-110975000D01*
G75*
G02*
X109525000Y-111125000I-150000J0D01*
G01*
X107775000Y-111125000D01*
G75*
G02*
X107625000Y-110975000I0J150000D01*
G01*
X107625000Y-110675000D01*
G75*
G02*
X107775000Y-110525000I150000J0D01*
G01*
X109525000Y-110525000D01*
G75*
G02*
X109675000Y-110675000I0J-150000D01*
G01*
G37*
G36*
G01*
X109675000Y-109405000D02*
X109675000Y-109705000D01*
G75*
G02*
X109525000Y-109855000I-150000J0D01*
G01*
X107775000Y-109855000D01*
G75*
G02*
X107625000Y-109705000I0J150000D01*
G01*
X107625000Y-109405000D01*
G75*
G02*
X107775000Y-109255000I150000J0D01*
G01*
X109525000Y-109255000D01*
G75*
G02*
X109675000Y-109405000I0J-150000D01*
G01*
G37*
G36*
G01*
X109675000Y-108135000D02*
X109675000Y-108435000D01*
G75*
G02*
X109525000Y-108585000I-150000J0D01*
G01*
X107775000Y-108585000D01*
G75*
G02*
X107625000Y-108435000I0J150000D01*
G01*
X107625000Y-108135000D01*
G75*
G02*
X107775000Y-107985000I150000J0D01*
G01*
X109525000Y-107985000D01*
G75*
G02*
X109675000Y-108135000I0J-150000D01*
G01*
G37*
G36*
G01*
X109675000Y-106865000D02*
X109675000Y-107165000D01*
G75*
G02*
X109525000Y-107315000I-150000J0D01*
G01*
X107775000Y-107315000D01*
G75*
G02*
X107625000Y-107165000I0J150000D01*
G01*
X107625000Y-106865000D01*
G75*
G02*
X107775000Y-106715000I150000J0D01*
G01*
X109525000Y-106715000D01*
G75*
G02*
X109675000Y-106865000I0J-150000D01*
G01*
G37*
G36*
G01*
X109675000Y-105595000D02*
X109675000Y-105895000D01*
G75*
G02*
X109525000Y-106045000I-150000J0D01*
G01*
X107775000Y-106045000D01*
G75*
G02*
X107625000Y-105895000I0J150000D01*
G01*
X107625000Y-105595000D01*
G75*
G02*
X107775000Y-105445000I150000J0D01*
G01*
X109525000Y-105445000D01*
G75*
G02*
X109675000Y-105595000I0J-150000D01*
G01*
G37*
%TD*%
%TO.C,U2*%
G36*
G01*
X116095000Y-94325000D02*
X116395000Y-94325000D01*
G75*
G02*
X116545000Y-94475000I0J-150000D01*
G01*
X116545000Y-96225000D01*
G75*
G02*
X116395000Y-96375000I-150000J0D01*
G01*
X116095000Y-96375000D01*
G75*
G02*
X115945000Y-96225000I0J150000D01*
G01*
X115945000Y-94475000D01*
G75*
G02*
X116095000Y-94325000I150000J0D01*
G01*
G37*
G36*
G01*
X117365000Y-94325000D02*
X117665000Y-94325000D01*
G75*
G02*
X117815000Y-94475000I0J-150000D01*
G01*
X117815000Y-96225000D01*
G75*
G02*
X117665000Y-96375000I-150000J0D01*
G01*
X117365000Y-96375000D01*
G75*
G02*
X117215000Y-96225000I0J150000D01*
G01*
X117215000Y-94475000D01*
G75*
G02*
X117365000Y-94325000I150000J0D01*
G01*
G37*
G36*
G01*
X118635000Y-94325000D02*
X118935000Y-94325000D01*
G75*
G02*
X119085000Y-94475000I0J-150000D01*
G01*
X119085000Y-96225000D01*
G75*
G02*
X118935000Y-96375000I-150000J0D01*
G01*
X118635000Y-96375000D01*
G75*
G02*
X118485000Y-96225000I0J150000D01*
G01*
X118485000Y-94475000D01*
G75*
G02*
X118635000Y-94325000I150000J0D01*
G01*
G37*
G36*
G01*
X119905000Y-94325000D02*
X120205000Y-94325000D01*
G75*
G02*
X120355000Y-94475000I0J-150000D01*
G01*
X120355000Y-96225000D01*
G75*
G02*
X120205000Y-96375000I-150000J0D01*
G01*
X119905000Y-96375000D01*
G75*
G02*
X119755000Y-96225000I0J150000D01*
G01*
X119755000Y-94475000D01*
G75*
G02*
X119905000Y-94325000I150000J0D01*
G01*
G37*
G36*
G01*
X121175000Y-94325000D02*
X121475000Y-94325000D01*
G75*
G02*
X121625000Y-94475000I0J-150000D01*
G01*
X121625000Y-96225000D01*
G75*
G02*
X121475000Y-96375000I-150000J0D01*
G01*
X121175000Y-96375000D01*
G75*
G02*
X121025000Y-96225000I0J150000D01*
G01*
X121025000Y-94475000D01*
G75*
G02*
X121175000Y-94325000I150000J0D01*
G01*
G37*
G36*
G01*
X122445000Y-94325000D02*
X122745000Y-94325000D01*
G75*
G02*
X122895000Y-94475000I0J-150000D01*
G01*
X122895000Y-96225000D01*
G75*
G02*
X122745000Y-96375000I-150000J0D01*
G01*
X122445000Y-96375000D01*
G75*
G02*
X122295000Y-96225000I0J150000D01*
G01*
X122295000Y-94475000D01*
G75*
G02*
X122445000Y-94325000I150000J0D01*
G01*
G37*
G36*
G01*
X123715000Y-94325000D02*
X124015000Y-94325000D01*
G75*
G02*
X124165000Y-94475000I0J-150000D01*
G01*
X124165000Y-96225000D01*
G75*
G02*
X124015000Y-96375000I-150000J0D01*
G01*
X123715000Y-96375000D01*
G75*
G02*
X123565000Y-96225000I0J150000D01*
G01*
X123565000Y-94475000D01*
G75*
G02*
X123715000Y-94325000I150000J0D01*
G01*
G37*
G36*
G01*
X124985000Y-94325000D02*
X125285000Y-94325000D01*
G75*
G02*
X125435000Y-94475000I0J-150000D01*
G01*
X125435000Y-96225000D01*
G75*
G02*
X125285000Y-96375000I-150000J0D01*
G01*
X124985000Y-96375000D01*
G75*
G02*
X124835000Y-96225000I0J150000D01*
G01*
X124835000Y-94475000D01*
G75*
G02*
X124985000Y-94325000I150000J0D01*
G01*
G37*
G36*
G01*
X126255000Y-94325000D02*
X126555000Y-94325000D01*
G75*
G02*
X126705000Y-94475000I0J-150000D01*
G01*
X126705000Y-96225000D01*
G75*
G02*
X126555000Y-96375000I-150000J0D01*
G01*
X126255000Y-96375000D01*
G75*
G02*
X126105000Y-96225000I0J150000D01*
G01*
X126105000Y-94475000D01*
G75*
G02*
X126255000Y-94325000I150000J0D01*
G01*
G37*
G36*
G01*
X127525000Y-94325000D02*
X127825000Y-94325000D01*
G75*
G02*
X127975000Y-94475000I0J-150000D01*
G01*
X127975000Y-96225000D01*
G75*
G02*
X127825000Y-96375000I-150000J0D01*
G01*
X127525000Y-96375000D01*
G75*
G02*
X127375000Y-96225000I0J150000D01*
G01*
X127375000Y-94475000D01*
G75*
G02*
X127525000Y-94325000I150000J0D01*
G01*
G37*
G36*
G01*
X128795000Y-94325000D02*
X129095000Y-94325000D01*
G75*
G02*
X129245000Y-94475000I0J-150000D01*
G01*
X129245000Y-96225000D01*
G75*
G02*
X129095000Y-96375000I-150000J0D01*
G01*
X128795000Y-96375000D01*
G75*
G02*
X128645000Y-96225000I0J150000D01*
G01*
X128645000Y-94475000D01*
G75*
G02*
X128795000Y-94325000I150000J0D01*
G01*
G37*
G36*
G01*
X130065000Y-94325000D02*
X130365000Y-94325000D01*
G75*
G02*
X130515000Y-94475000I0J-150000D01*
G01*
X130515000Y-96225000D01*
G75*
G02*
X130365000Y-96375000I-150000J0D01*
G01*
X130065000Y-96375000D01*
G75*
G02*
X129915000Y-96225000I0J150000D01*
G01*
X129915000Y-94475000D01*
G75*
G02*
X130065000Y-94325000I150000J0D01*
G01*
G37*
G36*
G01*
X131335000Y-94325000D02*
X131635000Y-94325000D01*
G75*
G02*
X131785000Y-94475000I0J-150000D01*
G01*
X131785000Y-96225000D01*
G75*
G02*
X131635000Y-96375000I-150000J0D01*
G01*
X131335000Y-96375000D01*
G75*
G02*
X131185000Y-96225000I0J150000D01*
G01*
X131185000Y-94475000D01*
G75*
G02*
X131335000Y-94325000I150000J0D01*
G01*
G37*
G36*
G01*
X132605000Y-94325000D02*
X132905000Y-94325000D01*
G75*
G02*
X133055000Y-94475000I0J-150000D01*
G01*
X133055000Y-96225000D01*
G75*
G02*
X132905000Y-96375000I-150000J0D01*
G01*
X132605000Y-96375000D01*
G75*
G02*
X132455000Y-96225000I0J150000D01*
G01*
X132455000Y-94475000D01*
G75*
G02*
X132605000Y-94325000I150000J0D01*
G01*
G37*
G36*
G01*
X132605000Y-103625000D02*
X132905000Y-103625000D01*
G75*
G02*
X133055000Y-103775000I0J-150000D01*
G01*
X133055000Y-105525000D01*
G75*
G02*
X132905000Y-105675000I-150000J0D01*
G01*
X132605000Y-105675000D01*
G75*
G02*
X132455000Y-105525000I0J150000D01*
G01*
X132455000Y-103775000D01*
G75*
G02*
X132605000Y-103625000I150000J0D01*
G01*
G37*
G36*
G01*
X131335000Y-103625000D02*
X131635000Y-103625000D01*
G75*
G02*
X131785000Y-103775000I0J-150000D01*
G01*
X131785000Y-105525000D01*
G75*
G02*
X131635000Y-105675000I-150000J0D01*
G01*
X131335000Y-105675000D01*
G75*
G02*
X131185000Y-105525000I0J150000D01*
G01*
X131185000Y-103775000D01*
G75*
G02*
X131335000Y-103625000I150000J0D01*
G01*
G37*
G36*
G01*
X130065000Y-103625000D02*
X130365000Y-103625000D01*
G75*
G02*
X130515000Y-103775000I0J-150000D01*
G01*
X130515000Y-105525000D01*
G75*
G02*
X130365000Y-105675000I-150000J0D01*
G01*
X130065000Y-105675000D01*
G75*
G02*
X129915000Y-105525000I0J150000D01*
G01*
X129915000Y-103775000D01*
G75*
G02*
X130065000Y-103625000I150000J0D01*
G01*
G37*
G36*
G01*
X128795000Y-103625000D02*
X129095000Y-103625000D01*
G75*
G02*
X129245000Y-103775000I0J-150000D01*
G01*
X129245000Y-105525000D01*
G75*
G02*
X129095000Y-105675000I-150000J0D01*
G01*
X128795000Y-105675000D01*
G75*
G02*
X128645000Y-105525000I0J150000D01*
G01*
X128645000Y-103775000D01*
G75*
G02*
X128795000Y-103625000I150000J0D01*
G01*
G37*
G36*
G01*
X127525000Y-103625000D02*
X127825000Y-103625000D01*
G75*
G02*
X127975000Y-103775000I0J-150000D01*
G01*
X127975000Y-105525000D01*
G75*
G02*
X127825000Y-105675000I-150000J0D01*
G01*
X127525000Y-105675000D01*
G75*
G02*
X127375000Y-105525000I0J150000D01*
G01*
X127375000Y-103775000D01*
G75*
G02*
X127525000Y-103625000I150000J0D01*
G01*
G37*
G36*
G01*
X126255000Y-103625000D02*
X126555000Y-103625000D01*
G75*
G02*
X126705000Y-103775000I0J-150000D01*
G01*
X126705000Y-105525000D01*
G75*
G02*
X126555000Y-105675000I-150000J0D01*
G01*
X126255000Y-105675000D01*
G75*
G02*
X126105000Y-105525000I0J150000D01*
G01*
X126105000Y-103775000D01*
G75*
G02*
X126255000Y-103625000I150000J0D01*
G01*
G37*
G36*
G01*
X124985000Y-103625000D02*
X125285000Y-103625000D01*
G75*
G02*
X125435000Y-103775000I0J-150000D01*
G01*
X125435000Y-105525000D01*
G75*
G02*
X125285000Y-105675000I-150000J0D01*
G01*
X124985000Y-105675000D01*
G75*
G02*
X124835000Y-105525000I0J150000D01*
G01*
X124835000Y-103775000D01*
G75*
G02*
X124985000Y-103625000I150000J0D01*
G01*
G37*
G36*
G01*
X123715000Y-103625000D02*
X124015000Y-103625000D01*
G75*
G02*
X124165000Y-103775000I0J-150000D01*
G01*
X124165000Y-105525000D01*
G75*
G02*
X124015000Y-105675000I-150000J0D01*
G01*
X123715000Y-105675000D01*
G75*
G02*
X123565000Y-105525000I0J150000D01*
G01*
X123565000Y-103775000D01*
G75*
G02*
X123715000Y-103625000I150000J0D01*
G01*
G37*
G36*
G01*
X122445000Y-103625000D02*
X122745000Y-103625000D01*
G75*
G02*
X122895000Y-103775000I0J-150000D01*
G01*
X122895000Y-105525000D01*
G75*
G02*
X122745000Y-105675000I-150000J0D01*
G01*
X122445000Y-105675000D01*
G75*
G02*
X122295000Y-105525000I0J150000D01*
G01*
X122295000Y-103775000D01*
G75*
G02*
X122445000Y-103625000I150000J0D01*
G01*
G37*
G36*
G01*
X121175000Y-103625000D02*
X121475000Y-103625000D01*
G75*
G02*
X121625000Y-103775000I0J-150000D01*
G01*
X121625000Y-105525000D01*
G75*
G02*
X121475000Y-105675000I-150000J0D01*
G01*
X121175000Y-105675000D01*
G75*
G02*
X121025000Y-105525000I0J150000D01*
G01*
X121025000Y-103775000D01*
G75*
G02*
X121175000Y-103625000I150000J0D01*
G01*
G37*
G36*
G01*
X119905000Y-103625000D02*
X120205000Y-103625000D01*
G75*
G02*
X120355000Y-103775000I0J-150000D01*
G01*
X120355000Y-105525000D01*
G75*
G02*
X120205000Y-105675000I-150000J0D01*
G01*
X119905000Y-105675000D01*
G75*
G02*
X119755000Y-105525000I0J150000D01*
G01*
X119755000Y-103775000D01*
G75*
G02*
X119905000Y-103625000I150000J0D01*
G01*
G37*
G36*
G01*
X118635000Y-103625000D02*
X118935000Y-103625000D01*
G75*
G02*
X119085000Y-103775000I0J-150000D01*
G01*
X119085000Y-105525000D01*
G75*
G02*
X118935000Y-105675000I-150000J0D01*
G01*
X118635000Y-105675000D01*
G75*
G02*
X118485000Y-105525000I0J150000D01*
G01*
X118485000Y-103775000D01*
G75*
G02*
X118635000Y-103625000I150000J0D01*
G01*
G37*
G36*
G01*
X117365000Y-103625000D02*
X117665000Y-103625000D01*
G75*
G02*
X117815000Y-103775000I0J-150000D01*
G01*
X117815000Y-105525000D01*
G75*
G02*
X117665000Y-105675000I-150000J0D01*
G01*
X117365000Y-105675000D01*
G75*
G02*
X117215000Y-105525000I0J150000D01*
G01*
X117215000Y-103775000D01*
G75*
G02*
X117365000Y-103625000I150000J0D01*
G01*
G37*
G36*
G01*
X116095000Y-103625000D02*
X116395000Y-103625000D01*
G75*
G02*
X116545000Y-103775000I0J-150000D01*
G01*
X116545000Y-105525000D01*
G75*
G02*
X116395000Y-105675000I-150000J0D01*
G01*
X116095000Y-105675000D01*
G75*
G02*
X115945000Y-105525000I0J150000D01*
G01*
X115945000Y-103775000D01*
G75*
G02*
X116095000Y-103625000I150000J0D01*
G01*
G37*
%TD*%
%TO.C,U3*%
G36*
G01*
X148675000Y-104595000D02*
X148675000Y-104895000D01*
G75*
G02*
X148525000Y-105045000I-150000J0D01*
G01*
X146775000Y-105045000D01*
G75*
G02*
X146625000Y-104895000I0J150000D01*
G01*
X146625000Y-104595000D01*
G75*
G02*
X146775000Y-104445000I150000J0D01*
G01*
X148525000Y-104445000D01*
G75*
G02*
X148675000Y-104595000I0J-150000D01*
G01*
G37*
G36*
G01*
X148675000Y-105865000D02*
X148675000Y-106165000D01*
G75*
G02*
X148525000Y-106315000I-150000J0D01*
G01*
X146775000Y-106315000D01*
G75*
G02*
X146625000Y-106165000I0J150000D01*
G01*
X146625000Y-105865000D01*
G75*
G02*
X146775000Y-105715000I150000J0D01*
G01*
X148525000Y-105715000D01*
G75*
G02*
X148675000Y-105865000I0J-150000D01*
G01*
G37*
G36*
G01*
X148675000Y-107135000D02*
X148675000Y-107435000D01*
G75*
G02*
X148525000Y-107585000I-150000J0D01*
G01*
X146775000Y-107585000D01*
G75*
G02*
X146625000Y-107435000I0J150000D01*
G01*
X146625000Y-107135000D01*
G75*
G02*
X146775000Y-106985000I150000J0D01*
G01*
X148525000Y-106985000D01*
G75*
G02*
X148675000Y-107135000I0J-150000D01*
G01*
G37*
G36*
G01*
X148675000Y-108405000D02*
X148675000Y-108705000D01*
G75*
G02*
X148525000Y-108855000I-150000J0D01*
G01*
X146775000Y-108855000D01*
G75*
G02*
X146625000Y-108705000I0J150000D01*
G01*
X146625000Y-108405000D01*
G75*
G02*
X146775000Y-108255000I150000J0D01*
G01*
X148525000Y-108255000D01*
G75*
G02*
X148675000Y-108405000I0J-150000D01*
G01*
G37*
G36*
G01*
X148675000Y-109675000D02*
X148675000Y-109975000D01*
G75*
G02*
X148525000Y-110125000I-150000J0D01*
G01*
X146775000Y-110125000D01*
G75*
G02*
X146625000Y-109975000I0J150000D01*
G01*
X146625000Y-109675000D01*
G75*
G02*
X146775000Y-109525000I150000J0D01*
G01*
X148525000Y-109525000D01*
G75*
G02*
X148675000Y-109675000I0J-150000D01*
G01*
G37*
G36*
G01*
X148675000Y-110945000D02*
X148675000Y-111245000D01*
G75*
G02*
X148525000Y-111395000I-150000J0D01*
G01*
X146775000Y-111395000D01*
G75*
G02*
X146625000Y-111245000I0J150000D01*
G01*
X146625000Y-110945000D01*
G75*
G02*
X146775000Y-110795000I150000J0D01*
G01*
X148525000Y-110795000D01*
G75*
G02*
X148675000Y-110945000I0J-150000D01*
G01*
G37*
G36*
G01*
X148675000Y-112215000D02*
X148675000Y-112515000D01*
G75*
G02*
X148525000Y-112665000I-150000J0D01*
G01*
X146775000Y-112665000D01*
G75*
G02*
X146625000Y-112515000I0J150000D01*
G01*
X146625000Y-112215000D01*
G75*
G02*
X146775000Y-112065000I150000J0D01*
G01*
X148525000Y-112065000D01*
G75*
G02*
X148675000Y-112215000I0J-150000D01*
G01*
G37*
G36*
G01*
X148675000Y-113485000D02*
X148675000Y-113785000D01*
G75*
G02*
X148525000Y-113935000I-150000J0D01*
G01*
X146775000Y-113935000D01*
G75*
G02*
X146625000Y-113785000I0J150000D01*
G01*
X146625000Y-113485000D01*
G75*
G02*
X146775000Y-113335000I150000J0D01*
G01*
X148525000Y-113335000D01*
G75*
G02*
X148675000Y-113485000I0J-150000D01*
G01*
G37*
G36*
G01*
X148675000Y-114755000D02*
X148675000Y-115055000D01*
G75*
G02*
X148525000Y-115205000I-150000J0D01*
G01*
X146775000Y-115205000D01*
G75*
G02*
X146625000Y-115055000I0J150000D01*
G01*
X146625000Y-114755000D01*
G75*
G02*
X146775000Y-114605000I150000J0D01*
G01*
X148525000Y-114605000D01*
G75*
G02*
X148675000Y-114755000I0J-150000D01*
G01*
G37*
G36*
G01*
X148675000Y-116025000D02*
X148675000Y-116325000D01*
G75*
G02*
X148525000Y-116475000I-150000J0D01*
G01*
X146775000Y-116475000D01*
G75*
G02*
X146625000Y-116325000I0J150000D01*
G01*
X146625000Y-116025000D01*
G75*
G02*
X146775000Y-115875000I150000J0D01*
G01*
X148525000Y-115875000D01*
G75*
G02*
X148675000Y-116025000I0J-150000D01*
G01*
G37*
G36*
G01*
X148675000Y-117295000D02*
X148675000Y-117595000D01*
G75*
G02*
X148525000Y-117745000I-150000J0D01*
G01*
X146775000Y-117745000D01*
G75*
G02*
X146625000Y-117595000I0J150000D01*
G01*
X146625000Y-117295000D01*
G75*
G02*
X146775000Y-117145000I150000J0D01*
G01*
X148525000Y-117145000D01*
G75*
G02*
X148675000Y-117295000I0J-150000D01*
G01*
G37*
G36*
G01*
X148675000Y-118565000D02*
X148675000Y-118865000D01*
G75*
G02*
X148525000Y-119015000I-150000J0D01*
G01*
X146775000Y-119015000D01*
G75*
G02*
X146625000Y-118865000I0J150000D01*
G01*
X146625000Y-118565000D01*
G75*
G02*
X146775000Y-118415000I150000J0D01*
G01*
X148525000Y-118415000D01*
G75*
G02*
X148675000Y-118565000I0J-150000D01*
G01*
G37*
G36*
G01*
X148675000Y-119835000D02*
X148675000Y-120135000D01*
G75*
G02*
X148525000Y-120285000I-150000J0D01*
G01*
X146775000Y-120285000D01*
G75*
G02*
X146625000Y-120135000I0J150000D01*
G01*
X146625000Y-119835000D01*
G75*
G02*
X146775000Y-119685000I150000J0D01*
G01*
X148525000Y-119685000D01*
G75*
G02*
X148675000Y-119835000I0J-150000D01*
G01*
G37*
G36*
G01*
X148675000Y-121105000D02*
X148675000Y-121405000D01*
G75*
G02*
X148525000Y-121555000I-150000J0D01*
G01*
X146775000Y-121555000D01*
G75*
G02*
X146625000Y-121405000I0J150000D01*
G01*
X146625000Y-121105000D01*
G75*
G02*
X146775000Y-120955000I150000J0D01*
G01*
X148525000Y-120955000D01*
G75*
G02*
X148675000Y-121105000I0J-150000D01*
G01*
G37*
G36*
G01*
X139375000Y-121105000D02*
X139375000Y-121405000D01*
G75*
G02*
X139225000Y-121555000I-150000J0D01*
G01*
X137475000Y-121555000D01*
G75*
G02*
X137325000Y-121405000I0J150000D01*
G01*
X137325000Y-121105000D01*
G75*
G02*
X137475000Y-120955000I150000J0D01*
G01*
X139225000Y-120955000D01*
G75*
G02*
X139375000Y-121105000I0J-150000D01*
G01*
G37*
G36*
G01*
X139375000Y-119835000D02*
X139375000Y-120135000D01*
G75*
G02*
X139225000Y-120285000I-150000J0D01*
G01*
X137475000Y-120285000D01*
G75*
G02*
X137325000Y-120135000I0J150000D01*
G01*
X137325000Y-119835000D01*
G75*
G02*
X137475000Y-119685000I150000J0D01*
G01*
X139225000Y-119685000D01*
G75*
G02*
X139375000Y-119835000I0J-150000D01*
G01*
G37*
G36*
G01*
X139375000Y-118565000D02*
X139375000Y-118865000D01*
G75*
G02*
X139225000Y-119015000I-150000J0D01*
G01*
X137475000Y-119015000D01*
G75*
G02*
X137325000Y-118865000I0J150000D01*
G01*
X137325000Y-118565000D01*
G75*
G02*
X137475000Y-118415000I150000J0D01*
G01*
X139225000Y-118415000D01*
G75*
G02*
X139375000Y-118565000I0J-150000D01*
G01*
G37*
G36*
G01*
X139375000Y-117295000D02*
X139375000Y-117595000D01*
G75*
G02*
X139225000Y-117745000I-150000J0D01*
G01*
X137475000Y-117745000D01*
G75*
G02*
X137325000Y-117595000I0J150000D01*
G01*
X137325000Y-117295000D01*
G75*
G02*
X137475000Y-117145000I150000J0D01*
G01*
X139225000Y-117145000D01*
G75*
G02*
X139375000Y-117295000I0J-150000D01*
G01*
G37*
G36*
G01*
X139375000Y-116025000D02*
X139375000Y-116325000D01*
G75*
G02*
X139225000Y-116475000I-150000J0D01*
G01*
X137475000Y-116475000D01*
G75*
G02*
X137325000Y-116325000I0J150000D01*
G01*
X137325000Y-116025000D01*
G75*
G02*
X137475000Y-115875000I150000J0D01*
G01*
X139225000Y-115875000D01*
G75*
G02*
X139375000Y-116025000I0J-150000D01*
G01*
G37*
G36*
G01*
X139375000Y-114755000D02*
X139375000Y-115055000D01*
G75*
G02*
X139225000Y-115205000I-150000J0D01*
G01*
X137475000Y-115205000D01*
G75*
G02*
X137325000Y-115055000I0J150000D01*
G01*
X137325000Y-114755000D01*
G75*
G02*
X137475000Y-114605000I150000J0D01*
G01*
X139225000Y-114605000D01*
G75*
G02*
X139375000Y-114755000I0J-150000D01*
G01*
G37*
G36*
G01*
X139375000Y-113485000D02*
X139375000Y-113785000D01*
G75*
G02*
X139225000Y-113935000I-150000J0D01*
G01*
X137475000Y-113935000D01*
G75*
G02*
X137325000Y-113785000I0J150000D01*
G01*
X137325000Y-113485000D01*
G75*
G02*
X137475000Y-113335000I150000J0D01*
G01*
X139225000Y-113335000D01*
G75*
G02*
X139375000Y-113485000I0J-150000D01*
G01*
G37*
G36*
G01*
X139375000Y-112215000D02*
X139375000Y-112515000D01*
G75*
G02*
X139225000Y-112665000I-150000J0D01*
G01*
X137475000Y-112665000D01*
G75*
G02*
X137325000Y-112515000I0J150000D01*
G01*
X137325000Y-112215000D01*
G75*
G02*
X137475000Y-112065000I150000J0D01*
G01*
X139225000Y-112065000D01*
G75*
G02*
X139375000Y-112215000I0J-150000D01*
G01*
G37*
G36*
G01*
X139375000Y-110945000D02*
X139375000Y-111245000D01*
G75*
G02*
X139225000Y-111395000I-150000J0D01*
G01*
X137475000Y-111395000D01*
G75*
G02*
X137325000Y-111245000I0J150000D01*
G01*
X137325000Y-110945000D01*
G75*
G02*
X137475000Y-110795000I150000J0D01*
G01*
X139225000Y-110795000D01*
G75*
G02*
X139375000Y-110945000I0J-150000D01*
G01*
G37*
G36*
G01*
X139375000Y-109675000D02*
X139375000Y-109975000D01*
G75*
G02*
X139225000Y-110125000I-150000J0D01*
G01*
X137475000Y-110125000D01*
G75*
G02*
X137325000Y-109975000I0J150000D01*
G01*
X137325000Y-109675000D01*
G75*
G02*
X137475000Y-109525000I150000J0D01*
G01*
X139225000Y-109525000D01*
G75*
G02*
X139375000Y-109675000I0J-150000D01*
G01*
G37*
G36*
G01*
X139375000Y-108405000D02*
X139375000Y-108705000D01*
G75*
G02*
X139225000Y-108855000I-150000J0D01*
G01*
X137475000Y-108855000D01*
G75*
G02*
X137325000Y-108705000I0J150000D01*
G01*
X137325000Y-108405000D01*
G75*
G02*
X137475000Y-108255000I150000J0D01*
G01*
X139225000Y-108255000D01*
G75*
G02*
X139375000Y-108405000I0J-150000D01*
G01*
G37*
G36*
G01*
X139375000Y-107135000D02*
X139375000Y-107435000D01*
G75*
G02*
X139225000Y-107585000I-150000J0D01*
G01*
X137475000Y-107585000D01*
G75*
G02*
X137325000Y-107435000I0J150000D01*
G01*
X137325000Y-107135000D01*
G75*
G02*
X137475000Y-106985000I150000J0D01*
G01*
X139225000Y-106985000D01*
G75*
G02*
X139375000Y-107135000I0J-150000D01*
G01*
G37*
G36*
G01*
X139375000Y-105865000D02*
X139375000Y-106165000D01*
G75*
G02*
X139225000Y-106315000I-150000J0D01*
G01*
X137475000Y-106315000D01*
G75*
G02*
X137325000Y-106165000I0J150000D01*
G01*
X137325000Y-105865000D01*
G75*
G02*
X137475000Y-105715000I150000J0D01*
G01*
X139225000Y-105715000D01*
G75*
G02*
X139375000Y-105865000I0J-150000D01*
G01*
G37*
G36*
G01*
X139375000Y-104595000D02*
X139375000Y-104895000D01*
G75*
G02*
X139225000Y-105045000I-150000J0D01*
G01*
X137475000Y-105045000D01*
G75*
G02*
X137325000Y-104895000I0J150000D01*
G01*
X137325000Y-104595000D01*
G75*
G02*
X137475000Y-104445000I150000J0D01*
G01*
X139225000Y-104445000D01*
G75*
G02*
X139375000Y-104595000I0J-150000D01*
G01*
G37*
%TD*%
%TO.C,U4*%
G36*
G01*
X180375000Y-104595000D02*
X180375000Y-104895000D01*
G75*
G02*
X180225000Y-105045000I-150000J0D01*
G01*
X178475000Y-105045000D01*
G75*
G02*
X178325000Y-104895000I0J150000D01*
G01*
X178325000Y-104595000D01*
G75*
G02*
X178475000Y-104445000I150000J0D01*
G01*
X180225000Y-104445000D01*
G75*
G02*
X180375000Y-104595000I0J-150000D01*
G01*
G37*
G36*
G01*
X180375000Y-105865000D02*
X180375000Y-106165000D01*
G75*
G02*
X180225000Y-106315000I-150000J0D01*
G01*
X178475000Y-106315000D01*
G75*
G02*
X178325000Y-106165000I0J150000D01*
G01*
X178325000Y-105865000D01*
G75*
G02*
X178475000Y-105715000I150000J0D01*
G01*
X180225000Y-105715000D01*
G75*
G02*
X180375000Y-105865000I0J-150000D01*
G01*
G37*
G36*
G01*
X180375000Y-107135000D02*
X180375000Y-107435000D01*
G75*
G02*
X180225000Y-107585000I-150000J0D01*
G01*
X178475000Y-107585000D01*
G75*
G02*
X178325000Y-107435000I0J150000D01*
G01*
X178325000Y-107135000D01*
G75*
G02*
X178475000Y-106985000I150000J0D01*
G01*
X180225000Y-106985000D01*
G75*
G02*
X180375000Y-107135000I0J-150000D01*
G01*
G37*
G36*
G01*
X180375000Y-108405000D02*
X180375000Y-108705000D01*
G75*
G02*
X180225000Y-108855000I-150000J0D01*
G01*
X178475000Y-108855000D01*
G75*
G02*
X178325000Y-108705000I0J150000D01*
G01*
X178325000Y-108405000D01*
G75*
G02*
X178475000Y-108255000I150000J0D01*
G01*
X180225000Y-108255000D01*
G75*
G02*
X180375000Y-108405000I0J-150000D01*
G01*
G37*
G36*
G01*
X180375000Y-109675000D02*
X180375000Y-109975000D01*
G75*
G02*
X180225000Y-110125000I-150000J0D01*
G01*
X178475000Y-110125000D01*
G75*
G02*
X178325000Y-109975000I0J150000D01*
G01*
X178325000Y-109675000D01*
G75*
G02*
X178475000Y-109525000I150000J0D01*
G01*
X180225000Y-109525000D01*
G75*
G02*
X180375000Y-109675000I0J-150000D01*
G01*
G37*
G36*
G01*
X180375000Y-110945000D02*
X180375000Y-111245000D01*
G75*
G02*
X180225000Y-111395000I-150000J0D01*
G01*
X178475000Y-111395000D01*
G75*
G02*
X178325000Y-111245000I0J150000D01*
G01*
X178325000Y-110945000D01*
G75*
G02*
X178475000Y-110795000I150000J0D01*
G01*
X180225000Y-110795000D01*
G75*
G02*
X180375000Y-110945000I0J-150000D01*
G01*
G37*
G36*
G01*
X180375000Y-112215000D02*
X180375000Y-112515000D01*
G75*
G02*
X180225000Y-112665000I-150000J0D01*
G01*
X178475000Y-112665000D01*
G75*
G02*
X178325000Y-112515000I0J150000D01*
G01*
X178325000Y-112215000D01*
G75*
G02*
X178475000Y-112065000I150000J0D01*
G01*
X180225000Y-112065000D01*
G75*
G02*
X180375000Y-112215000I0J-150000D01*
G01*
G37*
G36*
G01*
X180375000Y-113485000D02*
X180375000Y-113785000D01*
G75*
G02*
X180225000Y-113935000I-150000J0D01*
G01*
X178475000Y-113935000D01*
G75*
G02*
X178325000Y-113785000I0J150000D01*
G01*
X178325000Y-113485000D01*
G75*
G02*
X178475000Y-113335000I150000J0D01*
G01*
X180225000Y-113335000D01*
G75*
G02*
X180375000Y-113485000I0J-150000D01*
G01*
G37*
G36*
G01*
X180375000Y-114755000D02*
X180375000Y-115055000D01*
G75*
G02*
X180225000Y-115205000I-150000J0D01*
G01*
X178475000Y-115205000D01*
G75*
G02*
X178325000Y-115055000I0J150000D01*
G01*
X178325000Y-114755000D01*
G75*
G02*
X178475000Y-114605000I150000J0D01*
G01*
X180225000Y-114605000D01*
G75*
G02*
X180375000Y-114755000I0J-150000D01*
G01*
G37*
G36*
G01*
X180375000Y-116025000D02*
X180375000Y-116325000D01*
G75*
G02*
X180225000Y-116475000I-150000J0D01*
G01*
X178475000Y-116475000D01*
G75*
G02*
X178325000Y-116325000I0J150000D01*
G01*
X178325000Y-116025000D01*
G75*
G02*
X178475000Y-115875000I150000J0D01*
G01*
X180225000Y-115875000D01*
G75*
G02*
X180375000Y-116025000I0J-150000D01*
G01*
G37*
G36*
G01*
X180375000Y-117295000D02*
X180375000Y-117595000D01*
G75*
G02*
X180225000Y-117745000I-150000J0D01*
G01*
X178475000Y-117745000D01*
G75*
G02*
X178325000Y-117595000I0J150000D01*
G01*
X178325000Y-117295000D01*
G75*
G02*
X178475000Y-117145000I150000J0D01*
G01*
X180225000Y-117145000D01*
G75*
G02*
X180375000Y-117295000I0J-150000D01*
G01*
G37*
G36*
G01*
X180375000Y-118565000D02*
X180375000Y-118865000D01*
G75*
G02*
X180225000Y-119015000I-150000J0D01*
G01*
X178475000Y-119015000D01*
G75*
G02*
X178325000Y-118865000I0J150000D01*
G01*
X178325000Y-118565000D01*
G75*
G02*
X178475000Y-118415000I150000J0D01*
G01*
X180225000Y-118415000D01*
G75*
G02*
X180375000Y-118565000I0J-150000D01*
G01*
G37*
G36*
G01*
X180375000Y-119835000D02*
X180375000Y-120135000D01*
G75*
G02*
X180225000Y-120285000I-150000J0D01*
G01*
X178475000Y-120285000D01*
G75*
G02*
X178325000Y-120135000I0J150000D01*
G01*
X178325000Y-119835000D01*
G75*
G02*
X178475000Y-119685000I150000J0D01*
G01*
X180225000Y-119685000D01*
G75*
G02*
X180375000Y-119835000I0J-150000D01*
G01*
G37*
G36*
G01*
X180375000Y-121105000D02*
X180375000Y-121405000D01*
G75*
G02*
X180225000Y-121555000I-150000J0D01*
G01*
X178475000Y-121555000D01*
G75*
G02*
X178325000Y-121405000I0J150000D01*
G01*
X178325000Y-121105000D01*
G75*
G02*
X178475000Y-120955000I150000J0D01*
G01*
X180225000Y-120955000D01*
G75*
G02*
X180375000Y-121105000I0J-150000D01*
G01*
G37*
G36*
G01*
X189675000Y-121105000D02*
X189675000Y-121405000D01*
G75*
G02*
X189525000Y-121555000I-150000J0D01*
G01*
X187775000Y-121555000D01*
G75*
G02*
X187625000Y-121405000I0J150000D01*
G01*
X187625000Y-121105000D01*
G75*
G02*
X187775000Y-120955000I150000J0D01*
G01*
X189525000Y-120955000D01*
G75*
G02*
X189675000Y-121105000I0J-150000D01*
G01*
G37*
G36*
G01*
X189675000Y-119835000D02*
X189675000Y-120135000D01*
G75*
G02*
X189525000Y-120285000I-150000J0D01*
G01*
X187775000Y-120285000D01*
G75*
G02*
X187625000Y-120135000I0J150000D01*
G01*
X187625000Y-119835000D01*
G75*
G02*
X187775000Y-119685000I150000J0D01*
G01*
X189525000Y-119685000D01*
G75*
G02*
X189675000Y-119835000I0J-150000D01*
G01*
G37*
G36*
G01*
X189675000Y-118565000D02*
X189675000Y-118865000D01*
G75*
G02*
X189525000Y-119015000I-150000J0D01*
G01*
X187775000Y-119015000D01*
G75*
G02*
X187625000Y-118865000I0J150000D01*
G01*
X187625000Y-118565000D01*
G75*
G02*
X187775000Y-118415000I150000J0D01*
G01*
X189525000Y-118415000D01*
G75*
G02*
X189675000Y-118565000I0J-150000D01*
G01*
G37*
G36*
G01*
X189675000Y-117295000D02*
X189675000Y-117595000D01*
G75*
G02*
X189525000Y-117745000I-150000J0D01*
G01*
X187775000Y-117745000D01*
G75*
G02*
X187625000Y-117595000I0J150000D01*
G01*
X187625000Y-117295000D01*
G75*
G02*
X187775000Y-117145000I150000J0D01*
G01*
X189525000Y-117145000D01*
G75*
G02*
X189675000Y-117295000I0J-150000D01*
G01*
G37*
G36*
G01*
X189675000Y-116025000D02*
X189675000Y-116325000D01*
G75*
G02*
X189525000Y-116475000I-150000J0D01*
G01*
X187775000Y-116475000D01*
G75*
G02*
X187625000Y-116325000I0J150000D01*
G01*
X187625000Y-116025000D01*
G75*
G02*
X187775000Y-115875000I150000J0D01*
G01*
X189525000Y-115875000D01*
G75*
G02*
X189675000Y-116025000I0J-150000D01*
G01*
G37*
G36*
G01*
X189675000Y-114755000D02*
X189675000Y-115055000D01*
G75*
G02*
X189525000Y-115205000I-150000J0D01*
G01*
X187775000Y-115205000D01*
G75*
G02*
X187625000Y-115055000I0J150000D01*
G01*
X187625000Y-114755000D01*
G75*
G02*
X187775000Y-114605000I150000J0D01*
G01*
X189525000Y-114605000D01*
G75*
G02*
X189675000Y-114755000I0J-150000D01*
G01*
G37*
G36*
G01*
X189675000Y-113485000D02*
X189675000Y-113785000D01*
G75*
G02*
X189525000Y-113935000I-150000J0D01*
G01*
X187775000Y-113935000D01*
G75*
G02*
X187625000Y-113785000I0J150000D01*
G01*
X187625000Y-113485000D01*
G75*
G02*
X187775000Y-113335000I150000J0D01*
G01*
X189525000Y-113335000D01*
G75*
G02*
X189675000Y-113485000I0J-150000D01*
G01*
G37*
G36*
G01*
X189675000Y-112215000D02*
X189675000Y-112515000D01*
G75*
G02*
X189525000Y-112665000I-150000J0D01*
G01*
X187775000Y-112665000D01*
G75*
G02*
X187625000Y-112515000I0J150000D01*
G01*
X187625000Y-112215000D01*
G75*
G02*
X187775000Y-112065000I150000J0D01*
G01*
X189525000Y-112065000D01*
G75*
G02*
X189675000Y-112215000I0J-150000D01*
G01*
G37*
G36*
G01*
X189675000Y-110945000D02*
X189675000Y-111245000D01*
G75*
G02*
X189525000Y-111395000I-150000J0D01*
G01*
X187775000Y-111395000D01*
G75*
G02*
X187625000Y-111245000I0J150000D01*
G01*
X187625000Y-110945000D01*
G75*
G02*
X187775000Y-110795000I150000J0D01*
G01*
X189525000Y-110795000D01*
G75*
G02*
X189675000Y-110945000I0J-150000D01*
G01*
G37*
G36*
G01*
X189675000Y-109675000D02*
X189675000Y-109975000D01*
G75*
G02*
X189525000Y-110125000I-150000J0D01*
G01*
X187775000Y-110125000D01*
G75*
G02*
X187625000Y-109975000I0J150000D01*
G01*
X187625000Y-109675000D01*
G75*
G02*
X187775000Y-109525000I150000J0D01*
G01*
X189525000Y-109525000D01*
G75*
G02*
X189675000Y-109675000I0J-150000D01*
G01*
G37*
G36*
G01*
X189675000Y-108405000D02*
X189675000Y-108705000D01*
G75*
G02*
X189525000Y-108855000I-150000J0D01*
G01*
X187775000Y-108855000D01*
G75*
G02*
X187625000Y-108705000I0J150000D01*
G01*
X187625000Y-108405000D01*
G75*
G02*
X187775000Y-108255000I150000J0D01*
G01*
X189525000Y-108255000D01*
G75*
G02*
X189675000Y-108405000I0J-150000D01*
G01*
G37*
G36*
G01*
X189675000Y-107135000D02*
X189675000Y-107435000D01*
G75*
G02*
X189525000Y-107585000I-150000J0D01*
G01*
X187775000Y-107585000D01*
G75*
G02*
X187625000Y-107435000I0J150000D01*
G01*
X187625000Y-107135000D01*
G75*
G02*
X187775000Y-106985000I150000J0D01*
G01*
X189525000Y-106985000D01*
G75*
G02*
X189675000Y-107135000I0J-150000D01*
G01*
G37*
G36*
G01*
X189675000Y-105865000D02*
X189675000Y-106165000D01*
G75*
G02*
X189525000Y-106315000I-150000J0D01*
G01*
X187775000Y-106315000D01*
G75*
G02*
X187625000Y-106165000I0J150000D01*
G01*
X187625000Y-105865000D01*
G75*
G02*
X187775000Y-105715000I150000J0D01*
G01*
X189525000Y-105715000D01*
G75*
G02*
X189675000Y-105865000I0J-150000D01*
G01*
G37*
G36*
G01*
X189675000Y-104595000D02*
X189675000Y-104895000D01*
G75*
G02*
X189525000Y-105045000I-150000J0D01*
G01*
X187775000Y-105045000D01*
G75*
G02*
X187625000Y-104895000I0J150000D01*
G01*
X187625000Y-104595000D01*
G75*
G02*
X187775000Y-104445000I150000J0D01*
G01*
X189525000Y-104445000D01*
G75*
G02*
X189675000Y-104595000I0J-150000D01*
G01*
G37*
%TD*%
D11*
%TO.C,Display*%
X85800000Y-69100000D03*
D12*
X85800000Y-71640000D03*
X85800000Y-74180000D03*
X85800000Y-76720000D03*
X85800000Y-79260000D03*
X85800000Y-81800000D03*
X85800000Y-84340000D03*
%TD*%
D11*
%TO.C,J4*%
X86000000Y-92000000D03*
D12*
X86000000Y-94540000D03*
X86000000Y-97080000D03*
X86000000Y-99620000D03*
X86000000Y-102160000D03*
X86000000Y-104700000D03*
X86000000Y-107240000D03*
X86000000Y-109780000D03*
X86000000Y-112320000D03*
X86000000Y-114860000D03*
X86000000Y-117400000D03*
%TD*%
D13*
%TO.C,I2C*%
X188000000Y-67500000D03*
D14*
X190000000Y-67500000D03*
X192000000Y-67500000D03*
X194000000Y-67500000D03*
%TD*%
D11*
%TO.C,D1*%
X194000000Y-87000000D03*
D12*
X191460000Y-87000000D03*
%TD*%
M02*
