M48
; DRILL file {KiCad (5.1.8)-1} date 11/23/21 00:19:05
; FORMAT={-:-/ absolute / metric / decimal}
; #@! TF.CreationDate,2021-11-23T00:19:05+09:00
; #@! TF.GenerationSoftware,Kicad,Pcbnew,(5.1.8)-1
FMAT,2
METRIC
T1C0.400
T2C0.800
T3C1.000
T4C1.200
T5C2.200
T6C2.500
%
G90
G05
T1
X80.5Y-107.0
X81.5Y-122.0
X81.5Y-127.0
X82.0Y-90.0
X88.5Y-126.0
X89.0Y-95.5
X90.0Y-77.5
X93.0Y-93.0
X93.5Y-98.0
X95.5Y-116.0
X97.0Y-101.0
X97.0Y-127.0
X102.0Y-109.5
X102.5Y-116.5
X105.0Y-98.0
X105.0Y-106.5
X105.0Y-127.0
X105.825Y-117.175
X106.5Y-110.0
X110.5Y-116.5
X110.5Y-119.0
X110.5Y-120.5
X111.0Y-107.0
X112.5Y-107.0
X114.0Y-120.5
X118.5Y-108.5
X120.5Y-97.5
X121.0Y-116.5
X121.0Y-120.5
X121.5Y-107.0
X125.5Y-108.5
X126.5Y-97.5
X126.5Y-101.5
X127.5Y-92.5
X128.0Y-98.5
X129.0Y-127.5
X129.5Y-97.5
X129.5Y-116.5
X132.0Y-101.0
X133.0Y-121.5
X133.013Y-116.513
X134.0Y-106.5
X134.5Y-96.0
X134.5Y-100.0
X135.0Y-111.0
X135.0Y-124.0
X136.0Y-96.0
X136.0Y-100.0
X137.0Y-101.0
X137.0Y-127.5
X137.5Y-97.0
X139.5Y-97.0
X140.5Y-108.5
X140.5Y-121.5
X144.0Y-113.5
X145.0Y-111.5
X145.5Y-110.0
X145.5Y-118.5
X145.5Y-120.0
X146.0Y-116.5
X149.0Y-127.0
X150.0Y-115.0
X150.0Y-118.5
X150.0Y-120.0
X151.0Y-96.5
X151.5Y-107.5
X152.0Y-115.0
X152.0Y-120.0
X153.0Y-111.5
X158.0Y-72.0
X158.5Y-122.0
X160.0Y-70.0
X162.5Y-97.0
X162.5Y-107.5
X162.5Y-110.5
X162.5Y-121.0
X169.0Y-125.5
X171.5Y-125.5
X174.0Y-112.5
X174.5Y-122.5
X175.0Y-98.0
X175.0Y-117.5
X176.0Y-110.0
X177.0Y-118.5
X184.0Y-95.0
X185.5Y-104.5
X185.5Y-120.5
X186.0Y-115.0
X186.0Y-116.5
X186.0Y-118.5
X186.5Y-111.0
X187.0Y-126.0
X193.945Y-108.555
X198.0Y-73.0
X198.0Y-107.5
X198.5Y-84.5
X198.5Y-121.0
X199.5Y-111.0
X206.5Y-69.0
T2
X188.0Y-67.5
X190.0Y-67.5
X192.0Y-67.5
X194.0Y-67.5
X162.83Y-74.0
X162.83Y-76.0
X162.83Y-78.0
X162.83Y-80.0
T3
X85.8Y-69.1
X85.8Y-71.64
X85.8Y-74.18
X85.8Y-76.72
X85.8Y-79.26
X85.8Y-81.8
X85.8Y-84.34
X191.46Y-87.0
X194.0Y-87.0
X191.46Y-83.0
X194.0Y-83.0
X162.84Y-69.38
X162.84Y-84.62
X165.38Y-69.38
X165.38Y-84.62
X167.92Y-69.38
X167.92Y-84.62
X170.46Y-69.38
X170.46Y-84.62
X173.0Y-69.38
X173.0Y-84.62
X175.54Y-69.38
X175.54Y-84.62
X178.08Y-84.62
X180.62Y-84.62
X183.16Y-84.62
T4
X94.8Y-109.5
X196.0Y-109.5
T5
X94.8Y-119.5
X129.5Y-119.5
X160.0Y-100.0
X160.0Y-119.5
X196.0Y-100.0
X196.0Y-119.5
T6
X82.3Y-68.7
X82.3Y-84.2
X154.3Y-68.7
X154.3Y-84.2
T0
M30
