%TF.GenerationSoftware,KiCad,Pcbnew,(5.1.8)-1*%
%TF.CreationDate,2023-04-23T23:39:47+09:00*%
%TF.ProjectId,face,66616365-2e6b-4696-9361-645f70636258,rev?*%
%TF.SameCoordinates,Original*%
%TF.FileFunction,Copper,L2,Bot*%
%TF.FilePolarity,Positive*%
%FSLAX46Y46*%
G04 Gerber Fmt 4.6, Leading zero omitted, Abs format (unit mm)*
G04 Created by KiCad (PCBNEW (5.1.8)-1) date 2023-04-23 23:39:47*
%MOMM*%
%LPD*%
G01*
G04 APERTURE LIST*
%TA.AperFunction,SMDPad,CuDef*%
%ADD10C,0.100000*%
%TD*%
%TA.AperFunction,ViaPad*%
%ADD11C,2.400000*%
%TD*%
%TA.AperFunction,Conductor*%
%ADD12C,0.250000*%
%TD*%
%TA.AperFunction,Conductor*%
%ADD13C,0.254000*%
%TD*%
%TA.AperFunction,Conductor*%
%ADD14C,0.100000*%
%TD*%
G04 APERTURE END LIST*
%TO.P,D1,2*%
%TO.N,VCC*%
%TA.AperFunction,SMDPad,CuDef*%
G36*
G01*
X201350000Y-78506250D02*
X201350000Y-77993750D01*
G75*
G02*
X201568750Y-77775000I218750J0D01*
G01*
X202006250Y-77775000D01*
G75*
G02*
X202225000Y-77993750I0J-218750D01*
G01*
X202225000Y-78506250D01*
G75*
G02*
X202006250Y-78725000I-218750J0D01*
G01*
X201568750Y-78725000D01*
G75*
G02*
X201350000Y-78506250I0J218750D01*
G01*
G37*
%TD.AperFunction*%
%TO.P,D1,1*%
%TO.N,GND*%
%TA.AperFunction,SMDPad,CuDef*%
G36*
G01*
X199775000Y-78506250D02*
X199775000Y-77993750D01*
G75*
G02*
X199993750Y-77775000I218750J0D01*
G01*
X200431250Y-77775000D01*
G75*
G02*
X200650000Y-77993750I0J-218750D01*
G01*
X200650000Y-78506250D01*
G75*
G02*
X200431250Y-78725000I-218750J0D01*
G01*
X199993750Y-78725000D01*
G75*
G02*
X199775000Y-78506250I0J218750D01*
G01*
G37*
%TD.AperFunction*%
%TD*%
%TO.P,D2,1*%
%TO.N,GND*%
%TA.AperFunction,SMDPad,CuDef*%
G36*
G01*
X199775000Y-118256250D02*
X199775000Y-117743750D01*
G75*
G02*
X199993750Y-117525000I218750J0D01*
G01*
X200431250Y-117525000D01*
G75*
G02*
X200650000Y-117743750I0J-218750D01*
G01*
X200650000Y-118256250D01*
G75*
G02*
X200431250Y-118475000I-218750J0D01*
G01*
X199993750Y-118475000D01*
G75*
G02*
X199775000Y-118256250I0J218750D01*
G01*
G37*
%TD.AperFunction*%
%TO.P,D2,2*%
%TO.N,VCC*%
%TA.AperFunction,SMDPad,CuDef*%
G36*
G01*
X201350000Y-118256250D02*
X201350000Y-117743750D01*
G75*
G02*
X201568750Y-117525000I218750J0D01*
G01*
X202006250Y-117525000D01*
G75*
G02*
X202225000Y-117743750I0J-218750D01*
G01*
X202225000Y-118256250D01*
G75*
G02*
X202006250Y-118475000I-218750J0D01*
G01*
X201568750Y-118475000D01*
G75*
G02*
X201350000Y-118256250I0J218750D01*
G01*
G37*
%TD.AperFunction*%
%TD*%
%TA.AperFunction,SMDPad,CuDef*%
D10*
%TO.P,J1,2*%
%TO.N,GND*%
G36*
X78950961Y-75090245D02*
G01*
X78953576Y-75081430D01*
X79553576Y-73581430D01*
X79558091Y-73572730D01*
X79564216Y-73565078D01*
X79571717Y-73558768D01*
X79580304Y-73554043D01*
X80523568Y-73149787D01*
X80514984Y-73121490D01*
X80505412Y-73073365D01*
X80500602Y-73024534D01*
X80500602Y-72975466D01*
X80505412Y-72926635D01*
X80514984Y-72878510D01*
X80529228Y-72831555D01*
X80548005Y-72786222D01*
X80571136Y-72742949D01*
X80598396Y-72702150D01*
X80629524Y-72664221D01*
X80664221Y-72629524D01*
X80702150Y-72598396D01*
X80742949Y-72571136D01*
X80786222Y-72548005D01*
X80831555Y-72529228D01*
X80878510Y-72514984D01*
X80926635Y-72505412D01*
X80975466Y-72500602D01*
X81024534Y-72500602D01*
X81073365Y-72505412D01*
X81121490Y-72514984D01*
X81168445Y-72529228D01*
X81213778Y-72548005D01*
X81257051Y-72571136D01*
X81297850Y-72598396D01*
X81335779Y-72629524D01*
X81370476Y-72664221D01*
X81401604Y-72702150D01*
X81428864Y-72742949D01*
X81451995Y-72786222D01*
X81470772Y-72831555D01*
X81485016Y-72878510D01*
X81494588Y-72926635D01*
X81499398Y-72975466D01*
X81499398Y-73024534D01*
X81494588Y-73073365D01*
X81485016Y-73121490D01*
X81476432Y-73149787D01*
X82419696Y-73554043D01*
X82428283Y-73558768D01*
X82435784Y-73565078D01*
X82441909Y-73572730D01*
X82446424Y-73581430D01*
X83046424Y-75081430D01*
X83049155Y-75090844D01*
X83049996Y-75100610D01*
X83048917Y-75110352D01*
X83045957Y-75119696D01*
X83041232Y-75128283D01*
X83034922Y-75135784D01*
X83027270Y-75141909D01*
X83018570Y-75146424D01*
X83009156Y-75149155D01*
X83000000Y-75150000D01*
X82400000Y-75150000D01*
X82390245Y-75149039D01*
X82380866Y-75146194D01*
X82372221Y-75141573D01*
X82364645Y-75135355D01*
X82358427Y-75127779D01*
X82353806Y-75119134D01*
X82350961Y-75109755D01*
X82350000Y-75100000D01*
X82350000Y-74250000D01*
X81350000Y-74250000D01*
X81350000Y-75900000D01*
X81349039Y-75909755D01*
X81346194Y-75919134D01*
X81341573Y-75927779D01*
X81335355Y-75935355D01*
X81327779Y-75941573D01*
X81319134Y-75946194D01*
X81309755Y-75949039D01*
X81300000Y-75950000D01*
X80700000Y-75950000D01*
X80690245Y-75949039D01*
X80680866Y-75946194D01*
X80672221Y-75941573D01*
X80664645Y-75935355D01*
X80658427Y-75927779D01*
X80653806Y-75919134D01*
X80650961Y-75909755D01*
X80650000Y-75900000D01*
X80650000Y-74250000D01*
X79650000Y-74250000D01*
X79650000Y-75100000D01*
X79649039Y-75109755D01*
X79646194Y-75119134D01*
X79641573Y-75127779D01*
X79635355Y-75135355D01*
X79627779Y-75141573D01*
X79619134Y-75146194D01*
X79609755Y-75149039D01*
X79600000Y-75150000D01*
X79000000Y-75150000D01*
X78990245Y-75149039D01*
X78980866Y-75146194D01*
X78972221Y-75141573D01*
X78964645Y-75135355D01*
X78958427Y-75127779D01*
X78953806Y-75119134D01*
X78950961Y-75109755D01*
X78950000Y-75100000D01*
X78950961Y-75090245D01*
G37*
%TD.AperFunction*%
%TA.AperFunction,SMDPad,CuDef*%
%TO.P,J1,1*%
%TO.N,VCC*%
G36*
X79050393Y-75393746D02*
G01*
X79052566Y-75384189D01*
X79056562Y-75375238D01*
X79062227Y-75367240D01*
X79069344Y-75360500D01*
X79077639Y-75355279D01*
X79086794Y-75351776D01*
X79100000Y-75350000D01*
X79850000Y-75350000D01*
X79850000Y-74500000D01*
X79850961Y-74490245D01*
X79853806Y-74480866D01*
X79858427Y-74472221D01*
X79864645Y-74464645D01*
X79872221Y-74458427D01*
X79880866Y-74453806D01*
X79890245Y-74450961D01*
X79900000Y-74450000D01*
X80400000Y-74450000D01*
X80409755Y-74450961D01*
X80419134Y-74453806D01*
X80427779Y-74458427D01*
X80435355Y-74464645D01*
X80441573Y-74472221D01*
X80446194Y-74480866D01*
X80449039Y-74490245D01*
X80450000Y-74500000D01*
X80450000Y-76150000D01*
X81550000Y-76150000D01*
X81550000Y-74500000D01*
X81550961Y-74490245D01*
X81553806Y-74480866D01*
X81558427Y-74472221D01*
X81564645Y-74464645D01*
X81572221Y-74458427D01*
X81580866Y-74453806D01*
X81590245Y-74450961D01*
X81600000Y-74450000D01*
X82100000Y-74450000D01*
X82109755Y-74450961D01*
X82119134Y-74453806D01*
X82127779Y-74458427D01*
X82135355Y-74464645D01*
X82141573Y-74472221D01*
X82146194Y-74480866D01*
X82149039Y-74490245D01*
X82150000Y-74500000D01*
X82150000Y-75350000D01*
X82900000Y-75350000D01*
X82909755Y-75350961D01*
X82919134Y-75353806D01*
X82927779Y-75358427D01*
X82935355Y-75364645D01*
X82941573Y-75372221D01*
X82946194Y-75380866D01*
X82949039Y-75390245D01*
X82950000Y-75400000D01*
X82949039Y-75409755D01*
X82944721Y-75422361D01*
X82444721Y-76422361D01*
X82439500Y-76430656D01*
X82432760Y-76437773D01*
X82424762Y-76443438D01*
X82419696Y-76445957D01*
X81476432Y-76850213D01*
X81485016Y-76878510D01*
X81494588Y-76926635D01*
X81499398Y-76975466D01*
X81499398Y-77024534D01*
X81494588Y-77073365D01*
X81485016Y-77121490D01*
X81470772Y-77168445D01*
X81451995Y-77213778D01*
X81428864Y-77257051D01*
X81401604Y-77297850D01*
X81370476Y-77335779D01*
X81335779Y-77370476D01*
X81297850Y-77401604D01*
X81257051Y-77428864D01*
X81213778Y-77451995D01*
X81168445Y-77470772D01*
X81121490Y-77485016D01*
X81073365Y-77494588D01*
X81024534Y-77499398D01*
X80975466Y-77499398D01*
X80926635Y-77494588D01*
X80878510Y-77485016D01*
X80831555Y-77470772D01*
X80786222Y-77451995D01*
X80742949Y-77428864D01*
X80702150Y-77401604D01*
X80664221Y-77370476D01*
X80629524Y-77335779D01*
X80598396Y-77297850D01*
X80571136Y-77257051D01*
X80548005Y-77213778D01*
X80529228Y-77168445D01*
X80514984Y-77121490D01*
X80505412Y-77073365D01*
X80500602Y-77024534D01*
X80500602Y-76975466D01*
X80505412Y-76926635D01*
X80514984Y-76878510D01*
X80523568Y-76850213D01*
X79580304Y-76445957D01*
X79571717Y-76441232D01*
X79564216Y-76434922D01*
X79558091Y-76427270D01*
X79555279Y-76422361D01*
X79055279Y-75422361D01*
X79051776Y-75413206D01*
X79050126Y-75403544D01*
X79050393Y-75393746D01*
G37*
%TD.AperFunction*%
%TD*%
%TA.AperFunction,SMDPad,CuDef*%
%TO.P,J2,1*%
%TO.N,VCC*%
G36*
X82949607Y-120606254D02*
G01*
X82947434Y-120615811D01*
X82943438Y-120624762D01*
X82937773Y-120632760D01*
X82930656Y-120639500D01*
X82922361Y-120644721D01*
X82913206Y-120648224D01*
X82900000Y-120650000D01*
X82150000Y-120650000D01*
X82150000Y-121500000D01*
X82149039Y-121509755D01*
X82146194Y-121519134D01*
X82141573Y-121527779D01*
X82135355Y-121535355D01*
X82127779Y-121541573D01*
X82119134Y-121546194D01*
X82109755Y-121549039D01*
X82100000Y-121550000D01*
X81600000Y-121550000D01*
X81590245Y-121549039D01*
X81580866Y-121546194D01*
X81572221Y-121541573D01*
X81564645Y-121535355D01*
X81558427Y-121527779D01*
X81553806Y-121519134D01*
X81550961Y-121509755D01*
X81550000Y-121500000D01*
X81550000Y-119850000D01*
X80450000Y-119850000D01*
X80450000Y-121500000D01*
X80449039Y-121509755D01*
X80446194Y-121519134D01*
X80441573Y-121527779D01*
X80435355Y-121535355D01*
X80427779Y-121541573D01*
X80419134Y-121546194D01*
X80409755Y-121549039D01*
X80400000Y-121550000D01*
X79900000Y-121550000D01*
X79890245Y-121549039D01*
X79880866Y-121546194D01*
X79872221Y-121541573D01*
X79864645Y-121535355D01*
X79858427Y-121527779D01*
X79853806Y-121519134D01*
X79850961Y-121509755D01*
X79850000Y-121500000D01*
X79850000Y-120650000D01*
X79100000Y-120650000D01*
X79090245Y-120649039D01*
X79080866Y-120646194D01*
X79072221Y-120641573D01*
X79064645Y-120635355D01*
X79058427Y-120627779D01*
X79053806Y-120619134D01*
X79050961Y-120609755D01*
X79050000Y-120600000D01*
X79050961Y-120590245D01*
X79055279Y-120577639D01*
X79555279Y-119577639D01*
X79560500Y-119569344D01*
X79567240Y-119562227D01*
X79575238Y-119556562D01*
X79580304Y-119554043D01*
X80523568Y-119149787D01*
X80514984Y-119121490D01*
X80505412Y-119073365D01*
X80500602Y-119024534D01*
X80500602Y-118975466D01*
X80505412Y-118926635D01*
X80514984Y-118878510D01*
X80529228Y-118831555D01*
X80548005Y-118786222D01*
X80571136Y-118742949D01*
X80598396Y-118702150D01*
X80629524Y-118664221D01*
X80664221Y-118629524D01*
X80702150Y-118598396D01*
X80742949Y-118571136D01*
X80786222Y-118548005D01*
X80831555Y-118529228D01*
X80878510Y-118514984D01*
X80926635Y-118505412D01*
X80975466Y-118500602D01*
X81024534Y-118500602D01*
X81073365Y-118505412D01*
X81121490Y-118514984D01*
X81168445Y-118529228D01*
X81213778Y-118548005D01*
X81257051Y-118571136D01*
X81297850Y-118598396D01*
X81335779Y-118629524D01*
X81370476Y-118664221D01*
X81401604Y-118702150D01*
X81428864Y-118742949D01*
X81451995Y-118786222D01*
X81470772Y-118831555D01*
X81485016Y-118878510D01*
X81494588Y-118926635D01*
X81499398Y-118975466D01*
X81499398Y-119024534D01*
X81494588Y-119073365D01*
X81485016Y-119121490D01*
X81476432Y-119149787D01*
X82419696Y-119554043D01*
X82428283Y-119558768D01*
X82435784Y-119565078D01*
X82441909Y-119572730D01*
X82444721Y-119577639D01*
X82944721Y-120577639D01*
X82948224Y-120586794D01*
X82949874Y-120596456D01*
X82949607Y-120606254D01*
G37*
%TD.AperFunction*%
%TA.AperFunction,SMDPad,CuDef*%
%TO.P,J2,2*%
%TO.N,GND*%
G36*
X83049039Y-120909755D02*
G01*
X83046424Y-120918570D01*
X82446424Y-122418570D01*
X82441909Y-122427270D01*
X82435784Y-122434922D01*
X82428283Y-122441232D01*
X82419696Y-122445957D01*
X81476432Y-122850213D01*
X81485016Y-122878510D01*
X81494588Y-122926635D01*
X81499398Y-122975466D01*
X81499398Y-123024534D01*
X81494588Y-123073365D01*
X81485016Y-123121490D01*
X81470772Y-123168445D01*
X81451995Y-123213778D01*
X81428864Y-123257051D01*
X81401604Y-123297850D01*
X81370476Y-123335779D01*
X81335779Y-123370476D01*
X81297850Y-123401604D01*
X81257051Y-123428864D01*
X81213778Y-123451995D01*
X81168445Y-123470772D01*
X81121490Y-123485016D01*
X81073365Y-123494588D01*
X81024534Y-123499398D01*
X80975466Y-123499398D01*
X80926635Y-123494588D01*
X80878510Y-123485016D01*
X80831555Y-123470772D01*
X80786222Y-123451995D01*
X80742949Y-123428864D01*
X80702150Y-123401604D01*
X80664221Y-123370476D01*
X80629524Y-123335779D01*
X80598396Y-123297850D01*
X80571136Y-123257051D01*
X80548005Y-123213778D01*
X80529228Y-123168445D01*
X80514984Y-123121490D01*
X80505412Y-123073365D01*
X80500602Y-123024534D01*
X80500602Y-122975466D01*
X80505412Y-122926635D01*
X80514984Y-122878510D01*
X80523568Y-122850213D01*
X79580304Y-122445957D01*
X79571717Y-122441232D01*
X79564216Y-122434922D01*
X79558091Y-122427270D01*
X79553576Y-122418570D01*
X78953576Y-120918570D01*
X78950845Y-120909156D01*
X78950004Y-120899390D01*
X78951083Y-120889648D01*
X78954043Y-120880304D01*
X78958768Y-120871717D01*
X78965078Y-120864216D01*
X78972730Y-120858091D01*
X78981430Y-120853576D01*
X78990844Y-120850845D01*
X79000000Y-120850000D01*
X79600000Y-120850000D01*
X79609755Y-120850961D01*
X79619134Y-120853806D01*
X79627779Y-120858427D01*
X79635355Y-120864645D01*
X79641573Y-120872221D01*
X79646194Y-120880866D01*
X79649039Y-120890245D01*
X79650000Y-120900000D01*
X79650000Y-121750000D01*
X80650000Y-121750000D01*
X80650000Y-120100000D01*
X80650961Y-120090245D01*
X80653806Y-120080866D01*
X80658427Y-120072221D01*
X80664645Y-120064645D01*
X80672221Y-120058427D01*
X80680866Y-120053806D01*
X80690245Y-120050961D01*
X80700000Y-120050000D01*
X81300000Y-120050000D01*
X81309755Y-120050961D01*
X81319134Y-120053806D01*
X81327779Y-120058427D01*
X81335355Y-120064645D01*
X81341573Y-120072221D01*
X81346194Y-120080866D01*
X81349039Y-120090245D01*
X81350000Y-120100000D01*
X81350000Y-121750000D01*
X82350000Y-121750000D01*
X82350000Y-120900000D01*
X82350961Y-120890245D01*
X82353806Y-120880866D01*
X82358427Y-120872221D01*
X82364645Y-120864645D01*
X82372221Y-120858427D01*
X82380866Y-120853806D01*
X82390245Y-120850961D01*
X82400000Y-120850000D01*
X83000000Y-120850000D01*
X83009755Y-120850961D01*
X83019134Y-120853806D01*
X83027779Y-120858427D01*
X83035355Y-120864645D01*
X83041573Y-120872221D01*
X83046194Y-120880866D01*
X83049039Y-120890245D01*
X83050000Y-120900000D01*
X83049039Y-120909755D01*
G37*
%TD.AperFunction*%
%TD*%
D11*
%TO.N,GND*%
X72500000Y-67000000D03*
X72500000Y-129000000D03*
X202000000Y-75000000D03*
X202000000Y-121000000D03*
%TD*%
D12*
%TO.N,VCC*%
X81000000Y-119000000D02*
X79250000Y-119000000D01*
X79250000Y-119000000D02*
X69000000Y-108750000D01*
X69000000Y-89000000D02*
X81000000Y-77000000D01*
X69000000Y-108750000D02*
X69000000Y-89000000D01*
X201787500Y-118000000D02*
X201787500Y-117787500D01*
X201787500Y-117787500D02*
X197000000Y-113000000D01*
X197000000Y-83037500D02*
X201787500Y-78250000D01*
X197000000Y-113000000D02*
X197000000Y-83037500D01*
X79250000Y-119000000D02*
X79000000Y-119000000D01*
X79000000Y-119000000D02*
X77250000Y-120750000D01*
X77250000Y-120750000D02*
X77250000Y-123000000D01*
X77250000Y-123000000D02*
X79000000Y-124750000D01*
X79000000Y-124750000D02*
X82000000Y-124750000D01*
X82000000Y-124750000D02*
X92250000Y-114500000D01*
X92250000Y-114500000D02*
X194000000Y-114500000D01*
X194000000Y-114500000D02*
X199500000Y-120000000D01*
X199787500Y-120000000D02*
X201787500Y-118000000D01*
X199500000Y-120000000D02*
X199787500Y-120000000D01*
%TO.N,GND*%
X82633260Y-123000000D02*
X91883260Y-113750000D01*
X81000000Y-123000000D02*
X82633260Y-123000000D01*
X195962500Y-113750000D02*
X200212500Y-118000000D01*
X81000000Y-73000000D02*
X86750000Y-73000000D01*
X86750000Y-73000000D02*
X96250000Y-82500000D01*
X195962500Y-82500000D02*
X200212500Y-78250000D01*
X96250000Y-82500000D02*
X195962500Y-82500000D01*
X195962500Y-113537500D02*
X195750000Y-113750000D01*
X195750000Y-113750000D02*
X195962500Y-113750000D01*
X195962500Y-82500000D02*
X195962500Y-113537500D01*
X91883260Y-113750000D02*
X195750000Y-113750000D01*
%TD*%
D13*
%TO.N,GND*%
X89865424Y-61669580D02*
X89928356Y-61688580D01*
X89986405Y-61719445D01*
X90024576Y-61750577D01*
X96568655Y-79994675D01*
X96577458Y-80028617D01*
X96604619Y-80084827D01*
X96631429Y-80141398D01*
X96632930Y-80143419D01*
X96634021Y-80145676D01*
X96671608Y-80195484D01*
X96708958Y-80245760D01*
X96710824Y-80247448D01*
X96712335Y-80249451D01*
X96758970Y-80291017D01*
X96805356Y-80332992D01*
X96807512Y-80334282D01*
X96809388Y-80335954D01*
X96863269Y-80367642D01*
X96916921Y-80399742D01*
X96919288Y-80400587D01*
X96921453Y-80401860D01*
X96980512Y-80422438D01*
X97039365Y-80443444D01*
X97041847Y-80443810D01*
X97044223Y-80444638D01*
X97106130Y-80453294D01*
X97167980Y-80462419D01*
X97170493Y-80462294D01*
X97172978Y-80462641D01*
X97235315Y-80459058D01*
X97297827Y-80455938D01*
X97300266Y-80455325D01*
X97302772Y-80455181D01*
X97363209Y-80439506D01*
X97423915Y-80424249D01*
X97455613Y-80409226D01*
X114906802Y-74000600D01*
X117068801Y-79995237D01*
X117077458Y-80028617D01*
X117104820Y-80085244D01*
X117132022Y-80142384D01*
X117133182Y-80143940D01*
X117134021Y-80145676D01*
X117171926Y-80195905D01*
X117209732Y-80246611D01*
X117211171Y-80247909D01*
X117212335Y-80249451D01*
X117259376Y-80291379D01*
X117306281Y-80333676D01*
X117307944Y-80334667D01*
X117309388Y-80335954D01*
X117363759Y-80367930D01*
X117417962Y-80400232D01*
X117419785Y-80400879D01*
X117421453Y-80401860D01*
X117481040Y-80422623D01*
X117540481Y-80443722D01*
X117542395Y-80444001D01*
X117544223Y-80444638D01*
X117606723Y-80453377D01*
X117669130Y-80462473D01*
X117671063Y-80462373D01*
X117672978Y-80462641D01*
X117735934Y-80459023D01*
X117798965Y-80455767D01*
X117800841Y-80455292D01*
X117802772Y-80455181D01*
X117863803Y-80439352D01*
X117924998Y-80423859D01*
X117956146Y-80409030D01*
X135406802Y-74000600D01*
X137568801Y-79995237D01*
X137577458Y-80028617D01*
X137604820Y-80085244D01*
X137632022Y-80142384D01*
X137633182Y-80143940D01*
X137634021Y-80145676D01*
X137671926Y-80195905D01*
X137709732Y-80246611D01*
X137711171Y-80247909D01*
X137712335Y-80249451D01*
X137759376Y-80291379D01*
X137806281Y-80333676D01*
X137807944Y-80334667D01*
X137809388Y-80335954D01*
X137863759Y-80367930D01*
X137917962Y-80400232D01*
X137919785Y-80400879D01*
X137921453Y-80401860D01*
X137981040Y-80422623D01*
X138040481Y-80443722D01*
X138042395Y-80444001D01*
X138044223Y-80444638D01*
X138106723Y-80453377D01*
X138169130Y-80462473D01*
X138171063Y-80462373D01*
X138172978Y-80462641D01*
X138235934Y-80459023D01*
X138298965Y-80455767D01*
X138300841Y-80455292D01*
X138302772Y-80455181D01*
X138363803Y-80439352D01*
X138424998Y-80423859D01*
X138456146Y-80409030D01*
X155906802Y-74000600D01*
X158068801Y-79995237D01*
X158077458Y-80028617D01*
X158104820Y-80085244D01*
X158132022Y-80142384D01*
X158133182Y-80143940D01*
X158134021Y-80145676D01*
X158171926Y-80195905D01*
X158209732Y-80246611D01*
X158211171Y-80247909D01*
X158212335Y-80249451D01*
X158259376Y-80291379D01*
X158306281Y-80333676D01*
X158307944Y-80334667D01*
X158309388Y-80335954D01*
X158363759Y-80367930D01*
X158417962Y-80400232D01*
X158419785Y-80400879D01*
X158421453Y-80401860D01*
X158481040Y-80422623D01*
X158540481Y-80443722D01*
X158542395Y-80444001D01*
X158544223Y-80444638D01*
X158606723Y-80453377D01*
X158669130Y-80462473D01*
X158671063Y-80462373D01*
X158672978Y-80462641D01*
X158735934Y-80459023D01*
X158798965Y-80455767D01*
X158800841Y-80455292D01*
X158802772Y-80455181D01*
X158863803Y-80439352D01*
X158924998Y-80423859D01*
X158956146Y-80409030D01*
X176406802Y-74000600D01*
X178568490Y-79994376D01*
X178576829Y-80026898D01*
X178604398Y-80084357D01*
X178632022Y-80142384D01*
X178632632Y-80143202D01*
X178633069Y-80144113D01*
X178671334Y-80195110D01*
X178709732Y-80246611D01*
X178710488Y-80247293D01*
X178711096Y-80248103D01*
X178758686Y-80290756D01*
X178806281Y-80333676D01*
X178807153Y-80334196D01*
X178807910Y-80334874D01*
X178863005Y-80367481D01*
X178917962Y-80400232D01*
X178918919Y-80400572D01*
X178919793Y-80401089D01*
X178980137Y-80422302D01*
X179040481Y-80443722D01*
X179041487Y-80443869D01*
X179042444Y-80444205D01*
X179105746Y-80453235D01*
X179169130Y-80462473D01*
X179170145Y-80462421D01*
X179171150Y-80462564D01*
X179234999Y-80459071D01*
X179298965Y-80455767D01*
X179299951Y-80455517D01*
X179300963Y-80455462D01*
X179362979Y-80439560D01*
X179424998Y-80423859D01*
X179455317Y-80409425D01*
X186690711Y-77775000D01*
X199136928Y-77775000D01*
X199140000Y-77964250D01*
X199298750Y-78123000D01*
X200085500Y-78123000D01*
X200085500Y-77298750D01*
X199926750Y-77140000D01*
X199775000Y-77136928D01*
X199650518Y-77149188D01*
X199530820Y-77185498D01*
X199420506Y-77244463D01*
X199323815Y-77323815D01*
X199244463Y-77420506D01*
X199185498Y-77530820D01*
X199149188Y-77650518D01*
X199136928Y-77775000D01*
X186690711Y-77775000D01*
X198896560Y-73330820D01*
X198929306Y-73322288D01*
X198986274Y-73294683D01*
X199044113Y-73266932D01*
X199045151Y-73266153D01*
X199046303Y-73265595D01*
X199096835Y-73227373D01*
X199148103Y-73188905D01*
X199148968Y-73187940D01*
X199149990Y-73187167D01*
X199192187Y-73139718D01*
X199234873Y-73092091D01*
X199235531Y-73090980D01*
X199236386Y-73090018D01*
X199268565Y-73035162D01*
X199301089Y-72980208D01*
X199301518Y-72978989D01*
X199302168Y-72977880D01*
X199323045Y-72917752D01*
X199344205Y-72857557D01*
X199344387Y-72856281D01*
X199344810Y-72855063D01*
X199353576Y-72791860D01*
X199362564Y-72728851D01*
X199362494Y-72727566D01*
X199362671Y-72726288D01*
X199358938Y-72662567D01*
X199355462Y-72599037D01*
X199355143Y-72597791D01*
X199355067Y-72596502D01*
X199338937Y-72534590D01*
X199323170Y-72473102D01*
X199308530Y-72442590D01*
X195689390Y-62621009D01*
X195702555Y-62577405D01*
X195732034Y-62521962D01*
X195771715Y-62473309D01*
X195820098Y-62433282D01*
X195875327Y-62403420D01*
X195935313Y-62384851D01*
X195997749Y-62378289D01*
X196060285Y-62383980D01*
X196131502Y-62404940D01*
X200045657Y-64505219D01*
X207340000Y-75203591D01*
X207340001Y-120796408D01*
X200045657Y-131494781D01*
X196138089Y-133591526D01*
X196071072Y-133613771D01*
X196008772Y-133621599D01*
X195946140Y-133617179D01*
X195885557Y-133600676D01*
X195829336Y-133572721D01*
X195779614Y-133534379D01*
X195738288Y-133487110D01*
X195706928Y-133432712D01*
X195689020Y-133379995D01*
X199309453Y-123554908D01*
X199324979Y-123521867D01*
X199339656Y-123462649D01*
X199355067Y-123403498D01*
X199355299Y-123399532D01*
X199356255Y-123395676D01*
X199359099Y-123334684D01*
X199362671Y-123273712D01*
X199362125Y-123269776D01*
X199362310Y-123265809D01*
X199353204Y-123205453D01*
X199344810Y-123144937D01*
X199343506Y-123141182D01*
X199342914Y-123137256D01*
X199322191Y-123079790D01*
X199302168Y-123022120D01*
X199300160Y-123018697D01*
X199298811Y-123014956D01*
X199267253Y-122962601D01*
X199236386Y-122909982D01*
X199233749Y-122907016D01*
X199231696Y-122903611D01*
X199190509Y-122858395D01*
X199149990Y-122812833D01*
X199146828Y-122810442D01*
X199144148Y-122807499D01*
X199094916Y-122771176D01*
X199046303Y-122734405D01*
X199042735Y-122732676D01*
X199039532Y-122730313D01*
X198984145Y-122704285D01*
X198929306Y-122677712D01*
X198893983Y-122668509D01*
X178952911Y-115589429D01*
X178924998Y-115576141D01*
X178891812Y-115567739D01*
X178890248Y-115567184D01*
X178860358Y-115559776D01*
X178798965Y-115544233D01*
X178797297Y-115544147D01*
X178795676Y-115543745D01*
X178732370Y-115540793D01*
X178669130Y-115537527D01*
X178667478Y-115537768D01*
X178665810Y-115537690D01*
X178603210Y-115547135D01*
X178540481Y-115556278D01*
X178538905Y-115556837D01*
X178537257Y-115557086D01*
X178477694Y-115578565D01*
X178417962Y-115599768D01*
X178416528Y-115600622D01*
X178414957Y-115601189D01*
X178360721Y-115633880D01*
X178306281Y-115666324D01*
X178305039Y-115667444D01*
X178303612Y-115668304D01*
X178256839Y-115710909D01*
X178209732Y-115753389D01*
X178208733Y-115754729D01*
X178207500Y-115755852D01*
X178169987Y-115806696D01*
X178132022Y-115857616D01*
X178131301Y-115859130D01*
X178130314Y-115860468D01*
X178103489Y-115917553D01*
X178090142Y-115945589D01*
X178089574Y-115947164D01*
X178075021Y-115978133D01*
X178067587Y-116008129D01*
X175906802Y-121999400D01*
X158456146Y-115590970D01*
X158424998Y-115576141D01*
X158363803Y-115560648D01*
X158302772Y-115544819D01*
X158300841Y-115544708D01*
X158298965Y-115544233D01*
X158235934Y-115540977D01*
X158172978Y-115537359D01*
X158171063Y-115537627D01*
X158169130Y-115537527D01*
X158106723Y-115546623D01*
X158044223Y-115555362D01*
X158042395Y-115555999D01*
X158040481Y-115556278D01*
X157981040Y-115577377D01*
X157921453Y-115598140D01*
X157919785Y-115599121D01*
X157917962Y-115599768D01*
X157863759Y-115632070D01*
X157809388Y-115664046D01*
X157807944Y-115665333D01*
X157806281Y-115666324D01*
X157759376Y-115708621D01*
X157712335Y-115750549D01*
X157711171Y-115752091D01*
X157709732Y-115753389D01*
X157671926Y-115804095D01*
X157634021Y-115854324D01*
X157633182Y-115856060D01*
X157632022Y-115857616D01*
X157604820Y-115914756D01*
X157577458Y-115971383D01*
X157568801Y-116004763D01*
X155406802Y-121999400D01*
X137956146Y-115590970D01*
X137924998Y-115576141D01*
X137863803Y-115560648D01*
X137802772Y-115544819D01*
X137800841Y-115544708D01*
X137798965Y-115544233D01*
X137735934Y-115540977D01*
X137672978Y-115537359D01*
X137671063Y-115537627D01*
X137669130Y-115537527D01*
X137606723Y-115546623D01*
X137544223Y-115555362D01*
X137542395Y-115555999D01*
X137540481Y-115556278D01*
X137481040Y-115577377D01*
X137421453Y-115598140D01*
X137419785Y-115599121D01*
X137417962Y-115599768D01*
X137363759Y-115632070D01*
X137309388Y-115664046D01*
X137307944Y-115665333D01*
X137306281Y-115666324D01*
X137259376Y-115708621D01*
X137212335Y-115750549D01*
X137211171Y-115752091D01*
X137209732Y-115753389D01*
X137171926Y-115804095D01*
X137134021Y-115854324D01*
X137133182Y-115856060D01*
X137132022Y-115857616D01*
X137104820Y-115914756D01*
X137077458Y-115971383D01*
X137068801Y-116004763D01*
X134906802Y-121999400D01*
X117456146Y-115590970D01*
X117424998Y-115576141D01*
X117363803Y-115560648D01*
X117302772Y-115544819D01*
X117300841Y-115544708D01*
X117298965Y-115544233D01*
X117235934Y-115540977D01*
X117172978Y-115537359D01*
X117171063Y-115537627D01*
X117169130Y-115537527D01*
X117106723Y-115546623D01*
X117044223Y-115555362D01*
X117042395Y-115555999D01*
X117040481Y-115556278D01*
X116981040Y-115577377D01*
X116921453Y-115598140D01*
X116919785Y-115599121D01*
X116917962Y-115599768D01*
X116863759Y-115632070D01*
X116809388Y-115664046D01*
X116807944Y-115665333D01*
X116806281Y-115666324D01*
X116759376Y-115708621D01*
X116712335Y-115750549D01*
X116711171Y-115752091D01*
X116709732Y-115753389D01*
X116671926Y-115804095D01*
X116634021Y-115854324D01*
X116633182Y-115856060D01*
X116632022Y-115857616D01*
X116604820Y-115914756D01*
X116577458Y-115971383D01*
X116568801Y-116004763D01*
X114406802Y-121999400D01*
X96955613Y-115590774D01*
X96923915Y-115575751D01*
X96863209Y-115560494D01*
X96802772Y-115544819D01*
X96800266Y-115544675D01*
X96797827Y-115544062D01*
X96735315Y-115540942D01*
X96672978Y-115537359D01*
X96670493Y-115537706D01*
X96667980Y-115537581D01*
X96606130Y-115546706D01*
X96544223Y-115555362D01*
X96541847Y-115556190D01*
X96539365Y-115556556D01*
X96480512Y-115577562D01*
X96421453Y-115598140D01*
X96419288Y-115599413D01*
X96416921Y-115600258D01*
X96363269Y-115632358D01*
X96309388Y-115664046D01*
X96307512Y-115665718D01*
X96305356Y-115667008D01*
X96258997Y-115708959D01*
X96212335Y-115750549D01*
X96210824Y-115752552D01*
X96208958Y-115754240D01*
X96171608Y-115804516D01*
X96134021Y-115854324D01*
X96132930Y-115856581D01*
X96131429Y-115858602D01*
X96104619Y-115915173D01*
X96077458Y-115971383D01*
X96068655Y-116005325D01*
X89523826Y-134251516D01*
X89472124Y-134289536D01*
X89412601Y-134317457D01*
X89340712Y-134335288D01*
X89276001Y-134340000D01*
X76520747Y-134340000D01*
X75329552Y-134265056D01*
X74177556Y-134045302D01*
X73062199Y-133682900D01*
X72001048Y-133183560D01*
X71010856Y-132555165D01*
X70107220Y-131807612D01*
X69304412Y-130952708D01*
X68615078Y-130003922D01*
X68050097Y-128976227D01*
X67618373Y-127885813D01*
X67326719Y-126749897D01*
X67178429Y-125576058D01*
X67160000Y-124989642D01*
X67160000Y-89000000D01*
X68236324Y-89000000D01*
X68240001Y-89037333D01*
X68240000Y-108712678D01*
X68236324Y-108750000D01*
X68240000Y-108787322D01*
X68240000Y-108787332D01*
X68250997Y-108898985D01*
X68294454Y-109042246D01*
X68365026Y-109174276D01*
X68404871Y-109222826D01*
X68459999Y-109290001D01*
X68489003Y-109313804D01*
X78050198Y-118875000D01*
X76739003Y-120186196D01*
X76709999Y-120209999D01*
X76654871Y-120277174D01*
X76615026Y-120325724D01*
X76551192Y-120445148D01*
X76544454Y-120457754D01*
X76500997Y-120601015D01*
X76490000Y-120712668D01*
X76490000Y-120712678D01*
X76486324Y-120750000D01*
X76490000Y-120787323D01*
X76490001Y-122962668D01*
X76486324Y-123000000D01*
X76490001Y-123037333D01*
X76500998Y-123148986D01*
X76510340Y-123179783D01*
X76544454Y-123292246D01*
X76615026Y-123424276D01*
X76675353Y-123497784D01*
X76710000Y-123540001D01*
X76738998Y-123563799D01*
X78436201Y-125261003D01*
X78459999Y-125290001D01*
X78575724Y-125384974D01*
X78707753Y-125455546D01*
X78851014Y-125499003D01*
X78962667Y-125510000D01*
X78962675Y-125510000D01*
X79000000Y-125513676D01*
X79037325Y-125510000D01*
X81962678Y-125510000D01*
X82000000Y-125513676D01*
X82037322Y-125510000D01*
X82037333Y-125510000D01*
X82148986Y-125499003D01*
X82292247Y-125455546D01*
X82424276Y-125384974D01*
X82540001Y-125290001D01*
X82563804Y-125260997D01*
X92564802Y-115260000D01*
X193685199Y-115260000D01*
X198936201Y-120511003D01*
X198959999Y-120540001D01*
X198988997Y-120563799D01*
X199075724Y-120634974D01*
X199207753Y-120705546D01*
X199351014Y-120749003D01*
X199500000Y-120763677D01*
X199537333Y-120760000D01*
X199750178Y-120760000D01*
X199787500Y-120763676D01*
X199824822Y-120760000D01*
X199824833Y-120760000D01*
X199936486Y-120749003D01*
X200079747Y-120705546D01*
X200211776Y-120634974D01*
X200327501Y-120540001D01*
X200351304Y-120510997D01*
X201749230Y-119113072D01*
X202006250Y-119113072D01*
X202173408Y-119096608D01*
X202334142Y-119047850D01*
X202482275Y-118968671D01*
X202612115Y-118862115D01*
X202718671Y-118732275D01*
X202797850Y-118584142D01*
X202846608Y-118423408D01*
X202863072Y-118256250D01*
X202863072Y-117743750D01*
X202846608Y-117576592D01*
X202797850Y-117415858D01*
X202718671Y-117267725D01*
X202612115Y-117137885D01*
X202482275Y-117031329D01*
X202334142Y-116952150D01*
X202173408Y-116903392D01*
X202006250Y-116886928D01*
X201961731Y-116886928D01*
X197760000Y-112685199D01*
X197760000Y-83352301D01*
X201749231Y-79363072D01*
X202006250Y-79363072D01*
X202173408Y-79346608D01*
X202334142Y-79297850D01*
X202482275Y-79218671D01*
X202612115Y-79112115D01*
X202718671Y-78982275D01*
X202797850Y-78834142D01*
X202846608Y-78673408D01*
X202863072Y-78506250D01*
X202863072Y-77993750D01*
X202846608Y-77826592D01*
X202797850Y-77665858D01*
X202718671Y-77517725D01*
X202612115Y-77387885D01*
X202482275Y-77281329D01*
X202334142Y-77202150D01*
X202173408Y-77153392D01*
X202006250Y-77136928D01*
X201568750Y-77136928D01*
X201401592Y-77153392D01*
X201240858Y-77202150D01*
X201092725Y-77281329D01*
X201071070Y-77299100D01*
X201004494Y-77244463D01*
X200894180Y-77185498D01*
X200774482Y-77149188D01*
X200650000Y-77136928D01*
X200498250Y-77140000D01*
X200339500Y-77298750D01*
X200339500Y-78123000D01*
X200359500Y-78123000D01*
X200359500Y-78377000D01*
X200339500Y-78377000D01*
X200339500Y-78397000D01*
X200085500Y-78397000D01*
X200085500Y-78377000D01*
X199298750Y-78377000D01*
X199140000Y-78535750D01*
X199136928Y-78725000D01*
X199149188Y-78849482D01*
X199185498Y-78969180D01*
X199244463Y-79079494D01*
X199323815Y-79176185D01*
X199420506Y-79255537D01*
X199530820Y-79314502D01*
X199620877Y-79341821D01*
X196488998Y-82473701D01*
X196460000Y-82497499D01*
X196436202Y-82526497D01*
X196436201Y-82526498D01*
X196365026Y-82613224D01*
X196294454Y-82745254D01*
X196250998Y-82888515D01*
X196236324Y-83037500D01*
X196240001Y-83074833D01*
X196240000Y-112962678D01*
X196236324Y-113000000D01*
X196240000Y-113037322D01*
X196240000Y-113037332D01*
X196250997Y-113148985D01*
X196294454Y-113292246D01*
X196365026Y-113424276D01*
X196404871Y-113472826D01*
X196459999Y-113540001D01*
X196489003Y-113563804D01*
X199812893Y-116887695D01*
X199775000Y-116886928D01*
X199650518Y-116899188D01*
X199530820Y-116935498D01*
X199420506Y-116994463D01*
X199323815Y-117073815D01*
X199244463Y-117170506D01*
X199185498Y-117280820D01*
X199149188Y-117400518D01*
X199136928Y-117525000D01*
X199140000Y-117714250D01*
X199298750Y-117873000D01*
X200085500Y-117873000D01*
X200085500Y-117853000D01*
X200339500Y-117853000D01*
X200339500Y-117873000D01*
X200359500Y-117873000D01*
X200359500Y-118127000D01*
X200339500Y-118127000D01*
X200339500Y-118147000D01*
X200085500Y-118147000D01*
X200085500Y-118127000D01*
X199298750Y-118127000D01*
X199140000Y-118285750D01*
X199136928Y-118475000D01*
X199146446Y-118571645D01*
X194563804Y-113989003D01*
X194540001Y-113959999D01*
X194424276Y-113865026D01*
X194292247Y-113794454D01*
X194148986Y-113750997D01*
X194037333Y-113740000D01*
X194037322Y-113740000D01*
X194000000Y-113736324D01*
X193962678Y-113740000D01*
X92287322Y-113740000D01*
X92249999Y-113736324D01*
X92212677Y-113740000D01*
X92212667Y-113740000D01*
X92101014Y-113750997D01*
X91957753Y-113794454D01*
X91825723Y-113865026D01*
X91742083Y-113933668D01*
X91709999Y-113959999D01*
X91686201Y-113988997D01*
X83051662Y-122623537D01*
X83638859Y-121155544D01*
X83658147Y-121100040D01*
X83660762Y-121091225D01*
X83684037Y-120972311D01*
X83684998Y-120962556D01*
X83684998Y-120837444D01*
X83684037Y-120827689D01*
X83659637Y-120705028D01*
X83656792Y-120695649D01*
X83608919Y-120580073D01*
X83604298Y-120571428D01*
X83582363Y-120538601D01*
X83578841Y-120489046D01*
X83577191Y-120479384D01*
X83544161Y-120358769D01*
X83540658Y-120349614D01*
X83515430Y-120292285D01*
X83015430Y-119292285D01*
X82998389Y-119260484D01*
X82995577Y-119255575D01*
X82940052Y-119173995D01*
X82933927Y-119166343D01*
X82846536Y-119076797D01*
X82839035Y-119070487D01*
X82735889Y-118999738D01*
X82727302Y-118995013D01*
X82671045Y-118967562D01*
X82102290Y-118723809D01*
X82067973Y-118610681D01*
X82030464Y-118520125D01*
X81971498Y-118409808D01*
X81917042Y-118328309D01*
X81837690Y-118231618D01*
X81768382Y-118162310D01*
X81671691Y-118082958D01*
X81590192Y-118028502D01*
X81479875Y-117969536D01*
X81389319Y-117932027D01*
X81269623Y-117895718D01*
X81173490Y-117876596D01*
X81049009Y-117864336D01*
X80950991Y-117864336D01*
X80826510Y-117876596D01*
X80730377Y-117895718D01*
X80610681Y-117932027D01*
X80520125Y-117969536D01*
X80409808Y-118028502D01*
X80328309Y-118082958D01*
X80231618Y-118162310D01*
X80162310Y-118231618D01*
X80155431Y-118240000D01*
X79564802Y-118240000D01*
X69760000Y-108435199D01*
X69760000Y-97180496D01*
X69840767Y-97180496D01*
X69840767Y-98819504D01*
X70006583Y-100450101D01*
X70336512Y-102055558D01*
X70827171Y-103619399D01*
X71473523Y-105125577D01*
X72268936Y-106558638D01*
X73205249Y-107903875D01*
X74272853Y-109147485D01*
X75460793Y-110276706D01*
X76756880Y-111279952D01*
X78147814Y-112146928D01*
X79619322Y-112868737D01*
X81156305Y-113437973D01*
X82742990Y-113848794D01*
X84363097Y-114096986D01*
X86000000Y-114180000D01*
X87636903Y-114096986D01*
X89257010Y-113848794D01*
X90843695Y-113437973D01*
X92380678Y-112868737D01*
X93852186Y-112146928D01*
X95243120Y-111279952D01*
X96539207Y-110276706D01*
X97727147Y-109147485D01*
X98794751Y-107903875D01*
X99731064Y-106558638D01*
X100526477Y-105125577D01*
X101172829Y-103619399D01*
X101663488Y-102055558D01*
X101993417Y-100450101D01*
X102159233Y-98819504D01*
X102159233Y-97180496D01*
X101993417Y-95549899D01*
X101663488Y-93944442D01*
X101172829Y-92380601D01*
X100526477Y-90874423D01*
X99731064Y-89441362D01*
X98794751Y-88096125D01*
X97727147Y-86852515D01*
X96539207Y-85723294D01*
X95243120Y-84720048D01*
X93852186Y-83853072D01*
X92380678Y-83131263D01*
X90843695Y-82562027D01*
X89257010Y-82151206D01*
X87636903Y-81903014D01*
X86000000Y-81820000D01*
X84363097Y-81903014D01*
X82742990Y-82151206D01*
X81156305Y-82562027D01*
X79619322Y-83131263D01*
X78147814Y-83853072D01*
X76756880Y-84720048D01*
X75460793Y-85723294D01*
X74272853Y-86852515D01*
X73205249Y-88096125D01*
X72268936Y-89441362D01*
X71473523Y-90874423D01*
X70827171Y-92380601D01*
X70336512Y-93944442D01*
X70006583Y-95549899D01*
X69840767Y-97180496D01*
X69760000Y-97180496D01*
X69760000Y-89314801D01*
X80940201Y-78134601D01*
X80950991Y-78135664D01*
X81049009Y-78135664D01*
X81173490Y-78123404D01*
X81269623Y-78104282D01*
X81389319Y-78067973D01*
X81479875Y-78030464D01*
X81590192Y-77971498D01*
X81671691Y-77917042D01*
X81768382Y-77837690D01*
X81837690Y-77768382D01*
X81917042Y-77671691D01*
X81971498Y-77590192D01*
X82030464Y-77479875D01*
X82067973Y-77389319D01*
X82102290Y-77276191D01*
X82671045Y-77032438D01*
X82703787Y-77017296D01*
X82708853Y-77014777D01*
X82793568Y-76964128D01*
X82801566Y-76958463D01*
X82896049Y-76876521D01*
X82902789Y-76869404D01*
X82979510Y-76770546D01*
X82984731Y-76762251D01*
X83015430Y-76707715D01*
X83515430Y-75707715D01*
X83548362Y-75629129D01*
X83552680Y-75616523D01*
X83584037Y-75472311D01*
X83584998Y-75462556D01*
X83584998Y-75458143D01*
X83600262Y-75435889D01*
X83604987Y-75427302D01*
X83654238Y-75312388D01*
X83657198Y-75303044D01*
X83683111Y-75180594D01*
X83684190Y-75170852D01*
X83685715Y-75045865D01*
X83684874Y-75036099D01*
X83661962Y-74913069D01*
X83659231Y-74903655D01*
X83638859Y-74844456D01*
X83038859Y-73344456D01*
X83012772Y-73287515D01*
X83008257Y-73278815D01*
X82940052Y-73173995D01*
X82933927Y-73166343D01*
X82846536Y-73076797D01*
X82839035Y-73070487D01*
X82735889Y-72999738D01*
X82727302Y-72995013D01*
X82671045Y-72967562D01*
X82102290Y-72723809D01*
X82067973Y-72610681D01*
X82030464Y-72520125D01*
X81971498Y-72409808D01*
X81917042Y-72328309D01*
X81837690Y-72231618D01*
X81768382Y-72162310D01*
X81671691Y-72082958D01*
X81590192Y-72028502D01*
X81479875Y-71969536D01*
X81389319Y-71932027D01*
X81269623Y-71895718D01*
X81173490Y-71876596D01*
X81049009Y-71864336D01*
X80950991Y-71864336D01*
X80826510Y-71876596D01*
X80730377Y-71895718D01*
X80610681Y-71932027D01*
X80520125Y-71969536D01*
X80409808Y-72028502D01*
X80328309Y-72082958D01*
X80231618Y-72162310D01*
X80162310Y-72231618D01*
X80082958Y-72328309D01*
X80028502Y-72409808D01*
X79969536Y-72520125D01*
X79932027Y-72610681D01*
X79897710Y-72723809D01*
X79328955Y-72967562D01*
X79272698Y-72995013D01*
X79264111Y-72999738D01*
X79160965Y-73070487D01*
X79153464Y-73076797D01*
X79066073Y-73166343D01*
X79059948Y-73173995D01*
X78991743Y-73278815D01*
X78987228Y-73287515D01*
X78961141Y-73344456D01*
X78361141Y-74844456D01*
X78341853Y-74899960D01*
X78339238Y-74908775D01*
X78315963Y-75027689D01*
X78315002Y-75037444D01*
X78315002Y-75162556D01*
X78315963Y-75172311D01*
X78340363Y-75294972D01*
X78343208Y-75304351D01*
X78391081Y-75419927D01*
X78395702Y-75428572D01*
X78417637Y-75461399D01*
X78421159Y-75510954D01*
X78422809Y-75520616D01*
X78455839Y-75641231D01*
X78459342Y-75650386D01*
X78484570Y-75707715D01*
X78984570Y-76707715D01*
X79001611Y-76739516D01*
X79004423Y-76744425D01*
X79059948Y-76826005D01*
X79066073Y-76833657D01*
X79153464Y-76923203D01*
X79160965Y-76929513D01*
X79264111Y-77000262D01*
X79272698Y-77004987D01*
X79328955Y-77032438D01*
X79723618Y-77201580D01*
X68488998Y-88436201D01*
X68460000Y-88459999D01*
X68436202Y-88488997D01*
X68436201Y-88488998D01*
X68365026Y-88575724D01*
X68294454Y-88707754D01*
X68250998Y-88851015D01*
X68236324Y-89000000D01*
X67160000Y-89000000D01*
X67160000Y-71020747D01*
X67234944Y-69829551D01*
X67454698Y-68677556D01*
X67817100Y-67562199D01*
X68316441Y-66501045D01*
X68944836Y-65510854D01*
X69692383Y-64607224D01*
X70547292Y-63804412D01*
X71496079Y-63115078D01*
X72523774Y-62550097D01*
X73614186Y-62118373D01*
X74750103Y-61826719D01*
X75923941Y-61678429D01*
X76510358Y-61660000D01*
X89767721Y-61660000D01*
X89865424Y-61669580D01*
%TA.AperFunction,Conductor*%
D14*
G36*
X89865424Y-61669580D02*
G01*
X89928356Y-61688580D01*
X89986405Y-61719445D01*
X90024576Y-61750577D01*
X96568655Y-79994675D01*
X96577458Y-80028617D01*
X96604619Y-80084827D01*
X96631429Y-80141398D01*
X96632930Y-80143419D01*
X96634021Y-80145676D01*
X96671608Y-80195484D01*
X96708958Y-80245760D01*
X96710824Y-80247448D01*
X96712335Y-80249451D01*
X96758970Y-80291017D01*
X96805356Y-80332992D01*
X96807512Y-80334282D01*
X96809388Y-80335954D01*
X96863269Y-80367642D01*
X96916921Y-80399742D01*
X96919288Y-80400587D01*
X96921453Y-80401860D01*
X96980512Y-80422438D01*
X97039365Y-80443444D01*
X97041847Y-80443810D01*
X97044223Y-80444638D01*
X97106130Y-80453294D01*
X97167980Y-80462419D01*
X97170493Y-80462294D01*
X97172978Y-80462641D01*
X97235315Y-80459058D01*
X97297827Y-80455938D01*
X97300266Y-80455325D01*
X97302772Y-80455181D01*
X97363209Y-80439506D01*
X97423915Y-80424249D01*
X97455613Y-80409226D01*
X114906802Y-74000600D01*
X117068801Y-79995237D01*
X117077458Y-80028617D01*
X117104820Y-80085244D01*
X117132022Y-80142384D01*
X117133182Y-80143940D01*
X117134021Y-80145676D01*
X117171926Y-80195905D01*
X117209732Y-80246611D01*
X117211171Y-80247909D01*
X117212335Y-80249451D01*
X117259376Y-80291379D01*
X117306281Y-80333676D01*
X117307944Y-80334667D01*
X117309388Y-80335954D01*
X117363759Y-80367930D01*
X117417962Y-80400232D01*
X117419785Y-80400879D01*
X117421453Y-80401860D01*
X117481040Y-80422623D01*
X117540481Y-80443722D01*
X117542395Y-80444001D01*
X117544223Y-80444638D01*
X117606723Y-80453377D01*
X117669130Y-80462473D01*
X117671063Y-80462373D01*
X117672978Y-80462641D01*
X117735934Y-80459023D01*
X117798965Y-80455767D01*
X117800841Y-80455292D01*
X117802772Y-80455181D01*
X117863803Y-80439352D01*
X117924998Y-80423859D01*
X117956146Y-80409030D01*
X135406802Y-74000600D01*
X137568801Y-79995237D01*
X137577458Y-80028617D01*
X137604820Y-80085244D01*
X137632022Y-80142384D01*
X137633182Y-80143940D01*
X137634021Y-80145676D01*
X137671926Y-80195905D01*
X137709732Y-80246611D01*
X137711171Y-80247909D01*
X137712335Y-80249451D01*
X137759376Y-80291379D01*
X137806281Y-80333676D01*
X137807944Y-80334667D01*
X137809388Y-80335954D01*
X137863759Y-80367930D01*
X137917962Y-80400232D01*
X137919785Y-80400879D01*
X137921453Y-80401860D01*
X137981040Y-80422623D01*
X138040481Y-80443722D01*
X138042395Y-80444001D01*
X138044223Y-80444638D01*
X138106723Y-80453377D01*
X138169130Y-80462473D01*
X138171063Y-80462373D01*
X138172978Y-80462641D01*
X138235934Y-80459023D01*
X138298965Y-80455767D01*
X138300841Y-80455292D01*
X138302772Y-80455181D01*
X138363803Y-80439352D01*
X138424998Y-80423859D01*
X138456146Y-80409030D01*
X155906802Y-74000600D01*
X158068801Y-79995237D01*
X158077458Y-80028617D01*
X158104820Y-80085244D01*
X158132022Y-80142384D01*
X158133182Y-80143940D01*
X158134021Y-80145676D01*
X158171926Y-80195905D01*
X158209732Y-80246611D01*
X158211171Y-80247909D01*
X158212335Y-80249451D01*
X158259376Y-80291379D01*
X158306281Y-80333676D01*
X158307944Y-80334667D01*
X158309388Y-80335954D01*
X158363759Y-80367930D01*
X158417962Y-80400232D01*
X158419785Y-80400879D01*
X158421453Y-80401860D01*
X158481040Y-80422623D01*
X158540481Y-80443722D01*
X158542395Y-80444001D01*
X158544223Y-80444638D01*
X158606723Y-80453377D01*
X158669130Y-80462473D01*
X158671063Y-80462373D01*
X158672978Y-80462641D01*
X158735934Y-80459023D01*
X158798965Y-80455767D01*
X158800841Y-80455292D01*
X158802772Y-80455181D01*
X158863803Y-80439352D01*
X158924998Y-80423859D01*
X158956146Y-80409030D01*
X176406802Y-74000600D01*
X178568490Y-79994376D01*
X178576829Y-80026898D01*
X178604398Y-80084357D01*
X178632022Y-80142384D01*
X178632632Y-80143202D01*
X178633069Y-80144113D01*
X178671334Y-80195110D01*
X178709732Y-80246611D01*
X178710488Y-80247293D01*
X178711096Y-80248103D01*
X178758686Y-80290756D01*
X178806281Y-80333676D01*
X178807153Y-80334196D01*
X178807910Y-80334874D01*
X178863005Y-80367481D01*
X178917962Y-80400232D01*
X178918919Y-80400572D01*
X178919793Y-80401089D01*
X178980137Y-80422302D01*
X179040481Y-80443722D01*
X179041487Y-80443869D01*
X179042444Y-80444205D01*
X179105746Y-80453235D01*
X179169130Y-80462473D01*
X179170145Y-80462421D01*
X179171150Y-80462564D01*
X179234999Y-80459071D01*
X179298965Y-80455767D01*
X179299951Y-80455517D01*
X179300963Y-80455462D01*
X179362979Y-80439560D01*
X179424998Y-80423859D01*
X179455317Y-80409425D01*
X186690711Y-77775000D01*
X199136928Y-77775000D01*
X199140000Y-77964250D01*
X199298750Y-78123000D01*
X200085500Y-78123000D01*
X200085500Y-77298750D01*
X199926750Y-77140000D01*
X199775000Y-77136928D01*
X199650518Y-77149188D01*
X199530820Y-77185498D01*
X199420506Y-77244463D01*
X199323815Y-77323815D01*
X199244463Y-77420506D01*
X199185498Y-77530820D01*
X199149188Y-77650518D01*
X199136928Y-77775000D01*
X186690711Y-77775000D01*
X198896560Y-73330820D01*
X198929306Y-73322288D01*
X198986274Y-73294683D01*
X199044113Y-73266932D01*
X199045151Y-73266153D01*
X199046303Y-73265595D01*
X199096835Y-73227373D01*
X199148103Y-73188905D01*
X199148968Y-73187940D01*
X199149990Y-73187167D01*
X199192187Y-73139718D01*
X199234873Y-73092091D01*
X199235531Y-73090980D01*
X199236386Y-73090018D01*
X199268565Y-73035162D01*
X199301089Y-72980208D01*
X199301518Y-72978989D01*
X199302168Y-72977880D01*
X199323045Y-72917752D01*
X199344205Y-72857557D01*
X199344387Y-72856281D01*
X199344810Y-72855063D01*
X199353576Y-72791860D01*
X199362564Y-72728851D01*
X199362494Y-72727566D01*
X199362671Y-72726288D01*
X199358938Y-72662567D01*
X199355462Y-72599037D01*
X199355143Y-72597791D01*
X199355067Y-72596502D01*
X199338937Y-72534590D01*
X199323170Y-72473102D01*
X199308530Y-72442590D01*
X195689390Y-62621009D01*
X195702555Y-62577405D01*
X195732034Y-62521962D01*
X195771715Y-62473309D01*
X195820098Y-62433282D01*
X195875327Y-62403420D01*
X195935313Y-62384851D01*
X195997749Y-62378289D01*
X196060285Y-62383980D01*
X196131502Y-62404940D01*
X200045657Y-64505219D01*
X207340000Y-75203591D01*
X207340001Y-120796408D01*
X200045657Y-131494781D01*
X196138089Y-133591526D01*
X196071072Y-133613771D01*
X196008772Y-133621599D01*
X195946140Y-133617179D01*
X195885557Y-133600676D01*
X195829336Y-133572721D01*
X195779614Y-133534379D01*
X195738288Y-133487110D01*
X195706928Y-133432712D01*
X195689020Y-133379995D01*
X199309453Y-123554908D01*
X199324979Y-123521867D01*
X199339656Y-123462649D01*
X199355067Y-123403498D01*
X199355299Y-123399532D01*
X199356255Y-123395676D01*
X199359099Y-123334684D01*
X199362671Y-123273712D01*
X199362125Y-123269776D01*
X199362310Y-123265809D01*
X199353204Y-123205453D01*
X199344810Y-123144937D01*
X199343506Y-123141182D01*
X199342914Y-123137256D01*
X199322191Y-123079790D01*
X199302168Y-123022120D01*
X199300160Y-123018697D01*
X199298811Y-123014956D01*
X199267253Y-122962601D01*
X199236386Y-122909982D01*
X199233749Y-122907016D01*
X199231696Y-122903611D01*
X199190509Y-122858395D01*
X199149990Y-122812833D01*
X199146828Y-122810442D01*
X199144148Y-122807499D01*
X199094916Y-122771176D01*
X199046303Y-122734405D01*
X199042735Y-122732676D01*
X199039532Y-122730313D01*
X198984145Y-122704285D01*
X198929306Y-122677712D01*
X198893983Y-122668509D01*
X178952911Y-115589429D01*
X178924998Y-115576141D01*
X178891812Y-115567739D01*
X178890248Y-115567184D01*
X178860358Y-115559776D01*
X178798965Y-115544233D01*
X178797297Y-115544147D01*
X178795676Y-115543745D01*
X178732370Y-115540793D01*
X178669130Y-115537527D01*
X178667478Y-115537768D01*
X178665810Y-115537690D01*
X178603210Y-115547135D01*
X178540481Y-115556278D01*
X178538905Y-115556837D01*
X178537257Y-115557086D01*
X178477694Y-115578565D01*
X178417962Y-115599768D01*
X178416528Y-115600622D01*
X178414957Y-115601189D01*
X178360721Y-115633880D01*
X178306281Y-115666324D01*
X178305039Y-115667444D01*
X178303612Y-115668304D01*
X178256839Y-115710909D01*
X178209732Y-115753389D01*
X178208733Y-115754729D01*
X178207500Y-115755852D01*
X178169987Y-115806696D01*
X178132022Y-115857616D01*
X178131301Y-115859130D01*
X178130314Y-115860468D01*
X178103489Y-115917553D01*
X178090142Y-115945589D01*
X178089574Y-115947164D01*
X178075021Y-115978133D01*
X178067587Y-116008129D01*
X175906802Y-121999400D01*
X158456146Y-115590970D01*
X158424998Y-115576141D01*
X158363803Y-115560648D01*
X158302772Y-115544819D01*
X158300841Y-115544708D01*
X158298965Y-115544233D01*
X158235934Y-115540977D01*
X158172978Y-115537359D01*
X158171063Y-115537627D01*
X158169130Y-115537527D01*
X158106723Y-115546623D01*
X158044223Y-115555362D01*
X158042395Y-115555999D01*
X158040481Y-115556278D01*
X157981040Y-115577377D01*
X157921453Y-115598140D01*
X157919785Y-115599121D01*
X157917962Y-115599768D01*
X157863759Y-115632070D01*
X157809388Y-115664046D01*
X157807944Y-115665333D01*
X157806281Y-115666324D01*
X157759376Y-115708621D01*
X157712335Y-115750549D01*
X157711171Y-115752091D01*
X157709732Y-115753389D01*
X157671926Y-115804095D01*
X157634021Y-115854324D01*
X157633182Y-115856060D01*
X157632022Y-115857616D01*
X157604820Y-115914756D01*
X157577458Y-115971383D01*
X157568801Y-116004763D01*
X155406802Y-121999400D01*
X137956146Y-115590970D01*
X137924998Y-115576141D01*
X137863803Y-115560648D01*
X137802772Y-115544819D01*
X137800841Y-115544708D01*
X137798965Y-115544233D01*
X137735934Y-115540977D01*
X137672978Y-115537359D01*
X137671063Y-115537627D01*
X137669130Y-115537527D01*
X137606723Y-115546623D01*
X137544223Y-115555362D01*
X137542395Y-115555999D01*
X137540481Y-115556278D01*
X137481040Y-115577377D01*
X137421453Y-115598140D01*
X137419785Y-115599121D01*
X137417962Y-115599768D01*
X137363759Y-115632070D01*
X137309388Y-115664046D01*
X137307944Y-115665333D01*
X137306281Y-115666324D01*
X137259376Y-115708621D01*
X137212335Y-115750549D01*
X137211171Y-115752091D01*
X137209732Y-115753389D01*
X137171926Y-115804095D01*
X137134021Y-115854324D01*
X137133182Y-115856060D01*
X137132022Y-115857616D01*
X137104820Y-115914756D01*
X137077458Y-115971383D01*
X137068801Y-116004763D01*
X134906802Y-121999400D01*
X117456146Y-115590970D01*
X117424998Y-115576141D01*
X117363803Y-115560648D01*
X117302772Y-115544819D01*
X117300841Y-115544708D01*
X117298965Y-115544233D01*
X117235934Y-115540977D01*
X117172978Y-115537359D01*
X117171063Y-115537627D01*
X117169130Y-115537527D01*
X117106723Y-115546623D01*
X117044223Y-115555362D01*
X117042395Y-115555999D01*
X117040481Y-115556278D01*
X116981040Y-115577377D01*
X116921453Y-115598140D01*
X116919785Y-115599121D01*
X116917962Y-115599768D01*
X116863759Y-115632070D01*
X116809388Y-115664046D01*
X116807944Y-115665333D01*
X116806281Y-115666324D01*
X116759376Y-115708621D01*
X116712335Y-115750549D01*
X116711171Y-115752091D01*
X116709732Y-115753389D01*
X116671926Y-115804095D01*
X116634021Y-115854324D01*
X116633182Y-115856060D01*
X116632022Y-115857616D01*
X116604820Y-115914756D01*
X116577458Y-115971383D01*
X116568801Y-116004763D01*
X114406802Y-121999400D01*
X96955613Y-115590774D01*
X96923915Y-115575751D01*
X96863209Y-115560494D01*
X96802772Y-115544819D01*
X96800266Y-115544675D01*
X96797827Y-115544062D01*
X96735315Y-115540942D01*
X96672978Y-115537359D01*
X96670493Y-115537706D01*
X96667980Y-115537581D01*
X96606130Y-115546706D01*
X96544223Y-115555362D01*
X96541847Y-115556190D01*
X96539365Y-115556556D01*
X96480512Y-115577562D01*
X96421453Y-115598140D01*
X96419288Y-115599413D01*
X96416921Y-115600258D01*
X96363269Y-115632358D01*
X96309388Y-115664046D01*
X96307512Y-115665718D01*
X96305356Y-115667008D01*
X96258997Y-115708959D01*
X96212335Y-115750549D01*
X96210824Y-115752552D01*
X96208958Y-115754240D01*
X96171608Y-115804516D01*
X96134021Y-115854324D01*
X96132930Y-115856581D01*
X96131429Y-115858602D01*
X96104619Y-115915173D01*
X96077458Y-115971383D01*
X96068655Y-116005325D01*
X89523826Y-134251516D01*
X89472124Y-134289536D01*
X89412601Y-134317457D01*
X89340712Y-134335288D01*
X89276001Y-134340000D01*
X76520747Y-134340000D01*
X75329552Y-134265056D01*
X74177556Y-134045302D01*
X73062199Y-133682900D01*
X72001048Y-133183560D01*
X71010856Y-132555165D01*
X70107220Y-131807612D01*
X69304412Y-130952708D01*
X68615078Y-130003922D01*
X68050097Y-128976227D01*
X67618373Y-127885813D01*
X67326719Y-126749897D01*
X67178429Y-125576058D01*
X67160000Y-124989642D01*
X67160000Y-89000000D01*
X68236324Y-89000000D01*
X68240001Y-89037333D01*
X68240000Y-108712678D01*
X68236324Y-108750000D01*
X68240000Y-108787322D01*
X68240000Y-108787332D01*
X68250997Y-108898985D01*
X68294454Y-109042246D01*
X68365026Y-109174276D01*
X68404871Y-109222826D01*
X68459999Y-109290001D01*
X68489003Y-109313804D01*
X78050198Y-118875000D01*
X76739003Y-120186196D01*
X76709999Y-120209999D01*
X76654871Y-120277174D01*
X76615026Y-120325724D01*
X76551192Y-120445148D01*
X76544454Y-120457754D01*
X76500997Y-120601015D01*
X76490000Y-120712668D01*
X76490000Y-120712678D01*
X76486324Y-120750000D01*
X76490000Y-120787323D01*
X76490001Y-122962668D01*
X76486324Y-123000000D01*
X76490001Y-123037333D01*
X76500998Y-123148986D01*
X76510340Y-123179783D01*
X76544454Y-123292246D01*
X76615026Y-123424276D01*
X76675353Y-123497784D01*
X76710000Y-123540001D01*
X76738998Y-123563799D01*
X78436201Y-125261003D01*
X78459999Y-125290001D01*
X78575724Y-125384974D01*
X78707753Y-125455546D01*
X78851014Y-125499003D01*
X78962667Y-125510000D01*
X78962675Y-125510000D01*
X79000000Y-125513676D01*
X79037325Y-125510000D01*
X81962678Y-125510000D01*
X82000000Y-125513676D01*
X82037322Y-125510000D01*
X82037333Y-125510000D01*
X82148986Y-125499003D01*
X82292247Y-125455546D01*
X82424276Y-125384974D01*
X82540001Y-125290001D01*
X82563804Y-125260997D01*
X92564802Y-115260000D01*
X193685199Y-115260000D01*
X198936201Y-120511003D01*
X198959999Y-120540001D01*
X198988997Y-120563799D01*
X199075724Y-120634974D01*
X199207753Y-120705546D01*
X199351014Y-120749003D01*
X199500000Y-120763677D01*
X199537333Y-120760000D01*
X199750178Y-120760000D01*
X199787500Y-120763676D01*
X199824822Y-120760000D01*
X199824833Y-120760000D01*
X199936486Y-120749003D01*
X200079747Y-120705546D01*
X200211776Y-120634974D01*
X200327501Y-120540001D01*
X200351304Y-120510997D01*
X201749230Y-119113072D01*
X202006250Y-119113072D01*
X202173408Y-119096608D01*
X202334142Y-119047850D01*
X202482275Y-118968671D01*
X202612115Y-118862115D01*
X202718671Y-118732275D01*
X202797850Y-118584142D01*
X202846608Y-118423408D01*
X202863072Y-118256250D01*
X202863072Y-117743750D01*
X202846608Y-117576592D01*
X202797850Y-117415858D01*
X202718671Y-117267725D01*
X202612115Y-117137885D01*
X202482275Y-117031329D01*
X202334142Y-116952150D01*
X202173408Y-116903392D01*
X202006250Y-116886928D01*
X201961731Y-116886928D01*
X197760000Y-112685199D01*
X197760000Y-83352301D01*
X201749231Y-79363072D01*
X202006250Y-79363072D01*
X202173408Y-79346608D01*
X202334142Y-79297850D01*
X202482275Y-79218671D01*
X202612115Y-79112115D01*
X202718671Y-78982275D01*
X202797850Y-78834142D01*
X202846608Y-78673408D01*
X202863072Y-78506250D01*
X202863072Y-77993750D01*
X202846608Y-77826592D01*
X202797850Y-77665858D01*
X202718671Y-77517725D01*
X202612115Y-77387885D01*
X202482275Y-77281329D01*
X202334142Y-77202150D01*
X202173408Y-77153392D01*
X202006250Y-77136928D01*
X201568750Y-77136928D01*
X201401592Y-77153392D01*
X201240858Y-77202150D01*
X201092725Y-77281329D01*
X201071070Y-77299100D01*
X201004494Y-77244463D01*
X200894180Y-77185498D01*
X200774482Y-77149188D01*
X200650000Y-77136928D01*
X200498250Y-77140000D01*
X200339500Y-77298750D01*
X200339500Y-78123000D01*
X200359500Y-78123000D01*
X200359500Y-78377000D01*
X200339500Y-78377000D01*
X200339500Y-78397000D01*
X200085500Y-78397000D01*
X200085500Y-78377000D01*
X199298750Y-78377000D01*
X199140000Y-78535750D01*
X199136928Y-78725000D01*
X199149188Y-78849482D01*
X199185498Y-78969180D01*
X199244463Y-79079494D01*
X199323815Y-79176185D01*
X199420506Y-79255537D01*
X199530820Y-79314502D01*
X199620877Y-79341821D01*
X196488998Y-82473701D01*
X196460000Y-82497499D01*
X196436202Y-82526497D01*
X196436201Y-82526498D01*
X196365026Y-82613224D01*
X196294454Y-82745254D01*
X196250998Y-82888515D01*
X196236324Y-83037500D01*
X196240001Y-83074833D01*
X196240000Y-112962678D01*
X196236324Y-113000000D01*
X196240000Y-113037322D01*
X196240000Y-113037332D01*
X196250997Y-113148985D01*
X196294454Y-113292246D01*
X196365026Y-113424276D01*
X196404871Y-113472826D01*
X196459999Y-113540001D01*
X196489003Y-113563804D01*
X199812893Y-116887695D01*
X199775000Y-116886928D01*
X199650518Y-116899188D01*
X199530820Y-116935498D01*
X199420506Y-116994463D01*
X199323815Y-117073815D01*
X199244463Y-117170506D01*
X199185498Y-117280820D01*
X199149188Y-117400518D01*
X199136928Y-117525000D01*
X199140000Y-117714250D01*
X199298750Y-117873000D01*
X200085500Y-117873000D01*
X200085500Y-117853000D01*
X200339500Y-117853000D01*
X200339500Y-117873000D01*
X200359500Y-117873000D01*
X200359500Y-118127000D01*
X200339500Y-118127000D01*
X200339500Y-118147000D01*
X200085500Y-118147000D01*
X200085500Y-118127000D01*
X199298750Y-118127000D01*
X199140000Y-118285750D01*
X199136928Y-118475000D01*
X199146446Y-118571645D01*
X194563804Y-113989003D01*
X194540001Y-113959999D01*
X194424276Y-113865026D01*
X194292247Y-113794454D01*
X194148986Y-113750997D01*
X194037333Y-113740000D01*
X194037322Y-113740000D01*
X194000000Y-113736324D01*
X193962678Y-113740000D01*
X92287322Y-113740000D01*
X92249999Y-113736324D01*
X92212677Y-113740000D01*
X92212667Y-113740000D01*
X92101014Y-113750997D01*
X91957753Y-113794454D01*
X91825723Y-113865026D01*
X91742083Y-113933668D01*
X91709999Y-113959999D01*
X91686201Y-113988997D01*
X83051662Y-122623537D01*
X83638859Y-121155544D01*
X83658147Y-121100040D01*
X83660762Y-121091225D01*
X83684037Y-120972311D01*
X83684998Y-120962556D01*
X83684998Y-120837444D01*
X83684037Y-120827689D01*
X83659637Y-120705028D01*
X83656792Y-120695649D01*
X83608919Y-120580073D01*
X83604298Y-120571428D01*
X83582363Y-120538601D01*
X83578841Y-120489046D01*
X83577191Y-120479384D01*
X83544161Y-120358769D01*
X83540658Y-120349614D01*
X83515430Y-120292285D01*
X83015430Y-119292285D01*
X82998389Y-119260484D01*
X82995577Y-119255575D01*
X82940052Y-119173995D01*
X82933927Y-119166343D01*
X82846536Y-119076797D01*
X82839035Y-119070487D01*
X82735889Y-118999738D01*
X82727302Y-118995013D01*
X82671045Y-118967562D01*
X82102290Y-118723809D01*
X82067973Y-118610681D01*
X82030464Y-118520125D01*
X81971498Y-118409808D01*
X81917042Y-118328309D01*
X81837690Y-118231618D01*
X81768382Y-118162310D01*
X81671691Y-118082958D01*
X81590192Y-118028502D01*
X81479875Y-117969536D01*
X81389319Y-117932027D01*
X81269623Y-117895718D01*
X81173490Y-117876596D01*
X81049009Y-117864336D01*
X80950991Y-117864336D01*
X80826510Y-117876596D01*
X80730377Y-117895718D01*
X80610681Y-117932027D01*
X80520125Y-117969536D01*
X80409808Y-118028502D01*
X80328309Y-118082958D01*
X80231618Y-118162310D01*
X80162310Y-118231618D01*
X80155431Y-118240000D01*
X79564802Y-118240000D01*
X69760000Y-108435199D01*
X69760000Y-97180496D01*
X69840767Y-97180496D01*
X69840767Y-98819504D01*
X70006583Y-100450101D01*
X70336512Y-102055558D01*
X70827171Y-103619399D01*
X71473523Y-105125577D01*
X72268936Y-106558638D01*
X73205249Y-107903875D01*
X74272853Y-109147485D01*
X75460793Y-110276706D01*
X76756880Y-111279952D01*
X78147814Y-112146928D01*
X79619322Y-112868737D01*
X81156305Y-113437973D01*
X82742990Y-113848794D01*
X84363097Y-114096986D01*
X86000000Y-114180000D01*
X87636903Y-114096986D01*
X89257010Y-113848794D01*
X90843695Y-113437973D01*
X92380678Y-112868737D01*
X93852186Y-112146928D01*
X95243120Y-111279952D01*
X96539207Y-110276706D01*
X97727147Y-109147485D01*
X98794751Y-107903875D01*
X99731064Y-106558638D01*
X100526477Y-105125577D01*
X101172829Y-103619399D01*
X101663488Y-102055558D01*
X101993417Y-100450101D01*
X102159233Y-98819504D01*
X102159233Y-97180496D01*
X101993417Y-95549899D01*
X101663488Y-93944442D01*
X101172829Y-92380601D01*
X100526477Y-90874423D01*
X99731064Y-89441362D01*
X98794751Y-88096125D01*
X97727147Y-86852515D01*
X96539207Y-85723294D01*
X95243120Y-84720048D01*
X93852186Y-83853072D01*
X92380678Y-83131263D01*
X90843695Y-82562027D01*
X89257010Y-82151206D01*
X87636903Y-81903014D01*
X86000000Y-81820000D01*
X84363097Y-81903014D01*
X82742990Y-82151206D01*
X81156305Y-82562027D01*
X79619322Y-83131263D01*
X78147814Y-83853072D01*
X76756880Y-84720048D01*
X75460793Y-85723294D01*
X74272853Y-86852515D01*
X73205249Y-88096125D01*
X72268936Y-89441362D01*
X71473523Y-90874423D01*
X70827171Y-92380601D01*
X70336512Y-93944442D01*
X70006583Y-95549899D01*
X69840767Y-97180496D01*
X69760000Y-97180496D01*
X69760000Y-89314801D01*
X80940201Y-78134601D01*
X80950991Y-78135664D01*
X81049009Y-78135664D01*
X81173490Y-78123404D01*
X81269623Y-78104282D01*
X81389319Y-78067973D01*
X81479875Y-78030464D01*
X81590192Y-77971498D01*
X81671691Y-77917042D01*
X81768382Y-77837690D01*
X81837690Y-77768382D01*
X81917042Y-77671691D01*
X81971498Y-77590192D01*
X82030464Y-77479875D01*
X82067973Y-77389319D01*
X82102290Y-77276191D01*
X82671045Y-77032438D01*
X82703787Y-77017296D01*
X82708853Y-77014777D01*
X82793568Y-76964128D01*
X82801566Y-76958463D01*
X82896049Y-76876521D01*
X82902789Y-76869404D01*
X82979510Y-76770546D01*
X82984731Y-76762251D01*
X83015430Y-76707715D01*
X83515430Y-75707715D01*
X83548362Y-75629129D01*
X83552680Y-75616523D01*
X83584037Y-75472311D01*
X83584998Y-75462556D01*
X83584998Y-75458143D01*
X83600262Y-75435889D01*
X83604987Y-75427302D01*
X83654238Y-75312388D01*
X83657198Y-75303044D01*
X83683111Y-75180594D01*
X83684190Y-75170852D01*
X83685715Y-75045865D01*
X83684874Y-75036099D01*
X83661962Y-74913069D01*
X83659231Y-74903655D01*
X83638859Y-74844456D01*
X83038859Y-73344456D01*
X83012772Y-73287515D01*
X83008257Y-73278815D01*
X82940052Y-73173995D01*
X82933927Y-73166343D01*
X82846536Y-73076797D01*
X82839035Y-73070487D01*
X82735889Y-72999738D01*
X82727302Y-72995013D01*
X82671045Y-72967562D01*
X82102290Y-72723809D01*
X82067973Y-72610681D01*
X82030464Y-72520125D01*
X81971498Y-72409808D01*
X81917042Y-72328309D01*
X81837690Y-72231618D01*
X81768382Y-72162310D01*
X81671691Y-72082958D01*
X81590192Y-72028502D01*
X81479875Y-71969536D01*
X81389319Y-71932027D01*
X81269623Y-71895718D01*
X81173490Y-71876596D01*
X81049009Y-71864336D01*
X80950991Y-71864336D01*
X80826510Y-71876596D01*
X80730377Y-71895718D01*
X80610681Y-71932027D01*
X80520125Y-71969536D01*
X80409808Y-72028502D01*
X80328309Y-72082958D01*
X80231618Y-72162310D01*
X80162310Y-72231618D01*
X80082958Y-72328309D01*
X80028502Y-72409808D01*
X79969536Y-72520125D01*
X79932027Y-72610681D01*
X79897710Y-72723809D01*
X79328955Y-72967562D01*
X79272698Y-72995013D01*
X79264111Y-72999738D01*
X79160965Y-73070487D01*
X79153464Y-73076797D01*
X79066073Y-73166343D01*
X79059948Y-73173995D01*
X78991743Y-73278815D01*
X78987228Y-73287515D01*
X78961141Y-73344456D01*
X78361141Y-74844456D01*
X78341853Y-74899960D01*
X78339238Y-74908775D01*
X78315963Y-75027689D01*
X78315002Y-75037444D01*
X78315002Y-75162556D01*
X78315963Y-75172311D01*
X78340363Y-75294972D01*
X78343208Y-75304351D01*
X78391081Y-75419927D01*
X78395702Y-75428572D01*
X78417637Y-75461399D01*
X78421159Y-75510954D01*
X78422809Y-75520616D01*
X78455839Y-75641231D01*
X78459342Y-75650386D01*
X78484570Y-75707715D01*
X78984570Y-76707715D01*
X79001611Y-76739516D01*
X79004423Y-76744425D01*
X79059948Y-76826005D01*
X79066073Y-76833657D01*
X79153464Y-76923203D01*
X79160965Y-76929513D01*
X79264111Y-77000262D01*
X79272698Y-77004987D01*
X79328955Y-77032438D01*
X79723618Y-77201580D01*
X68488998Y-88436201D01*
X68460000Y-88459999D01*
X68436202Y-88488997D01*
X68436201Y-88488998D01*
X68365026Y-88575724D01*
X68294454Y-88707754D01*
X68250998Y-88851015D01*
X68236324Y-89000000D01*
X67160000Y-89000000D01*
X67160000Y-71020747D01*
X67234944Y-69829551D01*
X67454698Y-68677556D01*
X67817100Y-67562199D01*
X68316441Y-66501045D01*
X68944836Y-65510854D01*
X69692383Y-64607224D01*
X70547292Y-63804412D01*
X71496079Y-63115078D01*
X72523774Y-62550097D01*
X73614186Y-62118373D01*
X74750103Y-61826719D01*
X75923941Y-61678429D01*
X76510358Y-61660000D01*
X89767721Y-61660000D01*
X89865424Y-61669580D01*
G37*
%TD.AperFunction*%
D13*
X81685199Y-123990000D02*
X81555577Y-123990000D01*
X81590192Y-123971498D01*
X81671691Y-123917042D01*
X81768382Y-123837690D01*
X81837690Y-123768382D01*
X81917042Y-123671691D01*
X81971498Y-123590192D01*
X82030464Y-123479875D01*
X82067973Y-123389319D01*
X82102290Y-123276191D01*
X82621548Y-123053651D01*
X81685199Y-123990000D01*
%TA.AperFunction,Conductor*%
D14*
G36*
X81685199Y-123990000D02*
G01*
X81555577Y-123990000D01*
X81590192Y-123971498D01*
X81671691Y-123917042D01*
X81768382Y-123837690D01*
X81837690Y-123768382D01*
X81917042Y-123671691D01*
X81971498Y-123590192D01*
X82030464Y-123479875D01*
X82067973Y-123389319D01*
X82102290Y-123276191D01*
X82621548Y-123053651D01*
X81685199Y-123990000D01*
G37*
%TD.AperFunction*%
%TD*%
M02*
