%TF.GenerationSoftware,KiCad,Pcbnew,(5.1.8)-1*%
%TF.CreationDate,2023-04-23T23:39:47+09:00*%
%TF.ProjectId,face,66616365-2e6b-4696-9361-645f70636258,rev?*%
%TF.SameCoordinates,Original*%
%TF.FileFunction,Soldermask,Bot*%
%TF.FilePolarity,Negative*%
%FSLAX46Y46*%
G04 Gerber Fmt 4.6, Leading zero omitted, Abs format (unit mm)*
G04 Created by KiCad (PCBNEW (5.1.8)-1) date 2023-04-23 23:39:47*
%MOMM*%
%LPD*%
G01*
G04 APERTURE LIST*
%ADD10C,0.100000*%
G04 APERTURE END LIST*
%TO.C,D1*%
G36*
G01*
X201350000Y-78506250D02*
X201350000Y-77993750D01*
G75*
G02*
X201568750Y-77775000I218750J0D01*
G01*
X202006250Y-77775000D01*
G75*
G02*
X202225000Y-77993750I0J-218750D01*
G01*
X202225000Y-78506250D01*
G75*
G02*
X202006250Y-78725000I-218750J0D01*
G01*
X201568750Y-78725000D01*
G75*
G02*
X201350000Y-78506250I0J218750D01*
G01*
G37*
G36*
G01*
X199775000Y-78506250D02*
X199775000Y-77993750D01*
G75*
G02*
X199993750Y-77775000I218750J0D01*
G01*
X200431250Y-77775000D01*
G75*
G02*
X200650000Y-77993750I0J-218750D01*
G01*
X200650000Y-78506250D01*
G75*
G02*
X200431250Y-78725000I-218750J0D01*
G01*
X199993750Y-78725000D01*
G75*
G02*
X199775000Y-78506250I0J218750D01*
G01*
G37*
%TD*%
%TO.C,D2*%
G36*
G01*
X199775000Y-118256250D02*
X199775000Y-117743750D01*
G75*
G02*
X199993750Y-117525000I218750J0D01*
G01*
X200431250Y-117525000D01*
G75*
G02*
X200650000Y-117743750I0J-218750D01*
G01*
X200650000Y-118256250D01*
G75*
G02*
X200431250Y-118475000I-218750J0D01*
G01*
X199993750Y-118475000D01*
G75*
G02*
X199775000Y-118256250I0J218750D01*
G01*
G37*
G36*
G01*
X201350000Y-118256250D02*
X201350000Y-117743750D01*
G75*
G02*
X201568750Y-117525000I218750J0D01*
G01*
X202006250Y-117525000D01*
G75*
G02*
X202225000Y-117743750I0J-218750D01*
G01*
X202225000Y-118256250D01*
G75*
G02*
X202006250Y-118475000I-218750J0D01*
G01*
X201568750Y-118475000D01*
G75*
G02*
X201350000Y-118256250I0J218750D01*
G01*
G37*
%TD*%
D10*
%TO.C,J1*%
G36*
X78950961Y-75090245D02*
G01*
X78953576Y-75081430D01*
X79553576Y-73581430D01*
X79558091Y-73572730D01*
X79564216Y-73565078D01*
X79571717Y-73558768D01*
X79580304Y-73554043D01*
X80523568Y-73149787D01*
X80514984Y-73121490D01*
X80505412Y-73073365D01*
X80500602Y-73024534D01*
X80500602Y-72975466D01*
X80505412Y-72926635D01*
X80514984Y-72878510D01*
X80529228Y-72831555D01*
X80548005Y-72786222D01*
X80571136Y-72742949D01*
X80598396Y-72702150D01*
X80629524Y-72664221D01*
X80664221Y-72629524D01*
X80702150Y-72598396D01*
X80742949Y-72571136D01*
X80786222Y-72548005D01*
X80831555Y-72529228D01*
X80878510Y-72514984D01*
X80926635Y-72505412D01*
X80975466Y-72500602D01*
X81024534Y-72500602D01*
X81073365Y-72505412D01*
X81121490Y-72514984D01*
X81168445Y-72529228D01*
X81213778Y-72548005D01*
X81257051Y-72571136D01*
X81297850Y-72598396D01*
X81335779Y-72629524D01*
X81370476Y-72664221D01*
X81401604Y-72702150D01*
X81428864Y-72742949D01*
X81451995Y-72786222D01*
X81470772Y-72831555D01*
X81485016Y-72878510D01*
X81494588Y-72926635D01*
X81499398Y-72975466D01*
X81499398Y-73024534D01*
X81494588Y-73073365D01*
X81485016Y-73121490D01*
X81476432Y-73149787D01*
X82419696Y-73554043D01*
X82428283Y-73558768D01*
X82435784Y-73565078D01*
X82441909Y-73572730D01*
X82446424Y-73581430D01*
X83046424Y-75081430D01*
X83049155Y-75090844D01*
X83049996Y-75100610D01*
X83048917Y-75110352D01*
X83045957Y-75119696D01*
X83041232Y-75128283D01*
X83034922Y-75135784D01*
X83027270Y-75141909D01*
X83018570Y-75146424D01*
X83009156Y-75149155D01*
X83000000Y-75150000D01*
X82400000Y-75150000D01*
X82390245Y-75149039D01*
X82380866Y-75146194D01*
X82372221Y-75141573D01*
X82364645Y-75135355D01*
X82358427Y-75127779D01*
X82353806Y-75119134D01*
X82350961Y-75109755D01*
X82350000Y-75100000D01*
X82350000Y-74250000D01*
X81350000Y-74250000D01*
X81350000Y-75900000D01*
X81349039Y-75909755D01*
X81346194Y-75919134D01*
X81341573Y-75927779D01*
X81335355Y-75935355D01*
X81327779Y-75941573D01*
X81319134Y-75946194D01*
X81309755Y-75949039D01*
X81300000Y-75950000D01*
X80700000Y-75950000D01*
X80690245Y-75949039D01*
X80680866Y-75946194D01*
X80672221Y-75941573D01*
X80664645Y-75935355D01*
X80658427Y-75927779D01*
X80653806Y-75919134D01*
X80650961Y-75909755D01*
X80650000Y-75900000D01*
X80650000Y-74250000D01*
X79650000Y-74250000D01*
X79650000Y-75100000D01*
X79649039Y-75109755D01*
X79646194Y-75119134D01*
X79641573Y-75127779D01*
X79635355Y-75135355D01*
X79627779Y-75141573D01*
X79619134Y-75146194D01*
X79609755Y-75149039D01*
X79600000Y-75150000D01*
X79000000Y-75150000D01*
X78990245Y-75149039D01*
X78980866Y-75146194D01*
X78972221Y-75141573D01*
X78964645Y-75135355D01*
X78958427Y-75127779D01*
X78953806Y-75119134D01*
X78950961Y-75109755D01*
X78950000Y-75100000D01*
X78950961Y-75090245D01*
G37*
G36*
X79050393Y-75393746D02*
G01*
X79052566Y-75384189D01*
X79056562Y-75375238D01*
X79062227Y-75367240D01*
X79069344Y-75360500D01*
X79077639Y-75355279D01*
X79086794Y-75351776D01*
X79100000Y-75350000D01*
X79850000Y-75350000D01*
X79850000Y-74500000D01*
X79850961Y-74490245D01*
X79853806Y-74480866D01*
X79858427Y-74472221D01*
X79864645Y-74464645D01*
X79872221Y-74458427D01*
X79880866Y-74453806D01*
X79890245Y-74450961D01*
X79900000Y-74450000D01*
X80400000Y-74450000D01*
X80409755Y-74450961D01*
X80419134Y-74453806D01*
X80427779Y-74458427D01*
X80435355Y-74464645D01*
X80441573Y-74472221D01*
X80446194Y-74480866D01*
X80449039Y-74490245D01*
X80450000Y-74500000D01*
X80450000Y-76150000D01*
X81550000Y-76150000D01*
X81550000Y-74500000D01*
X81550961Y-74490245D01*
X81553806Y-74480866D01*
X81558427Y-74472221D01*
X81564645Y-74464645D01*
X81572221Y-74458427D01*
X81580866Y-74453806D01*
X81590245Y-74450961D01*
X81600000Y-74450000D01*
X82100000Y-74450000D01*
X82109755Y-74450961D01*
X82119134Y-74453806D01*
X82127779Y-74458427D01*
X82135355Y-74464645D01*
X82141573Y-74472221D01*
X82146194Y-74480866D01*
X82149039Y-74490245D01*
X82150000Y-74500000D01*
X82150000Y-75350000D01*
X82900000Y-75350000D01*
X82909755Y-75350961D01*
X82919134Y-75353806D01*
X82927779Y-75358427D01*
X82935355Y-75364645D01*
X82941573Y-75372221D01*
X82946194Y-75380866D01*
X82949039Y-75390245D01*
X82950000Y-75400000D01*
X82949039Y-75409755D01*
X82944721Y-75422361D01*
X82444721Y-76422361D01*
X82439500Y-76430656D01*
X82432760Y-76437773D01*
X82424762Y-76443438D01*
X82419696Y-76445957D01*
X81476432Y-76850213D01*
X81485016Y-76878510D01*
X81494588Y-76926635D01*
X81499398Y-76975466D01*
X81499398Y-77024534D01*
X81494588Y-77073365D01*
X81485016Y-77121490D01*
X81470772Y-77168445D01*
X81451995Y-77213778D01*
X81428864Y-77257051D01*
X81401604Y-77297850D01*
X81370476Y-77335779D01*
X81335779Y-77370476D01*
X81297850Y-77401604D01*
X81257051Y-77428864D01*
X81213778Y-77451995D01*
X81168445Y-77470772D01*
X81121490Y-77485016D01*
X81073365Y-77494588D01*
X81024534Y-77499398D01*
X80975466Y-77499398D01*
X80926635Y-77494588D01*
X80878510Y-77485016D01*
X80831555Y-77470772D01*
X80786222Y-77451995D01*
X80742949Y-77428864D01*
X80702150Y-77401604D01*
X80664221Y-77370476D01*
X80629524Y-77335779D01*
X80598396Y-77297850D01*
X80571136Y-77257051D01*
X80548005Y-77213778D01*
X80529228Y-77168445D01*
X80514984Y-77121490D01*
X80505412Y-77073365D01*
X80500602Y-77024534D01*
X80500602Y-76975466D01*
X80505412Y-76926635D01*
X80514984Y-76878510D01*
X80523568Y-76850213D01*
X79580304Y-76445957D01*
X79571717Y-76441232D01*
X79564216Y-76434922D01*
X79558091Y-76427270D01*
X79555279Y-76422361D01*
X79055279Y-75422361D01*
X79051776Y-75413206D01*
X79050126Y-75403544D01*
X79050393Y-75393746D01*
G37*
%TD*%
%TO.C,J2*%
G36*
X82949607Y-120606254D02*
G01*
X82947434Y-120615811D01*
X82943438Y-120624762D01*
X82937773Y-120632760D01*
X82930656Y-120639500D01*
X82922361Y-120644721D01*
X82913206Y-120648224D01*
X82900000Y-120650000D01*
X82150000Y-120650000D01*
X82150000Y-121500000D01*
X82149039Y-121509755D01*
X82146194Y-121519134D01*
X82141573Y-121527779D01*
X82135355Y-121535355D01*
X82127779Y-121541573D01*
X82119134Y-121546194D01*
X82109755Y-121549039D01*
X82100000Y-121550000D01*
X81600000Y-121550000D01*
X81590245Y-121549039D01*
X81580866Y-121546194D01*
X81572221Y-121541573D01*
X81564645Y-121535355D01*
X81558427Y-121527779D01*
X81553806Y-121519134D01*
X81550961Y-121509755D01*
X81550000Y-121500000D01*
X81550000Y-119850000D01*
X80450000Y-119850000D01*
X80450000Y-121500000D01*
X80449039Y-121509755D01*
X80446194Y-121519134D01*
X80441573Y-121527779D01*
X80435355Y-121535355D01*
X80427779Y-121541573D01*
X80419134Y-121546194D01*
X80409755Y-121549039D01*
X80400000Y-121550000D01*
X79900000Y-121550000D01*
X79890245Y-121549039D01*
X79880866Y-121546194D01*
X79872221Y-121541573D01*
X79864645Y-121535355D01*
X79858427Y-121527779D01*
X79853806Y-121519134D01*
X79850961Y-121509755D01*
X79850000Y-121500000D01*
X79850000Y-120650000D01*
X79100000Y-120650000D01*
X79090245Y-120649039D01*
X79080866Y-120646194D01*
X79072221Y-120641573D01*
X79064645Y-120635355D01*
X79058427Y-120627779D01*
X79053806Y-120619134D01*
X79050961Y-120609755D01*
X79050000Y-120600000D01*
X79050961Y-120590245D01*
X79055279Y-120577639D01*
X79555279Y-119577639D01*
X79560500Y-119569344D01*
X79567240Y-119562227D01*
X79575238Y-119556562D01*
X79580304Y-119554043D01*
X80523568Y-119149787D01*
X80514984Y-119121490D01*
X80505412Y-119073365D01*
X80500602Y-119024534D01*
X80500602Y-118975466D01*
X80505412Y-118926635D01*
X80514984Y-118878510D01*
X80529228Y-118831555D01*
X80548005Y-118786222D01*
X80571136Y-118742949D01*
X80598396Y-118702150D01*
X80629524Y-118664221D01*
X80664221Y-118629524D01*
X80702150Y-118598396D01*
X80742949Y-118571136D01*
X80786222Y-118548005D01*
X80831555Y-118529228D01*
X80878510Y-118514984D01*
X80926635Y-118505412D01*
X80975466Y-118500602D01*
X81024534Y-118500602D01*
X81073365Y-118505412D01*
X81121490Y-118514984D01*
X81168445Y-118529228D01*
X81213778Y-118548005D01*
X81257051Y-118571136D01*
X81297850Y-118598396D01*
X81335779Y-118629524D01*
X81370476Y-118664221D01*
X81401604Y-118702150D01*
X81428864Y-118742949D01*
X81451995Y-118786222D01*
X81470772Y-118831555D01*
X81485016Y-118878510D01*
X81494588Y-118926635D01*
X81499398Y-118975466D01*
X81499398Y-119024534D01*
X81494588Y-119073365D01*
X81485016Y-119121490D01*
X81476432Y-119149787D01*
X82419696Y-119554043D01*
X82428283Y-119558768D01*
X82435784Y-119565078D01*
X82441909Y-119572730D01*
X82444721Y-119577639D01*
X82944721Y-120577639D01*
X82948224Y-120586794D01*
X82949874Y-120596456D01*
X82949607Y-120606254D01*
G37*
G36*
X83049039Y-120909755D02*
G01*
X83046424Y-120918570D01*
X82446424Y-122418570D01*
X82441909Y-122427270D01*
X82435784Y-122434922D01*
X82428283Y-122441232D01*
X82419696Y-122445957D01*
X81476432Y-122850213D01*
X81485016Y-122878510D01*
X81494588Y-122926635D01*
X81499398Y-122975466D01*
X81499398Y-123024534D01*
X81494588Y-123073365D01*
X81485016Y-123121490D01*
X81470772Y-123168445D01*
X81451995Y-123213778D01*
X81428864Y-123257051D01*
X81401604Y-123297850D01*
X81370476Y-123335779D01*
X81335779Y-123370476D01*
X81297850Y-123401604D01*
X81257051Y-123428864D01*
X81213778Y-123451995D01*
X81168445Y-123470772D01*
X81121490Y-123485016D01*
X81073365Y-123494588D01*
X81024534Y-123499398D01*
X80975466Y-123499398D01*
X80926635Y-123494588D01*
X80878510Y-123485016D01*
X80831555Y-123470772D01*
X80786222Y-123451995D01*
X80742949Y-123428864D01*
X80702150Y-123401604D01*
X80664221Y-123370476D01*
X80629524Y-123335779D01*
X80598396Y-123297850D01*
X80571136Y-123257051D01*
X80548005Y-123213778D01*
X80529228Y-123168445D01*
X80514984Y-123121490D01*
X80505412Y-123073365D01*
X80500602Y-123024534D01*
X80500602Y-122975466D01*
X80505412Y-122926635D01*
X80514984Y-122878510D01*
X80523568Y-122850213D01*
X79580304Y-122445957D01*
X79571717Y-122441232D01*
X79564216Y-122434922D01*
X79558091Y-122427270D01*
X79553576Y-122418570D01*
X78953576Y-120918570D01*
X78950845Y-120909156D01*
X78950004Y-120899390D01*
X78951083Y-120889648D01*
X78954043Y-120880304D01*
X78958768Y-120871717D01*
X78965078Y-120864216D01*
X78972730Y-120858091D01*
X78981430Y-120853576D01*
X78990844Y-120850845D01*
X79000000Y-120850000D01*
X79600000Y-120850000D01*
X79609755Y-120850961D01*
X79619134Y-120853806D01*
X79627779Y-120858427D01*
X79635355Y-120864645D01*
X79641573Y-120872221D01*
X79646194Y-120880866D01*
X79649039Y-120890245D01*
X79650000Y-120900000D01*
X79650000Y-121750000D01*
X80650000Y-121750000D01*
X80650000Y-120100000D01*
X80650961Y-120090245D01*
X80653806Y-120080866D01*
X80658427Y-120072221D01*
X80664645Y-120064645D01*
X80672221Y-120058427D01*
X80680866Y-120053806D01*
X80690245Y-120050961D01*
X80700000Y-120050000D01*
X81300000Y-120050000D01*
X81309755Y-120050961D01*
X81319134Y-120053806D01*
X81327779Y-120058427D01*
X81335355Y-120064645D01*
X81341573Y-120072221D01*
X81346194Y-120080866D01*
X81349039Y-120090245D01*
X81350000Y-120100000D01*
X81350000Y-121750000D01*
X82350000Y-121750000D01*
X82350000Y-120900000D01*
X82350961Y-120890245D01*
X82353806Y-120880866D01*
X82358427Y-120872221D01*
X82364645Y-120864645D01*
X82372221Y-120858427D01*
X82380866Y-120853806D01*
X82390245Y-120850961D01*
X82400000Y-120850000D01*
X83000000Y-120850000D01*
X83009755Y-120850961D01*
X83019134Y-120853806D01*
X83027779Y-120858427D01*
X83035355Y-120864645D01*
X83041573Y-120872221D01*
X83046194Y-120880866D01*
X83049039Y-120890245D01*
X83050000Y-120900000D01*
X83049039Y-120909755D01*
G37*
%TD*%
M02*
