%TF.GenerationSoftware,KiCad,Pcbnew,(5.1.8)-1*%
%TF.CreationDate,2023-04-23T23:39:47+09:00*%
%TF.ProjectId,face,66616365-2e6b-4696-9361-645f70636258,rev?*%
%TF.SameCoordinates,Original*%
%TF.FileFunction,Copper,L1,Top*%
%TF.FilePolarity,Positive*%
%FSLAX46Y46*%
G04 Gerber Fmt 4.6, Leading zero omitted, Abs format (unit mm)*
G04 Created by KiCad (PCBNEW (5.1.8)-1) date 2023-04-23 23:39:47*
%MOMM*%
%LPD*%
G01*
G04 APERTURE LIST*
%TA.AperFunction,ViaPad*%
%ADD10C,2.400000*%
%TD*%
%TA.AperFunction,Conductor*%
%ADD11C,0.254000*%
%TD*%
%TA.AperFunction,Conductor*%
%ADD12C,0.100000*%
%TD*%
G04 APERTURE END LIST*
D10*
%TO.N,GND*%
X72500000Y-67000000D03*
X72500000Y-129000000D03*
X202000000Y-75000000D03*
X202000000Y-121000000D03*
%TD*%
D11*
%TO.N,GND*%
X89865424Y-61669580D02*
X89928356Y-61688580D01*
X89986405Y-61719445D01*
X90024576Y-61750577D01*
X96568655Y-79994675D01*
X96577458Y-80028617D01*
X96604619Y-80084827D01*
X96631429Y-80141398D01*
X96632930Y-80143419D01*
X96634021Y-80145676D01*
X96671608Y-80195484D01*
X96708958Y-80245760D01*
X96710824Y-80247448D01*
X96712335Y-80249451D01*
X96758970Y-80291017D01*
X96805356Y-80332992D01*
X96807512Y-80334282D01*
X96809388Y-80335954D01*
X96863269Y-80367642D01*
X96916921Y-80399742D01*
X96919288Y-80400587D01*
X96921453Y-80401860D01*
X96980512Y-80422438D01*
X97039365Y-80443444D01*
X97041847Y-80443810D01*
X97044223Y-80444638D01*
X97106130Y-80453294D01*
X97167980Y-80462419D01*
X97170493Y-80462294D01*
X97172978Y-80462641D01*
X97235315Y-80459058D01*
X97297827Y-80455938D01*
X97300266Y-80455325D01*
X97302772Y-80455181D01*
X97363209Y-80439506D01*
X97423915Y-80424249D01*
X97455613Y-80409226D01*
X114906802Y-74000600D01*
X117068801Y-79995237D01*
X117077458Y-80028617D01*
X117104820Y-80085244D01*
X117132022Y-80142384D01*
X117133182Y-80143940D01*
X117134021Y-80145676D01*
X117171926Y-80195905D01*
X117209732Y-80246611D01*
X117211171Y-80247909D01*
X117212335Y-80249451D01*
X117259376Y-80291379D01*
X117306281Y-80333676D01*
X117307944Y-80334667D01*
X117309388Y-80335954D01*
X117363759Y-80367930D01*
X117417962Y-80400232D01*
X117419785Y-80400879D01*
X117421453Y-80401860D01*
X117481040Y-80422623D01*
X117540481Y-80443722D01*
X117542395Y-80444001D01*
X117544223Y-80444638D01*
X117606723Y-80453377D01*
X117669130Y-80462473D01*
X117671063Y-80462373D01*
X117672978Y-80462641D01*
X117735934Y-80459023D01*
X117798965Y-80455767D01*
X117800841Y-80455292D01*
X117802772Y-80455181D01*
X117863803Y-80439352D01*
X117924998Y-80423859D01*
X117956146Y-80409030D01*
X135406802Y-74000600D01*
X137568801Y-79995237D01*
X137577458Y-80028617D01*
X137604820Y-80085244D01*
X137632022Y-80142384D01*
X137633182Y-80143940D01*
X137634021Y-80145676D01*
X137671926Y-80195905D01*
X137709732Y-80246611D01*
X137711171Y-80247909D01*
X137712335Y-80249451D01*
X137759376Y-80291379D01*
X137806281Y-80333676D01*
X137807944Y-80334667D01*
X137809388Y-80335954D01*
X137863759Y-80367930D01*
X137917962Y-80400232D01*
X137919785Y-80400879D01*
X137921453Y-80401860D01*
X137981040Y-80422623D01*
X138040481Y-80443722D01*
X138042395Y-80444001D01*
X138044223Y-80444638D01*
X138106723Y-80453377D01*
X138169130Y-80462473D01*
X138171063Y-80462373D01*
X138172978Y-80462641D01*
X138235934Y-80459023D01*
X138298965Y-80455767D01*
X138300841Y-80455292D01*
X138302772Y-80455181D01*
X138363803Y-80439352D01*
X138424998Y-80423859D01*
X138456146Y-80409030D01*
X155906802Y-74000600D01*
X158068801Y-79995237D01*
X158077458Y-80028617D01*
X158104820Y-80085244D01*
X158132022Y-80142384D01*
X158133182Y-80143940D01*
X158134021Y-80145676D01*
X158171926Y-80195905D01*
X158209732Y-80246611D01*
X158211171Y-80247909D01*
X158212335Y-80249451D01*
X158259376Y-80291379D01*
X158306281Y-80333676D01*
X158307944Y-80334667D01*
X158309388Y-80335954D01*
X158363759Y-80367930D01*
X158417962Y-80400232D01*
X158419785Y-80400879D01*
X158421453Y-80401860D01*
X158481040Y-80422623D01*
X158540481Y-80443722D01*
X158542395Y-80444001D01*
X158544223Y-80444638D01*
X158606723Y-80453377D01*
X158669130Y-80462473D01*
X158671063Y-80462373D01*
X158672978Y-80462641D01*
X158735934Y-80459023D01*
X158798965Y-80455767D01*
X158800841Y-80455292D01*
X158802772Y-80455181D01*
X158863803Y-80439352D01*
X158924998Y-80423859D01*
X158956146Y-80409030D01*
X176406802Y-74000600D01*
X178568490Y-79994376D01*
X178576829Y-80026898D01*
X178604398Y-80084357D01*
X178632022Y-80142384D01*
X178632632Y-80143202D01*
X178633069Y-80144113D01*
X178671334Y-80195110D01*
X178709732Y-80246611D01*
X178710488Y-80247293D01*
X178711096Y-80248103D01*
X178758686Y-80290756D01*
X178806281Y-80333676D01*
X178807153Y-80334196D01*
X178807910Y-80334874D01*
X178863005Y-80367481D01*
X178917962Y-80400232D01*
X178918919Y-80400572D01*
X178919793Y-80401089D01*
X178980137Y-80422302D01*
X179040481Y-80443722D01*
X179041487Y-80443869D01*
X179042444Y-80444205D01*
X179105746Y-80453235D01*
X179169130Y-80462473D01*
X179170145Y-80462421D01*
X179171150Y-80462564D01*
X179234999Y-80459071D01*
X179298965Y-80455767D01*
X179299951Y-80455517D01*
X179300963Y-80455462D01*
X179362979Y-80439560D01*
X179424998Y-80423859D01*
X179455317Y-80409425D01*
X198896560Y-73330820D01*
X198929306Y-73322288D01*
X198986274Y-73294683D01*
X199044113Y-73266932D01*
X199045151Y-73266153D01*
X199046303Y-73265595D01*
X199096835Y-73227373D01*
X199148103Y-73188905D01*
X199148968Y-73187940D01*
X199149990Y-73187167D01*
X199192187Y-73139718D01*
X199234873Y-73092091D01*
X199235531Y-73090980D01*
X199236386Y-73090018D01*
X199268565Y-73035162D01*
X199301089Y-72980208D01*
X199301518Y-72978989D01*
X199302168Y-72977880D01*
X199323045Y-72917752D01*
X199344205Y-72857557D01*
X199344387Y-72856281D01*
X199344810Y-72855063D01*
X199353576Y-72791860D01*
X199362564Y-72728851D01*
X199362494Y-72727566D01*
X199362671Y-72726288D01*
X199358938Y-72662567D01*
X199355462Y-72599037D01*
X199355143Y-72597791D01*
X199355067Y-72596502D01*
X199338937Y-72534590D01*
X199323170Y-72473102D01*
X199308530Y-72442590D01*
X195689390Y-62621009D01*
X195702555Y-62577405D01*
X195732034Y-62521962D01*
X195771715Y-62473309D01*
X195820098Y-62433282D01*
X195875327Y-62403420D01*
X195935313Y-62384851D01*
X195997749Y-62378289D01*
X196060285Y-62383980D01*
X196131502Y-62404940D01*
X200045657Y-64505219D01*
X207340000Y-75203591D01*
X207340001Y-120796408D01*
X200045657Y-131494781D01*
X196138089Y-133591526D01*
X196071072Y-133613771D01*
X196008772Y-133621599D01*
X195946140Y-133617179D01*
X195885557Y-133600676D01*
X195829336Y-133572721D01*
X195779614Y-133534379D01*
X195738288Y-133487110D01*
X195706928Y-133432712D01*
X195689020Y-133379995D01*
X199309453Y-123554908D01*
X199324979Y-123521867D01*
X199339656Y-123462649D01*
X199355067Y-123403498D01*
X199355299Y-123399532D01*
X199356255Y-123395676D01*
X199359099Y-123334684D01*
X199362671Y-123273712D01*
X199362125Y-123269776D01*
X199362310Y-123265809D01*
X199353204Y-123205453D01*
X199344810Y-123144937D01*
X199343506Y-123141182D01*
X199342914Y-123137256D01*
X199322191Y-123079790D01*
X199302168Y-123022120D01*
X199300160Y-123018697D01*
X199298811Y-123014956D01*
X199267253Y-122962601D01*
X199236386Y-122909982D01*
X199233749Y-122907016D01*
X199231696Y-122903611D01*
X199190509Y-122858395D01*
X199149990Y-122812833D01*
X199146828Y-122810442D01*
X199144148Y-122807499D01*
X199094916Y-122771176D01*
X199046303Y-122734405D01*
X199042735Y-122732676D01*
X199039532Y-122730313D01*
X198984145Y-122704285D01*
X198929306Y-122677712D01*
X198893983Y-122668509D01*
X178952911Y-115589429D01*
X178924998Y-115576141D01*
X178891812Y-115567739D01*
X178890248Y-115567184D01*
X178860358Y-115559776D01*
X178798965Y-115544233D01*
X178797297Y-115544147D01*
X178795676Y-115543745D01*
X178732370Y-115540793D01*
X178669130Y-115537527D01*
X178667478Y-115537768D01*
X178665810Y-115537690D01*
X178603210Y-115547135D01*
X178540481Y-115556278D01*
X178538905Y-115556837D01*
X178537257Y-115557086D01*
X178477694Y-115578565D01*
X178417962Y-115599768D01*
X178416528Y-115600622D01*
X178414957Y-115601189D01*
X178360721Y-115633880D01*
X178306281Y-115666324D01*
X178305039Y-115667444D01*
X178303612Y-115668304D01*
X178256839Y-115710909D01*
X178209732Y-115753389D01*
X178208733Y-115754729D01*
X178207500Y-115755852D01*
X178169987Y-115806696D01*
X178132022Y-115857616D01*
X178131301Y-115859130D01*
X178130314Y-115860468D01*
X178103489Y-115917553D01*
X178090142Y-115945589D01*
X178089574Y-115947164D01*
X178075021Y-115978133D01*
X178067587Y-116008129D01*
X175906802Y-121999400D01*
X158456146Y-115590970D01*
X158424998Y-115576141D01*
X158363803Y-115560648D01*
X158302772Y-115544819D01*
X158300841Y-115544708D01*
X158298965Y-115544233D01*
X158235934Y-115540977D01*
X158172978Y-115537359D01*
X158171063Y-115537627D01*
X158169130Y-115537527D01*
X158106723Y-115546623D01*
X158044223Y-115555362D01*
X158042395Y-115555999D01*
X158040481Y-115556278D01*
X157981040Y-115577377D01*
X157921453Y-115598140D01*
X157919785Y-115599121D01*
X157917962Y-115599768D01*
X157863759Y-115632070D01*
X157809388Y-115664046D01*
X157807944Y-115665333D01*
X157806281Y-115666324D01*
X157759376Y-115708621D01*
X157712335Y-115750549D01*
X157711171Y-115752091D01*
X157709732Y-115753389D01*
X157671926Y-115804095D01*
X157634021Y-115854324D01*
X157633182Y-115856060D01*
X157632022Y-115857616D01*
X157604820Y-115914756D01*
X157577458Y-115971383D01*
X157568801Y-116004763D01*
X155406802Y-121999400D01*
X137956146Y-115590970D01*
X137924998Y-115576141D01*
X137863803Y-115560648D01*
X137802772Y-115544819D01*
X137800841Y-115544708D01*
X137798965Y-115544233D01*
X137735934Y-115540977D01*
X137672978Y-115537359D01*
X137671063Y-115537627D01*
X137669130Y-115537527D01*
X137606723Y-115546623D01*
X137544223Y-115555362D01*
X137542395Y-115555999D01*
X137540481Y-115556278D01*
X137481040Y-115577377D01*
X137421453Y-115598140D01*
X137419785Y-115599121D01*
X137417962Y-115599768D01*
X137363759Y-115632070D01*
X137309388Y-115664046D01*
X137307944Y-115665333D01*
X137306281Y-115666324D01*
X137259376Y-115708621D01*
X137212335Y-115750549D01*
X137211171Y-115752091D01*
X137209732Y-115753389D01*
X137171926Y-115804095D01*
X137134021Y-115854324D01*
X137133182Y-115856060D01*
X137132022Y-115857616D01*
X137104820Y-115914756D01*
X137077458Y-115971383D01*
X137068801Y-116004763D01*
X134906802Y-121999400D01*
X117456146Y-115590970D01*
X117424998Y-115576141D01*
X117363803Y-115560648D01*
X117302772Y-115544819D01*
X117300841Y-115544708D01*
X117298965Y-115544233D01*
X117235934Y-115540977D01*
X117172978Y-115537359D01*
X117171063Y-115537627D01*
X117169130Y-115537527D01*
X117106723Y-115546623D01*
X117044223Y-115555362D01*
X117042395Y-115555999D01*
X117040481Y-115556278D01*
X116981040Y-115577377D01*
X116921453Y-115598140D01*
X116919785Y-115599121D01*
X116917962Y-115599768D01*
X116863759Y-115632070D01*
X116809388Y-115664046D01*
X116807944Y-115665333D01*
X116806281Y-115666324D01*
X116759376Y-115708621D01*
X116712335Y-115750549D01*
X116711171Y-115752091D01*
X116709732Y-115753389D01*
X116671926Y-115804095D01*
X116634021Y-115854324D01*
X116633182Y-115856060D01*
X116632022Y-115857616D01*
X116604820Y-115914756D01*
X116577458Y-115971383D01*
X116568801Y-116004763D01*
X114406802Y-121999400D01*
X96955613Y-115590774D01*
X96923915Y-115575751D01*
X96863209Y-115560494D01*
X96802772Y-115544819D01*
X96800266Y-115544675D01*
X96797827Y-115544062D01*
X96735315Y-115540942D01*
X96672978Y-115537359D01*
X96670493Y-115537706D01*
X96667980Y-115537581D01*
X96606130Y-115546706D01*
X96544223Y-115555362D01*
X96541847Y-115556190D01*
X96539365Y-115556556D01*
X96480512Y-115577562D01*
X96421453Y-115598140D01*
X96419288Y-115599413D01*
X96416921Y-115600258D01*
X96363269Y-115632358D01*
X96309388Y-115664046D01*
X96307512Y-115665718D01*
X96305356Y-115667008D01*
X96258997Y-115708959D01*
X96212335Y-115750549D01*
X96210824Y-115752552D01*
X96208958Y-115754240D01*
X96171608Y-115804516D01*
X96134021Y-115854324D01*
X96132930Y-115856581D01*
X96131429Y-115858602D01*
X96104619Y-115915173D01*
X96077458Y-115971383D01*
X96068655Y-116005325D01*
X89523826Y-134251516D01*
X89472124Y-134289536D01*
X89412601Y-134317457D01*
X89340712Y-134335288D01*
X89276001Y-134340000D01*
X76520747Y-134340000D01*
X75329552Y-134265056D01*
X74177556Y-134045302D01*
X73062199Y-133682900D01*
X72001048Y-133183560D01*
X71010856Y-132555165D01*
X70107220Y-131807612D01*
X69304412Y-130952708D01*
X68615078Y-130003922D01*
X68050097Y-128976227D01*
X67618373Y-127885813D01*
X67326719Y-126749897D01*
X67178429Y-125576058D01*
X67160000Y-124989642D01*
X67160000Y-97180496D01*
X69840767Y-97180496D01*
X69840767Y-98819504D01*
X70006583Y-100450101D01*
X70336512Y-102055558D01*
X70827171Y-103619399D01*
X71473523Y-105125577D01*
X72268936Y-106558638D01*
X73205249Y-107903875D01*
X74272853Y-109147485D01*
X75460793Y-110276706D01*
X76756880Y-111279952D01*
X78147814Y-112146928D01*
X79619322Y-112868737D01*
X81156305Y-113437973D01*
X82742990Y-113848794D01*
X84363097Y-114096986D01*
X86000000Y-114180000D01*
X87636903Y-114096986D01*
X89257010Y-113848794D01*
X90843695Y-113437973D01*
X92380678Y-112868737D01*
X93852186Y-112146928D01*
X95243120Y-111279952D01*
X96539207Y-110276706D01*
X97727147Y-109147485D01*
X98794751Y-107903875D01*
X99731064Y-106558638D01*
X100526477Y-105125577D01*
X101172829Y-103619399D01*
X101663488Y-102055558D01*
X101993417Y-100450101D01*
X102159233Y-98819504D01*
X102159233Y-97180496D01*
X101993417Y-95549899D01*
X101663488Y-93944442D01*
X101172829Y-92380601D01*
X100526477Y-90874423D01*
X99731064Y-89441362D01*
X98794751Y-88096125D01*
X97727147Y-86852515D01*
X96539207Y-85723294D01*
X95243120Y-84720048D01*
X93852186Y-83853072D01*
X92380678Y-83131263D01*
X90843695Y-82562027D01*
X89257010Y-82151206D01*
X87636903Y-81903014D01*
X86000000Y-81820000D01*
X84363097Y-81903014D01*
X82742990Y-82151206D01*
X81156305Y-82562027D01*
X79619322Y-83131263D01*
X78147814Y-83853072D01*
X76756880Y-84720048D01*
X75460793Y-85723294D01*
X74272853Y-86852515D01*
X73205249Y-88096125D01*
X72268936Y-89441362D01*
X71473523Y-90874423D01*
X70827171Y-92380601D01*
X70336512Y-93944442D01*
X70006583Y-95549899D01*
X69840767Y-97180496D01*
X67160000Y-97180496D01*
X67160000Y-71020747D01*
X67234944Y-69829551D01*
X67454698Y-68677556D01*
X67817100Y-67562199D01*
X68316441Y-66501045D01*
X68944836Y-65510854D01*
X69692383Y-64607224D01*
X70547292Y-63804412D01*
X71496079Y-63115078D01*
X72523774Y-62550097D01*
X73614186Y-62118373D01*
X74750103Y-61826719D01*
X75923941Y-61678429D01*
X76510358Y-61660000D01*
X89767721Y-61660000D01*
X89865424Y-61669580D01*
%TA.AperFunction,Conductor*%
D12*
G36*
X89865424Y-61669580D02*
G01*
X89928356Y-61688580D01*
X89986405Y-61719445D01*
X90024576Y-61750577D01*
X96568655Y-79994675D01*
X96577458Y-80028617D01*
X96604619Y-80084827D01*
X96631429Y-80141398D01*
X96632930Y-80143419D01*
X96634021Y-80145676D01*
X96671608Y-80195484D01*
X96708958Y-80245760D01*
X96710824Y-80247448D01*
X96712335Y-80249451D01*
X96758970Y-80291017D01*
X96805356Y-80332992D01*
X96807512Y-80334282D01*
X96809388Y-80335954D01*
X96863269Y-80367642D01*
X96916921Y-80399742D01*
X96919288Y-80400587D01*
X96921453Y-80401860D01*
X96980512Y-80422438D01*
X97039365Y-80443444D01*
X97041847Y-80443810D01*
X97044223Y-80444638D01*
X97106130Y-80453294D01*
X97167980Y-80462419D01*
X97170493Y-80462294D01*
X97172978Y-80462641D01*
X97235315Y-80459058D01*
X97297827Y-80455938D01*
X97300266Y-80455325D01*
X97302772Y-80455181D01*
X97363209Y-80439506D01*
X97423915Y-80424249D01*
X97455613Y-80409226D01*
X114906802Y-74000600D01*
X117068801Y-79995237D01*
X117077458Y-80028617D01*
X117104820Y-80085244D01*
X117132022Y-80142384D01*
X117133182Y-80143940D01*
X117134021Y-80145676D01*
X117171926Y-80195905D01*
X117209732Y-80246611D01*
X117211171Y-80247909D01*
X117212335Y-80249451D01*
X117259376Y-80291379D01*
X117306281Y-80333676D01*
X117307944Y-80334667D01*
X117309388Y-80335954D01*
X117363759Y-80367930D01*
X117417962Y-80400232D01*
X117419785Y-80400879D01*
X117421453Y-80401860D01*
X117481040Y-80422623D01*
X117540481Y-80443722D01*
X117542395Y-80444001D01*
X117544223Y-80444638D01*
X117606723Y-80453377D01*
X117669130Y-80462473D01*
X117671063Y-80462373D01*
X117672978Y-80462641D01*
X117735934Y-80459023D01*
X117798965Y-80455767D01*
X117800841Y-80455292D01*
X117802772Y-80455181D01*
X117863803Y-80439352D01*
X117924998Y-80423859D01*
X117956146Y-80409030D01*
X135406802Y-74000600D01*
X137568801Y-79995237D01*
X137577458Y-80028617D01*
X137604820Y-80085244D01*
X137632022Y-80142384D01*
X137633182Y-80143940D01*
X137634021Y-80145676D01*
X137671926Y-80195905D01*
X137709732Y-80246611D01*
X137711171Y-80247909D01*
X137712335Y-80249451D01*
X137759376Y-80291379D01*
X137806281Y-80333676D01*
X137807944Y-80334667D01*
X137809388Y-80335954D01*
X137863759Y-80367930D01*
X137917962Y-80400232D01*
X137919785Y-80400879D01*
X137921453Y-80401860D01*
X137981040Y-80422623D01*
X138040481Y-80443722D01*
X138042395Y-80444001D01*
X138044223Y-80444638D01*
X138106723Y-80453377D01*
X138169130Y-80462473D01*
X138171063Y-80462373D01*
X138172978Y-80462641D01*
X138235934Y-80459023D01*
X138298965Y-80455767D01*
X138300841Y-80455292D01*
X138302772Y-80455181D01*
X138363803Y-80439352D01*
X138424998Y-80423859D01*
X138456146Y-80409030D01*
X155906802Y-74000600D01*
X158068801Y-79995237D01*
X158077458Y-80028617D01*
X158104820Y-80085244D01*
X158132022Y-80142384D01*
X158133182Y-80143940D01*
X158134021Y-80145676D01*
X158171926Y-80195905D01*
X158209732Y-80246611D01*
X158211171Y-80247909D01*
X158212335Y-80249451D01*
X158259376Y-80291379D01*
X158306281Y-80333676D01*
X158307944Y-80334667D01*
X158309388Y-80335954D01*
X158363759Y-80367930D01*
X158417962Y-80400232D01*
X158419785Y-80400879D01*
X158421453Y-80401860D01*
X158481040Y-80422623D01*
X158540481Y-80443722D01*
X158542395Y-80444001D01*
X158544223Y-80444638D01*
X158606723Y-80453377D01*
X158669130Y-80462473D01*
X158671063Y-80462373D01*
X158672978Y-80462641D01*
X158735934Y-80459023D01*
X158798965Y-80455767D01*
X158800841Y-80455292D01*
X158802772Y-80455181D01*
X158863803Y-80439352D01*
X158924998Y-80423859D01*
X158956146Y-80409030D01*
X176406802Y-74000600D01*
X178568490Y-79994376D01*
X178576829Y-80026898D01*
X178604398Y-80084357D01*
X178632022Y-80142384D01*
X178632632Y-80143202D01*
X178633069Y-80144113D01*
X178671334Y-80195110D01*
X178709732Y-80246611D01*
X178710488Y-80247293D01*
X178711096Y-80248103D01*
X178758686Y-80290756D01*
X178806281Y-80333676D01*
X178807153Y-80334196D01*
X178807910Y-80334874D01*
X178863005Y-80367481D01*
X178917962Y-80400232D01*
X178918919Y-80400572D01*
X178919793Y-80401089D01*
X178980137Y-80422302D01*
X179040481Y-80443722D01*
X179041487Y-80443869D01*
X179042444Y-80444205D01*
X179105746Y-80453235D01*
X179169130Y-80462473D01*
X179170145Y-80462421D01*
X179171150Y-80462564D01*
X179234999Y-80459071D01*
X179298965Y-80455767D01*
X179299951Y-80455517D01*
X179300963Y-80455462D01*
X179362979Y-80439560D01*
X179424998Y-80423859D01*
X179455317Y-80409425D01*
X198896560Y-73330820D01*
X198929306Y-73322288D01*
X198986274Y-73294683D01*
X199044113Y-73266932D01*
X199045151Y-73266153D01*
X199046303Y-73265595D01*
X199096835Y-73227373D01*
X199148103Y-73188905D01*
X199148968Y-73187940D01*
X199149990Y-73187167D01*
X199192187Y-73139718D01*
X199234873Y-73092091D01*
X199235531Y-73090980D01*
X199236386Y-73090018D01*
X199268565Y-73035162D01*
X199301089Y-72980208D01*
X199301518Y-72978989D01*
X199302168Y-72977880D01*
X199323045Y-72917752D01*
X199344205Y-72857557D01*
X199344387Y-72856281D01*
X199344810Y-72855063D01*
X199353576Y-72791860D01*
X199362564Y-72728851D01*
X199362494Y-72727566D01*
X199362671Y-72726288D01*
X199358938Y-72662567D01*
X199355462Y-72599037D01*
X199355143Y-72597791D01*
X199355067Y-72596502D01*
X199338937Y-72534590D01*
X199323170Y-72473102D01*
X199308530Y-72442590D01*
X195689390Y-62621009D01*
X195702555Y-62577405D01*
X195732034Y-62521962D01*
X195771715Y-62473309D01*
X195820098Y-62433282D01*
X195875327Y-62403420D01*
X195935313Y-62384851D01*
X195997749Y-62378289D01*
X196060285Y-62383980D01*
X196131502Y-62404940D01*
X200045657Y-64505219D01*
X207340000Y-75203591D01*
X207340001Y-120796408D01*
X200045657Y-131494781D01*
X196138089Y-133591526D01*
X196071072Y-133613771D01*
X196008772Y-133621599D01*
X195946140Y-133617179D01*
X195885557Y-133600676D01*
X195829336Y-133572721D01*
X195779614Y-133534379D01*
X195738288Y-133487110D01*
X195706928Y-133432712D01*
X195689020Y-133379995D01*
X199309453Y-123554908D01*
X199324979Y-123521867D01*
X199339656Y-123462649D01*
X199355067Y-123403498D01*
X199355299Y-123399532D01*
X199356255Y-123395676D01*
X199359099Y-123334684D01*
X199362671Y-123273712D01*
X199362125Y-123269776D01*
X199362310Y-123265809D01*
X199353204Y-123205453D01*
X199344810Y-123144937D01*
X199343506Y-123141182D01*
X199342914Y-123137256D01*
X199322191Y-123079790D01*
X199302168Y-123022120D01*
X199300160Y-123018697D01*
X199298811Y-123014956D01*
X199267253Y-122962601D01*
X199236386Y-122909982D01*
X199233749Y-122907016D01*
X199231696Y-122903611D01*
X199190509Y-122858395D01*
X199149990Y-122812833D01*
X199146828Y-122810442D01*
X199144148Y-122807499D01*
X199094916Y-122771176D01*
X199046303Y-122734405D01*
X199042735Y-122732676D01*
X199039532Y-122730313D01*
X198984145Y-122704285D01*
X198929306Y-122677712D01*
X198893983Y-122668509D01*
X178952911Y-115589429D01*
X178924998Y-115576141D01*
X178891812Y-115567739D01*
X178890248Y-115567184D01*
X178860358Y-115559776D01*
X178798965Y-115544233D01*
X178797297Y-115544147D01*
X178795676Y-115543745D01*
X178732370Y-115540793D01*
X178669130Y-115537527D01*
X178667478Y-115537768D01*
X178665810Y-115537690D01*
X178603210Y-115547135D01*
X178540481Y-115556278D01*
X178538905Y-115556837D01*
X178537257Y-115557086D01*
X178477694Y-115578565D01*
X178417962Y-115599768D01*
X178416528Y-115600622D01*
X178414957Y-115601189D01*
X178360721Y-115633880D01*
X178306281Y-115666324D01*
X178305039Y-115667444D01*
X178303612Y-115668304D01*
X178256839Y-115710909D01*
X178209732Y-115753389D01*
X178208733Y-115754729D01*
X178207500Y-115755852D01*
X178169987Y-115806696D01*
X178132022Y-115857616D01*
X178131301Y-115859130D01*
X178130314Y-115860468D01*
X178103489Y-115917553D01*
X178090142Y-115945589D01*
X178089574Y-115947164D01*
X178075021Y-115978133D01*
X178067587Y-116008129D01*
X175906802Y-121999400D01*
X158456146Y-115590970D01*
X158424998Y-115576141D01*
X158363803Y-115560648D01*
X158302772Y-115544819D01*
X158300841Y-115544708D01*
X158298965Y-115544233D01*
X158235934Y-115540977D01*
X158172978Y-115537359D01*
X158171063Y-115537627D01*
X158169130Y-115537527D01*
X158106723Y-115546623D01*
X158044223Y-115555362D01*
X158042395Y-115555999D01*
X158040481Y-115556278D01*
X157981040Y-115577377D01*
X157921453Y-115598140D01*
X157919785Y-115599121D01*
X157917962Y-115599768D01*
X157863759Y-115632070D01*
X157809388Y-115664046D01*
X157807944Y-115665333D01*
X157806281Y-115666324D01*
X157759376Y-115708621D01*
X157712335Y-115750549D01*
X157711171Y-115752091D01*
X157709732Y-115753389D01*
X157671926Y-115804095D01*
X157634021Y-115854324D01*
X157633182Y-115856060D01*
X157632022Y-115857616D01*
X157604820Y-115914756D01*
X157577458Y-115971383D01*
X157568801Y-116004763D01*
X155406802Y-121999400D01*
X137956146Y-115590970D01*
X137924998Y-115576141D01*
X137863803Y-115560648D01*
X137802772Y-115544819D01*
X137800841Y-115544708D01*
X137798965Y-115544233D01*
X137735934Y-115540977D01*
X137672978Y-115537359D01*
X137671063Y-115537627D01*
X137669130Y-115537527D01*
X137606723Y-115546623D01*
X137544223Y-115555362D01*
X137542395Y-115555999D01*
X137540481Y-115556278D01*
X137481040Y-115577377D01*
X137421453Y-115598140D01*
X137419785Y-115599121D01*
X137417962Y-115599768D01*
X137363759Y-115632070D01*
X137309388Y-115664046D01*
X137307944Y-115665333D01*
X137306281Y-115666324D01*
X137259376Y-115708621D01*
X137212335Y-115750549D01*
X137211171Y-115752091D01*
X137209732Y-115753389D01*
X137171926Y-115804095D01*
X137134021Y-115854324D01*
X137133182Y-115856060D01*
X137132022Y-115857616D01*
X137104820Y-115914756D01*
X137077458Y-115971383D01*
X137068801Y-116004763D01*
X134906802Y-121999400D01*
X117456146Y-115590970D01*
X117424998Y-115576141D01*
X117363803Y-115560648D01*
X117302772Y-115544819D01*
X117300841Y-115544708D01*
X117298965Y-115544233D01*
X117235934Y-115540977D01*
X117172978Y-115537359D01*
X117171063Y-115537627D01*
X117169130Y-115537527D01*
X117106723Y-115546623D01*
X117044223Y-115555362D01*
X117042395Y-115555999D01*
X117040481Y-115556278D01*
X116981040Y-115577377D01*
X116921453Y-115598140D01*
X116919785Y-115599121D01*
X116917962Y-115599768D01*
X116863759Y-115632070D01*
X116809388Y-115664046D01*
X116807944Y-115665333D01*
X116806281Y-115666324D01*
X116759376Y-115708621D01*
X116712335Y-115750549D01*
X116711171Y-115752091D01*
X116709732Y-115753389D01*
X116671926Y-115804095D01*
X116634021Y-115854324D01*
X116633182Y-115856060D01*
X116632022Y-115857616D01*
X116604820Y-115914756D01*
X116577458Y-115971383D01*
X116568801Y-116004763D01*
X114406802Y-121999400D01*
X96955613Y-115590774D01*
X96923915Y-115575751D01*
X96863209Y-115560494D01*
X96802772Y-115544819D01*
X96800266Y-115544675D01*
X96797827Y-115544062D01*
X96735315Y-115540942D01*
X96672978Y-115537359D01*
X96670493Y-115537706D01*
X96667980Y-115537581D01*
X96606130Y-115546706D01*
X96544223Y-115555362D01*
X96541847Y-115556190D01*
X96539365Y-115556556D01*
X96480512Y-115577562D01*
X96421453Y-115598140D01*
X96419288Y-115599413D01*
X96416921Y-115600258D01*
X96363269Y-115632358D01*
X96309388Y-115664046D01*
X96307512Y-115665718D01*
X96305356Y-115667008D01*
X96258997Y-115708959D01*
X96212335Y-115750549D01*
X96210824Y-115752552D01*
X96208958Y-115754240D01*
X96171608Y-115804516D01*
X96134021Y-115854324D01*
X96132930Y-115856581D01*
X96131429Y-115858602D01*
X96104619Y-115915173D01*
X96077458Y-115971383D01*
X96068655Y-116005325D01*
X89523826Y-134251516D01*
X89472124Y-134289536D01*
X89412601Y-134317457D01*
X89340712Y-134335288D01*
X89276001Y-134340000D01*
X76520747Y-134340000D01*
X75329552Y-134265056D01*
X74177556Y-134045302D01*
X73062199Y-133682900D01*
X72001048Y-133183560D01*
X71010856Y-132555165D01*
X70107220Y-131807612D01*
X69304412Y-130952708D01*
X68615078Y-130003922D01*
X68050097Y-128976227D01*
X67618373Y-127885813D01*
X67326719Y-126749897D01*
X67178429Y-125576058D01*
X67160000Y-124989642D01*
X67160000Y-97180496D01*
X69840767Y-97180496D01*
X69840767Y-98819504D01*
X70006583Y-100450101D01*
X70336512Y-102055558D01*
X70827171Y-103619399D01*
X71473523Y-105125577D01*
X72268936Y-106558638D01*
X73205249Y-107903875D01*
X74272853Y-109147485D01*
X75460793Y-110276706D01*
X76756880Y-111279952D01*
X78147814Y-112146928D01*
X79619322Y-112868737D01*
X81156305Y-113437973D01*
X82742990Y-113848794D01*
X84363097Y-114096986D01*
X86000000Y-114180000D01*
X87636903Y-114096986D01*
X89257010Y-113848794D01*
X90843695Y-113437973D01*
X92380678Y-112868737D01*
X93852186Y-112146928D01*
X95243120Y-111279952D01*
X96539207Y-110276706D01*
X97727147Y-109147485D01*
X98794751Y-107903875D01*
X99731064Y-106558638D01*
X100526477Y-105125577D01*
X101172829Y-103619399D01*
X101663488Y-102055558D01*
X101993417Y-100450101D01*
X102159233Y-98819504D01*
X102159233Y-97180496D01*
X101993417Y-95549899D01*
X101663488Y-93944442D01*
X101172829Y-92380601D01*
X100526477Y-90874423D01*
X99731064Y-89441362D01*
X98794751Y-88096125D01*
X97727147Y-86852515D01*
X96539207Y-85723294D01*
X95243120Y-84720048D01*
X93852186Y-83853072D01*
X92380678Y-83131263D01*
X90843695Y-82562027D01*
X89257010Y-82151206D01*
X87636903Y-81903014D01*
X86000000Y-81820000D01*
X84363097Y-81903014D01*
X82742990Y-82151206D01*
X81156305Y-82562027D01*
X79619322Y-83131263D01*
X78147814Y-83853072D01*
X76756880Y-84720048D01*
X75460793Y-85723294D01*
X74272853Y-86852515D01*
X73205249Y-88096125D01*
X72268936Y-89441362D01*
X71473523Y-90874423D01*
X70827171Y-92380601D01*
X70336512Y-93944442D01*
X70006583Y-95549899D01*
X69840767Y-97180496D01*
X67160000Y-97180496D01*
X67160000Y-71020747D01*
X67234944Y-69829551D01*
X67454698Y-68677556D01*
X67817100Y-67562199D01*
X68316441Y-66501045D01*
X68944836Y-65510854D01*
X69692383Y-64607224D01*
X70547292Y-63804412D01*
X71496079Y-63115078D01*
X72523774Y-62550097D01*
X73614186Y-62118373D01*
X74750103Y-61826719D01*
X75923941Y-61678429D01*
X76510358Y-61660000D01*
X89767721Y-61660000D01*
X89865424Y-61669580D01*
G37*
%TD.AperFunction*%
%TD*%
M02*
