%TF.GenerationSoftware,KiCad,Pcbnew,(5.1.8)-1*%
%TF.CreationDate,2023-04-23T23:39:47+09:00*%
%TF.ProjectId,face,66616365-2e6b-4696-9361-645f70636258,rev?*%
%TF.SameCoordinates,Original*%
%TF.FileFunction,Profile,NP*%
%FSLAX46Y46*%
G04 Gerber Fmt 4.6, Leading zero omitted, Abs format (unit mm)*
G04 Created by KiCad (PCBNEW (5.1.8)-1) date 2023-04-23 23:39:47*
%MOMM*%
%LPD*%
G01*
G04 APERTURE LIST*
%TA.AperFunction,Profile*%
%ADD10C,0.050000*%
%TD*%
G04 APERTURE END LIST*
D10*
X200500000Y-132000000D02*
X208000000Y-121000000D01*
X196400000Y-134200000D02*
X200500000Y-132000000D01*
X195015116Y-133299999D02*
G75*
G03*
X196399999Y-134199999I984884J-1D01*
G01*
X198700000Y-123300000D02*
X195015116Y-133299999D01*
X195015116Y-62700001D02*
G75*
G02*
X196399999Y-61800001I984884J1D01*
G01*
X200500000Y-64000000D02*
X208000000Y-75000000D01*
X196400000Y-61800000D02*
X200500000Y-64000000D01*
X76500000Y-135000000D02*
G75*
G02*
X66500000Y-125000000I0J10000000D01*
G01*
X66500000Y-71000000D02*
G75*
G02*
X76500000Y-61000000I10000000J0D01*
G01*
X66500000Y-125000000D02*
X66500000Y-71000000D01*
X208000000Y-75000000D02*
X208000000Y-121000000D01*
X114400002Y-122700000D02*
G75*
G03*
X115000000Y-122300000I99999J499999D01*
G01*
X134900002Y-122700000D02*
G75*
G03*
X135500000Y-122300000I99999J499999D01*
G01*
X178700000Y-116200000D02*
X176500000Y-122300000D01*
X155400002Y-122700000D02*
X137700000Y-116200000D01*
X198700000Y-123300000D02*
X178700000Y-116200000D01*
X155400002Y-122700000D02*
G75*
G03*
X156000000Y-122300000I99999J499999D01*
G01*
X175900002Y-122700000D02*
X158200000Y-116200000D01*
X175900002Y-122700000D02*
G75*
G03*
X176500000Y-122300000I99999J499999D01*
G01*
X137700000Y-116200000D02*
X135500000Y-122300000D01*
X158200000Y-116200000D02*
X156000000Y-122300000D01*
X134900002Y-122700000D02*
X117200000Y-116200000D01*
X117200000Y-116200000D02*
X115000000Y-122300000D01*
X114400002Y-122700000D02*
X96700000Y-116200000D01*
X89300000Y-135000000D02*
G75*
G03*
X90100000Y-134600000I0J1000000D01*
G01*
X96700000Y-116200000D02*
X90100000Y-134600000D01*
X89300000Y-135000000D02*
X76500000Y-135000000D01*
X198700000Y-72700000D02*
X195015116Y-62700001D01*
X198700000Y-72700000D02*
X179200000Y-79800000D01*
X176400002Y-73300000D02*
X158700000Y-79800000D01*
X176400002Y-73300000D02*
G75*
G02*
X177000000Y-73700000I99999J-499999D01*
G01*
X179200000Y-79800000D02*
X177000000Y-73700000D01*
X155900002Y-73300000D02*
G75*
G02*
X156500000Y-73700000I99999J-499999D01*
G01*
X158700000Y-79800000D02*
X156500000Y-73700000D01*
X155900002Y-73300000D02*
X138200000Y-79800000D01*
X135400002Y-73300000D02*
G75*
G02*
X136000000Y-73700000I99999J-499999D01*
G01*
X138200000Y-79800000D02*
X136000000Y-73700000D01*
X135400002Y-73300000D02*
X117700000Y-79800000D01*
X114900002Y-73300000D02*
G75*
G02*
X115500000Y-73700000I99999J-499999D01*
G01*
X117700000Y-79800000D02*
X115500000Y-73700000D01*
X114900002Y-73300000D02*
X97200000Y-79800000D01*
X89800000Y-61000000D02*
G75*
G02*
X90600000Y-61400000I0J-1000000D01*
G01*
X97200000Y-79800000D02*
X90600000Y-61400000D01*
X101500000Y-98000000D02*
G75*
G03*
X101500000Y-98000000I-15500000J0D01*
G01*
X89800000Y-61000000D02*
X76500000Y-61000000D01*
M02*
