M48
; DRILL file {KiCad (5.1.8)-1} date 12/03/21 11:16:58
; FORMAT={-:-/ absolute / metric / decimal}
; #@! TF.CreationDate,2021-12-03T11:16:58+09:00
; #@! TF.GenerationSoftware,Kicad,Pcbnew,(5.1.8)-1
FMAT,2
METRIC
T1C0.400
T2C0.800
T3C1.000
T4C1.200
T5C1.600
T6C2.200
T7C4.000
%
G90
G05
T1
X158.5Y-87.0
X160.0Y-86.0
X161.0Y-83.0
X162.0Y-84.0
X163.5Y-85.0
X164.5Y-88.0
X165.0Y-107.5
X166.0Y-93.5
X167.5Y-92.0
X168.0Y-88.0
X169.5Y-93.5
X170.0Y-101.5
X171.0Y-92.0
T2
X134.5Y-91.0
X134.5Y-93.0
X134.5Y-95.0
X134.5Y-97.0
X188.0Y-91.155
X188.0Y-93.155
X188.0Y-95.155
X188.0Y-97.155
T3
X179.0Y-114.96
X179.0Y-117.5
X179.07Y-71.12
X179.07Y-73.66
X154.0Y-88.46
X154.0Y-91.0
T4
X184.15Y-113.03
X190.5Y-110.49
X132.08Y-78.105
X138.43Y-75.565
X148.59Y-113.03
X154.94Y-110.49
X130.81Y-113.03
X137.16Y-110.49
X141.605Y-89.535
X147.955Y-92.075
X185.42Y-78.105
X191.77Y-75.565
X149.86Y-78.105
X156.21Y-75.565
X167.64Y-78.105
X173.99Y-75.565
X166.37Y-113.03
X172.72Y-110.49
T5
X131.5Y-68.5
X141.5Y-68.5
X151.5Y-68.5
X161.5Y-68.5
X171.5Y-68.5
X176.5Y-83.5
X181.5Y-68.5
X184.0Y-81.5
X191.5Y-68.5
X191.5Y-81.5
T6
X128.5Y-86.5
X128.5Y-102.5
X140.5Y-86.5
X140.5Y-102.5
X182.5Y-86.5
X182.5Y-102.5
X194.0Y-86.5
X194.0Y-102.5
T7
X134.62Y-73.025
X152.4Y-115.57
X134.62Y-115.57
X187.96Y-73.025
X152.4Y-73.025
X170.18Y-73.025
X170.18Y-115.57
X187.96Y-115.57
X144.145Y-94.615
T0
M30
