G04 #@! TF.GenerationSoftware,KiCad,Pcbnew,(5.1.8)-1*
G04 #@! TF.CreationDate,2021-12-03T11:16:53+09:00*
G04 #@! TF.ProjectId,windsynth,77696e64-7379-46e7-9468-2e6b69636164,rev?*
G04 #@! TF.SameCoordinates,Original*
G04 #@! TF.FileFunction,Soldermask,Top*
G04 #@! TF.FilePolarity,Negative*
%FSLAX46Y46*%
G04 Gerber Fmt 4.6, Leading zero omitted, Abs format (unit mm)*
G04 Created by KiCad (PCBNEW (5.1.8)-1) date 2021-12-03 11:16:53*
%MOMM*%
%LPD*%
G01*
G04 APERTURE LIST*
%ADD10R,1.350000X1.350000*%
%ADD11O,1.350000X1.350000*%
%ADD12C,4.200000*%
%ADD13C,2.000000*%
%ADD14R,1.700000X1.700000*%
%ADD15O,1.700000X1.700000*%
G04 APERTURE END LIST*
D10*
G04 #@! TO.C,I2C*
X188000000Y-97155000D03*
D11*
X188000000Y-95155000D03*
X188000000Y-93155000D03*
X188000000Y-91155000D03*
G04 #@! TD*
G04 #@! TO.C,I2C*
X134500000Y-97000000D03*
X134500000Y-95000000D03*
X134500000Y-93000000D03*
D10*
X134500000Y-91000000D03*
G04 #@! TD*
D12*
G04 #@! TO.C,KeyLowC*
X187960000Y-115570000D03*
D13*
X190500000Y-110490000D03*
X184150000Y-113030000D03*
G04 #@! TD*
D14*
G04 #@! TO.C,KeyEb*
X179000000Y-117500000D03*
D15*
X179000000Y-114960000D03*
G04 #@! TD*
D12*
G04 #@! TO.C,KeyD*
X170180000Y-115570000D03*
D13*
X172720000Y-110490000D03*
X166370000Y-113030000D03*
G04 #@! TD*
D12*
G04 #@! TO.C,KeyE*
X152400000Y-115570000D03*
D13*
X154940000Y-110490000D03*
X148590000Y-113030000D03*
G04 #@! TD*
G04 #@! TO.C,KeyF*
X130810000Y-113030000D03*
X137160000Y-110490000D03*
D12*
X134620000Y-115570000D03*
G04 #@! TD*
G04 #@! TO.C,KeyLowCs*
X187960000Y-73025000D03*
D13*
X185420000Y-78105000D03*
X191770000Y-75565000D03*
G04 #@! TD*
D15*
G04 #@! TO.C,KeyGs*
X179070000Y-73660000D03*
D14*
X179070000Y-71120000D03*
G04 #@! TD*
D13*
G04 #@! TO.C,KeyG*
X173990000Y-75565000D03*
X167640000Y-78105000D03*
D12*
X170180000Y-73025000D03*
G04 #@! TD*
G04 #@! TO.C,KeyA*
X152400000Y-73025000D03*
D13*
X149860000Y-78105000D03*
X156210000Y-75565000D03*
G04 #@! TD*
G04 #@! TO.C,KeyB*
X138430000Y-75565000D03*
X132080000Y-78105000D03*
D12*
X134620000Y-73025000D03*
G04 #@! TD*
D14*
G04 #@! TO.C,KeyDown*
X154000000Y-91000000D03*
D15*
X154000000Y-88460000D03*
G04 #@! TD*
D13*
G04 #@! TO.C,KeyUp*
X147955000Y-92075000D03*
X141605000Y-89535000D03*
D12*
X144145000Y-94615000D03*
G04 #@! TD*
M02*
