G04 #@! TF.GenerationSoftware,KiCad,Pcbnew,(5.1.8)-1*
G04 #@! TF.CreationDate,2021-12-03T11:16:52+09:00*
G04 #@! TF.ProjectId,windsynth,77696e64-7379-46e7-9468-2e6b69636164,rev?*
G04 #@! TF.SameCoordinates,Original*
G04 #@! TF.FileFunction,Copper,L2,Bot*
G04 #@! TF.FilePolarity,Positive*
%FSLAX46Y46*%
G04 Gerber Fmt 4.6, Leading zero omitted, Abs format (unit mm)*
G04 Created by KiCad (PCBNEW (5.1.8)-1) date 2021-12-03 11:16:52*
%MOMM*%
%LPD*%
G01*
G04 APERTURE LIST*
G04 #@! TA.AperFunction,ComponentPad*
%ADD10R,1.350000X1.350000*%
G04 #@! TD*
G04 #@! TA.AperFunction,ComponentPad*
%ADD11O,1.350000X1.350000*%
G04 #@! TD*
G04 #@! TA.AperFunction,ComponentPad*
%ADD12C,4.200000*%
G04 #@! TD*
G04 #@! TA.AperFunction,ComponentPad*
%ADD13C,2.000000*%
G04 #@! TD*
G04 #@! TA.AperFunction,ComponentPad*
%ADD14R,1.700000X1.700000*%
G04 #@! TD*
G04 #@! TA.AperFunction,ComponentPad*
%ADD15O,1.700000X1.700000*%
G04 #@! TD*
G04 #@! TA.AperFunction,ViaPad*
%ADD16C,2.400000*%
G04 #@! TD*
G04 #@! TA.AperFunction,ViaPad*
%ADD17C,0.800000*%
G04 #@! TD*
G04 #@! TA.AperFunction,ViaPad*
%ADD18C,2.200000*%
G04 #@! TD*
G04 #@! TA.AperFunction,Conductor*
%ADD19C,0.250000*%
G04 #@! TD*
G04 #@! TA.AperFunction,Conductor*
%ADD20C,0.254000*%
G04 #@! TD*
G04 #@! TA.AperFunction,Conductor*
%ADD21C,0.100000*%
G04 #@! TD*
G04 APERTURE END LIST*
D10*
G04 #@! TO.P,I2C,1*
G04 #@! TO.N,GND*
X188000000Y-97155000D03*
D11*
G04 #@! TO.P,I2C,2*
G04 #@! TO.N,+3V3*
X188000000Y-95155000D03*
G04 #@! TO.P,I2C,3*
G04 #@! TO.N,Net-(J1-Pad3)*
X188000000Y-93155000D03*
G04 #@! TO.P,I2C,4*
G04 #@! TO.N,Net-(J1-Pad4)*
X188000000Y-91155000D03*
G04 #@! TD*
G04 #@! TO.P,I2C,4*
G04 #@! TO.N,Net-(J1-Pad4)*
X134500000Y-97000000D03*
G04 #@! TO.P,I2C,3*
G04 #@! TO.N,Net-(J1-Pad3)*
X134500000Y-95000000D03*
G04 #@! TO.P,I2C,2*
G04 #@! TO.N,+3V3*
X134500000Y-93000000D03*
D10*
G04 #@! TO.P,I2C,1*
G04 #@! TO.N,GND*
X134500000Y-91000000D03*
G04 #@! TD*
D12*
G04 #@! TO.P,KeyLowC,3*
G04 #@! TO.N,N/C*
X187960000Y-115570000D03*
D13*
G04 #@! TO.P,KeyLowC,2*
G04 #@! TO.N,Net-(SW1-Pad2)*
X190500000Y-110490000D03*
G04 #@! TO.P,KeyLowC,1*
G04 #@! TO.N,GND*
X184150000Y-113030000D03*
G04 #@! TD*
D14*
G04 #@! TO.P,KeyEb,1*
G04 #@! TO.N,GND*
X179000000Y-117500000D03*
D15*
G04 #@! TO.P,KeyEb,2*
G04 #@! TO.N,Net-(SW2-Pad2)*
X179000000Y-114960000D03*
G04 #@! TD*
D12*
G04 #@! TO.P,KeyD,3*
G04 #@! TO.N,N/C*
X170180000Y-115570000D03*
D13*
G04 #@! TO.P,KeyD,2*
G04 #@! TO.N,Net-(SW3-Pad2)*
X172720000Y-110490000D03*
G04 #@! TO.P,KeyD,1*
G04 #@! TO.N,GND*
X166370000Y-113030000D03*
G04 #@! TD*
D12*
G04 #@! TO.P,KeyE,3*
G04 #@! TO.N,N/C*
X152400000Y-115570000D03*
D13*
G04 #@! TO.P,KeyE,2*
G04 #@! TO.N,Net-(SW4-Pad2)*
X154940000Y-110490000D03*
G04 #@! TO.P,KeyE,1*
G04 #@! TO.N,GND*
X148590000Y-113030000D03*
G04 #@! TD*
G04 #@! TO.P,KeyF,1*
G04 #@! TO.N,GND*
X130810000Y-113030000D03*
G04 #@! TO.P,KeyF,2*
G04 #@! TO.N,Net-(SW5-Pad2)*
X137160000Y-110490000D03*
D12*
G04 #@! TO.P,KeyF,3*
G04 #@! TO.N,N/C*
X134620000Y-115570000D03*
G04 #@! TD*
G04 #@! TO.P,KeyLowCs,3*
G04 #@! TO.N,N/C*
X187960000Y-73025000D03*
D13*
G04 #@! TO.P,KeyLowCs,2*
G04 #@! TO.N,Net-(SW6-Pad2)*
X185420000Y-78105000D03*
G04 #@! TO.P,KeyLowCs,1*
G04 #@! TO.N,GND*
X191770000Y-75565000D03*
G04 #@! TD*
D15*
G04 #@! TO.P,KeyGs,2*
G04 #@! TO.N,Net-(SW7-Pad2)*
X179070000Y-73660000D03*
D14*
G04 #@! TO.P,KeyGs,1*
G04 #@! TO.N,GND*
X179070000Y-71120000D03*
G04 #@! TD*
D13*
G04 #@! TO.P,KeyG,1*
G04 #@! TO.N,GND*
X173990000Y-75565000D03*
G04 #@! TO.P,KeyG,2*
G04 #@! TO.N,Net-(SW8-Pad2)*
X167640000Y-78105000D03*
D12*
G04 #@! TO.P,KeyG,3*
G04 #@! TO.N,N/C*
X170180000Y-73025000D03*
G04 #@! TD*
G04 #@! TO.P,KeyA,3*
G04 #@! TO.N,N/C*
X152400000Y-73025000D03*
D13*
G04 #@! TO.P,KeyA,2*
G04 #@! TO.N,Net-(SW9-Pad2)*
X149860000Y-78105000D03*
G04 #@! TO.P,KeyA,1*
G04 #@! TO.N,GND*
X156210000Y-75565000D03*
G04 #@! TD*
G04 #@! TO.P,KeyB,1*
G04 #@! TO.N,GND*
X138430000Y-75565000D03*
G04 #@! TO.P,KeyB,2*
G04 #@! TO.N,Net-(SW10-Pad2)*
X132080000Y-78105000D03*
D12*
G04 #@! TO.P,KeyB,3*
G04 #@! TO.N,N/C*
X134620000Y-73025000D03*
G04 #@! TD*
D14*
G04 #@! TO.P,KeyDown,1*
G04 #@! TO.N,GND*
X154000000Y-91000000D03*
D15*
G04 #@! TO.P,KeyDown,2*
G04 #@! TO.N,Net-(SW11-Pad2)*
X154000000Y-88460000D03*
G04 #@! TD*
D13*
G04 #@! TO.P,KeyUp,1*
G04 #@! TO.N,GND*
X147955000Y-92075000D03*
G04 #@! TO.P,KeyUp,2*
G04 #@! TO.N,Net-(SW12-Pad2)*
X141605000Y-89535000D03*
D12*
G04 #@! TO.P,KeyUp,3*
G04 #@! TO.N,N/C*
X144145000Y-94615000D03*
G04 #@! TD*
G04 #@! TO.P,MCP23017,1*
G04 #@! TO.N,Net-(U1-Pad1)*
G04 #@! TA.AperFunction,SMDPad,CuDef*
G36*
G01*
X157095000Y-88825000D02*
X157395000Y-88825000D01*
G75*
G02*
X157545000Y-88975000I0J-150000D01*
G01*
X157545000Y-90725000D01*
G75*
G02*
X157395000Y-90875000I-150000J0D01*
G01*
X157095000Y-90875000D01*
G75*
G02*
X156945000Y-90725000I0J150000D01*
G01*
X156945000Y-88975000D01*
G75*
G02*
X157095000Y-88825000I150000J0D01*
G01*
G37*
G04 #@! TD.AperFunction*
G04 #@! TO.P,MCP23017,2*
G04 #@! TO.N,Net-(SW6-Pad2)*
G04 #@! TA.AperFunction,SMDPad,CuDef*
G36*
G01*
X158365000Y-88825000D02*
X158665000Y-88825000D01*
G75*
G02*
X158815000Y-88975000I0J-150000D01*
G01*
X158815000Y-90725000D01*
G75*
G02*
X158665000Y-90875000I-150000J0D01*
G01*
X158365000Y-90875000D01*
G75*
G02*
X158215000Y-90725000I0J150000D01*
G01*
X158215000Y-88975000D01*
G75*
G02*
X158365000Y-88825000I150000J0D01*
G01*
G37*
G04 #@! TD.AperFunction*
G04 #@! TO.P,MCP23017,3*
G04 #@! TO.N,Net-(SW7-Pad2)*
G04 #@! TA.AperFunction,SMDPad,CuDef*
G36*
G01*
X159635000Y-88825000D02*
X159935000Y-88825000D01*
G75*
G02*
X160085000Y-88975000I0J-150000D01*
G01*
X160085000Y-90725000D01*
G75*
G02*
X159935000Y-90875000I-150000J0D01*
G01*
X159635000Y-90875000D01*
G75*
G02*
X159485000Y-90725000I0J150000D01*
G01*
X159485000Y-88975000D01*
G75*
G02*
X159635000Y-88825000I150000J0D01*
G01*
G37*
G04 #@! TD.AperFunction*
G04 #@! TO.P,MCP23017,4*
G04 #@! TO.N,Net-(SW8-Pad2)*
G04 #@! TA.AperFunction,SMDPad,CuDef*
G36*
G01*
X160905000Y-88825000D02*
X161205000Y-88825000D01*
G75*
G02*
X161355000Y-88975000I0J-150000D01*
G01*
X161355000Y-90725000D01*
G75*
G02*
X161205000Y-90875000I-150000J0D01*
G01*
X160905000Y-90875000D01*
G75*
G02*
X160755000Y-90725000I0J150000D01*
G01*
X160755000Y-88975000D01*
G75*
G02*
X160905000Y-88825000I150000J0D01*
G01*
G37*
G04 #@! TD.AperFunction*
G04 #@! TO.P,MCP23017,5*
G04 #@! TO.N,Net-(SW9-Pad2)*
G04 #@! TA.AperFunction,SMDPad,CuDef*
G36*
G01*
X162175000Y-88825000D02*
X162475000Y-88825000D01*
G75*
G02*
X162625000Y-88975000I0J-150000D01*
G01*
X162625000Y-90725000D01*
G75*
G02*
X162475000Y-90875000I-150000J0D01*
G01*
X162175000Y-90875000D01*
G75*
G02*
X162025000Y-90725000I0J150000D01*
G01*
X162025000Y-88975000D01*
G75*
G02*
X162175000Y-88825000I150000J0D01*
G01*
G37*
G04 #@! TD.AperFunction*
G04 #@! TO.P,MCP23017,6*
G04 #@! TO.N,Net-(SW10-Pad2)*
G04 #@! TA.AperFunction,SMDPad,CuDef*
G36*
G01*
X163445000Y-88825000D02*
X163745000Y-88825000D01*
G75*
G02*
X163895000Y-88975000I0J-150000D01*
G01*
X163895000Y-90725000D01*
G75*
G02*
X163745000Y-90875000I-150000J0D01*
G01*
X163445000Y-90875000D01*
G75*
G02*
X163295000Y-90725000I0J150000D01*
G01*
X163295000Y-88975000D01*
G75*
G02*
X163445000Y-88825000I150000J0D01*
G01*
G37*
G04 #@! TD.AperFunction*
G04 #@! TO.P,MCP23017,7*
G04 #@! TO.N,Net-(SW11-Pad2)*
G04 #@! TA.AperFunction,SMDPad,CuDef*
G36*
G01*
X164715000Y-88825000D02*
X165015000Y-88825000D01*
G75*
G02*
X165165000Y-88975000I0J-150000D01*
G01*
X165165000Y-90725000D01*
G75*
G02*
X165015000Y-90875000I-150000J0D01*
G01*
X164715000Y-90875000D01*
G75*
G02*
X164565000Y-90725000I0J150000D01*
G01*
X164565000Y-88975000D01*
G75*
G02*
X164715000Y-88825000I150000J0D01*
G01*
G37*
G04 #@! TD.AperFunction*
G04 #@! TO.P,MCP23017,8*
G04 #@! TO.N,Net-(SW12-Pad2)*
G04 #@! TA.AperFunction,SMDPad,CuDef*
G36*
G01*
X165985000Y-88825000D02*
X166285000Y-88825000D01*
G75*
G02*
X166435000Y-88975000I0J-150000D01*
G01*
X166435000Y-90725000D01*
G75*
G02*
X166285000Y-90875000I-150000J0D01*
G01*
X165985000Y-90875000D01*
G75*
G02*
X165835000Y-90725000I0J150000D01*
G01*
X165835000Y-88975000D01*
G75*
G02*
X165985000Y-88825000I150000J0D01*
G01*
G37*
G04 #@! TD.AperFunction*
G04 #@! TO.P,MCP23017,9*
G04 #@! TO.N,+3V3*
G04 #@! TA.AperFunction,SMDPad,CuDef*
G36*
G01*
X167255000Y-88825000D02*
X167555000Y-88825000D01*
G75*
G02*
X167705000Y-88975000I0J-150000D01*
G01*
X167705000Y-90725000D01*
G75*
G02*
X167555000Y-90875000I-150000J0D01*
G01*
X167255000Y-90875000D01*
G75*
G02*
X167105000Y-90725000I0J150000D01*
G01*
X167105000Y-88975000D01*
G75*
G02*
X167255000Y-88825000I150000J0D01*
G01*
G37*
G04 #@! TD.AperFunction*
G04 #@! TO.P,MCP23017,10*
G04 #@! TO.N,GND*
G04 #@! TA.AperFunction,SMDPad,CuDef*
G36*
G01*
X168525000Y-88825000D02*
X168825000Y-88825000D01*
G75*
G02*
X168975000Y-88975000I0J-150000D01*
G01*
X168975000Y-90725000D01*
G75*
G02*
X168825000Y-90875000I-150000J0D01*
G01*
X168525000Y-90875000D01*
G75*
G02*
X168375000Y-90725000I0J150000D01*
G01*
X168375000Y-88975000D01*
G75*
G02*
X168525000Y-88825000I150000J0D01*
G01*
G37*
G04 #@! TD.AperFunction*
G04 #@! TO.P,MCP23017,11*
G04 #@! TO.N,Net-(U1-Pad11)*
G04 #@! TA.AperFunction,SMDPad,CuDef*
G36*
G01*
X169795000Y-88825000D02*
X170095000Y-88825000D01*
G75*
G02*
X170245000Y-88975000I0J-150000D01*
G01*
X170245000Y-90725000D01*
G75*
G02*
X170095000Y-90875000I-150000J0D01*
G01*
X169795000Y-90875000D01*
G75*
G02*
X169645000Y-90725000I0J150000D01*
G01*
X169645000Y-88975000D01*
G75*
G02*
X169795000Y-88825000I150000J0D01*
G01*
G37*
G04 #@! TD.AperFunction*
G04 #@! TO.P,MCP23017,12*
G04 #@! TO.N,Net-(J1-Pad4)*
G04 #@! TA.AperFunction,SMDPad,CuDef*
G36*
G01*
X171065000Y-88825000D02*
X171365000Y-88825000D01*
G75*
G02*
X171515000Y-88975000I0J-150000D01*
G01*
X171515000Y-90725000D01*
G75*
G02*
X171365000Y-90875000I-150000J0D01*
G01*
X171065000Y-90875000D01*
G75*
G02*
X170915000Y-90725000I0J150000D01*
G01*
X170915000Y-88975000D01*
G75*
G02*
X171065000Y-88825000I150000J0D01*
G01*
G37*
G04 #@! TD.AperFunction*
G04 #@! TO.P,MCP23017,13*
G04 #@! TO.N,Net-(J1-Pad3)*
G04 #@! TA.AperFunction,SMDPad,CuDef*
G36*
G01*
X172335000Y-88825000D02*
X172635000Y-88825000D01*
G75*
G02*
X172785000Y-88975000I0J-150000D01*
G01*
X172785000Y-90725000D01*
G75*
G02*
X172635000Y-90875000I-150000J0D01*
G01*
X172335000Y-90875000D01*
G75*
G02*
X172185000Y-90725000I0J150000D01*
G01*
X172185000Y-88975000D01*
G75*
G02*
X172335000Y-88825000I150000J0D01*
G01*
G37*
G04 #@! TD.AperFunction*
G04 #@! TO.P,MCP23017,14*
G04 #@! TO.N,Net-(U1-Pad14)*
G04 #@! TA.AperFunction,SMDPad,CuDef*
G36*
G01*
X173605000Y-88825000D02*
X173905000Y-88825000D01*
G75*
G02*
X174055000Y-88975000I0J-150000D01*
G01*
X174055000Y-90725000D01*
G75*
G02*
X173905000Y-90875000I-150000J0D01*
G01*
X173605000Y-90875000D01*
G75*
G02*
X173455000Y-90725000I0J150000D01*
G01*
X173455000Y-88975000D01*
G75*
G02*
X173605000Y-88825000I150000J0D01*
G01*
G37*
G04 #@! TD.AperFunction*
G04 #@! TO.P,MCP23017,15*
G04 #@! TO.N,GND*
G04 #@! TA.AperFunction,SMDPad,CuDef*
G36*
G01*
X173605000Y-98125000D02*
X173905000Y-98125000D01*
G75*
G02*
X174055000Y-98275000I0J-150000D01*
G01*
X174055000Y-100025000D01*
G75*
G02*
X173905000Y-100175000I-150000J0D01*
G01*
X173605000Y-100175000D01*
G75*
G02*
X173455000Y-100025000I0J150000D01*
G01*
X173455000Y-98275000D01*
G75*
G02*
X173605000Y-98125000I150000J0D01*
G01*
G37*
G04 #@! TD.AperFunction*
G04 #@! TO.P,MCP23017,16*
G04 #@! TA.AperFunction,SMDPad,CuDef*
G36*
G01*
X172335000Y-98125000D02*
X172635000Y-98125000D01*
G75*
G02*
X172785000Y-98275000I0J-150000D01*
G01*
X172785000Y-100025000D01*
G75*
G02*
X172635000Y-100175000I-150000J0D01*
G01*
X172335000Y-100175000D01*
G75*
G02*
X172185000Y-100025000I0J150000D01*
G01*
X172185000Y-98275000D01*
G75*
G02*
X172335000Y-98125000I150000J0D01*
G01*
G37*
G04 #@! TD.AperFunction*
G04 #@! TO.P,MCP23017,17*
G04 #@! TA.AperFunction,SMDPad,CuDef*
G36*
G01*
X171065000Y-98125000D02*
X171365000Y-98125000D01*
G75*
G02*
X171515000Y-98275000I0J-150000D01*
G01*
X171515000Y-100025000D01*
G75*
G02*
X171365000Y-100175000I-150000J0D01*
G01*
X171065000Y-100175000D01*
G75*
G02*
X170915000Y-100025000I0J150000D01*
G01*
X170915000Y-98275000D01*
G75*
G02*
X171065000Y-98125000I150000J0D01*
G01*
G37*
G04 #@! TD.AperFunction*
G04 #@! TO.P,MCP23017,18*
G04 #@! TO.N,+3V3*
G04 #@! TA.AperFunction,SMDPad,CuDef*
G36*
G01*
X169795000Y-98125000D02*
X170095000Y-98125000D01*
G75*
G02*
X170245000Y-98275000I0J-150000D01*
G01*
X170245000Y-100025000D01*
G75*
G02*
X170095000Y-100175000I-150000J0D01*
G01*
X169795000Y-100175000D01*
G75*
G02*
X169645000Y-100025000I0J150000D01*
G01*
X169645000Y-98275000D01*
G75*
G02*
X169795000Y-98125000I150000J0D01*
G01*
G37*
G04 #@! TD.AperFunction*
G04 #@! TO.P,MCP23017,19*
G04 #@! TO.N,Net-(U1-Pad19)*
G04 #@! TA.AperFunction,SMDPad,CuDef*
G36*
G01*
X168525000Y-98125000D02*
X168825000Y-98125000D01*
G75*
G02*
X168975000Y-98275000I0J-150000D01*
G01*
X168975000Y-100025000D01*
G75*
G02*
X168825000Y-100175000I-150000J0D01*
G01*
X168525000Y-100175000D01*
G75*
G02*
X168375000Y-100025000I0J150000D01*
G01*
X168375000Y-98275000D01*
G75*
G02*
X168525000Y-98125000I150000J0D01*
G01*
G37*
G04 #@! TD.AperFunction*
G04 #@! TO.P,MCP23017,20*
G04 #@! TO.N,Net-(U1-Pad20)*
G04 #@! TA.AperFunction,SMDPad,CuDef*
G36*
G01*
X167255000Y-98125000D02*
X167555000Y-98125000D01*
G75*
G02*
X167705000Y-98275000I0J-150000D01*
G01*
X167705000Y-100025000D01*
G75*
G02*
X167555000Y-100175000I-150000J0D01*
G01*
X167255000Y-100175000D01*
G75*
G02*
X167105000Y-100025000I0J150000D01*
G01*
X167105000Y-98275000D01*
G75*
G02*
X167255000Y-98125000I150000J0D01*
G01*
G37*
G04 #@! TD.AperFunction*
G04 #@! TO.P,MCP23017,21*
G04 #@! TO.N,Net-(SW1-Pad2)*
G04 #@! TA.AperFunction,SMDPad,CuDef*
G36*
G01*
X165985000Y-98125000D02*
X166285000Y-98125000D01*
G75*
G02*
X166435000Y-98275000I0J-150000D01*
G01*
X166435000Y-100025000D01*
G75*
G02*
X166285000Y-100175000I-150000J0D01*
G01*
X165985000Y-100175000D01*
G75*
G02*
X165835000Y-100025000I0J150000D01*
G01*
X165835000Y-98275000D01*
G75*
G02*
X165985000Y-98125000I150000J0D01*
G01*
G37*
G04 #@! TD.AperFunction*
G04 #@! TO.P,MCP23017,22*
G04 #@! TO.N,Net-(SW2-Pad2)*
G04 #@! TA.AperFunction,SMDPad,CuDef*
G36*
G01*
X164715000Y-98125000D02*
X165015000Y-98125000D01*
G75*
G02*
X165165000Y-98275000I0J-150000D01*
G01*
X165165000Y-100025000D01*
G75*
G02*
X165015000Y-100175000I-150000J0D01*
G01*
X164715000Y-100175000D01*
G75*
G02*
X164565000Y-100025000I0J150000D01*
G01*
X164565000Y-98275000D01*
G75*
G02*
X164715000Y-98125000I150000J0D01*
G01*
G37*
G04 #@! TD.AperFunction*
G04 #@! TO.P,MCP23017,23*
G04 #@! TO.N,Net-(SW3-Pad2)*
G04 #@! TA.AperFunction,SMDPad,CuDef*
G36*
G01*
X163445000Y-98125000D02*
X163745000Y-98125000D01*
G75*
G02*
X163895000Y-98275000I0J-150000D01*
G01*
X163895000Y-100025000D01*
G75*
G02*
X163745000Y-100175000I-150000J0D01*
G01*
X163445000Y-100175000D01*
G75*
G02*
X163295000Y-100025000I0J150000D01*
G01*
X163295000Y-98275000D01*
G75*
G02*
X163445000Y-98125000I150000J0D01*
G01*
G37*
G04 #@! TD.AperFunction*
G04 #@! TO.P,MCP23017,24*
G04 #@! TO.N,Net-(SW4-Pad2)*
G04 #@! TA.AperFunction,SMDPad,CuDef*
G36*
G01*
X162175000Y-98125000D02*
X162475000Y-98125000D01*
G75*
G02*
X162625000Y-98275000I0J-150000D01*
G01*
X162625000Y-100025000D01*
G75*
G02*
X162475000Y-100175000I-150000J0D01*
G01*
X162175000Y-100175000D01*
G75*
G02*
X162025000Y-100025000I0J150000D01*
G01*
X162025000Y-98275000D01*
G75*
G02*
X162175000Y-98125000I150000J0D01*
G01*
G37*
G04 #@! TD.AperFunction*
G04 #@! TO.P,MCP23017,25*
G04 #@! TO.N,Net-(SW5-Pad2)*
G04 #@! TA.AperFunction,SMDPad,CuDef*
G36*
G01*
X160905000Y-98125000D02*
X161205000Y-98125000D01*
G75*
G02*
X161355000Y-98275000I0J-150000D01*
G01*
X161355000Y-100025000D01*
G75*
G02*
X161205000Y-100175000I-150000J0D01*
G01*
X160905000Y-100175000D01*
G75*
G02*
X160755000Y-100025000I0J150000D01*
G01*
X160755000Y-98275000D01*
G75*
G02*
X160905000Y-98125000I150000J0D01*
G01*
G37*
G04 #@! TD.AperFunction*
G04 #@! TO.P,MCP23017,26*
G04 #@! TO.N,Net-(U1-Pad26)*
G04 #@! TA.AperFunction,SMDPad,CuDef*
G36*
G01*
X159635000Y-98125000D02*
X159935000Y-98125000D01*
G75*
G02*
X160085000Y-98275000I0J-150000D01*
G01*
X160085000Y-100025000D01*
G75*
G02*
X159935000Y-100175000I-150000J0D01*
G01*
X159635000Y-100175000D01*
G75*
G02*
X159485000Y-100025000I0J150000D01*
G01*
X159485000Y-98275000D01*
G75*
G02*
X159635000Y-98125000I150000J0D01*
G01*
G37*
G04 #@! TD.AperFunction*
G04 #@! TO.P,MCP23017,27*
G04 #@! TO.N,Net-(U1-Pad27)*
G04 #@! TA.AperFunction,SMDPad,CuDef*
G36*
G01*
X158365000Y-98125000D02*
X158665000Y-98125000D01*
G75*
G02*
X158815000Y-98275000I0J-150000D01*
G01*
X158815000Y-100025000D01*
G75*
G02*
X158665000Y-100175000I-150000J0D01*
G01*
X158365000Y-100175000D01*
G75*
G02*
X158215000Y-100025000I0J150000D01*
G01*
X158215000Y-98275000D01*
G75*
G02*
X158365000Y-98125000I150000J0D01*
G01*
G37*
G04 #@! TD.AperFunction*
G04 #@! TO.P,MCP23017,28*
G04 #@! TO.N,Net-(U1-Pad28)*
G04 #@! TA.AperFunction,SMDPad,CuDef*
G36*
G01*
X157095000Y-98125000D02*
X157395000Y-98125000D01*
G75*
G02*
X157545000Y-98275000I0J-150000D01*
G01*
X157545000Y-100025000D01*
G75*
G02*
X157395000Y-100175000I-150000J0D01*
G01*
X157095000Y-100175000D01*
G75*
G02*
X156945000Y-100025000I0J150000D01*
G01*
X156945000Y-98275000D01*
G75*
G02*
X157095000Y-98125000I150000J0D01*
G01*
G37*
G04 #@! TD.AperFunction*
G04 #@! TD*
D16*
G04 #@! TO.N,*
X182500000Y-86500000D03*
X182500000Y-102500000D03*
X128500000Y-86500000D03*
X128500000Y-102500000D03*
X140500000Y-86500000D03*
X140500000Y-102500000D03*
X194000000Y-86500000D03*
G04 #@! TO.N,GND*
X194000000Y-102500000D03*
D17*
G04 #@! TO.N,Net-(J1-Pad4)*
X171000000Y-92000000D03*
G04 #@! TO.N,Net-(J1-Pad3)*
X169500000Y-93500000D03*
D18*
G04 #@! TO.N,GND*
X191500000Y-68500000D03*
X176500000Y-83500000D03*
X171500000Y-68500000D03*
X184000000Y-81500000D03*
X191500000Y-81500000D03*
X181500000Y-68500000D03*
X161500000Y-68500000D03*
X151500000Y-68500000D03*
X141500000Y-68500000D03*
X131500000Y-68500000D03*
D17*
G04 #@! TO.N,+3V3*
X170000000Y-101500000D03*
X168000000Y-88000000D03*
X167500000Y-92000000D03*
G04 #@! TO.N,Net-(SW2-Pad2)*
X165000000Y-107500000D03*
G04 #@! TO.N,Net-(SW6-Pad2)*
X158500000Y-87000000D03*
G04 #@! TO.N,Net-(SW7-Pad2)*
X160000000Y-86000000D03*
G04 #@! TO.N,Net-(SW8-Pad2)*
X161000000Y-83000000D03*
G04 #@! TO.N,Net-(SW9-Pad2)*
X162000000Y-84000000D03*
G04 #@! TO.N,Net-(SW10-Pad2)*
X163500000Y-85000000D03*
G04 #@! TO.N,Net-(SW11-Pad2)*
X164500000Y-88000000D03*
G04 #@! TO.N,Net-(SW12-Pad2)*
X166000000Y-93500000D03*
G04 #@! TD*
D19*
G04 #@! TO.N,Net-(J1-Pad4)*
X171215000Y-88285000D02*
X171215000Y-89850000D01*
X172000000Y-87500000D02*
X171215000Y-88285000D01*
X174500000Y-87500000D02*
X172000000Y-87500000D01*
X178155000Y-91155000D02*
X174500000Y-87500000D01*
X171000000Y-90065000D02*
X171215000Y-89850000D01*
X171000000Y-92000000D02*
X171000000Y-90065000D01*
X178155000Y-91155000D02*
X188000000Y-91155000D01*
G04 #@! TO.N,Net-(J1-Pad3)*
X172485000Y-91985000D02*
X172485000Y-89850000D01*
X173655000Y-93155000D02*
X172485000Y-91985000D01*
X170970000Y-93500000D02*
X172485000Y-91985000D01*
X169500000Y-93500000D02*
X170970000Y-93500000D01*
X173655000Y-93155000D02*
X188000000Y-93155000D01*
G04 #@! TO.N,GND*
X178435000Y-71120000D02*
X179070000Y-71120000D01*
X173990000Y-75565000D02*
X178435000Y-71120000D01*
X179070000Y-71120000D02*
X180120000Y-71120000D01*
X184565000Y-75565000D02*
X191770000Y-75565000D01*
X180120000Y-71120000D02*
X184565000Y-75565000D01*
X173990000Y-75565000D02*
X156210000Y-75565000D01*
X156210000Y-75565000D02*
X138430000Y-75565000D01*
X130810000Y-113030000D02*
X148590000Y-113030000D01*
X148590000Y-113030000D02*
X166370000Y-113030000D01*
X166370000Y-113030000D02*
X166370000Y-117870000D01*
X166370000Y-117870000D02*
X167500000Y-119000000D01*
X177500000Y-119000000D02*
X179000000Y-117500000D01*
X167500000Y-119000000D02*
X177500000Y-119000000D01*
X179680000Y-117500000D02*
X184150000Y-113030000D01*
X179000000Y-117500000D02*
X179680000Y-117500000D01*
X184150000Y-113030000D02*
X192470000Y-113030000D01*
X192470000Y-113030000D02*
X193500000Y-112000000D01*
X173755000Y-97745000D02*
X173755000Y-99150000D01*
X171215000Y-99150000D02*
X171215000Y-97785000D01*
X174250000Y-97250000D02*
X173755000Y-97745000D01*
X171215000Y-97785000D02*
X171750000Y-97250000D01*
X174345000Y-97155000D02*
X174250000Y-97250000D01*
X172485000Y-97515000D02*
X172750000Y-97250000D01*
X172750000Y-97250000D02*
X174250000Y-97250000D01*
X172485000Y-99150000D02*
X172485000Y-97515000D01*
X171750000Y-97250000D02*
X172750000Y-97250000D01*
X168675000Y-89850000D02*
X168675000Y-89325000D01*
X173990000Y-84010000D02*
X173990000Y-75565000D01*
X168675000Y-89325000D02*
X173990000Y-84010000D01*
X134500000Y-91000000D02*
X138500000Y-87000000D01*
X191770000Y-94385000D02*
X191770000Y-75565000D01*
X149030000Y-91000000D02*
X147955000Y-92075000D01*
X154000000Y-91000000D02*
X149030000Y-91000000D01*
X138500000Y-75635000D02*
X138430000Y-75565000D01*
X138500000Y-87000000D02*
X138500000Y-75635000D01*
X189000000Y-97155000D02*
X191770000Y-94385000D01*
X188000000Y-97155000D02*
X189000000Y-97155000D01*
X188000000Y-97155000D02*
X174345000Y-97155000D01*
X134500000Y-91000000D02*
X136500000Y-91000000D01*
X137575000Y-92075000D02*
X147955000Y-92075000D01*
X136500000Y-91000000D02*
X137575000Y-92075000D01*
X193500000Y-112000000D02*
X193500000Y-107000000D01*
X193500000Y-107000000D02*
X191500000Y-107000000D01*
X188000000Y-103500000D02*
X188000000Y-97155000D01*
X191500000Y-107000000D02*
X188000000Y-103500000D01*
G04 #@! TO.N,+3V3*
X169945000Y-97055000D02*
X169945000Y-99150000D01*
X171845000Y-95155000D02*
X169945000Y-97055000D01*
X170000000Y-99205000D02*
X169945000Y-99150000D01*
X170000000Y-101500000D02*
X170000000Y-99205000D01*
X168000000Y-88000000D02*
X167000000Y-89000000D01*
X167405000Y-89405000D02*
X167405000Y-89850000D01*
X167000000Y-89000000D02*
X167405000Y-89405000D01*
X167500000Y-89945000D02*
X167405000Y-89850000D01*
X167500000Y-92000000D02*
X167500000Y-89945000D01*
X171845000Y-95155000D02*
X188000000Y-95155000D01*
G04 #@! TO.N,Net-(SW1-Pad2)*
X190500000Y-110490000D02*
X176490000Y-110490000D01*
X176490000Y-110490000D02*
X174500000Y-108500000D01*
X174500000Y-108500000D02*
X167500000Y-108500000D01*
X166135000Y-107135000D02*
X166135000Y-99150000D01*
X167500000Y-108500000D02*
X166135000Y-107135000D01*
G04 #@! TO.N,Net-(SW2-Pad2)*
X165000000Y-99285000D02*
X164865000Y-99150000D01*
X165000000Y-107500000D02*
X165000000Y-99285000D01*
G04 #@! TO.N,Net-(SW3-Pad2)*
X172720000Y-110490000D02*
X164990000Y-110490000D01*
X163595000Y-109095000D02*
X163595000Y-99150000D01*
X164990000Y-110490000D02*
X163595000Y-109095000D01*
G04 #@! TO.N,Net-(SW4-Pad2)*
X154940000Y-110490000D02*
X160510000Y-110490000D01*
X162325000Y-108675000D02*
X162325000Y-99150000D01*
X160510000Y-110490000D02*
X162325000Y-108675000D01*
G04 #@! TO.N,Net-(SW5-Pad2)*
X137160000Y-110490000D02*
X151010000Y-110490000D01*
X151010000Y-110490000D02*
X153000000Y-108500000D01*
X153000000Y-108500000D02*
X159000000Y-108500000D01*
X161055000Y-106445000D02*
X161055000Y-99150000D01*
X159000000Y-108500000D02*
X161055000Y-106445000D01*
G04 #@! TO.N,Net-(SW6-Pad2)*
X158500000Y-89835000D02*
X158515000Y-89850000D01*
X158500000Y-87000000D02*
X158500000Y-89835000D01*
G04 #@! TO.N,Net-(SW7-Pad2)*
X160000000Y-89635000D02*
X159785000Y-89850000D01*
X160000000Y-86000000D02*
X160000000Y-89635000D01*
G04 #@! TO.N,Net-(SW8-Pad2)*
X161000000Y-89795000D02*
X161055000Y-89850000D01*
X161000000Y-83000000D02*
X161000000Y-89795000D01*
G04 #@! TO.N,Net-(SW9-Pad2)*
X162000000Y-89525000D02*
X162325000Y-89850000D01*
X162000000Y-84000000D02*
X162000000Y-89525000D01*
G04 #@! TO.N,Net-(SW10-Pad2)*
X163500000Y-89755000D02*
X163595000Y-89850000D01*
X163500000Y-85000000D02*
X163500000Y-89755000D01*
G04 #@! TO.N,Net-(SW11-Pad2)*
X164500000Y-88000000D02*
X165000000Y-88500000D01*
X164865000Y-88635000D02*
X164865000Y-89850000D01*
X165000000Y-88500000D02*
X164865000Y-88635000D01*
G04 #@! TO.N,Net-(SW12-Pad2)*
X166000000Y-89985000D02*
X166135000Y-89850000D01*
X166000000Y-93500000D02*
X166000000Y-89985000D01*
G04 #@! TD*
D20*
G04 #@! TO.N,GND*
X195565424Y-65169580D02*
X195628356Y-65188580D01*
X195686405Y-65219445D01*
X195737343Y-65260989D01*
X195779248Y-65311644D01*
X195810515Y-65369471D01*
X195829956Y-65432272D01*
X195840001Y-65527845D01*
X195840000Y-122967721D01*
X195830420Y-123065424D01*
X195811420Y-123128357D01*
X195780554Y-123186406D01*
X195739011Y-123237343D01*
X195688356Y-123279248D01*
X195630529Y-123310515D01*
X195567728Y-123329956D01*
X195472165Y-123340000D01*
X127032279Y-123340000D01*
X126934576Y-123330420D01*
X126871643Y-123311420D01*
X126813594Y-123280554D01*
X126762657Y-123239011D01*
X126720752Y-123188356D01*
X126689485Y-123130529D01*
X126670044Y-123067728D01*
X126660000Y-122972165D01*
X126660000Y-118350000D01*
X177511928Y-118350000D01*
X177524188Y-118474482D01*
X177560498Y-118594180D01*
X177619463Y-118704494D01*
X177698815Y-118801185D01*
X177795506Y-118880537D01*
X177905820Y-118939502D01*
X178025518Y-118975812D01*
X178150000Y-118988072D01*
X178714250Y-118985000D01*
X178873000Y-118826250D01*
X178873000Y-117627000D01*
X179127000Y-117627000D01*
X179127000Y-118826250D01*
X179285750Y-118985000D01*
X179850000Y-118988072D01*
X179974482Y-118975812D01*
X180094180Y-118939502D01*
X180204494Y-118880537D01*
X180301185Y-118801185D01*
X180380537Y-118704494D01*
X180439502Y-118594180D01*
X180475812Y-118474482D01*
X180488072Y-118350000D01*
X180485000Y-117785750D01*
X180326250Y-117627000D01*
X179127000Y-117627000D01*
X178873000Y-117627000D01*
X177673750Y-117627000D01*
X177515000Y-117785750D01*
X177511928Y-118350000D01*
X126660000Y-118350000D01*
X126660000Y-115300626D01*
X131885000Y-115300626D01*
X131885000Y-115839374D01*
X131990105Y-116367770D01*
X132196275Y-116865508D01*
X132495587Y-117313461D01*
X132876539Y-117694413D01*
X133324492Y-117993725D01*
X133822230Y-118199895D01*
X134350626Y-118305000D01*
X134889374Y-118305000D01*
X135417770Y-118199895D01*
X135915508Y-117993725D01*
X136363461Y-117694413D01*
X136744413Y-117313461D01*
X137043725Y-116865508D01*
X137249895Y-116367770D01*
X137355000Y-115839374D01*
X137355000Y-115300626D01*
X149665000Y-115300626D01*
X149665000Y-115839374D01*
X149770105Y-116367770D01*
X149976275Y-116865508D01*
X150275587Y-117313461D01*
X150656539Y-117694413D01*
X151104492Y-117993725D01*
X151602230Y-118199895D01*
X152130626Y-118305000D01*
X152669374Y-118305000D01*
X153197770Y-118199895D01*
X153695508Y-117993725D01*
X154143461Y-117694413D01*
X154524413Y-117313461D01*
X154823725Y-116865508D01*
X155029895Y-116367770D01*
X155135000Y-115839374D01*
X155135000Y-115300626D01*
X167445000Y-115300626D01*
X167445000Y-115839374D01*
X167550105Y-116367770D01*
X167756275Y-116865508D01*
X168055587Y-117313461D01*
X168436539Y-117694413D01*
X168884492Y-117993725D01*
X169382230Y-118199895D01*
X169910626Y-118305000D01*
X170449374Y-118305000D01*
X170977770Y-118199895D01*
X171475508Y-117993725D01*
X171923461Y-117694413D01*
X172304413Y-117313461D01*
X172603725Y-116865508D01*
X172692991Y-116650000D01*
X177511928Y-116650000D01*
X177515000Y-117214250D01*
X177673750Y-117373000D01*
X178873000Y-117373000D01*
X178873000Y-117353000D01*
X179127000Y-117353000D01*
X179127000Y-117373000D01*
X180326250Y-117373000D01*
X180485000Y-117214250D01*
X180488072Y-116650000D01*
X180475812Y-116525518D01*
X180439502Y-116405820D01*
X180380537Y-116295506D01*
X180301185Y-116198815D01*
X180204494Y-116119463D01*
X180094180Y-116060498D01*
X180021620Y-116038487D01*
X180153475Y-115906632D01*
X180315990Y-115663411D01*
X180427932Y-115393158D01*
X180446337Y-115300626D01*
X185225000Y-115300626D01*
X185225000Y-115839374D01*
X185330105Y-116367770D01*
X185536275Y-116865508D01*
X185835587Y-117313461D01*
X186216539Y-117694413D01*
X186664492Y-117993725D01*
X187162230Y-118199895D01*
X187690626Y-118305000D01*
X188229374Y-118305000D01*
X188757770Y-118199895D01*
X189255508Y-117993725D01*
X189703461Y-117694413D01*
X190084413Y-117313461D01*
X190383725Y-116865508D01*
X190589895Y-116367770D01*
X190695000Y-115839374D01*
X190695000Y-115300626D01*
X190589895Y-114772230D01*
X190383725Y-114274492D01*
X190084413Y-113826539D01*
X189703461Y-113445587D01*
X189255508Y-113146275D01*
X188757770Y-112940105D01*
X188229374Y-112835000D01*
X187690626Y-112835000D01*
X187162230Y-112940105D01*
X186664492Y-113146275D01*
X186216539Y-113445587D01*
X185835587Y-113826539D01*
X185536275Y-114274492D01*
X185330105Y-114772230D01*
X185225000Y-115300626D01*
X180446337Y-115300626D01*
X180485000Y-115106260D01*
X180485000Y-114813740D01*
X180427932Y-114526842D01*
X180315990Y-114256589D01*
X180255069Y-114165413D01*
X183194192Y-114165413D01*
X183289956Y-114429814D01*
X183579571Y-114570704D01*
X183891108Y-114652384D01*
X184212595Y-114671718D01*
X184531675Y-114627961D01*
X184836088Y-114522795D01*
X185010044Y-114429814D01*
X185105808Y-114165413D01*
X184150000Y-113209605D01*
X183194192Y-114165413D01*
X180255069Y-114165413D01*
X180153475Y-114013368D01*
X179946632Y-113806525D01*
X179703411Y-113644010D01*
X179433158Y-113532068D01*
X179146260Y-113475000D01*
X178853740Y-113475000D01*
X178566842Y-113532068D01*
X178296589Y-113644010D01*
X178053368Y-113806525D01*
X177846525Y-114013368D01*
X177684010Y-114256589D01*
X177572068Y-114526842D01*
X177515000Y-114813740D01*
X177515000Y-115106260D01*
X177572068Y-115393158D01*
X177684010Y-115663411D01*
X177846525Y-115906632D01*
X177978380Y-116038487D01*
X177905820Y-116060498D01*
X177795506Y-116119463D01*
X177698815Y-116198815D01*
X177619463Y-116295506D01*
X177560498Y-116405820D01*
X177524188Y-116525518D01*
X177511928Y-116650000D01*
X172692991Y-116650000D01*
X172809895Y-116367770D01*
X172915000Y-115839374D01*
X172915000Y-115300626D01*
X172809895Y-114772230D01*
X172603725Y-114274492D01*
X172304413Y-113826539D01*
X171923461Y-113445587D01*
X171475508Y-113146275D01*
X171345914Y-113092595D01*
X182508282Y-113092595D01*
X182552039Y-113411675D01*
X182657205Y-113716088D01*
X182750186Y-113890044D01*
X183014587Y-113985808D01*
X183970395Y-113030000D01*
X184329605Y-113030000D01*
X185285413Y-113985808D01*
X185549814Y-113890044D01*
X185690704Y-113600429D01*
X185772384Y-113288892D01*
X185791718Y-112967405D01*
X185747961Y-112648325D01*
X185642795Y-112343912D01*
X185549814Y-112169956D01*
X185285413Y-112074192D01*
X184329605Y-113030000D01*
X183970395Y-113030000D01*
X183014587Y-112074192D01*
X182750186Y-112169956D01*
X182609296Y-112459571D01*
X182527616Y-112771108D01*
X182508282Y-113092595D01*
X171345914Y-113092595D01*
X170977770Y-112940105D01*
X170449374Y-112835000D01*
X169910626Y-112835000D01*
X169382230Y-112940105D01*
X168884492Y-113146275D01*
X168436539Y-113445587D01*
X168055587Y-113826539D01*
X167756275Y-114274492D01*
X167550105Y-114772230D01*
X167445000Y-115300626D01*
X155135000Y-115300626D01*
X155029895Y-114772230D01*
X154823725Y-114274492D01*
X154750841Y-114165413D01*
X165414192Y-114165413D01*
X165509956Y-114429814D01*
X165799571Y-114570704D01*
X166111108Y-114652384D01*
X166432595Y-114671718D01*
X166751675Y-114627961D01*
X167056088Y-114522795D01*
X167230044Y-114429814D01*
X167325808Y-114165413D01*
X166370000Y-113209605D01*
X165414192Y-114165413D01*
X154750841Y-114165413D01*
X154524413Y-113826539D01*
X154143461Y-113445587D01*
X153695508Y-113146275D01*
X153565914Y-113092595D01*
X164728282Y-113092595D01*
X164772039Y-113411675D01*
X164877205Y-113716088D01*
X164970186Y-113890044D01*
X165234587Y-113985808D01*
X166190395Y-113030000D01*
X166549605Y-113030000D01*
X167505413Y-113985808D01*
X167769814Y-113890044D01*
X167910704Y-113600429D01*
X167992384Y-113288892D01*
X168011718Y-112967405D01*
X167967961Y-112648325D01*
X167862795Y-112343912D01*
X167769814Y-112169956D01*
X167505413Y-112074192D01*
X166549605Y-113030000D01*
X166190395Y-113030000D01*
X165234587Y-112074192D01*
X164970186Y-112169956D01*
X164829296Y-112459571D01*
X164747616Y-112771108D01*
X164728282Y-113092595D01*
X153565914Y-113092595D01*
X153197770Y-112940105D01*
X152669374Y-112835000D01*
X152130626Y-112835000D01*
X151602230Y-112940105D01*
X151104492Y-113146275D01*
X150656539Y-113445587D01*
X150275587Y-113826539D01*
X149976275Y-114274492D01*
X149770105Y-114772230D01*
X149665000Y-115300626D01*
X137355000Y-115300626D01*
X137249895Y-114772230D01*
X137043725Y-114274492D01*
X136970841Y-114165413D01*
X147634192Y-114165413D01*
X147729956Y-114429814D01*
X148019571Y-114570704D01*
X148331108Y-114652384D01*
X148652595Y-114671718D01*
X148971675Y-114627961D01*
X149276088Y-114522795D01*
X149450044Y-114429814D01*
X149545808Y-114165413D01*
X148590000Y-113209605D01*
X147634192Y-114165413D01*
X136970841Y-114165413D01*
X136744413Y-113826539D01*
X136363461Y-113445587D01*
X135915508Y-113146275D01*
X135785914Y-113092595D01*
X146948282Y-113092595D01*
X146992039Y-113411675D01*
X147097205Y-113716088D01*
X147190186Y-113890044D01*
X147454587Y-113985808D01*
X148410395Y-113030000D01*
X148769605Y-113030000D01*
X149725413Y-113985808D01*
X149989814Y-113890044D01*
X150130704Y-113600429D01*
X150212384Y-113288892D01*
X150231718Y-112967405D01*
X150187961Y-112648325D01*
X150082795Y-112343912D01*
X149989814Y-112169956D01*
X149725413Y-112074192D01*
X148769605Y-113030000D01*
X148410395Y-113030000D01*
X147454587Y-112074192D01*
X147190186Y-112169956D01*
X147049296Y-112459571D01*
X146967616Y-112771108D01*
X146948282Y-113092595D01*
X135785914Y-113092595D01*
X135417770Y-112940105D01*
X134889374Y-112835000D01*
X134350626Y-112835000D01*
X133822230Y-112940105D01*
X133324492Y-113146275D01*
X132876539Y-113445587D01*
X132495587Y-113826539D01*
X132196275Y-114274492D01*
X131990105Y-114772230D01*
X131885000Y-115300626D01*
X126660000Y-115300626D01*
X126660000Y-114165413D01*
X129854192Y-114165413D01*
X129949956Y-114429814D01*
X130239571Y-114570704D01*
X130551108Y-114652384D01*
X130872595Y-114671718D01*
X131191675Y-114627961D01*
X131496088Y-114522795D01*
X131670044Y-114429814D01*
X131765808Y-114165413D01*
X130810000Y-113209605D01*
X129854192Y-114165413D01*
X126660000Y-114165413D01*
X126660000Y-113092595D01*
X129168282Y-113092595D01*
X129212039Y-113411675D01*
X129317205Y-113716088D01*
X129410186Y-113890044D01*
X129674587Y-113985808D01*
X130630395Y-113030000D01*
X130989605Y-113030000D01*
X131945413Y-113985808D01*
X132209814Y-113890044D01*
X132350704Y-113600429D01*
X132432384Y-113288892D01*
X132451718Y-112967405D01*
X132407961Y-112648325D01*
X132302795Y-112343912D01*
X132209814Y-112169956D01*
X131945413Y-112074192D01*
X130989605Y-113030000D01*
X130630395Y-113030000D01*
X129674587Y-112074192D01*
X129410186Y-112169956D01*
X129269296Y-112459571D01*
X129187616Y-112771108D01*
X129168282Y-113092595D01*
X126660000Y-113092595D01*
X126660000Y-111894587D01*
X129854192Y-111894587D01*
X130810000Y-112850395D01*
X131765808Y-111894587D01*
X131670044Y-111630186D01*
X131380429Y-111489296D01*
X131068892Y-111407616D01*
X130747405Y-111388282D01*
X130428325Y-111432039D01*
X130123912Y-111537205D01*
X129949956Y-111630186D01*
X129854192Y-111894587D01*
X126660000Y-111894587D01*
X126660000Y-110328967D01*
X135525000Y-110328967D01*
X135525000Y-110651033D01*
X135587832Y-110966912D01*
X135711082Y-111264463D01*
X135890013Y-111532252D01*
X136117748Y-111759987D01*
X136385537Y-111938918D01*
X136683088Y-112062168D01*
X136998967Y-112125000D01*
X137321033Y-112125000D01*
X137636912Y-112062168D01*
X137934463Y-111938918D01*
X138000808Y-111894587D01*
X147634192Y-111894587D01*
X148590000Y-112850395D01*
X149545808Y-111894587D01*
X149450044Y-111630186D01*
X149160429Y-111489296D01*
X148848892Y-111407616D01*
X148527405Y-111388282D01*
X148208325Y-111432039D01*
X147903912Y-111537205D01*
X147729956Y-111630186D01*
X147634192Y-111894587D01*
X138000808Y-111894587D01*
X138202252Y-111759987D01*
X138429987Y-111532252D01*
X138608918Y-111264463D01*
X138614909Y-111250000D01*
X150972678Y-111250000D01*
X151010000Y-111253676D01*
X151047322Y-111250000D01*
X151047333Y-111250000D01*
X151158986Y-111239003D01*
X151302247Y-111195546D01*
X151434276Y-111124974D01*
X151550001Y-111030001D01*
X151573804Y-111000997D01*
X153314802Y-109260000D01*
X153857761Y-109260000D01*
X153670013Y-109447748D01*
X153491082Y-109715537D01*
X153367832Y-110013088D01*
X153305000Y-110328967D01*
X153305000Y-110651033D01*
X153367832Y-110966912D01*
X153491082Y-111264463D01*
X153670013Y-111532252D01*
X153897748Y-111759987D01*
X154165537Y-111938918D01*
X154463088Y-112062168D01*
X154778967Y-112125000D01*
X155101033Y-112125000D01*
X155416912Y-112062168D01*
X155714463Y-111938918D01*
X155780808Y-111894587D01*
X165414192Y-111894587D01*
X166370000Y-112850395D01*
X167325808Y-111894587D01*
X167230044Y-111630186D01*
X166940429Y-111489296D01*
X166628892Y-111407616D01*
X166307405Y-111388282D01*
X165988325Y-111432039D01*
X165683912Y-111537205D01*
X165509956Y-111630186D01*
X165414192Y-111894587D01*
X155780808Y-111894587D01*
X155982252Y-111759987D01*
X156209987Y-111532252D01*
X156388918Y-111264463D01*
X156394909Y-111250000D01*
X160472678Y-111250000D01*
X160510000Y-111253676D01*
X160547322Y-111250000D01*
X160547333Y-111250000D01*
X160658986Y-111239003D01*
X160802247Y-111195546D01*
X160934276Y-111124974D01*
X161050001Y-111030001D01*
X161073804Y-111000997D01*
X162836004Y-109238798D01*
X162844777Y-109231598D01*
X162845997Y-109243985D01*
X162887422Y-109380546D01*
X162889454Y-109387246D01*
X162960026Y-109519276D01*
X162999871Y-109567826D01*
X163054999Y-109635001D01*
X163084003Y-109658804D01*
X164426201Y-111001003D01*
X164449999Y-111030001D01*
X164478997Y-111053799D01*
X164565723Y-111124974D01*
X164697753Y-111195546D01*
X164841014Y-111239003D01*
X164952667Y-111250000D01*
X164952677Y-111250000D01*
X164990000Y-111253676D01*
X165027323Y-111250000D01*
X171265091Y-111250000D01*
X171271082Y-111264463D01*
X171450013Y-111532252D01*
X171677748Y-111759987D01*
X171945537Y-111938918D01*
X172243088Y-112062168D01*
X172558967Y-112125000D01*
X172881033Y-112125000D01*
X173196912Y-112062168D01*
X173494463Y-111938918D01*
X173560808Y-111894587D01*
X183194192Y-111894587D01*
X184150000Y-112850395D01*
X185105808Y-111894587D01*
X185010044Y-111630186D01*
X184720429Y-111489296D01*
X184408892Y-111407616D01*
X184087405Y-111388282D01*
X183768325Y-111432039D01*
X183463912Y-111537205D01*
X183289956Y-111630186D01*
X183194192Y-111894587D01*
X173560808Y-111894587D01*
X173762252Y-111759987D01*
X173989987Y-111532252D01*
X174168918Y-111264463D01*
X174292168Y-110966912D01*
X174355000Y-110651033D01*
X174355000Y-110328967D01*
X174292168Y-110013088D01*
X174168918Y-109715537D01*
X173989987Y-109447748D01*
X173802239Y-109260000D01*
X174185199Y-109260000D01*
X175926201Y-111001003D01*
X175949999Y-111030001D01*
X175978997Y-111053799D01*
X176065723Y-111124974D01*
X176197753Y-111195546D01*
X176341014Y-111239003D01*
X176452667Y-111250000D01*
X176452677Y-111250000D01*
X176490000Y-111253676D01*
X176527322Y-111250000D01*
X189045091Y-111250000D01*
X189051082Y-111264463D01*
X189230013Y-111532252D01*
X189457748Y-111759987D01*
X189725537Y-111938918D01*
X190023088Y-112062168D01*
X190338967Y-112125000D01*
X190661033Y-112125000D01*
X190976912Y-112062168D01*
X191274463Y-111938918D01*
X191542252Y-111759987D01*
X191769987Y-111532252D01*
X191948918Y-111264463D01*
X192072168Y-110966912D01*
X192135000Y-110651033D01*
X192135000Y-110328967D01*
X192072168Y-110013088D01*
X191948918Y-109715537D01*
X191769987Y-109447748D01*
X191542252Y-109220013D01*
X191274463Y-109041082D01*
X190976912Y-108917832D01*
X190661033Y-108855000D01*
X190338967Y-108855000D01*
X190023088Y-108917832D01*
X189725537Y-109041082D01*
X189457748Y-109220013D01*
X189230013Y-109447748D01*
X189051082Y-109715537D01*
X189045091Y-109730000D01*
X176804802Y-109730000D01*
X175063804Y-107989003D01*
X175040001Y-107959999D01*
X174924276Y-107865026D01*
X174792247Y-107794454D01*
X174648986Y-107750997D01*
X174537333Y-107740000D01*
X174537322Y-107740000D01*
X174500000Y-107736324D01*
X174462678Y-107740000D01*
X167814802Y-107740000D01*
X166895000Y-106820199D01*
X166895000Y-100721859D01*
X166953418Y-100753084D01*
X167101255Y-100797929D01*
X167255000Y-100813072D01*
X167555000Y-100813072D01*
X167708745Y-100797929D01*
X167856582Y-100753084D01*
X167992829Y-100680258D01*
X168040000Y-100641546D01*
X168087171Y-100680258D01*
X168223418Y-100753084D01*
X168371255Y-100797929D01*
X168525000Y-100813072D01*
X168825000Y-100813072D01*
X168978745Y-100797929D01*
X169126582Y-100753084D01*
X169240000Y-100692460D01*
X169240000Y-100796289D01*
X169196063Y-100840226D01*
X169082795Y-101009744D01*
X169004774Y-101198102D01*
X168965000Y-101398061D01*
X168965000Y-101601939D01*
X169004774Y-101801898D01*
X169082795Y-101990256D01*
X169196063Y-102159774D01*
X169340226Y-102303937D01*
X169509744Y-102417205D01*
X169698102Y-102495226D01*
X169898061Y-102535000D01*
X170101939Y-102535000D01*
X170301898Y-102495226D01*
X170490256Y-102417205D01*
X170636829Y-102319268D01*
X180665000Y-102319268D01*
X180665000Y-102680732D01*
X180735518Y-103035250D01*
X180873844Y-103369199D01*
X181074662Y-103669744D01*
X181330256Y-103925338D01*
X181630801Y-104126156D01*
X181964750Y-104264482D01*
X182319268Y-104335000D01*
X182680732Y-104335000D01*
X183035250Y-104264482D01*
X183369199Y-104126156D01*
X183669744Y-103925338D01*
X183925338Y-103669744D01*
X184126156Y-103369199D01*
X184264482Y-103035250D01*
X184335000Y-102680732D01*
X184335000Y-102319268D01*
X184264482Y-101964750D01*
X184126156Y-101630801D01*
X183925338Y-101330256D01*
X183669744Y-101074662D01*
X183369199Y-100873844D01*
X183035250Y-100735518D01*
X182680732Y-100665000D01*
X182319268Y-100665000D01*
X181964750Y-100735518D01*
X181630801Y-100873844D01*
X181330256Y-101074662D01*
X181074662Y-101330256D01*
X180873844Y-101630801D01*
X180735518Y-101964750D01*
X180665000Y-102319268D01*
X170636829Y-102319268D01*
X170659774Y-102303937D01*
X170803937Y-102159774D01*
X170917205Y-101990256D01*
X170995226Y-101801898D01*
X171035000Y-101601939D01*
X171035000Y-101398061D01*
X170995226Y-101198102D01*
X170917205Y-101009744D01*
X170803937Y-100840226D01*
X170760000Y-100796289D01*
X170760000Y-100791554D01*
X170790518Y-100800812D01*
X170915000Y-100813072D01*
X170929250Y-100810000D01*
X171088000Y-100651250D01*
X171088000Y-99277000D01*
X171342000Y-99277000D01*
X171342000Y-100651250D01*
X171500750Y-100810000D01*
X171515000Y-100813072D01*
X171639482Y-100800812D01*
X171759180Y-100764502D01*
X171850000Y-100715957D01*
X171940820Y-100764502D01*
X172060518Y-100800812D01*
X172185000Y-100813072D01*
X172199250Y-100810000D01*
X172358000Y-100651250D01*
X172358000Y-99277000D01*
X172612000Y-99277000D01*
X172612000Y-100651250D01*
X172770750Y-100810000D01*
X172785000Y-100813072D01*
X172909482Y-100800812D01*
X173029180Y-100764502D01*
X173120000Y-100715957D01*
X173210820Y-100764502D01*
X173330518Y-100800812D01*
X173455000Y-100813072D01*
X173469250Y-100810000D01*
X173628000Y-100651250D01*
X173628000Y-99277000D01*
X173882000Y-99277000D01*
X173882000Y-100651250D01*
X174040750Y-100810000D01*
X174055000Y-100813072D01*
X174179482Y-100800812D01*
X174299180Y-100764502D01*
X174409494Y-100705537D01*
X174506185Y-100626185D01*
X174585537Y-100529494D01*
X174644502Y-100419180D01*
X174680812Y-100299482D01*
X174693072Y-100175000D01*
X174690000Y-99435750D01*
X174531250Y-99277000D01*
X173882000Y-99277000D01*
X173628000Y-99277000D01*
X172612000Y-99277000D01*
X172358000Y-99277000D01*
X171342000Y-99277000D01*
X171088000Y-99277000D01*
X171068000Y-99277000D01*
X171068000Y-99023000D01*
X171088000Y-99023000D01*
X171088000Y-97648750D01*
X171342000Y-97648750D01*
X171342000Y-99023000D01*
X172358000Y-99023000D01*
X172358000Y-97648750D01*
X172612000Y-97648750D01*
X172612000Y-99023000D01*
X173628000Y-99023000D01*
X173628000Y-97648750D01*
X173882000Y-97648750D01*
X173882000Y-99023000D01*
X174531250Y-99023000D01*
X174690000Y-98864250D01*
X174693072Y-98125000D01*
X174680812Y-98000518D01*
X174644502Y-97880820D01*
X174617338Y-97830000D01*
X186686928Y-97830000D01*
X186699188Y-97954482D01*
X186735498Y-98074180D01*
X186794463Y-98184494D01*
X186873815Y-98281185D01*
X186970506Y-98360537D01*
X187080820Y-98419502D01*
X187200518Y-98455812D01*
X187325000Y-98468072D01*
X187714250Y-98465000D01*
X187873000Y-98306250D01*
X187873000Y-97282000D01*
X188127000Y-97282000D01*
X188127000Y-98306250D01*
X188285750Y-98465000D01*
X188675000Y-98468072D01*
X188799482Y-98455812D01*
X188919180Y-98419502D01*
X189029494Y-98360537D01*
X189126185Y-98281185D01*
X189205537Y-98184494D01*
X189264502Y-98074180D01*
X189300812Y-97954482D01*
X189313072Y-97830000D01*
X189310000Y-97440750D01*
X189151250Y-97282000D01*
X188127000Y-97282000D01*
X187873000Y-97282000D01*
X186848750Y-97282000D01*
X186690000Y-97440750D01*
X186686928Y-97830000D01*
X174617338Y-97830000D01*
X174585537Y-97770506D01*
X174506185Y-97673815D01*
X174409494Y-97594463D01*
X174299180Y-97535498D01*
X174179482Y-97499188D01*
X174055000Y-97486928D01*
X174040750Y-97490000D01*
X173882000Y-97648750D01*
X173628000Y-97648750D01*
X173469250Y-97490000D01*
X173455000Y-97486928D01*
X173330518Y-97499188D01*
X173210820Y-97535498D01*
X173120000Y-97584043D01*
X173029180Y-97535498D01*
X172909482Y-97499188D01*
X172785000Y-97486928D01*
X172770750Y-97490000D01*
X172612000Y-97648750D01*
X172358000Y-97648750D01*
X172199250Y-97490000D01*
X172185000Y-97486928D01*
X172060518Y-97499188D01*
X171940820Y-97535498D01*
X171850000Y-97584043D01*
X171759180Y-97535498D01*
X171639482Y-97499188D01*
X171515000Y-97486928D01*
X171500750Y-97490000D01*
X171342000Y-97648750D01*
X171088000Y-97648750D01*
X170929250Y-97490000D01*
X170915000Y-97486928D01*
X170790518Y-97499188D01*
X170705000Y-97525130D01*
X170705000Y-97369801D01*
X172159802Y-95915000D01*
X186932291Y-95915000D01*
X186960697Y-95957513D01*
X186873815Y-96028815D01*
X186794463Y-96125506D01*
X186735498Y-96235820D01*
X186699188Y-96355518D01*
X186686928Y-96480000D01*
X186690000Y-96869250D01*
X186848750Y-97028000D01*
X187873000Y-97028000D01*
X187873000Y-97008000D01*
X188127000Y-97008000D01*
X188127000Y-97028000D01*
X189151250Y-97028000D01*
X189310000Y-96869250D01*
X189313072Y-96480000D01*
X189300812Y-96355518D01*
X189264502Y-96235820D01*
X189205537Y-96125506D01*
X189126185Y-96028815D01*
X189039303Y-95957513D01*
X189160907Y-95775518D01*
X189259658Y-95537113D01*
X189310000Y-95284024D01*
X189310000Y-95025976D01*
X189259658Y-94772887D01*
X189160907Y-94534482D01*
X189017544Y-94319923D01*
X188852621Y-94155000D01*
X189017544Y-93990077D01*
X189160907Y-93775518D01*
X189259658Y-93537113D01*
X189310000Y-93284024D01*
X189310000Y-93025976D01*
X189259658Y-92772887D01*
X189160907Y-92534482D01*
X189017544Y-92319923D01*
X188852621Y-92155000D01*
X189017544Y-91990077D01*
X189160907Y-91775518D01*
X189259658Y-91537113D01*
X189310000Y-91284024D01*
X189310000Y-91025976D01*
X189259658Y-90772887D01*
X189160907Y-90534482D01*
X189017544Y-90319923D01*
X188835077Y-90137456D01*
X188620518Y-89994093D01*
X188382113Y-89895342D01*
X188129024Y-89845000D01*
X187870976Y-89845000D01*
X187617887Y-89895342D01*
X187379482Y-89994093D01*
X187164923Y-90137456D01*
X186982456Y-90319923D01*
X186932291Y-90395000D01*
X178469802Y-90395000D01*
X175063804Y-86989003D01*
X175040001Y-86959999D01*
X174924276Y-86865026D01*
X174792247Y-86794454D01*
X174648986Y-86750997D01*
X174537333Y-86740000D01*
X174537322Y-86740000D01*
X174500000Y-86736324D01*
X174462678Y-86740000D01*
X172037325Y-86740000D01*
X172000000Y-86736324D01*
X171962675Y-86740000D01*
X171962667Y-86740000D01*
X171851014Y-86750997D01*
X171707753Y-86794454D01*
X171575724Y-86865026D01*
X171459999Y-86959999D01*
X171436201Y-86988998D01*
X170704002Y-87721197D01*
X170674999Y-87744999D01*
X170636225Y-87792246D01*
X170580026Y-87860724D01*
X170526962Y-87959999D01*
X170509454Y-87992754D01*
X170465997Y-88136015D01*
X170455000Y-88247668D01*
X170455000Y-88247678D01*
X170452150Y-88276618D01*
X170396582Y-88246916D01*
X170248745Y-88202071D01*
X170095000Y-88186928D01*
X169795000Y-88186928D01*
X169641255Y-88202071D01*
X169493418Y-88246916D01*
X169359064Y-88318730D01*
X169329494Y-88294463D01*
X169219180Y-88235498D01*
X169099482Y-88199188D01*
X169017267Y-88191091D01*
X169035000Y-88101939D01*
X169035000Y-87898061D01*
X168995226Y-87698102D01*
X168917205Y-87509744D01*
X168803937Y-87340226D01*
X168659774Y-87196063D01*
X168490256Y-87082795D01*
X168301898Y-87004774D01*
X168101939Y-86965000D01*
X167898061Y-86965000D01*
X167698102Y-87004774D01*
X167509744Y-87082795D01*
X167340226Y-87196063D01*
X167196063Y-87340226D01*
X167082795Y-87509744D01*
X167004774Y-87698102D01*
X166965000Y-87898061D01*
X166965000Y-87960198D01*
X166646341Y-88278858D01*
X166586582Y-88246916D01*
X166438745Y-88202071D01*
X166285000Y-88186928D01*
X165985000Y-88186928D01*
X165831255Y-88202071D01*
X165714560Y-88237469D01*
X165705546Y-88207753D01*
X165634974Y-88075724D01*
X165605657Y-88040001D01*
X165540001Y-87959999D01*
X165535000Y-87955895D01*
X165535000Y-87898061D01*
X165495226Y-87698102D01*
X165417205Y-87509744D01*
X165303937Y-87340226D01*
X165159774Y-87196063D01*
X164990256Y-87082795D01*
X164801898Y-87004774D01*
X164601939Y-86965000D01*
X164398061Y-86965000D01*
X164260000Y-86992462D01*
X164260000Y-86319268D01*
X180665000Y-86319268D01*
X180665000Y-86680732D01*
X180735518Y-87035250D01*
X180873844Y-87369199D01*
X181074662Y-87669744D01*
X181330256Y-87925338D01*
X181630801Y-88126156D01*
X181964750Y-88264482D01*
X182319268Y-88335000D01*
X182680732Y-88335000D01*
X183035250Y-88264482D01*
X183369199Y-88126156D01*
X183669744Y-87925338D01*
X183925338Y-87669744D01*
X184126156Y-87369199D01*
X184264482Y-87035250D01*
X184335000Y-86680732D01*
X184335000Y-86319268D01*
X192165000Y-86319268D01*
X192165000Y-86680732D01*
X192235518Y-87035250D01*
X192373844Y-87369199D01*
X192574662Y-87669744D01*
X192830256Y-87925338D01*
X193130801Y-88126156D01*
X193464750Y-88264482D01*
X193819268Y-88335000D01*
X194180732Y-88335000D01*
X194535250Y-88264482D01*
X194869199Y-88126156D01*
X195169744Y-87925338D01*
X195425338Y-87669744D01*
X195626156Y-87369199D01*
X195764482Y-87035250D01*
X195835000Y-86680732D01*
X195835000Y-86319268D01*
X195764482Y-85964750D01*
X195626156Y-85630801D01*
X195425338Y-85330256D01*
X195169744Y-85074662D01*
X194869199Y-84873844D01*
X194535250Y-84735518D01*
X194180732Y-84665000D01*
X193819268Y-84665000D01*
X193464750Y-84735518D01*
X193130801Y-84873844D01*
X192830256Y-85074662D01*
X192574662Y-85330256D01*
X192373844Y-85630801D01*
X192235518Y-85964750D01*
X192165000Y-86319268D01*
X184335000Y-86319268D01*
X184264482Y-85964750D01*
X184126156Y-85630801D01*
X183925338Y-85330256D01*
X183669744Y-85074662D01*
X183369199Y-84873844D01*
X183035250Y-84735518D01*
X182680732Y-84665000D01*
X182319268Y-84665000D01*
X181964750Y-84735518D01*
X181630801Y-84873844D01*
X181330256Y-85074662D01*
X181074662Y-85330256D01*
X180873844Y-85630801D01*
X180735518Y-85964750D01*
X180665000Y-86319268D01*
X164260000Y-86319268D01*
X164260000Y-85703711D01*
X164303937Y-85659774D01*
X164417205Y-85490256D01*
X164495226Y-85301898D01*
X164535000Y-85101939D01*
X164535000Y-84898061D01*
X164495226Y-84698102D01*
X164417205Y-84509744D01*
X164303937Y-84340226D01*
X164159774Y-84196063D01*
X163990256Y-84082795D01*
X163801898Y-84004774D01*
X163601939Y-83965000D01*
X163398061Y-83965000D01*
X163198102Y-84004774D01*
X163035000Y-84072334D01*
X163035000Y-83898061D01*
X162995226Y-83698102D01*
X162917205Y-83509744D01*
X162803937Y-83340226D01*
X162659774Y-83196063D01*
X162490256Y-83082795D01*
X162301898Y-83004774D01*
X162101939Y-82965000D01*
X162035000Y-82965000D01*
X162035000Y-82898061D01*
X161995226Y-82698102D01*
X161917205Y-82509744D01*
X161803937Y-82340226D01*
X161659774Y-82196063D01*
X161490256Y-82082795D01*
X161301898Y-82004774D01*
X161101939Y-81965000D01*
X160898061Y-81965000D01*
X160698102Y-82004774D01*
X160509744Y-82082795D01*
X160340226Y-82196063D01*
X160196063Y-82340226D01*
X160082795Y-82509744D01*
X160004774Y-82698102D01*
X159965000Y-82898061D01*
X159965000Y-83101939D01*
X160004774Y-83301898D01*
X160082795Y-83490256D01*
X160196063Y-83659774D01*
X160240000Y-83703711D01*
X160240000Y-84992462D01*
X160101939Y-84965000D01*
X159898061Y-84965000D01*
X159698102Y-85004774D01*
X159509744Y-85082795D01*
X159340226Y-85196063D01*
X159196063Y-85340226D01*
X159082795Y-85509744D01*
X159004774Y-85698102D01*
X158965000Y-85898061D01*
X158965000Y-86072334D01*
X158801898Y-86004774D01*
X158601939Y-85965000D01*
X158398061Y-85965000D01*
X158198102Y-86004774D01*
X158009744Y-86082795D01*
X157840226Y-86196063D01*
X157696063Y-86340226D01*
X157582795Y-86509744D01*
X157504774Y-86698102D01*
X157465000Y-86898061D01*
X157465000Y-87101939D01*
X157504774Y-87301898D01*
X157582795Y-87490256D01*
X157696063Y-87659774D01*
X157740000Y-87703711D01*
X157740000Y-88270124D01*
X157696582Y-88246916D01*
X157548745Y-88202071D01*
X157395000Y-88186928D01*
X157095000Y-88186928D01*
X156941255Y-88202071D01*
X156793418Y-88246916D01*
X156657171Y-88319742D01*
X156537749Y-88417749D01*
X156439742Y-88537171D01*
X156366916Y-88673418D01*
X156322071Y-88821255D01*
X156306928Y-88975000D01*
X156306928Y-90725000D01*
X156322071Y-90878745D01*
X156366916Y-91026582D01*
X156439742Y-91162829D01*
X156537749Y-91282251D01*
X156657171Y-91380258D01*
X156793418Y-91453084D01*
X156941255Y-91497929D01*
X157095000Y-91513072D01*
X157395000Y-91513072D01*
X157548745Y-91497929D01*
X157696582Y-91453084D01*
X157832829Y-91380258D01*
X157880000Y-91341546D01*
X157927171Y-91380258D01*
X158063418Y-91453084D01*
X158211255Y-91497929D01*
X158365000Y-91513072D01*
X158665000Y-91513072D01*
X158818745Y-91497929D01*
X158966582Y-91453084D01*
X159102829Y-91380258D01*
X159150000Y-91341546D01*
X159197171Y-91380258D01*
X159333418Y-91453084D01*
X159481255Y-91497929D01*
X159635000Y-91513072D01*
X159935000Y-91513072D01*
X160088745Y-91497929D01*
X160236582Y-91453084D01*
X160372829Y-91380258D01*
X160420000Y-91341546D01*
X160467171Y-91380258D01*
X160603418Y-91453084D01*
X160751255Y-91497929D01*
X160905000Y-91513072D01*
X161205000Y-91513072D01*
X161358745Y-91497929D01*
X161506582Y-91453084D01*
X161642829Y-91380258D01*
X161690000Y-91341546D01*
X161737171Y-91380258D01*
X161873418Y-91453084D01*
X162021255Y-91497929D01*
X162175000Y-91513072D01*
X162475000Y-91513072D01*
X162628745Y-91497929D01*
X162776582Y-91453084D01*
X162912829Y-91380258D01*
X162960000Y-91341546D01*
X163007171Y-91380258D01*
X163143418Y-91453084D01*
X163291255Y-91497929D01*
X163445000Y-91513072D01*
X163745000Y-91513072D01*
X163898745Y-91497929D01*
X164046582Y-91453084D01*
X164182829Y-91380258D01*
X164230000Y-91341546D01*
X164277171Y-91380258D01*
X164413418Y-91453084D01*
X164561255Y-91497929D01*
X164715000Y-91513072D01*
X165015000Y-91513072D01*
X165168745Y-91497929D01*
X165240001Y-91476314D01*
X165240000Y-92796289D01*
X165196063Y-92840226D01*
X165082795Y-93009744D01*
X165004774Y-93198102D01*
X164965000Y-93398061D01*
X164965000Y-93601939D01*
X165004774Y-93801898D01*
X165082795Y-93990256D01*
X165196063Y-94159774D01*
X165340226Y-94303937D01*
X165509744Y-94417205D01*
X165698102Y-94495226D01*
X165898061Y-94535000D01*
X166101939Y-94535000D01*
X166301898Y-94495226D01*
X166490256Y-94417205D01*
X166659774Y-94303937D01*
X166803937Y-94159774D01*
X166917205Y-93990256D01*
X166995226Y-93801898D01*
X167035000Y-93601939D01*
X167035000Y-93398061D01*
X166995226Y-93198102D01*
X166917205Y-93009744D01*
X166803937Y-92840226D01*
X166760000Y-92796289D01*
X166760000Y-92723711D01*
X166840226Y-92803937D01*
X167009744Y-92917205D01*
X167198102Y-92995226D01*
X167398061Y-93035000D01*
X167601939Y-93035000D01*
X167801898Y-92995226D01*
X167990256Y-92917205D01*
X168159774Y-92803937D01*
X168303937Y-92659774D01*
X168417205Y-92490256D01*
X168495226Y-92301898D01*
X168535000Y-92101939D01*
X168535000Y-91898061D01*
X168495226Y-91698102D01*
X168417205Y-91509744D01*
X168406110Y-91493140D01*
X168548000Y-91351250D01*
X168548000Y-89977000D01*
X168528000Y-89977000D01*
X168528000Y-89723000D01*
X168548000Y-89723000D01*
X168548000Y-89703000D01*
X168802000Y-89703000D01*
X168802000Y-89723000D01*
X168822000Y-89723000D01*
X168822000Y-89977000D01*
X168802000Y-89977000D01*
X168802000Y-91351250D01*
X168960750Y-91510000D01*
X168975000Y-91513072D01*
X169099482Y-91500812D01*
X169219180Y-91464502D01*
X169329494Y-91405537D01*
X169359064Y-91381270D01*
X169493418Y-91453084D01*
X169641255Y-91497929D01*
X169795000Y-91513072D01*
X170081416Y-91513072D01*
X170004774Y-91698102D01*
X169965000Y-91898061D01*
X169965000Y-92101939D01*
X170004774Y-92301898D01*
X170082795Y-92490256D01*
X170196063Y-92659774D01*
X170276289Y-92740000D01*
X170203711Y-92740000D01*
X170159774Y-92696063D01*
X169990256Y-92582795D01*
X169801898Y-92504774D01*
X169601939Y-92465000D01*
X169398061Y-92465000D01*
X169198102Y-92504774D01*
X169009744Y-92582795D01*
X168840226Y-92696063D01*
X168696063Y-92840226D01*
X168582795Y-93009744D01*
X168504774Y-93198102D01*
X168465000Y-93398061D01*
X168465000Y-93601939D01*
X168504774Y-93801898D01*
X168582795Y-93990256D01*
X168696063Y-94159774D01*
X168840226Y-94303937D01*
X169009744Y-94417205D01*
X169198102Y-94495226D01*
X169398061Y-94535000D01*
X169601939Y-94535000D01*
X169801898Y-94495226D01*
X169990256Y-94417205D01*
X170159774Y-94303937D01*
X170203711Y-94260000D01*
X170932678Y-94260000D01*
X170970000Y-94263676D01*
X171007322Y-94260000D01*
X171007333Y-94260000D01*
X171118986Y-94249003D01*
X171262247Y-94205546D01*
X171394276Y-94134974D01*
X171510001Y-94040001D01*
X171533804Y-94010997D01*
X172485000Y-93059802D01*
X173091201Y-93666003D01*
X173114999Y-93695001D01*
X173230724Y-93789974D01*
X173362753Y-93860546D01*
X173506014Y-93904003D01*
X173617667Y-93915000D01*
X173617677Y-93915000D01*
X173655000Y-93918676D01*
X173692323Y-93915000D01*
X186932291Y-93915000D01*
X186982456Y-93990077D01*
X187147379Y-94155000D01*
X186982456Y-94319923D01*
X186932291Y-94395000D01*
X171882325Y-94395000D01*
X171845000Y-94391324D01*
X171807675Y-94395000D01*
X171807667Y-94395000D01*
X171696014Y-94405997D01*
X171552753Y-94449454D01*
X171420724Y-94520026D01*
X171304999Y-94614999D01*
X171281201Y-94643997D01*
X169434003Y-96491196D01*
X169404999Y-96514999D01*
X169349871Y-96582174D01*
X169310026Y-96630724D01*
X169251930Y-96739413D01*
X169239454Y-96762754D01*
X169195997Y-96906015D01*
X169185000Y-97017668D01*
X169185000Y-97017678D01*
X169181324Y-97055000D01*
X169185000Y-97092323D01*
X169185000Y-97578141D01*
X169126582Y-97546916D01*
X168978745Y-97502071D01*
X168825000Y-97486928D01*
X168525000Y-97486928D01*
X168371255Y-97502071D01*
X168223418Y-97546916D01*
X168087171Y-97619742D01*
X168040000Y-97658454D01*
X167992829Y-97619742D01*
X167856582Y-97546916D01*
X167708745Y-97502071D01*
X167555000Y-97486928D01*
X167255000Y-97486928D01*
X167101255Y-97502071D01*
X166953418Y-97546916D01*
X166817171Y-97619742D01*
X166770000Y-97658454D01*
X166722829Y-97619742D01*
X166586582Y-97546916D01*
X166438745Y-97502071D01*
X166285000Y-97486928D01*
X165985000Y-97486928D01*
X165831255Y-97502071D01*
X165683418Y-97546916D01*
X165547171Y-97619742D01*
X165500000Y-97658454D01*
X165452829Y-97619742D01*
X165316582Y-97546916D01*
X165168745Y-97502071D01*
X165015000Y-97486928D01*
X164715000Y-97486928D01*
X164561255Y-97502071D01*
X164413418Y-97546916D01*
X164277171Y-97619742D01*
X164230000Y-97658454D01*
X164182829Y-97619742D01*
X164046582Y-97546916D01*
X163898745Y-97502071D01*
X163745000Y-97486928D01*
X163445000Y-97486928D01*
X163291255Y-97502071D01*
X163143418Y-97546916D01*
X163007171Y-97619742D01*
X162960000Y-97658454D01*
X162912829Y-97619742D01*
X162776582Y-97546916D01*
X162628745Y-97502071D01*
X162475000Y-97486928D01*
X162175000Y-97486928D01*
X162021255Y-97502071D01*
X161873418Y-97546916D01*
X161737171Y-97619742D01*
X161690000Y-97658454D01*
X161642829Y-97619742D01*
X161506582Y-97546916D01*
X161358745Y-97502071D01*
X161205000Y-97486928D01*
X160905000Y-97486928D01*
X160751255Y-97502071D01*
X160603418Y-97546916D01*
X160467171Y-97619742D01*
X160420000Y-97658454D01*
X160372829Y-97619742D01*
X160236582Y-97546916D01*
X160088745Y-97502071D01*
X159935000Y-97486928D01*
X159635000Y-97486928D01*
X159481255Y-97502071D01*
X159333418Y-97546916D01*
X159197171Y-97619742D01*
X159150000Y-97658454D01*
X159102829Y-97619742D01*
X158966582Y-97546916D01*
X158818745Y-97502071D01*
X158665000Y-97486928D01*
X158365000Y-97486928D01*
X158211255Y-97502071D01*
X158063418Y-97546916D01*
X157927171Y-97619742D01*
X157880000Y-97658454D01*
X157832829Y-97619742D01*
X157696582Y-97546916D01*
X157548745Y-97502071D01*
X157395000Y-97486928D01*
X157095000Y-97486928D01*
X156941255Y-97502071D01*
X156793418Y-97546916D01*
X156657171Y-97619742D01*
X156537749Y-97717749D01*
X156439742Y-97837171D01*
X156366916Y-97973418D01*
X156322071Y-98121255D01*
X156306928Y-98275000D01*
X156306928Y-100025000D01*
X156322071Y-100178745D01*
X156366916Y-100326582D01*
X156439742Y-100462829D01*
X156537749Y-100582251D01*
X156657171Y-100680258D01*
X156793418Y-100753084D01*
X156941255Y-100797929D01*
X157095000Y-100813072D01*
X157395000Y-100813072D01*
X157548745Y-100797929D01*
X157696582Y-100753084D01*
X157832829Y-100680258D01*
X157880000Y-100641546D01*
X157927171Y-100680258D01*
X158063418Y-100753084D01*
X158211255Y-100797929D01*
X158365000Y-100813072D01*
X158665000Y-100813072D01*
X158818745Y-100797929D01*
X158966582Y-100753084D01*
X159102829Y-100680258D01*
X159150000Y-100641546D01*
X159197171Y-100680258D01*
X159333418Y-100753084D01*
X159481255Y-100797929D01*
X159635000Y-100813072D01*
X159935000Y-100813072D01*
X160088745Y-100797929D01*
X160236582Y-100753084D01*
X160295001Y-100721858D01*
X160295000Y-106130198D01*
X158685199Y-107740000D01*
X153037322Y-107740000D01*
X153000000Y-107736324D01*
X152962677Y-107740000D01*
X152962667Y-107740000D01*
X152851014Y-107750997D01*
X152715032Y-107792246D01*
X152707753Y-107794454D01*
X152575723Y-107865026D01*
X152492083Y-107933668D01*
X152459999Y-107959999D01*
X152436201Y-107988997D01*
X150695199Y-109730000D01*
X138614909Y-109730000D01*
X138608918Y-109715537D01*
X138429987Y-109447748D01*
X138202252Y-109220013D01*
X137934463Y-109041082D01*
X137636912Y-108917832D01*
X137321033Y-108855000D01*
X136998967Y-108855000D01*
X136683088Y-108917832D01*
X136385537Y-109041082D01*
X136117748Y-109220013D01*
X135890013Y-109447748D01*
X135711082Y-109715537D01*
X135587832Y-110013088D01*
X135525000Y-110328967D01*
X126660000Y-110328967D01*
X126660000Y-102319268D01*
X126665000Y-102319268D01*
X126665000Y-102680732D01*
X126735518Y-103035250D01*
X126873844Y-103369199D01*
X127074662Y-103669744D01*
X127330256Y-103925338D01*
X127630801Y-104126156D01*
X127964750Y-104264482D01*
X128319268Y-104335000D01*
X128680732Y-104335000D01*
X129035250Y-104264482D01*
X129369199Y-104126156D01*
X129669744Y-103925338D01*
X129925338Y-103669744D01*
X130126156Y-103369199D01*
X130264482Y-103035250D01*
X130335000Y-102680732D01*
X130335000Y-102319268D01*
X138665000Y-102319268D01*
X138665000Y-102680732D01*
X138735518Y-103035250D01*
X138873844Y-103369199D01*
X139074662Y-103669744D01*
X139330256Y-103925338D01*
X139630801Y-104126156D01*
X139964750Y-104264482D01*
X140319268Y-104335000D01*
X140680732Y-104335000D01*
X141035250Y-104264482D01*
X141369199Y-104126156D01*
X141669744Y-103925338D01*
X141925338Y-103669744D01*
X142126156Y-103369199D01*
X142264482Y-103035250D01*
X142335000Y-102680732D01*
X142335000Y-102319268D01*
X142264482Y-101964750D01*
X142126156Y-101630801D01*
X141925338Y-101330256D01*
X141669744Y-101074662D01*
X141369199Y-100873844D01*
X141035250Y-100735518D01*
X140680732Y-100665000D01*
X140319268Y-100665000D01*
X139964750Y-100735518D01*
X139630801Y-100873844D01*
X139330256Y-101074662D01*
X139074662Y-101330256D01*
X138873844Y-101630801D01*
X138735518Y-101964750D01*
X138665000Y-102319268D01*
X130335000Y-102319268D01*
X130264482Y-101964750D01*
X130126156Y-101630801D01*
X129925338Y-101330256D01*
X129669744Y-101074662D01*
X129369199Y-100873844D01*
X129035250Y-100735518D01*
X128680732Y-100665000D01*
X128319268Y-100665000D01*
X127964750Y-100735518D01*
X127630801Y-100873844D01*
X127330256Y-101074662D01*
X127074662Y-101330256D01*
X126873844Y-101630801D01*
X126735518Y-101964750D01*
X126665000Y-102319268D01*
X126660000Y-102319268D01*
X126660000Y-91675000D01*
X133186928Y-91675000D01*
X133199188Y-91799482D01*
X133235498Y-91919180D01*
X133294463Y-92029494D01*
X133373815Y-92126185D01*
X133460697Y-92197487D01*
X133339093Y-92379482D01*
X133240342Y-92617887D01*
X133190000Y-92870976D01*
X133190000Y-93129024D01*
X133240342Y-93382113D01*
X133339093Y-93620518D01*
X133482456Y-93835077D01*
X133647379Y-94000000D01*
X133482456Y-94164923D01*
X133339093Y-94379482D01*
X133240342Y-94617887D01*
X133190000Y-94870976D01*
X133190000Y-95129024D01*
X133240342Y-95382113D01*
X133339093Y-95620518D01*
X133482456Y-95835077D01*
X133647379Y-96000000D01*
X133482456Y-96164923D01*
X133339093Y-96379482D01*
X133240342Y-96617887D01*
X133190000Y-96870976D01*
X133190000Y-97129024D01*
X133240342Y-97382113D01*
X133339093Y-97620518D01*
X133482456Y-97835077D01*
X133664923Y-98017544D01*
X133879482Y-98160907D01*
X134117887Y-98259658D01*
X134370976Y-98310000D01*
X134629024Y-98310000D01*
X134882113Y-98259658D01*
X135120518Y-98160907D01*
X135335077Y-98017544D01*
X135517544Y-97835077D01*
X135660907Y-97620518D01*
X135759658Y-97382113D01*
X135810000Y-97129024D01*
X135810000Y-96870976D01*
X135759658Y-96617887D01*
X135660907Y-96379482D01*
X135517544Y-96164923D01*
X135352621Y-96000000D01*
X135517544Y-95835077D01*
X135660907Y-95620518D01*
X135759658Y-95382113D01*
X135810000Y-95129024D01*
X135810000Y-94870976D01*
X135759658Y-94617887D01*
X135660907Y-94379482D01*
X135638286Y-94345626D01*
X141410000Y-94345626D01*
X141410000Y-94884374D01*
X141515105Y-95412770D01*
X141721275Y-95910508D01*
X142020587Y-96358461D01*
X142401539Y-96739413D01*
X142849492Y-97038725D01*
X143347230Y-97244895D01*
X143875626Y-97350000D01*
X144414374Y-97350000D01*
X144942770Y-97244895D01*
X145440508Y-97038725D01*
X145888461Y-96739413D01*
X146269413Y-96358461D01*
X146568725Y-95910508D01*
X146774895Y-95412770D01*
X146880000Y-94884374D01*
X146880000Y-94345626D01*
X146774895Y-93817230D01*
X146568725Y-93319492D01*
X146495841Y-93210413D01*
X146999192Y-93210413D01*
X147094956Y-93474814D01*
X147384571Y-93615704D01*
X147696108Y-93697384D01*
X148017595Y-93716718D01*
X148336675Y-93672961D01*
X148641088Y-93567795D01*
X148815044Y-93474814D01*
X148910808Y-93210413D01*
X147955000Y-92254605D01*
X146999192Y-93210413D01*
X146495841Y-93210413D01*
X146269413Y-92871539D01*
X145888461Y-92490587D01*
X145440508Y-92191275D01*
X145310914Y-92137595D01*
X146313282Y-92137595D01*
X146357039Y-92456675D01*
X146462205Y-92761088D01*
X146555186Y-92935044D01*
X146819587Y-93030808D01*
X147775395Y-92075000D01*
X148134605Y-92075000D01*
X149090413Y-93030808D01*
X149354814Y-92935044D01*
X149495704Y-92645429D01*
X149577384Y-92333892D01*
X149596718Y-92012405D01*
X149574447Y-91850000D01*
X152511928Y-91850000D01*
X152524188Y-91974482D01*
X152560498Y-92094180D01*
X152619463Y-92204494D01*
X152698815Y-92301185D01*
X152795506Y-92380537D01*
X152905820Y-92439502D01*
X153025518Y-92475812D01*
X153150000Y-92488072D01*
X153714250Y-92485000D01*
X153873000Y-92326250D01*
X153873000Y-91127000D01*
X154127000Y-91127000D01*
X154127000Y-92326250D01*
X154285750Y-92485000D01*
X154850000Y-92488072D01*
X154974482Y-92475812D01*
X155094180Y-92439502D01*
X155204494Y-92380537D01*
X155301185Y-92301185D01*
X155380537Y-92204494D01*
X155439502Y-92094180D01*
X155475812Y-91974482D01*
X155488072Y-91850000D01*
X155485000Y-91285750D01*
X155326250Y-91127000D01*
X154127000Y-91127000D01*
X153873000Y-91127000D01*
X152673750Y-91127000D01*
X152515000Y-91285750D01*
X152511928Y-91850000D01*
X149574447Y-91850000D01*
X149552961Y-91693325D01*
X149447795Y-91388912D01*
X149354814Y-91214956D01*
X149090413Y-91119192D01*
X148134605Y-92075000D01*
X147775395Y-92075000D01*
X146819587Y-91119192D01*
X146555186Y-91214956D01*
X146414296Y-91504571D01*
X146332616Y-91816108D01*
X146313282Y-92137595D01*
X145310914Y-92137595D01*
X144942770Y-91985105D01*
X144414374Y-91880000D01*
X143875626Y-91880000D01*
X143347230Y-91985105D01*
X142849492Y-92191275D01*
X142401539Y-92490587D01*
X142020587Y-92871539D01*
X141721275Y-93319492D01*
X141515105Y-93817230D01*
X141410000Y-94345626D01*
X135638286Y-94345626D01*
X135517544Y-94164923D01*
X135352621Y-94000000D01*
X135517544Y-93835077D01*
X135660907Y-93620518D01*
X135759658Y-93382113D01*
X135810000Y-93129024D01*
X135810000Y-92870976D01*
X135759658Y-92617887D01*
X135660907Y-92379482D01*
X135539303Y-92197487D01*
X135626185Y-92126185D01*
X135705537Y-92029494D01*
X135764502Y-91919180D01*
X135800812Y-91799482D01*
X135813072Y-91675000D01*
X135810000Y-91285750D01*
X135651250Y-91127000D01*
X134627000Y-91127000D01*
X134627000Y-91147000D01*
X134373000Y-91147000D01*
X134373000Y-91127000D01*
X133348750Y-91127000D01*
X133190000Y-91285750D01*
X133186928Y-91675000D01*
X126660000Y-91675000D01*
X126660000Y-90325000D01*
X133186928Y-90325000D01*
X133190000Y-90714250D01*
X133348750Y-90873000D01*
X134373000Y-90873000D01*
X134373000Y-89848750D01*
X134627000Y-89848750D01*
X134627000Y-90873000D01*
X135651250Y-90873000D01*
X135810000Y-90714250D01*
X135813072Y-90325000D01*
X135800812Y-90200518D01*
X135764502Y-90080820D01*
X135705537Y-89970506D01*
X135626185Y-89873815D01*
X135529494Y-89794463D01*
X135419180Y-89735498D01*
X135299482Y-89699188D01*
X135175000Y-89686928D01*
X134785750Y-89690000D01*
X134627000Y-89848750D01*
X134373000Y-89848750D01*
X134214250Y-89690000D01*
X133825000Y-89686928D01*
X133700518Y-89699188D01*
X133580820Y-89735498D01*
X133470506Y-89794463D01*
X133373815Y-89873815D01*
X133294463Y-89970506D01*
X133235498Y-90080820D01*
X133199188Y-90200518D01*
X133186928Y-90325000D01*
X126660000Y-90325000D01*
X126660000Y-86319268D01*
X126665000Y-86319268D01*
X126665000Y-86680732D01*
X126735518Y-87035250D01*
X126873844Y-87369199D01*
X127074662Y-87669744D01*
X127330256Y-87925338D01*
X127630801Y-88126156D01*
X127964750Y-88264482D01*
X128319268Y-88335000D01*
X128680732Y-88335000D01*
X129035250Y-88264482D01*
X129369199Y-88126156D01*
X129669744Y-87925338D01*
X129925338Y-87669744D01*
X130126156Y-87369199D01*
X130264482Y-87035250D01*
X130335000Y-86680732D01*
X130335000Y-86319268D01*
X138665000Y-86319268D01*
X138665000Y-86680732D01*
X138735518Y-87035250D01*
X138873844Y-87369199D01*
X139074662Y-87669744D01*
X139330256Y-87925338D01*
X139630801Y-88126156D01*
X139964750Y-88264482D01*
X140319268Y-88335000D01*
X140492761Y-88335000D01*
X140335013Y-88492748D01*
X140156082Y-88760537D01*
X140032832Y-89058088D01*
X139970000Y-89373967D01*
X139970000Y-89696033D01*
X140032832Y-90011912D01*
X140156082Y-90309463D01*
X140335013Y-90577252D01*
X140562748Y-90804987D01*
X140830537Y-90983918D01*
X141128088Y-91107168D01*
X141443967Y-91170000D01*
X141766033Y-91170000D01*
X142081912Y-91107168D01*
X142379463Y-90983918D01*
X142445808Y-90939587D01*
X146999192Y-90939587D01*
X147955000Y-91895395D01*
X148910808Y-90939587D01*
X148815044Y-90675186D01*
X148525429Y-90534296D01*
X148213892Y-90452616D01*
X147892405Y-90433282D01*
X147573325Y-90477039D01*
X147268912Y-90582205D01*
X147094956Y-90675186D01*
X146999192Y-90939587D01*
X142445808Y-90939587D01*
X142647252Y-90804987D01*
X142874987Y-90577252D01*
X143053918Y-90309463D01*
X143119969Y-90150000D01*
X152511928Y-90150000D01*
X152515000Y-90714250D01*
X152673750Y-90873000D01*
X153873000Y-90873000D01*
X153873000Y-90853000D01*
X154127000Y-90853000D01*
X154127000Y-90873000D01*
X155326250Y-90873000D01*
X155485000Y-90714250D01*
X155488072Y-90150000D01*
X155475812Y-90025518D01*
X155439502Y-89905820D01*
X155380537Y-89795506D01*
X155301185Y-89698815D01*
X155204494Y-89619463D01*
X155094180Y-89560498D01*
X155021620Y-89538487D01*
X155153475Y-89406632D01*
X155315990Y-89163411D01*
X155427932Y-88893158D01*
X155485000Y-88606260D01*
X155485000Y-88313740D01*
X155427932Y-88026842D01*
X155315990Y-87756589D01*
X155153475Y-87513368D01*
X154946632Y-87306525D01*
X154703411Y-87144010D01*
X154433158Y-87032068D01*
X154146260Y-86975000D01*
X153853740Y-86975000D01*
X153566842Y-87032068D01*
X153296589Y-87144010D01*
X153053368Y-87306525D01*
X152846525Y-87513368D01*
X152684010Y-87756589D01*
X152572068Y-88026842D01*
X152515000Y-88313740D01*
X152515000Y-88606260D01*
X152572068Y-88893158D01*
X152684010Y-89163411D01*
X152846525Y-89406632D01*
X152978380Y-89538487D01*
X152905820Y-89560498D01*
X152795506Y-89619463D01*
X152698815Y-89698815D01*
X152619463Y-89795506D01*
X152560498Y-89905820D01*
X152524188Y-90025518D01*
X152511928Y-90150000D01*
X143119969Y-90150000D01*
X143177168Y-90011912D01*
X143240000Y-89696033D01*
X143240000Y-89373967D01*
X143177168Y-89058088D01*
X143053918Y-88760537D01*
X142874987Y-88492748D01*
X142647252Y-88265013D01*
X142379463Y-88086082D01*
X142081912Y-87962832D01*
X141766033Y-87900000D01*
X141695082Y-87900000D01*
X141925338Y-87669744D01*
X142126156Y-87369199D01*
X142264482Y-87035250D01*
X142335000Y-86680732D01*
X142335000Y-86319268D01*
X142264482Y-85964750D01*
X142126156Y-85630801D01*
X141925338Y-85330256D01*
X141669744Y-85074662D01*
X141369199Y-84873844D01*
X141035250Y-84735518D01*
X140680732Y-84665000D01*
X140319268Y-84665000D01*
X139964750Y-84735518D01*
X139630801Y-84873844D01*
X139330256Y-85074662D01*
X139074662Y-85330256D01*
X138873844Y-85630801D01*
X138735518Y-85964750D01*
X138665000Y-86319268D01*
X130335000Y-86319268D01*
X130264482Y-85964750D01*
X130126156Y-85630801D01*
X129925338Y-85330256D01*
X129669744Y-85074662D01*
X129369199Y-84873844D01*
X129035250Y-84735518D01*
X128680732Y-84665000D01*
X128319268Y-84665000D01*
X127964750Y-84735518D01*
X127630801Y-84873844D01*
X127330256Y-85074662D01*
X127074662Y-85330256D01*
X126873844Y-85630801D01*
X126735518Y-85964750D01*
X126665000Y-86319268D01*
X126660000Y-86319268D01*
X126660000Y-77943967D01*
X130445000Y-77943967D01*
X130445000Y-78266033D01*
X130507832Y-78581912D01*
X130631082Y-78879463D01*
X130810013Y-79147252D01*
X131037748Y-79374987D01*
X131305537Y-79553918D01*
X131603088Y-79677168D01*
X131918967Y-79740000D01*
X132241033Y-79740000D01*
X132556912Y-79677168D01*
X132854463Y-79553918D01*
X133122252Y-79374987D01*
X133349987Y-79147252D01*
X133528918Y-78879463D01*
X133652168Y-78581912D01*
X133715000Y-78266033D01*
X133715000Y-77943967D01*
X148225000Y-77943967D01*
X148225000Y-78266033D01*
X148287832Y-78581912D01*
X148411082Y-78879463D01*
X148590013Y-79147252D01*
X148817748Y-79374987D01*
X149085537Y-79553918D01*
X149383088Y-79677168D01*
X149698967Y-79740000D01*
X150021033Y-79740000D01*
X150336912Y-79677168D01*
X150634463Y-79553918D01*
X150902252Y-79374987D01*
X151129987Y-79147252D01*
X151308918Y-78879463D01*
X151432168Y-78581912D01*
X151495000Y-78266033D01*
X151495000Y-77943967D01*
X166005000Y-77943967D01*
X166005000Y-78266033D01*
X166067832Y-78581912D01*
X166191082Y-78879463D01*
X166370013Y-79147252D01*
X166597748Y-79374987D01*
X166865537Y-79553918D01*
X167163088Y-79677168D01*
X167478967Y-79740000D01*
X167801033Y-79740000D01*
X168116912Y-79677168D01*
X168414463Y-79553918D01*
X168682252Y-79374987D01*
X168909987Y-79147252D01*
X169088918Y-78879463D01*
X169212168Y-78581912D01*
X169275000Y-78266033D01*
X169275000Y-77943967D01*
X183785000Y-77943967D01*
X183785000Y-78266033D01*
X183847832Y-78581912D01*
X183971082Y-78879463D01*
X184150013Y-79147252D01*
X184377748Y-79374987D01*
X184645537Y-79553918D01*
X184943088Y-79677168D01*
X185258967Y-79740000D01*
X185581033Y-79740000D01*
X185896912Y-79677168D01*
X186194463Y-79553918D01*
X186462252Y-79374987D01*
X186689987Y-79147252D01*
X186868918Y-78879463D01*
X186992168Y-78581912D01*
X187055000Y-78266033D01*
X187055000Y-77943967D01*
X186992168Y-77628088D01*
X186868918Y-77330537D01*
X186689987Y-77062748D01*
X186462252Y-76835013D01*
X186260809Y-76700413D01*
X190814192Y-76700413D01*
X190909956Y-76964814D01*
X191199571Y-77105704D01*
X191511108Y-77187384D01*
X191832595Y-77206718D01*
X192151675Y-77162961D01*
X192456088Y-77057795D01*
X192630044Y-76964814D01*
X192725808Y-76700413D01*
X191770000Y-75744605D01*
X190814192Y-76700413D01*
X186260809Y-76700413D01*
X186194463Y-76656082D01*
X185896912Y-76532832D01*
X185581033Y-76470000D01*
X185258967Y-76470000D01*
X184943088Y-76532832D01*
X184645537Y-76656082D01*
X184377748Y-76835013D01*
X184150013Y-77062748D01*
X183971082Y-77330537D01*
X183847832Y-77628088D01*
X183785000Y-77943967D01*
X169275000Y-77943967D01*
X169212168Y-77628088D01*
X169088918Y-77330537D01*
X168909987Y-77062748D01*
X168682252Y-76835013D01*
X168480809Y-76700413D01*
X173034192Y-76700413D01*
X173129956Y-76964814D01*
X173419571Y-77105704D01*
X173731108Y-77187384D01*
X174052595Y-77206718D01*
X174371675Y-77162961D01*
X174676088Y-77057795D01*
X174850044Y-76964814D01*
X174945808Y-76700413D01*
X173990000Y-75744605D01*
X173034192Y-76700413D01*
X168480809Y-76700413D01*
X168414463Y-76656082D01*
X168116912Y-76532832D01*
X167801033Y-76470000D01*
X167478967Y-76470000D01*
X167163088Y-76532832D01*
X166865537Y-76656082D01*
X166597748Y-76835013D01*
X166370013Y-77062748D01*
X166191082Y-77330537D01*
X166067832Y-77628088D01*
X166005000Y-77943967D01*
X151495000Y-77943967D01*
X151432168Y-77628088D01*
X151308918Y-77330537D01*
X151129987Y-77062748D01*
X150902252Y-76835013D01*
X150700809Y-76700413D01*
X155254192Y-76700413D01*
X155349956Y-76964814D01*
X155639571Y-77105704D01*
X155951108Y-77187384D01*
X156272595Y-77206718D01*
X156591675Y-77162961D01*
X156896088Y-77057795D01*
X157070044Y-76964814D01*
X157165808Y-76700413D01*
X156210000Y-75744605D01*
X155254192Y-76700413D01*
X150700809Y-76700413D01*
X150634463Y-76656082D01*
X150336912Y-76532832D01*
X150021033Y-76470000D01*
X149698967Y-76470000D01*
X149383088Y-76532832D01*
X149085537Y-76656082D01*
X148817748Y-76835013D01*
X148590013Y-77062748D01*
X148411082Y-77330537D01*
X148287832Y-77628088D01*
X148225000Y-77943967D01*
X133715000Y-77943967D01*
X133652168Y-77628088D01*
X133528918Y-77330537D01*
X133349987Y-77062748D01*
X133122252Y-76835013D01*
X132920809Y-76700413D01*
X137474192Y-76700413D01*
X137569956Y-76964814D01*
X137859571Y-77105704D01*
X138171108Y-77187384D01*
X138492595Y-77206718D01*
X138811675Y-77162961D01*
X139116088Y-77057795D01*
X139290044Y-76964814D01*
X139385808Y-76700413D01*
X138430000Y-75744605D01*
X137474192Y-76700413D01*
X132920809Y-76700413D01*
X132854463Y-76656082D01*
X132556912Y-76532832D01*
X132241033Y-76470000D01*
X131918967Y-76470000D01*
X131603088Y-76532832D01*
X131305537Y-76656082D01*
X131037748Y-76835013D01*
X130810013Y-77062748D01*
X130631082Y-77330537D01*
X130507832Y-77628088D01*
X130445000Y-77943967D01*
X126660000Y-77943967D01*
X126660000Y-72755626D01*
X131885000Y-72755626D01*
X131885000Y-73294374D01*
X131990105Y-73822770D01*
X132196275Y-74320508D01*
X132495587Y-74768461D01*
X132876539Y-75149413D01*
X133324492Y-75448725D01*
X133822230Y-75654895D01*
X134350626Y-75760000D01*
X134889374Y-75760000D01*
X135417770Y-75654895D01*
X135483677Y-75627595D01*
X136788282Y-75627595D01*
X136832039Y-75946675D01*
X136937205Y-76251088D01*
X137030186Y-76425044D01*
X137294587Y-76520808D01*
X138250395Y-75565000D01*
X138609605Y-75565000D01*
X139565413Y-76520808D01*
X139829814Y-76425044D01*
X139970704Y-76135429D01*
X140052384Y-75823892D01*
X140071718Y-75502405D01*
X140027961Y-75183325D01*
X139922795Y-74878912D01*
X139829814Y-74704956D01*
X139565413Y-74609192D01*
X138609605Y-75565000D01*
X138250395Y-75565000D01*
X137294587Y-74609192D01*
X137030186Y-74704956D01*
X136889296Y-74994571D01*
X136807616Y-75306108D01*
X136788282Y-75627595D01*
X135483677Y-75627595D01*
X135915508Y-75448725D01*
X136363461Y-75149413D01*
X136744413Y-74768461D01*
X136970840Y-74429587D01*
X137474192Y-74429587D01*
X138430000Y-75385395D01*
X139385808Y-74429587D01*
X139290044Y-74165186D01*
X139000429Y-74024296D01*
X138688892Y-73942616D01*
X138367405Y-73923282D01*
X138048325Y-73967039D01*
X137743912Y-74072205D01*
X137569956Y-74165186D01*
X137474192Y-74429587D01*
X136970840Y-74429587D01*
X137043725Y-74320508D01*
X137249895Y-73822770D01*
X137355000Y-73294374D01*
X137355000Y-72755626D01*
X149665000Y-72755626D01*
X149665000Y-73294374D01*
X149770105Y-73822770D01*
X149976275Y-74320508D01*
X150275587Y-74768461D01*
X150656539Y-75149413D01*
X151104492Y-75448725D01*
X151602230Y-75654895D01*
X152130626Y-75760000D01*
X152669374Y-75760000D01*
X153197770Y-75654895D01*
X153263677Y-75627595D01*
X154568282Y-75627595D01*
X154612039Y-75946675D01*
X154717205Y-76251088D01*
X154810186Y-76425044D01*
X155074587Y-76520808D01*
X156030395Y-75565000D01*
X156389605Y-75565000D01*
X157345413Y-76520808D01*
X157609814Y-76425044D01*
X157750704Y-76135429D01*
X157832384Y-75823892D01*
X157851718Y-75502405D01*
X157807961Y-75183325D01*
X157702795Y-74878912D01*
X157609814Y-74704956D01*
X157345413Y-74609192D01*
X156389605Y-75565000D01*
X156030395Y-75565000D01*
X155074587Y-74609192D01*
X154810186Y-74704956D01*
X154669296Y-74994571D01*
X154587616Y-75306108D01*
X154568282Y-75627595D01*
X153263677Y-75627595D01*
X153695508Y-75448725D01*
X154143461Y-75149413D01*
X154524413Y-74768461D01*
X154750840Y-74429587D01*
X155254192Y-74429587D01*
X156210000Y-75385395D01*
X157165808Y-74429587D01*
X157070044Y-74165186D01*
X156780429Y-74024296D01*
X156468892Y-73942616D01*
X156147405Y-73923282D01*
X155828325Y-73967039D01*
X155523912Y-74072205D01*
X155349956Y-74165186D01*
X155254192Y-74429587D01*
X154750840Y-74429587D01*
X154823725Y-74320508D01*
X155029895Y-73822770D01*
X155135000Y-73294374D01*
X155135000Y-72755626D01*
X167445000Y-72755626D01*
X167445000Y-73294374D01*
X167550105Y-73822770D01*
X167756275Y-74320508D01*
X168055587Y-74768461D01*
X168436539Y-75149413D01*
X168884492Y-75448725D01*
X169382230Y-75654895D01*
X169910626Y-75760000D01*
X170449374Y-75760000D01*
X170977770Y-75654895D01*
X171043677Y-75627595D01*
X172348282Y-75627595D01*
X172392039Y-75946675D01*
X172497205Y-76251088D01*
X172590186Y-76425044D01*
X172854587Y-76520808D01*
X173810395Y-75565000D01*
X174169605Y-75565000D01*
X175125413Y-76520808D01*
X175389814Y-76425044D01*
X175530704Y-76135429D01*
X175612384Y-75823892D01*
X175631718Y-75502405D01*
X175587961Y-75183325D01*
X175482795Y-74878912D01*
X175389814Y-74704956D01*
X175125413Y-74609192D01*
X174169605Y-75565000D01*
X173810395Y-75565000D01*
X172854587Y-74609192D01*
X172590186Y-74704956D01*
X172449296Y-74994571D01*
X172367616Y-75306108D01*
X172348282Y-75627595D01*
X171043677Y-75627595D01*
X171475508Y-75448725D01*
X171923461Y-75149413D01*
X172304413Y-74768461D01*
X172530840Y-74429587D01*
X173034192Y-74429587D01*
X173990000Y-75385395D01*
X174945808Y-74429587D01*
X174850044Y-74165186D01*
X174560429Y-74024296D01*
X174248892Y-73942616D01*
X173927405Y-73923282D01*
X173608325Y-73967039D01*
X173303912Y-74072205D01*
X173129956Y-74165186D01*
X173034192Y-74429587D01*
X172530840Y-74429587D01*
X172603725Y-74320508D01*
X172809895Y-73822770D01*
X172915000Y-73294374D01*
X172915000Y-72755626D01*
X172809895Y-72227230D01*
X172703347Y-71970000D01*
X177581928Y-71970000D01*
X177594188Y-72094482D01*
X177630498Y-72214180D01*
X177689463Y-72324494D01*
X177768815Y-72421185D01*
X177865506Y-72500537D01*
X177975820Y-72559502D01*
X178048380Y-72581513D01*
X177916525Y-72713368D01*
X177754010Y-72956589D01*
X177642068Y-73226842D01*
X177585000Y-73513740D01*
X177585000Y-73806260D01*
X177642068Y-74093158D01*
X177754010Y-74363411D01*
X177916525Y-74606632D01*
X178123368Y-74813475D01*
X178366589Y-74975990D01*
X178636842Y-75087932D01*
X178923740Y-75145000D01*
X179216260Y-75145000D01*
X179503158Y-75087932D01*
X179773411Y-74975990D01*
X180016632Y-74813475D01*
X180223475Y-74606632D01*
X180385990Y-74363411D01*
X180497932Y-74093158D01*
X180555000Y-73806260D01*
X180555000Y-73513740D01*
X180497932Y-73226842D01*
X180385990Y-72956589D01*
X180251711Y-72755626D01*
X185225000Y-72755626D01*
X185225000Y-73294374D01*
X185330105Y-73822770D01*
X185536275Y-74320508D01*
X185835587Y-74768461D01*
X186216539Y-75149413D01*
X186664492Y-75448725D01*
X187162230Y-75654895D01*
X187690626Y-75760000D01*
X188229374Y-75760000D01*
X188757770Y-75654895D01*
X188823677Y-75627595D01*
X190128282Y-75627595D01*
X190172039Y-75946675D01*
X190277205Y-76251088D01*
X190370186Y-76425044D01*
X190634587Y-76520808D01*
X191590395Y-75565000D01*
X191949605Y-75565000D01*
X192905413Y-76520808D01*
X193169814Y-76425044D01*
X193310704Y-76135429D01*
X193392384Y-75823892D01*
X193411718Y-75502405D01*
X193367961Y-75183325D01*
X193262795Y-74878912D01*
X193169814Y-74704956D01*
X192905413Y-74609192D01*
X191949605Y-75565000D01*
X191590395Y-75565000D01*
X190634587Y-74609192D01*
X190370186Y-74704956D01*
X190229296Y-74994571D01*
X190147616Y-75306108D01*
X190128282Y-75627595D01*
X188823677Y-75627595D01*
X189255508Y-75448725D01*
X189703461Y-75149413D01*
X190084413Y-74768461D01*
X190310840Y-74429587D01*
X190814192Y-74429587D01*
X191770000Y-75385395D01*
X192725808Y-74429587D01*
X192630044Y-74165186D01*
X192340429Y-74024296D01*
X192028892Y-73942616D01*
X191707405Y-73923282D01*
X191388325Y-73967039D01*
X191083912Y-74072205D01*
X190909956Y-74165186D01*
X190814192Y-74429587D01*
X190310840Y-74429587D01*
X190383725Y-74320508D01*
X190589895Y-73822770D01*
X190695000Y-73294374D01*
X190695000Y-72755626D01*
X190589895Y-72227230D01*
X190383725Y-71729492D01*
X190084413Y-71281539D01*
X189703461Y-70900587D01*
X189255508Y-70601275D01*
X188757770Y-70395105D01*
X188229374Y-70290000D01*
X187690626Y-70290000D01*
X187162230Y-70395105D01*
X186664492Y-70601275D01*
X186216539Y-70900587D01*
X185835587Y-71281539D01*
X185536275Y-71729492D01*
X185330105Y-72227230D01*
X185225000Y-72755626D01*
X180251711Y-72755626D01*
X180223475Y-72713368D01*
X180091620Y-72581513D01*
X180164180Y-72559502D01*
X180274494Y-72500537D01*
X180371185Y-72421185D01*
X180450537Y-72324494D01*
X180509502Y-72214180D01*
X180545812Y-72094482D01*
X180558072Y-71970000D01*
X180555000Y-71405750D01*
X180396250Y-71247000D01*
X179197000Y-71247000D01*
X179197000Y-71267000D01*
X178943000Y-71267000D01*
X178943000Y-71247000D01*
X177743750Y-71247000D01*
X177585000Y-71405750D01*
X177581928Y-71970000D01*
X172703347Y-71970000D01*
X172603725Y-71729492D01*
X172304413Y-71281539D01*
X171923461Y-70900587D01*
X171475508Y-70601275D01*
X170977770Y-70395105D01*
X170449374Y-70290000D01*
X169910626Y-70290000D01*
X169382230Y-70395105D01*
X168884492Y-70601275D01*
X168436539Y-70900587D01*
X168055587Y-71281539D01*
X167756275Y-71729492D01*
X167550105Y-72227230D01*
X167445000Y-72755626D01*
X155135000Y-72755626D01*
X155029895Y-72227230D01*
X154823725Y-71729492D01*
X154524413Y-71281539D01*
X154143461Y-70900587D01*
X153695508Y-70601275D01*
X153197770Y-70395105D01*
X152669374Y-70290000D01*
X152130626Y-70290000D01*
X151602230Y-70395105D01*
X151104492Y-70601275D01*
X150656539Y-70900587D01*
X150275587Y-71281539D01*
X149976275Y-71729492D01*
X149770105Y-72227230D01*
X149665000Y-72755626D01*
X137355000Y-72755626D01*
X137249895Y-72227230D01*
X137043725Y-71729492D01*
X136744413Y-71281539D01*
X136363461Y-70900587D01*
X135915508Y-70601275D01*
X135417770Y-70395105D01*
X134889374Y-70290000D01*
X134350626Y-70290000D01*
X133822230Y-70395105D01*
X133324492Y-70601275D01*
X132876539Y-70900587D01*
X132495587Y-71281539D01*
X132196275Y-71729492D01*
X131990105Y-72227230D01*
X131885000Y-72755626D01*
X126660000Y-72755626D01*
X126660000Y-70270000D01*
X177581928Y-70270000D01*
X177585000Y-70834250D01*
X177743750Y-70993000D01*
X178943000Y-70993000D01*
X178943000Y-69793750D01*
X179197000Y-69793750D01*
X179197000Y-70993000D01*
X180396250Y-70993000D01*
X180555000Y-70834250D01*
X180558072Y-70270000D01*
X180545812Y-70145518D01*
X180509502Y-70025820D01*
X180450537Y-69915506D01*
X180371185Y-69818815D01*
X180274494Y-69739463D01*
X180164180Y-69680498D01*
X180044482Y-69644188D01*
X179920000Y-69631928D01*
X179355750Y-69635000D01*
X179197000Y-69793750D01*
X178943000Y-69793750D01*
X178784250Y-69635000D01*
X178220000Y-69631928D01*
X178095518Y-69644188D01*
X177975820Y-69680498D01*
X177865506Y-69739463D01*
X177768815Y-69818815D01*
X177689463Y-69915506D01*
X177630498Y-70025820D01*
X177594188Y-70145518D01*
X177581928Y-70270000D01*
X126660000Y-70270000D01*
X126660000Y-65532279D01*
X126669580Y-65434576D01*
X126688580Y-65371644D01*
X126719445Y-65313595D01*
X126760989Y-65262657D01*
X126811644Y-65220752D01*
X126869471Y-65189485D01*
X126932272Y-65170044D01*
X127027835Y-65160000D01*
X195467721Y-65160000D01*
X195565424Y-65169580D01*
G04 #@! TA.AperFunction,Conductor*
D21*
G36*
X195565424Y-65169580D02*
G01*
X195628356Y-65188580D01*
X195686405Y-65219445D01*
X195737343Y-65260989D01*
X195779248Y-65311644D01*
X195810515Y-65369471D01*
X195829956Y-65432272D01*
X195840001Y-65527845D01*
X195840000Y-122967721D01*
X195830420Y-123065424D01*
X195811420Y-123128357D01*
X195780554Y-123186406D01*
X195739011Y-123237343D01*
X195688356Y-123279248D01*
X195630529Y-123310515D01*
X195567728Y-123329956D01*
X195472165Y-123340000D01*
X127032279Y-123340000D01*
X126934576Y-123330420D01*
X126871643Y-123311420D01*
X126813594Y-123280554D01*
X126762657Y-123239011D01*
X126720752Y-123188356D01*
X126689485Y-123130529D01*
X126670044Y-123067728D01*
X126660000Y-122972165D01*
X126660000Y-118350000D01*
X177511928Y-118350000D01*
X177524188Y-118474482D01*
X177560498Y-118594180D01*
X177619463Y-118704494D01*
X177698815Y-118801185D01*
X177795506Y-118880537D01*
X177905820Y-118939502D01*
X178025518Y-118975812D01*
X178150000Y-118988072D01*
X178714250Y-118985000D01*
X178873000Y-118826250D01*
X178873000Y-117627000D01*
X179127000Y-117627000D01*
X179127000Y-118826250D01*
X179285750Y-118985000D01*
X179850000Y-118988072D01*
X179974482Y-118975812D01*
X180094180Y-118939502D01*
X180204494Y-118880537D01*
X180301185Y-118801185D01*
X180380537Y-118704494D01*
X180439502Y-118594180D01*
X180475812Y-118474482D01*
X180488072Y-118350000D01*
X180485000Y-117785750D01*
X180326250Y-117627000D01*
X179127000Y-117627000D01*
X178873000Y-117627000D01*
X177673750Y-117627000D01*
X177515000Y-117785750D01*
X177511928Y-118350000D01*
X126660000Y-118350000D01*
X126660000Y-115300626D01*
X131885000Y-115300626D01*
X131885000Y-115839374D01*
X131990105Y-116367770D01*
X132196275Y-116865508D01*
X132495587Y-117313461D01*
X132876539Y-117694413D01*
X133324492Y-117993725D01*
X133822230Y-118199895D01*
X134350626Y-118305000D01*
X134889374Y-118305000D01*
X135417770Y-118199895D01*
X135915508Y-117993725D01*
X136363461Y-117694413D01*
X136744413Y-117313461D01*
X137043725Y-116865508D01*
X137249895Y-116367770D01*
X137355000Y-115839374D01*
X137355000Y-115300626D01*
X149665000Y-115300626D01*
X149665000Y-115839374D01*
X149770105Y-116367770D01*
X149976275Y-116865508D01*
X150275587Y-117313461D01*
X150656539Y-117694413D01*
X151104492Y-117993725D01*
X151602230Y-118199895D01*
X152130626Y-118305000D01*
X152669374Y-118305000D01*
X153197770Y-118199895D01*
X153695508Y-117993725D01*
X154143461Y-117694413D01*
X154524413Y-117313461D01*
X154823725Y-116865508D01*
X155029895Y-116367770D01*
X155135000Y-115839374D01*
X155135000Y-115300626D01*
X167445000Y-115300626D01*
X167445000Y-115839374D01*
X167550105Y-116367770D01*
X167756275Y-116865508D01*
X168055587Y-117313461D01*
X168436539Y-117694413D01*
X168884492Y-117993725D01*
X169382230Y-118199895D01*
X169910626Y-118305000D01*
X170449374Y-118305000D01*
X170977770Y-118199895D01*
X171475508Y-117993725D01*
X171923461Y-117694413D01*
X172304413Y-117313461D01*
X172603725Y-116865508D01*
X172692991Y-116650000D01*
X177511928Y-116650000D01*
X177515000Y-117214250D01*
X177673750Y-117373000D01*
X178873000Y-117373000D01*
X178873000Y-117353000D01*
X179127000Y-117353000D01*
X179127000Y-117373000D01*
X180326250Y-117373000D01*
X180485000Y-117214250D01*
X180488072Y-116650000D01*
X180475812Y-116525518D01*
X180439502Y-116405820D01*
X180380537Y-116295506D01*
X180301185Y-116198815D01*
X180204494Y-116119463D01*
X180094180Y-116060498D01*
X180021620Y-116038487D01*
X180153475Y-115906632D01*
X180315990Y-115663411D01*
X180427932Y-115393158D01*
X180446337Y-115300626D01*
X185225000Y-115300626D01*
X185225000Y-115839374D01*
X185330105Y-116367770D01*
X185536275Y-116865508D01*
X185835587Y-117313461D01*
X186216539Y-117694413D01*
X186664492Y-117993725D01*
X187162230Y-118199895D01*
X187690626Y-118305000D01*
X188229374Y-118305000D01*
X188757770Y-118199895D01*
X189255508Y-117993725D01*
X189703461Y-117694413D01*
X190084413Y-117313461D01*
X190383725Y-116865508D01*
X190589895Y-116367770D01*
X190695000Y-115839374D01*
X190695000Y-115300626D01*
X190589895Y-114772230D01*
X190383725Y-114274492D01*
X190084413Y-113826539D01*
X189703461Y-113445587D01*
X189255508Y-113146275D01*
X188757770Y-112940105D01*
X188229374Y-112835000D01*
X187690626Y-112835000D01*
X187162230Y-112940105D01*
X186664492Y-113146275D01*
X186216539Y-113445587D01*
X185835587Y-113826539D01*
X185536275Y-114274492D01*
X185330105Y-114772230D01*
X185225000Y-115300626D01*
X180446337Y-115300626D01*
X180485000Y-115106260D01*
X180485000Y-114813740D01*
X180427932Y-114526842D01*
X180315990Y-114256589D01*
X180255069Y-114165413D01*
X183194192Y-114165413D01*
X183289956Y-114429814D01*
X183579571Y-114570704D01*
X183891108Y-114652384D01*
X184212595Y-114671718D01*
X184531675Y-114627961D01*
X184836088Y-114522795D01*
X185010044Y-114429814D01*
X185105808Y-114165413D01*
X184150000Y-113209605D01*
X183194192Y-114165413D01*
X180255069Y-114165413D01*
X180153475Y-114013368D01*
X179946632Y-113806525D01*
X179703411Y-113644010D01*
X179433158Y-113532068D01*
X179146260Y-113475000D01*
X178853740Y-113475000D01*
X178566842Y-113532068D01*
X178296589Y-113644010D01*
X178053368Y-113806525D01*
X177846525Y-114013368D01*
X177684010Y-114256589D01*
X177572068Y-114526842D01*
X177515000Y-114813740D01*
X177515000Y-115106260D01*
X177572068Y-115393158D01*
X177684010Y-115663411D01*
X177846525Y-115906632D01*
X177978380Y-116038487D01*
X177905820Y-116060498D01*
X177795506Y-116119463D01*
X177698815Y-116198815D01*
X177619463Y-116295506D01*
X177560498Y-116405820D01*
X177524188Y-116525518D01*
X177511928Y-116650000D01*
X172692991Y-116650000D01*
X172809895Y-116367770D01*
X172915000Y-115839374D01*
X172915000Y-115300626D01*
X172809895Y-114772230D01*
X172603725Y-114274492D01*
X172304413Y-113826539D01*
X171923461Y-113445587D01*
X171475508Y-113146275D01*
X171345914Y-113092595D01*
X182508282Y-113092595D01*
X182552039Y-113411675D01*
X182657205Y-113716088D01*
X182750186Y-113890044D01*
X183014587Y-113985808D01*
X183970395Y-113030000D01*
X184329605Y-113030000D01*
X185285413Y-113985808D01*
X185549814Y-113890044D01*
X185690704Y-113600429D01*
X185772384Y-113288892D01*
X185791718Y-112967405D01*
X185747961Y-112648325D01*
X185642795Y-112343912D01*
X185549814Y-112169956D01*
X185285413Y-112074192D01*
X184329605Y-113030000D01*
X183970395Y-113030000D01*
X183014587Y-112074192D01*
X182750186Y-112169956D01*
X182609296Y-112459571D01*
X182527616Y-112771108D01*
X182508282Y-113092595D01*
X171345914Y-113092595D01*
X170977770Y-112940105D01*
X170449374Y-112835000D01*
X169910626Y-112835000D01*
X169382230Y-112940105D01*
X168884492Y-113146275D01*
X168436539Y-113445587D01*
X168055587Y-113826539D01*
X167756275Y-114274492D01*
X167550105Y-114772230D01*
X167445000Y-115300626D01*
X155135000Y-115300626D01*
X155029895Y-114772230D01*
X154823725Y-114274492D01*
X154750841Y-114165413D01*
X165414192Y-114165413D01*
X165509956Y-114429814D01*
X165799571Y-114570704D01*
X166111108Y-114652384D01*
X166432595Y-114671718D01*
X166751675Y-114627961D01*
X167056088Y-114522795D01*
X167230044Y-114429814D01*
X167325808Y-114165413D01*
X166370000Y-113209605D01*
X165414192Y-114165413D01*
X154750841Y-114165413D01*
X154524413Y-113826539D01*
X154143461Y-113445587D01*
X153695508Y-113146275D01*
X153565914Y-113092595D01*
X164728282Y-113092595D01*
X164772039Y-113411675D01*
X164877205Y-113716088D01*
X164970186Y-113890044D01*
X165234587Y-113985808D01*
X166190395Y-113030000D01*
X166549605Y-113030000D01*
X167505413Y-113985808D01*
X167769814Y-113890044D01*
X167910704Y-113600429D01*
X167992384Y-113288892D01*
X168011718Y-112967405D01*
X167967961Y-112648325D01*
X167862795Y-112343912D01*
X167769814Y-112169956D01*
X167505413Y-112074192D01*
X166549605Y-113030000D01*
X166190395Y-113030000D01*
X165234587Y-112074192D01*
X164970186Y-112169956D01*
X164829296Y-112459571D01*
X164747616Y-112771108D01*
X164728282Y-113092595D01*
X153565914Y-113092595D01*
X153197770Y-112940105D01*
X152669374Y-112835000D01*
X152130626Y-112835000D01*
X151602230Y-112940105D01*
X151104492Y-113146275D01*
X150656539Y-113445587D01*
X150275587Y-113826539D01*
X149976275Y-114274492D01*
X149770105Y-114772230D01*
X149665000Y-115300626D01*
X137355000Y-115300626D01*
X137249895Y-114772230D01*
X137043725Y-114274492D01*
X136970841Y-114165413D01*
X147634192Y-114165413D01*
X147729956Y-114429814D01*
X148019571Y-114570704D01*
X148331108Y-114652384D01*
X148652595Y-114671718D01*
X148971675Y-114627961D01*
X149276088Y-114522795D01*
X149450044Y-114429814D01*
X149545808Y-114165413D01*
X148590000Y-113209605D01*
X147634192Y-114165413D01*
X136970841Y-114165413D01*
X136744413Y-113826539D01*
X136363461Y-113445587D01*
X135915508Y-113146275D01*
X135785914Y-113092595D01*
X146948282Y-113092595D01*
X146992039Y-113411675D01*
X147097205Y-113716088D01*
X147190186Y-113890044D01*
X147454587Y-113985808D01*
X148410395Y-113030000D01*
X148769605Y-113030000D01*
X149725413Y-113985808D01*
X149989814Y-113890044D01*
X150130704Y-113600429D01*
X150212384Y-113288892D01*
X150231718Y-112967405D01*
X150187961Y-112648325D01*
X150082795Y-112343912D01*
X149989814Y-112169956D01*
X149725413Y-112074192D01*
X148769605Y-113030000D01*
X148410395Y-113030000D01*
X147454587Y-112074192D01*
X147190186Y-112169956D01*
X147049296Y-112459571D01*
X146967616Y-112771108D01*
X146948282Y-113092595D01*
X135785914Y-113092595D01*
X135417770Y-112940105D01*
X134889374Y-112835000D01*
X134350626Y-112835000D01*
X133822230Y-112940105D01*
X133324492Y-113146275D01*
X132876539Y-113445587D01*
X132495587Y-113826539D01*
X132196275Y-114274492D01*
X131990105Y-114772230D01*
X131885000Y-115300626D01*
X126660000Y-115300626D01*
X126660000Y-114165413D01*
X129854192Y-114165413D01*
X129949956Y-114429814D01*
X130239571Y-114570704D01*
X130551108Y-114652384D01*
X130872595Y-114671718D01*
X131191675Y-114627961D01*
X131496088Y-114522795D01*
X131670044Y-114429814D01*
X131765808Y-114165413D01*
X130810000Y-113209605D01*
X129854192Y-114165413D01*
X126660000Y-114165413D01*
X126660000Y-113092595D01*
X129168282Y-113092595D01*
X129212039Y-113411675D01*
X129317205Y-113716088D01*
X129410186Y-113890044D01*
X129674587Y-113985808D01*
X130630395Y-113030000D01*
X130989605Y-113030000D01*
X131945413Y-113985808D01*
X132209814Y-113890044D01*
X132350704Y-113600429D01*
X132432384Y-113288892D01*
X132451718Y-112967405D01*
X132407961Y-112648325D01*
X132302795Y-112343912D01*
X132209814Y-112169956D01*
X131945413Y-112074192D01*
X130989605Y-113030000D01*
X130630395Y-113030000D01*
X129674587Y-112074192D01*
X129410186Y-112169956D01*
X129269296Y-112459571D01*
X129187616Y-112771108D01*
X129168282Y-113092595D01*
X126660000Y-113092595D01*
X126660000Y-111894587D01*
X129854192Y-111894587D01*
X130810000Y-112850395D01*
X131765808Y-111894587D01*
X131670044Y-111630186D01*
X131380429Y-111489296D01*
X131068892Y-111407616D01*
X130747405Y-111388282D01*
X130428325Y-111432039D01*
X130123912Y-111537205D01*
X129949956Y-111630186D01*
X129854192Y-111894587D01*
X126660000Y-111894587D01*
X126660000Y-110328967D01*
X135525000Y-110328967D01*
X135525000Y-110651033D01*
X135587832Y-110966912D01*
X135711082Y-111264463D01*
X135890013Y-111532252D01*
X136117748Y-111759987D01*
X136385537Y-111938918D01*
X136683088Y-112062168D01*
X136998967Y-112125000D01*
X137321033Y-112125000D01*
X137636912Y-112062168D01*
X137934463Y-111938918D01*
X138000808Y-111894587D01*
X147634192Y-111894587D01*
X148590000Y-112850395D01*
X149545808Y-111894587D01*
X149450044Y-111630186D01*
X149160429Y-111489296D01*
X148848892Y-111407616D01*
X148527405Y-111388282D01*
X148208325Y-111432039D01*
X147903912Y-111537205D01*
X147729956Y-111630186D01*
X147634192Y-111894587D01*
X138000808Y-111894587D01*
X138202252Y-111759987D01*
X138429987Y-111532252D01*
X138608918Y-111264463D01*
X138614909Y-111250000D01*
X150972678Y-111250000D01*
X151010000Y-111253676D01*
X151047322Y-111250000D01*
X151047333Y-111250000D01*
X151158986Y-111239003D01*
X151302247Y-111195546D01*
X151434276Y-111124974D01*
X151550001Y-111030001D01*
X151573804Y-111000997D01*
X153314802Y-109260000D01*
X153857761Y-109260000D01*
X153670013Y-109447748D01*
X153491082Y-109715537D01*
X153367832Y-110013088D01*
X153305000Y-110328967D01*
X153305000Y-110651033D01*
X153367832Y-110966912D01*
X153491082Y-111264463D01*
X153670013Y-111532252D01*
X153897748Y-111759987D01*
X154165537Y-111938918D01*
X154463088Y-112062168D01*
X154778967Y-112125000D01*
X155101033Y-112125000D01*
X155416912Y-112062168D01*
X155714463Y-111938918D01*
X155780808Y-111894587D01*
X165414192Y-111894587D01*
X166370000Y-112850395D01*
X167325808Y-111894587D01*
X167230044Y-111630186D01*
X166940429Y-111489296D01*
X166628892Y-111407616D01*
X166307405Y-111388282D01*
X165988325Y-111432039D01*
X165683912Y-111537205D01*
X165509956Y-111630186D01*
X165414192Y-111894587D01*
X155780808Y-111894587D01*
X155982252Y-111759987D01*
X156209987Y-111532252D01*
X156388918Y-111264463D01*
X156394909Y-111250000D01*
X160472678Y-111250000D01*
X160510000Y-111253676D01*
X160547322Y-111250000D01*
X160547333Y-111250000D01*
X160658986Y-111239003D01*
X160802247Y-111195546D01*
X160934276Y-111124974D01*
X161050001Y-111030001D01*
X161073804Y-111000997D01*
X162836004Y-109238798D01*
X162844777Y-109231598D01*
X162845997Y-109243985D01*
X162887422Y-109380546D01*
X162889454Y-109387246D01*
X162960026Y-109519276D01*
X162999871Y-109567826D01*
X163054999Y-109635001D01*
X163084003Y-109658804D01*
X164426201Y-111001003D01*
X164449999Y-111030001D01*
X164478997Y-111053799D01*
X164565723Y-111124974D01*
X164697753Y-111195546D01*
X164841014Y-111239003D01*
X164952667Y-111250000D01*
X164952677Y-111250000D01*
X164990000Y-111253676D01*
X165027323Y-111250000D01*
X171265091Y-111250000D01*
X171271082Y-111264463D01*
X171450013Y-111532252D01*
X171677748Y-111759987D01*
X171945537Y-111938918D01*
X172243088Y-112062168D01*
X172558967Y-112125000D01*
X172881033Y-112125000D01*
X173196912Y-112062168D01*
X173494463Y-111938918D01*
X173560808Y-111894587D01*
X183194192Y-111894587D01*
X184150000Y-112850395D01*
X185105808Y-111894587D01*
X185010044Y-111630186D01*
X184720429Y-111489296D01*
X184408892Y-111407616D01*
X184087405Y-111388282D01*
X183768325Y-111432039D01*
X183463912Y-111537205D01*
X183289956Y-111630186D01*
X183194192Y-111894587D01*
X173560808Y-111894587D01*
X173762252Y-111759987D01*
X173989987Y-111532252D01*
X174168918Y-111264463D01*
X174292168Y-110966912D01*
X174355000Y-110651033D01*
X174355000Y-110328967D01*
X174292168Y-110013088D01*
X174168918Y-109715537D01*
X173989987Y-109447748D01*
X173802239Y-109260000D01*
X174185199Y-109260000D01*
X175926201Y-111001003D01*
X175949999Y-111030001D01*
X175978997Y-111053799D01*
X176065723Y-111124974D01*
X176197753Y-111195546D01*
X176341014Y-111239003D01*
X176452667Y-111250000D01*
X176452677Y-111250000D01*
X176490000Y-111253676D01*
X176527322Y-111250000D01*
X189045091Y-111250000D01*
X189051082Y-111264463D01*
X189230013Y-111532252D01*
X189457748Y-111759987D01*
X189725537Y-111938918D01*
X190023088Y-112062168D01*
X190338967Y-112125000D01*
X190661033Y-112125000D01*
X190976912Y-112062168D01*
X191274463Y-111938918D01*
X191542252Y-111759987D01*
X191769987Y-111532252D01*
X191948918Y-111264463D01*
X192072168Y-110966912D01*
X192135000Y-110651033D01*
X192135000Y-110328967D01*
X192072168Y-110013088D01*
X191948918Y-109715537D01*
X191769987Y-109447748D01*
X191542252Y-109220013D01*
X191274463Y-109041082D01*
X190976912Y-108917832D01*
X190661033Y-108855000D01*
X190338967Y-108855000D01*
X190023088Y-108917832D01*
X189725537Y-109041082D01*
X189457748Y-109220013D01*
X189230013Y-109447748D01*
X189051082Y-109715537D01*
X189045091Y-109730000D01*
X176804802Y-109730000D01*
X175063804Y-107989003D01*
X175040001Y-107959999D01*
X174924276Y-107865026D01*
X174792247Y-107794454D01*
X174648986Y-107750997D01*
X174537333Y-107740000D01*
X174537322Y-107740000D01*
X174500000Y-107736324D01*
X174462678Y-107740000D01*
X167814802Y-107740000D01*
X166895000Y-106820199D01*
X166895000Y-100721859D01*
X166953418Y-100753084D01*
X167101255Y-100797929D01*
X167255000Y-100813072D01*
X167555000Y-100813072D01*
X167708745Y-100797929D01*
X167856582Y-100753084D01*
X167992829Y-100680258D01*
X168040000Y-100641546D01*
X168087171Y-100680258D01*
X168223418Y-100753084D01*
X168371255Y-100797929D01*
X168525000Y-100813072D01*
X168825000Y-100813072D01*
X168978745Y-100797929D01*
X169126582Y-100753084D01*
X169240000Y-100692460D01*
X169240000Y-100796289D01*
X169196063Y-100840226D01*
X169082795Y-101009744D01*
X169004774Y-101198102D01*
X168965000Y-101398061D01*
X168965000Y-101601939D01*
X169004774Y-101801898D01*
X169082795Y-101990256D01*
X169196063Y-102159774D01*
X169340226Y-102303937D01*
X169509744Y-102417205D01*
X169698102Y-102495226D01*
X169898061Y-102535000D01*
X170101939Y-102535000D01*
X170301898Y-102495226D01*
X170490256Y-102417205D01*
X170636829Y-102319268D01*
X180665000Y-102319268D01*
X180665000Y-102680732D01*
X180735518Y-103035250D01*
X180873844Y-103369199D01*
X181074662Y-103669744D01*
X181330256Y-103925338D01*
X181630801Y-104126156D01*
X181964750Y-104264482D01*
X182319268Y-104335000D01*
X182680732Y-104335000D01*
X183035250Y-104264482D01*
X183369199Y-104126156D01*
X183669744Y-103925338D01*
X183925338Y-103669744D01*
X184126156Y-103369199D01*
X184264482Y-103035250D01*
X184335000Y-102680732D01*
X184335000Y-102319268D01*
X184264482Y-101964750D01*
X184126156Y-101630801D01*
X183925338Y-101330256D01*
X183669744Y-101074662D01*
X183369199Y-100873844D01*
X183035250Y-100735518D01*
X182680732Y-100665000D01*
X182319268Y-100665000D01*
X181964750Y-100735518D01*
X181630801Y-100873844D01*
X181330256Y-101074662D01*
X181074662Y-101330256D01*
X180873844Y-101630801D01*
X180735518Y-101964750D01*
X180665000Y-102319268D01*
X170636829Y-102319268D01*
X170659774Y-102303937D01*
X170803937Y-102159774D01*
X170917205Y-101990256D01*
X170995226Y-101801898D01*
X171035000Y-101601939D01*
X171035000Y-101398061D01*
X170995226Y-101198102D01*
X170917205Y-101009744D01*
X170803937Y-100840226D01*
X170760000Y-100796289D01*
X170760000Y-100791554D01*
X170790518Y-100800812D01*
X170915000Y-100813072D01*
X170929250Y-100810000D01*
X171088000Y-100651250D01*
X171088000Y-99277000D01*
X171342000Y-99277000D01*
X171342000Y-100651250D01*
X171500750Y-100810000D01*
X171515000Y-100813072D01*
X171639482Y-100800812D01*
X171759180Y-100764502D01*
X171850000Y-100715957D01*
X171940820Y-100764502D01*
X172060518Y-100800812D01*
X172185000Y-100813072D01*
X172199250Y-100810000D01*
X172358000Y-100651250D01*
X172358000Y-99277000D01*
X172612000Y-99277000D01*
X172612000Y-100651250D01*
X172770750Y-100810000D01*
X172785000Y-100813072D01*
X172909482Y-100800812D01*
X173029180Y-100764502D01*
X173120000Y-100715957D01*
X173210820Y-100764502D01*
X173330518Y-100800812D01*
X173455000Y-100813072D01*
X173469250Y-100810000D01*
X173628000Y-100651250D01*
X173628000Y-99277000D01*
X173882000Y-99277000D01*
X173882000Y-100651250D01*
X174040750Y-100810000D01*
X174055000Y-100813072D01*
X174179482Y-100800812D01*
X174299180Y-100764502D01*
X174409494Y-100705537D01*
X174506185Y-100626185D01*
X174585537Y-100529494D01*
X174644502Y-100419180D01*
X174680812Y-100299482D01*
X174693072Y-100175000D01*
X174690000Y-99435750D01*
X174531250Y-99277000D01*
X173882000Y-99277000D01*
X173628000Y-99277000D01*
X172612000Y-99277000D01*
X172358000Y-99277000D01*
X171342000Y-99277000D01*
X171088000Y-99277000D01*
X171068000Y-99277000D01*
X171068000Y-99023000D01*
X171088000Y-99023000D01*
X171088000Y-97648750D01*
X171342000Y-97648750D01*
X171342000Y-99023000D01*
X172358000Y-99023000D01*
X172358000Y-97648750D01*
X172612000Y-97648750D01*
X172612000Y-99023000D01*
X173628000Y-99023000D01*
X173628000Y-97648750D01*
X173882000Y-97648750D01*
X173882000Y-99023000D01*
X174531250Y-99023000D01*
X174690000Y-98864250D01*
X174693072Y-98125000D01*
X174680812Y-98000518D01*
X174644502Y-97880820D01*
X174617338Y-97830000D01*
X186686928Y-97830000D01*
X186699188Y-97954482D01*
X186735498Y-98074180D01*
X186794463Y-98184494D01*
X186873815Y-98281185D01*
X186970506Y-98360537D01*
X187080820Y-98419502D01*
X187200518Y-98455812D01*
X187325000Y-98468072D01*
X187714250Y-98465000D01*
X187873000Y-98306250D01*
X187873000Y-97282000D01*
X188127000Y-97282000D01*
X188127000Y-98306250D01*
X188285750Y-98465000D01*
X188675000Y-98468072D01*
X188799482Y-98455812D01*
X188919180Y-98419502D01*
X189029494Y-98360537D01*
X189126185Y-98281185D01*
X189205537Y-98184494D01*
X189264502Y-98074180D01*
X189300812Y-97954482D01*
X189313072Y-97830000D01*
X189310000Y-97440750D01*
X189151250Y-97282000D01*
X188127000Y-97282000D01*
X187873000Y-97282000D01*
X186848750Y-97282000D01*
X186690000Y-97440750D01*
X186686928Y-97830000D01*
X174617338Y-97830000D01*
X174585537Y-97770506D01*
X174506185Y-97673815D01*
X174409494Y-97594463D01*
X174299180Y-97535498D01*
X174179482Y-97499188D01*
X174055000Y-97486928D01*
X174040750Y-97490000D01*
X173882000Y-97648750D01*
X173628000Y-97648750D01*
X173469250Y-97490000D01*
X173455000Y-97486928D01*
X173330518Y-97499188D01*
X173210820Y-97535498D01*
X173120000Y-97584043D01*
X173029180Y-97535498D01*
X172909482Y-97499188D01*
X172785000Y-97486928D01*
X172770750Y-97490000D01*
X172612000Y-97648750D01*
X172358000Y-97648750D01*
X172199250Y-97490000D01*
X172185000Y-97486928D01*
X172060518Y-97499188D01*
X171940820Y-97535498D01*
X171850000Y-97584043D01*
X171759180Y-97535498D01*
X171639482Y-97499188D01*
X171515000Y-97486928D01*
X171500750Y-97490000D01*
X171342000Y-97648750D01*
X171088000Y-97648750D01*
X170929250Y-97490000D01*
X170915000Y-97486928D01*
X170790518Y-97499188D01*
X170705000Y-97525130D01*
X170705000Y-97369801D01*
X172159802Y-95915000D01*
X186932291Y-95915000D01*
X186960697Y-95957513D01*
X186873815Y-96028815D01*
X186794463Y-96125506D01*
X186735498Y-96235820D01*
X186699188Y-96355518D01*
X186686928Y-96480000D01*
X186690000Y-96869250D01*
X186848750Y-97028000D01*
X187873000Y-97028000D01*
X187873000Y-97008000D01*
X188127000Y-97008000D01*
X188127000Y-97028000D01*
X189151250Y-97028000D01*
X189310000Y-96869250D01*
X189313072Y-96480000D01*
X189300812Y-96355518D01*
X189264502Y-96235820D01*
X189205537Y-96125506D01*
X189126185Y-96028815D01*
X189039303Y-95957513D01*
X189160907Y-95775518D01*
X189259658Y-95537113D01*
X189310000Y-95284024D01*
X189310000Y-95025976D01*
X189259658Y-94772887D01*
X189160907Y-94534482D01*
X189017544Y-94319923D01*
X188852621Y-94155000D01*
X189017544Y-93990077D01*
X189160907Y-93775518D01*
X189259658Y-93537113D01*
X189310000Y-93284024D01*
X189310000Y-93025976D01*
X189259658Y-92772887D01*
X189160907Y-92534482D01*
X189017544Y-92319923D01*
X188852621Y-92155000D01*
X189017544Y-91990077D01*
X189160907Y-91775518D01*
X189259658Y-91537113D01*
X189310000Y-91284024D01*
X189310000Y-91025976D01*
X189259658Y-90772887D01*
X189160907Y-90534482D01*
X189017544Y-90319923D01*
X188835077Y-90137456D01*
X188620518Y-89994093D01*
X188382113Y-89895342D01*
X188129024Y-89845000D01*
X187870976Y-89845000D01*
X187617887Y-89895342D01*
X187379482Y-89994093D01*
X187164923Y-90137456D01*
X186982456Y-90319923D01*
X186932291Y-90395000D01*
X178469802Y-90395000D01*
X175063804Y-86989003D01*
X175040001Y-86959999D01*
X174924276Y-86865026D01*
X174792247Y-86794454D01*
X174648986Y-86750997D01*
X174537333Y-86740000D01*
X174537322Y-86740000D01*
X174500000Y-86736324D01*
X174462678Y-86740000D01*
X172037325Y-86740000D01*
X172000000Y-86736324D01*
X171962675Y-86740000D01*
X171962667Y-86740000D01*
X171851014Y-86750997D01*
X171707753Y-86794454D01*
X171575724Y-86865026D01*
X171459999Y-86959999D01*
X171436201Y-86988998D01*
X170704002Y-87721197D01*
X170674999Y-87744999D01*
X170636225Y-87792246D01*
X170580026Y-87860724D01*
X170526962Y-87959999D01*
X170509454Y-87992754D01*
X170465997Y-88136015D01*
X170455000Y-88247668D01*
X170455000Y-88247678D01*
X170452150Y-88276618D01*
X170396582Y-88246916D01*
X170248745Y-88202071D01*
X170095000Y-88186928D01*
X169795000Y-88186928D01*
X169641255Y-88202071D01*
X169493418Y-88246916D01*
X169359064Y-88318730D01*
X169329494Y-88294463D01*
X169219180Y-88235498D01*
X169099482Y-88199188D01*
X169017267Y-88191091D01*
X169035000Y-88101939D01*
X169035000Y-87898061D01*
X168995226Y-87698102D01*
X168917205Y-87509744D01*
X168803937Y-87340226D01*
X168659774Y-87196063D01*
X168490256Y-87082795D01*
X168301898Y-87004774D01*
X168101939Y-86965000D01*
X167898061Y-86965000D01*
X167698102Y-87004774D01*
X167509744Y-87082795D01*
X167340226Y-87196063D01*
X167196063Y-87340226D01*
X167082795Y-87509744D01*
X167004774Y-87698102D01*
X166965000Y-87898061D01*
X166965000Y-87960198D01*
X166646341Y-88278858D01*
X166586582Y-88246916D01*
X166438745Y-88202071D01*
X166285000Y-88186928D01*
X165985000Y-88186928D01*
X165831255Y-88202071D01*
X165714560Y-88237469D01*
X165705546Y-88207753D01*
X165634974Y-88075724D01*
X165605657Y-88040001D01*
X165540001Y-87959999D01*
X165535000Y-87955895D01*
X165535000Y-87898061D01*
X165495226Y-87698102D01*
X165417205Y-87509744D01*
X165303937Y-87340226D01*
X165159774Y-87196063D01*
X164990256Y-87082795D01*
X164801898Y-87004774D01*
X164601939Y-86965000D01*
X164398061Y-86965000D01*
X164260000Y-86992462D01*
X164260000Y-86319268D01*
X180665000Y-86319268D01*
X180665000Y-86680732D01*
X180735518Y-87035250D01*
X180873844Y-87369199D01*
X181074662Y-87669744D01*
X181330256Y-87925338D01*
X181630801Y-88126156D01*
X181964750Y-88264482D01*
X182319268Y-88335000D01*
X182680732Y-88335000D01*
X183035250Y-88264482D01*
X183369199Y-88126156D01*
X183669744Y-87925338D01*
X183925338Y-87669744D01*
X184126156Y-87369199D01*
X184264482Y-87035250D01*
X184335000Y-86680732D01*
X184335000Y-86319268D01*
X192165000Y-86319268D01*
X192165000Y-86680732D01*
X192235518Y-87035250D01*
X192373844Y-87369199D01*
X192574662Y-87669744D01*
X192830256Y-87925338D01*
X193130801Y-88126156D01*
X193464750Y-88264482D01*
X193819268Y-88335000D01*
X194180732Y-88335000D01*
X194535250Y-88264482D01*
X194869199Y-88126156D01*
X195169744Y-87925338D01*
X195425338Y-87669744D01*
X195626156Y-87369199D01*
X195764482Y-87035250D01*
X195835000Y-86680732D01*
X195835000Y-86319268D01*
X195764482Y-85964750D01*
X195626156Y-85630801D01*
X195425338Y-85330256D01*
X195169744Y-85074662D01*
X194869199Y-84873844D01*
X194535250Y-84735518D01*
X194180732Y-84665000D01*
X193819268Y-84665000D01*
X193464750Y-84735518D01*
X193130801Y-84873844D01*
X192830256Y-85074662D01*
X192574662Y-85330256D01*
X192373844Y-85630801D01*
X192235518Y-85964750D01*
X192165000Y-86319268D01*
X184335000Y-86319268D01*
X184264482Y-85964750D01*
X184126156Y-85630801D01*
X183925338Y-85330256D01*
X183669744Y-85074662D01*
X183369199Y-84873844D01*
X183035250Y-84735518D01*
X182680732Y-84665000D01*
X182319268Y-84665000D01*
X181964750Y-84735518D01*
X181630801Y-84873844D01*
X181330256Y-85074662D01*
X181074662Y-85330256D01*
X180873844Y-85630801D01*
X180735518Y-85964750D01*
X180665000Y-86319268D01*
X164260000Y-86319268D01*
X164260000Y-85703711D01*
X164303937Y-85659774D01*
X164417205Y-85490256D01*
X164495226Y-85301898D01*
X164535000Y-85101939D01*
X164535000Y-84898061D01*
X164495226Y-84698102D01*
X164417205Y-84509744D01*
X164303937Y-84340226D01*
X164159774Y-84196063D01*
X163990256Y-84082795D01*
X163801898Y-84004774D01*
X163601939Y-83965000D01*
X163398061Y-83965000D01*
X163198102Y-84004774D01*
X163035000Y-84072334D01*
X163035000Y-83898061D01*
X162995226Y-83698102D01*
X162917205Y-83509744D01*
X162803937Y-83340226D01*
X162659774Y-83196063D01*
X162490256Y-83082795D01*
X162301898Y-83004774D01*
X162101939Y-82965000D01*
X162035000Y-82965000D01*
X162035000Y-82898061D01*
X161995226Y-82698102D01*
X161917205Y-82509744D01*
X161803937Y-82340226D01*
X161659774Y-82196063D01*
X161490256Y-82082795D01*
X161301898Y-82004774D01*
X161101939Y-81965000D01*
X160898061Y-81965000D01*
X160698102Y-82004774D01*
X160509744Y-82082795D01*
X160340226Y-82196063D01*
X160196063Y-82340226D01*
X160082795Y-82509744D01*
X160004774Y-82698102D01*
X159965000Y-82898061D01*
X159965000Y-83101939D01*
X160004774Y-83301898D01*
X160082795Y-83490256D01*
X160196063Y-83659774D01*
X160240000Y-83703711D01*
X160240000Y-84992462D01*
X160101939Y-84965000D01*
X159898061Y-84965000D01*
X159698102Y-85004774D01*
X159509744Y-85082795D01*
X159340226Y-85196063D01*
X159196063Y-85340226D01*
X159082795Y-85509744D01*
X159004774Y-85698102D01*
X158965000Y-85898061D01*
X158965000Y-86072334D01*
X158801898Y-86004774D01*
X158601939Y-85965000D01*
X158398061Y-85965000D01*
X158198102Y-86004774D01*
X158009744Y-86082795D01*
X157840226Y-86196063D01*
X157696063Y-86340226D01*
X157582795Y-86509744D01*
X157504774Y-86698102D01*
X157465000Y-86898061D01*
X157465000Y-87101939D01*
X157504774Y-87301898D01*
X157582795Y-87490256D01*
X157696063Y-87659774D01*
X157740000Y-87703711D01*
X157740000Y-88270124D01*
X157696582Y-88246916D01*
X157548745Y-88202071D01*
X157395000Y-88186928D01*
X157095000Y-88186928D01*
X156941255Y-88202071D01*
X156793418Y-88246916D01*
X156657171Y-88319742D01*
X156537749Y-88417749D01*
X156439742Y-88537171D01*
X156366916Y-88673418D01*
X156322071Y-88821255D01*
X156306928Y-88975000D01*
X156306928Y-90725000D01*
X156322071Y-90878745D01*
X156366916Y-91026582D01*
X156439742Y-91162829D01*
X156537749Y-91282251D01*
X156657171Y-91380258D01*
X156793418Y-91453084D01*
X156941255Y-91497929D01*
X157095000Y-91513072D01*
X157395000Y-91513072D01*
X157548745Y-91497929D01*
X157696582Y-91453084D01*
X157832829Y-91380258D01*
X157880000Y-91341546D01*
X157927171Y-91380258D01*
X158063418Y-91453084D01*
X158211255Y-91497929D01*
X158365000Y-91513072D01*
X158665000Y-91513072D01*
X158818745Y-91497929D01*
X158966582Y-91453084D01*
X159102829Y-91380258D01*
X159150000Y-91341546D01*
X159197171Y-91380258D01*
X159333418Y-91453084D01*
X159481255Y-91497929D01*
X159635000Y-91513072D01*
X159935000Y-91513072D01*
X160088745Y-91497929D01*
X160236582Y-91453084D01*
X160372829Y-91380258D01*
X160420000Y-91341546D01*
X160467171Y-91380258D01*
X160603418Y-91453084D01*
X160751255Y-91497929D01*
X160905000Y-91513072D01*
X161205000Y-91513072D01*
X161358745Y-91497929D01*
X161506582Y-91453084D01*
X161642829Y-91380258D01*
X161690000Y-91341546D01*
X161737171Y-91380258D01*
X161873418Y-91453084D01*
X162021255Y-91497929D01*
X162175000Y-91513072D01*
X162475000Y-91513072D01*
X162628745Y-91497929D01*
X162776582Y-91453084D01*
X162912829Y-91380258D01*
X162960000Y-91341546D01*
X163007171Y-91380258D01*
X163143418Y-91453084D01*
X163291255Y-91497929D01*
X163445000Y-91513072D01*
X163745000Y-91513072D01*
X163898745Y-91497929D01*
X164046582Y-91453084D01*
X164182829Y-91380258D01*
X164230000Y-91341546D01*
X164277171Y-91380258D01*
X164413418Y-91453084D01*
X164561255Y-91497929D01*
X164715000Y-91513072D01*
X165015000Y-91513072D01*
X165168745Y-91497929D01*
X165240001Y-91476314D01*
X165240000Y-92796289D01*
X165196063Y-92840226D01*
X165082795Y-93009744D01*
X165004774Y-93198102D01*
X164965000Y-93398061D01*
X164965000Y-93601939D01*
X165004774Y-93801898D01*
X165082795Y-93990256D01*
X165196063Y-94159774D01*
X165340226Y-94303937D01*
X165509744Y-94417205D01*
X165698102Y-94495226D01*
X165898061Y-94535000D01*
X166101939Y-94535000D01*
X166301898Y-94495226D01*
X166490256Y-94417205D01*
X166659774Y-94303937D01*
X166803937Y-94159774D01*
X166917205Y-93990256D01*
X166995226Y-93801898D01*
X167035000Y-93601939D01*
X167035000Y-93398061D01*
X166995226Y-93198102D01*
X166917205Y-93009744D01*
X166803937Y-92840226D01*
X166760000Y-92796289D01*
X166760000Y-92723711D01*
X166840226Y-92803937D01*
X167009744Y-92917205D01*
X167198102Y-92995226D01*
X167398061Y-93035000D01*
X167601939Y-93035000D01*
X167801898Y-92995226D01*
X167990256Y-92917205D01*
X168159774Y-92803937D01*
X168303937Y-92659774D01*
X168417205Y-92490256D01*
X168495226Y-92301898D01*
X168535000Y-92101939D01*
X168535000Y-91898061D01*
X168495226Y-91698102D01*
X168417205Y-91509744D01*
X168406110Y-91493140D01*
X168548000Y-91351250D01*
X168548000Y-89977000D01*
X168528000Y-89977000D01*
X168528000Y-89723000D01*
X168548000Y-89723000D01*
X168548000Y-89703000D01*
X168802000Y-89703000D01*
X168802000Y-89723000D01*
X168822000Y-89723000D01*
X168822000Y-89977000D01*
X168802000Y-89977000D01*
X168802000Y-91351250D01*
X168960750Y-91510000D01*
X168975000Y-91513072D01*
X169099482Y-91500812D01*
X169219180Y-91464502D01*
X169329494Y-91405537D01*
X169359064Y-91381270D01*
X169493418Y-91453084D01*
X169641255Y-91497929D01*
X169795000Y-91513072D01*
X170081416Y-91513072D01*
X170004774Y-91698102D01*
X169965000Y-91898061D01*
X169965000Y-92101939D01*
X170004774Y-92301898D01*
X170082795Y-92490256D01*
X170196063Y-92659774D01*
X170276289Y-92740000D01*
X170203711Y-92740000D01*
X170159774Y-92696063D01*
X169990256Y-92582795D01*
X169801898Y-92504774D01*
X169601939Y-92465000D01*
X169398061Y-92465000D01*
X169198102Y-92504774D01*
X169009744Y-92582795D01*
X168840226Y-92696063D01*
X168696063Y-92840226D01*
X168582795Y-93009744D01*
X168504774Y-93198102D01*
X168465000Y-93398061D01*
X168465000Y-93601939D01*
X168504774Y-93801898D01*
X168582795Y-93990256D01*
X168696063Y-94159774D01*
X168840226Y-94303937D01*
X169009744Y-94417205D01*
X169198102Y-94495226D01*
X169398061Y-94535000D01*
X169601939Y-94535000D01*
X169801898Y-94495226D01*
X169990256Y-94417205D01*
X170159774Y-94303937D01*
X170203711Y-94260000D01*
X170932678Y-94260000D01*
X170970000Y-94263676D01*
X171007322Y-94260000D01*
X171007333Y-94260000D01*
X171118986Y-94249003D01*
X171262247Y-94205546D01*
X171394276Y-94134974D01*
X171510001Y-94040001D01*
X171533804Y-94010997D01*
X172485000Y-93059802D01*
X173091201Y-93666003D01*
X173114999Y-93695001D01*
X173230724Y-93789974D01*
X173362753Y-93860546D01*
X173506014Y-93904003D01*
X173617667Y-93915000D01*
X173617677Y-93915000D01*
X173655000Y-93918676D01*
X173692323Y-93915000D01*
X186932291Y-93915000D01*
X186982456Y-93990077D01*
X187147379Y-94155000D01*
X186982456Y-94319923D01*
X186932291Y-94395000D01*
X171882325Y-94395000D01*
X171845000Y-94391324D01*
X171807675Y-94395000D01*
X171807667Y-94395000D01*
X171696014Y-94405997D01*
X171552753Y-94449454D01*
X171420724Y-94520026D01*
X171304999Y-94614999D01*
X171281201Y-94643997D01*
X169434003Y-96491196D01*
X169404999Y-96514999D01*
X169349871Y-96582174D01*
X169310026Y-96630724D01*
X169251930Y-96739413D01*
X169239454Y-96762754D01*
X169195997Y-96906015D01*
X169185000Y-97017668D01*
X169185000Y-97017678D01*
X169181324Y-97055000D01*
X169185000Y-97092323D01*
X169185000Y-97578141D01*
X169126582Y-97546916D01*
X168978745Y-97502071D01*
X168825000Y-97486928D01*
X168525000Y-97486928D01*
X168371255Y-97502071D01*
X168223418Y-97546916D01*
X168087171Y-97619742D01*
X168040000Y-97658454D01*
X167992829Y-97619742D01*
X167856582Y-97546916D01*
X167708745Y-97502071D01*
X167555000Y-97486928D01*
X167255000Y-97486928D01*
X167101255Y-97502071D01*
X166953418Y-97546916D01*
X166817171Y-97619742D01*
X166770000Y-97658454D01*
X166722829Y-97619742D01*
X166586582Y-97546916D01*
X166438745Y-97502071D01*
X166285000Y-97486928D01*
X165985000Y-97486928D01*
X165831255Y-97502071D01*
X165683418Y-97546916D01*
X165547171Y-97619742D01*
X165500000Y-97658454D01*
X165452829Y-97619742D01*
X165316582Y-97546916D01*
X165168745Y-97502071D01*
X165015000Y-97486928D01*
X164715000Y-97486928D01*
X164561255Y-97502071D01*
X164413418Y-97546916D01*
X164277171Y-97619742D01*
X164230000Y-97658454D01*
X164182829Y-97619742D01*
X164046582Y-97546916D01*
X163898745Y-97502071D01*
X163745000Y-97486928D01*
X163445000Y-97486928D01*
X163291255Y-97502071D01*
X163143418Y-97546916D01*
X163007171Y-97619742D01*
X162960000Y-97658454D01*
X162912829Y-97619742D01*
X162776582Y-97546916D01*
X162628745Y-97502071D01*
X162475000Y-97486928D01*
X162175000Y-97486928D01*
X162021255Y-97502071D01*
X161873418Y-97546916D01*
X161737171Y-97619742D01*
X161690000Y-97658454D01*
X161642829Y-97619742D01*
X161506582Y-97546916D01*
X161358745Y-97502071D01*
X161205000Y-97486928D01*
X160905000Y-97486928D01*
X160751255Y-97502071D01*
X160603418Y-97546916D01*
X160467171Y-97619742D01*
X160420000Y-97658454D01*
X160372829Y-97619742D01*
X160236582Y-97546916D01*
X160088745Y-97502071D01*
X159935000Y-97486928D01*
X159635000Y-97486928D01*
X159481255Y-97502071D01*
X159333418Y-97546916D01*
X159197171Y-97619742D01*
X159150000Y-97658454D01*
X159102829Y-97619742D01*
X158966582Y-97546916D01*
X158818745Y-97502071D01*
X158665000Y-97486928D01*
X158365000Y-97486928D01*
X158211255Y-97502071D01*
X158063418Y-97546916D01*
X157927171Y-97619742D01*
X157880000Y-97658454D01*
X157832829Y-97619742D01*
X157696582Y-97546916D01*
X157548745Y-97502071D01*
X157395000Y-97486928D01*
X157095000Y-97486928D01*
X156941255Y-97502071D01*
X156793418Y-97546916D01*
X156657171Y-97619742D01*
X156537749Y-97717749D01*
X156439742Y-97837171D01*
X156366916Y-97973418D01*
X156322071Y-98121255D01*
X156306928Y-98275000D01*
X156306928Y-100025000D01*
X156322071Y-100178745D01*
X156366916Y-100326582D01*
X156439742Y-100462829D01*
X156537749Y-100582251D01*
X156657171Y-100680258D01*
X156793418Y-100753084D01*
X156941255Y-100797929D01*
X157095000Y-100813072D01*
X157395000Y-100813072D01*
X157548745Y-100797929D01*
X157696582Y-100753084D01*
X157832829Y-100680258D01*
X157880000Y-100641546D01*
X157927171Y-100680258D01*
X158063418Y-100753084D01*
X158211255Y-100797929D01*
X158365000Y-100813072D01*
X158665000Y-100813072D01*
X158818745Y-100797929D01*
X158966582Y-100753084D01*
X159102829Y-100680258D01*
X159150000Y-100641546D01*
X159197171Y-100680258D01*
X159333418Y-100753084D01*
X159481255Y-100797929D01*
X159635000Y-100813072D01*
X159935000Y-100813072D01*
X160088745Y-100797929D01*
X160236582Y-100753084D01*
X160295001Y-100721858D01*
X160295000Y-106130198D01*
X158685199Y-107740000D01*
X153037322Y-107740000D01*
X153000000Y-107736324D01*
X152962677Y-107740000D01*
X152962667Y-107740000D01*
X152851014Y-107750997D01*
X152715032Y-107792246D01*
X152707753Y-107794454D01*
X152575723Y-107865026D01*
X152492083Y-107933668D01*
X152459999Y-107959999D01*
X152436201Y-107988997D01*
X150695199Y-109730000D01*
X138614909Y-109730000D01*
X138608918Y-109715537D01*
X138429987Y-109447748D01*
X138202252Y-109220013D01*
X137934463Y-109041082D01*
X137636912Y-108917832D01*
X137321033Y-108855000D01*
X136998967Y-108855000D01*
X136683088Y-108917832D01*
X136385537Y-109041082D01*
X136117748Y-109220013D01*
X135890013Y-109447748D01*
X135711082Y-109715537D01*
X135587832Y-110013088D01*
X135525000Y-110328967D01*
X126660000Y-110328967D01*
X126660000Y-102319268D01*
X126665000Y-102319268D01*
X126665000Y-102680732D01*
X126735518Y-103035250D01*
X126873844Y-103369199D01*
X127074662Y-103669744D01*
X127330256Y-103925338D01*
X127630801Y-104126156D01*
X127964750Y-104264482D01*
X128319268Y-104335000D01*
X128680732Y-104335000D01*
X129035250Y-104264482D01*
X129369199Y-104126156D01*
X129669744Y-103925338D01*
X129925338Y-103669744D01*
X130126156Y-103369199D01*
X130264482Y-103035250D01*
X130335000Y-102680732D01*
X130335000Y-102319268D01*
X138665000Y-102319268D01*
X138665000Y-102680732D01*
X138735518Y-103035250D01*
X138873844Y-103369199D01*
X139074662Y-103669744D01*
X139330256Y-103925338D01*
X139630801Y-104126156D01*
X139964750Y-104264482D01*
X140319268Y-104335000D01*
X140680732Y-104335000D01*
X141035250Y-104264482D01*
X141369199Y-104126156D01*
X141669744Y-103925338D01*
X141925338Y-103669744D01*
X142126156Y-103369199D01*
X142264482Y-103035250D01*
X142335000Y-102680732D01*
X142335000Y-102319268D01*
X142264482Y-101964750D01*
X142126156Y-101630801D01*
X141925338Y-101330256D01*
X141669744Y-101074662D01*
X141369199Y-100873844D01*
X141035250Y-100735518D01*
X140680732Y-100665000D01*
X140319268Y-100665000D01*
X139964750Y-100735518D01*
X139630801Y-100873844D01*
X139330256Y-101074662D01*
X139074662Y-101330256D01*
X138873844Y-101630801D01*
X138735518Y-101964750D01*
X138665000Y-102319268D01*
X130335000Y-102319268D01*
X130264482Y-101964750D01*
X130126156Y-101630801D01*
X129925338Y-101330256D01*
X129669744Y-101074662D01*
X129369199Y-100873844D01*
X129035250Y-100735518D01*
X128680732Y-100665000D01*
X128319268Y-100665000D01*
X127964750Y-100735518D01*
X127630801Y-100873844D01*
X127330256Y-101074662D01*
X127074662Y-101330256D01*
X126873844Y-101630801D01*
X126735518Y-101964750D01*
X126665000Y-102319268D01*
X126660000Y-102319268D01*
X126660000Y-91675000D01*
X133186928Y-91675000D01*
X133199188Y-91799482D01*
X133235498Y-91919180D01*
X133294463Y-92029494D01*
X133373815Y-92126185D01*
X133460697Y-92197487D01*
X133339093Y-92379482D01*
X133240342Y-92617887D01*
X133190000Y-92870976D01*
X133190000Y-93129024D01*
X133240342Y-93382113D01*
X133339093Y-93620518D01*
X133482456Y-93835077D01*
X133647379Y-94000000D01*
X133482456Y-94164923D01*
X133339093Y-94379482D01*
X133240342Y-94617887D01*
X133190000Y-94870976D01*
X133190000Y-95129024D01*
X133240342Y-95382113D01*
X133339093Y-95620518D01*
X133482456Y-95835077D01*
X133647379Y-96000000D01*
X133482456Y-96164923D01*
X133339093Y-96379482D01*
X133240342Y-96617887D01*
X133190000Y-96870976D01*
X133190000Y-97129024D01*
X133240342Y-97382113D01*
X133339093Y-97620518D01*
X133482456Y-97835077D01*
X133664923Y-98017544D01*
X133879482Y-98160907D01*
X134117887Y-98259658D01*
X134370976Y-98310000D01*
X134629024Y-98310000D01*
X134882113Y-98259658D01*
X135120518Y-98160907D01*
X135335077Y-98017544D01*
X135517544Y-97835077D01*
X135660907Y-97620518D01*
X135759658Y-97382113D01*
X135810000Y-97129024D01*
X135810000Y-96870976D01*
X135759658Y-96617887D01*
X135660907Y-96379482D01*
X135517544Y-96164923D01*
X135352621Y-96000000D01*
X135517544Y-95835077D01*
X135660907Y-95620518D01*
X135759658Y-95382113D01*
X135810000Y-95129024D01*
X135810000Y-94870976D01*
X135759658Y-94617887D01*
X135660907Y-94379482D01*
X135638286Y-94345626D01*
X141410000Y-94345626D01*
X141410000Y-94884374D01*
X141515105Y-95412770D01*
X141721275Y-95910508D01*
X142020587Y-96358461D01*
X142401539Y-96739413D01*
X142849492Y-97038725D01*
X143347230Y-97244895D01*
X143875626Y-97350000D01*
X144414374Y-97350000D01*
X144942770Y-97244895D01*
X145440508Y-97038725D01*
X145888461Y-96739413D01*
X146269413Y-96358461D01*
X146568725Y-95910508D01*
X146774895Y-95412770D01*
X146880000Y-94884374D01*
X146880000Y-94345626D01*
X146774895Y-93817230D01*
X146568725Y-93319492D01*
X146495841Y-93210413D01*
X146999192Y-93210413D01*
X147094956Y-93474814D01*
X147384571Y-93615704D01*
X147696108Y-93697384D01*
X148017595Y-93716718D01*
X148336675Y-93672961D01*
X148641088Y-93567795D01*
X148815044Y-93474814D01*
X148910808Y-93210413D01*
X147955000Y-92254605D01*
X146999192Y-93210413D01*
X146495841Y-93210413D01*
X146269413Y-92871539D01*
X145888461Y-92490587D01*
X145440508Y-92191275D01*
X145310914Y-92137595D01*
X146313282Y-92137595D01*
X146357039Y-92456675D01*
X146462205Y-92761088D01*
X146555186Y-92935044D01*
X146819587Y-93030808D01*
X147775395Y-92075000D01*
X148134605Y-92075000D01*
X149090413Y-93030808D01*
X149354814Y-92935044D01*
X149495704Y-92645429D01*
X149577384Y-92333892D01*
X149596718Y-92012405D01*
X149574447Y-91850000D01*
X152511928Y-91850000D01*
X152524188Y-91974482D01*
X152560498Y-92094180D01*
X152619463Y-92204494D01*
X152698815Y-92301185D01*
X152795506Y-92380537D01*
X152905820Y-92439502D01*
X153025518Y-92475812D01*
X153150000Y-92488072D01*
X153714250Y-92485000D01*
X153873000Y-92326250D01*
X153873000Y-91127000D01*
X154127000Y-91127000D01*
X154127000Y-92326250D01*
X154285750Y-92485000D01*
X154850000Y-92488072D01*
X154974482Y-92475812D01*
X155094180Y-92439502D01*
X155204494Y-92380537D01*
X155301185Y-92301185D01*
X155380537Y-92204494D01*
X155439502Y-92094180D01*
X155475812Y-91974482D01*
X155488072Y-91850000D01*
X155485000Y-91285750D01*
X155326250Y-91127000D01*
X154127000Y-91127000D01*
X153873000Y-91127000D01*
X152673750Y-91127000D01*
X152515000Y-91285750D01*
X152511928Y-91850000D01*
X149574447Y-91850000D01*
X149552961Y-91693325D01*
X149447795Y-91388912D01*
X149354814Y-91214956D01*
X149090413Y-91119192D01*
X148134605Y-92075000D01*
X147775395Y-92075000D01*
X146819587Y-91119192D01*
X146555186Y-91214956D01*
X146414296Y-91504571D01*
X146332616Y-91816108D01*
X146313282Y-92137595D01*
X145310914Y-92137595D01*
X144942770Y-91985105D01*
X144414374Y-91880000D01*
X143875626Y-91880000D01*
X143347230Y-91985105D01*
X142849492Y-92191275D01*
X142401539Y-92490587D01*
X142020587Y-92871539D01*
X141721275Y-93319492D01*
X141515105Y-93817230D01*
X141410000Y-94345626D01*
X135638286Y-94345626D01*
X135517544Y-94164923D01*
X135352621Y-94000000D01*
X135517544Y-93835077D01*
X135660907Y-93620518D01*
X135759658Y-93382113D01*
X135810000Y-93129024D01*
X135810000Y-92870976D01*
X135759658Y-92617887D01*
X135660907Y-92379482D01*
X135539303Y-92197487D01*
X135626185Y-92126185D01*
X135705537Y-92029494D01*
X135764502Y-91919180D01*
X135800812Y-91799482D01*
X135813072Y-91675000D01*
X135810000Y-91285750D01*
X135651250Y-91127000D01*
X134627000Y-91127000D01*
X134627000Y-91147000D01*
X134373000Y-91147000D01*
X134373000Y-91127000D01*
X133348750Y-91127000D01*
X133190000Y-91285750D01*
X133186928Y-91675000D01*
X126660000Y-91675000D01*
X126660000Y-90325000D01*
X133186928Y-90325000D01*
X133190000Y-90714250D01*
X133348750Y-90873000D01*
X134373000Y-90873000D01*
X134373000Y-89848750D01*
X134627000Y-89848750D01*
X134627000Y-90873000D01*
X135651250Y-90873000D01*
X135810000Y-90714250D01*
X135813072Y-90325000D01*
X135800812Y-90200518D01*
X135764502Y-90080820D01*
X135705537Y-89970506D01*
X135626185Y-89873815D01*
X135529494Y-89794463D01*
X135419180Y-89735498D01*
X135299482Y-89699188D01*
X135175000Y-89686928D01*
X134785750Y-89690000D01*
X134627000Y-89848750D01*
X134373000Y-89848750D01*
X134214250Y-89690000D01*
X133825000Y-89686928D01*
X133700518Y-89699188D01*
X133580820Y-89735498D01*
X133470506Y-89794463D01*
X133373815Y-89873815D01*
X133294463Y-89970506D01*
X133235498Y-90080820D01*
X133199188Y-90200518D01*
X133186928Y-90325000D01*
X126660000Y-90325000D01*
X126660000Y-86319268D01*
X126665000Y-86319268D01*
X126665000Y-86680732D01*
X126735518Y-87035250D01*
X126873844Y-87369199D01*
X127074662Y-87669744D01*
X127330256Y-87925338D01*
X127630801Y-88126156D01*
X127964750Y-88264482D01*
X128319268Y-88335000D01*
X128680732Y-88335000D01*
X129035250Y-88264482D01*
X129369199Y-88126156D01*
X129669744Y-87925338D01*
X129925338Y-87669744D01*
X130126156Y-87369199D01*
X130264482Y-87035250D01*
X130335000Y-86680732D01*
X130335000Y-86319268D01*
X138665000Y-86319268D01*
X138665000Y-86680732D01*
X138735518Y-87035250D01*
X138873844Y-87369199D01*
X139074662Y-87669744D01*
X139330256Y-87925338D01*
X139630801Y-88126156D01*
X139964750Y-88264482D01*
X140319268Y-88335000D01*
X140492761Y-88335000D01*
X140335013Y-88492748D01*
X140156082Y-88760537D01*
X140032832Y-89058088D01*
X139970000Y-89373967D01*
X139970000Y-89696033D01*
X140032832Y-90011912D01*
X140156082Y-90309463D01*
X140335013Y-90577252D01*
X140562748Y-90804987D01*
X140830537Y-90983918D01*
X141128088Y-91107168D01*
X141443967Y-91170000D01*
X141766033Y-91170000D01*
X142081912Y-91107168D01*
X142379463Y-90983918D01*
X142445808Y-90939587D01*
X146999192Y-90939587D01*
X147955000Y-91895395D01*
X148910808Y-90939587D01*
X148815044Y-90675186D01*
X148525429Y-90534296D01*
X148213892Y-90452616D01*
X147892405Y-90433282D01*
X147573325Y-90477039D01*
X147268912Y-90582205D01*
X147094956Y-90675186D01*
X146999192Y-90939587D01*
X142445808Y-90939587D01*
X142647252Y-90804987D01*
X142874987Y-90577252D01*
X143053918Y-90309463D01*
X143119969Y-90150000D01*
X152511928Y-90150000D01*
X152515000Y-90714250D01*
X152673750Y-90873000D01*
X153873000Y-90873000D01*
X153873000Y-90853000D01*
X154127000Y-90853000D01*
X154127000Y-90873000D01*
X155326250Y-90873000D01*
X155485000Y-90714250D01*
X155488072Y-90150000D01*
X155475812Y-90025518D01*
X155439502Y-89905820D01*
X155380537Y-89795506D01*
X155301185Y-89698815D01*
X155204494Y-89619463D01*
X155094180Y-89560498D01*
X155021620Y-89538487D01*
X155153475Y-89406632D01*
X155315990Y-89163411D01*
X155427932Y-88893158D01*
X155485000Y-88606260D01*
X155485000Y-88313740D01*
X155427932Y-88026842D01*
X155315990Y-87756589D01*
X155153475Y-87513368D01*
X154946632Y-87306525D01*
X154703411Y-87144010D01*
X154433158Y-87032068D01*
X154146260Y-86975000D01*
X153853740Y-86975000D01*
X153566842Y-87032068D01*
X153296589Y-87144010D01*
X153053368Y-87306525D01*
X152846525Y-87513368D01*
X152684010Y-87756589D01*
X152572068Y-88026842D01*
X152515000Y-88313740D01*
X152515000Y-88606260D01*
X152572068Y-88893158D01*
X152684010Y-89163411D01*
X152846525Y-89406632D01*
X152978380Y-89538487D01*
X152905820Y-89560498D01*
X152795506Y-89619463D01*
X152698815Y-89698815D01*
X152619463Y-89795506D01*
X152560498Y-89905820D01*
X152524188Y-90025518D01*
X152511928Y-90150000D01*
X143119969Y-90150000D01*
X143177168Y-90011912D01*
X143240000Y-89696033D01*
X143240000Y-89373967D01*
X143177168Y-89058088D01*
X143053918Y-88760537D01*
X142874987Y-88492748D01*
X142647252Y-88265013D01*
X142379463Y-88086082D01*
X142081912Y-87962832D01*
X141766033Y-87900000D01*
X141695082Y-87900000D01*
X141925338Y-87669744D01*
X142126156Y-87369199D01*
X142264482Y-87035250D01*
X142335000Y-86680732D01*
X142335000Y-86319268D01*
X142264482Y-85964750D01*
X142126156Y-85630801D01*
X141925338Y-85330256D01*
X141669744Y-85074662D01*
X141369199Y-84873844D01*
X141035250Y-84735518D01*
X140680732Y-84665000D01*
X140319268Y-84665000D01*
X139964750Y-84735518D01*
X139630801Y-84873844D01*
X139330256Y-85074662D01*
X139074662Y-85330256D01*
X138873844Y-85630801D01*
X138735518Y-85964750D01*
X138665000Y-86319268D01*
X130335000Y-86319268D01*
X130264482Y-85964750D01*
X130126156Y-85630801D01*
X129925338Y-85330256D01*
X129669744Y-85074662D01*
X129369199Y-84873844D01*
X129035250Y-84735518D01*
X128680732Y-84665000D01*
X128319268Y-84665000D01*
X127964750Y-84735518D01*
X127630801Y-84873844D01*
X127330256Y-85074662D01*
X127074662Y-85330256D01*
X126873844Y-85630801D01*
X126735518Y-85964750D01*
X126665000Y-86319268D01*
X126660000Y-86319268D01*
X126660000Y-77943967D01*
X130445000Y-77943967D01*
X130445000Y-78266033D01*
X130507832Y-78581912D01*
X130631082Y-78879463D01*
X130810013Y-79147252D01*
X131037748Y-79374987D01*
X131305537Y-79553918D01*
X131603088Y-79677168D01*
X131918967Y-79740000D01*
X132241033Y-79740000D01*
X132556912Y-79677168D01*
X132854463Y-79553918D01*
X133122252Y-79374987D01*
X133349987Y-79147252D01*
X133528918Y-78879463D01*
X133652168Y-78581912D01*
X133715000Y-78266033D01*
X133715000Y-77943967D01*
X148225000Y-77943967D01*
X148225000Y-78266033D01*
X148287832Y-78581912D01*
X148411082Y-78879463D01*
X148590013Y-79147252D01*
X148817748Y-79374987D01*
X149085537Y-79553918D01*
X149383088Y-79677168D01*
X149698967Y-79740000D01*
X150021033Y-79740000D01*
X150336912Y-79677168D01*
X150634463Y-79553918D01*
X150902252Y-79374987D01*
X151129987Y-79147252D01*
X151308918Y-78879463D01*
X151432168Y-78581912D01*
X151495000Y-78266033D01*
X151495000Y-77943967D01*
X166005000Y-77943967D01*
X166005000Y-78266033D01*
X166067832Y-78581912D01*
X166191082Y-78879463D01*
X166370013Y-79147252D01*
X166597748Y-79374987D01*
X166865537Y-79553918D01*
X167163088Y-79677168D01*
X167478967Y-79740000D01*
X167801033Y-79740000D01*
X168116912Y-79677168D01*
X168414463Y-79553918D01*
X168682252Y-79374987D01*
X168909987Y-79147252D01*
X169088918Y-78879463D01*
X169212168Y-78581912D01*
X169275000Y-78266033D01*
X169275000Y-77943967D01*
X183785000Y-77943967D01*
X183785000Y-78266033D01*
X183847832Y-78581912D01*
X183971082Y-78879463D01*
X184150013Y-79147252D01*
X184377748Y-79374987D01*
X184645537Y-79553918D01*
X184943088Y-79677168D01*
X185258967Y-79740000D01*
X185581033Y-79740000D01*
X185896912Y-79677168D01*
X186194463Y-79553918D01*
X186462252Y-79374987D01*
X186689987Y-79147252D01*
X186868918Y-78879463D01*
X186992168Y-78581912D01*
X187055000Y-78266033D01*
X187055000Y-77943967D01*
X186992168Y-77628088D01*
X186868918Y-77330537D01*
X186689987Y-77062748D01*
X186462252Y-76835013D01*
X186260809Y-76700413D01*
X190814192Y-76700413D01*
X190909956Y-76964814D01*
X191199571Y-77105704D01*
X191511108Y-77187384D01*
X191832595Y-77206718D01*
X192151675Y-77162961D01*
X192456088Y-77057795D01*
X192630044Y-76964814D01*
X192725808Y-76700413D01*
X191770000Y-75744605D01*
X190814192Y-76700413D01*
X186260809Y-76700413D01*
X186194463Y-76656082D01*
X185896912Y-76532832D01*
X185581033Y-76470000D01*
X185258967Y-76470000D01*
X184943088Y-76532832D01*
X184645537Y-76656082D01*
X184377748Y-76835013D01*
X184150013Y-77062748D01*
X183971082Y-77330537D01*
X183847832Y-77628088D01*
X183785000Y-77943967D01*
X169275000Y-77943967D01*
X169212168Y-77628088D01*
X169088918Y-77330537D01*
X168909987Y-77062748D01*
X168682252Y-76835013D01*
X168480809Y-76700413D01*
X173034192Y-76700413D01*
X173129956Y-76964814D01*
X173419571Y-77105704D01*
X173731108Y-77187384D01*
X174052595Y-77206718D01*
X174371675Y-77162961D01*
X174676088Y-77057795D01*
X174850044Y-76964814D01*
X174945808Y-76700413D01*
X173990000Y-75744605D01*
X173034192Y-76700413D01*
X168480809Y-76700413D01*
X168414463Y-76656082D01*
X168116912Y-76532832D01*
X167801033Y-76470000D01*
X167478967Y-76470000D01*
X167163088Y-76532832D01*
X166865537Y-76656082D01*
X166597748Y-76835013D01*
X166370013Y-77062748D01*
X166191082Y-77330537D01*
X166067832Y-77628088D01*
X166005000Y-77943967D01*
X151495000Y-77943967D01*
X151432168Y-77628088D01*
X151308918Y-77330537D01*
X151129987Y-77062748D01*
X150902252Y-76835013D01*
X150700809Y-76700413D01*
X155254192Y-76700413D01*
X155349956Y-76964814D01*
X155639571Y-77105704D01*
X155951108Y-77187384D01*
X156272595Y-77206718D01*
X156591675Y-77162961D01*
X156896088Y-77057795D01*
X157070044Y-76964814D01*
X157165808Y-76700413D01*
X156210000Y-75744605D01*
X155254192Y-76700413D01*
X150700809Y-76700413D01*
X150634463Y-76656082D01*
X150336912Y-76532832D01*
X150021033Y-76470000D01*
X149698967Y-76470000D01*
X149383088Y-76532832D01*
X149085537Y-76656082D01*
X148817748Y-76835013D01*
X148590013Y-77062748D01*
X148411082Y-77330537D01*
X148287832Y-77628088D01*
X148225000Y-77943967D01*
X133715000Y-77943967D01*
X133652168Y-77628088D01*
X133528918Y-77330537D01*
X133349987Y-77062748D01*
X133122252Y-76835013D01*
X132920809Y-76700413D01*
X137474192Y-76700413D01*
X137569956Y-76964814D01*
X137859571Y-77105704D01*
X138171108Y-77187384D01*
X138492595Y-77206718D01*
X138811675Y-77162961D01*
X139116088Y-77057795D01*
X139290044Y-76964814D01*
X139385808Y-76700413D01*
X138430000Y-75744605D01*
X137474192Y-76700413D01*
X132920809Y-76700413D01*
X132854463Y-76656082D01*
X132556912Y-76532832D01*
X132241033Y-76470000D01*
X131918967Y-76470000D01*
X131603088Y-76532832D01*
X131305537Y-76656082D01*
X131037748Y-76835013D01*
X130810013Y-77062748D01*
X130631082Y-77330537D01*
X130507832Y-77628088D01*
X130445000Y-77943967D01*
X126660000Y-77943967D01*
X126660000Y-72755626D01*
X131885000Y-72755626D01*
X131885000Y-73294374D01*
X131990105Y-73822770D01*
X132196275Y-74320508D01*
X132495587Y-74768461D01*
X132876539Y-75149413D01*
X133324492Y-75448725D01*
X133822230Y-75654895D01*
X134350626Y-75760000D01*
X134889374Y-75760000D01*
X135417770Y-75654895D01*
X135483677Y-75627595D01*
X136788282Y-75627595D01*
X136832039Y-75946675D01*
X136937205Y-76251088D01*
X137030186Y-76425044D01*
X137294587Y-76520808D01*
X138250395Y-75565000D01*
X138609605Y-75565000D01*
X139565413Y-76520808D01*
X139829814Y-76425044D01*
X139970704Y-76135429D01*
X140052384Y-75823892D01*
X140071718Y-75502405D01*
X140027961Y-75183325D01*
X139922795Y-74878912D01*
X139829814Y-74704956D01*
X139565413Y-74609192D01*
X138609605Y-75565000D01*
X138250395Y-75565000D01*
X137294587Y-74609192D01*
X137030186Y-74704956D01*
X136889296Y-74994571D01*
X136807616Y-75306108D01*
X136788282Y-75627595D01*
X135483677Y-75627595D01*
X135915508Y-75448725D01*
X136363461Y-75149413D01*
X136744413Y-74768461D01*
X136970840Y-74429587D01*
X137474192Y-74429587D01*
X138430000Y-75385395D01*
X139385808Y-74429587D01*
X139290044Y-74165186D01*
X139000429Y-74024296D01*
X138688892Y-73942616D01*
X138367405Y-73923282D01*
X138048325Y-73967039D01*
X137743912Y-74072205D01*
X137569956Y-74165186D01*
X137474192Y-74429587D01*
X136970840Y-74429587D01*
X137043725Y-74320508D01*
X137249895Y-73822770D01*
X137355000Y-73294374D01*
X137355000Y-72755626D01*
X149665000Y-72755626D01*
X149665000Y-73294374D01*
X149770105Y-73822770D01*
X149976275Y-74320508D01*
X150275587Y-74768461D01*
X150656539Y-75149413D01*
X151104492Y-75448725D01*
X151602230Y-75654895D01*
X152130626Y-75760000D01*
X152669374Y-75760000D01*
X153197770Y-75654895D01*
X153263677Y-75627595D01*
X154568282Y-75627595D01*
X154612039Y-75946675D01*
X154717205Y-76251088D01*
X154810186Y-76425044D01*
X155074587Y-76520808D01*
X156030395Y-75565000D01*
X156389605Y-75565000D01*
X157345413Y-76520808D01*
X157609814Y-76425044D01*
X157750704Y-76135429D01*
X157832384Y-75823892D01*
X157851718Y-75502405D01*
X157807961Y-75183325D01*
X157702795Y-74878912D01*
X157609814Y-74704956D01*
X157345413Y-74609192D01*
X156389605Y-75565000D01*
X156030395Y-75565000D01*
X155074587Y-74609192D01*
X154810186Y-74704956D01*
X154669296Y-74994571D01*
X154587616Y-75306108D01*
X154568282Y-75627595D01*
X153263677Y-75627595D01*
X153695508Y-75448725D01*
X154143461Y-75149413D01*
X154524413Y-74768461D01*
X154750840Y-74429587D01*
X155254192Y-74429587D01*
X156210000Y-75385395D01*
X157165808Y-74429587D01*
X157070044Y-74165186D01*
X156780429Y-74024296D01*
X156468892Y-73942616D01*
X156147405Y-73923282D01*
X155828325Y-73967039D01*
X155523912Y-74072205D01*
X155349956Y-74165186D01*
X155254192Y-74429587D01*
X154750840Y-74429587D01*
X154823725Y-74320508D01*
X155029895Y-73822770D01*
X155135000Y-73294374D01*
X155135000Y-72755626D01*
X167445000Y-72755626D01*
X167445000Y-73294374D01*
X167550105Y-73822770D01*
X167756275Y-74320508D01*
X168055587Y-74768461D01*
X168436539Y-75149413D01*
X168884492Y-75448725D01*
X169382230Y-75654895D01*
X169910626Y-75760000D01*
X170449374Y-75760000D01*
X170977770Y-75654895D01*
X171043677Y-75627595D01*
X172348282Y-75627595D01*
X172392039Y-75946675D01*
X172497205Y-76251088D01*
X172590186Y-76425044D01*
X172854587Y-76520808D01*
X173810395Y-75565000D01*
X174169605Y-75565000D01*
X175125413Y-76520808D01*
X175389814Y-76425044D01*
X175530704Y-76135429D01*
X175612384Y-75823892D01*
X175631718Y-75502405D01*
X175587961Y-75183325D01*
X175482795Y-74878912D01*
X175389814Y-74704956D01*
X175125413Y-74609192D01*
X174169605Y-75565000D01*
X173810395Y-75565000D01*
X172854587Y-74609192D01*
X172590186Y-74704956D01*
X172449296Y-74994571D01*
X172367616Y-75306108D01*
X172348282Y-75627595D01*
X171043677Y-75627595D01*
X171475508Y-75448725D01*
X171923461Y-75149413D01*
X172304413Y-74768461D01*
X172530840Y-74429587D01*
X173034192Y-74429587D01*
X173990000Y-75385395D01*
X174945808Y-74429587D01*
X174850044Y-74165186D01*
X174560429Y-74024296D01*
X174248892Y-73942616D01*
X173927405Y-73923282D01*
X173608325Y-73967039D01*
X173303912Y-74072205D01*
X173129956Y-74165186D01*
X173034192Y-74429587D01*
X172530840Y-74429587D01*
X172603725Y-74320508D01*
X172809895Y-73822770D01*
X172915000Y-73294374D01*
X172915000Y-72755626D01*
X172809895Y-72227230D01*
X172703347Y-71970000D01*
X177581928Y-71970000D01*
X177594188Y-72094482D01*
X177630498Y-72214180D01*
X177689463Y-72324494D01*
X177768815Y-72421185D01*
X177865506Y-72500537D01*
X177975820Y-72559502D01*
X178048380Y-72581513D01*
X177916525Y-72713368D01*
X177754010Y-72956589D01*
X177642068Y-73226842D01*
X177585000Y-73513740D01*
X177585000Y-73806260D01*
X177642068Y-74093158D01*
X177754010Y-74363411D01*
X177916525Y-74606632D01*
X178123368Y-74813475D01*
X178366589Y-74975990D01*
X178636842Y-75087932D01*
X178923740Y-75145000D01*
X179216260Y-75145000D01*
X179503158Y-75087932D01*
X179773411Y-74975990D01*
X180016632Y-74813475D01*
X180223475Y-74606632D01*
X180385990Y-74363411D01*
X180497932Y-74093158D01*
X180555000Y-73806260D01*
X180555000Y-73513740D01*
X180497932Y-73226842D01*
X180385990Y-72956589D01*
X180251711Y-72755626D01*
X185225000Y-72755626D01*
X185225000Y-73294374D01*
X185330105Y-73822770D01*
X185536275Y-74320508D01*
X185835587Y-74768461D01*
X186216539Y-75149413D01*
X186664492Y-75448725D01*
X187162230Y-75654895D01*
X187690626Y-75760000D01*
X188229374Y-75760000D01*
X188757770Y-75654895D01*
X188823677Y-75627595D01*
X190128282Y-75627595D01*
X190172039Y-75946675D01*
X190277205Y-76251088D01*
X190370186Y-76425044D01*
X190634587Y-76520808D01*
X191590395Y-75565000D01*
X191949605Y-75565000D01*
X192905413Y-76520808D01*
X193169814Y-76425044D01*
X193310704Y-76135429D01*
X193392384Y-75823892D01*
X193411718Y-75502405D01*
X193367961Y-75183325D01*
X193262795Y-74878912D01*
X193169814Y-74704956D01*
X192905413Y-74609192D01*
X191949605Y-75565000D01*
X191590395Y-75565000D01*
X190634587Y-74609192D01*
X190370186Y-74704956D01*
X190229296Y-74994571D01*
X190147616Y-75306108D01*
X190128282Y-75627595D01*
X188823677Y-75627595D01*
X189255508Y-75448725D01*
X189703461Y-75149413D01*
X190084413Y-74768461D01*
X190310840Y-74429587D01*
X190814192Y-74429587D01*
X191770000Y-75385395D01*
X192725808Y-74429587D01*
X192630044Y-74165186D01*
X192340429Y-74024296D01*
X192028892Y-73942616D01*
X191707405Y-73923282D01*
X191388325Y-73967039D01*
X191083912Y-74072205D01*
X190909956Y-74165186D01*
X190814192Y-74429587D01*
X190310840Y-74429587D01*
X190383725Y-74320508D01*
X190589895Y-73822770D01*
X190695000Y-73294374D01*
X190695000Y-72755626D01*
X190589895Y-72227230D01*
X190383725Y-71729492D01*
X190084413Y-71281539D01*
X189703461Y-70900587D01*
X189255508Y-70601275D01*
X188757770Y-70395105D01*
X188229374Y-70290000D01*
X187690626Y-70290000D01*
X187162230Y-70395105D01*
X186664492Y-70601275D01*
X186216539Y-70900587D01*
X185835587Y-71281539D01*
X185536275Y-71729492D01*
X185330105Y-72227230D01*
X185225000Y-72755626D01*
X180251711Y-72755626D01*
X180223475Y-72713368D01*
X180091620Y-72581513D01*
X180164180Y-72559502D01*
X180274494Y-72500537D01*
X180371185Y-72421185D01*
X180450537Y-72324494D01*
X180509502Y-72214180D01*
X180545812Y-72094482D01*
X180558072Y-71970000D01*
X180555000Y-71405750D01*
X180396250Y-71247000D01*
X179197000Y-71247000D01*
X179197000Y-71267000D01*
X178943000Y-71267000D01*
X178943000Y-71247000D01*
X177743750Y-71247000D01*
X177585000Y-71405750D01*
X177581928Y-71970000D01*
X172703347Y-71970000D01*
X172603725Y-71729492D01*
X172304413Y-71281539D01*
X171923461Y-70900587D01*
X171475508Y-70601275D01*
X170977770Y-70395105D01*
X170449374Y-70290000D01*
X169910626Y-70290000D01*
X169382230Y-70395105D01*
X168884492Y-70601275D01*
X168436539Y-70900587D01*
X168055587Y-71281539D01*
X167756275Y-71729492D01*
X167550105Y-72227230D01*
X167445000Y-72755626D01*
X155135000Y-72755626D01*
X155029895Y-72227230D01*
X154823725Y-71729492D01*
X154524413Y-71281539D01*
X154143461Y-70900587D01*
X153695508Y-70601275D01*
X153197770Y-70395105D01*
X152669374Y-70290000D01*
X152130626Y-70290000D01*
X151602230Y-70395105D01*
X151104492Y-70601275D01*
X150656539Y-70900587D01*
X150275587Y-71281539D01*
X149976275Y-71729492D01*
X149770105Y-72227230D01*
X149665000Y-72755626D01*
X137355000Y-72755626D01*
X137249895Y-72227230D01*
X137043725Y-71729492D01*
X136744413Y-71281539D01*
X136363461Y-70900587D01*
X135915508Y-70601275D01*
X135417770Y-70395105D01*
X134889374Y-70290000D01*
X134350626Y-70290000D01*
X133822230Y-70395105D01*
X133324492Y-70601275D01*
X132876539Y-70900587D01*
X132495587Y-71281539D01*
X132196275Y-71729492D01*
X131990105Y-72227230D01*
X131885000Y-72755626D01*
X126660000Y-72755626D01*
X126660000Y-70270000D01*
X177581928Y-70270000D01*
X177585000Y-70834250D01*
X177743750Y-70993000D01*
X178943000Y-70993000D01*
X178943000Y-69793750D01*
X179197000Y-69793750D01*
X179197000Y-70993000D01*
X180396250Y-70993000D01*
X180555000Y-70834250D01*
X180558072Y-70270000D01*
X180545812Y-70145518D01*
X180509502Y-70025820D01*
X180450537Y-69915506D01*
X180371185Y-69818815D01*
X180274494Y-69739463D01*
X180164180Y-69680498D01*
X180044482Y-69644188D01*
X179920000Y-69631928D01*
X179355750Y-69635000D01*
X179197000Y-69793750D01*
X178943000Y-69793750D01*
X178784250Y-69635000D01*
X178220000Y-69631928D01*
X178095518Y-69644188D01*
X177975820Y-69680498D01*
X177865506Y-69739463D01*
X177768815Y-69818815D01*
X177689463Y-69915506D01*
X177630498Y-70025820D01*
X177594188Y-70145518D01*
X177581928Y-70270000D01*
X126660000Y-70270000D01*
X126660000Y-65532279D01*
X126669580Y-65434576D01*
X126688580Y-65371644D01*
X126719445Y-65313595D01*
X126760989Y-65262657D01*
X126811644Y-65220752D01*
X126869471Y-65189485D01*
X126932272Y-65170044D01*
X127027835Y-65160000D01*
X195467721Y-65160000D01*
X195565424Y-65169580D01*
G37*
G04 #@! TD.AperFunction*
G04 #@! TD*
M02*
