M48
;DRILL file {KiCad 4.0.1-stable} date 2020/05/24 23:31:47
;FORMAT={-:-/ absolute / inch / decimal}
FMAT,2
INCH,TZ
T1C0.016
T2C0.030
T3C0.035
T4C0.039
T5C0.047
T6C0.055
T7C0.059
T8C0.157
%
G90
G05
M72
T1
X4.95Y-3.
X4.95Y-3.4
X5.Y-2.75
X5.05Y-2.8
X5.05Y-2.9
X5.05Y-3.4
X5.2Y-4.85
X5.35Y-4.85
X5.4Y-5.8
X5.45Y-3.05
X5.45Y-3.15
X5.7Y-3.5
X5.7Y-3.65
X5.75Y-3.55
X5.75Y-3.65
X6.2Y-4.
X6.35Y-4.
X6.35Y-5.05
X6.45Y-5.05
T2
X5.55Y-2.45
X5.55Y-2.55
X5.55Y-2.65
X5.55Y-2.75
X5.55Y-2.85
X5.55Y-2.95
X5.55Y-3.05
X5.55Y-3.15
X5.55Y-3.25
X5.55Y-3.35
X5.55Y-3.45
X5.55Y-3.55
X5.55Y-3.65
X5.55Y-3.75
X5.55Y-3.85
X5.55Y-3.95
X5.55Y-4.05
X5.55Y-4.15
X5.55Y-4.25
X6.55Y-2.45
X6.55Y-2.55
X6.55Y-2.65
X6.55Y-2.75
X6.55Y-2.85
X6.55Y-2.95
X6.55Y-3.05
X6.55Y-3.15
X6.55Y-3.25
X6.55Y-3.35
X6.55Y-3.45
X6.55Y-3.55
X6.55Y-3.65
X6.55Y-3.75
X6.55Y-3.85
X6.55Y-3.95
X6.55Y-4.05
X6.55Y-4.15
X6.55Y-4.25
T3
X5.1Y-3.25
X5.1Y-3.55
X5.2Y-3.25
X5.2Y-3.55
X5.3Y-3.25
X5.3Y-3.55
X5.4Y-3.25
X5.4Y-3.55
T4
X5.1Y-4.9
X5.1Y-5.
X5.1Y-5.35
X5.1Y-5.45
X5.1Y-5.55
X5.1Y-5.65
X5.1Y-5.75
X5.1Y-5.95
X5.2Y-3.
X5.2Y-5.95
X5.3Y-3.
X5.3Y-5.95
X5.4Y-5.95
X5.8Y-5.
X5.8Y-5.1
X5.8Y-5.55
X5.8Y-5.65
X5.8925Y-2.7453
X6.05Y-2.7453
X6.1Y-4.8
X6.1Y-4.9
X6.1Y-5.
X6.1Y-5.1
X6.2075Y-2.7453
T5
X4.8Y-2.6
X4.8Y-3.3
X4.8Y-4.
X4.8Y-4.7
X4.8Y-5.4
X4.9Y-2.85
X4.9Y-3.55
X4.9Y-4.25
X4.9Y-4.95
X4.9Y-5.65
X5.4Y-5.
X5.4Y-5.65
X5.65Y-5.1
X5.65Y-5.75
X6.75Y-2.65
X6.75Y-3.35
X6.75Y-4.05
X6.75Y-4.75
X6.75Y-5.45
X6.85Y-2.9
X6.85Y-3.6
X6.85Y-4.3
X6.85Y-5.
X6.85Y-5.7
T6
X5.8531Y-2.4106
X6.2469Y-2.4106
T7
X5.0531Y-2.6819
X5.1516Y-2.6819
X5.25Y-2.485
X5.3484Y-2.6819
X5.4469Y-2.6819
T8
X4.7Y-2.75
X4.7Y-3.45
X4.7Y-4.15
X4.7Y-4.85
X4.7Y-5.55
X5.55Y-4.9
X5.55Y-5.55
X6.95Y-2.75
X6.95Y-3.45
X6.95Y-4.15
X6.95Y-4.85
X6.95Y-5.55
T0
M30
