G04 #@! TF.FileFunction,Soldermask,Bot*
%FSLAX46Y46*%
G04 Gerber Fmt 4.6, Leading zero omitted, Abs format (unit mm)*
G04 Created by KiCad (PCBNEW 4.0.1-stable) date 2020/05/24 23:31:30*
%MOMM*%
G01*
G04 APERTURE LIST*
%ADD10C,0.100000*%
%ADD11C,1.924000*%
%ADD12C,2.400000*%
%ADD13C,2.200000*%
%ADD14C,4.600000*%
%ADD15R,2.100000X2.100000*%
%ADD16O,2.100000X2.100000*%
G04 APERTURE END LIST*
D10*
D11*
X140970000Y-85090000D03*
X166370000Y-85090000D03*
X140970000Y-87630000D03*
X140970000Y-90170000D03*
X140970000Y-92710000D03*
X140970000Y-95250000D03*
X140970000Y-97790000D03*
X140970000Y-82550000D03*
X140970000Y-80010000D03*
X140970000Y-77470000D03*
X140970000Y-74930000D03*
X140970000Y-72390000D03*
X140970000Y-69850000D03*
X140970000Y-67310000D03*
X140970000Y-100330000D03*
X140970000Y-102870000D03*
X140970000Y-64770000D03*
X140970000Y-105410000D03*
X140970000Y-107950000D03*
X140970000Y-62230000D03*
X166370000Y-62230000D03*
X166370000Y-64770000D03*
X166370000Y-67310000D03*
X166370000Y-69850000D03*
X166370000Y-72390000D03*
X166370000Y-74930000D03*
X166370000Y-77470000D03*
X166370000Y-80010000D03*
X166370000Y-82550000D03*
X166370000Y-87630000D03*
X166370000Y-90170000D03*
X166370000Y-92710000D03*
X166370000Y-95250000D03*
X166370000Y-97790000D03*
X166370000Y-100330000D03*
X166370000Y-102870000D03*
X166370000Y-105410000D03*
X166370000Y-107950000D03*
D12*
X158670000Y-61230000D03*
D13*
X157670000Y-69730000D03*
X153670000Y-69730000D03*
X149670000Y-69730000D03*
D12*
X148670000Y-61230000D03*
X121920000Y-66040000D03*
X124460000Y-72390000D03*
D14*
X119380000Y-69850000D03*
D15*
X129540000Y-151130000D03*
D16*
X132080000Y-151130000D03*
X134620000Y-151130000D03*
X137160000Y-151130000D03*
D15*
X134620000Y-76200000D03*
D16*
X132080000Y-76200000D03*
D12*
X133350000Y-63120000D03*
X138350000Y-68120000D03*
X135850000Y-68120000D03*
X130850000Y-68120000D03*
X128350000Y-68120000D03*
X121920000Y-83820000D03*
X124460000Y-90170000D03*
D14*
X119380000Y-87630000D03*
D12*
X121920000Y-101600000D03*
X124460000Y-107950000D03*
D14*
X119380000Y-105410000D03*
D12*
X121920000Y-119380000D03*
X124460000Y-125730000D03*
D14*
X119380000Y-123190000D03*
D12*
X121920000Y-137160000D03*
X124460000Y-143510000D03*
D14*
X119380000Y-140970000D03*
D12*
X173990000Y-73660000D03*
X171450000Y-67310000D03*
D14*
X176530000Y-69850000D03*
D12*
X173990000Y-91440000D03*
X171450000Y-85090000D03*
D14*
X176530000Y-87630000D03*
D12*
X173990000Y-109220000D03*
X171450000Y-102870000D03*
D14*
X176530000Y-105410000D03*
D12*
X173990000Y-127000000D03*
X171450000Y-120650000D03*
D14*
X176530000Y-123190000D03*
D12*
X173990000Y-144780000D03*
X171450000Y-138430000D03*
D14*
X176530000Y-140970000D03*
D12*
X137160000Y-143510000D03*
X143510000Y-146050000D03*
D14*
X140970000Y-140970000D03*
D12*
X137160000Y-127000000D03*
X143510000Y-129540000D03*
D14*
X140970000Y-124460000D03*
D15*
X129540000Y-124460000D03*
D16*
X129540000Y-127000000D03*
D15*
X147320000Y-127000000D03*
D16*
X147320000Y-129540000D03*
D15*
X147320000Y-140970000D03*
D16*
X147320000Y-143510000D03*
D15*
X154940000Y-121920000D03*
D16*
X154940000Y-124460000D03*
X154940000Y-127000000D03*
X154940000Y-129540000D03*
D11*
X137160000Y-90170000D03*
X134620000Y-90170000D03*
X132080000Y-90170000D03*
X129540000Y-90170000D03*
X137160000Y-82550000D03*
X134620000Y-82550000D03*
X132080000Y-82550000D03*
X129540000Y-82550000D03*
D15*
X129540000Y-146050000D03*
D16*
X129540000Y-143510000D03*
X129540000Y-140970000D03*
X129540000Y-138430000D03*
X129540000Y-135890000D03*
M02*
