M48
; DRILL file {KiCad (5.1.8)-1} date 04/09/21 23:43:54
; FORMAT={-:-/ absolute / metric / decimal}
; #@! TF.CreationDate,2021-04-09T23:43:54+09:00
; #@! TF.GenerationSoftware,Kicad,Pcbnew,(5.1.8)-1
FMAT,2
METRIC
T1C0.400
T2C0.800
T3C0.900
T4C1.000
T5C1.100
T6C1.200
T7C1.400
T8C1.500
T9C4.000
T10C3.500
%
G90
G05
T1
X128.905Y-85.09
X131.445Y-85.09
X133.985Y-85.09
X144.78Y-103.505
X144.78Y-106.045
X144.78Y-109.855
X147.32Y-97.155
X147.32Y-98.425
X151.13Y-103.505
X151.13Y-106.045
X151.13Y-109.855
X152.4Y-97.155
X153.67Y-98.425
T2
X142.24Y-172.72
X142.24Y-174.72
X142.24Y-176.72
X142.24Y-178.72
X167.005Y-172.72
X167.005Y-174.72
X167.005Y-176.72
X167.005Y-178.72
T3
X151.765Y-144.145
X151.765Y-151.765
X154.305Y-144.145
X154.305Y-151.765
X156.845Y-144.145
X156.845Y-151.765
X159.385Y-144.145
X159.385Y-151.765
T4
X140.335Y-61.595
X140.335Y-64.135
X140.335Y-66.675
X140.335Y-69.215
X140.335Y-71.755
X140.335Y-74.295
X140.335Y-76.835
X140.335Y-79.375
X140.335Y-81.915
X140.335Y-84.455
X140.335Y-86.995
X140.335Y-89.535
X140.335Y-92.075
X140.335Y-94.615
X140.335Y-97.155
X140.335Y-99.695
X140.335Y-102.235
X140.335Y-104.775
X140.335Y-107.315
X165.735Y-61.595
X165.735Y-64.135
X165.735Y-66.675
X165.735Y-69.215
X165.735Y-71.755
X165.735Y-74.295
X165.735Y-76.835
X165.735Y-79.375
X165.735Y-81.915
X165.735Y-84.455
X165.735Y-86.995
X165.735Y-89.535
X165.735Y-92.075
X165.735Y-94.615
X165.735Y-97.155
X165.735Y-99.695
X165.735Y-102.235
X165.735Y-104.775
X165.735Y-107.315
X151.13Y-76.2
X151.13Y-78.74
X128.905Y-70.485
X131.445Y-70.485
X133.985Y-70.485
X136.525Y-70.485
X147.32Y-89.535
X147.32Y-92.075
X144.145Y-153.67
X146.685Y-153.67
X180.34Y-172.085
X180.34Y-174.625
X180.34Y-177.165
X159.385Y-162.56
X159.385Y-165.1
X158.115Y-76.2
X158.115Y-78.74
X172.205Y-156.845
X172.205Y-160.845
X172.205Y-164.845
X154.305Y-162.56
X154.305Y-165.1
T5
X146.05Y-161.925
X146.05Y-164.465
X146.05Y-167.005
T6
X170.815Y-66.675
X173.355Y-73.025
X152.4Y-119.5
X152.4Y-134.5
X170.815Y-84.455
X173.355Y-90.805
X121.285Y-100.965
X123.825Y-107.315
X170.815Y-102.235
X173.355Y-108.585
X121.285Y-136.525
X123.825Y-142.875
X121.285Y-65.405
X123.825Y-71.755
X170.815Y-120.015
X173.355Y-126.365
X121.285Y-83.185
X123.825Y-89.535
X122.555Y-160.655
X122.555Y-173.355
X170.815Y-137.795
X173.355Y-144.145
X136.525Y-126.365
X142.875Y-128.905
X121.285Y-118.745
X123.825Y-125.095
X136.525Y-142.875
X142.875Y-145.415
T7
X182.205Y-155.845
X182.205Y-165.845
T8
X148.035Y-70.025
X150.535Y-70.025
X153.035Y-65.025
X155.535Y-70.025
X158.035Y-70.025
X112.65Y-167.005
X117.65Y-162.005
X117.65Y-164.505
X117.65Y-169.505
X117.65Y-172.005
T9
X118.745Y-69.215
X175.895Y-140.335
X140.335Y-123.825
X118.745Y-122.555
X140.335Y-140.335
X175.895Y-69.215
X175.895Y-86.995
X118.745Y-104.775
X175.895Y-104.775
X118.745Y-140.335
X175.895Y-122.555
X118.745Y-86.995
T10
X129.39Y-164.465
T0
M30
