G04 #@! TF.GenerationSoftware,KiCad,Pcbnew,(5.1.8)-1*
G04 #@! TF.CreationDate,2021-02-19T23:09:38+09:00*
G04 #@! TF.ProjectId,windsynyh5,77696e64-7379-46e7-9968-352e6b696361,rev?*
G04 #@! TF.SameCoordinates,Original*
G04 #@! TF.FileFunction,Copper,L1,Top*
G04 #@! TF.FilePolarity,Positive*
%FSLAX46Y46*%
G04 Gerber Fmt 4.6, Leading zero omitted, Abs format (unit mm)*
G04 Created by KiCad (PCBNEW (5.1.8)-1) date 2021-02-19 23:09:38*
%MOMM*%
%LPD*%
G01*
G04 APERTURE LIST*
G04 #@! TA.AperFunction,ComponentPad*
%ADD10C,2.000000*%
G04 #@! TD*
G04 #@! TA.AperFunction,ComponentPad*
%ADD11R,2.000000X1.905000*%
G04 #@! TD*
G04 #@! TA.AperFunction,ComponentPad*
%ADD12O,2.000000X1.905000*%
G04 #@! TD*
G04 #@! TA.AperFunction,ComponentPad*
%ADD13C,1.800000*%
G04 #@! TD*
G04 #@! TA.AperFunction,ComponentPad*
%ADD14C,1.524000*%
G04 #@! TD*
G04 #@! TA.AperFunction,ComponentPad*
%ADD15C,4.200000*%
G04 #@! TD*
G04 #@! TA.AperFunction,ComponentPad*
%ADD16R,1.700000X1.700000*%
G04 #@! TD*
G04 #@! TA.AperFunction,ComponentPad*
%ADD17O,1.700000X1.700000*%
G04 #@! TD*
G04 #@! TA.AperFunction,ComponentPad*
%ADD18R,1.350000X1.350000*%
G04 #@! TD*
G04 #@! TA.AperFunction,ComponentPad*
%ADD19O,1.350000X1.350000*%
G04 #@! TD*
G04 #@! TA.AperFunction,ViaPad*
%ADD20C,0.600000*%
G04 #@! TD*
G04 #@! TA.AperFunction,Conductor*
%ADD21C,0.250000*%
G04 #@! TD*
G04 APERTURE END LIST*
D10*
G04 #@! TO.P,HEADPHONE,5*
G04 #@! TO.N,Net-(P3-Pad2)*
X117650000Y-162005000D03*
G04 #@! TO.P,HEADPHONE,4*
G04 #@! TO.N,Net-(P3-Pad3)*
X117650000Y-164505000D03*
G04 #@! TO.P,HEADPHONE,3*
X117650000Y-169505000D03*
G04 #@! TO.P,HEADPHONE,2*
G04 #@! TO.N,Net-(P3-Pad2)*
X117650000Y-172005000D03*
G04 #@! TO.P,HEADPHONE,1*
G04 #@! TO.N,GND*
X112650000Y-167005000D03*
G04 #@! TD*
G04 #@! TO.P,TRS-MIDI,5*
G04 #@! TO.N,Net-(P8-Pad5)*
X158035000Y-70025000D03*
G04 #@! TO.P,TRS-MIDI,4*
G04 #@! TO.N,Net-(P8-Pad4)*
X155535000Y-70025000D03*
G04 #@! TO.P,TRS-MIDI,3*
G04 #@! TO.N,Net-(P8-Pad3)*
X150535000Y-70025000D03*
G04 #@! TO.P,TRS-MIDI,2*
G04 #@! TO.N,Net-(P8-Pad2)*
X148035000Y-70025000D03*
G04 #@! TO.P,TRS-MIDI,1*
G04 #@! TO.N,GND*
X153035000Y-65025000D03*
G04 #@! TD*
G04 #@! TO.P,BATTERY (\u002A),2*
G04 #@! TO.N,GND*
X122555000Y-160655000D03*
G04 #@! TO.P,BATTERY (\u002A),1*
G04 #@! TO.N,Net-(P4-Pad1)*
X122555000Y-173355000D03*
G04 #@! TD*
D11*
G04 #@! TO.P,L7805,1*
G04 #@! TO.N,+9V*
X146050000Y-167005000D03*
D12*
G04 #@! TO.P,L7805,2*
G04 #@! TO.N,GND*
X146050000Y-164465000D03*
G04 #@! TO.P,L7805,3*
G04 #@! TO.N,Net-(D2-Pad2)*
X146050000Y-161925000D03*
G04 #@! TD*
D10*
G04 #@! TO.P,VOLUME,*
G04 #@! TO.N,*
X182205000Y-168195000D03*
D13*
G04 #@! TO.P,VOLUME,3*
G04 #@! TO.N,Net-(C1-Pad1)*
X172205000Y-167195000D03*
G04 #@! TO.P,VOLUME,2*
G04 #@! TO.N,Net-(P3-Pad2)*
X172205000Y-163195000D03*
G04 #@! TO.P,VOLUME,1*
G04 #@! TO.N,GND*
X172205000Y-159195000D03*
D10*
G04 #@! TO.P,VOLUME,*
G04 #@! TO.N,*
X182205000Y-158195000D03*
G04 #@! TD*
D14*
G04 #@! TO.P,ESP32-DEVKIT-C (\u002A),10*
G04 #@! TO.N,Net-(KeyB1-Pad1)*
X140335000Y-84455000D03*
G04 #@! TO.P,ESP32-DEVKIT-C (\u002A),29*
G04 #@! TO.N,Net-(KeyD1-Pad1)*
X165735000Y-84455000D03*
G04 #@! TO.P,ESP32-DEVKIT-C (\u002A),9*
G04 #@! TO.N,Net-(R1-Pad1)*
X140335000Y-86995000D03*
G04 #@! TO.P,ESP32-DEVKIT-C (\u002A),8*
G04 #@! TO.N,Net-(D1-Pad2)*
X140335000Y-89535000D03*
G04 #@! TO.P,ESP32-DEVKIT-C (\u002A),7*
G04 #@! TO.N,Net-(P5-Pad2)*
X140335000Y-92075000D03*
G04 #@! TO.P,ESP32-DEVKIT-C (\u002A),6*
G04 #@! TO.N,Net-(U1-Pad6)*
X140335000Y-94615000D03*
G04 #@! TO.P,ESP32-DEVKIT-C (\u002A),5*
G04 #@! TO.N,Net-(U1-Pad5)*
X140335000Y-97155000D03*
G04 #@! TO.P,ESP32-DEVKIT-C (\u002A),11*
G04 #@! TO.N,Net-(KeyA1-Pad1)*
X140335000Y-81915000D03*
G04 #@! TO.P,ESP32-DEVKIT-C (\u002A),12*
G04 #@! TO.N,Net-(KeyG1-Pad1)*
X140335000Y-79375000D03*
G04 #@! TO.P,ESP32-DEVKIT-C (\u002A),13*
G04 #@! TO.N,Net-(KeyG#1-Pad1)*
X140335000Y-76835000D03*
G04 #@! TO.P,ESP32-DEVKIT-C (\u002A),14*
G04 #@! TO.N,GND*
X140335000Y-74295000D03*
G04 #@! TO.P,ESP32-DEVKIT-C (\u002A),15*
G04 #@! TO.N,Net-(KeyLowC#1-Pad1)*
X140335000Y-71755000D03*
G04 #@! TO.P,ESP32-DEVKIT-C (\u002A),16*
G04 #@! TO.N,Net-(U1-Pad16)*
X140335000Y-69215000D03*
G04 #@! TO.P,ESP32-DEVKIT-C (\u002A),17*
G04 #@! TO.N,Net-(U1-Pad17)*
X140335000Y-66675000D03*
G04 #@! TO.P,ESP32-DEVKIT-C (\u002A),4*
G04 #@! TO.N,Net-(U1-Pad4)*
X140335000Y-99695000D03*
G04 #@! TO.P,ESP32-DEVKIT-C (\u002A),3*
G04 #@! TO.N,Net-(U1-Pad3)*
X140335000Y-102235000D03*
G04 #@! TO.P,ESP32-DEVKIT-C (\u002A),18*
G04 #@! TO.N,Net-(U1-Pad18)*
X140335000Y-64135000D03*
G04 #@! TO.P,ESP32-DEVKIT-C (\u002A),2*
G04 #@! TO.N,Net-(U1-Pad2)*
X140335000Y-104775000D03*
G04 #@! TO.P,ESP32-DEVKIT-C (\u002A),1*
G04 #@! TO.N,Net-(P1-Pad2)*
X140335000Y-107315000D03*
G04 #@! TO.P,ESP32-DEVKIT-C (\u002A),19*
G04 #@! TO.N,+5V*
X140335000Y-61595000D03*
G04 #@! TO.P,ESP32-DEVKIT-C (\u002A),20*
G04 #@! TO.N,Net-(U1-Pad20)*
X165735000Y-61595000D03*
G04 #@! TO.P,ESP32-DEVKIT-C (\u002A),21*
G04 #@! TO.N,Net-(U1-Pad21)*
X165735000Y-64135000D03*
G04 #@! TO.P,ESP32-DEVKIT-C (\u002A),22*
G04 #@! TO.N,Net-(U1-Pad22)*
X165735000Y-66675000D03*
G04 #@! TO.P,ESP32-DEVKIT-C (\u002A),23*
G04 #@! TO.N,Net-(U1-Pad23)*
X165735000Y-69215000D03*
G04 #@! TO.P,ESP32-DEVKIT-C (\u002A),24*
G04 #@! TO.N,Net-(U1-Pad24)*
X165735000Y-71755000D03*
G04 #@! TO.P,ESP32-DEVKIT-C (\u002A),25*
G04 #@! TO.N,Net-(U1-Pad25)*
X165735000Y-74295000D03*
G04 #@! TO.P,ESP32-DEVKIT-C (\u002A),26*
G04 #@! TO.N,Net-(KeyUP1-Pad1)*
X165735000Y-76835000D03*
G04 #@! TO.P,ESP32-DEVKIT-C (\u002A),27*
G04 #@! TO.N,Net-(KeyLowC1-Pad1)*
X165735000Y-79375000D03*
G04 #@! TO.P,ESP32-DEVKIT-C (\u002A),28*
G04 #@! TO.N,Net-(KeyEb1-Pad1)*
X165735000Y-81915000D03*
G04 #@! TO.P,ESP32-DEVKIT-C (\u002A),30*
G04 #@! TO.N,Net-(KeyE1-Pad1)*
X165735000Y-86995000D03*
G04 #@! TO.P,ESP32-DEVKIT-C (\u002A),31*
G04 #@! TO.N,Net-(KeyF1-Pad1)*
X165735000Y-89535000D03*
G04 #@! TO.P,ESP32-DEVKIT-C (\u002A),32*
G04 #@! TO.N,GND*
X165735000Y-92075000D03*
G04 #@! TO.P,ESP32-DEVKIT-C (\u002A),33*
G04 #@! TO.N,Net-(P1-Pad3)*
X165735000Y-94615000D03*
G04 #@! TO.P,ESP32-DEVKIT-C (\u002A),34*
G04 #@! TO.N,Net-(U1-Pad34)*
X165735000Y-97155000D03*
G04 #@! TO.P,ESP32-DEVKIT-C (\u002A),35*
G04 #@! TO.N,Net-(R2-Pad1)*
X165735000Y-99695000D03*
G04 #@! TO.P,ESP32-DEVKIT-C (\u002A),36*
G04 #@! TO.N,Net-(P1-Pad4)*
X165735000Y-102235000D03*
G04 #@! TO.P,ESP32-DEVKIT-C (\u002A),37*
G04 #@! TO.N,Net-(KeyDown1-Pad1)*
X165735000Y-104775000D03*
G04 #@! TO.P,ESP32-DEVKIT-C (\u002A),38*
G04 #@! TO.N,GND*
X165735000Y-107315000D03*
G04 #@! TD*
D10*
G04 #@! TO.P,KeyLowC#,1*
G04 #@! TO.N,Net-(KeyLowC#1-Pad1)*
X121285000Y-65405000D03*
G04 #@! TO.P,KeyLowC#,2*
G04 #@! TO.N,GND*
X123825000Y-71755000D03*
D15*
G04 #@! TO.P,KeyLowC#,3*
G04 #@! TO.N,Net-(KeyLowC#1-Pad3)*
X118745000Y-69215000D03*
G04 #@! TD*
D10*
G04 #@! TO.P,KeyG#,1*
G04 #@! TO.N,Net-(KeyG#1-Pad1)*
X121285000Y-83185000D03*
G04 #@! TO.P,KeyG#,2*
G04 #@! TO.N,GND*
X123825000Y-89535000D03*
D15*
G04 #@! TO.P,KeyG#,3*
G04 #@! TO.N,Net-(KeyG#1-Pad3)*
X118745000Y-86995000D03*
G04 #@! TD*
D10*
G04 #@! TO.P,KeyG,1*
G04 #@! TO.N,Net-(KeyG1-Pad1)*
X121285000Y-100965000D03*
G04 #@! TO.P,KeyG,2*
G04 #@! TO.N,GND*
X123825000Y-107315000D03*
D15*
G04 #@! TO.P,KeyG,3*
G04 #@! TO.N,Net-(KeyG1-Pad3)*
X118745000Y-104775000D03*
G04 #@! TD*
D10*
G04 #@! TO.P,KeyA,1*
G04 #@! TO.N,Net-(KeyA1-Pad1)*
X121285000Y-118745000D03*
G04 #@! TO.P,KeyA,2*
G04 #@! TO.N,GND*
X123825000Y-125095000D03*
D15*
G04 #@! TO.P,KeyA,3*
G04 #@! TO.N,Net-(KeyA1-Pad3)*
X118745000Y-122555000D03*
G04 #@! TD*
D10*
G04 #@! TO.P,KeyB,1*
G04 #@! TO.N,Net-(KeyB1-Pad1)*
X121285000Y-136525000D03*
G04 #@! TO.P,KeyB,2*
G04 #@! TO.N,GND*
X123825000Y-142875000D03*
D15*
G04 #@! TO.P,KeyB,3*
G04 #@! TO.N,Net-(KeyB1-Pad3)*
X118745000Y-140335000D03*
G04 #@! TD*
D10*
G04 #@! TO.P,KeyLowC,1*
G04 #@! TO.N,Net-(KeyLowC1-Pad1)*
X173355000Y-73025000D03*
G04 #@! TO.P,KeyLowC,2*
G04 #@! TO.N,GND*
X170815000Y-66675000D03*
D15*
G04 #@! TO.P,KeyLowC,3*
G04 #@! TO.N,Net-(KeyLowC1-Pad3)*
X175895000Y-69215000D03*
G04 #@! TD*
D10*
G04 #@! TO.P,KeyEb,1*
G04 #@! TO.N,Net-(KeyEb1-Pad1)*
X173355000Y-90805000D03*
G04 #@! TO.P,KeyEb,2*
G04 #@! TO.N,GND*
X170815000Y-84455000D03*
D15*
G04 #@! TO.P,KeyEb,3*
G04 #@! TO.N,Net-(KeyEb1-Pad3)*
X175895000Y-86995000D03*
G04 #@! TD*
D10*
G04 #@! TO.P,KeyD,1*
G04 #@! TO.N,Net-(KeyD1-Pad1)*
X173355000Y-108585000D03*
G04 #@! TO.P,KeyD,2*
G04 #@! TO.N,GND*
X170815000Y-102235000D03*
D15*
G04 #@! TO.P,KeyD,3*
G04 #@! TO.N,Net-(KeyD1-Pad3)*
X175895000Y-104775000D03*
G04 #@! TD*
D10*
G04 #@! TO.P,KeyE,1*
G04 #@! TO.N,Net-(KeyE1-Pad1)*
X173355000Y-126365000D03*
G04 #@! TO.P,KeyE,2*
G04 #@! TO.N,GND*
X170815000Y-120015000D03*
D15*
G04 #@! TO.P,KeyE,3*
G04 #@! TO.N,Net-(KeyE1-Pad3)*
X175895000Y-122555000D03*
G04 #@! TD*
D10*
G04 #@! TO.P,KeyF,1*
G04 #@! TO.N,Net-(KeyF1-Pad1)*
X173355000Y-144145000D03*
G04 #@! TO.P,KeyF,2*
G04 #@! TO.N,GND*
X170815000Y-137795000D03*
D15*
G04 #@! TO.P,KeyF,3*
G04 #@! TO.N,Net-(KeyF1-Pad3)*
X175895000Y-140335000D03*
G04 #@! TD*
D10*
G04 #@! TO.P,KeyUp,1*
G04 #@! TO.N,Net-(KeyUP1-Pad1)*
X136525000Y-142875000D03*
G04 #@! TO.P,KeyUp,2*
G04 #@! TO.N,GND*
X142875000Y-145415000D03*
D15*
G04 #@! TO.P,KeyUp,3*
G04 #@! TO.N,Net-(KeyUP1-Pad3)*
X140335000Y-140335000D03*
G04 #@! TD*
D10*
G04 #@! TO.P,KeyDown,1*
G04 #@! TO.N,Net-(KeyDown1-Pad1)*
X136525000Y-126365000D03*
G04 #@! TO.P,KeyDown,2*
G04 #@! TO.N,GND*
X142875000Y-128905000D03*
D15*
G04 #@! TO.P,KeyDown,3*
G04 #@! TO.N,Net-(KeyDown1-Pad3)*
X140335000Y-123825000D03*
G04 #@! TD*
D14*
G04 #@! TO.P,AE-PAM8012,1*
G04 #@! TO.N,+5V*
X151765000Y-151765000D03*
G04 #@! TO.P,AE-PAM8012,2*
G04 #@! TO.N,GND*
X154305000Y-151765000D03*
G04 #@! TO.P,AE-PAM8012,3*
G04 #@! TO.N,Net-(P3-Pad3)*
X156845000Y-151765000D03*
G04 #@! TO.P,AE-PAM8012,4*
G04 #@! TO.N,GND*
X159385000Y-151765000D03*
G04 #@! TO.P,AE-PAM8012,5*
G04 #@! TO.N,Net-(P2-Pad1)*
X151765000Y-144145000D03*
G04 #@! TO.P,AE-PAM8012,6*
G04 #@! TO.N,Net-(P6-Pad6)*
X154305000Y-144145000D03*
G04 #@! TO.P,AE-PAM8012,7*
G04 #@! TO.N,Net-(P6-Pad7)*
X156845000Y-144145000D03*
G04 #@! TO.P,AE-PAM8012,8*
G04 #@! TO.N,Net-(P2-Pad2)*
X159385000Y-144145000D03*
G04 #@! TD*
D16*
G04 #@! TO.P,LED,1*
G04 #@! TO.N,GND*
X147320000Y-92075000D03*
D17*
G04 #@! TO.P,LED,2*
G04 #@! TO.N,Net-(D1-Pad2)*
X147320000Y-89535000D03*
G04 #@! TD*
D16*
G04 #@! TO.P,R1,1*
G04 #@! TO.N,Net-(R1-Pad1)*
X154305000Y-162560000D03*
D17*
G04 #@! TO.P,R1,2*
G04 #@! TO.N,Net-(C1-Pad1)*
X154305000Y-165100000D03*
G04 #@! TD*
D16*
G04 #@! TO.P,R2,1*
G04 #@! TO.N,Net-(R2-Pad1)*
X158115000Y-78740000D03*
D17*
G04 #@! TO.P,R2,2*
G04 #@! TO.N,Net-(P8-Pad5)*
X158115000Y-76200000D03*
G04 #@! TD*
D16*
G04 #@! TO.P,R3,1*
G04 #@! TO.N,Net-(P1-Pad2)*
X151130000Y-78740000D03*
D17*
G04 #@! TO.P,R3,2*
G04 #@! TO.N,Net-(P8-Pad2)*
X151130000Y-76200000D03*
G04 #@! TD*
D16*
G04 #@! TO.P,C1,1*
G04 #@! TO.N,Net-(C1-Pad1)*
X159385000Y-165100000D03*
D17*
G04 #@! TO.P,C1,2*
G04 #@! TO.N,GND*
X159385000Y-162560000D03*
G04 #@! TD*
D16*
G04 #@! TO.P,EXT,1*
G04 #@! TO.N,+5V*
X128905000Y-70485000D03*
D17*
G04 #@! TO.P,EXT,2*
G04 #@! TO.N,Net-(P5-Pad2)*
X131445000Y-70485000D03*
G04 #@! TO.P,EXT,3*
G04 #@! TO.N,Net-(D1-Pad2)*
X133985000Y-70485000D03*
G04 #@! TO.P,EXT,4*
G04 #@! TO.N,GND*
X136525000Y-70485000D03*
G04 #@! TD*
D10*
G04 #@! TO.P,SPEAKER (\u002A),1*
G04 #@! TO.N,Net-(P2-Pad1)*
X152400000Y-134500000D03*
G04 #@! TO.P,SPEAKER (\u002A),2*
G04 #@! TO.N,Net-(P2-Pad2)*
X152400000Y-119500000D03*
G04 #@! TD*
D18*
G04 #@! TO.P,SENSOR,1*
G04 #@! TO.N,GND*
X167005000Y-172720000D03*
D19*
G04 #@! TO.P,SENSOR,2*
G04 #@! TO.N,Net-(P1-Pad2)*
X167005000Y-174720000D03*
G04 #@! TO.P,SENSOR,3*
G04 #@! TO.N,Net-(P1-Pad3)*
X167005000Y-176720000D03*
G04 #@! TO.P,SENSOR,4*
G04 #@! TO.N,Net-(P1-Pad4)*
X167005000Y-178720000D03*
G04 #@! TD*
D18*
G04 #@! TO.P,I2C,1*
G04 #@! TO.N,GND*
X142240000Y-172720000D03*
D19*
G04 #@! TO.P,I2C,2*
G04 #@! TO.N,Net-(P1-Pad2)*
X142240000Y-174720000D03*
G04 #@! TO.P,I2C,3*
G04 #@! TO.N,Net-(P1-Pad3)*
X142240000Y-176720000D03*
G04 #@! TO.P,I2C,4*
G04 #@! TO.N,Net-(P1-Pad4)*
X142240000Y-178720000D03*
G04 #@! TD*
D16*
G04 #@! TO.P,SW1,1*
G04 #@! TO.N,+9V*
X180213000Y-174625000D03*
D17*
G04 #@! TO.P,SW1,2*
G04 #@! TO.N,Net-(P4-Pad1)*
X180213000Y-177165000D03*
G04 #@! TO.P,SW1,3*
G04 #@! TO.N,Net-(SW1-Pad3)*
X180213000Y-179705000D03*
G04 #@! TD*
D16*
G04 #@! TO.P,D2,1*
G04 #@! TO.N,+5V*
X146685000Y-153670000D03*
D17*
G04 #@! TO.P,D2,2*
G04 #@! TO.N,Net-(D2-Pad2)*
X144145000Y-153670000D03*
G04 #@! TD*
D20*
G04 #@! TO.N,Net-(P1-Pad3)*
X144780000Y-106045000D03*
X151130000Y-106045000D03*
G04 #@! TO.N,Net-(P1-Pad4)*
X144780000Y-103505000D03*
X151130000Y-103505000D03*
G04 #@! TO.N,+5V*
X128905000Y-85090000D03*
G04 #@! TO.N,Net-(KeyDown1-Pad1)*
X144780000Y-109855000D03*
X151130000Y-109855000D03*
G04 #@! TO.N,Net-(KeyUP1-Pad1)*
X147320000Y-98425000D03*
X153670000Y-98425000D03*
G04 #@! TO.N,Net-(P5-Pad2)*
X131445000Y-85090000D03*
G04 #@! TO.N,Net-(D1-Pad2)*
X133985000Y-85090000D03*
G04 #@! TO.N,Net-(P1-Pad2)*
X147320000Y-97155000D03*
X151130000Y-97155000D03*
G04 #@! TD*
D21*
G04 #@! TO.N,Net-(P1-Pad3)*
X165735000Y-94615000D02*
X166370000Y-94615000D01*
X165735000Y-94615000D02*
X166370000Y-94615000D01*
X140525000Y-176720000D02*
X138430000Y-174625000D01*
X138430000Y-174625000D02*
X138430000Y-154305000D01*
X138430000Y-154305000D02*
X132715000Y-148590000D01*
X132715000Y-148590000D02*
X132715000Y-107315000D01*
X166370000Y-94615000D02*
X167640000Y-95885000D01*
X167640000Y-95885000D02*
X167640000Y-102870000D01*
X167640000Y-102870000D02*
X167005000Y-103505000D01*
X133985000Y-106045000D02*
X132715000Y-107315000D01*
X133985000Y-106045000D02*
X144780000Y-106045000D01*
X151130000Y-106045000D02*
X160655000Y-106045000D01*
X160655000Y-106045000D02*
X163195000Y-103505000D01*
X163195000Y-103505000D02*
X167005000Y-103505000D01*
X152590000Y-176720000D02*
X167005000Y-176720000D01*
X149860000Y-173990000D02*
X152590000Y-176720000D01*
X144970000Y-173990000D02*
X149860000Y-173990000D01*
X142240000Y-176720000D02*
X144970000Y-173990000D01*
X140525000Y-176720000D02*
X142240000Y-176720000D01*
G04 #@! TO.N,Net-(P1-Pad4)*
X151130000Y-103505000D02*
X161290000Y-103505000D01*
X162560000Y-102235000D02*
X165735000Y-102235000D01*
X161290000Y-103505000D02*
X162560000Y-102235000D01*
X132080000Y-103505000D02*
X144780000Y-103505000D01*
X130810000Y-149225000D02*
X130810000Y-104775000D01*
X136525000Y-176530000D02*
X136525000Y-154940000D01*
X130810000Y-104775000D02*
X132080000Y-103505000D01*
X136525000Y-154940000D02*
X130810000Y-149225000D01*
X138715000Y-178720000D02*
X136525000Y-176530000D01*
X145700000Y-175260000D02*
X142240000Y-178720000D01*
X149225000Y-175260000D02*
X145700000Y-175260000D01*
X152685000Y-178720000D02*
X149225000Y-175260000D01*
X167005000Y-178720000D02*
X152685000Y-178720000D01*
X138715000Y-178720000D02*
X142240000Y-178720000D01*
G04 #@! TO.N,Net-(P2-Pad1)*
X151765000Y-135135000D02*
X152400000Y-134500000D01*
X151765000Y-144145000D02*
X151765000Y-135135000D01*
G04 #@! TO.N,+5V*
X140335000Y-61595000D02*
X140335000Y-60960000D01*
X128905000Y-70485000D02*
X128905000Y-64135000D01*
X131445000Y-61595000D02*
X140335000Y-61595000D01*
X128905000Y-64135000D02*
X131445000Y-61595000D01*
X148590000Y-151765000D02*
X146685000Y-153670000D01*
X148590000Y-97155000D02*
X148590000Y-151765000D01*
X147320000Y-95885000D02*
X148590000Y-97155000D01*
X129540000Y-95885000D02*
X147320000Y-95885000D01*
X128905000Y-95250000D02*
X129540000Y-95885000D01*
X128905000Y-85090000D02*
X128905000Y-95250000D01*
G04 #@! TO.N,Net-(KeyA1-Pad1)*
X140335000Y-81915000D02*
X127635000Y-81915000D01*
X121285000Y-107315000D02*
X121285000Y-118745000D01*
X123825000Y-104775000D02*
X121285000Y-107315000D01*
X123825000Y-92075000D02*
X123825000Y-104775000D01*
X126365000Y-89535000D02*
X123825000Y-92075000D01*
X126365000Y-83185000D02*
X126365000Y-89535000D01*
X127635000Y-81915000D02*
X126365000Y-83185000D01*
G04 #@! TO.N,Net-(KeyB1-Pad1)*
X140335000Y-84455000D02*
X139065000Y-83185000D01*
X121285000Y-125095000D02*
X121285000Y-136525000D01*
X123825000Y-122555000D02*
X121285000Y-125095000D01*
X123825000Y-111125000D02*
X123825000Y-122555000D01*
X126365000Y-108585000D02*
X123825000Y-111125000D01*
X126365000Y-91440000D02*
X126365000Y-108585000D01*
X127635000Y-90170000D02*
X126365000Y-91440000D01*
X127635000Y-83820000D02*
X127635000Y-90170000D01*
X128270000Y-83185000D02*
X127635000Y-83820000D01*
X139065000Y-83185000D02*
X128270000Y-83185000D01*
G04 #@! TO.N,Net-(KeyD1-Pad1)*
X165735000Y-84455000D02*
X168275000Y-84455000D01*
X178435000Y-108585000D02*
X173355000Y-108585000D01*
X179705000Y-107315000D02*
X178435000Y-108585000D01*
X179705000Y-94615000D02*
X179705000Y-107315000D01*
X178435000Y-93345000D02*
X179705000Y-94615000D01*
X172085000Y-93345000D02*
X178435000Y-93345000D01*
X170815000Y-92075000D02*
X172085000Y-93345000D01*
X170815000Y-86995000D02*
X170815000Y-92075000D01*
X168275000Y-84455000D02*
X170815000Y-86995000D01*
G04 #@! TO.N,Net-(KeyDown1-Pad1)*
X136525000Y-111760000D02*
X136525000Y-126365000D01*
X138430000Y-109855000D02*
X136525000Y-111760000D01*
X138430000Y-109855000D02*
X144780000Y-109855000D01*
X151130000Y-109855000D02*
X159385000Y-109855000D01*
X164465000Y-104775000D02*
X165735000Y-104775000D01*
X159385000Y-109855000D02*
X164465000Y-104775000D01*
G04 #@! TO.N,Net-(KeyE1-Pad1)*
X165735000Y-86995000D02*
X168275000Y-86995000D01*
X172085000Y-126365000D02*
X173355000Y-126365000D01*
X170815000Y-125095000D02*
X172085000Y-126365000D01*
X170815000Y-122555000D02*
X170815000Y-125095000D01*
X173355000Y-120015000D02*
X170815000Y-122555000D01*
X173355000Y-112395000D02*
X173355000Y-120015000D01*
X170815000Y-109855000D02*
X173355000Y-112395000D01*
X170815000Y-104775000D02*
X170815000Y-109855000D01*
X173355000Y-102235000D02*
X170815000Y-104775000D01*
X173355000Y-97155000D02*
X173355000Y-102235000D01*
X169545000Y-93345000D02*
X173355000Y-97155000D01*
X169545000Y-88265000D02*
X169545000Y-93345000D01*
X168275000Y-86995000D02*
X169545000Y-88265000D01*
G04 #@! TO.N,Net-(KeyEb1-Pad1)*
X165735000Y-81915000D02*
X178435000Y-81915000D01*
X178435000Y-90805000D02*
X173355000Y-90805000D01*
X179705000Y-89535000D02*
X178435000Y-90805000D01*
X179705000Y-83185000D02*
X179705000Y-89535000D01*
X178435000Y-81915000D02*
X179705000Y-83185000D01*
G04 #@! TO.N,Net-(KeyF1-Pad1)*
X165735000Y-89535000D02*
X167005000Y-89535000D01*
X167005000Y-89535000D02*
X168275000Y-90805000D01*
X168275000Y-90805000D02*
X168275000Y-95250000D01*
X168275000Y-95250000D02*
X168910000Y-95885000D01*
X168910000Y-139700000D02*
X173355000Y-144145000D01*
X168910000Y-95885000D02*
X168910000Y-139700000D01*
G04 #@! TO.N,Net-(KeyG#1-Pad1)*
X140335000Y-76835000D02*
X122555000Y-76835000D01*
X121285000Y-78105000D02*
X121285000Y-83185000D01*
X122555000Y-76835000D02*
X121285000Y-78105000D01*
G04 #@! TO.N,Net-(KeyG1-Pad1)*
X140335000Y-79375000D02*
X125095000Y-79375000D01*
X121285000Y-89535000D02*
X121285000Y-100965000D01*
X123825000Y-86995000D02*
X121285000Y-89535000D01*
X123825000Y-80645000D02*
X123825000Y-86995000D01*
X125095000Y-79375000D02*
X123825000Y-80645000D01*
G04 #@! TO.N,Net-(KeyLowC#1-Pad1)*
X140335000Y-71755000D02*
X136525000Y-75565000D01*
X121285000Y-73660000D02*
X121285000Y-65405000D01*
X123190000Y-75565000D02*
X121285000Y-73660000D01*
X136525000Y-75565000D02*
X123190000Y-75565000D01*
G04 #@! TO.N,Net-(KeyLowC1-Pad1)*
X173355000Y-73025000D02*
X173355000Y-78105000D01*
X172085000Y-79375000D02*
X165735000Y-79375000D01*
X173355000Y-78105000D02*
X172085000Y-79375000D01*
G04 #@! TO.N,Net-(KeyUP1-Pad1)*
X136525000Y-142875000D02*
X136525000Y-137160000D01*
X136525000Y-137160000D02*
X137795000Y-135890000D01*
X137795000Y-135890000D02*
X144780000Y-135890000D01*
X144780000Y-135890000D02*
X147320000Y-133350000D01*
X147320000Y-133350000D02*
X147320000Y-98425000D01*
X153670000Y-88900000D02*
X165735000Y-76835000D01*
X153670000Y-98425000D02*
X153670000Y-88900000D01*
G04 #@! TO.N,Net-(P5-Pad2)*
X140335000Y-92075000D02*
X132080000Y-92075000D01*
X131445000Y-91440000D02*
X131445000Y-85090000D01*
X132080000Y-92075000D02*
X131445000Y-91440000D01*
G04 #@! TO.N,Net-(P3-Pad2)*
X170180000Y-180975000D02*
X125730000Y-180975000D01*
X117650000Y-172895000D02*
X117650000Y-172005000D01*
X125730000Y-180975000D02*
X117650000Y-172895000D01*
X170815000Y-180340000D02*
X170180000Y-180975000D01*
X170815000Y-172085000D02*
X170815000Y-180340000D01*
X174625000Y-168275000D02*
X170815000Y-172085000D01*
X174625000Y-164465000D02*
X174625000Y-168275000D01*
X173355000Y-163195000D02*
X174625000Y-164465000D01*
X172205000Y-163195000D02*
X173355000Y-163195000D01*
X117650000Y-172005000D02*
X120015000Y-169640000D01*
X120015000Y-164370000D02*
X117650000Y-162005000D01*
X120015000Y-169640000D02*
X120015000Y-164370000D01*
G04 #@! TO.N,Net-(P3-Pad3)*
X117515000Y-169505000D02*
X117650000Y-169505000D01*
X115570000Y-179705000D02*
X115570000Y-171450000D01*
X115570000Y-171450000D02*
X117515000Y-169505000D01*
X177165000Y-182245000D02*
X118110000Y-182245000D01*
X174625000Y-161290000D02*
X177800000Y-164465000D01*
X177800000Y-164465000D02*
X177800000Y-181610000D01*
X162560000Y-161290000D02*
X174625000Y-161290000D01*
X177800000Y-181610000D02*
X177165000Y-182245000D01*
X156845000Y-155575000D02*
X162560000Y-161290000D01*
X118110000Y-182245000D02*
X115570000Y-179705000D01*
X156845000Y-151765000D02*
X156845000Y-155575000D01*
X117650000Y-169505000D02*
X117650000Y-164505000D01*
G04 #@! TO.N,Net-(P2-Pad2)*
X152400000Y-119500000D02*
X152400000Y-120015000D01*
X152400000Y-120015000D02*
X159385000Y-127000000D01*
X159385000Y-127000000D02*
X159385000Y-144145000D01*
G04 #@! TO.N,Net-(D1-Pad2)*
X140335000Y-89535000D02*
X147320000Y-89535000D01*
X140335000Y-89535000D02*
X134620000Y-89535000D01*
X133985000Y-88900000D02*
X133985000Y-85090000D01*
X134620000Y-89535000D02*
X133985000Y-88900000D01*
G04 #@! TO.N,Net-(P8-Pad5)*
X158035000Y-76120000D02*
X158115000Y-76200000D01*
X158035000Y-70025000D02*
X158035000Y-76120000D01*
G04 #@! TO.N,Net-(R1-Pad1)*
X149860000Y-156845000D02*
X149860000Y-86995000D01*
X149860000Y-86995000D02*
X140335000Y-86995000D01*
X154305000Y-161290000D02*
X149860000Y-156845000D01*
X154305000Y-162560000D02*
X154305000Y-161290000D01*
G04 #@! TO.N,Net-(C1-Pad1)*
X159385000Y-165100000D02*
X154305000Y-165100000D01*
X172050000Y-167040000D02*
X172205000Y-167195000D01*
X168240000Y-167040000D02*
X172050000Y-167040000D01*
X166300000Y-165100000D02*
X168240000Y-167040000D01*
X159385000Y-165100000D02*
X166300000Y-165100000D01*
G04 #@! TO.N,Net-(P1-Pad2)*
X141700000Y-174720000D02*
X140335000Y-173355000D01*
X140335000Y-173355000D02*
X140335000Y-167640000D01*
X140335000Y-153035000D02*
X134620000Y-147320000D01*
X134620000Y-147320000D02*
X134620000Y-109220000D01*
X136525000Y-107315000D02*
X140335000Y-107315000D01*
X134620000Y-109220000D02*
X136525000Y-107315000D01*
X140335000Y-167640000D02*
X140335000Y-153035000D01*
X140335000Y-107315000D02*
X146050000Y-107315000D01*
X146050000Y-107315000D02*
X146050000Y-99060000D01*
X146050000Y-99060000D02*
X146050000Y-97790000D01*
X146050000Y-97790000D02*
X146685000Y-97155000D01*
X146685000Y-97155000D02*
X147320000Y-97155000D01*
X151130000Y-97155000D02*
X151130000Y-79375000D01*
X152622000Y-174720000D02*
X167005000Y-174720000D01*
X150749000Y-172847000D02*
X152622000Y-174720000D01*
X144526000Y-172847000D02*
X150749000Y-172847000D01*
X142653000Y-174720000D02*
X144526000Y-172847000D01*
X142240000Y-174720000D02*
X142653000Y-174720000D01*
G04 #@! TO.N,Net-(P8-Pad2)*
X148035000Y-73105000D02*
X151130000Y-76200000D01*
X148035000Y-70025000D02*
X148035000Y-73105000D01*
G04 #@! TO.N,Net-(D2-Pad2)*
X146050000Y-161925000D02*
X144145000Y-160020000D01*
X144145000Y-160020000D02*
X144145000Y-153670000D01*
G04 #@! TO.N,Net-(R2-Pad1)*
X152400000Y-98425000D02*
X152400000Y-84455000D01*
X153670000Y-99695000D02*
X152400000Y-98425000D01*
X152400000Y-84455000D02*
X158115000Y-78740000D01*
X165735000Y-99695000D02*
X153670000Y-99695000D01*
G04 #@! TD*
M02*
