G04 #@! TF.GenerationSoftware,KiCad,Pcbnew,(5.1.8)-1*
G04 #@! TF.CreationDate,2021-04-09T23:43:51+09:00*
G04 #@! TF.ProjectId,windsynyh5,77696e64-7379-46e7-9968-352e6b696361,rev?*
G04 #@! TF.SameCoordinates,Original*
G04 #@! TF.FileFunction,Soldermask,Top*
G04 #@! TF.FilePolarity,Negative*
%FSLAX46Y46*%
G04 Gerber Fmt 4.6, Leading zero omitted, Abs format (unit mm)*
G04 Created by KiCad (PCBNEW (5.1.8)-1) date 2021-04-09 23:43:51*
%MOMM*%
%LPD*%
G01*
G04 APERTURE LIST*
%ADD10C,2.000000*%
%ADD11O,3.500000X3.500000*%
%ADD12R,2.000000X1.905000*%
%ADD13O,2.000000X1.905000*%
%ADD14C,1.800000*%
%ADD15C,1.524000*%
%ADD16C,4.200000*%
%ADD17R,1.700000X1.700000*%
%ADD18O,1.700000X1.700000*%
%ADD19R,1.350000X1.350000*%
%ADD20O,1.350000X1.350000*%
G04 APERTURE END LIST*
D10*
G04 #@! TO.C,HEADPHONE*
X117650000Y-162005000D03*
X117650000Y-164505000D03*
X117650000Y-169505000D03*
X117650000Y-172005000D03*
X112650000Y-167005000D03*
G04 #@! TD*
G04 #@! TO.C,TRS-MIDI*
X158035000Y-70025000D03*
X155535000Y-70025000D03*
X150535000Y-70025000D03*
X148035000Y-70025000D03*
X153035000Y-65025000D03*
G04 #@! TD*
G04 #@! TO.C,BATTERY (\u002A)*
X122555000Y-160655000D03*
X122555000Y-173355000D03*
G04 #@! TD*
D11*
G04 #@! TO.C,L7805*
X129390000Y-164465000D03*
D12*
X146050000Y-167005000D03*
D13*
X146050000Y-164465000D03*
X146050000Y-161925000D03*
G04 #@! TD*
D10*
G04 #@! TO.C,VOLUME*
X182205000Y-165845000D03*
D14*
X172205000Y-164845000D03*
X172205000Y-160845000D03*
X172205000Y-156845000D03*
D10*
X182205000Y-155845000D03*
G04 #@! TD*
D15*
G04 #@! TO.C,ESP32-DEVKIT-C (\u002A)*
X140335000Y-84455000D03*
X165735000Y-84455000D03*
X140335000Y-86995000D03*
X140335000Y-89535000D03*
X140335000Y-92075000D03*
X140335000Y-94615000D03*
X140335000Y-97155000D03*
X140335000Y-81915000D03*
X140335000Y-79375000D03*
X140335000Y-76835000D03*
X140335000Y-74295000D03*
X140335000Y-71755000D03*
X140335000Y-69215000D03*
X140335000Y-66675000D03*
X140335000Y-99695000D03*
X140335000Y-102235000D03*
X140335000Y-64135000D03*
X140335000Y-104775000D03*
X140335000Y-107315000D03*
X140335000Y-61595000D03*
X165735000Y-61595000D03*
X165735000Y-64135000D03*
X165735000Y-66675000D03*
X165735000Y-69215000D03*
X165735000Y-71755000D03*
X165735000Y-74295000D03*
X165735000Y-76835000D03*
X165735000Y-79375000D03*
X165735000Y-81915000D03*
X165735000Y-86995000D03*
X165735000Y-89535000D03*
X165735000Y-92075000D03*
X165735000Y-94615000D03*
X165735000Y-97155000D03*
X165735000Y-99695000D03*
X165735000Y-102235000D03*
X165735000Y-104775000D03*
X165735000Y-107315000D03*
G04 #@! TD*
D10*
G04 #@! TO.C,KeyLowC#*
X121285000Y-65405000D03*
X123825000Y-71755000D03*
D16*
X118745000Y-69215000D03*
G04 #@! TD*
D10*
G04 #@! TO.C,KeyG#*
X121285000Y-83185000D03*
X123825000Y-89535000D03*
D16*
X118745000Y-86995000D03*
G04 #@! TD*
D10*
G04 #@! TO.C,KeyG*
X121285000Y-100965000D03*
X123825000Y-107315000D03*
D16*
X118745000Y-104775000D03*
G04 #@! TD*
D10*
G04 #@! TO.C,KeyA*
X121285000Y-118745000D03*
X123825000Y-125095000D03*
D16*
X118745000Y-122555000D03*
G04 #@! TD*
D10*
G04 #@! TO.C,KeyB*
X121285000Y-136525000D03*
X123825000Y-142875000D03*
D16*
X118745000Y-140335000D03*
G04 #@! TD*
D10*
G04 #@! TO.C,KeyLowC*
X173355000Y-73025000D03*
X170815000Y-66675000D03*
D16*
X175895000Y-69215000D03*
G04 #@! TD*
D10*
G04 #@! TO.C,KeyEb*
X173355000Y-90805000D03*
X170815000Y-84455000D03*
D16*
X175895000Y-86995000D03*
G04 #@! TD*
D10*
G04 #@! TO.C,KeyD*
X173355000Y-108585000D03*
X170815000Y-102235000D03*
D16*
X175895000Y-104775000D03*
G04 #@! TD*
D10*
G04 #@! TO.C,KeyE*
X173355000Y-126365000D03*
X170815000Y-120015000D03*
D16*
X175895000Y-122555000D03*
G04 #@! TD*
D10*
G04 #@! TO.C,KeyF*
X173355000Y-144145000D03*
X170815000Y-137795000D03*
D16*
X175895000Y-140335000D03*
G04 #@! TD*
D10*
G04 #@! TO.C,KeyUP*
X136525000Y-142875000D03*
X142875000Y-145415000D03*
D16*
X140335000Y-140335000D03*
G04 #@! TD*
D10*
G04 #@! TO.C,KeyDown*
X136525000Y-126365000D03*
X142875000Y-128905000D03*
D16*
X140335000Y-123825000D03*
G04 #@! TD*
D15*
G04 #@! TO.C,AE-PAM8012*
X151765000Y-151765000D03*
X154305000Y-151765000D03*
X156845000Y-151765000D03*
X159385000Y-151765000D03*
X151765000Y-144145000D03*
X154305000Y-144145000D03*
X156845000Y-144145000D03*
X159385000Y-144145000D03*
G04 #@! TD*
D17*
G04 #@! TO.C,LED*
X147320000Y-92075000D03*
D18*
X147320000Y-89535000D03*
G04 #@! TD*
D17*
G04 #@! TO.C,R1*
X154305000Y-162560000D03*
D18*
X154305000Y-165100000D03*
G04 #@! TD*
D17*
G04 #@! TO.C,R2*
X158115000Y-78740000D03*
D18*
X158115000Y-76200000D03*
G04 #@! TD*
D17*
G04 #@! TO.C,R3*
X151130000Y-78740000D03*
D18*
X151130000Y-76200000D03*
G04 #@! TD*
D17*
G04 #@! TO.C,C1*
X159385000Y-165100000D03*
D18*
X159385000Y-162560000D03*
G04 #@! TD*
D17*
G04 #@! TO.C,EXT*
X128905000Y-70485000D03*
D18*
X131445000Y-70485000D03*
X133985000Y-70485000D03*
X136525000Y-70485000D03*
G04 #@! TD*
D10*
G04 #@! TO.C,SPEAKER (\u002A)*
X152400000Y-134500000D03*
X152400000Y-119500000D03*
G04 #@! TD*
D19*
G04 #@! TO.C,SENSOR*
X167005000Y-172720000D03*
D20*
X167005000Y-174720000D03*
X167005000Y-176720000D03*
X167005000Y-178720000D03*
G04 #@! TD*
D19*
G04 #@! TO.C,I2C*
X142240000Y-172720000D03*
D20*
X142240000Y-174720000D03*
X142240000Y-176720000D03*
X142240000Y-178720000D03*
G04 #@! TD*
D17*
G04 #@! TO.C,SW1*
X180340000Y-172085000D03*
D18*
X180340000Y-174625000D03*
X180340000Y-177165000D03*
G04 #@! TD*
D17*
G04 #@! TO.C,D2*
X146685000Y-153670000D03*
D18*
X144145000Y-153670000D03*
G04 #@! TD*
M02*
