G04 #@! TF.GenerationSoftware,KiCad,Pcbnew,(5.1.8)-1*
G04 #@! TF.CreationDate,2021-02-19T23:09:38+09:00*
G04 #@! TF.ProjectId,windsynyh5,77696e64-7379-46e7-9968-352e6b696361,rev?*
G04 #@! TF.SameCoordinates,Original*
G04 #@! TF.FileFunction,Legend,Bot*
G04 #@! TF.FilePolarity,Positive*
%FSLAX46Y46*%
G04 Gerber Fmt 4.6, Leading zero omitted, Abs format (unit mm)*
G04 Created by KiCad (PCBNEW (5.1.8)-1) date 2021-02-19 23:09:38*
%MOMM*%
%LPD*%
G01*
G04 APERTURE LIST*
%ADD10C,0.300000*%
%ADD11C,0.120000*%
%ADD12C,0.150000*%
G04 APERTURE END LIST*
D10*
X160260000Y-122675000D02*
X160260000Y-123389285D01*
X160688571Y-122532142D02*
X159188571Y-123032142D01*
X160688571Y-123532142D01*
X159902857Y-124532142D02*
X159902857Y-124032142D01*
X160688571Y-124032142D02*
X159188571Y-124032142D01*
X159188571Y-124746428D01*
X159188571Y-125317857D02*
X160402857Y-125317857D01*
X160545714Y-125389285D01*
X160617142Y-125460714D01*
X160688571Y-125603571D01*
X160688571Y-125889285D01*
X160617142Y-126032142D01*
X160545714Y-126103571D01*
X160402857Y-126175000D01*
X159188571Y-126175000D01*
X159188571Y-126889285D02*
X160402857Y-126889285D01*
X160545714Y-126960714D01*
X160617142Y-127032142D01*
X160688571Y-127175000D01*
X160688571Y-127460714D01*
X160617142Y-127603571D01*
X160545714Y-127675000D01*
X160402857Y-127746428D01*
X159188571Y-127746428D01*
X159902857Y-128460714D02*
X159902857Y-128960714D01*
X160688571Y-129175000D02*
X160688571Y-128460714D01*
X159188571Y-128460714D01*
X159188571Y-129175000D01*
X159902857Y-131460714D02*
X159974285Y-131675000D01*
X160045714Y-131746428D01*
X160188571Y-131817857D01*
X160402857Y-131817857D01*
X160545714Y-131746428D01*
X160617142Y-131675000D01*
X160688571Y-131532142D01*
X160688571Y-130960714D01*
X159188571Y-130960714D01*
X159188571Y-131460714D01*
X159260000Y-131603571D01*
X159331428Y-131675000D01*
X159474285Y-131746428D01*
X159617142Y-131746428D01*
X159760000Y-131675000D01*
X159831428Y-131603571D01*
X159902857Y-131460714D01*
X159902857Y-130960714D01*
X159188571Y-132746428D02*
X159188571Y-133032142D01*
X159260000Y-133175000D01*
X159402857Y-133317857D01*
X159688571Y-133389285D01*
X160188571Y-133389285D01*
X160474285Y-133317857D01*
X160617142Y-133175000D01*
X160688571Y-133032142D01*
X160688571Y-132746428D01*
X160617142Y-132603571D01*
X160474285Y-132460714D01*
X160188571Y-132389285D01*
X159688571Y-132389285D01*
X159402857Y-132460714D01*
X159260000Y-132603571D01*
X159188571Y-132746428D01*
X160260000Y-133960714D02*
X160260000Y-134675000D01*
X160688571Y-133817857D02*
X159188571Y-134317857D01*
X160688571Y-134817857D01*
X160688571Y-136175000D02*
X159974285Y-135675000D01*
X160688571Y-135317857D02*
X159188571Y-135317857D01*
X159188571Y-135889285D01*
X159260000Y-136032142D01*
X159331428Y-136103571D01*
X159474285Y-136175000D01*
X159688571Y-136175000D01*
X159831428Y-136103571D01*
X159902857Y-136032142D01*
X159974285Y-135889285D01*
X159974285Y-135317857D01*
X160688571Y-136817857D02*
X159188571Y-136817857D01*
X159188571Y-137175000D01*
X159260000Y-137389285D01*
X159402857Y-137532142D01*
X159545714Y-137603571D01*
X159831428Y-137675000D01*
X160045714Y-137675000D01*
X160331428Y-137603571D01*
X160474285Y-137532142D01*
X160617142Y-137389285D01*
X160688571Y-137175000D01*
X160688571Y-136817857D01*
X161738571Y-117782142D02*
X163238571Y-118282142D01*
X161738571Y-118782142D01*
X162452857Y-119282142D02*
X162452857Y-119782142D01*
X163238571Y-119996428D02*
X163238571Y-119282142D01*
X161738571Y-119282142D01*
X161738571Y-119996428D01*
X163238571Y-121496428D02*
X162524285Y-120996428D01*
X163238571Y-120639285D02*
X161738571Y-120639285D01*
X161738571Y-121210714D01*
X161810000Y-121353571D01*
X161881428Y-121425000D01*
X162024285Y-121496428D01*
X162238571Y-121496428D01*
X162381428Y-121425000D01*
X162452857Y-121353571D01*
X162524285Y-121210714D01*
X162524285Y-120639285D01*
X163238571Y-122925000D02*
X163238571Y-122067857D01*
X163238571Y-122496428D02*
X161738571Y-122496428D01*
X161952857Y-122353571D01*
X162095714Y-122210714D01*
X162167142Y-122067857D01*
X163095714Y-123567857D02*
X163167142Y-123639285D01*
X163238571Y-123567857D01*
X163167142Y-123496428D01*
X163095714Y-123567857D01*
X163238571Y-123567857D01*
X161738571Y-124925000D02*
X161738571Y-124639285D01*
X161810000Y-124496428D01*
X161881428Y-124425000D01*
X162095714Y-124282142D01*
X162381428Y-124210714D01*
X162952857Y-124210714D01*
X163095714Y-124282142D01*
X163167142Y-124353571D01*
X163238571Y-124496428D01*
X163238571Y-124782142D01*
X163167142Y-124925000D01*
X163095714Y-124996428D01*
X162952857Y-125067857D01*
X162595714Y-125067857D01*
X162452857Y-124996428D01*
X162381428Y-124925000D01*
X162310000Y-124782142D01*
X162310000Y-124496428D01*
X162381428Y-124353571D01*
X162452857Y-124282142D01*
X162595714Y-124210714D01*
X162452857Y-126210714D02*
X162524285Y-126425000D01*
X162595714Y-126496428D01*
X162738571Y-126567857D01*
X162952857Y-126567857D01*
X163095714Y-126496428D01*
X163167142Y-126425000D01*
X163238571Y-126282142D01*
X163238571Y-125710714D01*
X161738571Y-125710714D01*
X161738571Y-126210714D01*
X161810000Y-126353571D01*
X161881428Y-126425000D01*
X162024285Y-126496428D01*
X162167142Y-126496428D01*
X162310000Y-126425000D01*
X162381428Y-126353571D01*
X162452857Y-126210714D01*
X162452857Y-125710714D01*
X162667142Y-128353571D02*
X162667142Y-129496428D01*
X161881428Y-131282142D02*
X161810000Y-131353571D01*
X161738571Y-131496428D01*
X161738571Y-131853571D01*
X161810000Y-131996428D01*
X161881428Y-132067857D01*
X162024285Y-132139285D01*
X162167142Y-132139285D01*
X162381428Y-132067857D01*
X163238571Y-131210714D01*
X163238571Y-132139285D01*
X163238571Y-133567857D02*
X163238571Y-132710714D01*
X163238571Y-133139285D02*
X161738571Y-133139285D01*
X161952857Y-132996428D01*
X162095714Y-132853571D01*
X162167142Y-132710714D01*
X161667142Y-135282142D02*
X163595714Y-133996428D01*
X161738571Y-136067857D02*
X161738571Y-136210714D01*
X161810000Y-136353571D01*
X161881428Y-136425000D01*
X162024285Y-136496428D01*
X162310000Y-136567857D01*
X162667142Y-136567857D01*
X162952857Y-136496428D01*
X163095714Y-136425000D01*
X163167142Y-136353571D01*
X163238571Y-136210714D01*
X163238571Y-136067857D01*
X163167142Y-135925000D01*
X163095714Y-135853571D01*
X162952857Y-135782142D01*
X162667142Y-135710714D01*
X162310000Y-135710714D01*
X162024285Y-135782142D01*
X161881428Y-135853571D01*
X161810000Y-135925000D01*
X161738571Y-136067857D01*
X161881428Y-137139285D02*
X161810000Y-137210714D01*
X161738571Y-137353571D01*
X161738571Y-137710714D01*
X161810000Y-137853571D01*
X161881428Y-137925000D01*
X162024285Y-137996428D01*
X162167142Y-137996428D01*
X162381428Y-137925000D01*
X163238571Y-137067857D01*
X163238571Y-137996428D01*
X161667142Y-139710714D02*
X163595714Y-138425000D01*
X163238571Y-140996428D02*
X163238571Y-140139285D01*
X163238571Y-140567857D02*
X161738571Y-140567857D01*
X161952857Y-140425000D01*
X162095714Y-140282142D01*
X162167142Y-140139285D01*
X162238571Y-142282142D02*
X163238571Y-142282142D01*
X161667142Y-141925000D02*
X162738571Y-141567857D01*
X162738571Y-142496428D01*
X165074285Y-124639285D02*
X165002857Y-124567857D01*
X164931428Y-124425000D01*
X164931428Y-124282142D01*
X165002857Y-124139285D01*
X165074285Y-124067857D01*
X165217142Y-123996428D01*
X165360000Y-123996428D01*
X165502857Y-124067857D01*
X165574285Y-124139285D01*
X165645714Y-124282142D01*
X165645714Y-124425000D01*
X165574285Y-124567857D01*
X165502857Y-124639285D01*
X164931428Y-124639285D02*
X165502857Y-124639285D01*
X165574285Y-124710714D01*
X165574285Y-124782142D01*
X165502857Y-124925000D01*
X165360000Y-124996428D01*
X165002857Y-124996428D01*
X164788571Y-124853571D01*
X164645714Y-124639285D01*
X164574285Y-124353571D01*
X164645714Y-124067857D01*
X164788571Y-123853571D01*
X165002857Y-123710714D01*
X165288571Y-123639285D01*
X165574285Y-123710714D01*
X165788571Y-123853571D01*
X165931428Y-124067857D01*
X166002857Y-124353571D01*
X165931428Y-124639285D01*
X165788571Y-124853571D01*
X164288571Y-125925000D02*
X164288571Y-126210714D01*
X164360000Y-126353571D01*
X164502857Y-126496428D01*
X164788571Y-126567857D01*
X165288571Y-126567857D01*
X165574285Y-126496428D01*
X165717142Y-126353571D01*
X165788571Y-126210714D01*
X165788571Y-125925000D01*
X165717142Y-125782142D01*
X165574285Y-125639285D01*
X165288571Y-125567857D01*
X164788571Y-125567857D01*
X164502857Y-125639285D01*
X164360000Y-125782142D01*
X164288571Y-125925000D01*
X164788571Y-126996428D02*
X164788571Y-127567857D01*
X164288571Y-127210714D02*
X165574285Y-127210714D01*
X165717142Y-127282142D01*
X165788571Y-127425000D01*
X165788571Y-127567857D01*
X165788571Y-128282142D02*
X165717142Y-128139285D01*
X165645714Y-128067857D01*
X165502857Y-127996428D01*
X165074285Y-127996428D01*
X164931428Y-128067857D01*
X164860000Y-128139285D01*
X164788571Y-128282142D01*
X164788571Y-128496428D01*
X164860000Y-128639285D01*
X164931428Y-128710714D01*
X165074285Y-128782142D01*
X165502857Y-128782142D01*
X165645714Y-128710714D01*
X165717142Y-128639285D01*
X165788571Y-128496428D01*
X165788571Y-128282142D01*
X165788571Y-129639285D02*
X165717142Y-129496428D01*
X165645714Y-129425000D01*
X165502857Y-129353571D01*
X165074285Y-129353571D01*
X164931428Y-129425000D01*
X164860000Y-129496428D01*
X164788571Y-129639285D01*
X164788571Y-129853571D01*
X164860000Y-129996428D01*
X164931428Y-130067857D01*
X165074285Y-130139285D01*
X165502857Y-130139285D01*
X165645714Y-130067857D01*
X165717142Y-129996428D01*
X165788571Y-129853571D01*
X165788571Y-129639285D01*
X164788571Y-130782142D02*
X165788571Y-130782142D01*
X164931428Y-130782142D02*
X164860000Y-130853571D01*
X164788571Y-130996428D01*
X164788571Y-131210714D01*
X164860000Y-131353571D01*
X165002857Y-131425000D01*
X165788571Y-131425000D01*
X165717142Y-132710714D02*
X165788571Y-132567857D01*
X165788571Y-132282142D01*
X165717142Y-132139285D01*
X165574285Y-132067857D01*
X165002857Y-132067857D01*
X164860000Y-132139285D01*
X164788571Y-132282142D01*
X164788571Y-132567857D01*
X164860000Y-132710714D01*
X165002857Y-132782142D01*
X165145714Y-132782142D01*
X165288571Y-132067857D01*
X165788571Y-133425000D02*
X164288571Y-133425000D01*
X164288571Y-133782142D01*
X164360000Y-133996428D01*
X164502857Y-134139285D01*
X164645714Y-134210714D01*
X164931428Y-134282142D01*
X165145714Y-134282142D01*
X165431428Y-134210714D01*
X165574285Y-134139285D01*
X165717142Y-133996428D01*
X165788571Y-133782142D01*
X165788571Y-133425000D01*
X165717142Y-135496428D02*
X165788571Y-135353571D01*
X165788571Y-135067857D01*
X165717142Y-134925000D01*
X165574285Y-134853571D01*
X165002857Y-134853571D01*
X164860000Y-134925000D01*
X164788571Y-135067857D01*
X164788571Y-135353571D01*
X164860000Y-135496428D01*
X165002857Y-135567857D01*
X165145714Y-135567857D01*
X165288571Y-134853571D01*
X164788571Y-136067857D02*
X165788571Y-136425000D01*
X164788571Y-136782142D01*
D11*
G04 #@! TO.C,BATTERY (\u002A)*
X163665497Y-156005000D02*
G75*
G03*
X163665497Y-156005000I-1910497J0D01*
G01*
X135665497Y-156005000D02*
G75*
G03*
X135665497Y-156005000I-1910497J0D01*
G01*
X149665497Y-178005000D02*
G75*
G03*
X149665497Y-178005000I-1910497J0D01*
G01*
X119955000Y-151705000D02*
X176555000Y-151605000D01*
X176555000Y-151605000D02*
X176555000Y-182305000D01*
X176555000Y-182305000D02*
X119955000Y-182305000D01*
X119955000Y-182305000D02*
X119955000Y-151705000D01*
D12*
G04 #@! TO.C,ESP32-DEVKIT-C (\u002A)*
X157035000Y-59455000D02*
X157035000Y-62455000D01*
X157035000Y-62455000D02*
X149035000Y-62455000D01*
X149035000Y-62455000D02*
X149035000Y-59455000D01*
X145535000Y-109955000D02*
X145535000Y-115955000D01*
X145535000Y-115955000D02*
X160535000Y-115955000D01*
X160535000Y-115955000D02*
X160535000Y-109955000D01*
X140335000Y-109855000D02*
X140335000Y-59055000D01*
X140335000Y-59055000D02*
X165735000Y-59055000D01*
X165735000Y-59055000D02*
X165735000Y-109855000D01*
X165735000Y-109855000D02*
X140335000Y-109855000D01*
G04 #@! TO.C,KeyUp*
X132835000Y-147835000D02*
X147835000Y-147835000D01*
X147835000Y-147835000D02*
X147835000Y-132835000D01*
X147835000Y-132835000D02*
X132835000Y-132835000D01*
X132835000Y-132835000D02*
X132835000Y-147835000D01*
G04 #@! TO.C,KeyDown*
X132835000Y-131325000D02*
X147835000Y-131325000D01*
X147835000Y-131325000D02*
X147835000Y-116325000D01*
X147835000Y-116325000D02*
X132835000Y-116325000D01*
X132835000Y-116325000D02*
X132835000Y-131325000D01*
D11*
G04 #@! TO.C,EXT*
X127575000Y-69025000D02*
X130175000Y-69025000D01*
X130175000Y-69025000D02*
X130175000Y-60395000D01*
X130175000Y-60395000D02*
X127575000Y-60395000D01*
X127575000Y-60395000D02*
X127575000Y-69025000D01*
X128525000Y-69455000D02*
X128525000Y-69025000D01*
X129285000Y-69455000D02*
X129285000Y-69025000D01*
X127755000Y-69025000D02*
X127755000Y-60395000D01*
X127875000Y-69025000D02*
X127875000Y-60395000D01*
X127995000Y-69025000D02*
X127995000Y-60395000D01*
X128115000Y-69025000D02*
X128115000Y-60395000D01*
X128235000Y-69025000D02*
X128235000Y-60395000D01*
X128355000Y-69025000D02*
X128355000Y-60395000D01*
X128475000Y-69025000D02*
X128475000Y-60395000D01*
X128595000Y-69025000D02*
X128595000Y-60395000D01*
X128715000Y-69025000D02*
X128715000Y-60395000D01*
X128835000Y-69025000D02*
X128835000Y-60395000D01*
X128955000Y-69025000D02*
X128955000Y-60395000D01*
X129075000Y-69025000D02*
X129075000Y-60395000D01*
X129195000Y-69025000D02*
X129195000Y-60395000D01*
X129315000Y-69025000D02*
X129315000Y-60395000D01*
X129435000Y-69025000D02*
X129435000Y-60395000D01*
X129555000Y-69025000D02*
X129555000Y-60395000D01*
X129675000Y-69025000D02*
X129675000Y-60395000D01*
X129795000Y-69025000D02*
X129795000Y-60395000D01*
X129915000Y-69025000D02*
X129915000Y-60395000D01*
X130035000Y-69025000D02*
X130035000Y-60395000D01*
X130155000Y-69025000D02*
X130155000Y-60395000D01*
X130275000Y-69025000D02*
X130275000Y-60395000D01*
X130175000Y-69025000D02*
X132715000Y-69025000D01*
X132715000Y-69025000D02*
X132715000Y-60395000D01*
X132715000Y-60395000D02*
X130175000Y-60395000D01*
X130175000Y-60395000D02*
X130175000Y-69025000D01*
X131065000Y-69455000D02*
X131065000Y-69025000D01*
X131825000Y-69455000D02*
X131825000Y-69025000D01*
X132715000Y-69025000D02*
X135255000Y-69025000D01*
X135255000Y-69025000D02*
X135255000Y-60395000D01*
X135255000Y-60395000D02*
X132715000Y-60395000D01*
X132715000Y-60395000D02*
X132715000Y-69025000D01*
X133605000Y-69455000D02*
X133605000Y-69025000D01*
X134365000Y-69455000D02*
X134365000Y-69025000D01*
X135255000Y-69025000D02*
X137855000Y-69025000D01*
X137855000Y-69025000D02*
X137855000Y-60395000D01*
X137855000Y-60395000D02*
X135255000Y-60395000D01*
X135255000Y-60395000D02*
X135255000Y-69025000D01*
X136145000Y-69455000D02*
X136145000Y-69025000D01*
X136905000Y-69455000D02*
X136905000Y-69025000D01*
X127635000Y-70485000D02*
X127635000Y-71755000D01*
X127635000Y-71755000D02*
X128905000Y-71755000D01*
G04 #@! TO.C,BATTERY (\u002A)*
D12*
X125883571Y-162976428D02*
X125931190Y-163119285D01*
X125978809Y-163166904D01*
X126074047Y-163214523D01*
X126216904Y-163214523D01*
X126312142Y-163166904D01*
X126359761Y-163119285D01*
X126407380Y-163024047D01*
X126407380Y-162643095D01*
X125407380Y-162643095D01*
X125407380Y-162976428D01*
X125455000Y-163071666D01*
X125502619Y-163119285D01*
X125597857Y-163166904D01*
X125693095Y-163166904D01*
X125788333Y-163119285D01*
X125835952Y-163071666D01*
X125883571Y-162976428D01*
X125883571Y-162643095D01*
X126121666Y-163595476D02*
X126121666Y-164071666D01*
X126407380Y-163500238D02*
X125407380Y-163833571D01*
X126407380Y-164166904D01*
X125407380Y-164357380D02*
X125407380Y-164928809D01*
X126407380Y-164643095D02*
X125407380Y-164643095D01*
X125407380Y-165119285D02*
X125407380Y-165690714D01*
X126407380Y-165405000D02*
X125407380Y-165405000D01*
X125883571Y-166024047D02*
X125883571Y-166357380D01*
X126407380Y-166500238D02*
X126407380Y-166024047D01*
X125407380Y-166024047D01*
X125407380Y-166500238D01*
X126407380Y-167500238D02*
X125931190Y-167166904D01*
X126407380Y-166928809D02*
X125407380Y-166928809D01*
X125407380Y-167309761D01*
X125455000Y-167405000D01*
X125502619Y-167452619D01*
X125597857Y-167500238D01*
X125740714Y-167500238D01*
X125835952Y-167452619D01*
X125883571Y-167405000D01*
X125931190Y-167309761D01*
X125931190Y-166928809D01*
X125931190Y-168119285D02*
X126407380Y-168119285D01*
X125407380Y-167785952D02*
X125931190Y-168119285D01*
X125407380Y-168452619D01*
X126788333Y-169833571D02*
X126740714Y-169785952D01*
X126597857Y-169690714D01*
X126502619Y-169643095D01*
X126359761Y-169595476D01*
X126121666Y-169547857D01*
X125931190Y-169547857D01*
X125693095Y-169595476D01*
X125550238Y-169643095D01*
X125455000Y-169690714D01*
X125312142Y-169785952D01*
X125264523Y-169833571D01*
X125407380Y-170357380D02*
X125645476Y-170357380D01*
X125550238Y-170119285D02*
X125645476Y-170357380D01*
X125550238Y-170595476D01*
X125835952Y-170214523D02*
X125645476Y-170357380D01*
X125835952Y-170500238D01*
X126788333Y-170881190D02*
X126740714Y-170928809D01*
X126597857Y-171024047D01*
X126502619Y-171071666D01*
X126359761Y-171119285D01*
X126121666Y-171166904D01*
X125931190Y-171166904D01*
X125693095Y-171119285D01*
X125550238Y-171071666D01*
X125455000Y-171024047D01*
X125312142Y-170928809D01*
X125264523Y-170881190D01*
G04 #@! TO.C,ESP32-DEVKIT-C (\u002A)*
X160844523Y-107243571D02*
X160511190Y-107243571D01*
X160368333Y-107767380D02*
X160844523Y-107767380D01*
X160844523Y-106767380D01*
X160368333Y-106767380D01*
X159987380Y-107719761D02*
X159844523Y-107767380D01*
X159606428Y-107767380D01*
X159511190Y-107719761D01*
X159463571Y-107672142D01*
X159415952Y-107576904D01*
X159415952Y-107481666D01*
X159463571Y-107386428D01*
X159511190Y-107338809D01*
X159606428Y-107291190D01*
X159796904Y-107243571D01*
X159892142Y-107195952D01*
X159939761Y-107148333D01*
X159987380Y-107053095D01*
X159987380Y-106957857D01*
X159939761Y-106862619D01*
X159892142Y-106815000D01*
X159796904Y-106767380D01*
X159558809Y-106767380D01*
X159415952Y-106815000D01*
X158987380Y-107767380D02*
X158987380Y-106767380D01*
X158606428Y-106767380D01*
X158511190Y-106815000D01*
X158463571Y-106862619D01*
X158415952Y-106957857D01*
X158415952Y-107100714D01*
X158463571Y-107195952D01*
X158511190Y-107243571D01*
X158606428Y-107291190D01*
X158987380Y-107291190D01*
X158082619Y-106767380D02*
X157463571Y-106767380D01*
X157796904Y-107148333D01*
X157654047Y-107148333D01*
X157558809Y-107195952D01*
X157511190Y-107243571D01*
X157463571Y-107338809D01*
X157463571Y-107576904D01*
X157511190Y-107672142D01*
X157558809Y-107719761D01*
X157654047Y-107767380D01*
X157939761Y-107767380D01*
X158035000Y-107719761D01*
X158082619Y-107672142D01*
X157082619Y-106862619D02*
X157035000Y-106815000D01*
X156939761Y-106767380D01*
X156701666Y-106767380D01*
X156606428Y-106815000D01*
X156558809Y-106862619D01*
X156511190Y-106957857D01*
X156511190Y-107053095D01*
X156558809Y-107195952D01*
X157130238Y-107767380D01*
X156511190Y-107767380D01*
X156082619Y-107386428D02*
X155320714Y-107386428D01*
X154844523Y-107767380D02*
X154844523Y-106767380D01*
X154606428Y-106767380D01*
X154463571Y-106815000D01*
X154368333Y-106910238D01*
X154320714Y-107005476D01*
X154273095Y-107195952D01*
X154273095Y-107338809D01*
X154320714Y-107529285D01*
X154368333Y-107624523D01*
X154463571Y-107719761D01*
X154606428Y-107767380D01*
X154844523Y-107767380D01*
X153844523Y-107243571D02*
X153511190Y-107243571D01*
X153368333Y-107767380D02*
X153844523Y-107767380D01*
X153844523Y-106767380D01*
X153368333Y-106767380D01*
X153082619Y-106767380D02*
X152749285Y-107767380D01*
X152415952Y-106767380D01*
X152082619Y-107767380D02*
X152082619Y-106767380D01*
X151511190Y-107767380D02*
X151939761Y-107195952D01*
X151511190Y-106767380D02*
X152082619Y-107338809D01*
X151082619Y-107767380D02*
X151082619Y-106767380D01*
X150749285Y-106767380D02*
X150177857Y-106767380D01*
X150463571Y-107767380D02*
X150463571Y-106767380D01*
X149844523Y-107386428D02*
X149082619Y-107386428D01*
X148035000Y-107672142D02*
X148082619Y-107719761D01*
X148225476Y-107767380D01*
X148320714Y-107767380D01*
X148463571Y-107719761D01*
X148558809Y-107624523D01*
X148606428Y-107529285D01*
X148654047Y-107338809D01*
X148654047Y-107195952D01*
X148606428Y-107005476D01*
X148558809Y-106910238D01*
X148463571Y-106815000D01*
X148320714Y-106767380D01*
X148225476Y-106767380D01*
X148082619Y-106815000D01*
X148035000Y-106862619D01*
X146558809Y-108148333D02*
X146606428Y-108100714D01*
X146701666Y-107957857D01*
X146749285Y-107862619D01*
X146796904Y-107719761D01*
X146844523Y-107481666D01*
X146844523Y-107291190D01*
X146796904Y-107053095D01*
X146749285Y-106910238D01*
X146701666Y-106815000D01*
X146606428Y-106672142D01*
X146558809Y-106624523D01*
X146035000Y-106767380D02*
X146035000Y-107005476D01*
X146273095Y-106910238D02*
X146035000Y-107005476D01*
X145796904Y-106910238D01*
X146177857Y-107195952D02*
X146035000Y-107005476D01*
X145892142Y-107195952D01*
X145511190Y-108148333D02*
X145463571Y-108100714D01*
X145368333Y-107957857D01*
X145320714Y-107862619D01*
X145273095Y-107719761D01*
X145225476Y-107481666D01*
X145225476Y-107291190D01*
X145273095Y-107053095D01*
X145320714Y-106910238D01*
X145368333Y-106815000D01*
X145463571Y-106672142D01*
X145511190Y-106624523D01*
G04 #@! TO.C,KeyUp*
X142382619Y-136977380D02*
X142382619Y-135977380D01*
X141811190Y-136977380D02*
X142239761Y-136405952D01*
X141811190Y-135977380D02*
X142382619Y-136548809D01*
X141001666Y-136929761D02*
X141096904Y-136977380D01*
X141287380Y-136977380D01*
X141382619Y-136929761D01*
X141430238Y-136834523D01*
X141430238Y-136453571D01*
X141382619Y-136358333D01*
X141287380Y-136310714D01*
X141096904Y-136310714D01*
X141001666Y-136358333D01*
X140954047Y-136453571D01*
X140954047Y-136548809D01*
X141430238Y-136644047D01*
X140620714Y-136310714D02*
X140382619Y-136977380D01*
X140144523Y-136310714D02*
X140382619Y-136977380D01*
X140477857Y-137215476D01*
X140525476Y-137263095D01*
X140620714Y-137310714D01*
X139763571Y-135977380D02*
X139763571Y-136786904D01*
X139715952Y-136882142D01*
X139668333Y-136929761D01*
X139573095Y-136977380D01*
X139382619Y-136977380D01*
X139287380Y-136929761D01*
X139239761Y-136882142D01*
X139192142Y-136786904D01*
X139192142Y-135977380D01*
X138715952Y-136310714D02*
X138715952Y-137310714D01*
X138715952Y-136358333D02*
X138620714Y-136310714D01*
X138430238Y-136310714D01*
X138335000Y-136358333D01*
X138287380Y-136405952D01*
X138239761Y-136501190D01*
X138239761Y-136786904D01*
X138287380Y-136882142D01*
X138335000Y-136929761D01*
X138430238Y-136977380D01*
X138620714Y-136977380D01*
X138715952Y-136929761D01*
G04 #@! TO.C,KeyDown*
X143335000Y-120467380D02*
X143335000Y-119467380D01*
X142763571Y-120467380D02*
X143192142Y-119895952D01*
X142763571Y-119467380D02*
X143335000Y-120038809D01*
X141954047Y-120419761D02*
X142049285Y-120467380D01*
X142239761Y-120467380D01*
X142335000Y-120419761D01*
X142382619Y-120324523D01*
X142382619Y-119943571D01*
X142335000Y-119848333D01*
X142239761Y-119800714D01*
X142049285Y-119800714D01*
X141954047Y-119848333D01*
X141906428Y-119943571D01*
X141906428Y-120038809D01*
X142382619Y-120134047D01*
X141573095Y-119800714D02*
X141335000Y-120467380D01*
X141096904Y-119800714D02*
X141335000Y-120467380D01*
X141430238Y-120705476D01*
X141477857Y-120753095D01*
X141573095Y-120800714D01*
X140715952Y-120467380D02*
X140715952Y-119467380D01*
X140477857Y-119467380D01*
X140335000Y-119515000D01*
X140239761Y-119610238D01*
X140192142Y-119705476D01*
X140144523Y-119895952D01*
X140144523Y-120038809D01*
X140192142Y-120229285D01*
X140239761Y-120324523D01*
X140335000Y-120419761D01*
X140477857Y-120467380D01*
X140715952Y-120467380D01*
X139573095Y-120467380D02*
X139668333Y-120419761D01*
X139715952Y-120372142D01*
X139763571Y-120276904D01*
X139763571Y-119991190D01*
X139715952Y-119895952D01*
X139668333Y-119848333D01*
X139573095Y-119800714D01*
X139430238Y-119800714D01*
X139335000Y-119848333D01*
X139287380Y-119895952D01*
X139239761Y-119991190D01*
X139239761Y-120276904D01*
X139287380Y-120372142D01*
X139335000Y-120419761D01*
X139430238Y-120467380D01*
X139573095Y-120467380D01*
X138906428Y-119800714D02*
X138715952Y-120467380D01*
X138525476Y-119991190D01*
X138335000Y-120467380D01*
X138144523Y-119800714D01*
X137763571Y-119800714D02*
X137763571Y-120467380D01*
X137763571Y-119895952D02*
X137715952Y-119848333D01*
X137620714Y-119800714D01*
X137477857Y-119800714D01*
X137382619Y-119848333D01*
X137335000Y-119943571D01*
X137335000Y-120467380D01*
G04 #@! TO.C,EXT*
X126293571Y-63063571D02*
X126293571Y-63396904D01*
X126817380Y-63539761D02*
X126817380Y-63063571D01*
X125817380Y-63063571D01*
X125817380Y-63539761D01*
X125817380Y-63873095D02*
X126817380Y-64539761D01*
X125817380Y-64539761D02*
X126817380Y-63873095D01*
X125817380Y-64777857D02*
X125817380Y-65349285D01*
X126817380Y-65063571D02*
X125817380Y-65063571D01*
G04 #@! TD*
M02*
