G04 #@! TF.GenerationSoftware,KiCad,Pcbnew,(5.1.8)-1*
G04 #@! TF.CreationDate,2021-04-09T23:43:51+09:00*
G04 #@! TF.ProjectId,windsynyh5,77696e64-7379-46e7-9968-352e6b696361,rev?*
G04 #@! TF.SameCoordinates,Original*
G04 #@! TF.FileFunction,Legend,Top*
G04 #@! TF.FilePolarity,Positive*
%FSLAX46Y46*%
G04 Gerber Fmt 4.6, Leading zero omitted, Abs format (unit mm)*
G04 Created by KiCad (PCBNEW (5.1.8)-1) date 2021-04-09 23:43:51*
%MOMM*%
%LPD*%
G01*
G04 APERTURE LIST*
%ADD10C,0.150000*%
%ADD11C,0.120000*%
G04 APERTURE END LIST*
D10*
X187912697Y-172837011D02*
X184912697Y-172837011D01*
X187912697Y-176337011D02*
X187912697Y-172837011D01*
X184912697Y-176337011D02*
X187912697Y-176337011D01*
X184912697Y-178837011D02*
X180162697Y-178837011D01*
X184912697Y-170337011D02*
X184912697Y-178837011D01*
X180162697Y-170337011D02*
X184912697Y-170337011D01*
X180162697Y-178837011D02*
X180162697Y-170337011D01*
G04 #@! TO.C,HEADPHONE*
X120150000Y-173005000D02*
X109150000Y-173005000D01*
X120150000Y-161005000D02*
X120150000Y-173005000D01*
X109150000Y-161005000D02*
X120150000Y-161005000D01*
X109150000Y-173005000D02*
X109150000Y-161005000D01*
D11*
X106150000Y-164005000D02*
X109150000Y-164005000D01*
X106150000Y-170005000D02*
X106150000Y-164005000D01*
X109150000Y-170005000D02*
X106150000Y-170005000D01*
D10*
G04 #@! TO.C,TRS-MIDI*
X147035000Y-72525000D02*
X147035000Y-61525000D01*
X159035000Y-72525000D02*
X147035000Y-72525000D01*
X159035000Y-61525000D02*
X159035000Y-72525000D01*
X147035000Y-61525000D02*
X159035000Y-61525000D01*
D11*
X156035000Y-58525000D02*
X156035000Y-61525000D01*
X150035000Y-58525000D02*
X156035000Y-58525000D01*
X150035000Y-61525000D02*
X150035000Y-58525000D01*
G04 #@! TO.C,L7805*
X142360000Y-161925000D02*
X144900000Y-161925000D01*
X142360000Y-164465000D02*
X144900000Y-164465000D01*
X142360000Y-167005000D02*
X144900000Y-167005000D01*
X126470000Y-159345000D02*
X142360000Y-159345000D01*
X126470000Y-169585000D02*
X142360000Y-169585000D01*
X126470000Y-169585000D02*
X126470000Y-159345000D01*
X142360000Y-169585000D02*
X142360000Y-159345000D01*
D10*
G04 #@! TO.C,VOLUME*
X187705000Y-160845000D02*
G75*
G03*
X187705000Y-160845000I-8000000J0D01*
G01*
X182205000Y-155345000D02*
X171705000Y-155345000D01*
X182205000Y-166345000D02*
X182205000Y-155345000D01*
X171705000Y-166345000D02*
X182205000Y-166345000D01*
X171705000Y-155345000D02*
X171705000Y-166345000D01*
G04 #@! TO.C,KeyLowC#*
X111245000Y-61715000D02*
X126245000Y-61715000D01*
X111245000Y-76715000D02*
X111245000Y-61715000D01*
X126245000Y-76715000D02*
X111245000Y-76715000D01*
X126245000Y-61715000D02*
X126245000Y-76715000D01*
G04 #@! TO.C,KeyG#*
X111245000Y-79495000D02*
X126245000Y-79495000D01*
X111245000Y-94495000D02*
X111245000Y-79495000D01*
X126245000Y-94495000D02*
X111245000Y-94495000D01*
X126245000Y-79495000D02*
X126245000Y-94495000D01*
G04 #@! TO.C,KeyG*
X111245000Y-97275000D02*
X126245000Y-97275000D01*
X111245000Y-112275000D02*
X111245000Y-97275000D01*
X126245000Y-112275000D02*
X111245000Y-112275000D01*
X126245000Y-97275000D02*
X126245000Y-112275000D01*
G04 #@! TO.C,KeyA*
X111245000Y-115055000D02*
X126245000Y-115055000D01*
X111245000Y-130055000D02*
X111245000Y-115055000D01*
X126245000Y-130055000D02*
X111245000Y-130055000D01*
X126245000Y-115055000D02*
X126245000Y-130055000D01*
G04 #@! TO.C,KeyB*
X111245000Y-132835000D02*
X126245000Y-132835000D01*
X111245000Y-147835000D02*
X111245000Y-132835000D01*
X126245000Y-147835000D02*
X111245000Y-147835000D01*
X126245000Y-132835000D02*
X126245000Y-147835000D01*
G04 #@! TO.C,KeyLowC*
X183395000Y-76715000D02*
X168395000Y-76715000D01*
X183395000Y-61715000D02*
X183395000Y-76715000D01*
X168395000Y-61715000D02*
X183395000Y-61715000D01*
X168395000Y-76715000D02*
X168395000Y-61715000D01*
G04 #@! TO.C,KeyEb*
X183395000Y-94495000D02*
X168395000Y-94495000D01*
X183395000Y-79495000D02*
X183395000Y-94495000D01*
X168395000Y-79495000D02*
X183395000Y-79495000D01*
X168395000Y-94495000D02*
X168395000Y-79495000D01*
G04 #@! TO.C,KeyD*
X183395000Y-112275000D02*
X168395000Y-112275000D01*
X183395000Y-97275000D02*
X183395000Y-112275000D01*
X168395000Y-97275000D02*
X183395000Y-97275000D01*
X168395000Y-112275000D02*
X168395000Y-97275000D01*
G04 #@! TO.C,KeyE*
X183395000Y-130055000D02*
X168395000Y-130055000D01*
X183395000Y-115055000D02*
X183395000Y-130055000D01*
X168395000Y-115055000D02*
X183395000Y-115055000D01*
X168395000Y-130055000D02*
X168395000Y-115055000D01*
G04 #@! TO.C,KeyF*
X183395000Y-147835000D02*
X168395000Y-147835000D01*
X183395000Y-132835000D02*
X183395000Y-147835000D01*
X168395000Y-132835000D02*
X183395000Y-132835000D01*
X168395000Y-147835000D02*
X168395000Y-132835000D01*
G04 #@! TO.C,AE-PAM8012*
X150075000Y-142755000D02*
X161075000Y-142755000D01*
X150075000Y-153255000D02*
X150075000Y-142755000D01*
X161075000Y-153255000D02*
X150075000Y-153255000D01*
X161075000Y-142755000D02*
X161075000Y-153255000D01*
D11*
G04 #@! TO.C,LED*
X148650000Y-93405000D02*
X147320000Y-93405000D01*
X148650000Y-92075000D02*
X148650000Y-93405000D01*
X148650000Y-90805000D02*
X145990000Y-90805000D01*
X145990000Y-90805000D02*
X145990000Y-88205000D01*
X148650000Y-90805000D02*
X148650000Y-88205000D01*
X148650000Y-88205000D02*
X145990000Y-88205000D01*
G04 #@! TO.C,R1*
X152975000Y-161230000D02*
X154305000Y-161230000D01*
X152975000Y-162560000D02*
X152975000Y-161230000D01*
X152975000Y-163830000D02*
X155635000Y-163830000D01*
X155635000Y-163830000D02*
X155635000Y-166430000D01*
X152975000Y-163830000D02*
X152975000Y-166430000D01*
X152975000Y-166430000D02*
X155635000Y-166430000D01*
G04 #@! TO.C,R2*
X159445000Y-80070000D02*
X158115000Y-80070000D01*
X159445000Y-78740000D02*
X159445000Y-80070000D01*
X159445000Y-77470000D02*
X156785000Y-77470000D01*
X156785000Y-77470000D02*
X156785000Y-74870000D01*
X159445000Y-77470000D02*
X159445000Y-74870000D01*
X159445000Y-74870000D02*
X156785000Y-74870000D01*
G04 #@! TO.C,R3*
X152460000Y-80070000D02*
X151130000Y-80070000D01*
X152460000Y-78740000D02*
X152460000Y-80070000D01*
X152460000Y-77470000D02*
X149800000Y-77470000D01*
X149800000Y-77470000D02*
X149800000Y-74870000D01*
X152460000Y-77470000D02*
X152460000Y-74870000D01*
X152460000Y-74870000D02*
X149800000Y-74870000D01*
G04 #@! TO.C,C1*
X160715000Y-166430000D02*
X159385000Y-166430000D01*
X160715000Y-165100000D02*
X160715000Y-166430000D01*
X160715000Y-163830000D02*
X158055000Y-163830000D01*
X158055000Y-163830000D02*
X158055000Y-161230000D01*
X160715000Y-163830000D02*
X160715000Y-161230000D01*
X160715000Y-161230000D02*
X158055000Y-161230000D01*
D10*
G04 #@! TO.C,SPEAKER (\u002A)*
X167408331Y-127000000D02*
G75*
G03*
X167408331Y-127000000I-15008331J0D01*
G01*
D11*
G04 #@! TO.C,SENSOR*
X168005000Y-171720000D02*
X168005000Y-172720000D01*
X167005000Y-171720000D02*
X168005000Y-171720000D01*
X166150000Y-179030000D02*
X165795000Y-179030000D01*
X166150000Y-178410000D02*
X165795000Y-178410000D01*
X159325000Y-177720000D02*
X165795000Y-177720000D01*
X159325000Y-179780000D02*
X159325000Y-177720000D01*
X165795000Y-179780000D02*
X159325000Y-179780000D01*
X165795000Y-177720000D02*
X165795000Y-179780000D01*
X166150000Y-177030000D02*
X165795000Y-177030000D01*
X166150000Y-176410000D02*
X165795000Y-176410000D01*
X159325000Y-175720000D02*
X165795000Y-175720000D01*
X159325000Y-177720000D02*
X159325000Y-175720000D01*
X165795000Y-177720000D02*
X159325000Y-177720000D01*
X165795000Y-175720000D02*
X165795000Y-177720000D01*
X166150000Y-175030000D02*
X165795000Y-175030000D01*
X166150000Y-174410000D02*
X165795000Y-174410000D01*
X159325000Y-173720000D02*
X165795000Y-173720000D01*
X159325000Y-175720000D02*
X159325000Y-173720000D01*
X165795000Y-175720000D02*
X159325000Y-175720000D01*
X165795000Y-173720000D02*
X165795000Y-175720000D01*
X165795000Y-173760000D02*
X159325000Y-173760000D01*
X165795000Y-173640000D02*
X159325000Y-173640000D01*
X165795000Y-173520000D02*
X159325000Y-173520000D01*
X165795000Y-173400000D02*
X159325000Y-173400000D01*
X165795000Y-173280000D02*
X159325000Y-173280000D01*
X165795000Y-173160000D02*
X159325000Y-173160000D01*
X165795000Y-173040000D02*
X159325000Y-173040000D01*
X165795000Y-172920000D02*
X159325000Y-172920000D01*
X165795000Y-172800000D02*
X159325000Y-172800000D01*
X165795000Y-172680000D02*
X159325000Y-172680000D01*
X165795000Y-172560000D02*
X159325000Y-172560000D01*
X165795000Y-172440000D02*
X159325000Y-172440000D01*
X165795000Y-172320000D02*
X159325000Y-172320000D01*
X165795000Y-172200000D02*
X159325000Y-172200000D01*
X165795000Y-172080000D02*
X159325000Y-172080000D01*
X165795000Y-171960000D02*
X159325000Y-171960000D01*
X165795000Y-171840000D02*
X159325000Y-171840000D01*
X166150000Y-173030000D02*
X165795000Y-173030000D01*
X166150000Y-172410000D02*
X165795000Y-172410000D01*
X159325000Y-171660000D02*
X165795000Y-171660000D01*
X159325000Y-173720000D02*
X159325000Y-171660000D01*
X165795000Y-173720000D02*
X159325000Y-173720000D01*
X165795000Y-171660000D02*
X165795000Y-173720000D01*
G04 #@! TO.C,I2C*
X143240000Y-171720000D02*
X143240000Y-172720000D01*
X142240000Y-171720000D02*
X143240000Y-171720000D01*
X141385000Y-179030000D02*
X141030000Y-179030000D01*
X141385000Y-178410000D02*
X141030000Y-178410000D01*
X134560000Y-177720000D02*
X141030000Y-177720000D01*
X134560000Y-179780000D02*
X134560000Y-177720000D01*
X141030000Y-179780000D02*
X134560000Y-179780000D01*
X141030000Y-177720000D02*
X141030000Y-179780000D01*
X141385000Y-177030000D02*
X141030000Y-177030000D01*
X141385000Y-176410000D02*
X141030000Y-176410000D01*
X134560000Y-175720000D02*
X141030000Y-175720000D01*
X134560000Y-177720000D02*
X134560000Y-175720000D01*
X141030000Y-177720000D02*
X134560000Y-177720000D01*
X141030000Y-175720000D02*
X141030000Y-177720000D01*
X141385000Y-175030000D02*
X141030000Y-175030000D01*
X141385000Y-174410000D02*
X141030000Y-174410000D01*
X134560000Y-173720000D02*
X141030000Y-173720000D01*
X134560000Y-175720000D02*
X134560000Y-173720000D01*
X141030000Y-175720000D02*
X134560000Y-175720000D01*
X141030000Y-173720000D02*
X141030000Y-175720000D01*
X141030000Y-173760000D02*
X134560000Y-173760000D01*
X141030000Y-173640000D02*
X134560000Y-173640000D01*
X141030000Y-173520000D02*
X134560000Y-173520000D01*
X141030000Y-173400000D02*
X134560000Y-173400000D01*
X141030000Y-173280000D02*
X134560000Y-173280000D01*
X141030000Y-173160000D02*
X134560000Y-173160000D01*
X141030000Y-173040000D02*
X134560000Y-173040000D01*
X141030000Y-172920000D02*
X134560000Y-172920000D01*
X141030000Y-172800000D02*
X134560000Y-172800000D01*
X141030000Y-172680000D02*
X134560000Y-172680000D01*
X141030000Y-172560000D02*
X134560000Y-172560000D01*
X141030000Y-172440000D02*
X134560000Y-172440000D01*
X141030000Y-172320000D02*
X134560000Y-172320000D01*
X141030000Y-172200000D02*
X134560000Y-172200000D01*
X141030000Y-172080000D02*
X134560000Y-172080000D01*
X141030000Y-171960000D02*
X134560000Y-171960000D01*
X141030000Y-171840000D02*
X134560000Y-171840000D01*
X141385000Y-173030000D02*
X141030000Y-173030000D01*
X141385000Y-172410000D02*
X141030000Y-172410000D01*
X134560000Y-171660000D02*
X141030000Y-171660000D01*
X134560000Y-173720000D02*
X134560000Y-171660000D01*
X141030000Y-173720000D02*
X134560000Y-173720000D01*
X141030000Y-171660000D02*
X141030000Y-173720000D01*
G04 #@! TO.C,SW1*
X179010000Y-170755000D02*
X180340000Y-170755000D01*
X179010000Y-172085000D02*
X179010000Y-170755000D01*
X179010000Y-173355000D02*
X181670000Y-173355000D01*
X181670000Y-173355000D02*
X181670000Y-178495000D01*
X179010000Y-173355000D02*
X179010000Y-178495000D01*
X179010000Y-178495000D02*
X181670000Y-178495000D01*
G04 #@! TO.C,D2*
X142815000Y-152340000D02*
X142815000Y-155000000D01*
X145415000Y-152340000D02*
X142815000Y-152340000D01*
X145415000Y-155000000D02*
X142815000Y-155000000D01*
X145415000Y-152340000D02*
X145415000Y-155000000D01*
X146685000Y-152340000D02*
X148015000Y-152340000D01*
X148015000Y-152340000D02*
X148015000Y-153670000D01*
G04 #@! TO.C,HEADPHONE*
D10*
X114927380Y-171195476D02*
X113927380Y-171195476D01*
X114403571Y-171195476D02*
X114403571Y-170624047D01*
X114927380Y-170624047D02*
X113927380Y-170624047D01*
X114403571Y-170147857D02*
X114403571Y-169814523D01*
X114927380Y-169671666D02*
X114927380Y-170147857D01*
X113927380Y-170147857D01*
X113927380Y-169671666D01*
X114641666Y-169290714D02*
X114641666Y-168814523D01*
X114927380Y-169385952D02*
X113927380Y-169052619D01*
X114927380Y-168719285D01*
X114927380Y-168385952D02*
X113927380Y-168385952D01*
X113927380Y-168147857D01*
X113975000Y-168005000D01*
X114070238Y-167909761D01*
X114165476Y-167862142D01*
X114355952Y-167814523D01*
X114498809Y-167814523D01*
X114689285Y-167862142D01*
X114784523Y-167909761D01*
X114879761Y-168005000D01*
X114927380Y-168147857D01*
X114927380Y-168385952D01*
X114927380Y-167385952D02*
X113927380Y-167385952D01*
X113927380Y-167005000D01*
X113975000Y-166909761D01*
X114022619Y-166862142D01*
X114117857Y-166814523D01*
X114260714Y-166814523D01*
X114355952Y-166862142D01*
X114403571Y-166909761D01*
X114451190Y-167005000D01*
X114451190Y-167385952D01*
X114927380Y-166385952D02*
X113927380Y-166385952D01*
X114403571Y-166385952D02*
X114403571Y-165814523D01*
X114927380Y-165814523D02*
X113927380Y-165814523D01*
X113927380Y-165147857D02*
X113927380Y-164957380D01*
X113975000Y-164862142D01*
X114070238Y-164766904D01*
X114260714Y-164719285D01*
X114594047Y-164719285D01*
X114784523Y-164766904D01*
X114879761Y-164862142D01*
X114927380Y-164957380D01*
X114927380Y-165147857D01*
X114879761Y-165243095D01*
X114784523Y-165338333D01*
X114594047Y-165385952D01*
X114260714Y-165385952D01*
X114070238Y-165338333D01*
X113975000Y-165243095D01*
X113927380Y-165147857D01*
X114927380Y-164290714D02*
X113927380Y-164290714D01*
X114927380Y-163719285D01*
X113927380Y-163719285D01*
X114403571Y-163243095D02*
X114403571Y-162909761D01*
X114927380Y-162766904D02*
X114927380Y-163243095D01*
X113927380Y-163243095D01*
X113927380Y-162766904D01*
G04 #@! TO.C,TRS-MIDI*
X149606428Y-66762380D02*
X150177857Y-66762380D01*
X149892142Y-67762380D02*
X149892142Y-66762380D01*
X151082619Y-67762380D02*
X150749285Y-67286190D01*
X150511190Y-67762380D02*
X150511190Y-66762380D01*
X150892142Y-66762380D01*
X150987380Y-66810000D01*
X151035000Y-66857619D01*
X151082619Y-66952857D01*
X151082619Y-67095714D01*
X151035000Y-67190952D01*
X150987380Y-67238571D01*
X150892142Y-67286190D01*
X150511190Y-67286190D01*
X151463571Y-67714761D02*
X151606428Y-67762380D01*
X151844523Y-67762380D01*
X151939761Y-67714761D01*
X151987380Y-67667142D01*
X152035000Y-67571904D01*
X152035000Y-67476666D01*
X151987380Y-67381428D01*
X151939761Y-67333809D01*
X151844523Y-67286190D01*
X151654047Y-67238571D01*
X151558809Y-67190952D01*
X151511190Y-67143333D01*
X151463571Y-67048095D01*
X151463571Y-66952857D01*
X151511190Y-66857619D01*
X151558809Y-66810000D01*
X151654047Y-66762380D01*
X151892142Y-66762380D01*
X152035000Y-66810000D01*
X152463571Y-67381428D02*
X153225476Y-67381428D01*
X153701666Y-67762380D02*
X153701666Y-66762380D01*
X154035000Y-67476666D01*
X154368333Y-66762380D01*
X154368333Y-67762380D01*
X154844523Y-67762380D02*
X154844523Y-66762380D01*
X155320714Y-67762380D02*
X155320714Y-66762380D01*
X155558809Y-66762380D01*
X155701666Y-66810000D01*
X155796904Y-66905238D01*
X155844523Y-67000476D01*
X155892142Y-67190952D01*
X155892142Y-67333809D01*
X155844523Y-67524285D01*
X155796904Y-67619523D01*
X155701666Y-67714761D01*
X155558809Y-67762380D01*
X155320714Y-67762380D01*
X156320714Y-67762380D02*
X156320714Y-66762380D01*
G04 #@! TO.C,L7805*
X139517380Y-166060238D02*
X139517380Y-166536428D01*
X138517380Y-166536428D01*
X138517380Y-165822142D02*
X138517380Y-165155476D01*
X139517380Y-165584047D01*
X138945952Y-164631666D02*
X138898333Y-164726904D01*
X138850714Y-164774523D01*
X138755476Y-164822142D01*
X138707857Y-164822142D01*
X138612619Y-164774523D01*
X138565000Y-164726904D01*
X138517380Y-164631666D01*
X138517380Y-164441190D01*
X138565000Y-164345952D01*
X138612619Y-164298333D01*
X138707857Y-164250714D01*
X138755476Y-164250714D01*
X138850714Y-164298333D01*
X138898333Y-164345952D01*
X138945952Y-164441190D01*
X138945952Y-164631666D01*
X138993571Y-164726904D01*
X139041190Y-164774523D01*
X139136428Y-164822142D01*
X139326904Y-164822142D01*
X139422142Y-164774523D01*
X139469761Y-164726904D01*
X139517380Y-164631666D01*
X139517380Y-164441190D01*
X139469761Y-164345952D01*
X139422142Y-164298333D01*
X139326904Y-164250714D01*
X139136428Y-164250714D01*
X139041190Y-164298333D01*
X138993571Y-164345952D01*
X138945952Y-164441190D01*
X138517380Y-163631666D02*
X138517380Y-163536428D01*
X138565000Y-163441190D01*
X138612619Y-163393571D01*
X138707857Y-163345952D01*
X138898333Y-163298333D01*
X139136428Y-163298333D01*
X139326904Y-163345952D01*
X139422142Y-163393571D01*
X139469761Y-163441190D01*
X139517380Y-163536428D01*
X139517380Y-163631666D01*
X139469761Y-163726904D01*
X139422142Y-163774523D01*
X139326904Y-163822142D01*
X139136428Y-163869761D01*
X138898333Y-163869761D01*
X138707857Y-163822142D01*
X138612619Y-163774523D01*
X138565000Y-163726904D01*
X138517380Y-163631666D01*
X138517380Y-162393571D02*
X138517380Y-162869761D01*
X138993571Y-162917380D01*
X138945952Y-162869761D01*
X138898333Y-162774523D01*
X138898333Y-162536428D01*
X138945952Y-162441190D01*
X138993571Y-162393571D01*
X139088809Y-162345952D01*
X139326904Y-162345952D01*
X139422142Y-162393571D01*
X139469761Y-162441190D01*
X139517380Y-162536428D01*
X139517380Y-162774523D01*
X139469761Y-162869761D01*
X139422142Y-162917380D01*
G04 #@! TO.C,VOLUME*
X176617380Y-163654523D02*
X177617380Y-163321190D01*
X176617380Y-162987857D01*
X176617380Y-162464047D02*
X176617380Y-162273571D01*
X176665000Y-162178333D01*
X176760238Y-162083095D01*
X176950714Y-162035476D01*
X177284047Y-162035476D01*
X177474523Y-162083095D01*
X177569761Y-162178333D01*
X177617380Y-162273571D01*
X177617380Y-162464047D01*
X177569761Y-162559285D01*
X177474523Y-162654523D01*
X177284047Y-162702142D01*
X176950714Y-162702142D01*
X176760238Y-162654523D01*
X176665000Y-162559285D01*
X176617380Y-162464047D01*
X177617380Y-161130714D02*
X177617380Y-161606904D01*
X176617380Y-161606904D01*
X176617380Y-160797380D02*
X177426904Y-160797380D01*
X177522142Y-160749761D01*
X177569761Y-160702142D01*
X177617380Y-160606904D01*
X177617380Y-160416428D01*
X177569761Y-160321190D01*
X177522142Y-160273571D01*
X177426904Y-160225952D01*
X176617380Y-160225952D01*
X177617380Y-159749761D02*
X176617380Y-159749761D01*
X177331666Y-159416428D01*
X176617380Y-159083095D01*
X177617380Y-159083095D01*
X177093571Y-158606904D02*
X177093571Y-158273571D01*
X177617380Y-158130714D02*
X177617380Y-158606904D01*
X176617380Y-158606904D01*
X176617380Y-158130714D01*
G04 #@! TO.C,KeyLowC#*
X115387380Y-72667380D02*
X114387380Y-72667380D01*
X115387380Y-72095952D02*
X114815952Y-72524523D01*
X114387380Y-72095952D02*
X114958809Y-72667380D01*
X115339761Y-71286428D02*
X115387380Y-71381666D01*
X115387380Y-71572142D01*
X115339761Y-71667380D01*
X115244523Y-71715000D01*
X114863571Y-71715000D01*
X114768333Y-71667380D01*
X114720714Y-71572142D01*
X114720714Y-71381666D01*
X114768333Y-71286428D01*
X114863571Y-71238809D01*
X114958809Y-71238809D01*
X115054047Y-71715000D01*
X114720714Y-70905476D02*
X115387380Y-70667380D01*
X114720714Y-70429285D02*
X115387380Y-70667380D01*
X115625476Y-70762619D01*
X115673095Y-70810238D01*
X115720714Y-70905476D01*
X115387380Y-69572142D02*
X115387380Y-70048333D01*
X114387380Y-70048333D01*
X115387380Y-69095952D02*
X115339761Y-69191190D01*
X115292142Y-69238809D01*
X115196904Y-69286428D01*
X114911190Y-69286428D01*
X114815952Y-69238809D01*
X114768333Y-69191190D01*
X114720714Y-69095952D01*
X114720714Y-68953095D01*
X114768333Y-68857857D01*
X114815952Y-68810238D01*
X114911190Y-68762619D01*
X115196904Y-68762619D01*
X115292142Y-68810238D01*
X115339761Y-68857857D01*
X115387380Y-68953095D01*
X115387380Y-69095952D01*
X114720714Y-68429285D02*
X115387380Y-68238809D01*
X114911190Y-68048333D01*
X115387380Y-67857857D01*
X114720714Y-67667380D01*
X115292142Y-66715000D02*
X115339761Y-66762619D01*
X115387380Y-66905476D01*
X115387380Y-67000714D01*
X115339761Y-67143571D01*
X115244523Y-67238809D01*
X115149285Y-67286428D01*
X114958809Y-67334047D01*
X114815952Y-67334047D01*
X114625476Y-67286428D01*
X114530238Y-67238809D01*
X114435000Y-67143571D01*
X114387380Y-67000714D01*
X114387380Y-66905476D01*
X114435000Y-66762619D01*
X114482619Y-66715000D01*
X114720714Y-66334047D02*
X114720714Y-65619761D01*
X114292142Y-66048333D02*
X115577857Y-66334047D01*
X115149285Y-65715000D02*
X115149285Y-66429285D01*
X115577857Y-66000714D02*
X114292142Y-65715000D01*
G04 #@! TO.C,KeyG#*
X115387380Y-89066428D02*
X114387380Y-89066428D01*
X115387380Y-88495000D02*
X114815952Y-88923571D01*
X114387380Y-88495000D02*
X114958809Y-89066428D01*
X115339761Y-87685476D02*
X115387380Y-87780714D01*
X115387380Y-87971190D01*
X115339761Y-88066428D01*
X115244523Y-88114047D01*
X114863571Y-88114047D01*
X114768333Y-88066428D01*
X114720714Y-87971190D01*
X114720714Y-87780714D01*
X114768333Y-87685476D01*
X114863571Y-87637857D01*
X114958809Y-87637857D01*
X115054047Y-88114047D01*
X114720714Y-87304523D02*
X115387380Y-87066428D01*
X114720714Y-86828333D02*
X115387380Y-87066428D01*
X115625476Y-87161666D01*
X115673095Y-87209285D01*
X115720714Y-87304523D01*
X114435000Y-85923571D02*
X114387380Y-86018809D01*
X114387380Y-86161666D01*
X114435000Y-86304523D01*
X114530238Y-86399761D01*
X114625476Y-86447380D01*
X114815952Y-86495000D01*
X114958809Y-86495000D01*
X115149285Y-86447380D01*
X115244523Y-86399761D01*
X115339761Y-86304523D01*
X115387380Y-86161666D01*
X115387380Y-86066428D01*
X115339761Y-85923571D01*
X115292142Y-85875952D01*
X114958809Y-85875952D01*
X114958809Y-86066428D01*
X114720714Y-85495000D02*
X114720714Y-84780714D01*
X114292142Y-85209285D02*
X115577857Y-85495000D01*
X115149285Y-84875952D02*
X115149285Y-85590238D01*
X115577857Y-85161666D02*
X114292142Y-84875952D01*
G04 #@! TO.C,KeyG*
X115387380Y-106346428D02*
X114387380Y-106346428D01*
X115387380Y-105775000D02*
X114815952Y-106203571D01*
X114387380Y-105775000D02*
X114958809Y-106346428D01*
X115339761Y-104965476D02*
X115387380Y-105060714D01*
X115387380Y-105251190D01*
X115339761Y-105346428D01*
X115244523Y-105394047D01*
X114863571Y-105394047D01*
X114768333Y-105346428D01*
X114720714Y-105251190D01*
X114720714Y-105060714D01*
X114768333Y-104965476D01*
X114863571Y-104917857D01*
X114958809Y-104917857D01*
X115054047Y-105394047D01*
X114720714Y-104584523D02*
X115387380Y-104346428D01*
X114720714Y-104108333D02*
X115387380Y-104346428D01*
X115625476Y-104441666D01*
X115673095Y-104489285D01*
X115720714Y-104584523D01*
X114435000Y-103203571D02*
X114387380Y-103298809D01*
X114387380Y-103441666D01*
X114435000Y-103584523D01*
X114530238Y-103679761D01*
X114625476Y-103727380D01*
X114815952Y-103775000D01*
X114958809Y-103775000D01*
X115149285Y-103727380D01*
X115244523Y-103679761D01*
X115339761Y-103584523D01*
X115387380Y-103441666D01*
X115387380Y-103346428D01*
X115339761Y-103203571D01*
X115292142Y-103155952D01*
X114958809Y-103155952D01*
X114958809Y-103346428D01*
G04 #@! TO.C,KeyA*
X115387380Y-124055000D02*
X114387380Y-124055000D01*
X115387380Y-123483571D02*
X114815952Y-123912142D01*
X114387380Y-123483571D02*
X114958809Y-124055000D01*
X115339761Y-122674047D02*
X115387380Y-122769285D01*
X115387380Y-122959761D01*
X115339761Y-123055000D01*
X115244523Y-123102619D01*
X114863571Y-123102619D01*
X114768333Y-123055000D01*
X114720714Y-122959761D01*
X114720714Y-122769285D01*
X114768333Y-122674047D01*
X114863571Y-122626428D01*
X114958809Y-122626428D01*
X115054047Y-123102619D01*
X114720714Y-122293095D02*
X115387380Y-122055000D01*
X114720714Y-121816904D02*
X115387380Y-122055000D01*
X115625476Y-122150238D01*
X115673095Y-122197857D01*
X115720714Y-122293095D01*
X115101666Y-121483571D02*
X115101666Y-121007380D01*
X115387380Y-121578809D02*
X114387380Y-121245476D01*
X115387380Y-120912142D01*
G04 #@! TO.C,KeyB*
X115387380Y-141906428D02*
X114387380Y-141906428D01*
X115387380Y-141335000D02*
X114815952Y-141763571D01*
X114387380Y-141335000D02*
X114958809Y-141906428D01*
X115339761Y-140525476D02*
X115387380Y-140620714D01*
X115387380Y-140811190D01*
X115339761Y-140906428D01*
X115244523Y-140954047D01*
X114863571Y-140954047D01*
X114768333Y-140906428D01*
X114720714Y-140811190D01*
X114720714Y-140620714D01*
X114768333Y-140525476D01*
X114863571Y-140477857D01*
X114958809Y-140477857D01*
X115054047Y-140954047D01*
X114720714Y-140144523D02*
X115387380Y-139906428D01*
X114720714Y-139668333D02*
X115387380Y-139906428D01*
X115625476Y-140001666D01*
X115673095Y-140049285D01*
X115720714Y-140144523D01*
X114863571Y-138954047D02*
X114911190Y-138811190D01*
X114958809Y-138763571D01*
X115054047Y-138715952D01*
X115196904Y-138715952D01*
X115292142Y-138763571D01*
X115339761Y-138811190D01*
X115387380Y-138906428D01*
X115387380Y-139287380D01*
X114387380Y-139287380D01*
X114387380Y-138954047D01*
X114435000Y-138858809D01*
X114482619Y-138811190D01*
X114577857Y-138763571D01*
X114673095Y-138763571D01*
X114768333Y-138811190D01*
X114815952Y-138858809D01*
X114863571Y-138954047D01*
X114863571Y-139287380D01*
G04 #@! TO.C,KeyLowC*
X180157380Y-72167380D02*
X179157380Y-72167380D01*
X180157380Y-71595952D02*
X179585952Y-72024523D01*
X179157380Y-71595952D02*
X179728809Y-72167380D01*
X180109761Y-70786428D02*
X180157380Y-70881666D01*
X180157380Y-71072142D01*
X180109761Y-71167380D01*
X180014523Y-71215000D01*
X179633571Y-71215000D01*
X179538333Y-71167380D01*
X179490714Y-71072142D01*
X179490714Y-70881666D01*
X179538333Y-70786428D01*
X179633571Y-70738809D01*
X179728809Y-70738809D01*
X179824047Y-71215000D01*
X179490714Y-70405476D02*
X180157380Y-70167380D01*
X179490714Y-69929285D02*
X180157380Y-70167380D01*
X180395476Y-70262619D01*
X180443095Y-70310238D01*
X180490714Y-70405476D01*
X180157380Y-69072142D02*
X180157380Y-69548333D01*
X179157380Y-69548333D01*
X180157380Y-68595952D02*
X180109761Y-68691190D01*
X180062142Y-68738809D01*
X179966904Y-68786428D01*
X179681190Y-68786428D01*
X179585952Y-68738809D01*
X179538333Y-68691190D01*
X179490714Y-68595952D01*
X179490714Y-68453095D01*
X179538333Y-68357857D01*
X179585952Y-68310238D01*
X179681190Y-68262619D01*
X179966904Y-68262619D01*
X180062142Y-68310238D01*
X180109761Y-68357857D01*
X180157380Y-68453095D01*
X180157380Y-68595952D01*
X179490714Y-67929285D02*
X180157380Y-67738809D01*
X179681190Y-67548333D01*
X180157380Y-67357857D01*
X179490714Y-67167380D01*
X180062142Y-66215000D02*
X180109761Y-66262619D01*
X180157380Y-66405476D01*
X180157380Y-66500714D01*
X180109761Y-66643571D01*
X180014523Y-66738809D01*
X179919285Y-66786428D01*
X179728809Y-66834047D01*
X179585952Y-66834047D01*
X179395476Y-66786428D01*
X179300238Y-66738809D01*
X179205000Y-66643571D01*
X179157380Y-66500714D01*
X179157380Y-66405476D01*
X179205000Y-66262619D01*
X179252619Y-66215000D01*
G04 #@! TO.C,KeyEb*
X180157380Y-88971190D02*
X179157380Y-88971190D01*
X180157380Y-88399761D02*
X179585952Y-88828333D01*
X179157380Y-88399761D02*
X179728809Y-88971190D01*
X180109761Y-87590238D02*
X180157380Y-87685476D01*
X180157380Y-87875952D01*
X180109761Y-87971190D01*
X180014523Y-88018809D01*
X179633571Y-88018809D01*
X179538333Y-87971190D01*
X179490714Y-87875952D01*
X179490714Y-87685476D01*
X179538333Y-87590238D01*
X179633571Y-87542619D01*
X179728809Y-87542619D01*
X179824047Y-88018809D01*
X179490714Y-87209285D02*
X180157380Y-86971190D01*
X179490714Y-86733095D02*
X180157380Y-86971190D01*
X180395476Y-87066428D01*
X180443095Y-87114047D01*
X180490714Y-87209285D01*
X179633571Y-86352142D02*
X179633571Y-86018809D01*
X180157380Y-85875952D02*
X180157380Y-86352142D01*
X179157380Y-86352142D01*
X179157380Y-85875952D01*
X180157380Y-85447380D02*
X179157380Y-85447380D01*
X179538333Y-85447380D02*
X179490714Y-85352142D01*
X179490714Y-85161666D01*
X179538333Y-85066428D01*
X179585952Y-85018809D01*
X179681190Y-84971190D01*
X179966904Y-84971190D01*
X180062142Y-85018809D01*
X180109761Y-85066428D01*
X180157380Y-85161666D01*
X180157380Y-85352142D01*
X180109761Y-85447380D01*
G04 #@! TO.C,KeyD*
X180157380Y-106346428D02*
X179157380Y-106346428D01*
X180157380Y-105775000D02*
X179585952Y-106203571D01*
X179157380Y-105775000D02*
X179728809Y-106346428D01*
X180109761Y-104965476D02*
X180157380Y-105060714D01*
X180157380Y-105251190D01*
X180109761Y-105346428D01*
X180014523Y-105394047D01*
X179633571Y-105394047D01*
X179538333Y-105346428D01*
X179490714Y-105251190D01*
X179490714Y-105060714D01*
X179538333Y-104965476D01*
X179633571Y-104917857D01*
X179728809Y-104917857D01*
X179824047Y-105394047D01*
X179490714Y-104584523D02*
X180157380Y-104346428D01*
X179490714Y-104108333D02*
X180157380Y-104346428D01*
X180395476Y-104441666D01*
X180443095Y-104489285D01*
X180490714Y-104584523D01*
X180157380Y-103727380D02*
X179157380Y-103727380D01*
X179157380Y-103489285D01*
X179205000Y-103346428D01*
X179300238Y-103251190D01*
X179395476Y-103203571D01*
X179585952Y-103155952D01*
X179728809Y-103155952D01*
X179919285Y-103203571D01*
X180014523Y-103251190D01*
X180109761Y-103346428D01*
X180157380Y-103489285D01*
X180157380Y-103727380D01*
G04 #@! TO.C,KeyE*
X180157380Y-124078809D02*
X179157380Y-124078809D01*
X180157380Y-123507380D02*
X179585952Y-123935952D01*
X179157380Y-123507380D02*
X179728809Y-124078809D01*
X180109761Y-122697857D02*
X180157380Y-122793095D01*
X180157380Y-122983571D01*
X180109761Y-123078809D01*
X180014523Y-123126428D01*
X179633571Y-123126428D01*
X179538333Y-123078809D01*
X179490714Y-122983571D01*
X179490714Y-122793095D01*
X179538333Y-122697857D01*
X179633571Y-122650238D01*
X179728809Y-122650238D01*
X179824047Y-123126428D01*
X179490714Y-122316904D02*
X180157380Y-122078809D01*
X179490714Y-121840714D02*
X180157380Y-122078809D01*
X180395476Y-122174047D01*
X180443095Y-122221666D01*
X180490714Y-122316904D01*
X179633571Y-121459761D02*
X179633571Y-121126428D01*
X180157380Y-120983571D02*
X180157380Y-121459761D01*
X179157380Y-121459761D01*
X179157380Y-120983571D01*
G04 #@! TO.C,KeyF*
X180157380Y-141835000D02*
X179157380Y-141835000D01*
X180157380Y-141263571D02*
X179585952Y-141692142D01*
X179157380Y-141263571D02*
X179728809Y-141835000D01*
X180109761Y-140454047D02*
X180157380Y-140549285D01*
X180157380Y-140739761D01*
X180109761Y-140835000D01*
X180014523Y-140882619D01*
X179633571Y-140882619D01*
X179538333Y-140835000D01*
X179490714Y-140739761D01*
X179490714Y-140549285D01*
X179538333Y-140454047D01*
X179633571Y-140406428D01*
X179728809Y-140406428D01*
X179824047Y-140882619D01*
X179490714Y-140073095D02*
X180157380Y-139835000D01*
X179490714Y-139596904D02*
X180157380Y-139835000D01*
X180395476Y-139930238D01*
X180443095Y-139977857D01*
X180490714Y-140073095D01*
X179633571Y-138882619D02*
X179633571Y-139215952D01*
X180157380Y-139215952D02*
X179157380Y-139215952D01*
X179157380Y-138739761D01*
G04 #@! TO.C,AE-PAM8012*
X150860714Y-147486666D02*
X151336904Y-147486666D01*
X150765476Y-147772380D02*
X151098809Y-146772380D01*
X151432142Y-147772380D01*
X151765476Y-147248571D02*
X152098809Y-147248571D01*
X152241666Y-147772380D02*
X151765476Y-147772380D01*
X151765476Y-146772380D01*
X152241666Y-146772380D01*
X152670238Y-147391428D02*
X153432142Y-147391428D01*
X153908333Y-147772380D02*
X153908333Y-146772380D01*
X154289285Y-146772380D01*
X154384523Y-146820000D01*
X154432142Y-146867619D01*
X154479761Y-146962857D01*
X154479761Y-147105714D01*
X154432142Y-147200952D01*
X154384523Y-147248571D01*
X154289285Y-147296190D01*
X153908333Y-147296190D01*
X154860714Y-147486666D02*
X155336904Y-147486666D01*
X154765476Y-147772380D02*
X155098809Y-146772380D01*
X155432142Y-147772380D01*
X155765476Y-147772380D02*
X155765476Y-146772380D01*
X156098809Y-147486666D01*
X156432142Y-146772380D01*
X156432142Y-147772380D01*
X157051190Y-147200952D02*
X156955952Y-147153333D01*
X156908333Y-147105714D01*
X156860714Y-147010476D01*
X156860714Y-146962857D01*
X156908333Y-146867619D01*
X156955952Y-146820000D01*
X157051190Y-146772380D01*
X157241666Y-146772380D01*
X157336904Y-146820000D01*
X157384523Y-146867619D01*
X157432142Y-146962857D01*
X157432142Y-147010476D01*
X157384523Y-147105714D01*
X157336904Y-147153333D01*
X157241666Y-147200952D01*
X157051190Y-147200952D01*
X156955952Y-147248571D01*
X156908333Y-147296190D01*
X156860714Y-147391428D01*
X156860714Y-147581904D01*
X156908333Y-147677142D01*
X156955952Y-147724761D01*
X157051190Y-147772380D01*
X157241666Y-147772380D01*
X157336904Y-147724761D01*
X157384523Y-147677142D01*
X157432142Y-147581904D01*
X157432142Y-147391428D01*
X157384523Y-147296190D01*
X157336904Y-147248571D01*
X157241666Y-147200952D01*
X158051190Y-146772380D02*
X158146428Y-146772380D01*
X158241666Y-146820000D01*
X158289285Y-146867619D01*
X158336904Y-146962857D01*
X158384523Y-147153333D01*
X158384523Y-147391428D01*
X158336904Y-147581904D01*
X158289285Y-147677142D01*
X158241666Y-147724761D01*
X158146428Y-147772380D01*
X158051190Y-147772380D01*
X157955952Y-147724761D01*
X157908333Y-147677142D01*
X157860714Y-147581904D01*
X157813095Y-147391428D01*
X157813095Y-147153333D01*
X157860714Y-146962857D01*
X157908333Y-146867619D01*
X157955952Y-146820000D01*
X158051190Y-146772380D01*
X159336904Y-147772380D02*
X158765476Y-147772380D01*
X159051190Y-147772380D02*
X159051190Y-146772380D01*
X158955952Y-146915238D01*
X158860714Y-147010476D01*
X158765476Y-147058095D01*
X159717857Y-146867619D02*
X159765476Y-146820000D01*
X159860714Y-146772380D01*
X160098809Y-146772380D01*
X160194047Y-146820000D01*
X160241666Y-146867619D01*
X160289285Y-146962857D01*
X160289285Y-147058095D01*
X160241666Y-147200952D01*
X159670238Y-147772380D01*
X160289285Y-147772380D01*
X156829285Y-150264761D02*
X156972142Y-150312380D01*
X157210238Y-150312380D01*
X157305476Y-150264761D01*
X157353095Y-150217142D01*
X157400714Y-150121904D01*
X157400714Y-150026666D01*
X157353095Y-149931428D01*
X157305476Y-149883809D01*
X157210238Y-149836190D01*
X157019761Y-149788571D01*
X156924523Y-149740952D01*
X156876904Y-149693333D01*
X156829285Y-149598095D01*
X156829285Y-149502857D01*
X156876904Y-149407619D01*
X156924523Y-149360000D01*
X157019761Y-149312380D01*
X157257857Y-149312380D01*
X157400714Y-149360000D01*
X158400714Y-150312380D02*
X158067380Y-149836190D01*
X157829285Y-150312380D02*
X157829285Y-149312380D01*
X158210238Y-149312380D01*
X158305476Y-149360000D01*
X158353095Y-149407619D01*
X158400714Y-149502857D01*
X158400714Y-149645714D01*
X158353095Y-149740952D01*
X158305476Y-149788571D01*
X158210238Y-149836190D01*
X157829285Y-149836190D01*
X159400714Y-150217142D02*
X159353095Y-150264761D01*
X159210238Y-150312380D01*
X159115000Y-150312380D01*
X158972142Y-150264761D01*
X158876904Y-150169523D01*
X158829285Y-150074285D01*
X158781666Y-149883809D01*
X158781666Y-149740952D01*
X158829285Y-149550476D01*
X158876904Y-149455238D01*
X158972142Y-149360000D01*
X159115000Y-149312380D01*
X159210238Y-149312380D01*
X159353095Y-149360000D01*
X159400714Y-149407619D01*
X152844523Y-149312380D02*
X152368333Y-149312380D01*
X152320714Y-149788571D01*
X152368333Y-149740952D01*
X152463571Y-149693333D01*
X152701666Y-149693333D01*
X152796904Y-149740952D01*
X152844523Y-149788571D01*
X152892142Y-149883809D01*
X152892142Y-150121904D01*
X152844523Y-150217142D01*
X152796904Y-150264761D01*
X152701666Y-150312380D01*
X152463571Y-150312380D01*
X152368333Y-150264761D01*
X152320714Y-150217142D01*
X153177857Y-149312380D02*
X153511190Y-150312380D01*
X153844523Y-149312380D01*
X157734047Y-145486428D02*
X158495952Y-145486428D01*
X152654047Y-145486428D02*
X153415952Y-145486428D01*
X153035000Y-145867380D02*
X153035000Y-145105476D01*
G04 #@! TO.C,LED*
X150312380Y-91447857D02*
X150312380Y-91924047D01*
X149312380Y-91924047D01*
X149788571Y-91114523D02*
X149788571Y-90781190D01*
X150312380Y-90638333D02*
X150312380Y-91114523D01*
X149312380Y-91114523D01*
X149312380Y-90638333D01*
X150312380Y-90209761D02*
X149312380Y-90209761D01*
X149312380Y-89971666D01*
X149360000Y-89828809D01*
X149455238Y-89733571D01*
X149550476Y-89685952D01*
X149740952Y-89638333D01*
X149883809Y-89638333D01*
X150074285Y-89685952D01*
X150169523Y-89733571D01*
X150264761Y-89828809D01*
X150312380Y-89971666D01*
X150312380Y-90209761D01*
G04 #@! TO.C,R1*
X151582380Y-163996666D02*
X151106190Y-164330000D01*
X151582380Y-164568095D02*
X150582380Y-164568095D01*
X150582380Y-164187142D01*
X150630000Y-164091904D01*
X150677619Y-164044285D01*
X150772857Y-163996666D01*
X150915714Y-163996666D01*
X151010952Y-164044285D01*
X151058571Y-164091904D01*
X151106190Y-164187142D01*
X151106190Y-164568095D01*
X151582380Y-163044285D02*
X151582380Y-163615714D01*
X151582380Y-163330000D02*
X150582380Y-163330000D01*
X150725238Y-163425238D01*
X150820476Y-163520476D01*
X150868095Y-163615714D01*
G04 #@! TO.C,R2*
X156027380Y-77636666D02*
X155551190Y-77970000D01*
X156027380Y-78208095D02*
X155027380Y-78208095D01*
X155027380Y-77827142D01*
X155075000Y-77731904D01*
X155122619Y-77684285D01*
X155217857Y-77636666D01*
X155360714Y-77636666D01*
X155455952Y-77684285D01*
X155503571Y-77731904D01*
X155551190Y-77827142D01*
X155551190Y-78208095D01*
X155122619Y-77255714D02*
X155075000Y-77208095D01*
X155027380Y-77112857D01*
X155027380Y-76874761D01*
X155075000Y-76779523D01*
X155122619Y-76731904D01*
X155217857Y-76684285D01*
X155313095Y-76684285D01*
X155455952Y-76731904D01*
X156027380Y-77303333D01*
X156027380Y-76684285D01*
G04 #@! TO.C,R3*
X149042380Y-77636666D02*
X148566190Y-77970000D01*
X149042380Y-78208095D02*
X148042380Y-78208095D01*
X148042380Y-77827142D01*
X148090000Y-77731904D01*
X148137619Y-77684285D01*
X148232857Y-77636666D01*
X148375714Y-77636666D01*
X148470952Y-77684285D01*
X148518571Y-77731904D01*
X148566190Y-77827142D01*
X148566190Y-78208095D01*
X148042380Y-77303333D02*
X148042380Y-76684285D01*
X148423333Y-77017619D01*
X148423333Y-76874761D01*
X148470952Y-76779523D01*
X148518571Y-76731904D01*
X148613809Y-76684285D01*
X148851904Y-76684285D01*
X148947142Y-76731904D01*
X148994761Y-76779523D01*
X149042380Y-76874761D01*
X149042380Y-77160476D01*
X148994761Y-77255714D01*
X148947142Y-77303333D01*
G04 #@! TO.C,C1*
X162282142Y-163996666D02*
X162329761Y-164044285D01*
X162377380Y-164187142D01*
X162377380Y-164282380D01*
X162329761Y-164425238D01*
X162234523Y-164520476D01*
X162139285Y-164568095D01*
X161948809Y-164615714D01*
X161805952Y-164615714D01*
X161615476Y-164568095D01*
X161520238Y-164520476D01*
X161425000Y-164425238D01*
X161377380Y-164282380D01*
X161377380Y-164187142D01*
X161425000Y-164044285D01*
X161472619Y-163996666D01*
X162377380Y-163044285D02*
X162377380Y-163615714D01*
X162377380Y-163330000D02*
X161377380Y-163330000D01*
X161520238Y-163425238D01*
X161615476Y-163520476D01*
X161663095Y-163615714D01*
G04 #@! TO.C,SPEAKER (\u002A)*
X148352380Y-127404761D02*
X148495238Y-127452380D01*
X148733333Y-127452380D01*
X148828571Y-127404761D01*
X148876190Y-127357142D01*
X148923809Y-127261904D01*
X148923809Y-127166666D01*
X148876190Y-127071428D01*
X148828571Y-127023809D01*
X148733333Y-126976190D01*
X148542857Y-126928571D01*
X148447619Y-126880952D01*
X148400000Y-126833333D01*
X148352380Y-126738095D01*
X148352380Y-126642857D01*
X148400000Y-126547619D01*
X148447619Y-126500000D01*
X148542857Y-126452380D01*
X148780952Y-126452380D01*
X148923809Y-126500000D01*
X149352380Y-127452380D02*
X149352380Y-126452380D01*
X149733333Y-126452380D01*
X149828571Y-126500000D01*
X149876190Y-126547619D01*
X149923809Y-126642857D01*
X149923809Y-126785714D01*
X149876190Y-126880952D01*
X149828571Y-126928571D01*
X149733333Y-126976190D01*
X149352380Y-126976190D01*
X150352380Y-126928571D02*
X150685714Y-126928571D01*
X150828571Y-127452380D02*
X150352380Y-127452380D01*
X150352380Y-126452380D01*
X150828571Y-126452380D01*
X151209523Y-127166666D02*
X151685714Y-127166666D01*
X151114285Y-127452380D02*
X151447619Y-126452380D01*
X151780952Y-127452380D01*
X152114285Y-127452380D02*
X152114285Y-126452380D01*
X152685714Y-127452380D02*
X152257142Y-126880952D01*
X152685714Y-126452380D02*
X152114285Y-127023809D01*
X153114285Y-126928571D02*
X153447619Y-126928571D01*
X153590476Y-127452380D02*
X153114285Y-127452380D01*
X153114285Y-126452380D01*
X153590476Y-126452380D01*
X154590476Y-127452380D02*
X154257142Y-126976190D01*
X154019047Y-127452380D02*
X154019047Y-126452380D01*
X154400000Y-126452380D01*
X154495238Y-126500000D01*
X154542857Y-126547619D01*
X154590476Y-126642857D01*
X154590476Y-126785714D01*
X154542857Y-126880952D01*
X154495238Y-126928571D01*
X154400000Y-126976190D01*
X154019047Y-126976190D01*
X156066666Y-127833333D02*
X156019047Y-127785714D01*
X155923809Y-127642857D01*
X155876190Y-127547619D01*
X155828571Y-127404761D01*
X155780952Y-127166666D01*
X155780952Y-126976190D01*
X155828571Y-126738095D01*
X155876190Y-126595238D01*
X155923809Y-126500000D01*
X156019047Y-126357142D01*
X156066666Y-126309523D01*
X156590476Y-126452380D02*
X156590476Y-126690476D01*
X156352380Y-126595238D02*
X156590476Y-126690476D01*
X156828571Y-126595238D01*
X156447619Y-126880952D02*
X156590476Y-126690476D01*
X156733333Y-126880952D01*
X157114285Y-127833333D02*
X157161904Y-127785714D01*
X157257142Y-127642857D01*
X157304761Y-127547619D01*
X157352380Y-127404761D01*
X157400000Y-127166666D01*
X157400000Y-126976190D01*
X157352380Y-126738095D01*
X157304761Y-126595238D01*
X157257142Y-126500000D01*
X157161904Y-126357142D01*
X157114285Y-126309523D01*
G04 #@! TO.C,SENSOR*
X157884761Y-178656904D02*
X157932380Y-178514047D01*
X157932380Y-178275952D01*
X157884761Y-178180714D01*
X157837142Y-178133095D01*
X157741904Y-178085476D01*
X157646666Y-178085476D01*
X157551428Y-178133095D01*
X157503809Y-178180714D01*
X157456190Y-178275952D01*
X157408571Y-178466428D01*
X157360952Y-178561666D01*
X157313333Y-178609285D01*
X157218095Y-178656904D01*
X157122857Y-178656904D01*
X157027619Y-178609285D01*
X156980000Y-178561666D01*
X156932380Y-178466428D01*
X156932380Y-178228333D01*
X156980000Y-178085476D01*
X157408571Y-177656904D02*
X157408571Y-177323571D01*
X157932380Y-177180714D02*
X157932380Y-177656904D01*
X156932380Y-177656904D01*
X156932380Y-177180714D01*
X157932380Y-176752142D02*
X156932380Y-176752142D01*
X157932380Y-176180714D01*
X156932380Y-176180714D01*
X157884761Y-175752142D02*
X157932380Y-175609285D01*
X157932380Y-175371190D01*
X157884761Y-175275952D01*
X157837142Y-175228333D01*
X157741904Y-175180714D01*
X157646666Y-175180714D01*
X157551428Y-175228333D01*
X157503809Y-175275952D01*
X157456190Y-175371190D01*
X157408571Y-175561666D01*
X157360952Y-175656904D01*
X157313333Y-175704523D01*
X157218095Y-175752142D01*
X157122857Y-175752142D01*
X157027619Y-175704523D01*
X156980000Y-175656904D01*
X156932380Y-175561666D01*
X156932380Y-175323571D01*
X156980000Y-175180714D01*
X156932380Y-174561666D02*
X156932380Y-174371190D01*
X156980000Y-174275952D01*
X157075238Y-174180714D01*
X157265714Y-174133095D01*
X157599047Y-174133095D01*
X157789523Y-174180714D01*
X157884761Y-174275952D01*
X157932380Y-174371190D01*
X157932380Y-174561666D01*
X157884761Y-174656904D01*
X157789523Y-174752142D01*
X157599047Y-174799761D01*
X157265714Y-174799761D01*
X157075238Y-174752142D01*
X156980000Y-174656904D01*
X156932380Y-174561666D01*
X157932380Y-173133095D02*
X157456190Y-173466428D01*
X157932380Y-173704523D02*
X156932380Y-173704523D01*
X156932380Y-173323571D01*
X156980000Y-173228333D01*
X157027619Y-173180714D01*
X157122857Y-173133095D01*
X157265714Y-173133095D01*
X157360952Y-173180714D01*
X157408571Y-173228333D01*
X157456190Y-173323571D01*
X157456190Y-173704523D01*
G04 #@! TO.C,I2C*
X133167380Y-176236190D02*
X132167380Y-176236190D01*
X132262619Y-175807619D02*
X132215000Y-175760000D01*
X132167380Y-175664761D01*
X132167380Y-175426666D01*
X132215000Y-175331428D01*
X132262619Y-175283809D01*
X132357857Y-175236190D01*
X132453095Y-175236190D01*
X132595952Y-175283809D01*
X133167380Y-175855238D01*
X133167380Y-175236190D01*
X133072142Y-174236190D02*
X133119761Y-174283809D01*
X133167380Y-174426666D01*
X133167380Y-174521904D01*
X133119761Y-174664761D01*
X133024523Y-174760000D01*
X132929285Y-174807619D01*
X132738809Y-174855238D01*
X132595952Y-174855238D01*
X132405476Y-174807619D01*
X132310238Y-174760000D01*
X132215000Y-174664761D01*
X132167380Y-174521904D01*
X132167380Y-174426666D01*
X132215000Y-174283809D01*
X132262619Y-174236190D01*
G04 #@! TO.C,SW1*
X177569761Y-175323333D02*
X177617380Y-175180476D01*
X177617380Y-174942380D01*
X177569761Y-174847142D01*
X177522142Y-174799523D01*
X177426904Y-174751904D01*
X177331666Y-174751904D01*
X177236428Y-174799523D01*
X177188809Y-174847142D01*
X177141190Y-174942380D01*
X177093571Y-175132857D01*
X177045952Y-175228095D01*
X176998333Y-175275714D01*
X176903095Y-175323333D01*
X176807857Y-175323333D01*
X176712619Y-175275714D01*
X176665000Y-175228095D01*
X176617380Y-175132857D01*
X176617380Y-174894761D01*
X176665000Y-174751904D01*
X176617380Y-174418571D02*
X177617380Y-174180476D01*
X176903095Y-173990000D01*
X177617380Y-173799523D01*
X176617380Y-173561428D01*
X177617380Y-172656666D02*
X177617380Y-173228095D01*
X177617380Y-172942380D02*
X176617380Y-172942380D01*
X176760238Y-173037619D01*
X176855476Y-173132857D01*
X176903095Y-173228095D01*
G04 #@! TO.C,D2*
X141422380Y-154408095D02*
X140422380Y-154408095D01*
X140422380Y-154170000D01*
X140470000Y-154027142D01*
X140565238Y-153931904D01*
X140660476Y-153884285D01*
X140850952Y-153836666D01*
X140993809Y-153836666D01*
X141184285Y-153884285D01*
X141279523Y-153931904D01*
X141374761Y-154027142D01*
X141422380Y-154170000D01*
X141422380Y-154408095D01*
X140517619Y-153455714D02*
X140470000Y-153408095D01*
X140422380Y-153312857D01*
X140422380Y-153074761D01*
X140470000Y-152979523D01*
X140517619Y-152931904D01*
X140612857Y-152884285D01*
X140708095Y-152884285D01*
X140850952Y-152931904D01*
X141422380Y-153503333D01*
X141422380Y-152884285D01*
G04 #@! TD*
M02*
