G04 #@! TF.FileFunction,Copper,L2,Bot,Signal*
%FSLAX46Y46*%
G04 Gerber Fmt 4.6, Leading zero omitted, Abs format (unit mm)*
G04 Created by KiCad (PCBNEW 4.0.1-stable) date 2019/01/29 0:04:04*
%MOMM*%
G01*
G04 APERTURE LIST*
%ADD10C,0.100000*%
%ADD11R,1.600000X1.600000*%
%ADD12O,1.600000X1.600000*%
%ADD13R,1.700000X1.700000*%
%ADD14O,1.700000X1.700000*%
%ADD15C,2.000000*%
%ADD16C,4.200000*%
%ADD17C,1.000000*%
%ADD18C,2.200000*%
%ADD19C,1.260000*%
%ADD20C,0.600000*%
%ADD21C,0.250000*%
%ADD22C,0.254000*%
G04 APERTURE END LIST*
D10*
D11*
X106680000Y-87630000D03*
D12*
X114300000Y-120650000D03*
X106680000Y-90170000D03*
X114300000Y-118110000D03*
X106680000Y-92710000D03*
X114300000Y-115570000D03*
X106680000Y-95250000D03*
X114300000Y-113030000D03*
X106680000Y-97790000D03*
X114300000Y-110490000D03*
X106680000Y-100330000D03*
X114300000Y-107950000D03*
X106680000Y-102870000D03*
X114300000Y-105410000D03*
X106680000Y-105410000D03*
X114300000Y-102870000D03*
X106680000Y-107950000D03*
X114300000Y-100330000D03*
X106680000Y-110490000D03*
X114300000Y-97790000D03*
X106680000Y-113030000D03*
X114300000Y-95250000D03*
X106680000Y-115570000D03*
X114300000Y-92710000D03*
X106680000Y-118110000D03*
X114300000Y-90170000D03*
X106680000Y-120650000D03*
X114300000Y-87630000D03*
D13*
X118110000Y-113030000D03*
D14*
X120650000Y-113030000D03*
X118110000Y-115570000D03*
X120650000Y-115570000D03*
X118110000Y-118110000D03*
X120650000Y-118110000D03*
D13*
X102870000Y-106680000D03*
D14*
X102870000Y-109220000D03*
X102870000Y-111760000D03*
D13*
X100330000Y-153670000D03*
D14*
X100330000Y-151130000D03*
X100330000Y-148590000D03*
X100330000Y-146050000D03*
D13*
X120650000Y-72390000D03*
D14*
X118110000Y-72390000D03*
D13*
X102870000Y-87630000D03*
D14*
X102870000Y-85090000D03*
D13*
X118110000Y-81280000D03*
D14*
X118110000Y-78740000D03*
D13*
X102870000Y-72390000D03*
D14*
X100330000Y-72390000D03*
D13*
X120650000Y-151130000D03*
D14*
X120650000Y-148590000D03*
X120650000Y-146050000D03*
D13*
X119380000Y-92710000D03*
D14*
X119380000Y-95250000D03*
D15*
X87630000Y-78740000D03*
X85090000Y-72390000D03*
D16*
X90170000Y-74930000D03*
D15*
X87630000Y-96520000D03*
X85090000Y-90170000D03*
D16*
X90170000Y-92710000D03*
D15*
X87630000Y-114300000D03*
X85090000Y-107950000D03*
D16*
X90170000Y-110490000D03*
D15*
X87630000Y-132080000D03*
X85090000Y-125730000D03*
D16*
X90170000Y-128270000D03*
D15*
X87630000Y-149860000D03*
X85090000Y-143510000D03*
D16*
X90170000Y-146050000D03*
D15*
X133350000Y-142240000D03*
X135890000Y-148590000D03*
D16*
X130810000Y-146050000D03*
D15*
X106680000Y-132080000D03*
X113030000Y-134620000D03*
D16*
X110490000Y-129540000D03*
D15*
X106680000Y-148590000D03*
X113030000Y-151130000D03*
D16*
X110490000Y-146050000D03*
D15*
X133350000Y-124460000D03*
X135890000Y-130810000D03*
D16*
X130810000Y-128270000D03*
D15*
X133350000Y-106680000D03*
X135890000Y-113030000D03*
D16*
X130810000Y-110490000D03*
D15*
X133350000Y-88900000D03*
X135890000Y-95250000D03*
D16*
X130810000Y-92710000D03*
D15*
X133350000Y-71120000D03*
X135890000Y-77470000D03*
D16*
X130810000Y-74930000D03*
D13*
X119380000Y-107950000D03*
D14*
X119380000Y-105410000D03*
D13*
X119380000Y-86360000D03*
D14*
X119380000Y-88900000D03*
D13*
X102870000Y-80010000D03*
D14*
X102870000Y-77470000D03*
D11*
X106680000Y-76200000D03*
D12*
X114300000Y-83820000D03*
X106680000Y-78740000D03*
X114300000Y-81280000D03*
X106680000Y-81280000D03*
X114300000Y-78740000D03*
X106680000Y-83820000D03*
X114300000Y-76200000D03*
D13*
X120650000Y-137160000D03*
D14*
X120650000Y-134620000D03*
D17*
X110490000Y-72390000D03*
X108890000Y-72390000D03*
X112090000Y-72390000D03*
X111290000Y-71190000D03*
X109690000Y-71190000D03*
D18*
X106690000Y-66790000D03*
X114290000Y-66790000D03*
D19*
X101600000Y-95250000D03*
X104140000Y-97790000D03*
X101600000Y-100330000D03*
D20*
X116840000Y-101600000D03*
X116840000Y-106680000D03*
X124460000Y-123190000D03*
X121920000Y-123190000D03*
X124460000Y-120650000D03*
X121920000Y-120650000D03*
X109220000Y-114300000D03*
X115570000Y-116840000D03*
X123190000Y-100330000D03*
X120650000Y-100330000D03*
X123190000Y-99060000D03*
X120650000Y-99060000D03*
X123190000Y-97790000D03*
X120650000Y-97790000D03*
X111760000Y-105410000D03*
X110490000Y-106680000D03*
D21*
X116840000Y-101600000D02*
X116840000Y-106680000D01*
X114300000Y-120650000D02*
X116840000Y-123190000D01*
X128270000Y-142240000D02*
X133350000Y-142240000D01*
X127000000Y-140970000D02*
X128270000Y-142240000D01*
X127000000Y-124460000D02*
X127000000Y-140970000D01*
X125730000Y-123190000D02*
X127000000Y-124460000D01*
X124460000Y-123190000D02*
X125730000Y-123190000D01*
X116840000Y-123190000D02*
X121920000Y-123190000D01*
X106680000Y-90170000D02*
X93980000Y-90170000D01*
X91440000Y-78740000D02*
X87630000Y-78740000D01*
X92710000Y-80010000D02*
X91440000Y-78740000D01*
X92710000Y-88900000D02*
X92710000Y-80010000D01*
X93980000Y-90170000D02*
X92710000Y-88900000D01*
X114300000Y-118110000D02*
X116840000Y-120650000D01*
X133350000Y-121920000D02*
X133350000Y-124460000D01*
X132080000Y-120650000D02*
X133350000Y-121920000D01*
X124460000Y-120650000D02*
X132080000Y-120650000D01*
X116840000Y-120650000D02*
X121920000Y-120650000D01*
X106680000Y-92710000D02*
X95250000Y-92710000D01*
X92710000Y-96520000D02*
X87630000Y-96520000D01*
X93980000Y-95250000D02*
X92710000Y-96520000D01*
X93980000Y-93980000D02*
X93980000Y-95250000D01*
X95250000Y-92710000D02*
X93980000Y-93980000D01*
X114300000Y-115570000D02*
X115570000Y-114300000D01*
X119380000Y-114300000D02*
X120650000Y-115570000D01*
X115570000Y-114300000D02*
X119380000Y-114300000D01*
X87630000Y-101600000D02*
X87630000Y-114300000D01*
X88900000Y-100330000D02*
X87630000Y-101600000D01*
X93980000Y-100330000D02*
X88900000Y-100330000D01*
X96520000Y-97790000D02*
X93980000Y-100330000D01*
X96520000Y-95250000D02*
X96520000Y-97790000D01*
X106680000Y-95250000D02*
X105410000Y-93980000D01*
X105410000Y-93980000D02*
X97790000Y-93980000D01*
X97790000Y-93980000D02*
X96520000Y-95250000D01*
X114300000Y-113030000D02*
X118110000Y-113030000D01*
X101600000Y-95250000D02*
X101600000Y-97790000D01*
X105410000Y-99060000D02*
X106680000Y-97790000D01*
X102870000Y-99060000D02*
X105410000Y-99060000D01*
X101600000Y-97790000D02*
X102870000Y-99060000D01*
X111760000Y-116840000D02*
X115570000Y-116840000D01*
X109220000Y-114300000D02*
X111760000Y-116840000D01*
X118110000Y-115570000D02*
X116840000Y-115570000D01*
X116840000Y-115570000D02*
X115570000Y-116840000D01*
X106680000Y-100330000D02*
X105410000Y-101600000D01*
X95250000Y-132080000D02*
X87630000Y-132080000D01*
X96520000Y-130810000D02*
X95250000Y-132080000D01*
X96520000Y-102870000D02*
X96520000Y-130810000D01*
X97790000Y-101600000D02*
X96520000Y-102870000D01*
X105410000Y-101600000D02*
X97790000Y-101600000D01*
X114300000Y-100330000D02*
X120650000Y-100330000D01*
X128270000Y-106680000D02*
X133350000Y-106680000D01*
X127000000Y-105410000D02*
X128270000Y-106680000D01*
X127000000Y-101600000D02*
X127000000Y-105410000D01*
X125730000Y-100330000D02*
X127000000Y-101600000D01*
X123190000Y-100330000D02*
X125730000Y-100330000D01*
X114300000Y-97790000D02*
X115570000Y-97790000D01*
X128270000Y-88900000D02*
X133350000Y-88900000D01*
X127000000Y-90170000D02*
X128270000Y-88900000D01*
X127000000Y-97790000D02*
X127000000Y-90170000D01*
X125730000Y-99060000D02*
X127000000Y-97790000D01*
X123190000Y-99060000D02*
X125730000Y-99060000D01*
X116840000Y-99060000D02*
X120650000Y-99060000D01*
X115570000Y-97790000D02*
X116840000Y-99060000D01*
X106680000Y-113030000D02*
X97790000Y-121920000D01*
X96520000Y-149860000D02*
X87630000Y-149860000D01*
X97790000Y-148590000D02*
X96520000Y-149860000D01*
X97790000Y-121920000D02*
X97790000Y-148590000D01*
X114300000Y-95250000D02*
X115570000Y-95250000D01*
X127000000Y-71120000D02*
X133350000Y-71120000D01*
X125730000Y-72390000D02*
X127000000Y-71120000D01*
X125730000Y-96520000D02*
X125730000Y-72390000D01*
X124460000Y-97790000D02*
X125730000Y-96520000D01*
X123190000Y-97790000D02*
X124460000Y-97790000D01*
X118110000Y-97790000D02*
X120650000Y-97790000D01*
X115570000Y-95250000D02*
X118110000Y-97790000D01*
X106680000Y-132080000D02*
X106680000Y-127000000D01*
X109220000Y-118110000D02*
X106680000Y-115570000D01*
X109220000Y-124460000D02*
X109220000Y-118110000D01*
X106680000Y-127000000D02*
X109220000Y-124460000D01*
X106680000Y-148590000D02*
X104140000Y-146050000D01*
X104140000Y-120650000D02*
X106680000Y-118110000D01*
X104140000Y-146050000D02*
X104140000Y-120650000D01*
X114300000Y-90170000D02*
X113030000Y-90170000D01*
X111760000Y-91440000D02*
X111760000Y-105410000D01*
X113030000Y-90170000D02*
X111760000Y-91440000D01*
X114300000Y-87630000D02*
X111760000Y-87630000D01*
X110490000Y-88900000D02*
X110490000Y-106680000D01*
X111760000Y-87630000D02*
X110490000Y-88900000D01*
X118110000Y-78740000D02*
X118110000Y-72390000D01*
X100330000Y-72390000D02*
X100330000Y-83820000D01*
X101600000Y-85090000D02*
X102870000Y-85090000D01*
X100330000Y-83820000D02*
X101600000Y-85090000D01*
X120650000Y-137160000D02*
X118110000Y-139700000D01*
X118110000Y-148590000D02*
X120650000Y-151130000D01*
X118110000Y-139700000D02*
X118110000Y-148590000D01*
X100330000Y-153670000D02*
X118110000Y-153670000D01*
X118110000Y-153670000D02*
X120650000Y-151130000D01*
X121920000Y-82550000D02*
X120650000Y-81280000D01*
X114300000Y-107950000D02*
X109220000Y-107950000D01*
X107950000Y-104140000D02*
X106680000Y-102870000D01*
X107950000Y-106680000D02*
X107950000Y-104140000D01*
X109220000Y-107950000D02*
X107950000Y-106680000D01*
X119380000Y-107950000D02*
X121920000Y-105410000D01*
X121920000Y-105410000D02*
X121920000Y-82550000D01*
X118110000Y-81280000D02*
X120650000Y-81280000D01*
X114300000Y-81280000D02*
X118110000Y-81280000D01*
X108890000Y-72390000D02*
X108890000Y-73330000D01*
X115570000Y-80010000D02*
X114300000Y-81280000D01*
X115570000Y-74930000D02*
X115570000Y-80010000D01*
X114300000Y-73660000D02*
X115570000Y-74930000D01*
X109220000Y-73660000D02*
X114300000Y-73660000D01*
X108890000Y-73330000D02*
X109220000Y-73660000D01*
X120650000Y-113030000D02*
X123190000Y-115570000D01*
X123190000Y-143510000D02*
X120650000Y-146050000D01*
X123190000Y-115570000D02*
X123190000Y-143510000D01*
X119380000Y-107950000D02*
X120650000Y-109220000D01*
X120650000Y-109220000D02*
X120650000Y-113030000D01*
X114300000Y-107950000D02*
X119380000Y-107950000D01*
X102870000Y-80010000D02*
X105410000Y-77470000D01*
X113030000Y-76200000D02*
X114300000Y-76200000D01*
X111760000Y-77470000D02*
X113030000Y-76200000D01*
X105410000Y-77470000D02*
X111760000Y-77470000D01*
X102870000Y-77470000D02*
X104140000Y-77470000D01*
X105410000Y-76200000D02*
X106680000Y-76200000D01*
X104140000Y-77470000D02*
X105410000Y-76200000D01*
X119380000Y-86360000D02*
X119380000Y-85090000D01*
X118110000Y-83820000D02*
X114300000Y-83820000D01*
X119380000Y-85090000D02*
X118110000Y-83820000D01*
X119380000Y-88900000D02*
X119380000Y-92710000D01*
X104140000Y-97790000D02*
X105410000Y-96520000D01*
X107950000Y-81280000D02*
X106680000Y-81280000D01*
X109220000Y-82550000D02*
X107950000Y-81280000D01*
X109220000Y-95250000D02*
X109220000Y-82550000D01*
X107950000Y-96520000D02*
X109220000Y-95250000D01*
X105410000Y-96520000D02*
X107950000Y-96520000D01*
D22*
G36*
X105219996Y-65805918D02*
X104955301Y-66443373D01*
X104954699Y-67133599D01*
X105218281Y-67771515D01*
X105705918Y-68260004D01*
X106343373Y-68524699D01*
X107033599Y-68525301D01*
X107671515Y-68261719D01*
X108160004Y-67774082D01*
X108424699Y-67136627D01*
X108425301Y-66446401D01*
X108161719Y-65808485D01*
X107808851Y-65455000D01*
X113171527Y-65455000D01*
X112819996Y-65805918D01*
X112555301Y-66443373D01*
X112554699Y-67133599D01*
X112818281Y-67771515D01*
X113305918Y-68260004D01*
X113943373Y-68524699D01*
X114633599Y-68525301D01*
X115271515Y-68261719D01*
X115760004Y-67774082D01*
X116024699Y-67136627D01*
X116025301Y-66446401D01*
X115761719Y-65808485D01*
X115408851Y-65455000D01*
X137745000Y-65455000D01*
X137745000Y-155525000D01*
X83235000Y-155525000D01*
X83235000Y-146591638D01*
X87434526Y-146591638D01*
X87850028Y-147597229D01*
X88618724Y-148367268D01*
X89623588Y-148784524D01*
X90711638Y-148785474D01*
X91717229Y-148369972D01*
X92487268Y-147601276D01*
X92904524Y-146596412D01*
X92905474Y-145508362D01*
X92489972Y-144502771D01*
X91721276Y-143732732D01*
X90716412Y-143315476D01*
X89628362Y-143314526D01*
X88622771Y-143730028D01*
X87852732Y-144498724D01*
X87435476Y-145503588D01*
X87434526Y-146591638D01*
X83235000Y-146591638D01*
X83235000Y-144662532D01*
X84117073Y-144662532D01*
X84215736Y-144929387D01*
X84825461Y-145155908D01*
X85475460Y-145131856D01*
X85964264Y-144929387D01*
X86062927Y-144662532D01*
X85090000Y-143689605D01*
X84117073Y-144662532D01*
X83235000Y-144662532D01*
X83235000Y-143245461D01*
X83444092Y-143245461D01*
X83468144Y-143895460D01*
X83670613Y-144384264D01*
X83937468Y-144482927D01*
X84910395Y-143510000D01*
X85269605Y-143510000D01*
X86242532Y-144482927D01*
X86509387Y-144384264D01*
X86735908Y-143774539D01*
X86711856Y-143124540D01*
X86509387Y-142635736D01*
X86242532Y-142537073D01*
X85269605Y-143510000D01*
X84910395Y-143510000D01*
X83937468Y-142537073D01*
X83670613Y-142635736D01*
X83444092Y-143245461D01*
X83235000Y-143245461D01*
X83235000Y-142357468D01*
X84117073Y-142357468D01*
X85090000Y-143330395D01*
X86062927Y-142357468D01*
X85964264Y-142090613D01*
X85354539Y-141864092D01*
X84704540Y-141888144D01*
X84215736Y-142090613D01*
X84117073Y-142357468D01*
X83235000Y-142357468D01*
X83235000Y-128811638D01*
X87434526Y-128811638D01*
X87850028Y-129817229D01*
X88618724Y-130587268D01*
X89623588Y-131004524D01*
X90711638Y-131005474D01*
X91717229Y-130589972D01*
X92487268Y-129821276D01*
X92904524Y-128816412D01*
X92905474Y-127728362D01*
X92489972Y-126722771D01*
X91721276Y-125952732D01*
X90716412Y-125535476D01*
X89628362Y-125534526D01*
X88622771Y-125950028D01*
X87852732Y-126718724D01*
X87435476Y-127723588D01*
X87434526Y-128811638D01*
X83235000Y-128811638D01*
X83235000Y-126882532D01*
X84117073Y-126882532D01*
X84215736Y-127149387D01*
X84825461Y-127375908D01*
X85475460Y-127351856D01*
X85964264Y-127149387D01*
X86062927Y-126882532D01*
X85090000Y-125909605D01*
X84117073Y-126882532D01*
X83235000Y-126882532D01*
X83235000Y-125465461D01*
X83444092Y-125465461D01*
X83468144Y-126115460D01*
X83670613Y-126604264D01*
X83937468Y-126702927D01*
X84910395Y-125730000D01*
X85269605Y-125730000D01*
X86242532Y-126702927D01*
X86509387Y-126604264D01*
X86735908Y-125994539D01*
X86711856Y-125344540D01*
X86509387Y-124855736D01*
X86242532Y-124757073D01*
X85269605Y-125730000D01*
X84910395Y-125730000D01*
X83937468Y-124757073D01*
X83670613Y-124855736D01*
X83444092Y-125465461D01*
X83235000Y-125465461D01*
X83235000Y-124577468D01*
X84117073Y-124577468D01*
X85090000Y-125550395D01*
X86062927Y-124577468D01*
X85964264Y-124310613D01*
X85354539Y-124084092D01*
X84704540Y-124108144D01*
X84215736Y-124310613D01*
X84117073Y-124577468D01*
X83235000Y-124577468D01*
X83235000Y-109102532D01*
X84117073Y-109102532D01*
X84215736Y-109369387D01*
X84825461Y-109595908D01*
X85475460Y-109571856D01*
X85964264Y-109369387D01*
X86062927Y-109102532D01*
X85090000Y-108129605D01*
X84117073Y-109102532D01*
X83235000Y-109102532D01*
X83235000Y-107685461D01*
X83444092Y-107685461D01*
X83468144Y-108335460D01*
X83670613Y-108824264D01*
X83937468Y-108922927D01*
X84910395Y-107950000D01*
X85269605Y-107950000D01*
X86242532Y-108922927D01*
X86509387Y-108824264D01*
X86735908Y-108214539D01*
X86711856Y-107564540D01*
X86509387Y-107075736D01*
X86242532Y-106977073D01*
X85269605Y-107950000D01*
X84910395Y-107950000D01*
X83937468Y-106977073D01*
X83670613Y-107075736D01*
X83444092Y-107685461D01*
X83235000Y-107685461D01*
X83235000Y-106797468D01*
X84117073Y-106797468D01*
X85090000Y-107770395D01*
X86062927Y-106797468D01*
X85964264Y-106530613D01*
X85354539Y-106304092D01*
X84704540Y-106328144D01*
X84215736Y-106530613D01*
X84117073Y-106797468D01*
X83235000Y-106797468D01*
X83235000Y-93251638D01*
X87434526Y-93251638D01*
X87850028Y-94257229D01*
X88618724Y-95027268D01*
X89623588Y-95444524D01*
X90711638Y-95445474D01*
X91717229Y-95029972D01*
X92487268Y-94261276D01*
X92904524Y-93256412D01*
X92905474Y-92168362D01*
X92489972Y-91162771D01*
X91721276Y-90392732D01*
X90716412Y-89975476D01*
X89628362Y-89974526D01*
X88622771Y-90390028D01*
X87852732Y-91158724D01*
X87435476Y-92163588D01*
X87434526Y-93251638D01*
X83235000Y-93251638D01*
X83235000Y-91322532D01*
X84117073Y-91322532D01*
X84215736Y-91589387D01*
X84825461Y-91815908D01*
X85475460Y-91791856D01*
X85964264Y-91589387D01*
X86062927Y-91322532D01*
X85090000Y-90349605D01*
X84117073Y-91322532D01*
X83235000Y-91322532D01*
X83235000Y-89905461D01*
X83444092Y-89905461D01*
X83468144Y-90555460D01*
X83670613Y-91044264D01*
X83937468Y-91142927D01*
X84910395Y-90170000D01*
X85269605Y-90170000D01*
X86242532Y-91142927D01*
X86509387Y-91044264D01*
X86735908Y-90434539D01*
X86711856Y-89784540D01*
X86509387Y-89295736D01*
X86242532Y-89197073D01*
X85269605Y-90170000D01*
X84910395Y-90170000D01*
X83937468Y-89197073D01*
X83670613Y-89295736D01*
X83444092Y-89905461D01*
X83235000Y-89905461D01*
X83235000Y-89017468D01*
X84117073Y-89017468D01*
X85090000Y-89990395D01*
X86062927Y-89017468D01*
X85964264Y-88750613D01*
X85354539Y-88524092D01*
X84704540Y-88548144D01*
X84215736Y-88750613D01*
X84117073Y-89017468D01*
X83235000Y-89017468D01*
X83235000Y-79063795D01*
X85994716Y-79063795D01*
X86243106Y-79664943D01*
X86702637Y-80125278D01*
X87303352Y-80374716D01*
X87953795Y-80375284D01*
X88554943Y-80126894D01*
X89015278Y-79667363D01*
X89084773Y-79500000D01*
X91125198Y-79500000D01*
X91950000Y-80324802D01*
X91950000Y-88900000D01*
X92007852Y-89190839D01*
X92172599Y-89437401D01*
X93442599Y-90707401D01*
X93689160Y-90872148D01*
X93980000Y-90930000D01*
X105467005Y-90930000D01*
X105637189Y-91184698D01*
X106019275Y-91440000D01*
X105637189Y-91695302D01*
X105467005Y-91950000D01*
X95250000Y-91950000D01*
X94959160Y-92007852D01*
X94712599Y-92172599D01*
X93442599Y-93442599D01*
X93277852Y-93689161D01*
X93220000Y-93980000D01*
X93220000Y-94935198D01*
X92395198Y-95760000D01*
X89085047Y-95760000D01*
X89016894Y-95595057D01*
X88557363Y-95134722D01*
X87956648Y-94885284D01*
X87306205Y-94884716D01*
X86705057Y-95133106D01*
X86244722Y-95592637D01*
X85995284Y-96193352D01*
X85994716Y-96843795D01*
X86243106Y-97444943D01*
X86702637Y-97905278D01*
X87303352Y-98154716D01*
X87953795Y-98155284D01*
X88554943Y-97906894D01*
X89015278Y-97447363D01*
X89084773Y-97280000D01*
X92710000Y-97280000D01*
X93000839Y-97222148D01*
X93247401Y-97057401D01*
X94517401Y-95787401D01*
X94682148Y-95540840D01*
X94740000Y-95250000D01*
X94740000Y-94294802D01*
X95564802Y-93470000D01*
X97225198Y-93470000D01*
X95982599Y-94712599D01*
X95817852Y-94959161D01*
X95760000Y-95250000D01*
X95760000Y-97475198D01*
X93665198Y-99570000D01*
X88900000Y-99570000D01*
X88609160Y-99627852D01*
X88362599Y-99792599D01*
X87092599Y-101062599D01*
X86927852Y-101309161D01*
X86870000Y-101600000D01*
X86870000Y-112844953D01*
X86705057Y-112913106D01*
X86244722Y-113372637D01*
X85995284Y-113973352D01*
X85994716Y-114623795D01*
X86243106Y-115224943D01*
X86702637Y-115685278D01*
X87303352Y-115934716D01*
X87953795Y-115935284D01*
X88554943Y-115686894D01*
X89015278Y-115227363D01*
X89264716Y-114626648D01*
X89265284Y-113976205D01*
X89016894Y-113375057D01*
X88557363Y-112914722D01*
X88390000Y-112845227D01*
X88390000Y-112578144D01*
X88618724Y-112807268D01*
X89623588Y-113224524D01*
X90711638Y-113225474D01*
X91717229Y-112809972D01*
X92487268Y-112041276D01*
X92904524Y-111036412D01*
X92905474Y-109948362D01*
X92489972Y-108942771D01*
X91721276Y-108172732D01*
X90716412Y-107755476D01*
X89628362Y-107754526D01*
X88622771Y-108170028D01*
X88390000Y-108402393D01*
X88390000Y-101914802D01*
X89214802Y-101090000D01*
X93980000Y-101090000D01*
X94270839Y-101032148D01*
X94517401Y-100867401D01*
X97057401Y-98327401D01*
X97222148Y-98080840D01*
X97242843Y-97976799D01*
X97280000Y-97790000D01*
X97280000Y-95564802D01*
X98104802Y-94740000D01*
X100442048Y-94740000D01*
X100335220Y-94997272D01*
X100334781Y-95500520D01*
X100526960Y-95965629D01*
X100840000Y-96279217D01*
X100840000Y-97790000D01*
X100897852Y-98080839D01*
X101062599Y-98327401D01*
X101793514Y-99058316D01*
X101776140Y-99052300D01*
X101273778Y-99082154D01*
X100948313Y-99216966D01*
X100895099Y-99445494D01*
X101600000Y-100150395D01*
X101614143Y-100136253D01*
X101793748Y-100315858D01*
X101779605Y-100330000D01*
X101793748Y-100344143D01*
X101614143Y-100523748D01*
X101600000Y-100509605D01*
X101585858Y-100523748D01*
X101406253Y-100344143D01*
X101420395Y-100330000D01*
X100715494Y-99625099D01*
X100486966Y-99678313D01*
X100322300Y-100153860D01*
X100352154Y-100656222D01*
X100428277Y-100840000D01*
X97790000Y-100840000D01*
X97499160Y-100897852D01*
X97252599Y-101062599D01*
X95982599Y-102332599D01*
X95817852Y-102579161D01*
X95760000Y-102870000D01*
X95760000Y-130495198D01*
X94935198Y-131320000D01*
X89085047Y-131320000D01*
X89016894Y-131155057D01*
X88557363Y-130694722D01*
X87956648Y-130445284D01*
X87306205Y-130444716D01*
X86705057Y-130693106D01*
X86244722Y-131152637D01*
X85995284Y-131753352D01*
X85994716Y-132403795D01*
X86243106Y-133004943D01*
X86702637Y-133465278D01*
X87303352Y-133714716D01*
X87953795Y-133715284D01*
X88554943Y-133466894D01*
X89015278Y-133007363D01*
X89084773Y-132840000D01*
X95250000Y-132840000D01*
X95540839Y-132782148D01*
X95787401Y-132617401D01*
X97030000Y-131374802D01*
X97030000Y-148275198D01*
X96205198Y-149100000D01*
X89085047Y-149100000D01*
X89016894Y-148935057D01*
X88557363Y-148474722D01*
X87956648Y-148225284D01*
X87306205Y-148224716D01*
X86705057Y-148473106D01*
X86244722Y-148932637D01*
X85995284Y-149533352D01*
X85994716Y-150183795D01*
X86243106Y-150784943D01*
X86702637Y-151245278D01*
X87303352Y-151494716D01*
X87953795Y-151495284D01*
X88554943Y-151246894D01*
X89015278Y-150787363D01*
X89084773Y-150620000D01*
X96520000Y-150620000D01*
X96810839Y-150562148D01*
X97057401Y-150397401D01*
X98327401Y-149127401D01*
X98492148Y-148880840D01*
X98550000Y-148590000D01*
X98550000Y-146050000D01*
X98815907Y-146050000D01*
X98928946Y-146618285D01*
X99250853Y-147100054D01*
X99580026Y-147320000D01*
X99250853Y-147539946D01*
X98928946Y-148021715D01*
X98815907Y-148590000D01*
X98928946Y-149158285D01*
X99250853Y-149640054D01*
X99591553Y-149867702D01*
X99448642Y-149934817D01*
X99058355Y-150363076D01*
X98888524Y-150773110D01*
X99009845Y-151003000D01*
X100203000Y-151003000D01*
X100203000Y-150983000D01*
X100457000Y-150983000D01*
X100457000Y-151003000D01*
X101650155Y-151003000D01*
X101722739Y-150865461D01*
X111384092Y-150865461D01*
X111408144Y-151515460D01*
X111610613Y-152004264D01*
X111877468Y-152102927D01*
X112850395Y-151130000D01*
X113209605Y-151130000D01*
X114182532Y-152102927D01*
X114449387Y-152004264D01*
X114675908Y-151394539D01*
X114651856Y-150744540D01*
X114449387Y-150255736D01*
X114182532Y-150157073D01*
X113209605Y-151130000D01*
X112850395Y-151130000D01*
X111877468Y-150157073D01*
X111610613Y-150255736D01*
X111384092Y-150865461D01*
X101722739Y-150865461D01*
X101771476Y-150773110D01*
X101601645Y-150363076D01*
X101211358Y-149934817D01*
X101068447Y-149867702D01*
X101409147Y-149640054D01*
X101731054Y-149158285D01*
X101844093Y-148590000D01*
X101731054Y-148021715D01*
X101409147Y-147539946D01*
X101079974Y-147320000D01*
X101409147Y-147100054D01*
X101731054Y-146618285D01*
X101844093Y-146050000D01*
X101731054Y-145481715D01*
X101409147Y-144999946D01*
X100927378Y-144678039D01*
X100359093Y-144565000D01*
X100300907Y-144565000D01*
X99732622Y-144678039D01*
X99250853Y-144999946D01*
X98928946Y-145481715D01*
X98815907Y-146050000D01*
X98550000Y-146050000D01*
X98550000Y-122234802D01*
X105217405Y-115567397D01*
X105216887Y-115570000D01*
X105326120Y-116119151D01*
X105637189Y-116584698D01*
X106019275Y-116840000D01*
X105637189Y-117095302D01*
X105326120Y-117560849D01*
X105216887Y-118110000D01*
X105281312Y-118433886D01*
X103602599Y-120112599D01*
X103437852Y-120359161D01*
X103380000Y-120650000D01*
X103380000Y-146050000D01*
X103437852Y-146340839D01*
X103602599Y-146587401D01*
X105113725Y-148098527D01*
X105045284Y-148263352D01*
X105044716Y-148913795D01*
X105293106Y-149514943D01*
X105752637Y-149975278D01*
X106353352Y-150224716D01*
X107003795Y-150225284D01*
X107603553Y-149977468D01*
X112057073Y-149977468D01*
X113030000Y-150950395D01*
X114002927Y-149977468D01*
X113904264Y-149710613D01*
X113294539Y-149484092D01*
X112644540Y-149508144D01*
X112155736Y-149710613D01*
X112057073Y-149977468D01*
X107603553Y-149977468D01*
X107604943Y-149976894D01*
X108065278Y-149517363D01*
X108314716Y-148916648D01*
X108315284Y-148266205D01*
X108066894Y-147665057D01*
X107607363Y-147204722D01*
X107006648Y-146955284D01*
X106356205Y-146954716D01*
X106188721Y-147023919D01*
X105756440Y-146591638D01*
X107754526Y-146591638D01*
X108170028Y-147597229D01*
X108938724Y-148367268D01*
X109943588Y-148784524D01*
X111031638Y-148785474D01*
X112037229Y-148369972D01*
X112807268Y-147601276D01*
X113224524Y-146596412D01*
X113225474Y-145508362D01*
X112809972Y-144502771D01*
X112041276Y-143732732D01*
X111036412Y-143315476D01*
X109948362Y-143314526D01*
X108942771Y-143730028D01*
X108172732Y-144498724D01*
X107755476Y-145503588D01*
X107754526Y-146591638D01*
X105756440Y-146591638D01*
X104900000Y-145735198D01*
X104900000Y-135772532D01*
X112057073Y-135772532D01*
X112155736Y-136039387D01*
X112765461Y-136265908D01*
X113415460Y-136241856D01*
X113904264Y-136039387D01*
X114002927Y-135772532D01*
X113030000Y-134799605D01*
X112057073Y-135772532D01*
X104900000Y-135772532D01*
X104900000Y-134355461D01*
X111384092Y-134355461D01*
X111408144Y-135005460D01*
X111610613Y-135494264D01*
X111877468Y-135592927D01*
X112850395Y-134620000D01*
X113209605Y-134620000D01*
X114182532Y-135592927D01*
X114449387Y-135494264D01*
X114675908Y-134884539D01*
X114652914Y-134263110D01*
X119208524Y-134263110D01*
X119329845Y-134493000D01*
X120523000Y-134493000D01*
X120523000Y-133299181D01*
X120777000Y-133299181D01*
X120777000Y-134493000D01*
X121970155Y-134493000D01*
X122091476Y-134263110D01*
X121921645Y-133853076D01*
X121531358Y-133424817D01*
X121006892Y-133178514D01*
X120777000Y-133299181D01*
X120523000Y-133299181D01*
X120293108Y-133178514D01*
X119768642Y-133424817D01*
X119378355Y-133853076D01*
X119208524Y-134263110D01*
X114652914Y-134263110D01*
X114651856Y-134234540D01*
X114449387Y-133745736D01*
X114182532Y-133647073D01*
X113209605Y-134620000D01*
X112850395Y-134620000D01*
X111877468Y-133647073D01*
X111610613Y-133745736D01*
X111384092Y-134355461D01*
X104900000Y-134355461D01*
X104900000Y-120964802D01*
X105217405Y-120647397D01*
X105216887Y-120650000D01*
X105326120Y-121199151D01*
X105637189Y-121664698D01*
X106102736Y-121975767D01*
X106651887Y-122085000D01*
X106708113Y-122085000D01*
X107257264Y-121975767D01*
X107722811Y-121664698D01*
X108033880Y-121199151D01*
X108143113Y-120650000D01*
X108033880Y-120100849D01*
X107722811Y-119635302D01*
X107340725Y-119380000D01*
X107722811Y-119124698D01*
X108033880Y-118659151D01*
X108143113Y-118110000D01*
X108142595Y-118107397D01*
X108460000Y-118424802D01*
X108460000Y-124145198D01*
X106142599Y-126462599D01*
X105977852Y-126709161D01*
X105920000Y-127000000D01*
X105920000Y-130624953D01*
X105755057Y-130693106D01*
X105294722Y-131152637D01*
X105045284Y-131753352D01*
X105044716Y-132403795D01*
X105293106Y-133004943D01*
X105752637Y-133465278D01*
X106353352Y-133714716D01*
X107003795Y-133715284D01*
X107603553Y-133467468D01*
X112057073Y-133467468D01*
X113030000Y-134440395D01*
X114002927Y-133467468D01*
X113904264Y-133200613D01*
X113294539Y-132974092D01*
X112644540Y-132998144D01*
X112155736Y-133200613D01*
X112057073Y-133467468D01*
X107603553Y-133467468D01*
X107604943Y-133466894D01*
X108065278Y-133007363D01*
X108314716Y-132406648D01*
X108315284Y-131756205D01*
X108066894Y-131155057D01*
X107607363Y-130694722D01*
X107440000Y-130625227D01*
X107440000Y-130081638D01*
X107754526Y-130081638D01*
X108170028Y-131087229D01*
X108938724Y-131857268D01*
X109943588Y-132274524D01*
X111031638Y-132275474D01*
X112037229Y-131859972D01*
X112807268Y-131091276D01*
X113224524Y-130086412D01*
X113225474Y-128998362D01*
X112809972Y-127992771D01*
X112041276Y-127222732D01*
X111036412Y-126805476D01*
X109948362Y-126804526D01*
X108942771Y-127220028D01*
X108172732Y-127988724D01*
X107755476Y-128993588D01*
X107754526Y-130081638D01*
X107440000Y-130081638D01*
X107440000Y-127314802D01*
X109757401Y-124997401D01*
X109922148Y-124750840D01*
X109931746Y-124702586D01*
X109980000Y-124460000D01*
X109980000Y-118110000D01*
X109922148Y-117819161D01*
X109922148Y-117819160D01*
X109757401Y-117572599D01*
X108078688Y-115893886D01*
X108143113Y-115570000D01*
X108033880Y-115020849D01*
X107722811Y-114555302D01*
X107340725Y-114300000D01*
X107722811Y-114044698D01*
X108033880Y-113579151D01*
X108143113Y-113030000D01*
X108033880Y-112480849D01*
X107722811Y-112015302D01*
X107340725Y-111760000D01*
X107722811Y-111504698D01*
X108033880Y-111039151D01*
X108143113Y-110490000D01*
X108033880Y-109940849D01*
X107722811Y-109475302D01*
X107340725Y-109220000D01*
X107722811Y-108964698D01*
X108033880Y-108499151D01*
X108143113Y-107950000D01*
X108142595Y-107947397D01*
X108682599Y-108487401D01*
X108929160Y-108652148D01*
X109220000Y-108710000D01*
X113087005Y-108710000D01*
X113257189Y-108964698D01*
X113639275Y-109220000D01*
X113257189Y-109475302D01*
X112946120Y-109940849D01*
X112836887Y-110490000D01*
X112946120Y-111039151D01*
X113257189Y-111504698D01*
X113639275Y-111760000D01*
X113257189Y-112015302D01*
X112946120Y-112480849D01*
X112836887Y-113030000D01*
X112946120Y-113579151D01*
X113257189Y-114044698D01*
X113639275Y-114300000D01*
X113257189Y-114555302D01*
X112946120Y-115020849D01*
X112836887Y-115570000D01*
X112938332Y-116080000D01*
X112074802Y-116080000D01*
X110155122Y-114160320D01*
X110155162Y-114114833D01*
X110013117Y-113771057D01*
X109750327Y-113507808D01*
X109406799Y-113365162D01*
X109034833Y-113364838D01*
X108691057Y-113506883D01*
X108427808Y-113769673D01*
X108285162Y-114113201D01*
X108284838Y-114485167D01*
X108426883Y-114828943D01*
X108689673Y-115092192D01*
X109033201Y-115234838D01*
X109080077Y-115234879D01*
X111222599Y-117377401D01*
X111469160Y-117542148D01*
X111517414Y-117551746D01*
X111760000Y-117600000D01*
X112938332Y-117600000D01*
X112836887Y-118110000D01*
X112946120Y-118659151D01*
X113257189Y-119124698D01*
X113639275Y-119380000D01*
X113257189Y-119635302D01*
X112946120Y-120100849D01*
X112836887Y-120650000D01*
X112946120Y-121199151D01*
X113257189Y-121664698D01*
X113722736Y-121975767D01*
X114271887Y-122085000D01*
X114328113Y-122085000D01*
X114605102Y-122029904D01*
X116302599Y-123727401D01*
X116549160Y-123892148D01*
X116597414Y-123901746D01*
X116840000Y-123950000D01*
X121357537Y-123950000D01*
X121389673Y-123982192D01*
X121733201Y-124124838D01*
X122105167Y-124125162D01*
X122430000Y-123990944D01*
X122430000Y-143195198D01*
X120996969Y-144628229D01*
X120679093Y-144565000D01*
X120620907Y-144565000D01*
X120052622Y-144678039D01*
X119570853Y-144999946D01*
X119248946Y-145481715D01*
X119135907Y-146050000D01*
X119248946Y-146618285D01*
X119570853Y-147100054D01*
X119911553Y-147327702D01*
X119768642Y-147394817D01*
X119378355Y-147823076D01*
X119208524Y-148233110D01*
X119329844Y-148462998D01*
X119165000Y-148462998D01*
X119165000Y-148570198D01*
X118870000Y-148275198D01*
X118870000Y-140014802D01*
X120227362Y-138657440D01*
X121500000Y-138657440D01*
X121735317Y-138613162D01*
X121951441Y-138474090D01*
X122096431Y-138261890D01*
X122147440Y-138010000D01*
X122147440Y-136310000D01*
X122103162Y-136074683D01*
X121964090Y-135858559D01*
X121751890Y-135713569D01*
X121643893Y-135691699D01*
X121921645Y-135386924D01*
X122091476Y-134976890D01*
X121970155Y-134747000D01*
X120777000Y-134747000D01*
X120777000Y-134767000D01*
X120523000Y-134767000D01*
X120523000Y-134747000D01*
X119329845Y-134747000D01*
X119208524Y-134976890D01*
X119378355Y-135386924D01*
X119654501Y-135689937D01*
X119564683Y-135706838D01*
X119348559Y-135845910D01*
X119203569Y-136058110D01*
X119152560Y-136310000D01*
X119152560Y-137582638D01*
X117572599Y-139162599D01*
X117407852Y-139409161D01*
X117350000Y-139700000D01*
X117350000Y-148590000D01*
X117407852Y-148880839D01*
X117572599Y-149127401D01*
X119152560Y-150707362D01*
X119152560Y-151552638D01*
X117795198Y-152910000D01*
X101827440Y-152910000D01*
X101827440Y-152820000D01*
X101783162Y-152584683D01*
X101644090Y-152368559D01*
X101518186Y-152282532D01*
X112057073Y-152282532D01*
X112155736Y-152549387D01*
X112765461Y-152775908D01*
X113415460Y-152751856D01*
X113904264Y-152549387D01*
X114002927Y-152282532D01*
X113030000Y-151309605D01*
X112057073Y-152282532D01*
X101518186Y-152282532D01*
X101431890Y-152223569D01*
X101323893Y-152201699D01*
X101601645Y-151896924D01*
X101771476Y-151486890D01*
X101650155Y-151257000D01*
X100457000Y-151257000D01*
X100457000Y-151277000D01*
X100203000Y-151277000D01*
X100203000Y-151257000D01*
X99009845Y-151257000D01*
X98888524Y-151486890D01*
X99058355Y-151896924D01*
X99334501Y-152199937D01*
X99244683Y-152216838D01*
X99028559Y-152355910D01*
X98883569Y-152568110D01*
X98832560Y-152820000D01*
X98832560Y-154520000D01*
X98876838Y-154755317D01*
X99015910Y-154971441D01*
X99228110Y-155116431D01*
X99480000Y-155167440D01*
X101180000Y-155167440D01*
X101415317Y-155123162D01*
X101631441Y-154984090D01*
X101776431Y-154771890D01*
X101827440Y-154520000D01*
X101827440Y-154430000D01*
X118110000Y-154430000D01*
X118400839Y-154372148D01*
X118647401Y-154207401D01*
X120227362Y-152627440D01*
X121500000Y-152627440D01*
X121735317Y-152583162D01*
X121951441Y-152444090D01*
X122096431Y-152231890D01*
X122147440Y-151980000D01*
X122147440Y-150280000D01*
X122103162Y-150044683D01*
X121964090Y-149828559D01*
X121838186Y-149742532D01*
X134917073Y-149742532D01*
X135015736Y-150009387D01*
X135625461Y-150235908D01*
X136275460Y-150211856D01*
X136764264Y-150009387D01*
X136862927Y-149742532D01*
X135890000Y-148769605D01*
X134917073Y-149742532D01*
X121838186Y-149742532D01*
X121751890Y-149683569D01*
X121643893Y-149661699D01*
X121921645Y-149356924D01*
X122091476Y-148946890D01*
X121970155Y-148717000D01*
X120777000Y-148717000D01*
X120777000Y-148737000D01*
X120523000Y-148737000D01*
X120523000Y-148717000D01*
X120503000Y-148717000D01*
X120503000Y-148463000D01*
X120523000Y-148463000D01*
X120523000Y-148443000D01*
X120777000Y-148443000D01*
X120777000Y-148463000D01*
X121970155Y-148463000D01*
X122091476Y-148233110D01*
X121921645Y-147823076D01*
X121531358Y-147394817D01*
X121388447Y-147327702D01*
X121729147Y-147100054D01*
X122051054Y-146618285D01*
X122056354Y-146591638D01*
X128074526Y-146591638D01*
X128490028Y-147597229D01*
X129258724Y-148367268D01*
X130263588Y-148784524D01*
X131351638Y-148785474D01*
X132357229Y-148369972D01*
X132401817Y-148325461D01*
X134244092Y-148325461D01*
X134268144Y-148975460D01*
X134470613Y-149464264D01*
X134737468Y-149562927D01*
X135710395Y-148590000D01*
X136069605Y-148590000D01*
X137042532Y-149562927D01*
X137309387Y-149464264D01*
X137535908Y-148854539D01*
X137511856Y-148204540D01*
X137309387Y-147715736D01*
X137042532Y-147617073D01*
X136069605Y-148590000D01*
X135710395Y-148590000D01*
X134737468Y-147617073D01*
X134470613Y-147715736D01*
X134244092Y-148325461D01*
X132401817Y-148325461D01*
X133127268Y-147601276D01*
X133195287Y-147437468D01*
X134917073Y-147437468D01*
X135890000Y-148410395D01*
X136862927Y-147437468D01*
X136764264Y-147170613D01*
X136154539Y-146944092D01*
X135504540Y-146968144D01*
X135015736Y-147170613D01*
X134917073Y-147437468D01*
X133195287Y-147437468D01*
X133544524Y-146596412D01*
X133545474Y-145508362D01*
X133129972Y-144502771D01*
X132361276Y-143732732D01*
X131356412Y-143315476D01*
X130268362Y-143314526D01*
X129262771Y-143730028D01*
X128492732Y-144498724D01*
X128075476Y-145503588D01*
X128074526Y-146591638D01*
X122056354Y-146591638D01*
X122164093Y-146050000D01*
X122091210Y-145683592D01*
X123727401Y-144047401D01*
X123892148Y-143800840D01*
X123926748Y-143626894D01*
X123950000Y-143510000D01*
X123950000Y-123990633D01*
X124273201Y-124124838D01*
X124645167Y-124125162D01*
X124988943Y-123983117D01*
X125022118Y-123950000D01*
X125415198Y-123950000D01*
X126240000Y-124774802D01*
X126240000Y-140970000D01*
X126297852Y-141260839D01*
X126462599Y-141507401D01*
X127732599Y-142777401D01*
X127979160Y-142942148D01*
X128270000Y-143000000D01*
X131894953Y-143000000D01*
X131963106Y-143164943D01*
X132422637Y-143625278D01*
X133023352Y-143874716D01*
X133673795Y-143875284D01*
X134274943Y-143626894D01*
X134735278Y-143167363D01*
X134984716Y-142566648D01*
X134985284Y-141916205D01*
X134736894Y-141315057D01*
X134277363Y-140854722D01*
X133676648Y-140605284D01*
X133026205Y-140604716D01*
X132425057Y-140853106D01*
X131964722Y-141312637D01*
X131895227Y-141480000D01*
X128584802Y-141480000D01*
X127760000Y-140655198D01*
X127760000Y-131962532D01*
X134917073Y-131962532D01*
X135015736Y-132229387D01*
X135625461Y-132455908D01*
X136275460Y-132431856D01*
X136764264Y-132229387D01*
X136862927Y-131962532D01*
X135890000Y-130989605D01*
X134917073Y-131962532D01*
X127760000Y-131962532D01*
X127760000Y-128811638D01*
X128074526Y-128811638D01*
X128490028Y-129817229D01*
X129258724Y-130587268D01*
X130263588Y-131004524D01*
X131351638Y-131005474D01*
X132357229Y-130589972D01*
X132401817Y-130545461D01*
X134244092Y-130545461D01*
X134268144Y-131195460D01*
X134470613Y-131684264D01*
X134737468Y-131782927D01*
X135710395Y-130810000D01*
X136069605Y-130810000D01*
X137042532Y-131782927D01*
X137309387Y-131684264D01*
X137535908Y-131074539D01*
X137511856Y-130424540D01*
X137309387Y-129935736D01*
X137042532Y-129837073D01*
X136069605Y-130810000D01*
X135710395Y-130810000D01*
X134737468Y-129837073D01*
X134470613Y-129935736D01*
X134244092Y-130545461D01*
X132401817Y-130545461D01*
X133127268Y-129821276D01*
X133195287Y-129657468D01*
X134917073Y-129657468D01*
X135890000Y-130630395D01*
X136862927Y-129657468D01*
X136764264Y-129390613D01*
X136154539Y-129164092D01*
X135504540Y-129188144D01*
X135015736Y-129390613D01*
X134917073Y-129657468D01*
X133195287Y-129657468D01*
X133544524Y-128816412D01*
X133545474Y-127728362D01*
X133129972Y-126722771D01*
X132361276Y-125952732D01*
X131356412Y-125535476D01*
X130268362Y-125534526D01*
X129262771Y-125950028D01*
X128492732Y-126718724D01*
X128075476Y-127723588D01*
X128074526Y-128811638D01*
X127760000Y-128811638D01*
X127760000Y-124460000D01*
X127702148Y-124169161D01*
X127702148Y-124169160D01*
X127537401Y-123922599D01*
X126267401Y-122652599D01*
X126020839Y-122487852D01*
X125730000Y-122430000D01*
X125022463Y-122430000D01*
X124990327Y-122397808D01*
X124646799Y-122255162D01*
X124274833Y-122254838D01*
X123950000Y-122389056D01*
X123950000Y-121450633D01*
X124273201Y-121584838D01*
X124645167Y-121585162D01*
X124988943Y-121443117D01*
X125022118Y-121410000D01*
X131765198Y-121410000D01*
X132590000Y-122234802D01*
X132590000Y-123004953D01*
X132425057Y-123073106D01*
X131964722Y-123532637D01*
X131715284Y-124133352D01*
X131714716Y-124783795D01*
X131963106Y-125384943D01*
X132422637Y-125845278D01*
X133023352Y-126094716D01*
X133673795Y-126095284D01*
X134274943Y-125846894D01*
X134735278Y-125387363D01*
X134984716Y-124786648D01*
X134985284Y-124136205D01*
X134736894Y-123535057D01*
X134277363Y-123074722D01*
X134110000Y-123005227D01*
X134110000Y-121920000D01*
X134052148Y-121629161D01*
X134052148Y-121629160D01*
X133887401Y-121382599D01*
X132617401Y-120112599D01*
X132370839Y-119947852D01*
X132080000Y-119890000D01*
X125022463Y-119890000D01*
X124990327Y-119857808D01*
X124646799Y-119715162D01*
X124274833Y-119714838D01*
X123950000Y-119849056D01*
X123950000Y-115570000D01*
X123892148Y-115279161D01*
X123892148Y-115279160D01*
X123727401Y-115032599D01*
X122877334Y-114182532D01*
X134917073Y-114182532D01*
X135015736Y-114449387D01*
X135625461Y-114675908D01*
X136275460Y-114651856D01*
X136764264Y-114449387D01*
X136862927Y-114182532D01*
X135890000Y-113209605D01*
X134917073Y-114182532D01*
X122877334Y-114182532D01*
X122091210Y-113396408D01*
X122164093Y-113030000D01*
X122051054Y-112461715D01*
X121729147Y-111979946D01*
X121410000Y-111766699D01*
X121410000Y-111031638D01*
X128074526Y-111031638D01*
X128490028Y-112037229D01*
X129258724Y-112807268D01*
X130263588Y-113224524D01*
X131351638Y-113225474D01*
X132357229Y-112809972D01*
X132401817Y-112765461D01*
X134244092Y-112765461D01*
X134268144Y-113415460D01*
X134470613Y-113904264D01*
X134737468Y-114002927D01*
X135710395Y-113030000D01*
X136069605Y-113030000D01*
X137042532Y-114002927D01*
X137309387Y-113904264D01*
X137535908Y-113294539D01*
X137511856Y-112644540D01*
X137309387Y-112155736D01*
X137042532Y-112057073D01*
X136069605Y-113030000D01*
X135710395Y-113030000D01*
X134737468Y-112057073D01*
X134470613Y-112155736D01*
X134244092Y-112765461D01*
X132401817Y-112765461D01*
X133127268Y-112041276D01*
X133195287Y-111877468D01*
X134917073Y-111877468D01*
X135890000Y-112850395D01*
X136862927Y-111877468D01*
X136764264Y-111610613D01*
X136154539Y-111384092D01*
X135504540Y-111408144D01*
X135015736Y-111610613D01*
X134917073Y-111877468D01*
X133195287Y-111877468D01*
X133544524Y-111036412D01*
X133545474Y-109948362D01*
X133129972Y-108942771D01*
X132361276Y-108172732D01*
X131356412Y-107755476D01*
X130268362Y-107754526D01*
X129262771Y-108170028D01*
X128492732Y-108938724D01*
X128075476Y-109943588D01*
X128074526Y-111031638D01*
X121410000Y-111031638D01*
X121410000Y-109220000D01*
X121352148Y-108929161D01*
X121352148Y-108929160D01*
X121187401Y-108682599D01*
X120877440Y-108372638D01*
X120877440Y-107527362D01*
X122457401Y-105947401D01*
X122622148Y-105700840D01*
X122642843Y-105596799D01*
X122680000Y-105410000D01*
X122680000Y-101130633D01*
X123003201Y-101264838D01*
X123375167Y-101265162D01*
X123718943Y-101123117D01*
X123752118Y-101090000D01*
X125415198Y-101090000D01*
X126240000Y-101914802D01*
X126240000Y-105410000D01*
X126297852Y-105700839D01*
X126462599Y-105947401D01*
X127732599Y-107217401D01*
X127979160Y-107382148D01*
X128270000Y-107440000D01*
X131894953Y-107440000D01*
X131963106Y-107604943D01*
X132422637Y-108065278D01*
X133023352Y-108314716D01*
X133673795Y-108315284D01*
X134274943Y-108066894D01*
X134735278Y-107607363D01*
X134984716Y-107006648D01*
X134985284Y-106356205D01*
X134736894Y-105755057D01*
X134277363Y-105294722D01*
X133676648Y-105045284D01*
X133026205Y-105044716D01*
X132425057Y-105293106D01*
X131964722Y-105752637D01*
X131895227Y-105920000D01*
X128584802Y-105920000D01*
X127760000Y-105095198D01*
X127760000Y-101600000D01*
X127702148Y-101309161D01*
X127702148Y-101309160D01*
X127537401Y-101062599D01*
X126267401Y-99792599D01*
X126121333Y-99695000D01*
X126267401Y-99597401D01*
X127537401Y-98327401D01*
X127702148Y-98080840D01*
X127760000Y-97790000D01*
X127760000Y-96402532D01*
X134917073Y-96402532D01*
X135015736Y-96669387D01*
X135625461Y-96895908D01*
X136275460Y-96871856D01*
X136764264Y-96669387D01*
X136862927Y-96402532D01*
X135890000Y-95429605D01*
X134917073Y-96402532D01*
X127760000Y-96402532D01*
X127760000Y-93251638D01*
X128074526Y-93251638D01*
X128490028Y-94257229D01*
X129258724Y-95027268D01*
X130263588Y-95444524D01*
X131351638Y-95445474D01*
X132357229Y-95029972D01*
X132401817Y-94985461D01*
X134244092Y-94985461D01*
X134268144Y-95635460D01*
X134470613Y-96124264D01*
X134737468Y-96222927D01*
X135710395Y-95250000D01*
X136069605Y-95250000D01*
X137042532Y-96222927D01*
X137309387Y-96124264D01*
X137535908Y-95514539D01*
X137511856Y-94864540D01*
X137309387Y-94375736D01*
X137042532Y-94277073D01*
X136069605Y-95250000D01*
X135710395Y-95250000D01*
X134737468Y-94277073D01*
X134470613Y-94375736D01*
X134244092Y-94985461D01*
X132401817Y-94985461D01*
X133127268Y-94261276D01*
X133195287Y-94097468D01*
X134917073Y-94097468D01*
X135890000Y-95070395D01*
X136862927Y-94097468D01*
X136764264Y-93830613D01*
X136154539Y-93604092D01*
X135504540Y-93628144D01*
X135015736Y-93830613D01*
X134917073Y-94097468D01*
X133195287Y-94097468D01*
X133544524Y-93256412D01*
X133545474Y-92168362D01*
X133129972Y-91162771D01*
X132361276Y-90392732D01*
X131356412Y-89975476D01*
X130268362Y-89974526D01*
X129262771Y-90390028D01*
X128492732Y-91158724D01*
X128075476Y-92163588D01*
X128074526Y-93251638D01*
X127760000Y-93251638D01*
X127760000Y-90484802D01*
X128584802Y-89660000D01*
X131894953Y-89660000D01*
X131963106Y-89824943D01*
X132422637Y-90285278D01*
X133023352Y-90534716D01*
X133673795Y-90535284D01*
X134274943Y-90286894D01*
X134735278Y-89827363D01*
X134984716Y-89226648D01*
X134985284Y-88576205D01*
X134736894Y-87975057D01*
X134277363Y-87514722D01*
X133676648Y-87265284D01*
X133026205Y-87264716D01*
X132425057Y-87513106D01*
X131964722Y-87972637D01*
X131895227Y-88140000D01*
X128270000Y-88140000D01*
X127979160Y-88197852D01*
X127732599Y-88362599D01*
X126490000Y-89605198D01*
X126490000Y-78622532D01*
X134917073Y-78622532D01*
X135015736Y-78889387D01*
X135625461Y-79115908D01*
X136275460Y-79091856D01*
X136764264Y-78889387D01*
X136862927Y-78622532D01*
X135890000Y-77649605D01*
X134917073Y-78622532D01*
X126490000Y-78622532D01*
X126490000Y-75471638D01*
X128074526Y-75471638D01*
X128490028Y-76477229D01*
X129258724Y-77247268D01*
X130263588Y-77664524D01*
X131351638Y-77665474D01*
X132357229Y-77249972D01*
X132401817Y-77205461D01*
X134244092Y-77205461D01*
X134268144Y-77855460D01*
X134470613Y-78344264D01*
X134737468Y-78442927D01*
X135710395Y-77470000D01*
X136069605Y-77470000D01*
X137042532Y-78442927D01*
X137309387Y-78344264D01*
X137535908Y-77734539D01*
X137511856Y-77084540D01*
X137309387Y-76595736D01*
X137042532Y-76497073D01*
X136069605Y-77470000D01*
X135710395Y-77470000D01*
X134737468Y-76497073D01*
X134470613Y-76595736D01*
X134244092Y-77205461D01*
X132401817Y-77205461D01*
X133127268Y-76481276D01*
X133195287Y-76317468D01*
X134917073Y-76317468D01*
X135890000Y-77290395D01*
X136862927Y-76317468D01*
X136764264Y-76050613D01*
X136154539Y-75824092D01*
X135504540Y-75848144D01*
X135015736Y-76050613D01*
X134917073Y-76317468D01*
X133195287Y-76317468D01*
X133544524Y-75476412D01*
X133545474Y-74388362D01*
X133129972Y-73382771D01*
X132361276Y-72612732D01*
X131356412Y-72195476D01*
X130268362Y-72194526D01*
X129262771Y-72610028D01*
X128492732Y-73378724D01*
X128075476Y-74383588D01*
X128074526Y-75471638D01*
X126490000Y-75471638D01*
X126490000Y-72704802D01*
X127314802Y-71880000D01*
X131894953Y-71880000D01*
X131963106Y-72044943D01*
X132422637Y-72505278D01*
X133023352Y-72754716D01*
X133673795Y-72755284D01*
X134274943Y-72506894D01*
X134735278Y-72047363D01*
X134984716Y-71446648D01*
X134985284Y-70796205D01*
X134736894Y-70195057D01*
X134277363Y-69734722D01*
X133676648Y-69485284D01*
X133026205Y-69484716D01*
X132425057Y-69733106D01*
X131964722Y-70192637D01*
X131895227Y-70360000D01*
X127000000Y-70360000D01*
X126709160Y-70417852D01*
X126462599Y-70582599D01*
X125192599Y-71852599D01*
X125027852Y-72099161D01*
X124970000Y-72390000D01*
X124970000Y-96205198D01*
X124145198Y-97030000D01*
X123752463Y-97030000D01*
X123720327Y-96997808D01*
X123376799Y-96855162D01*
X123004833Y-96854838D01*
X122680000Y-96989056D01*
X122680000Y-82550000D01*
X122622148Y-82259161D01*
X122622148Y-82259160D01*
X122457401Y-82012599D01*
X121187401Y-80742599D01*
X120940839Y-80577852D01*
X120650000Y-80520000D01*
X119607440Y-80520000D01*
X119607440Y-80430000D01*
X119563162Y-80194683D01*
X119424090Y-79978559D01*
X119211890Y-79833569D01*
X119144459Y-79819914D01*
X119189147Y-79790054D01*
X119511054Y-79308285D01*
X119624093Y-78740000D01*
X119511054Y-78171715D01*
X119189147Y-77689946D01*
X118870000Y-77476699D01*
X118870000Y-73662954D01*
X119160054Y-73469147D01*
X119189403Y-73425223D01*
X119261673Y-73599698D01*
X119440301Y-73778327D01*
X119673690Y-73875000D01*
X120364250Y-73875000D01*
X120523000Y-73716250D01*
X120523000Y-72517000D01*
X120777000Y-72517000D01*
X120777000Y-73716250D01*
X120935750Y-73875000D01*
X121626310Y-73875000D01*
X121859699Y-73778327D01*
X122038327Y-73599698D01*
X122135000Y-73366309D01*
X122135000Y-72675750D01*
X121976250Y-72517000D01*
X120777000Y-72517000D01*
X120523000Y-72517000D01*
X120503000Y-72517000D01*
X120503000Y-72263000D01*
X120523000Y-72263000D01*
X120523000Y-71063750D01*
X120777000Y-71063750D01*
X120777000Y-72263000D01*
X121976250Y-72263000D01*
X122135000Y-72104250D01*
X122135000Y-71413691D01*
X122038327Y-71180302D01*
X121859699Y-71001673D01*
X121626310Y-70905000D01*
X120935750Y-70905000D01*
X120777000Y-71063750D01*
X120523000Y-71063750D01*
X120364250Y-70905000D01*
X119673690Y-70905000D01*
X119440301Y-71001673D01*
X119261673Y-71180302D01*
X119189403Y-71354777D01*
X119160054Y-71310853D01*
X118678285Y-70988946D01*
X118110000Y-70875907D01*
X117541715Y-70988946D01*
X117059946Y-71310853D01*
X116738039Y-71792622D01*
X116625000Y-72360907D01*
X116625000Y-72419093D01*
X116738039Y-72987378D01*
X117059946Y-73469147D01*
X117350000Y-73662954D01*
X117350000Y-77476699D01*
X117030853Y-77689946D01*
X116708946Y-78171715D01*
X116595907Y-78740000D01*
X116708946Y-79308285D01*
X117030853Y-79790054D01*
X117072452Y-79817850D01*
X117024683Y-79826838D01*
X116808559Y-79965910D01*
X116663569Y-80178110D01*
X116612560Y-80430000D01*
X116612560Y-80520000D01*
X116125710Y-80520000D01*
X116272148Y-80300840D01*
X116330000Y-80010000D01*
X116330000Y-74930000D01*
X116272148Y-74639161D01*
X116272148Y-74639160D01*
X116107401Y-74392599D01*
X114837401Y-73122599D01*
X114590839Y-72957852D01*
X114300000Y-72900000D01*
X113116352Y-72900000D01*
X113238112Y-72535028D01*
X113206217Y-72084625D01*
X113095217Y-71816648D01*
X112880104Y-71779501D01*
X112269605Y-72390000D01*
X112283748Y-72404143D01*
X112104143Y-72583748D01*
X112090000Y-72569605D01*
X112075858Y-72583748D01*
X111896253Y-72404143D01*
X111910395Y-72390000D01*
X111896253Y-72375858D01*
X112075858Y-72196253D01*
X112090000Y-72210395D01*
X112700499Y-71599896D01*
X112663352Y-71384783D01*
X112424900Y-71305232D01*
X112425197Y-70965225D01*
X112252767Y-70547914D01*
X111933765Y-70228355D01*
X111516756Y-70055197D01*
X111065225Y-70054803D01*
X110647914Y-70227233D01*
X110490004Y-70384867D01*
X110333765Y-70228355D01*
X109916756Y-70055197D01*
X109465225Y-70054803D01*
X109047914Y-70227233D01*
X108728355Y-70546235D01*
X108555197Y-70963244D01*
X108554903Y-71300387D01*
X108247914Y-71427233D01*
X107928355Y-71746235D01*
X107755197Y-72163244D01*
X107754803Y-72614775D01*
X107927233Y-73032086D01*
X108130000Y-73235207D01*
X108130000Y-73330000D01*
X108187852Y-73620839D01*
X108352599Y-73867401D01*
X108682599Y-74197401D01*
X108929160Y-74362148D01*
X108977414Y-74371746D01*
X109220000Y-74420000D01*
X113985198Y-74420000D01*
X114330716Y-74765518D01*
X114328113Y-74765000D01*
X114271887Y-74765000D01*
X113722736Y-74874233D01*
X113257189Y-75185302D01*
X113087005Y-75440000D01*
X113030000Y-75440000D01*
X112739160Y-75497852D01*
X112492599Y-75662599D01*
X111445198Y-76710000D01*
X108127440Y-76710000D01*
X108127440Y-75400000D01*
X108083162Y-75164683D01*
X107944090Y-74948559D01*
X107731890Y-74803569D01*
X107480000Y-74752560D01*
X105880000Y-74752560D01*
X105644683Y-74796838D01*
X105428559Y-74935910D01*
X105283569Y-75148110D01*
X105232560Y-75400000D01*
X105232560Y-75475295D01*
X105119160Y-75497852D01*
X104872599Y-75662599D01*
X104015679Y-76519519D01*
X103949147Y-76419946D01*
X103467378Y-76098039D01*
X102899093Y-75985000D01*
X102840907Y-75985000D01*
X102272622Y-76098039D01*
X101790853Y-76419946D01*
X101468946Y-76901715D01*
X101355907Y-77470000D01*
X101468946Y-78038285D01*
X101790853Y-78520054D01*
X101832452Y-78547850D01*
X101784683Y-78556838D01*
X101568559Y-78695910D01*
X101423569Y-78908110D01*
X101372560Y-79160000D01*
X101372560Y-80860000D01*
X101416838Y-81095317D01*
X101555910Y-81311441D01*
X101768110Y-81456431D01*
X102020000Y-81507440D01*
X103720000Y-81507440D01*
X103955317Y-81463162D01*
X104171441Y-81324090D01*
X104316431Y-81111890D01*
X104367440Y-80860000D01*
X104367440Y-79587362D01*
X105385873Y-78568929D01*
X105410085Y-78613000D01*
X106553000Y-78613000D01*
X106553000Y-78593000D01*
X106807000Y-78593000D01*
X106807000Y-78613000D01*
X107949915Y-78613000D01*
X108071904Y-78390961D01*
X108005236Y-78230000D01*
X111760000Y-78230000D01*
X112050839Y-78172148D01*
X112297401Y-78007401D01*
X113190264Y-77114538D01*
X113257189Y-77214698D01*
X113639275Y-77470000D01*
X113257189Y-77725302D01*
X112946120Y-78190849D01*
X112836887Y-78740000D01*
X112946120Y-79289151D01*
X113257189Y-79754698D01*
X113639275Y-80010000D01*
X113257189Y-80265302D01*
X112946120Y-80730849D01*
X112836887Y-81280000D01*
X112946120Y-81829151D01*
X113257189Y-82294698D01*
X113639275Y-82550000D01*
X113257189Y-82805302D01*
X112946120Y-83270849D01*
X112836887Y-83820000D01*
X112946120Y-84369151D01*
X113257189Y-84834698D01*
X113722736Y-85145767D01*
X114271887Y-85255000D01*
X114328113Y-85255000D01*
X114877264Y-85145767D01*
X115342811Y-84834698D01*
X115512995Y-84580000D01*
X117795198Y-84580000D01*
X118189634Y-84974436D01*
X118078559Y-85045910D01*
X117933569Y-85258110D01*
X117882560Y-85510000D01*
X117882560Y-87210000D01*
X117926838Y-87445317D01*
X118065910Y-87661441D01*
X118278110Y-87806431D01*
X118345541Y-87820086D01*
X118300853Y-87849946D01*
X117978946Y-88331715D01*
X117865907Y-88900000D01*
X117978946Y-89468285D01*
X118300853Y-89950054D01*
X118620000Y-90163301D01*
X118620000Y-91212560D01*
X118530000Y-91212560D01*
X118294683Y-91256838D01*
X118078559Y-91395910D01*
X117933569Y-91608110D01*
X117882560Y-91860000D01*
X117882560Y-93560000D01*
X117926838Y-93795317D01*
X118065910Y-94011441D01*
X118278110Y-94156431D01*
X118386107Y-94178301D01*
X118108355Y-94483076D01*
X117938524Y-94893110D01*
X118059845Y-95123000D01*
X119253000Y-95123000D01*
X119253000Y-95103000D01*
X119507000Y-95103000D01*
X119507000Y-95123000D01*
X120700155Y-95123000D01*
X120821476Y-94893110D01*
X120651645Y-94483076D01*
X120375499Y-94180063D01*
X120465317Y-94163162D01*
X120681441Y-94024090D01*
X120826431Y-93811890D01*
X120877440Y-93560000D01*
X120877440Y-91860000D01*
X120833162Y-91624683D01*
X120694090Y-91408559D01*
X120481890Y-91263569D01*
X120230000Y-91212560D01*
X120140000Y-91212560D01*
X120140000Y-90163301D01*
X120459147Y-89950054D01*
X120781054Y-89468285D01*
X120894093Y-88900000D01*
X120781054Y-88331715D01*
X120459147Y-87849946D01*
X120417548Y-87822150D01*
X120465317Y-87813162D01*
X120681441Y-87674090D01*
X120826431Y-87461890D01*
X120877440Y-87210000D01*
X120877440Y-85510000D01*
X120833162Y-85274683D01*
X120694090Y-85058559D01*
X120481890Y-84913569D01*
X120230000Y-84862560D01*
X120094759Y-84862560D01*
X120082148Y-84799160D01*
X119917401Y-84552599D01*
X118647401Y-83282599D01*
X118400839Y-83117852D01*
X118110000Y-83060000D01*
X115512995Y-83060000D01*
X115342811Y-82805302D01*
X114960725Y-82550000D01*
X115342811Y-82294698D01*
X115512995Y-82040000D01*
X116612560Y-82040000D01*
X116612560Y-82130000D01*
X116656838Y-82365317D01*
X116795910Y-82581441D01*
X117008110Y-82726431D01*
X117260000Y-82777440D01*
X118960000Y-82777440D01*
X119195317Y-82733162D01*
X119411441Y-82594090D01*
X119556431Y-82381890D01*
X119607440Y-82130000D01*
X119607440Y-82040000D01*
X120335198Y-82040000D01*
X121160000Y-82864802D01*
X121160000Y-96989367D01*
X120836799Y-96855162D01*
X120464833Y-96854838D01*
X120121057Y-96996883D01*
X120087882Y-97030000D01*
X118424802Y-97030000D01*
X117001692Y-95606890D01*
X117938524Y-95606890D01*
X118108355Y-96016924D01*
X118498642Y-96445183D01*
X119023108Y-96691486D01*
X119253000Y-96570819D01*
X119253000Y-95377000D01*
X119507000Y-95377000D01*
X119507000Y-96570819D01*
X119736892Y-96691486D01*
X120261358Y-96445183D01*
X120651645Y-96016924D01*
X120821476Y-95606890D01*
X120700155Y-95377000D01*
X119507000Y-95377000D01*
X119253000Y-95377000D01*
X118059845Y-95377000D01*
X117938524Y-95606890D01*
X117001692Y-95606890D01*
X116107401Y-94712599D01*
X115860839Y-94547852D01*
X115570000Y-94490000D01*
X115512995Y-94490000D01*
X115342811Y-94235302D01*
X114960725Y-93980000D01*
X115342811Y-93724698D01*
X115653880Y-93259151D01*
X115763113Y-92710000D01*
X115653880Y-92160849D01*
X115342811Y-91695302D01*
X114960725Y-91440000D01*
X115342811Y-91184698D01*
X115653880Y-90719151D01*
X115763113Y-90170000D01*
X115653880Y-89620849D01*
X115342811Y-89155302D01*
X114960725Y-88900000D01*
X115342811Y-88644698D01*
X115653880Y-88179151D01*
X115763113Y-87630000D01*
X115653880Y-87080849D01*
X115342811Y-86615302D01*
X114877264Y-86304233D01*
X114328113Y-86195000D01*
X114271887Y-86195000D01*
X113722736Y-86304233D01*
X113257189Y-86615302D01*
X113087005Y-86870000D01*
X111760000Y-86870000D01*
X111469160Y-86927852D01*
X111222599Y-87092599D01*
X109980000Y-88335198D01*
X109980000Y-82550000D01*
X109922148Y-82259161D01*
X109922148Y-82259160D01*
X109757401Y-82012599D01*
X108487401Y-80742599D01*
X108240839Y-80577852D01*
X107950000Y-80520000D01*
X107892995Y-80520000D01*
X107722811Y-80265302D01*
X107318297Y-79995014D01*
X107535134Y-79892389D01*
X107911041Y-79477423D01*
X108071904Y-79089039D01*
X107949915Y-78867000D01*
X106807000Y-78867000D01*
X106807000Y-78887000D01*
X106553000Y-78887000D01*
X106553000Y-78867000D01*
X105410085Y-78867000D01*
X105288096Y-79089039D01*
X105448959Y-79477423D01*
X105824866Y-79892389D01*
X106041703Y-79995014D01*
X105637189Y-80265302D01*
X105326120Y-80730849D01*
X105216887Y-81280000D01*
X105326120Y-81829151D01*
X105637189Y-82294698D01*
X106041703Y-82564986D01*
X105824866Y-82667611D01*
X105448959Y-83082577D01*
X105288096Y-83470961D01*
X105410085Y-83693000D01*
X106553000Y-83693000D01*
X106553000Y-83673000D01*
X106807000Y-83673000D01*
X106807000Y-83693000D01*
X107949915Y-83693000D01*
X108071904Y-83470961D01*
X107911041Y-83082577D01*
X107535134Y-82667611D01*
X107318297Y-82564986D01*
X107722811Y-82294698D01*
X107789736Y-82194538D01*
X108460000Y-82864802D01*
X108460000Y-94935198D01*
X108142595Y-95252603D01*
X108143113Y-95250000D01*
X108033880Y-94700849D01*
X107722811Y-94235302D01*
X107340725Y-93980000D01*
X107722811Y-93724698D01*
X108033880Y-93259151D01*
X108143113Y-92710000D01*
X108033880Y-92160849D01*
X107722811Y-91695302D01*
X107340725Y-91440000D01*
X107722811Y-91184698D01*
X108033880Y-90719151D01*
X108143113Y-90170000D01*
X108033880Y-89620849D01*
X107722811Y-89155302D01*
X107578535Y-89058899D01*
X107715317Y-89033162D01*
X107931441Y-88894090D01*
X108076431Y-88681890D01*
X108127440Y-88430000D01*
X108127440Y-86830000D01*
X108083162Y-86594683D01*
X107944090Y-86378559D01*
X107731890Y-86233569D01*
X107480000Y-86182560D01*
X105880000Y-86182560D01*
X105644683Y-86226838D01*
X105428559Y-86365910D01*
X105283569Y-86578110D01*
X105232560Y-86830000D01*
X105232560Y-88430000D01*
X105276838Y-88665317D01*
X105415910Y-88881441D01*
X105628110Y-89026431D01*
X105783089Y-89057815D01*
X105637189Y-89155302D01*
X105467005Y-89410000D01*
X94294802Y-89410000D01*
X93470000Y-88585198D01*
X93470000Y-80010000D01*
X93434905Y-79833569D01*
X93412148Y-79719160D01*
X93247401Y-79472599D01*
X91977401Y-78202599D01*
X91730839Y-78037852D01*
X91440000Y-77980000D01*
X89085047Y-77980000D01*
X89016894Y-77815057D01*
X88557363Y-77354722D01*
X87956648Y-77105284D01*
X87306205Y-77104716D01*
X86705057Y-77353106D01*
X86244722Y-77812637D01*
X85995284Y-78413352D01*
X85994716Y-79063795D01*
X83235000Y-79063795D01*
X83235000Y-75471638D01*
X87434526Y-75471638D01*
X87850028Y-76477229D01*
X88618724Y-77247268D01*
X89623588Y-77664524D01*
X90711638Y-77665474D01*
X91717229Y-77249972D01*
X92487268Y-76481276D01*
X92904524Y-75476412D01*
X92905474Y-74388362D01*
X92489972Y-73382771D01*
X91721276Y-72612732D01*
X91114815Y-72360907D01*
X98845000Y-72360907D01*
X98845000Y-72419093D01*
X98958039Y-72987378D01*
X99279946Y-73469147D01*
X99570000Y-73662954D01*
X99570000Y-83820000D01*
X99627852Y-84110839D01*
X99792599Y-84357401D01*
X101062599Y-85627401D01*
X101309160Y-85792148D01*
X101596593Y-85849322D01*
X101790853Y-86140054D01*
X101832452Y-86167850D01*
X101784683Y-86176838D01*
X101568559Y-86315910D01*
X101423569Y-86528110D01*
X101372560Y-86780000D01*
X101372560Y-88480000D01*
X101416838Y-88715317D01*
X101555910Y-88931441D01*
X101768110Y-89076431D01*
X102020000Y-89127440D01*
X103720000Y-89127440D01*
X103955317Y-89083162D01*
X104171441Y-88944090D01*
X104316431Y-88731890D01*
X104367440Y-88480000D01*
X104367440Y-86780000D01*
X104323162Y-86544683D01*
X104184090Y-86328559D01*
X103971890Y-86183569D01*
X103904459Y-86169914D01*
X103949147Y-86140054D01*
X104271054Y-85658285D01*
X104384093Y-85090000D01*
X104271054Y-84521715D01*
X104035404Y-84169039D01*
X105288096Y-84169039D01*
X105448959Y-84557423D01*
X105824866Y-84972389D01*
X106330959Y-85211914D01*
X106553000Y-85090629D01*
X106553000Y-83947000D01*
X106807000Y-83947000D01*
X106807000Y-85090629D01*
X107029041Y-85211914D01*
X107535134Y-84972389D01*
X107911041Y-84557423D01*
X108071904Y-84169039D01*
X107949915Y-83947000D01*
X106807000Y-83947000D01*
X106553000Y-83947000D01*
X105410085Y-83947000D01*
X105288096Y-84169039D01*
X104035404Y-84169039D01*
X103949147Y-84039946D01*
X103467378Y-83718039D01*
X102899093Y-83605000D01*
X102840907Y-83605000D01*
X102272622Y-83718039D01*
X101790853Y-84039946D01*
X101724321Y-84139519D01*
X101090000Y-83505198D01*
X101090000Y-73662954D01*
X101380054Y-73469147D01*
X101409403Y-73425223D01*
X101481673Y-73599698D01*
X101660301Y-73778327D01*
X101893690Y-73875000D01*
X102584250Y-73875000D01*
X102743000Y-73716250D01*
X102743000Y-72517000D01*
X102997000Y-72517000D01*
X102997000Y-73716250D01*
X103155750Y-73875000D01*
X103846310Y-73875000D01*
X104079699Y-73778327D01*
X104258327Y-73599698D01*
X104355000Y-73366309D01*
X104355000Y-72675750D01*
X104196250Y-72517000D01*
X102997000Y-72517000D01*
X102743000Y-72517000D01*
X102723000Y-72517000D01*
X102723000Y-72263000D01*
X102743000Y-72263000D01*
X102743000Y-71063750D01*
X102997000Y-71063750D01*
X102997000Y-72263000D01*
X104196250Y-72263000D01*
X104355000Y-72104250D01*
X104355000Y-71413691D01*
X104258327Y-71180302D01*
X104079699Y-71001673D01*
X103846310Y-70905000D01*
X103155750Y-70905000D01*
X102997000Y-71063750D01*
X102743000Y-71063750D01*
X102584250Y-70905000D01*
X101893690Y-70905000D01*
X101660301Y-71001673D01*
X101481673Y-71180302D01*
X101409403Y-71354777D01*
X101380054Y-71310853D01*
X100898285Y-70988946D01*
X100330000Y-70875907D01*
X99761715Y-70988946D01*
X99279946Y-71310853D01*
X98958039Y-71792622D01*
X98845000Y-72360907D01*
X91114815Y-72360907D01*
X90716412Y-72195476D01*
X89628362Y-72194526D01*
X88622771Y-72610028D01*
X87852732Y-73378724D01*
X87435476Y-74383588D01*
X87434526Y-75471638D01*
X83235000Y-75471638D01*
X83235000Y-73542532D01*
X84117073Y-73542532D01*
X84215736Y-73809387D01*
X84825461Y-74035908D01*
X85475460Y-74011856D01*
X85964264Y-73809387D01*
X86062927Y-73542532D01*
X85090000Y-72569605D01*
X84117073Y-73542532D01*
X83235000Y-73542532D01*
X83235000Y-72125461D01*
X83444092Y-72125461D01*
X83468144Y-72775460D01*
X83670613Y-73264264D01*
X83937468Y-73362927D01*
X84910395Y-72390000D01*
X85269605Y-72390000D01*
X86242532Y-73362927D01*
X86509387Y-73264264D01*
X86735908Y-72654539D01*
X86711856Y-72004540D01*
X86509387Y-71515736D01*
X86242532Y-71417073D01*
X85269605Y-72390000D01*
X84910395Y-72390000D01*
X83937468Y-71417073D01*
X83670613Y-71515736D01*
X83444092Y-72125461D01*
X83235000Y-72125461D01*
X83235000Y-71237468D01*
X84117073Y-71237468D01*
X85090000Y-72210395D01*
X86062927Y-71237468D01*
X85964264Y-70970613D01*
X85354539Y-70744092D01*
X84704540Y-70768144D01*
X84215736Y-70970613D01*
X84117073Y-71237468D01*
X83235000Y-71237468D01*
X83235000Y-65455000D01*
X105571527Y-65455000D01*
X105219996Y-65805918D01*
X105219996Y-65805918D01*
G37*
X105219996Y-65805918D02*
X104955301Y-66443373D01*
X104954699Y-67133599D01*
X105218281Y-67771515D01*
X105705918Y-68260004D01*
X106343373Y-68524699D01*
X107033599Y-68525301D01*
X107671515Y-68261719D01*
X108160004Y-67774082D01*
X108424699Y-67136627D01*
X108425301Y-66446401D01*
X108161719Y-65808485D01*
X107808851Y-65455000D01*
X113171527Y-65455000D01*
X112819996Y-65805918D01*
X112555301Y-66443373D01*
X112554699Y-67133599D01*
X112818281Y-67771515D01*
X113305918Y-68260004D01*
X113943373Y-68524699D01*
X114633599Y-68525301D01*
X115271515Y-68261719D01*
X115760004Y-67774082D01*
X116024699Y-67136627D01*
X116025301Y-66446401D01*
X115761719Y-65808485D01*
X115408851Y-65455000D01*
X137745000Y-65455000D01*
X137745000Y-155525000D01*
X83235000Y-155525000D01*
X83235000Y-146591638D01*
X87434526Y-146591638D01*
X87850028Y-147597229D01*
X88618724Y-148367268D01*
X89623588Y-148784524D01*
X90711638Y-148785474D01*
X91717229Y-148369972D01*
X92487268Y-147601276D01*
X92904524Y-146596412D01*
X92905474Y-145508362D01*
X92489972Y-144502771D01*
X91721276Y-143732732D01*
X90716412Y-143315476D01*
X89628362Y-143314526D01*
X88622771Y-143730028D01*
X87852732Y-144498724D01*
X87435476Y-145503588D01*
X87434526Y-146591638D01*
X83235000Y-146591638D01*
X83235000Y-144662532D01*
X84117073Y-144662532D01*
X84215736Y-144929387D01*
X84825461Y-145155908D01*
X85475460Y-145131856D01*
X85964264Y-144929387D01*
X86062927Y-144662532D01*
X85090000Y-143689605D01*
X84117073Y-144662532D01*
X83235000Y-144662532D01*
X83235000Y-143245461D01*
X83444092Y-143245461D01*
X83468144Y-143895460D01*
X83670613Y-144384264D01*
X83937468Y-144482927D01*
X84910395Y-143510000D01*
X85269605Y-143510000D01*
X86242532Y-144482927D01*
X86509387Y-144384264D01*
X86735908Y-143774539D01*
X86711856Y-143124540D01*
X86509387Y-142635736D01*
X86242532Y-142537073D01*
X85269605Y-143510000D01*
X84910395Y-143510000D01*
X83937468Y-142537073D01*
X83670613Y-142635736D01*
X83444092Y-143245461D01*
X83235000Y-143245461D01*
X83235000Y-142357468D01*
X84117073Y-142357468D01*
X85090000Y-143330395D01*
X86062927Y-142357468D01*
X85964264Y-142090613D01*
X85354539Y-141864092D01*
X84704540Y-141888144D01*
X84215736Y-142090613D01*
X84117073Y-142357468D01*
X83235000Y-142357468D01*
X83235000Y-128811638D01*
X87434526Y-128811638D01*
X87850028Y-129817229D01*
X88618724Y-130587268D01*
X89623588Y-131004524D01*
X90711638Y-131005474D01*
X91717229Y-130589972D01*
X92487268Y-129821276D01*
X92904524Y-128816412D01*
X92905474Y-127728362D01*
X92489972Y-126722771D01*
X91721276Y-125952732D01*
X90716412Y-125535476D01*
X89628362Y-125534526D01*
X88622771Y-125950028D01*
X87852732Y-126718724D01*
X87435476Y-127723588D01*
X87434526Y-128811638D01*
X83235000Y-128811638D01*
X83235000Y-126882532D01*
X84117073Y-126882532D01*
X84215736Y-127149387D01*
X84825461Y-127375908D01*
X85475460Y-127351856D01*
X85964264Y-127149387D01*
X86062927Y-126882532D01*
X85090000Y-125909605D01*
X84117073Y-126882532D01*
X83235000Y-126882532D01*
X83235000Y-125465461D01*
X83444092Y-125465461D01*
X83468144Y-126115460D01*
X83670613Y-126604264D01*
X83937468Y-126702927D01*
X84910395Y-125730000D01*
X85269605Y-125730000D01*
X86242532Y-126702927D01*
X86509387Y-126604264D01*
X86735908Y-125994539D01*
X86711856Y-125344540D01*
X86509387Y-124855736D01*
X86242532Y-124757073D01*
X85269605Y-125730000D01*
X84910395Y-125730000D01*
X83937468Y-124757073D01*
X83670613Y-124855736D01*
X83444092Y-125465461D01*
X83235000Y-125465461D01*
X83235000Y-124577468D01*
X84117073Y-124577468D01*
X85090000Y-125550395D01*
X86062927Y-124577468D01*
X85964264Y-124310613D01*
X85354539Y-124084092D01*
X84704540Y-124108144D01*
X84215736Y-124310613D01*
X84117073Y-124577468D01*
X83235000Y-124577468D01*
X83235000Y-109102532D01*
X84117073Y-109102532D01*
X84215736Y-109369387D01*
X84825461Y-109595908D01*
X85475460Y-109571856D01*
X85964264Y-109369387D01*
X86062927Y-109102532D01*
X85090000Y-108129605D01*
X84117073Y-109102532D01*
X83235000Y-109102532D01*
X83235000Y-107685461D01*
X83444092Y-107685461D01*
X83468144Y-108335460D01*
X83670613Y-108824264D01*
X83937468Y-108922927D01*
X84910395Y-107950000D01*
X85269605Y-107950000D01*
X86242532Y-108922927D01*
X86509387Y-108824264D01*
X86735908Y-108214539D01*
X86711856Y-107564540D01*
X86509387Y-107075736D01*
X86242532Y-106977073D01*
X85269605Y-107950000D01*
X84910395Y-107950000D01*
X83937468Y-106977073D01*
X83670613Y-107075736D01*
X83444092Y-107685461D01*
X83235000Y-107685461D01*
X83235000Y-106797468D01*
X84117073Y-106797468D01*
X85090000Y-107770395D01*
X86062927Y-106797468D01*
X85964264Y-106530613D01*
X85354539Y-106304092D01*
X84704540Y-106328144D01*
X84215736Y-106530613D01*
X84117073Y-106797468D01*
X83235000Y-106797468D01*
X83235000Y-93251638D01*
X87434526Y-93251638D01*
X87850028Y-94257229D01*
X88618724Y-95027268D01*
X89623588Y-95444524D01*
X90711638Y-95445474D01*
X91717229Y-95029972D01*
X92487268Y-94261276D01*
X92904524Y-93256412D01*
X92905474Y-92168362D01*
X92489972Y-91162771D01*
X91721276Y-90392732D01*
X90716412Y-89975476D01*
X89628362Y-89974526D01*
X88622771Y-90390028D01*
X87852732Y-91158724D01*
X87435476Y-92163588D01*
X87434526Y-93251638D01*
X83235000Y-93251638D01*
X83235000Y-91322532D01*
X84117073Y-91322532D01*
X84215736Y-91589387D01*
X84825461Y-91815908D01*
X85475460Y-91791856D01*
X85964264Y-91589387D01*
X86062927Y-91322532D01*
X85090000Y-90349605D01*
X84117073Y-91322532D01*
X83235000Y-91322532D01*
X83235000Y-89905461D01*
X83444092Y-89905461D01*
X83468144Y-90555460D01*
X83670613Y-91044264D01*
X83937468Y-91142927D01*
X84910395Y-90170000D01*
X85269605Y-90170000D01*
X86242532Y-91142927D01*
X86509387Y-91044264D01*
X86735908Y-90434539D01*
X86711856Y-89784540D01*
X86509387Y-89295736D01*
X86242532Y-89197073D01*
X85269605Y-90170000D01*
X84910395Y-90170000D01*
X83937468Y-89197073D01*
X83670613Y-89295736D01*
X83444092Y-89905461D01*
X83235000Y-89905461D01*
X83235000Y-89017468D01*
X84117073Y-89017468D01*
X85090000Y-89990395D01*
X86062927Y-89017468D01*
X85964264Y-88750613D01*
X85354539Y-88524092D01*
X84704540Y-88548144D01*
X84215736Y-88750613D01*
X84117073Y-89017468D01*
X83235000Y-89017468D01*
X83235000Y-79063795D01*
X85994716Y-79063795D01*
X86243106Y-79664943D01*
X86702637Y-80125278D01*
X87303352Y-80374716D01*
X87953795Y-80375284D01*
X88554943Y-80126894D01*
X89015278Y-79667363D01*
X89084773Y-79500000D01*
X91125198Y-79500000D01*
X91950000Y-80324802D01*
X91950000Y-88900000D01*
X92007852Y-89190839D01*
X92172599Y-89437401D01*
X93442599Y-90707401D01*
X93689160Y-90872148D01*
X93980000Y-90930000D01*
X105467005Y-90930000D01*
X105637189Y-91184698D01*
X106019275Y-91440000D01*
X105637189Y-91695302D01*
X105467005Y-91950000D01*
X95250000Y-91950000D01*
X94959160Y-92007852D01*
X94712599Y-92172599D01*
X93442599Y-93442599D01*
X93277852Y-93689161D01*
X93220000Y-93980000D01*
X93220000Y-94935198D01*
X92395198Y-95760000D01*
X89085047Y-95760000D01*
X89016894Y-95595057D01*
X88557363Y-95134722D01*
X87956648Y-94885284D01*
X87306205Y-94884716D01*
X86705057Y-95133106D01*
X86244722Y-95592637D01*
X85995284Y-96193352D01*
X85994716Y-96843795D01*
X86243106Y-97444943D01*
X86702637Y-97905278D01*
X87303352Y-98154716D01*
X87953795Y-98155284D01*
X88554943Y-97906894D01*
X89015278Y-97447363D01*
X89084773Y-97280000D01*
X92710000Y-97280000D01*
X93000839Y-97222148D01*
X93247401Y-97057401D01*
X94517401Y-95787401D01*
X94682148Y-95540840D01*
X94740000Y-95250000D01*
X94740000Y-94294802D01*
X95564802Y-93470000D01*
X97225198Y-93470000D01*
X95982599Y-94712599D01*
X95817852Y-94959161D01*
X95760000Y-95250000D01*
X95760000Y-97475198D01*
X93665198Y-99570000D01*
X88900000Y-99570000D01*
X88609160Y-99627852D01*
X88362599Y-99792599D01*
X87092599Y-101062599D01*
X86927852Y-101309161D01*
X86870000Y-101600000D01*
X86870000Y-112844953D01*
X86705057Y-112913106D01*
X86244722Y-113372637D01*
X85995284Y-113973352D01*
X85994716Y-114623795D01*
X86243106Y-115224943D01*
X86702637Y-115685278D01*
X87303352Y-115934716D01*
X87953795Y-115935284D01*
X88554943Y-115686894D01*
X89015278Y-115227363D01*
X89264716Y-114626648D01*
X89265284Y-113976205D01*
X89016894Y-113375057D01*
X88557363Y-112914722D01*
X88390000Y-112845227D01*
X88390000Y-112578144D01*
X88618724Y-112807268D01*
X89623588Y-113224524D01*
X90711638Y-113225474D01*
X91717229Y-112809972D01*
X92487268Y-112041276D01*
X92904524Y-111036412D01*
X92905474Y-109948362D01*
X92489972Y-108942771D01*
X91721276Y-108172732D01*
X90716412Y-107755476D01*
X89628362Y-107754526D01*
X88622771Y-108170028D01*
X88390000Y-108402393D01*
X88390000Y-101914802D01*
X89214802Y-101090000D01*
X93980000Y-101090000D01*
X94270839Y-101032148D01*
X94517401Y-100867401D01*
X97057401Y-98327401D01*
X97222148Y-98080840D01*
X97242843Y-97976799D01*
X97280000Y-97790000D01*
X97280000Y-95564802D01*
X98104802Y-94740000D01*
X100442048Y-94740000D01*
X100335220Y-94997272D01*
X100334781Y-95500520D01*
X100526960Y-95965629D01*
X100840000Y-96279217D01*
X100840000Y-97790000D01*
X100897852Y-98080839D01*
X101062599Y-98327401D01*
X101793514Y-99058316D01*
X101776140Y-99052300D01*
X101273778Y-99082154D01*
X100948313Y-99216966D01*
X100895099Y-99445494D01*
X101600000Y-100150395D01*
X101614143Y-100136253D01*
X101793748Y-100315858D01*
X101779605Y-100330000D01*
X101793748Y-100344143D01*
X101614143Y-100523748D01*
X101600000Y-100509605D01*
X101585858Y-100523748D01*
X101406253Y-100344143D01*
X101420395Y-100330000D01*
X100715494Y-99625099D01*
X100486966Y-99678313D01*
X100322300Y-100153860D01*
X100352154Y-100656222D01*
X100428277Y-100840000D01*
X97790000Y-100840000D01*
X97499160Y-100897852D01*
X97252599Y-101062599D01*
X95982599Y-102332599D01*
X95817852Y-102579161D01*
X95760000Y-102870000D01*
X95760000Y-130495198D01*
X94935198Y-131320000D01*
X89085047Y-131320000D01*
X89016894Y-131155057D01*
X88557363Y-130694722D01*
X87956648Y-130445284D01*
X87306205Y-130444716D01*
X86705057Y-130693106D01*
X86244722Y-131152637D01*
X85995284Y-131753352D01*
X85994716Y-132403795D01*
X86243106Y-133004943D01*
X86702637Y-133465278D01*
X87303352Y-133714716D01*
X87953795Y-133715284D01*
X88554943Y-133466894D01*
X89015278Y-133007363D01*
X89084773Y-132840000D01*
X95250000Y-132840000D01*
X95540839Y-132782148D01*
X95787401Y-132617401D01*
X97030000Y-131374802D01*
X97030000Y-148275198D01*
X96205198Y-149100000D01*
X89085047Y-149100000D01*
X89016894Y-148935057D01*
X88557363Y-148474722D01*
X87956648Y-148225284D01*
X87306205Y-148224716D01*
X86705057Y-148473106D01*
X86244722Y-148932637D01*
X85995284Y-149533352D01*
X85994716Y-150183795D01*
X86243106Y-150784943D01*
X86702637Y-151245278D01*
X87303352Y-151494716D01*
X87953795Y-151495284D01*
X88554943Y-151246894D01*
X89015278Y-150787363D01*
X89084773Y-150620000D01*
X96520000Y-150620000D01*
X96810839Y-150562148D01*
X97057401Y-150397401D01*
X98327401Y-149127401D01*
X98492148Y-148880840D01*
X98550000Y-148590000D01*
X98550000Y-146050000D01*
X98815907Y-146050000D01*
X98928946Y-146618285D01*
X99250853Y-147100054D01*
X99580026Y-147320000D01*
X99250853Y-147539946D01*
X98928946Y-148021715D01*
X98815907Y-148590000D01*
X98928946Y-149158285D01*
X99250853Y-149640054D01*
X99591553Y-149867702D01*
X99448642Y-149934817D01*
X99058355Y-150363076D01*
X98888524Y-150773110D01*
X99009845Y-151003000D01*
X100203000Y-151003000D01*
X100203000Y-150983000D01*
X100457000Y-150983000D01*
X100457000Y-151003000D01*
X101650155Y-151003000D01*
X101722739Y-150865461D01*
X111384092Y-150865461D01*
X111408144Y-151515460D01*
X111610613Y-152004264D01*
X111877468Y-152102927D01*
X112850395Y-151130000D01*
X113209605Y-151130000D01*
X114182532Y-152102927D01*
X114449387Y-152004264D01*
X114675908Y-151394539D01*
X114651856Y-150744540D01*
X114449387Y-150255736D01*
X114182532Y-150157073D01*
X113209605Y-151130000D01*
X112850395Y-151130000D01*
X111877468Y-150157073D01*
X111610613Y-150255736D01*
X111384092Y-150865461D01*
X101722739Y-150865461D01*
X101771476Y-150773110D01*
X101601645Y-150363076D01*
X101211358Y-149934817D01*
X101068447Y-149867702D01*
X101409147Y-149640054D01*
X101731054Y-149158285D01*
X101844093Y-148590000D01*
X101731054Y-148021715D01*
X101409147Y-147539946D01*
X101079974Y-147320000D01*
X101409147Y-147100054D01*
X101731054Y-146618285D01*
X101844093Y-146050000D01*
X101731054Y-145481715D01*
X101409147Y-144999946D01*
X100927378Y-144678039D01*
X100359093Y-144565000D01*
X100300907Y-144565000D01*
X99732622Y-144678039D01*
X99250853Y-144999946D01*
X98928946Y-145481715D01*
X98815907Y-146050000D01*
X98550000Y-146050000D01*
X98550000Y-122234802D01*
X105217405Y-115567397D01*
X105216887Y-115570000D01*
X105326120Y-116119151D01*
X105637189Y-116584698D01*
X106019275Y-116840000D01*
X105637189Y-117095302D01*
X105326120Y-117560849D01*
X105216887Y-118110000D01*
X105281312Y-118433886D01*
X103602599Y-120112599D01*
X103437852Y-120359161D01*
X103380000Y-120650000D01*
X103380000Y-146050000D01*
X103437852Y-146340839D01*
X103602599Y-146587401D01*
X105113725Y-148098527D01*
X105045284Y-148263352D01*
X105044716Y-148913795D01*
X105293106Y-149514943D01*
X105752637Y-149975278D01*
X106353352Y-150224716D01*
X107003795Y-150225284D01*
X107603553Y-149977468D01*
X112057073Y-149977468D01*
X113030000Y-150950395D01*
X114002927Y-149977468D01*
X113904264Y-149710613D01*
X113294539Y-149484092D01*
X112644540Y-149508144D01*
X112155736Y-149710613D01*
X112057073Y-149977468D01*
X107603553Y-149977468D01*
X107604943Y-149976894D01*
X108065278Y-149517363D01*
X108314716Y-148916648D01*
X108315284Y-148266205D01*
X108066894Y-147665057D01*
X107607363Y-147204722D01*
X107006648Y-146955284D01*
X106356205Y-146954716D01*
X106188721Y-147023919D01*
X105756440Y-146591638D01*
X107754526Y-146591638D01*
X108170028Y-147597229D01*
X108938724Y-148367268D01*
X109943588Y-148784524D01*
X111031638Y-148785474D01*
X112037229Y-148369972D01*
X112807268Y-147601276D01*
X113224524Y-146596412D01*
X113225474Y-145508362D01*
X112809972Y-144502771D01*
X112041276Y-143732732D01*
X111036412Y-143315476D01*
X109948362Y-143314526D01*
X108942771Y-143730028D01*
X108172732Y-144498724D01*
X107755476Y-145503588D01*
X107754526Y-146591638D01*
X105756440Y-146591638D01*
X104900000Y-145735198D01*
X104900000Y-135772532D01*
X112057073Y-135772532D01*
X112155736Y-136039387D01*
X112765461Y-136265908D01*
X113415460Y-136241856D01*
X113904264Y-136039387D01*
X114002927Y-135772532D01*
X113030000Y-134799605D01*
X112057073Y-135772532D01*
X104900000Y-135772532D01*
X104900000Y-134355461D01*
X111384092Y-134355461D01*
X111408144Y-135005460D01*
X111610613Y-135494264D01*
X111877468Y-135592927D01*
X112850395Y-134620000D01*
X113209605Y-134620000D01*
X114182532Y-135592927D01*
X114449387Y-135494264D01*
X114675908Y-134884539D01*
X114652914Y-134263110D01*
X119208524Y-134263110D01*
X119329845Y-134493000D01*
X120523000Y-134493000D01*
X120523000Y-133299181D01*
X120777000Y-133299181D01*
X120777000Y-134493000D01*
X121970155Y-134493000D01*
X122091476Y-134263110D01*
X121921645Y-133853076D01*
X121531358Y-133424817D01*
X121006892Y-133178514D01*
X120777000Y-133299181D01*
X120523000Y-133299181D01*
X120293108Y-133178514D01*
X119768642Y-133424817D01*
X119378355Y-133853076D01*
X119208524Y-134263110D01*
X114652914Y-134263110D01*
X114651856Y-134234540D01*
X114449387Y-133745736D01*
X114182532Y-133647073D01*
X113209605Y-134620000D01*
X112850395Y-134620000D01*
X111877468Y-133647073D01*
X111610613Y-133745736D01*
X111384092Y-134355461D01*
X104900000Y-134355461D01*
X104900000Y-120964802D01*
X105217405Y-120647397D01*
X105216887Y-120650000D01*
X105326120Y-121199151D01*
X105637189Y-121664698D01*
X106102736Y-121975767D01*
X106651887Y-122085000D01*
X106708113Y-122085000D01*
X107257264Y-121975767D01*
X107722811Y-121664698D01*
X108033880Y-121199151D01*
X108143113Y-120650000D01*
X108033880Y-120100849D01*
X107722811Y-119635302D01*
X107340725Y-119380000D01*
X107722811Y-119124698D01*
X108033880Y-118659151D01*
X108143113Y-118110000D01*
X108142595Y-118107397D01*
X108460000Y-118424802D01*
X108460000Y-124145198D01*
X106142599Y-126462599D01*
X105977852Y-126709161D01*
X105920000Y-127000000D01*
X105920000Y-130624953D01*
X105755057Y-130693106D01*
X105294722Y-131152637D01*
X105045284Y-131753352D01*
X105044716Y-132403795D01*
X105293106Y-133004943D01*
X105752637Y-133465278D01*
X106353352Y-133714716D01*
X107003795Y-133715284D01*
X107603553Y-133467468D01*
X112057073Y-133467468D01*
X113030000Y-134440395D01*
X114002927Y-133467468D01*
X113904264Y-133200613D01*
X113294539Y-132974092D01*
X112644540Y-132998144D01*
X112155736Y-133200613D01*
X112057073Y-133467468D01*
X107603553Y-133467468D01*
X107604943Y-133466894D01*
X108065278Y-133007363D01*
X108314716Y-132406648D01*
X108315284Y-131756205D01*
X108066894Y-131155057D01*
X107607363Y-130694722D01*
X107440000Y-130625227D01*
X107440000Y-130081638D01*
X107754526Y-130081638D01*
X108170028Y-131087229D01*
X108938724Y-131857268D01*
X109943588Y-132274524D01*
X111031638Y-132275474D01*
X112037229Y-131859972D01*
X112807268Y-131091276D01*
X113224524Y-130086412D01*
X113225474Y-128998362D01*
X112809972Y-127992771D01*
X112041276Y-127222732D01*
X111036412Y-126805476D01*
X109948362Y-126804526D01*
X108942771Y-127220028D01*
X108172732Y-127988724D01*
X107755476Y-128993588D01*
X107754526Y-130081638D01*
X107440000Y-130081638D01*
X107440000Y-127314802D01*
X109757401Y-124997401D01*
X109922148Y-124750840D01*
X109931746Y-124702586D01*
X109980000Y-124460000D01*
X109980000Y-118110000D01*
X109922148Y-117819161D01*
X109922148Y-117819160D01*
X109757401Y-117572599D01*
X108078688Y-115893886D01*
X108143113Y-115570000D01*
X108033880Y-115020849D01*
X107722811Y-114555302D01*
X107340725Y-114300000D01*
X107722811Y-114044698D01*
X108033880Y-113579151D01*
X108143113Y-113030000D01*
X108033880Y-112480849D01*
X107722811Y-112015302D01*
X107340725Y-111760000D01*
X107722811Y-111504698D01*
X108033880Y-111039151D01*
X108143113Y-110490000D01*
X108033880Y-109940849D01*
X107722811Y-109475302D01*
X107340725Y-109220000D01*
X107722811Y-108964698D01*
X108033880Y-108499151D01*
X108143113Y-107950000D01*
X108142595Y-107947397D01*
X108682599Y-108487401D01*
X108929160Y-108652148D01*
X109220000Y-108710000D01*
X113087005Y-108710000D01*
X113257189Y-108964698D01*
X113639275Y-109220000D01*
X113257189Y-109475302D01*
X112946120Y-109940849D01*
X112836887Y-110490000D01*
X112946120Y-111039151D01*
X113257189Y-111504698D01*
X113639275Y-111760000D01*
X113257189Y-112015302D01*
X112946120Y-112480849D01*
X112836887Y-113030000D01*
X112946120Y-113579151D01*
X113257189Y-114044698D01*
X113639275Y-114300000D01*
X113257189Y-114555302D01*
X112946120Y-115020849D01*
X112836887Y-115570000D01*
X112938332Y-116080000D01*
X112074802Y-116080000D01*
X110155122Y-114160320D01*
X110155162Y-114114833D01*
X110013117Y-113771057D01*
X109750327Y-113507808D01*
X109406799Y-113365162D01*
X109034833Y-113364838D01*
X108691057Y-113506883D01*
X108427808Y-113769673D01*
X108285162Y-114113201D01*
X108284838Y-114485167D01*
X108426883Y-114828943D01*
X108689673Y-115092192D01*
X109033201Y-115234838D01*
X109080077Y-115234879D01*
X111222599Y-117377401D01*
X111469160Y-117542148D01*
X111517414Y-117551746D01*
X111760000Y-117600000D01*
X112938332Y-117600000D01*
X112836887Y-118110000D01*
X112946120Y-118659151D01*
X113257189Y-119124698D01*
X113639275Y-119380000D01*
X113257189Y-119635302D01*
X112946120Y-120100849D01*
X112836887Y-120650000D01*
X112946120Y-121199151D01*
X113257189Y-121664698D01*
X113722736Y-121975767D01*
X114271887Y-122085000D01*
X114328113Y-122085000D01*
X114605102Y-122029904D01*
X116302599Y-123727401D01*
X116549160Y-123892148D01*
X116597414Y-123901746D01*
X116840000Y-123950000D01*
X121357537Y-123950000D01*
X121389673Y-123982192D01*
X121733201Y-124124838D01*
X122105167Y-124125162D01*
X122430000Y-123990944D01*
X122430000Y-143195198D01*
X120996969Y-144628229D01*
X120679093Y-144565000D01*
X120620907Y-144565000D01*
X120052622Y-144678039D01*
X119570853Y-144999946D01*
X119248946Y-145481715D01*
X119135907Y-146050000D01*
X119248946Y-146618285D01*
X119570853Y-147100054D01*
X119911553Y-147327702D01*
X119768642Y-147394817D01*
X119378355Y-147823076D01*
X119208524Y-148233110D01*
X119329844Y-148462998D01*
X119165000Y-148462998D01*
X119165000Y-148570198D01*
X118870000Y-148275198D01*
X118870000Y-140014802D01*
X120227362Y-138657440D01*
X121500000Y-138657440D01*
X121735317Y-138613162D01*
X121951441Y-138474090D01*
X122096431Y-138261890D01*
X122147440Y-138010000D01*
X122147440Y-136310000D01*
X122103162Y-136074683D01*
X121964090Y-135858559D01*
X121751890Y-135713569D01*
X121643893Y-135691699D01*
X121921645Y-135386924D01*
X122091476Y-134976890D01*
X121970155Y-134747000D01*
X120777000Y-134747000D01*
X120777000Y-134767000D01*
X120523000Y-134767000D01*
X120523000Y-134747000D01*
X119329845Y-134747000D01*
X119208524Y-134976890D01*
X119378355Y-135386924D01*
X119654501Y-135689937D01*
X119564683Y-135706838D01*
X119348559Y-135845910D01*
X119203569Y-136058110D01*
X119152560Y-136310000D01*
X119152560Y-137582638D01*
X117572599Y-139162599D01*
X117407852Y-139409161D01*
X117350000Y-139700000D01*
X117350000Y-148590000D01*
X117407852Y-148880839D01*
X117572599Y-149127401D01*
X119152560Y-150707362D01*
X119152560Y-151552638D01*
X117795198Y-152910000D01*
X101827440Y-152910000D01*
X101827440Y-152820000D01*
X101783162Y-152584683D01*
X101644090Y-152368559D01*
X101518186Y-152282532D01*
X112057073Y-152282532D01*
X112155736Y-152549387D01*
X112765461Y-152775908D01*
X113415460Y-152751856D01*
X113904264Y-152549387D01*
X114002927Y-152282532D01*
X113030000Y-151309605D01*
X112057073Y-152282532D01*
X101518186Y-152282532D01*
X101431890Y-152223569D01*
X101323893Y-152201699D01*
X101601645Y-151896924D01*
X101771476Y-151486890D01*
X101650155Y-151257000D01*
X100457000Y-151257000D01*
X100457000Y-151277000D01*
X100203000Y-151277000D01*
X100203000Y-151257000D01*
X99009845Y-151257000D01*
X98888524Y-151486890D01*
X99058355Y-151896924D01*
X99334501Y-152199937D01*
X99244683Y-152216838D01*
X99028559Y-152355910D01*
X98883569Y-152568110D01*
X98832560Y-152820000D01*
X98832560Y-154520000D01*
X98876838Y-154755317D01*
X99015910Y-154971441D01*
X99228110Y-155116431D01*
X99480000Y-155167440D01*
X101180000Y-155167440D01*
X101415317Y-155123162D01*
X101631441Y-154984090D01*
X101776431Y-154771890D01*
X101827440Y-154520000D01*
X101827440Y-154430000D01*
X118110000Y-154430000D01*
X118400839Y-154372148D01*
X118647401Y-154207401D01*
X120227362Y-152627440D01*
X121500000Y-152627440D01*
X121735317Y-152583162D01*
X121951441Y-152444090D01*
X122096431Y-152231890D01*
X122147440Y-151980000D01*
X122147440Y-150280000D01*
X122103162Y-150044683D01*
X121964090Y-149828559D01*
X121838186Y-149742532D01*
X134917073Y-149742532D01*
X135015736Y-150009387D01*
X135625461Y-150235908D01*
X136275460Y-150211856D01*
X136764264Y-150009387D01*
X136862927Y-149742532D01*
X135890000Y-148769605D01*
X134917073Y-149742532D01*
X121838186Y-149742532D01*
X121751890Y-149683569D01*
X121643893Y-149661699D01*
X121921645Y-149356924D01*
X122091476Y-148946890D01*
X121970155Y-148717000D01*
X120777000Y-148717000D01*
X120777000Y-148737000D01*
X120523000Y-148737000D01*
X120523000Y-148717000D01*
X120503000Y-148717000D01*
X120503000Y-148463000D01*
X120523000Y-148463000D01*
X120523000Y-148443000D01*
X120777000Y-148443000D01*
X120777000Y-148463000D01*
X121970155Y-148463000D01*
X122091476Y-148233110D01*
X121921645Y-147823076D01*
X121531358Y-147394817D01*
X121388447Y-147327702D01*
X121729147Y-147100054D01*
X122051054Y-146618285D01*
X122056354Y-146591638D01*
X128074526Y-146591638D01*
X128490028Y-147597229D01*
X129258724Y-148367268D01*
X130263588Y-148784524D01*
X131351638Y-148785474D01*
X132357229Y-148369972D01*
X132401817Y-148325461D01*
X134244092Y-148325461D01*
X134268144Y-148975460D01*
X134470613Y-149464264D01*
X134737468Y-149562927D01*
X135710395Y-148590000D01*
X136069605Y-148590000D01*
X137042532Y-149562927D01*
X137309387Y-149464264D01*
X137535908Y-148854539D01*
X137511856Y-148204540D01*
X137309387Y-147715736D01*
X137042532Y-147617073D01*
X136069605Y-148590000D01*
X135710395Y-148590000D01*
X134737468Y-147617073D01*
X134470613Y-147715736D01*
X134244092Y-148325461D01*
X132401817Y-148325461D01*
X133127268Y-147601276D01*
X133195287Y-147437468D01*
X134917073Y-147437468D01*
X135890000Y-148410395D01*
X136862927Y-147437468D01*
X136764264Y-147170613D01*
X136154539Y-146944092D01*
X135504540Y-146968144D01*
X135015736Y-147170613D01*
X134917073Y-147437468D01*
X133195287Y-147437468D01*
X133544524Y-146596412D01*
X133545474Y-145508362D01*
X133129972Y-144502771D01*
X132361276Y-143732732D01*
X131356412Y-143315476D01*
X130268362Y-143314526D01*
X129262771Y-143730028D01*
X128492732Y-144498724D01*
X128075476Y-145503588D01*
X128074526Y-146591638D01*
X122056354Y-146591638D01*
X122164093Y-146050000D01*
X122091210Y-145683592D01*
X123727401Y-144047401D01*
X123892148Y-143800840D01*
X123926748Y-143626894D01*
X123950000Y-143510000D01*
X123950000Y-123990633D01*
X124273201Y-124124838D01*
X124645167Y-124125162D01*
X124988943Y-123983117D01*
X125022118Y-123950000D01*
X125415198Y-123950000D01*
X126240000Y-124774802D01*
X126240000Y-140970000D01*
X126297852Y-141260839D01*
X126462599Y-141507401D01*
X127732599Y-142777401D01*
X127979160Y-142942148D01*
X128270000Y-143000000D01*
X131894953Y-143000000D01*
X131963106Y-143164943D01*
X132422637Y-143625278D01*
X133023352Y-143874716D01*
X133673795Y-143875284D01*
X134274943Y-143626894D01*
X134735278Y-143167363D01*
X134984716Y-142566648D01*
X134985284Y-141916205D01*
X134736894Y-141315057D01*
X134277363Y-140854722D01*
X133676648Y-140605284D01*
X133026205Y-140604716D01*
X132425057Y-140853106D01*
X131964722Y-141312637D01*
X131895227Y-141480000D01*
X128584802Y-141480000D01*
X127760000Y-140655198D01*
X127760000Y-131962532D01*
X134917073Y-131962532D01*
X135015736Y-132229387D01*
X135625461Y-132455908D01*
X136275460Y-132431856D01*
X136764264Y-132229387D01*
X136862927Y-131962532D01*
X135890000Y-130989605D01*
X134917073Y-131962532D01*
X127760000Y-131962532D01*
X127760000Y-128811638D01*
X128074526Y-128811638D01*
X128490028Y-129817229D01*
X129258724Y-130587268D01*
X130263588Y-131004524D01*
X131351638Y-131005474D01*
X132357229Y-130589972D01*
X132401817Y-130545461D01*
X134244092Y-130545461D01*
X134268144Y-131195460D01*
X134470613Y-131684264D01*
X134737468Y-131782927D01*
X135710395Y-130810000D01*
X136069605Y-130810000D01*
X137042532Y-131782927D01*
X137309387Y-131684264D01*
X137535908Y-131074539D01*
X137511856Y-130424540D01*
X137309387Y-129935736D01*
X137042532Y-129837073D01*
X136069605Y-130810000D01*
X135710395Y-130810000D01*
X134737468Y-129837073D01*
X134470613Y-129935736D01*
X134244092Y-130545461D01*
X132401817Y-130545461D01*
X133127268Y-129821276D01*
X133195287Y-129657468D01*
X134917073Y-129657468D01*
X135890000Y-130630395D01*
X136862927Y-129657468D01*
X136764264Y-129390613D01*
X136154539Y-129164092D01*
X135504540Y-129188144D01*
X135015736Y-129390613D01*
X134917073Y-129657468D01*
X133195287Y-129657468D01*
X133544524Y-128816412D01*
X133545474Y-127728362D01*
X133129972Y-126722771D01*
X132361276Y-125952732D01*
X131356412Y-125535476D01*
X130268362Y-125534526D01*
X129262771Y-125950028D01*
X128492732Y-126718724D01*
X128075476Y-127723588D01*
X128074526Y-128811638D01*
X127760000Y-128811638D01*
X127760000Y-124460000D01*
X127702148Y-124169161D01*
X127702148Y-124169160D01*
X127537401Y-123922599D01*
X126267401Y-122652599D01*
X126020839Y-122487852D01*
X125730000Y-122430000D01*
X125022463Y-122430000D01*
X124990327Y-122397808D01*
X124646799Y-122255162D01*
X124274833Y-122254838D01*
X123950000Y-122389056D01*
X123950000Y-121450633D01*
X124273201Y-121584838D01*
X124645167Y-121585162D01*
X124988943Y-121443117D01*
X125022118Y-121410000D01*
X131765198Y-121410000D01*
X132590000Y-122234802D01*
X132590000Y-123004953D01*
X132425057Y-123073106D01*
X131964722Y-123532637D01*
X131715284Y-124133352D01*
X131714716Y-124783795D01*
X131963106Y-125384943D01*
X132422637Y-125845278D01*
X133023352Y-126094716D01*
X133673795Y-126095284D01*
X134274943Y-125846894D01*
X134735278Y-125387363D01*
X134984716Y-124786648D01*
X134985284Y-124136205D01*
X134736894Y-123535057D01*
X134277363Y-123074722D01*
X134110000Y-123005227D01*
X134110000Y-121920000D01*
X134052148Y-121629161D01*
X134052148Y-121629160D01*
X133887401Y-121382599D01*
X132617401Y-120112599D01*
X132370839Y-119947852D01*
X132080000Y-119890000D01*
X125022463Y-119890000D01*
X124990327Y-119857808D01*
X124646799Y-119715162D01*
X124274833Y-119714838D01*
X123950000Y-119849056D01*
X123950000Y-115570000D01*
X123892148Y-115279161D01*
X123892148Y-115279160D01*
X123727401Y-115032599D01*
X122877334Y-114182532D01*
X134917073Y-114182532D01*
X135015736Y-114449387D01*
X135625461Y-114675908D01*
X136275460Y-114651856D01*
X136764264Y-114449387D01*
X136862927Y-114182532D01*
X135890000Y-113209605D01*
X134917073Y-114182532D01*
X122877334Y-114182532D01*
X122091210Y-113396408D01*
X122164093Y-113030000D01*
X122051054Y-112461715D01*
X121729147Y-111979946D01*
X121410000Y-111766699D01*
X121410000Y-111031638D01*
X128074526Y-111031638D01*
X128490028Y-112037229D01*
X129258724Y-112807268D01*
X130263588Y-113224524D01*
X131351638Y-113225474D01*
X132357229Y-112809972D01*
X132401817Y-112765461D01*
X134244092Y-112765461D01*
X134268144Y-113415460D01*
X134470613Y-113904264D01*
X134737468Y-114002927D01*
X135710395Y-113030000D01*
X136069605Y-113030000D01*
X137042532Y-114002927D01*
X137309387Y-113904264D01*
X137535908Y-113294539D01*
X137511856Y-112644540D01*
X137309387Y-112155736D01*
X137042532Y-112057073D01*
X136069605Y-113030000D01*
X135710395Y-113030000D01*
X134737468Y-112057073D01*
X134470613Y-112155736D01*
X134244092Y-112765461D01*
X132401817Y-112765461D01*
X133127268Y-112041276D01*
X133195287Y-111877468D01*
X134917073Y-111877468D01*
X135890000Y-112850395D01*
X136862927Y-111877468D01*
X136764264Y-111610613D01*
X136154539Y-111384092D01*
X135504540Y-111408144D01*
X135015736Y-111610613D01*
X134917073Y-111877468D01*
X133195287Y-111877468D01*
X133544524Y-111036412D01*
X133545474Y-109948362D01*
X133129972Y-108942771D01*
X132361276Y-108172732D01*
X131356412Y-107755476D01*
X130268362Y-107754526D01*
X129262771Y-108170028D01*
X128492732Y-108938724D01*
X128075476Y-109943588D01*
X128074526Y-111031638D01*
X121410000Y-111031638D01*
X121410000Y-109220000D01*
X121352148Y-108929161D01*
X121352148Y-108929160D01*
X121187401Y-108682599D01*
X120877440Y-108372638D01*
X120877440Y-107527362D01*
X122457401Y-105947401D01*
X122622148Y-105700840D01*
X122642843Y-105596799D01*
X122680000Y-105410000D01*
X122680000Y-101130633D01*
X123003201Y-101264838D01*
X123375167Y-101265162D01*
X123718943Y-101123117D01*
X123752118Y-101090000D01*
X125415198Y-101090000D01*
X126240000Y-101914802D01*
X126240000Y-105410000D01*
X126297852Y-105700839D01*
X126462599Y-105947401D01*
X127732599Y-107217401D01*
X127979160Y-107382148D01*
X128270000Y-107440000D01*
X131894953Y-107440000D01*
X131963106Y-107604943D01*
X132422637Y-108065278D01*
X133023352Y-108314716D01*
X133673795Y-108315284D01*
X134274943Y-108066894D01*
X134735278Y-107607363D01*
X134984716Y-107006648D01*
X134985284Y-106356205D01*
X134736894Y-105755057D01*
X134277363Y-105294722D01*
X133676648Y-105045284D01*
X133026205Y-105044716D01*
X132425057Y-105293106D01*
X131964722Y-105752637D01*
X131895227Y-105920000D01*
X128584802Y-105920000D01*
X127760000Y-105095198D01*
X127760000Y-101600000D01*
X127702148Y-101309161D01*
X127702148Y-101309160D01*
X127537401Y-101062599D01*
X126267401Y-99792599D01*
X126121333Y-99695000D01*
X126267401Y-99597401D01*
X127537401Y-98327401D01*
X127702148Y-98080840D01*
X127760000Y-97790000D01*
X127760000Y-96402532D01*
X134917073Y-96402532D01*
X135015736Y-96669387D01*
X135625461Y-96895908D01*
X136275460Y-96871856D01*
X136764264Y-96669387D01*
X136862927Y-96402532D01*
X135890000Y-95429605D01*
X134917073Y-96402532D01*
X127760000Y-96402532D01*
X127760000Y-93251638D01*
X128074526Y-93251638D01*
X128490028Y-94257229D01*
X129258724Y-95027268D01*
X130263588Y-95444524D01*
X131351638Y-95445474D01*
X132357229Y-95029972D01*
X132401817Y-94985461D01*
X134244092Y-94985461D01*
X134268144Y-95635460D01*
X134470613Y-96124264D01*
X134737468Y-96222927D01*
X135710395Y-95250000D01*
X136069605Y-95250000D01*
X137042532Y-96222927D01*
X137309387Y-96124264D01*
X137535908Y-95514539D01*
X137511856Y-94864540D01*
X137309387Y-94375736D01*
X137042532Y-94277073D01*
X136069605Y-95250000D01*
X135710395Y-95250000D01*
X134737468Y-94277073D01*
X134470613Y-94375736D01*
X134244092Y-94985461D01*
X132401817Y-94985461D01*
X133127268Y-94261276D01*
X133195287Y-94097468D01*
X134917073Y-94097468D01*
X135890000Y-95070395D01*
X136862927Y-94097468D01*
X136764264Y-93830613D01*
X136154539Y-93604092D01*
X135504540Y-93628144D01*
X135015736Y-93830613D01*
X134917073Y-94097468D01*
X133195287Y-94097468D01*
X133544524Y-93256412D01*
X133545474Y-92168362D01*
X133129972Y-91162771D01*
X132361276Y-90392732D01*
X131356412Y-89975476D01*
X130268362Y-89974526D01*
X129262771Y-90390028D01*
X128492732Y-91158724D01*
X128075476Y-92163588D01*
X128074526Y-93251638D01*
X127760000Y-93251638D01*
X127760000Y-90484802D01*
X128584802Y-89660000D01*
X131894953Y-89660000D01*
X131963106Y-89824943D01*
X132422637Y-90285278D01*
X133023352Y-90534716D01*
X133673795Y-90535284D01*
X134274943Y-90286894D01*
X134735278Y-89827363D01*
X134984716Y-89226648D01*
X134985284Y-88576205D01*
X134736894Y-87975057D01*
X134277363Y-87514722D01*
X133676648Y-87265284D01*
X133026205Y-87264716D01*
X132425057Y-87513106D01*
X131964722Y-87972637D01*
X131895227Y-88140000D01*
X128270000Y-88140000D01*
X127979160Y-88197852D01*
X127732599Y-88362599D01*
X126490000Y-89605198D01*
X126490000Y-78622532D01*
X134917073Y-78622532D01*
X135015736Y-78889387D01*
X135625461Y-79115908D01*
X136275460Y-79091856D01*
X136764264Y-78889387D01*
X136862927Y-78622532D01*
X135890000Y-77649605D01*
X134917073Y-78622532D01*
X126490000Y-78622532D01*
X126490000Y-75471638D01*
X128074526Y-75471638D01*
X128490028Y-76477229D01*
X129258724Y-77247268D01*
X130263588Y-77664524D01*
X131351638Y-77665474D01*
X132357229Y-77249972D01*
X132401817Y-77205461D01*
X134244092Y-77205461D01*
X134268144Y-77855460D01*
X134470613Y-78344264D01*
X134737468Y-78442927D01*
X135710395Y-77470000D01*
X136069605Y-77470000D01*
X137042532Y-78442927D01*
X137309387Y-78344264D01*
X137535908Y-77734539D01*
X137511856Y-77084540D01*
X137309387Y-76595736D01*
X137042532Y-76497073D01*
X136069605Y-77470000D01*
X135710395Y-77470000D01*
X134737468Y-76497073D01*
X134470613Y-76595736D01*
X134244092Y-77205461D01*
X132401817Y-77205461D01*
X133127268Y-76481276D01*
X133195287Y-76317468D01*
X134917073Y-76317468D01*
X135890000Y-77290395D01*
X136862927Y-76317468D01*
X136764264Y-76050613D01*
X136154539Y-75824092D01*
X135504540Y-75848144D01*
X135015736Y-76050613D01*
X134917073Y-76317468D01*
X133195287Y-76317468D01*
X133544524Y-75476412D01*
X133545474Y-74388362D01*
X133129972Y-73382771D01*
X132361276Y-72612732D01*
X131356412Y-72195476D01*
X130268362Y-72194526D01*
X129262771Y-72610028D01*
X128492732Y-73378724D01*
X128075476Y-74383588D01*
X128074526Y-75471638D01*
X126490000Y-75471638D01*
X126490000Y-72704802D01*
X127314802Y-71880000D01*
X131894953Y-71880000D01*
X131963106Y-72044943D01*
X132422637Y-72505278D01*
X133023352Y-72754716D01*
X133673795Y-72755284D01*
X134274943Y-72506894D01*
X134735278Y-72047363D01*
X134984716Y-71446648D01*
X134985284Y-70796205D01*
X134736894Y-70195057D01*
X134277363Y-69734722D01*
X133676648Y-69485284D01*
X133026205Y-69484716D01*
X132425057Y-69733106D01*
X131964722Y-70192637D01*
X131895227Y-70360000D01*
X127000000Y-70360000D01*
X126709160Y-70417852D01*
X126462599Y-70582599D01*
X125192599Y-71852599D01*
X125027852Y-72099161D01*
X124970000Y-72390000D01*
X124970000Y-96205198D01*
X124145198Y-97030000D01*
X123752463Y-97030000D01*
X123720327Y-96997808D01*
X123376799Y-96855162D01*
X123004833Y-96854838D01*
X122680000Y-96989056D01*
X122680000Y-82550000D01*
X122622148Y-82259161D01*
X122622148Y-82259160D01*
X122457401Y-82012599D01*
X121187401Y-80742599D01*
X120940839Y-80577852D01*
X120650000Y-80520000D01*
X119607440Y-80520000D01*
X119607440Y-80430000D01*
X119563162Y-80194683D01*
X119424090Y-79978559D01*
X119211890Y-79833569D01*
X119144459Y-79819914D01*
X119189147Y-79790054D01*
X119511054Y-79308285D01*
X119624093Y-78740000D01*
X119511054Y-78171715D01*
X119189147Y-77689946D01*
X118870000Y-77476699D01*
X118870000Y-73662954D01*
X119160054Y-73469147D01*
X119189403Y-73425223D01*
X119261673Y-73599698D01*
X119440301Y-73778327D01*
X119673690Y-73875000D01*
X120364250Y-73875000D01*
X120523000Y-73716250D01*
X120523000Y-72517000D01*
X120777000Y-72517000D01*
X120777000Y-73716250D01*
X120935750Y-73875000D01*
X121626310Y-73875000D01*
X121859699Y-73778327D01*
X122038327Y-73599698D01*
X122135000Y-73366309D01*
X122135000Y-72675750D01*
X121976250Y-72517000D01*
X120777000Y-72517000D01*
X120523000Y-72517000D01*
X120503000Y-72517000D01*
X120503000Y-72263000D01*
X120523000Y-72263000D01*
X120523000Y-71063750D01*
X120777000Y-71063750D01*
X120777000Y-72263000D01*
X121976250Y-72263000D01*
X122135000Y-72104250D01*
X122135000Y-71413691D01*
X122038327Y-71180302D01*
X121859699Y-71001673D01*
X121626310Y-70905000D01*
X120935750Y-70905000D01*
X120777000Y-71063750D01*
X120523000Y-71063750D01*
X120364250Y-70905000D01*
X119673690Y-70905000D01*
X119440301Y-71001673D01*
X119261673Y-71180302D01*
X119189403Y-71354777D01*
X119160054Y-71310853D01*
X118678285Y-70988946D01*
X118110000Y-70875907D01*
X117541715Y-70988946D01*
X117059946Y-71310853D01*
X116738039Y-71792622D01*
X116625000Y-72360907D01*
X116625000Y-72419093D01*
X116738039Y-72987378D01*
X117059946Y-73469147D01*
X117350000Y-73662954D01*
X117350000Y-77476699D01*
X117030853Y-77689946D01*
X116708946Y-78171715D01*
X116595907Y-78740000D01*
X116708946Y-79308285D01*
X117030853Y-79790054D01*
X117072452Y-79817850D01*
X117024683Y-79826838D01*
X116808559Y-79965910D01*
X116663569Y-80178110D01*
X116612560Y-80430000D01*
X116612560Y-80520000D01*
X116125710Y-80520000D01*
X116272148Y-80300840D01*
X116330000Y-80010000D01*
X116330000Y-74930000D01*
X116272148Y-74639161D01*
X116272148Y-74639160D01*
X116107401Y-74392599D01*
X114837401Y-73122599D01*
X114590839Y-72957852D01*
X114300000Y-72900000D01*
X113116352Y-72900000D01*
X113238112Y-72535028D01*
X113206217Y-72084625D01*
X113095217Y-71816648D01*
X112880104Y-71779501D01*
X112269605Y-72390000D01*
X112283748Y-72404143D01*
X112104143Y-72583748D01*
X112090000Y-72569605D01*
X112075858Y-72583748D01*
X111896253Y-72404143D01*
X111910395Y-72390000D01*
X111896253Y-72375858D01*
X112075858Y-72196253D01*
X112090000Y-72210395D01*
X112700499Y-71599896D01*
X112663352Y-71384783D01*
X112424900Y-71305232D01*
X112425197Y-70965225D01*
X112252767Y-70547914D01*
X111933765Y-70228355D01*
X111516756Y-70055197D01*
X111065225Y-70054803D01*
X110647914Y-70227233D01*
X110490004Y-70384867D01*
X110333765Y-70228355D01*
X109916756Y-70055197D01*
X109465225Y-70054803D01*
X109047914Y-70227233D01*
X108728355Y-70546235D01*
X108555197Y-70963244D01*
X108554903Y-71300387D01*
X108247914Y-71427233D01*
X107928355Y-71746235D01*
X107755197Y-72163244D01*
X107754803Y-72614775D01*
X107927233Y-73032086D01*
X108130000Y-73235207D01*
X108130000Y-73330000D01*
X108187852Y-73620839D01*
X108352599Y-73867401D01*
X108682599Y-74197401D01*
X108929160Y-74362148D01*
X108977414Y-74371746D01*
X109220000Y-74420000D01*
X113985198Y-74420000D01*
X114330716Y-74765518D01*
X114328113Y-74765000D01*
X114271887Y-74765000D01*
X113722736Y-74874233D01*
X113257189Y-75185302D01*
X113087005Y-75440000D01*
X113030000Y-75440000D01*
X112739160Y-75497852D01*
X112492599Y-75662599D01*
X111445198Y-76710000D01*
X108127440Y-76710000D01*
X108127440Y-75400000D01*
X108083162Y-75164683D01*
X107944090Y-74948559D01*
X107731890Y-74803569D01*
X107480000Y-74752560D01*
X105880000Y-74752560D01*
X105644683Y-74796838D01*
X105428559Y-74935910D01*
X105283569Y-75148110D01*
X105232560Y-75400000D01*
X105232560Y-75475295D01*
X105119160Y-75497852D01*
X104872599Y-75662599D01*
X104015679Y-76519519D01*
X103949147Y-76419946D01*
X103467378Y-76098039D01*
X102899093Y-75985000D01*
X102840907Y-75985000D01*
X102272622Y-76098039D01*
X101790853Y-76419946D01*
X101468946Y-76901715D01*
X101355907Y-77470000D01*
X101468946Y-78038285D01*
X101790853Y-78520054D01*
X101832452Y-78547850D01*
X101784683Y-78556838D01*
X101568559Y-78695910D01*
X101423569Y-78908110D01*
X101372560Y-79160000D01*
X101372560Y-80860000D01*
X101416838Y-81095317D01*
X101555910Y-81311441D01*
X101768110Y-81456431D01*
X102020000Y-81507440D01*
X103720000Y-81507440D01*
X103955317Y-81463162D01*
X104171441Y-81324090D01*
X104316431Y-81111890D01*
X104367440Y-80860000D01*
X104367440Y-79587362D01*
X105385873Y-78568929D01*
X105410085Y-78613000D01*
X106553000Y-78613000D01*
X106553000Y-78593000D01*
X106807000Y-78593000D01*
X106807000Y-78613000D01*
X107949915Y-78613000D01*
X108071904Y-78390961D01*
X108005236Y-78230000D01*
X111760000Y-78230000D01*
X112050839Y-78172148D01*
X112297401Y-78007401D01*
X113190264Y-77114538D01*
X113257189Y-77214698D01*
X113639275Y-77470000D01*
X113257189Y-77725302D01*
X112946120Y-78190849D01*
X112836887Y-78740000D01*
X112946120Y-79289151D01*
X113257189Y-79754698D01*
X113639275Y-80010000D01*
X113257189Y-80265302D01*
X112946120Y-80730849D01*
X112836887Y-81280000D01*
X112946120Y-81829151D01*
X113257189Y-82294698D01*
X113639275Y-82550000D01*
X113257189Y-82805302D01*
X112946120Y-83270849D01*
X112836887Y-83820000D01*
X112946120Y-84369151D01*
X113257189Y-84834698D01*
X113722736Y-85145767D01*
X114271887Y-85255000D01*
X114328113Y-85255000D01*
X114877264Y-85145767D01*
X115342811Y-84834698D01*
X115512995Y-84580000D01*
X117795198Y-84580000D01*
X118189634Y-84974436D01*
X118078559Y-85045910D01*
X117933569Y-85258110D01*
X117882560Y-85510000D01*
X117882560Y-87210000D01*
X117926838Y-87445317D01*
X118065910Y-87661441D01*
X118278110Y-87806431D01*
X118345541Y-87820086D01*
X118300853Y-87849946D01*
X117978946Y-88331715D01*
X117865907Y-88900000D01*
X117978946Y-89468285D01*
X118300853Y-89950054D01*
X118620000Y-90163301D01*
X118620000Y-91212560D01*
X118530000Y-91212560D01*
X118294683Y-91256838D01*
X118078559Y-91395910D01*
X117933569Y-91608110D01*
X117882560Y-91860000D01*
X117882560Y-93560000D01*
X117926838Y-93795317D01*
X118065910Y-94011441D01*
X118278110Y-94156431D01*
X118386107Y-94178301D01*
X118108355Y-94483076D01*
X117938524Y-94893110D01*
X118059845Y-95123000D01*
X119253000Y-95123000D01*
X119253000Y-95103000D01*
X119507000Y-95103000D01*
X119507000Y-95123000D01*
X120700155Y-95123000D01*
X120821476Y-94893110D01*
X120651645Y-94483076D01*
X120375499Y-94180063D01*
X120465317Y-94163162D01*
X120681441Y-94024090D01*
X120826431Y-93811890D01*
X120877440Y-93560000D01*
X120877440Y-91860000D01*
X120833162Y-91624683D01*
X120694090Y-91408559D01*
X120481890Y-91263569D01*
X120230000Y-91212560D01*
X120140000Y-91212560D01*
X120140000Y-90163301D01*
X120459147Y-89950054D01*
X120781054Y-89468285D01*
X120894093Y-88900000D01*
X120781054Y-88331715D01*
X120459147Y-87849946D01*
X120417548Y-87822150D01*
X120465317Y-87813162D01*
X120681441Y-87674090D01*
X120826431Y-87461890D01*
X120877440Y-87210000D01*
X120877440Y-85510000D01*
X120833162Y-85274683D01*
X120694090Y-85058559D01*
X120481890Y-84913569D01*
X120230000Y-84862560D01*
X120094759Y-84862560D01*
X120082148Y-84799160D01*
X119917401Y-84552599D01*
X118647401Y-83282599D01*
X118400839Y-83117852D01*
X118110000Y-83060000D01*
X115512995Y-83060000D01*
X115342811Y-82805302D01*
X114960725Y-82550000D01*
X115342811Y-82294698D01*
X115512995Y-82040000D01*
X116612560Y-82040000D01*
X116612560Y-82130000D01*
X116656838Y-82365317D01*
X116795910Y-82581441D01*
X117008110Y-82726431D01*
X117260000Y-82777440D01*
X118960000Y-82777440D01*
X119195317Y-82733162D01*
X119411441Y-82594090D01*
X119556431Y-82381890D01*
X119607440Y-82130000D01*
X119607440Y-82040000D01*
X120335198Y-82040000D01*
X121160000Y-82864802D01*
X121160000Y-96989367D01*
X120836799Y-96855162D01*
X120464833Y-96854838D01*
X120121057Y-96996883D01*
X120087882Y-97030000D01*
X118424802Y-97030000D01*
X117001692Y-95606890D01*
X117938524Y-95606890D01*
X118108355Y-96016924D01*
X118498642Y-96445183D01*
X119023108Y-96691486D01*
X119253000Y-96570819D01*
X119253000Y-95377000D01*
X119507000Y-95377000D01*
X119507000Y-96570819D01*
X119736892Y-96691486D01*
X120261358Y-96445183D01*
X120651645Y-96016924D01*
X120821476Y-95606890D01*
X120700155Y-95377000D01*
X119507000Y-95377000D01*
X119253000Y-95377000D01*
X118059845Y-95377000D01*
X117938524Y-95606890D01*
X117001692Y-95606890D01*
X116107401Y-94712599D01*
X115860839Y-94547852D01*
X115570000Y-94490000D01*
X115512995Y-94490000D01*
X115342811Y-94235302D01*
X114960725Y-93980000D01*
X115342811Y-93724698D01*
X115653880Y-93259151D01*
X115763113Y-92710000D01*
X115653880Y-92160849D01*
X115342811Y-91695302D01*
X114960725Y-91440000D01*
X115342811Y-91184698D01*
X115653880Y-90719151D01*
X115763113Y-90170000D01*
X115653880Y-89620849D01*
X115342811Y-89155302D01*
X114960725Y-88900000D01*
X115342811Y-88644698D01*
X115653880Y-88179151D01*
X115763113Y-87630000D01*
X115653880Y-87080849D01*
X115342811Y-86615302D01*
X114877264Y-86304233D01*
X114328113Y-86195000D01*
X114271887Y-86195000D01*
X113722736Y-86304233D01*
X113257189Y-86615302D01*
X113087005Y-86870000D01*
X111760000Y-86870000D01*
X111469160Y-86927852D01*
X111222599Y-87092599D01*
X109980000Y-88335198D01*
X109980000Y-82550000D01*
X109922148Y-82259161D01*
X109922148Y-82259160D01*
X109757401Y-82012599D01*
X108487401Y-80742599D01*
X108240839Y-80577852D01*
X107950000Y-80520000D01*
X107892995Y-80520000D01*
X107722811Y-80265302D01*
X107318297Y-79995014D01*
X107535134Y-79892389D01*
X107911041Y-79477423D01*
X108071904Y-79089039D01*
X107949915Y-78867000D01*
X106807000Y-78867000D01*
X106807000Y-78887000D01*
X106553000Y-78887000D01*
X106553000Y-78867000D01*
X105410085Y-78867000D01*
X105288096Y-79089039D01*
X105448959Y-79477423D01*
X105824866Y-79892389D01*
X106041703Y-79995014D01*
X105637189Y-80265302D01*
X105326120Y-80730849D01*
X105216887Y-81280000D01*
X105326120Y-81829151D01*
X105637189Y-82294698D01*
X106041703Y-82564986D01*
X105824866Y-82667611D01*
X105448959Y-83082577D01*
X105288096Y-83470961D01*
X105410085Y-83693000D01*
X106553000Y-83693000D01*
X106553000Y-83673000D01*
X106807000Y-83673000D01*
X106807000Y-83693000D01*
X107949915Y-83693000D01*
X108071904Y-83470961D01*
X107911041Y-83082577D01*
X107535134Y-82667611D01*
X107318297Y-82564986D01*
X107722811Y-82294698D01*
X107789736Y-82194538D01*
X108460000Y-82864802D01*
X108460000Y-94935198D01*
X108142595Y-95252603D01*
X108143113Y-95250000D01*
X108033880Y-94700849D01*
X107722811Y-94235302D01*
X107340725Y-93980000D01*
X107722811Y-93724698D01*
X108033880Y-93259151D01*
X108143113Y-92710000D01*
X108033880Y-92160849D01*
X107722811Y-91695302D01*
X107340725Y-91440000D01*
X107722811Y-91184698D01*
X108033880Y-90719151D01*
X108143113Y-90170000D01*
X108033880Y-89620849D01*
X107722811Y-89155302D01*
X107578535Y-89058899D01*
X107715317Y-89033162D01*
X107931441Y-88894090D01*
X108076431Y-88681890D01*
X108127440Y-88430000D01*
X108127440Y-86830000D01*
X108083162Y-86594683D01*
X107944090Y-86378559D01*
X107731890Y-86233569D01*
X107480000Y-86182560D01*
X105880000Y-86182560D01*
X105644683Y-86226838D01*
X105428559Y-86365910D01*
X105283569Y-86578110D01*
X105232560Y-86830000D01*
X105232560Y-88430000D01*
X105276838Y-88665317D01*
X105415910Y-88881441D01*
X105628110Y-89026431D01*
X105783089Y-89057815D01*
X105637189Y-89155302D01*
X105467005Y-89410000D01*
X94294802Y-89410000D01*
X93470000Y-88585198D01*
X93470000Y-80010000D01*
X93434905Y-79833569D01*
X93412148Y-79719160D01*
X93247401Y-79472599D01*
X91977401Y-78202599D01*
X91730839Y-78037852D01*
X91440000Y-77980000D01*
X89085047Y-77980000D01*
X89016894Y-77815057D01*
X88557363Y-77354722D01*
X87956648Y-77105284D01*
X87306205Y-77104716D01*
X86705057Y-77353106D01*
X86244722Y-77812637D01*
X85995284Y-78413352D01*
X85994716Y-79063795D01*
X83235000Y-79063795D01*
X83235000Y-75471638D01*
X87434526Y-75471638D01*
X87850028Y-76477229D01*
X88618724Y-77247268D01*
X89623588Y-77664524D01*
X90711638Y-77665474D01*
X91717229Y-77249972D01*
X92487268Y-76481276D01*
X92904524Y-75476412D01*
X92905474Y-74388362D01*
X92489972Y-73382771D01*
X91721276Y-72612732D01*
X91114815Y-72360907D01*
X98845000Y-72360907D01*
X98845000Y-72419093D01*
X98958039Y-72987378D01*
X99279946Y-73469147D01*
X99570000Y-73662954D01*
X99570000Y-83820000D01*
X99627852Y-84110839D01*
X99792599Y-84357401D01*
X101062599Y-85627401D01*
X101309160Y-85792148D01*
X101596593Y-85849322D01*
X101790853Y-86140054D01*
X101832452Y-86167850D01*
X101784683Y-86176838D01*
X101568559Y-86315910D01*
X101423569Y-86528110D01*
X101372560Y-86780000D01*
X101372560Y-88480000D01*
X101416838Y-88715317D01*
X101555910Y-88931441D01*
X101768110Y-89076431D01*
X102020000Y-89127440D01*
X103720000Y-89127440D01*
X103955317Y-89083162D01*
X104171441Y-88944090D01*
X104316431Y-88731890D01*
X104367440Y-88480000D01*
X104367440Y-86780000D01*
X104323162Y-86544683D01*
X104184090Y-86328559D01*
X103971890Y-86183569D01*
X103904459Y-86169914D01*
X103949147Y-86140054D01*
X104271054Y-85658285D01*
X104384093Y-85090000D01*
X104271054Y-84521715D01*
X104035404Y-84169039D01*
X105288096Y-84169039D01*
X105448959Y-84557423D01*
X105824866Y-84972389D01*
X106330959Y-85211914D01*
X106553000Y-85090629D01*
X106553000Y-83947000D01*
X106807000Y-83947000D01*
X106807000Y-85090629D01*
X107029041Y-85211914D01*
X107535134Y-84972389D01*
X107911041Y-84557423D01*
X108071904Y-84169039D01*
X107949915Y-83947000D01*
X106807000Y-83947000D01*
X106553000Y-83947000D01*
X105410085Y-83947000D01*
X105288096Y-84169039D01*
X104035404Y-84169039D01*
X103949147Y-84039946D01*
X103467378Y-83718039D01*
X102899093Y-83605000D01*
X102840907Y-83605000D01*
X102272622Y-83718039D01*
X101790853Y-84039946D01*
X101724321Y-84139519D01*
X101090000Y-83505198D01*
X101090000Y-73662954D01*
X101380054Y-73469147D01*
X101409403Y-73425223D01*
X101481673Y-73599698D01*
X101660301Y-73778327D01*
X101893690Y-73875000D01*
X102584250Y-73875000D01*
X102743000Y-73716250D01*
X102743000Y-72517000D01*
X102997000Y-72517000D01*
X102997000Y-73716250D01*
X103155750Y-73875000D01*
X103846310Y-73875000D01*
X104079699Y-73778327D01*
X104258327Y-73599698D01*
X104355000Y-73366309D01*
X104355000Y-72675750D01*
X104196250Y-72517000D01*
X102997000Y-72517000D01*
X102743000Y-72517000D01*
X102723000Y-72517000D01*
X102723000Y-72263000D01*
X102743000Y-72263000D01*
X102743000Y-71063750D01*
X102997000Y-71063750D01*
X102997000Y-72263000D01*
X104196250Y-72263000D01*
X104355000Y-72104250D01*
X104355000Y-71413691D01*
X104258327Y-71180302D01*
X104079699Y-71001673D01*
X103846310Y-70905000D01*
X103155750Y-70905000D01*
X102997000Y-71063750D01*
X102743000Y-71063750D01*
X102584250Y-70905000D01*
X101893690Y-70905000D01*
X101660301Y-71001673D01*
X101481673Y-71180302D01*
X101409403Y-71354777D01*
X101380054Y-71310853D01*
X100898285Y-70988946D01*
X100330000Y-70875907D01*
X99761715Y-70988946D01*
X99279946Y-71310853D01*
X98958039Y-71792622D01*
X98845000Y-72360907D01*
X91114815Y-72360907D01*
X90716412Y-72195476D01*
X89628362Y-72194526D01*
X88622771Y-72610028D01*
X87852732Y-73378724D01*
X87435476Y-74383588D01*
X87434526Y-75471638D01*
X83235000Y-75471638D01*
X83235000Y-73542532D01*
X84117073Y-73542532D01*
X84215736Y-73809387D01*
X84825461Y-74035908D01*
X85475460Y-74011856D01*
X85964264Y-73809387D01*
X86062927Y-73542532D01*
X85090000Y-72569605D01*
X84117073Y-73542532D01*
X83235000Y-73542532D01*
X83235000Y-72125461D01*
X83444092Y-72125461D01*
X83468144Y-72775460D01*
X83670613Y-73264264D01*
X83937468Y-73362927D01*
X84910395Y-72390000D01*
X85269605Y-72390000D01*
X86242532Y-73362927D01*
X86509387Y-73264264D01*
X86735908Y-72654539D01*
X86711856Y-72004540D01*
X86509387Y-71515736D01*
X86242532Y-71417073D01*
X85269605Y-72390000D01*
X84910395Y-72390000D01*
X83937468Y-71417073D01*
X83670613Y-71515736D01*
X83444092Y-72125461D01*
X83235000Y-72125461D01*
X83235000Y-71237468D01*
X84117073Y-71237468D01*
X85090000Y-72210395D01*
X86062927Y-71237468D01*
X85964264Y-70970613D01*
X85354539Y-70744092D01*
X84704540Y-70768144D01*
X84215736Y-70970613D01*
X84117073Y-71237468D01*
X83235000Y-71237468D01*
X83235000Y-65455000D01*
X105571527Y-65455000D01*
X105219996Y-65805918D01*
G36*
X105216887Y-102870000D02*
X105326120Y-103419151D01*
X105637189Y-103884698D01*
X106041703Y-104154986D01*
X105824866Y-104257611D01*
X105448959Y-104672577D01*
X105288096Y-105060961D01*
X105410085Y-105283000D01*
X106553000Y-105283000D01*
X106553000Y-105263000D01*
X106807000Y-105263000D01*
X106807000Y-105283000D01*
X106827000Y-105283000D01*
X106827000Y-105537000D01*
X106807000Y-105537000D01*
X106807000Y-105557000D01*
X106553000Y-105557000D01*
X106553000Y-105537000D01*
X105410085Y-105537000D01*
X105288096Y-105759039D01*
X105448959Y-106147423D01*
X105824866Y-106562389D01*
X106041703Y-106665014D01*
X105637189Y-106935302D01*
X105326120Y-107400849D01*
X105216887Y-107950000D01*
X105326120Y-108499151D01*
X105637189Y-108964698D01*
X106019275Y-109220000D01*
X105637189Y-109475302D01*
X105326120Y-109940849D01*
X105216887Y-110490000D01*
X105326120Y-111039151D01*
X105637189Y-111504698D01*
X106019275Y-111760000D01*
X105637189Y-112015302D01*
X105326120Y-112480849D01*
X105216887Y-113030000D01*
X105281312Y-113353886D01*
X97280000Y-121355198D01*
X97280000Y-111760000D01*
X101355907Y-111760000D01*
X101468946Y-112328285D01*
X101790853Y-112810054D01*
X102272622Y-113131961D01*
X102840907Y-113245000D01*
X102899093Y-113245000D01*
X103467378Y-113131961D01*
X103949147Y-112810054D01*
X104271054Y-112328285D01*
X104384093Y-111760000D01*
X104271054Y-111191715D01*
X103949147Y-110709946D01*
X103608447Y-110482298D01*
X103751358Y-110415183D01*
X104141645Y-109986924D01*
X104311476Y-109576890D01*
X104190155Y-109347000D01*
X102997000Y-109347000D01*
X102997000Y-109367000D01*
X102743000Y-109367000D01*
X102743000Y-109347000D01*
X101549845Y-109347000D01*
X101428524Y-109576890D01*
X101598355Y-109986924D01*
X101988642Y-110415183D01*
X102131553Y-110482298D01*
X101790853Y-110709946D01*
X101468946Y-111191715D01*
X101355907Y-111760000D01*
X97280000Y-111760000D01*
X97280000Y-105830000D01*
X101372560Y-105830000D01*
X101372560Y-107530000D01*
X101416838Y-107765317D01*
X101555910Y-107981441D01*
X101768110Y-108126431D01*
X101876107Y-108148301D01*
X101598355Y-108453076D01*
X101428524Y-108863110D01*
X101549845Y-109093000D01*
X102743000Y-109093000D01*
X102743000Y-109073000D01*
X102997000Y-109073000D01*
X102997000Y-109093000D01*
X104190155Y-109093000D01*
X104311476Y-108863110D01*
X104141645Y-108453076D01*
X103865499Y-108150063D01*
X103955317Y-108133162D01*
X104171441Y-107994090D01*
X104316431Y-107781890D01*
X104367440Y-107530000D01*
X104367440Y-105830000D01*
X104323162Y-105594683D01*
X104184090Y-105378559D01*
X103971890Y-105233569D01*
X103720000Y-105182560D01*
X102020000Y-105182560D01*
X101784683Y-105226838D01*
X101568559Y-105365910D01*
X101423569Y-105578110D01*
X101372560Y-105830000D01*
X97280000Y-105830000D01*
X97280000Y-103184802D01*
X98104802Y-102360000D01*
X105318332Y-102360000D01*
X105216887Y-102870000D01*
X105216887Y-102870000D01*
G37*
X105216887Y-102870000D02*
X105326120Y-103419151D01*
X105637189Y-103884698D01*
X106041703Y-104154986D01*
X105824866Y-104257611D01*
X105448959Y-104672577D01*
X105288096Y-105060961D01*
X105410085Y-105283000D01*
X106553000Y-105283000D01*
X106553000Y-105263000D01*
X106807000Y-105263000D01*
X106807000Y-105283000D01*
X106827000Y-105283000D01*
X106827000Y-105537000D01*
X106807000Y-105537000D01*
X106807000Y-105557000D01*
X106553000Y-105557000D01*
X106553000Y-105537000D01*
X105410085Y-105537000D01*
X105288096Y-105759039D01*
X105448959Y-106147423D01*
X105824866Y-106562389D01*
X106041703Y-106665014D01*
X105637189Y-106935302D01*
X105326120Y-107400849D01*
X105216887Y-107950000D01*
X105326120Y-108499151D01*
X105637189Y-108964698D01*
X106019275Y-109220000D01*
X105637189Y-109475302D01*
X105326120Y-109940849D01*
X105216887Y-110490000D01*
X105326120Y-111039151D01*
X105637189Y-111504698D01*
X106019275Y-111760000D01*
X105637189Y-112015302D01*
X105326120Y-112480849D01*
X105216887Y-113030000D01*
X105281312Y-113353886D01*
X97280000Y-121355198D01*
X97280000Y-111760000D01*
X101355907Y-111760000D01*
X101468946Y-112328285D01*
X101790853Y-112810054D01*
X102272622Y-113131961D01*
X102840907Y-113245000D01*
X102899093Y-113245000D01*
X103467378Y-113131961D01*
X103949147Y-112810054D01*
X104271054Y-112328285D01*
X104384093Y-111760000D01*
X104271054Y-111191715D01*
X103949147Y-110709946D01*
X103608447Y-110482298D01*
X103751358Y-110415183D01*
X104141645Y-109986924D01*
X104311476Y-109576890D01*
X104190155Y-109347000D01*
X102997000Y-109347000D01*
X102997000Y-109367000D01*
X102743000Y-109367000D01*
X102743000Y-109347000D01*
X101549845Y-109347000D01*
X101428524Y-109576890D01*
X101598355Y-109986924D01*
X101988642Y-110415183D01*
X102131553Y-110482298D01*
X101790853Y-110709946D01*
X101468946Y-111191715D01*
X101355907Y-111760000D01*
X97280000Y-111760000D01*
X97280000Y-105830000D01*
X101372560Y-105830000D01*
X101372560Y-107530000D01*
X101416838Y-107765317D01*
X101555910Y-107981441D01*
X101768110Y-108126431D01*
X101876107Y-108148301D01*
X101598355Y-108453076D01*
X101428524Y-108863110D01*
X101549845Y-109093000D01*
X102743000Y-109093000D01*
X102743000Y-109073000D01*
X102997000Y-109073000D01*
X102997000Y-109093000D01*
X104190155Y-109093000D01*
X104311476Y-108863110D01*
X104141645Y-108453076D01*
X103865499Y-108150063D01*
X103955317Y-108133162D01*
X104171441Y-107994090D01*
X104316431Y-107781890D01*
X104367440Y-107530000D01*
X104367440Y-105830000D01*
X104323162Y-105594683D01*
X104184090Y-105378559D01*
X103971890Y-105233569D01*
X103720000Y-105182560D01*
X102020000Y-105182560D01*
X101784683Y-105226838D01*
X101568559Y-105365910D01*
X101423569Y-105578110D01*
X101372560Y-105830000D01*
X97280000Y-105830000D01*
X97280000Y-103184802D01*
X98104802Y-102360000D01*
X105318332Y-102360000D01*
X105216887Y-102870000D01*
G36*
X122430000Y-115884802D02*
X122430000Y-119849367D01*
X122106799Y-119715162D01*
X121734833Y-119714838D01*
X121391057Y-119856883D01*
X121357882Y-119890000D01*
X117154802Y-119890000D01*
X115698688Y-118433886D01*
X115763113Y-118110000D01*
X115696499Y-117775111D01*
X115755167Y-117775162D01*
X116098943Y-117633117D01*
X116362192Y-117370327D01*
X116504838Y-117026799D01*
X116504879Y-116979923D01*
X116964321Y-116520481D01*
X117030853Y-116620054D01*
X117360026Y-116840000D01*
X117030853Y-117059946D01*
X116708946Y-117541715D01*
X116595907Y-118110000D01*
X116708946Y-118678285D01*
X117030853Y-119160054D01*
X117512622Y-119481961D01*
X118080907Y-119595000D01*
X118139093Y-119595000D01*
X118707378Y-119481961D01*
X119189147Y-119160054D01*
X119378345Y-118876899D01*
X119378355Y-118876924D01*
X119768642Y-119305183D01*
X120293108Y-119551486D01*
X120523000Y-119430819D01*
X120523000Y-118237000D01*
X120777000Y-118237000D01*
X120777000Y-119430819D01*
X121006892Y-119551486D01*
X121531358Y-119305183D01*
X121921645Y-118876924D01*
X122091476Y-118466890D01*
X121970155Y-118237000D01*
X120777000Y-118237000D01*
X120523000Y-118237000D01*
X120503000Y-118237000D01*
X120503000Y-117983000D01*
X120523000Y-117983000D01*
X120523000Y-117963000D01*
X120777000Y-117963000D01*
X120777000Y-117983000D01*
X121970155Y-117983000D01*
X122091476Y-117753110D01*
X121921645Y-117343076D01*
X121531358Y-116914817D01*
X121388447Y-116847702D01*
X121729147Y-116620054D01*
X122051054Y-116138285D01*
X122155981Y-115610783D01*
X122430000Y-115884802D01*
X122430000Y-115884802D01*
G37*
X122430000Y-115884802D02*
X122430000Y-119849367D01*
X122106799Y-119715162D01*
X121734833Y-119714838D01*
X121391057Y-119856883D01*
X121357882Y-119890000D01*
X117154802Y-119890000D01*
X115698688Y-118433886D01*
X115763113Y-118110000D01*
X115696499Y-117775111D01*
X115755167Y-117775162D01*
X116098943Y-117633117D01*
X116362192Y-117370327D01*
X116504838Y-117026799D01*
X116504879Y-116979923D01*
X116964321Y-116520481D01*
X117030853Y-116620054D01*
X117360026Y-116840000D01*
X117030853Y-117059946D01*
X116708946Y-117541715D01*
X116595907Y-118110000D01*
X116708946Y-118678285D01*
X117030853Y-119160054D01*
X117512622Y-119481961D01*
X118080907Y-119595000D01*
X118139093Y-119595000D01*
X118707378Y-119481961D01*
X119189147Y-119160054D01*
X119378345Y-118876899D01*
X119378355Y-118876924D01*
X119768642Y-119305183D01*
X120293108Y-119551486D01*
X120523000Y-119430819D01*
X120523000Y-118237000D01*
X120777000Y-118237000D01*
X120777000Y-119430819D01*
X121006892Y-119551486D01*
X121531358Y-119305183D01*
X121921645Y-118876924D01*
X122091476Y-118466890D01*
X121970155Y-118237000D01*
X120777000Y-118237000D01*
X120523000Y-118237000D01*
X120503000Y-118237000D01*
X120503000Y-117983000D01*
X120523000Y-117983000D01*
X120523000Y-117963000D01*
X120777000Y-117963000D01*
X120777000Y-117983000D01*
X121970155Y-117983000D01*
X122091476Y-117753110D01*
X121921645Y-117343076D01*
X121531358Y-116914817D01*
X121388447Y-116847702D01*
X121729147Y-116620054D01*
X122051054Y-116138285D01*
X122155981Y-115610783D01*
X122430000Y-115884802D01*
G36*
X120119673Y-101122192D02*
X120463201Y-101264838D01*
X120835167Y-101265162D01*
X121160000Y-101130944D01*
X121160000Y-105095198D01*
X120865000Y-105390198D01*
X120865000Y-105282998D01*
X120700156Y-105282998D01*
X120821476Y-105053110D01*
X120651645Y-104643076D01*
X120261358Y-104214817D01*
X119736892Y-103968514D01*
X119507000Y-104089181D01*
X119507000Y-105283000D01*
X119527000Y-105283000D01*
X119527000Y-105537000D01*
X119507000Y-105537000D01*
X119507000Y-105557000D01*
X119253000Y-105557000D01*
X119253000Y-105537000D01*
X118059845Y-105537000D01*
X117938524Y-105766890D01*
X118108355Y-106176924D01*
X118384501Y-106479937D01*
X118294683Y-106496838D01*
X118078559Y-106635910D01*
X117933569Y-106848110D01*
X117882560Y-107100000D01*
X117882560Y-107190000D01*
X117640633Y-107190000D01*
X117774838Y-106866799D01*
X117775162Y-106494833D01*
X117633117Y-106151057D01*
X117600000Y-106117882D01*
X117600000Y-105053110D01*
X117938524Y-105053110D01*
X118059845Y-105283000D01*
X119253000Y-105283000D01*
X119253000Y-104089181D01*
X119023108Y-103968514D01*
X118498642Y-104214817D01*
X118108355Y-104643076D01*
X117938524Y-105053110D01*
X117600000Y-105053110D01*
X117600000Y-102162463D01*
X117632192Y-102130327D01*
X117774838Y-101786799D01*
X117775162Y-101414833D01*
X117640944Y-101090000D01*
X120087537Y-101090000D01*
X120119673Y-101122192D01*
X120119673Y-101122192D01*
G37*
X120119673Y-101122192D02*
X120463201Y-101264838D01*
X120835167Y-101265162D01*
X121160000Y-101130944D01*
X121160000Y-105095198D01*
X120865000Y-105390198D01*
X120865000Y-105282998D01*
X120700156Y-105282998D01*
X120821476Y-105053110D01*
X120651645Y-104643076D01*
X120261358Y-104214817D01*
X119736892Y-103968514D01*
X119507000Y-104089181D01*
X119507000Y-105283000D01*
X119527000Y-105283000D01*
X119527000Y-105537000D01*
X119507000Y-105537000D01*
X119507000Y-105557000D01*
X119253000Y-105557000D01*
X119253000Y-105537000D01*
X118059845Y-105537000D01*
X117938524Y-105766890D01*
X118108355Y-106176924D01*
X118384501Y-106479937D01*
X118294683Y-106496838D01*
X118078559Y-106635910D01*
X117933569Y-106848110D01*
X117882560Y-107100000D01*
X117882560Y-107190000D01*
X117640633Y-107190000D01*
X117774838Y-106866799D01*
X117775162Y-106494833D01*
X117633117Y-106151057D01*
X117600000Y-106117882D01*
X117600000Y-105053110D01*
X117938524Y-105053110D01*
X118059845Y-105283000D01*
X119253000Y-105283000D01*
X119253000Y-104089181D01*
X119023108Y-103968514D01*
X118498642Y-104214817D01*
X118108355Y-104643076D01*
X117938524Y-105053110D01*
X117600000Y-105053110D01*
X117600000Y-102162463D01*
X117632192Y-102130327D01*
X117774838Y-101786799D01*
X117775162Y-101414833D01*
X117640944Y-101090000D01*
X120087537Y-101090000D01*
X120119673Y-101122192D01*
G36*
X113257189Y-91184698D02*
X113639275Y-91440000D01*
X113257189Y-91695302D01*
X112946120Y-92160849D01*
X112836887Y-92710000D01*
X112946120Y-93259151D01*
X113257189Y-93724698D01*
X113639275Y-93980000D01*
X113257189Y-94235302D01*
X112946120Y-94700849D01*
X112836887Y-95250000D01*
X112946120Y-95799151D01*
X113257189Y-96264698D01*
X113639275Y-96520000D01*
X113257189Y-96775302D01*
X112946120Y-97240849D01*
X112836887Y-97790000D01*
X112946120Y-98339151D01*
X113257189Y-98804698D01*
X113639275Y-99060000D01*
X113257189Y-99315302D01*
X112946120Y-99780849D01*
X112836887Y-100330000D01*
X112946120Y-100879151D01*
X113257189Y-101344698D01*
X113661703Y-101614986D01*
X113444866Y-101717611D01*
X113068959Y-102132577D01*
X112908096Y-102520961D01*
X113030085Y-102743000D01*
X114173000Y-102743000D01*
X114173000Y-102723000D01*
X114427000Y-102723000D01*
X114427000Y-102743000D01*
X115569915Y-102743000D01*
X115691904Y-102520961D01*
X115531041Y-102132577D01*
X115155134Y-101717611D01*
X114938297Y-101614986D01*
X115342811Y-101344698D01*
X115512995Y-101090000D01*
X116039367Y-101090000D01*
X115905162Y-101413201D01*
X115904838Y-101785167D01*
X116046883Y-102128943D01*
X116080000Y-102162118D01*
X116080000Y-106117537D01*
X116047808Y-106149673D01*
X115905162Y-106493201D01*
X115904838Y-106865167D01*
X116039056Y-107190000D01*
X115512995Y-107190000D01*
X115342811Y-106935302D01*
X114960725Y-106680000D01*
X115342811Y-106424698D01*
X115653880Y-105959151D01*
X115763113Y-105410000D01*
X115653880Y-104860849D01*
X115342811Y-104395302D01*
X114938297Y-104125014D01*
X115155134Y-104022389D01*
X115531041Y-103607423D01*
X115691904Y-103219039D01*
X115569915Y-102997000D01*
X114427000Y-102997000D01*
X114427000Y-103017000D01*
X114173000Y-103017000D01*
X114173000Y-102997000D01*
X113030085Y-102997000D01*
X112908096Y-103219039D01*
X113068959Y-103607423D01*
X113444866Y-104022389D01*
X113661703Y-104125014D01*
X113257189Y-104395302D01*
X112946120Y-104860849D01*
X112836887Y-105410000D01*
X112946120Y-105959151D01*
X113257189Y-106424698D01*
X113639275Y-106680000D01*
X113257189Y-106935302D01*
X113087005Y-107190000D01*
X111290633Y-107190000D01*
X111424838Y-106866799D01*
X111425162Y-106494833D01*
X111319690Y-106239570D01*
X111573201Y-106344838D01*
X111945167Y-106345162D01*
X112288943Y-106203117D01*
X112552192Y-105940327D01*
X112694838Y-105596799D01*
X112695162Y-105224833D01*
X112553117Y-104881057D01*
X112520000Y-104847882D01*
X112520000Y-91754802D01*
X113190264Y-91084538D01*
X113257189Y-91184698D01*
X113257189Y-91184698D01*
G37*
X113257189Y-91184698D02*
X113639275Y-91440000D01*
X113257189Y-91695302D01*
X112946120Y-92160849D01*
X112836887Y-92710000D01*
X112946120Y-93259151D01*
X113257189Y-93724698D01*
X113639275Y-93980000D01*
X113257189Y-94235302D01*
X112946120Y-94700849D01*
X112836887Y-95250000D01*
X112946120Y-95799151D01*
X113257189Y-96264698D01*
X113639275Y-96520000D01*
X113257189Y-96775302D01*
X112946120Y-97240849D01*
X112836887Y-97790000D01*
X112946120Y-98339151D01*
X113257189Y-98804698D01*
X113639275Y-99060000D01*
X113257189Y-99315302D01*
X112946120Y-99780849D01*
X112836887Y-100330000D01*
X112946120Y-100879151D01*
X113257189Y-101344698D01*
X113661703Y-101614986D01*
X113444866Y-101717611D01*
X113068959Y-102132577D01*
X112908096Y-102520961D01*
X113030085Y-102743000D01*
X114173000Y-102743000D01*
X114173000Y-102723000D01*
X114427000Y-102723000D01*
X114427000Y-102743000D01*
X115569915Y-102743000D01*
X115691904Y-102520961D01*
X115531041Y-102132577D01*
X115155134Y-101717611D01*
X114938297Y-101614986D01*
X115342811Y-101344698D01*
X115512995Y-101090000D01*
X116039367Y-101090000D01*
X115905162Y-101413201D01*
X115904838Y-101785167D01*
X116046883Y-102128943D01*
X116080000Y-102162118D01*
X116080000Y-106117537D01*
X116047808Y-106149673D01*
X115905162Y-106493201D01*
X115904838Y-106865167D01*
X116039056Y-107190000D01*
X115512995Y-107190000D01*
X115342811Y-106935302D01*
X114960725Y-106680000D01*
X115342811Y-106424698D01*
X115653880Y-105959151D01*
X115763113Y-105410000D01*
X115653880Y-104860849D01*
X115342811Y-104395302D01*
X114938297Y-104125014D01*
X115155134Y-104022389D01*
X115531041Y-103607423D01*
X115691904Y-103219039D01*
X115569915Y-102997000D01*
X114427000Y-102997000D01*
X114427000Y-103017000D01*
X114173000Y-103017000D01*
X114173000Y-102997000D01*
X113030085Y-102997000D01*
X112908096Y-103219039D01*
X113068959Y-103607423D01*
X113444866Y-104022389D01*
X113661703Y-104125014D01*
X113257189Y-104395302D01*
X112946120Y-104860849D01*
X112836887Y-105410000D01*
X112946120Y-105959151D01*
X113257189Y-106424698D01*
X113639275Y-106680000D01*
X113257189Y-106935302D01*
X113087005Y-107190000D01*
X111290633Y-107190000D01*
X111424838Y-106866799D01*
X111425162Y-106494833D01*
X111319690Y-106239570D01*
X111573201Y-106344838D01*
X111945167Y-106345162D01*
X112288943Y-106203117D01*
X112552192Y-105940327D01*
X112694838Y-105596799D01*
X112695162Y-105224833D01*
X112553117Y-104881057D01*
X112520000Y-104847882D01*
X112520000Y-91754802D01*
X113190264Y-91084538D01*
X113257189Y-91184698D01*
M02*
