G04 #@! TF.GenerationSoftware,KiCad,Pcbnew,(5.1.8)-1*
G04 #@! TF.CreationDate,2021-10-10T22:10:11+09:00*
G04 #@! TF.ProjectId,windsynth,77696e64-7379-46e7-9468-2e6b69636164,rev?*
G04 #@! TF.SameCoordinates,Original*
G04 #@! TF.FileFunction,Copper,L1,Top*
G04 #@! TF.FilePolarity,Positive*
%FSLAX46Y46*%
G04 Gerber Fmt 4.6, Leading zero omitted, Abs format (unit mm)*
G04 Created by KiCad (PCBNEW (5.1.8)-1) date 2021-10-10 22:10:11*
%MOMM*%
%LPD*%
G01*
G04 APERTURE LIST*
G04 #@! TA.AperFunction,ComponentPad*
%ADD10R,1.700000X1.700000*%
G04 #@! TD*
G04 #@! TA.AperFunction,ComponentPad*
%ADD11O,1.700000X1.700000*%
G04 #@! TD*
G04 #@! TA.AperFunction,ComponentPad*
%ADD12C,2.000000*%
G04 #@! TD*
G04 #@! TA.AperFunction,ComponentPad*
%ADD13C,4.200000*%
G04 #@! TD*
G04 #@! TA.AperFunction,ComponentPad*
%ADD14R,1.600000X1.600000*%
G04 #@! TD*
G04 #@! TA.AperFunction,ComponentPad*
%ADD15O,1.600000X1.600000*%
G04 #@! TD*
G04 #@! TA.AperFunction,ComponentPad*
%ADD16C,1.800000*%
G04 #@! TD*
G04 #@! TA.AperFunction,ComponentPad*
%ADD17O,1.350000X1.350000*%
G04 #@! TD*
G04 #@! TA.AperFunction,ComponentPad*
%ADD18R,1.350000X1.350000*%
G04 #@! TD*
G04 #@! TA.AperFunction,ViaPad*
%ADD19C,2.400000*%
G04 #@! TD*
G04 #@! TA.AperFunction,ViaPad*
%ADD20C,0.800000*%
G04 #@! TD*
G04 #@! TA.AperFunction,Conductor*
%ADD21C,0.250000*%
G04 #@! TD*
G04 APERTURE END LIST*
D10*
G04 #@! TO.P,J10,1*
G04 #@! TO.N,GND2*
X114935000Y-75565000D03*
D11*
G04 #@! TO.P,J10,2*
G04 #@! TO.N,Net-(J10-Pad2)*
X114935000Y-78105000D03*
G04 #@! TO.P,J10,3*
G04 #@! TO.N,Net-(J10-Pad3)*
X114935000Y-80645000D03*
G04 #@! TO.P,J10,4*
G04 #@! TO.N,Net-(J10-Pad4)*
X114935000Y-83185000D03*
G04 #@! TO.P,J10,5*
G04 #@! TO.N,Net-(J10-Pad5)*
X114935000Y-85725000D03*
G04 #@! TO.P,J10,6*
G04 #@! TO.N,Net-(J10-Pad6)*
X114935000Y-88265000D03*
G04 #@! TO.P,J10,7*
G04 #@! TO.N,+3V3*
X114935000Y-90805000D03*
G04 #@! TO.P,J10,8*
G04 #@! TO.N,Net-(J10-Pad8)*
X114935000Y-93345000D03*
G04 #@! TD*
D12*
G04 #@! TO.P,SW1,1*
G04 #@! TO.N,GND*
X184785000Y-130810000D03*
G04 #@! TO.P,SW1,2*
G04 #@! TO.N,Net-(J3-Pad1)*
X182245000Y-124460000D03*
D13*
G04 #@! TO.P,SW1,3*
G04 #@! TO.N,N/C*
X187325000Y-127000000D03*
G04 #@! TD*
D12*
G04 #@! TO.P,SW2,1*
G04 #@! TO.N,GND*
X167005000Y-130810000D03*
G04 #@! TO.P,SW2,2*
G04 #@! TO.N,Net-(J3-Pad2)*
X164465000Y-124460000D03*
D13*
G04 #@! TO.P,SW2,3*
G04 #@! TO.N,N/C*
X169545000Y-127000000D03*
G04 #@! TD*
G04 #@! TO.P,SW3,3*
G04 #@! TO.N,N/C*
X151765000Y-127000000D03*
D12*
G04 #@! TO.P,SW3,2*
G04 #@! TO.N,Net-(J3-Pad3)*
X154305000Y-121920000D03*
G04 #@! TO.P,SW3,1*
G04 #@! TO.N,GND*
X147955000Y-124460000D03*
G04 #@! TD*
G04 #@! TO.P,SW4,1*
G04 #@! TO.N,GND*
X136525000Y-123190000D03*
G04 #@! TO.P,SW4,2*
G04 #@! TO.N,Net-(J3-Pad4)*
X139065000Y-129540000D03*
D13*
G04 #@! TO.P,SW4,3*
G04 #@! TO.N,N/C*
X133985000Y-127000000D03*
G04 #@! TD*
G04 #@! TO.P,SW5,3*
G04 #@! TO.N,N/C*
X116205000Y-127000000D03*
D12*
G04 #@! TO.P,SW5,2*
G04 #@! TO.N,Net-(J3-Pad5)*
X121285000Y-129540000D03*
G04 #@! TO.P,SW5,1*
G04 #@! TO.N,GND*
X118745000Y-123190000D03*
G04 #@! TD*
G04 #@! TO.P,SW6,1*
G04 #@! TO.N,GND1*
X184785000Y-110490000D03*
G04 #@! TO.P,SW6,2*
G04 #@! TO.N,Net-(J6-Pad1)*
X182245000Y-104140000D03*
D13*
G04 #@! TO.P,SW6,3*
G04 #@! TO.N,N/C*
X187325000Y-106680000D03*
G04 #@! TD*
G04 #@! TO.P,SW7,3*
G04 #@! TO.N,N/C*
X169545000Y-106680000D03*
D12*
G04 #@! TO.P,SW7,2*
G04 #@! TO.N,Net-(J6-Pad2)*
X164465000Y-104140000D03*
G04 #@! TO.P,SW7,1*
G04 #@! TO.N,GND1*
X167005000Y-110490000D03*
G04 #@! TD*
G04 #@! TO.P,SW8,1*
G04 #@! TO.N,GND1*
X147955000Y-104140000D03*
G04 #@! TO.P,SW8,2*
G04 #@! TO.N,Net-(J6-Pad3)*
X154305000Y-101600000D03*
D13*
G04 #@! TO.P,SW8,3*
G04 #@! TO.N,N/C*
X151765000Y-106680000D03*
G04 #@! TD*
G04 #@! TO.P,SW9,3*
G04 #@! TO.N,N/C*
X133985000Y-106680000D03*
D12*
G04 #@! TO.P,SW9,2*
G04 #@! TO.N,Net-(J6-Pad4)*
X139065000Y-109220000D03*
G04 #@! TO.P,SW9,1*
G04 #@! TO.N,GND1*
X136525000Y-102870000D03*
G04 #@! TD*
G04 #@! TO.P,SW10,1*
G04 #@! TO.N,GND1*
X118745000Y-102870000D03*
G04 #@! TO.P,SW10,2*
G04 #@! TO.N,Net-(J6-Pad5)*
X121285000Y-109220000D03*
D13*
G04 #@! TO.P,SW10,3*
G04 #@! TO.N,N/C*
X116205000Y-106680000D03*
G04 #@! TD*
D14*
G04 #@! TO.P,U1,1*
G04 #@! TO.N,Net-(J9-Pad1)*
X121920000Y-80645000D03*
D15*
G04 #@! TO.P,U1,15*
G04 #@! TO.N,GND2*
X154940000Y-88265000D03*
G04 #@! TO.P,U1,2*
G04 #@! TO.N,Net-(J9-Pad2)*
X124460000Y-80645000D03*
G04 #@! TO.P,U1,16*
G04 #@! TO.N,GND2*
X152400000Y-88265000D03*
G04 #@! TO.P,U1,3*
G04 #@! TO.N,Net-(J9-Pad3)*
X127000000Y-80645000D03*
G04 #@! TO.P,U1,17*
G04 #@! TO.N,GND2*
X149860000Y-88265000D03*
G04 #@! TO.P,U1,4*
G04 #@! TO.N,Net-(J9-Pad4)*
X129540000Y-80645000D03*
G04 #@! TO.P,U1,18*
G04 #@! TO.N,+3V3*
X147320000Y-88265000D03*
G04 #@! TO.P,U1,5*
G04 #@! TO.N,Net-(J9-Pad5)*
X132080000Y-80645000D03*
G04 #@! TO.P,U1,19*
G04 #@! TO.N,Net-(U1-Pad19)*
X144780000Y-88265000D03*
G04 #@! TO.P,U1,6*
G04 #@! TO.N,Net-(J9-Pad6)*
X134620000Y-80645000D03*
G04 #@! TO.P,U1,20*
G04 #@! TO.N,Net-(U1-Pad20)*
X142240000Y-88265000D03*
G04 #@! TO.P,U1,7*
G04 #@! TO.N,Net-(J9-Pad7)*
X137160000Y-80645000D03*
G04 #@! TO.P,U1,21*
G04 #@! TO.N,Net-(J11-Pad1)*
X139700000Y-88265000D03*
G04 #@! TO.P,U1,8*
G04 #@! TO.N,Net-(U1-Pad8)*
X139700000Y-80645000D03*
G04 #@! TO.P,U1,22*
G04 #@! TO.N,Net-(J11-Pad2)*
X137160000Y-88265000D03*
G04 #@! TO.P,U1,9*
G04 #@! TO.N,+3V3*
X142240000Y-80645000D03*
G04 #@! TO.P,U1,23*
G04 #@! TO.N,Net-(J11-Pad3)*
X134620000Y-88265000D03*
G04 #@! TO.P,U1,10*
G04 #@! TO.N,GND2*
X144780000Y-80645000D03*
G04 #@! TO.P,U1,24*
G04 #@! TO.N,Net-(J11-Pad4)*
X132080000Y-88265000D03*
G04 #@! TO.P,U1,11*
G04 #@! TO.N,Net-(U1-Pad11)*
X147320000Y-80645000D03*
G04 #@! TO.P,U1,25*
G04 #@! TO.N,Net-(J11-Pad5)*
X129540000Y-88265000D03*
G04 #@! TO.P,U1,12*
G04 #@! TO.N,Net-(J7-Pad4)*
X149860000Y-80645000D03*
G04 #@! TO.P,U1,26*
G04 #@! TO.N,Net-(U1-Pad26)*
X127000000Y-88265000D03*
G04 #@! TO.P,U1,13*
G04 #@! TO.N,Net-(J7-Pad3)*
X152400000Y-80645000D03*
G04 #@! TO.P,U1,27*
G04 #@! TO.N,Net-(U1-Pad27)*
X124460000Y-88265000D03*
G04 #@! TO.P,U1,14*
G04 #@! TO.N,Net-(U1-Pad14)*
X154940000Y-80645000D03*
G04 #@! TO.P,U1,28*
G04 #@! TO.N,Net-(U1-Pad28)*
X121920000Y-88265000D03*
G04 #@! TD*
D12*
G04 #@! TO.P,RV1,*
G04 #@! TO.N,*
X160735000Y-77510000D03*
D16*
G04 #@! TO.P,RV1,3*
G04 #@! TO.N,GND2*
X161735000Y-87510000D03*
G04 #@! TO.P,RV1,2*
G04 #@! TO.N,Net-(J12-Pad2)*
X165735000Y-87510000D03*
G04 #@! TO.P,RV1,1*
G04 #@! TO.N,Net-(J10-Pad3)*
X169735000Y-87510000D03*
D12*
G04 #@! TO.P,RV1,*
G04 #@! TO.N,*
X170735000Y-77510000D03*
G04 #@! TD*
D11*
G04 #@! TO.P,SW11,2*
G04 #@! TO.N,Net-(J6-Pad6)*
X142875000Y-107950000D03*
D10*
G04 #@! TO.P,SW11,1*
G04 #@! TO.N,GND1*
X142875000Y-105410000D03*
G04 #@! TD*
G04 #@! TO.P,SW12,1*
G04 #@! TO.N,GND1*
X125095000Y-105410000D03*
D11*
G04 #@! TO.P,SW12,2*
G04 #@! TO.N,Net-(J6-Pad7)*
X125095000Y-107950000D03*
G04 #@! TD*
D17*
G04 #@! TO.P,J1,4*
G04 #@! TO.N,Net-(J1-Pad4)*
X192405000Y-123540000D03*
G04 #@! TO.P,J1,3*
G04 #@! TO.N,Net-(J1-Pad3)*
X192405000Y-125540000D03*
G04 #@! TO.P,J1,2*
G04 #@! TO.N,Net-(J1-Pad2)*
X192405000Y-127540000D03*
D18*
G04 #@! TO.P,J1,1*
G04 #@! TO.N,GND*
X192405000Y-129540000D03*
G04 #@! TD*
G04 #@! TO.P,J8,1*
G04 #@! TO.N,GND2*
X175895000Y-81915000D03*
D17*
G04 #@! TO.P,J8,2*
G04 #@! TO.N,+3V3*
X175895000Y-83915000D03*
G04 #@! TO.P,J8,3*
G04 #@! TO.N,Net-(J7-Pad3)*
X175895000Y-85915000D03*
G04 #@! TO.P,J8,4*
G04 #@! TO.N,Net-(J7-Pad4)*
X175895000Y-87915000D03*
G04 #@! TD*
D10*
G04 #@! TO.P,J2,1*
G04 #@! TO.N,GND*
X108585000Y-123190000D03*
D11*
G04 #@! TO.P,J2,2*
G04 #@! TO.N,Net-(J1-Pad2)*
X108585000Y-125730000D03*
G04 #@! TO.P,J2,3*
G04 #@! TO.N,Net-(J1-Pad3)*
X108585000Y-128270000D03*
G04 #@! TO.P,J2,4*
G04 #@! TO.N,Net-(J1-Pad4)*
X108585000Y-130810000D03*
G04 #@! TD*
G04 #@! TO.P,J3,6*
G04 #@! TO.N,GND*
X146050000Y-134620000D03*
G04 #@! TO.P,J3,5*
G04 #@! TO.N,Net-(J3-Pad5)*
X148590000Y-134620000D03*
G04 #@! TO.P,J3,4*
G04 #@! TO.N,Net-(J3-Pad4)*
X151130000Y-134620000D03*
G04 #@! TO.P,J3,3*
G04 #@! TO.N,Net-(J3-Pad3)*
X153670000Y-134620000D03*
G04 #@! TO.P,J3,2*
G04 #@! TO.N,Net-(J3-Pad2)*
X156210000Y-134620000D03*
D10*
G04 #@! TO.P,J3,1*
G04 #@! TO.N,Net-(J3-Pad1)*
X158750000Y-134620000D03*
G04 #@! TD*
D11*
G04 #@! TO.P,J4,4*
G04 #@! TO.N,Net-(J4-Pad4)*
X194945000Y-110490000D03*
G04 #@! TO.P,J4,3*
G04 #@! TO.N,Net-(J4-Pad3)*
X194945000Y-107950000D03*
G04 #@! TO.P,J4,2*
G04 #@! TO.N,Net-(J4-Pad2)*
X194945000Y-105410000D03*
D10*
G04 #@! TO.P,J4,1*
G04 #@! TO.N,GND1*
X194945000Y-102870000D03*
G04 #@! TD*
G04 #@! TO.P,J5,1*
G04 #@! TO.N,GND1*
X108585000Y-102870000D03*
D11*
G04 #@! TO.P,J5,2*
G04 #@! TO.N,Net-(J4-Pad2)*
X108585000Y-105410000D03*
G04 #@! TO.P,J5,3*
G04 #@! TO.N,Net-(J4-Pad3)*
X108585000Y-107950000D03*
G04 #@! TO.P,J5,4*
G04 #@! TO.N,Net-(J4-Pad4)*
X108585000Y-110490000D03*
G04 #@! TD*
D10*
G04 #@! TO.P,J6,1*
G04 #@! TO.N,Net-(J6-Pad1)*
X158750000Y-114300000D03*
D11*
G04 #@! TO.P,J6,2*
G04 #@! TO.N,Net-(J6-Pad2)*
X156210000Y-114300000D03*
G04 #@! TO.P,J6,3*
G04 #@! TO.N,Net-(J6-Pad3)*
X153670000Y-114300000D03*
G04 #@! TO.P,J6,4*
G04 #@! TO.N,Net-(J6-Pad4)*
X151130000Y-114300000D03*
G04 #@! TO.P,J6,5*
G04 #@! TO.N,Net-(J6-Pad5)*
X148590000Y-114300000D03*
G04 #@! TO.P,J6,6*
G04 #@! TO.N,Net-(J6-Pad6)*
X146050000Y-114300000D03*
G04 #@! TO.P,J6,7*
G04 #@! TO.N,Net-(J6-Pad7)*
X143510000Y-114300000D03*
G04 #@! TO.P,J6,8*
G04 #@! TO.N,GND1*
X140970000Y-114300000D03*
G04 #@! TD*
G04 #@! TO.P,J7,4*
G04 #@! TO.N,Net-(J7-Pad4)*
X108585000Y-80645000D03*
G04 #@! TO.P,J7,3*
G04 #@! TO.N,Net-(J7-Pad3)*
X108585000Y-83185000D03*
G04 #@! TO.P,J7,2*
G04 #@! TO.N,+3V3*
X108585000Y-85725000D03*
D10*
G04 #@! TO.P,J7,1*
G04 #@! TO.N,GND2*
X108585000Y-88265000D03*
G04 #@! TD*
D11*
G04 #@! TO.P,J9,8*
G04 #@! TO.N,GND2*
X139700000Y-77470000D03*
G04 #@! TO.P,J9,7*
G04 #@! TO.N,Net-(J9-Pad7)*
X137160000Y-77470000D03*
G04 #@! TO.P,J9,6*
G04 #@! TO.N,Net-(J9-Pad6)*
X134620000Y-77470000D03*
G04 #@! TO.P,J9,5*
G04 #@! TO.N,Net-(J9-Pad5)*
X132080000Y-77470000D03*
G04 #@! TO.P,J9,4*
G04 #@! TO.N,Net-(J9-Pad4)*
X129540000Y-77470000D03*
G04 #@! TO.P,J9,3*
G04 #@! TO.N,Net-(J9-Pad3)*
X127000000Y-77470000D03*
G04 #@! TO.P,J9,2*
G04 #@! TO.N,Net-(J9-Pad2)*
X124460000Y-77470000D03*
D10*
G04 #@! TO.P,J9,1*
G04 #@! TO.N,Net-(J9-Pad1)*
X121920000Y-77470000D03*
G04 #@! TD*
G04 #@! TO.P,J11,1*
G04 #@! TO.N,Net-(J11-Pad1)*
X139700000Y-92075000D03*
D11*
G04 #@! TO.P,J11,2*
G04 #@! TO.N,Net-(J11-Pad2)*
X137160000Y-92075000D03*
G04 #@! TO.P,J11,3*
G04 #@! TO.N,Net-(J11-Pad3)*
X134620000Y-92075000D03*
G04 #@! TO.P,J11,4*
G04 #@! TO.N,Net-(J11-Pad4)*
X132080000Y-92075000D03*
G04 #@! TO.P,J11,5*
G04 #@! TO.N,Net-(J11-Pad5)*
X129540000Y-92075000D03*
G04 #@! TO.P,J11,6*
G04 #@! TO.N,GND2*
X127000000Y-92075000D03*
G04 #@! TD*
D12*
G04 #@! TO.P,J12,1*
G04 #@! TO.N,GND2*
X185165000Y-84455000D03*
G04 #@! TO.P,J12,2*
G04 #@! TO.N,Net-(J12-Pad2)*
X180165000Y-89455000D03*
G04 #@! TO.P,J12,3*
G04 #@! TO.N,Net-(J12-Pad3)*
X180165000Y-86955000D03*
G04 #@! TO.P,J12,4*
X180165000Y-81955000D03*
G04 #@! TO.P,J12,5*
G04 #@! TO.N,Net-(J12-Pad2)*
X180165000Y-79455000D03*
G04 #@! TD*
D10*
G04 #@! TO.P,J13,1*
G04 #@! TO.N,Net-(J10-Pad4)*
X111125000Y-80010000D03*
D11*
G04 #@! TO.P,J13,2*
G04 #@! TO.N,GND2*
X111125000Y-77470000D03*
G04 #@! TD*
D10*
G04 #@! TO.P,J14,1*
G04 #@! TO.N,Net-(J14-Pad1)*
X130810000Y-69215000D03*
D11*
G04 #@! TO.P,J14,2*
G04 #@! TO.N,Net-(J14-Pad2)*
X130810000Y-66675000D03*
G04 #@! TO.P,J14,3*
G04 #@! TO.N,Net-(J14-Pad3)*
X133350000Y-69215000D03*
G04 #@! TO.P,J14,4*
G04 #@! TO.N,Net-(J14-Pad4)*
X133350000Y-66675000D03*
G04 #@! TO.P,J14,5*
G04 #@! TO.N,Net-(J14-Pad5)*
X135890000Y-69215000D03*
G04 #@! TO.P,J14,6*
G04 #@! TO.N,Net-(J14-Pad6)*
X135890000Y-66675000D03*
G04 #@! TO.P,J14,7*
G04 #@! TO.N,Net-(J14-Pad7)*
X138430000Y-69215000D03*
G04 #@! TO.P,J14,8*
G04 #@! TO.N,Net-(J14-Pad8)*
X138430000Y-66675000D03*
G04 #@! TO.P,J14,9*
G04 #@! TO.N,Net-(J14-Pad9)*
X140970000Y-69215000D03*
G04 #@! TO.P,J14,10*
G04 #@! TO.N,Net-(J14-Pad10)*
X140970000Y-66675000D03*
G04 #@! TO.P,J14,11*
G04 #@! TO.N,Net-(J14-Pad11)*
X143510000Y-69215000D03*
G04 #@! TO.P,J14,12*
G04 #@! TO.N,Net-(J14-Pad12)*
X143510000Y-66675000D03*
G04 #@! TO.P,J14,13*
G04 #@! TO.N,Net-(J14-Pad13)*
X146050000Y-69215000D03*
G04 #@! TO.P,J14,14*
G04 #@! TO.N,Net-(J14-Pad14)*
X146050000Y-66675000D03*
G04 #@! TO.P,J14,15*
G04 #@! TO.N,Net-(J14-Pad15)*
X148590000Y-69215000D03*
G04 #@! TO.P,J14,16*
G04 #@! TO.N,Net-(J14-Pad16)*
X148590000Y-66675000D03*
G04 #@! TO.P,J14,17*
G04 #@! TO.N,Net-(J14-Pad17)*
X151130000Y-69215000D03*
G04 #@! TO.P,J14,18*
G04 #@! TO.N,Net-(J14-Pad18)*
X151130000Y-66675000D03*
G04 #@! TO.P,J14,19*
G04 #@! TO.N,Net-(J14-Pad19)*
X153670000Y-69215000D03*
G04 #@! TO.P,J14,20*
G04 #@! TO.N,Net-(J14-Pad20)*
X153670000Y-66675000D03*
G04 #@! TO.P,J14,21*
G04 #@! TO.N,Net-(J14-Pad21)*
X156210000Y-69215000D03*
G04 #@! TO.P,J14,22*
G04 #@! TO.N,Net-(J14-Pad22)*
X156210000Y-66675000D03*
G04 #@! TO.P,J14,23*
G04 #@! TO.N,Net-(J14-Pad23)*
X158750000Y-69215000D03*
G04 #@! TO.P,J14,24*
G04 #@! TO.N,Net-(J14-Pad24)*
X158750000Y-66675000D03*
G04 #@! TO.P,J14,25*
G04 #@! TO.N,GND3*
X161290000Y-69215000D03*
G04 #@! TO.P,J14,26*
G04 #@! TO.N,Net-(J14-Pad26)*
X161290000Y-66675000D03*
G04 #@! TO.P,J14,27*
G04 #@! TO.N,GND3*
X163830000Y-69215000D03*
G04 #@! TO.P,J14,28*
G04 #@! TO.N,Net-(J14-Pad28)*
X163830000Y-66675000D03*
G04 #@! TO.P,J14,29*
G04 #@! TO.N,GND3*
X166370000Y-69215000D03*
G04 #@! TO.P,J14,30*
G04 #@! TO.N,Net-(J14-Pad30)*
X166370000Y-66675000D03*
G04 #@! TD*
D18*
G04 #@! TO.P,J15,1*
G04 #@! TO.N,GND3*
X151130000Y-44450000D03*
D17*
G04 #@! TO.P,J15,2*
G04 #@! TO.N,Net-(J14-Pad20)*
X149130000Y-44450000D03*
G04 #@! TO.P,J15,3*
G04 #@! TO.N,Net-(J14-Pad11)*
X147130000Y-44450000D03*
G04 #@! TO.P,J15,4*
G04 #@! TO.N,Net-(J14-Pad12)*
X145130000Y-44450000D03*
G04 #@! TD*
D10*
G04 #@! TO.P,J16,1*
G04 #@! TO.N,Net-(J16-Pad1)*
X130175000Y-48260000D03*
D11*
G04 #@! TO.P,J16,2*
G04 #@! TO.N,Net-(J16-Pad2)*
X132715000Y-48260000D03*
G04 #@! TO.P,J16,3*
G04 #@! TO.N,Net-(J16-Pad3)*
X135255000Y-48260000D03*
G04 #@! TO.P,J16,4*
G04 #@! TO.N,Net-(J16-Pad4)*
X137795000Y-48260000D03*
G04 #@! TO.P,J16,5*
G04 #@! TO.N,Net-(J16-Pad5)*
X140335000Y-48260000D03*
G04 #@! TO.P,J16,6*
G04 #@! TO.N,GND3*
X142875000Y-48260000D03*
G04 #@! TD*
D10*
G04 #@! TO.P,J17,1*
G04 #@! TO.N,Net-(J17-Pad1)*
X167005000Y-48260000D03*
D11*
G04 #@! TO.P,J17,2*
G04 #@! TO.N,Net-(J17-Pad2)*
X164465000Y-48260000D03*
G04 #@! TO.P,J17,3*
G04 #@! TO.N,Net-(J17-Pad3)*
X161925000Y-48260000D03*
G04 #@! TO.P,J17,4*
G04 #@! TO.N,Net-(J17-Pad4)*
X159385000Y-48260000D03*
G04 #@! TO.P,J17,5*
G04 #@! TO.N,Net-(J17-Pad5)*
X156845000Y-48260000D03*
G04 #@! TO.P,J17,6*
G04 #@! TO.N,Net-(J17-Pad6)*
X154305000Y-48260000D03*
G04 #@! TO.P,J17,7*
G04 #@! TO.N,Net-(J17-Pad7)*
X151765000Y-48260000D03*
G04 #@! TO.P,J17,8*
G04 #@! TO.N,GND3*
X149225000Y-48260000D03*
G04 #@! TD*
D14*
G04 #@! TO.P,U2,1*
G04 #@! TO.N,Net-(J17-Pad1)*
X165100000Y-60960000D03*
D15*
G04 #@! TO.P,U2,15*
G04 #@! TO.N,GND3*
X132080000Y-53340000D03*
G04 #@! TO.P,U2,2*
G04 #@! TO.N,Net-(J17-Pad2)*
X162560000Y-60960000D03*
G04 #@! TO.P,U2,16*
G04 #@! TO.N,GND3*
X134620000Y-53340000D03*
G04 #@! TO.P,U2,3*
G04 #@! TO.N,Net-(J17-Pad3)*
X160020000Y-60960000D03*
G04 #@! TO.P,U2,17*
G04 #@! TO.N,GND3*
X137160000Y-53340000D03*
G04 #@! TO.P,U2,4*
G04 #@! TO.N,Net-(J17-Pad4)*
X157480000Y-60960000D03*
G04 #@! TO.P,U2,18*
G04 #@! TO.N,Net-(J14-Pad20)*
X139700000Y-53340000D03*
G04 #@! TO.P,U2,5*
G04 #@! TO.N,Net-(J17-Pad5)*
X154940000Y-60960000D03*
G04 #@! TO.P,U2,19*
G04 #@! TO.N,Net-(U2-Pad19)*
X142240000Y-53340000D03*
G04 #@! TO.P,U2,6*
G04 #@! TO.N,Net-(J17-Pad6)*
X152400000Y-60960000D03*
G04 #@! TO.P,U2,20*
G04 #@! TO.N,Net-(U2-Pad20)*
X144780000Y-53340000D03*
G04 #@! TO.P,U2,7*
G04 #@! TO.N,Net-(J17-Pad7)*
X149860000Y-60960000D03*
G04 #@! TO.P,U2,21*
G04 #@! TO.N,Net-(J16-Pad1)*
X147320000Y-53340000D03*
G04 #@! TO.P,U2,8*
G04 #@! TO.N,Net-(U2-Pad8)*
X147320000Y-60960000D03*
G04 #@! TO.P,U2,22*
G04 #@! TO.N,Net-(J16-Pad2)*
X149860000Y-53340000D03*
G04 #@! TO.P,U2,9*
G04 #@! TO.N,Net-(J14-Pad20)*
X144780000Y-60960000D03*
G04 #@! TO.P,U2,23*
G04 #@! TO.N,Net-(J16-Pad3)*
X152400000Y-53340000D03*
G04 #@! TO.P,U2,10*
G04 #@! TO.N,GND3*
X142240000Y-60960000D03*
G04 #@! TO.P,U2,24*
G04 #@! TO.N,Net-(J16-Pad4)*
X154940000Y-53340000D03*
G04 #@! TO.P,U2,11*
G04 #@! TO.N,Net-(U2-Pad11)*
X139700000Y-60960000D03*
G04 #@! TO.P,U2,25*
G04 #@! TO.N,Net-(J16-Pad5)*
X157480000Y-53340000D03*
G04 #@! TO.P,U2,12*
G04 #@! TO.N,Net-(J14-Pad12)*
X137160000Y-60960000D03*
G04 #@! TO.P,U2,26*
G04 #@! TO.N,Net-(U2-Pad26)*
X160020000Y-53340000D03*
G04 #@! TO.P,U2,13*
G04 #@! TO.N,Net-(J14-Pad11)*
X134620000Y-60960000D03*
G04 #@! TO.P,U2,27*
G04 #@! TO.N,Net-(U2-Pad27)*
X162560000Y-53340000D03*
G04 #@! TO.P,U2,14*
G04 #@! TO.N,Net-(U2-Pad14)*
X132080000Y-60960000D03*
G04 #@! TO.P,U2,28*
G04 #@! TO.N,Net-(U2-Pad28)*
X165100000Y-53340000D03*
G04 #@! TD*
D19*
G04 #@! TO.N,*
X107315000Y-120015000D03*
X196215000Y-133985000D03*
X107315000Y-99695000D03*
X196215000Y-113665000D03*
G04 #@! TO.N,GND2*
X107315000Y-77470000D03*
D20*
G04 #@! TO.N,Net-(J1-Pad3)*
X183515000Y-120650000D03*
G04 #@! TO.N,Net-(J1-Pad2)*
X187325000Y-121920000D03*
G04 #@! TO.N,Net-(J3-Pad4)*
X147320000Y-128905000D03*
G04 #@! TO.N,Net-(J3-Pad5)*
X142240000Y-127635000D03*
G04 #@! TO.N,Net-(J6-Pad4)*
X142240000Y-111125000D03*
G04 #@! TO.N,Net-(J6-Pad5)*
X148590000Y-108585000D03*
D19*
G04 #@! TO.N,GND2*
X184785000Y-93345000D03*
X184785000Y-75565000D03*
G04 #@! TO.N,GND3*
X167005000Y-44450000D03*
D20*
G04 #@! TO.N,Net-(J7-Pad3)*
X117385000Y-86995000D03*
X119380000Y-86995000D03*
G04 #@! TO.N,Net-(J7-Pad4)*
X117385000Y-84455000D03*
X119380000Y-84455000D03*
X152400000Y-83185000D03*
G04 #@! TO.N,Net-(J6-Pad7)*
X130175000Y-113030000D03*
G04 #@! TO.N,+3V3*
X147320000Y-91440000D03*
D19*
G04 #@! TO.N,GND3*
X130175000Y-44450000D03*
X167005000Y-63500000D03*
X130175000Y-63500000D03*
D20*
G04 #@! TO.N,Net-(J14-Pad11)*
X131445000Y-50800000D03*
G04 #@! TO.N,Net-(J14-Pad12)*
X132715000Y-51435000D03*
G04 #@! TO.N,Net-(J17-Pad5)*
X156210000Y-55245000D03*
G04 #@! TO.N,Net-(J17-Pad6)*
X153670000Y-55245000D03*
G04 #@! TO.N,Net-(J17-Pad7)*
X151130000Y-55245000D03*
G04 #@! TD*
D21*
G04 #@! TO.N,Net-(J1-Pad4)*
X184785000Y-121920000D02*
X186055000Y-123190000D01*
X108585000Y-130810000D02*
X118110000Y-130810000D01*
X118110000Y-130810000D02*
X119380000Y-132080000D01*
X140335000Y-132080000D02*
X142240000Y-130175000D01*
X119380000Y-132080000D02*
X140335000Y-132080000D01*
X142240000Y-130175000D02*
X154305000Y-130175000D01*
X154305000Y-130175000D02*
X162560000Y-121920000D01*
X162560000Y-121920000D02*
X184785000Y-121920000D01*
X192055000Y-123190000D02*
X192405000Y-123540000D01*
X186055000Y-123190000D02*
X192055000Y-123190000D01*
G04 #@! TO.N,Net-(J1-Pad3)*
X108585000Y-128270000D02*
X109855000Y-128270000D01*
X109855000Y-128270000D02*
X117475000Y-120650000D01*
X149860000Y-120650000D02*
X153035000Y-123825000D01*
X182245000Y-120650000D02*
X183515000Y-120650000D01*
X117475000Y-120650000D02*
X149860000Y-120650000D01*
X153035000Y-123825000D02*
X156845000Y-123825000D01*
X156845000Y-123825000D02*
X160020000Y-120650000D01*
X160020000Y-120650000D02*
X182245000Y-120650000D01*
G04 #@! TO.N,Net-(J1-Pad2)*
X184785000Y-119380000D02*
X187325000Y-121920000D01*
X116205000Y-119380000D02*
X184785000Y-119380000D01*
X109855000Y-125730000D02*
X116205000Y-119380000D01*
X108585000Y-125730000D02*
X109855000Y-125730000D01*
G04 #@! TO.N,Net-(J3-Pad1)*
X158750000Y-132715000D02*
X158750000Y-134620000D01*
X182245000Y-124460000D02*
X180975000Y-124460000D01*
X180975000Y-124460000D02*
X172720000Y-132715000D01*
X172720000Y-132715000D02*
X158750000Y-132715000D01*
G04 #@! TO.N,Net-(J3-Pad2)*
X156210000Y-132715000D02*
X156210000Y-131445000D01*
X156210000Y-132715000D02*
X156210000Y-134620000D01*
X163195000Y-124460000D02*
X164465000Y-124460000D01*
X156210000Y-131445000D02*
X163195000Y-124460000D01*
G04 #@! TO.N,Net-(J3-Pad4)*
X146050000Y-128905000D02*
X147320000Y-128905000D01*
X139700000Y-128905000D02*
X146050000Y-128905000D01*
X139065000Y-129540000D02*
X139700000Y-128905000D01*
G04 #@! TO.N,Net-(J3-Pad5)*
X142240000Y-127635000D02*
X137795000Y-127635000D01*
X137795000Y-127635000D02*
X135255000Y-130175000D01*
X135255000Y-130175000D02*
X121920000Y-130175000D01*
X121920000Y-130175000D02*
X121285000Y-129540000D01*
G04 #@! TO.N,Net-(J4-Pad4)*
X108585000Y-110490000D02*
X114300000Y-110490000D01*
X114300000Y-110490000D02*
X115570000Y-111760000D01*
X115570000Y-111760000D02*
X139700000Y-111760000D01*
X139700000Y-111760000D02*
X141605000Y-109855000D01*
X141605000Y-109855000D02*
X154305000Y-109855000D01*
X154305000Y-109855000D02*
X162560000Y-101600000D01*
X186055000Y-101600000D02*
X194945000Y-110490000D01*
X162560000Y-101600000D02*
X186055000Y-101600000D01*
G04 #@! TO.N,Net-(J4-Pad3)*
X116205000Y-100330000D02*
X108585000Y-107950000D01*
X151765000Y-103505000D02*
X148590000Y-100330000D01*
X148590000Y-100330000D02*
X116205000Y-100330000D01*
X156845000Y-103505000D02*
X151765000Y-103505000D01*
X160020000Y-100330000D02*
X156845000Y-103505000D01*
X187325000Y-100330000D02*
X160020000Y-100330000D01*
X194945000Y-107950000D02*
X187325000Y-100330000D01*
G04 #@! TO.N,Net-(J4-Pad2)*
X188595000Y-99060000D02*
X194945000Y-105410000D01*
X114935000Y-99060000D02*
X188595000Y-99060000D01*
X108585000Y-105410000D02*
X114935000Y-99060000D01*
G04 #@! TO.N,Net-(J6-Pad1)*
X158750000Y-112395000D02*
X158750000Y-114300000D01*
X182245000Y-104140000D02*
X180975000Y-104140000D01*
X172720000Y-112395000D02*
X158750000Y-112395000D01*
X180975000Y-104140000D02*
X172720000Y-112395000D01*
G04 #@! TO.N,Net-(J6-Pad2)*
X156210000Y-112395000D02*
X156210000Y-111125000D01*
X156210000Y-112395000D02*
X156210000Y-114300000D01*
X163195000Y-104140000D02*
X164465000Y-104140000D01*
X156210000Y-111125000D02*
X163195000Y-104140000D01*
G04 #@! TO.N,Net-(J6-Pad4)*
X151130000Y-114300000D02*
X147955000Y-111125000D01*
X147955000Y-111125000D02*
X142240000Y-111125000D01*
G04 #@! TO.N,Net-(J6-Pad5)*
X121285000Y-103505000D02*
X121285000Y-109220000D01*
X132715000Y-101600000D02*
X123190000Y-101600000D01*
X135890000Y-104775000D02*
X132715000Y-101600000D01*
X123190000Y-101600000D02*
X121285000Y-103505000D01*
X139065000Y-104775000D02*
X135890000Y-104775000D01*
X140335000Y-103505000D02*
X139065000Y-104775000D01*
X144145000Y-103505000D02*
X140335000Y-103505000D01*
X148590000Y-107950000D02*
X144145000Y-103505000D01*
X148590000Y-108585000D02*
X148590000Y-107950000D01*
G04 #@! TO.N,Net-(J7-Pad3)*
X119380000Y-86995000D02*
X120650000Y-85725000D01*
X120650000Y-85725000D02*
X147320000Y-85725000D01*
X147320000Y-85725000D02*
X152400000Y-80645000D01*
X175895000Y-85915000D02*
X173545000Y-85915000D01*
X173545000Y-85915000D02*
X170815000Y-83185000D01*
X154940000Y-83185000D02*
X152400000Y-80645000D01*
X170815000Y-83185000D02*
X154940000Y-83185000D01*
X112395000Y-86995000D02*
X108585000Y-83185000D01*
X117385000Y-86995000D02*
X112395000Y-86995000D01*
G04 #@! TO.N,Net-(J7-Pad4)*
X111760000Y-84455000D02*
X117475000Y-84455000D01*
X117475000Y-84455000D02*
X117385000Y-84455000D01*
X119380000Y-84455000D02*
X146050000Y-84455000D01*
X146050000Y-84455000D02*
X149860000Y-80645000D01*
X175895000Y-87915000D02*
X173640000Y-87915000D01*
X173640000Y-87915000D02*
X170815000Y-85090000D01*
X170815000Y-85090000D02*
X154305000Y-85090000D01*
X154305000Y-85090000D02*
X152400000Y-83185000D01*
X108585000Y-80645000D02*
X110490000Y-82550000D01*
X110490000Y-83185000D02*
X111760000Y-84455000D01*
X110490000Y-82550000D02*
X110490000Y-83185000D01*
G04 #@! TO.N,Net-(J9-Pad1)*
X121920000Y-77470000D02*
X121920000Y-80645000D01*
G04 #@! TO.N,Net-(J9-Pad2)*
X124460000Y-77470000D02*
X124460000Y-80645000D01*
G04 #@! TO.N,Net-(J9-Pad3)*
X127000000Y-77470000D02*
X127000000Y-80645000D01*
G04 #@! TO.N,Net-(J9-Pad4)*
X129540000Y-77470000D02*
X129540000Y-80645000D01*
G04 #@! TO.N,Net-(J9-Pad5)*
X132080000Y-77470000D02*
X132080000Y-80645000D01*
G04 #@! TO.N,Net-(J9-Pad6)*
X134620000Y-77470000D02*
X134620000Y-80645000D01*
G04 #@! TO.N,Net-(J9-Pad7)*
X137160000Y-80645000D02*
X137160000Y-77470000D01*
G04 #@! TO.N,Net-(J6-Pad7)*
X143510000Y-114300000D02*
X142240000Y-113030000D01*
X142240000Y-113030000D02*
X130175000Y-113030000D01*
G04 #@! TO.N,+3V3*
X114935000Y-90805000D02*
X116840000Y-90805000D01*
X116840000Y-90805000D02*
X120015000Y-93980000D01*
X120015000Y-93980000D02*
X141605000Y-93980000D01*
X141605000Y-93980000D02*
X144780000Y-93980000D01*
X144780000Y-93980000D02*
X147320000Y-91440000D01*
X175895000Y-83915000D02*
X174085000Y-83915000D01*
X174085000Y-83915000D02*
X171450000Y-81280000D01*
X171450000Y-81280000D02*
X160020000Y-81280000D01*
X160020000Y-81280000D02*
X156210000Y-77470000D01*
X145415000Y-77470000D02*
X142240000Y-80645000D01*
X156210000Y-77470000D02*
X145415000Y-77470000D01*
X113665000Y-90805000D02*
X108585000Y-85725000D01*
X114935000Y-90805000D02*
X113665000Y-90805000D01*
G04 #@! TO.N,Net-(J10-Pad3)*
X114935000Y-80645000D02*
X118110000Y-83820000D01*
X118110000Y-83820000D02*
X118110000Y-88265000D01*
X118110000Y-88265000D02*
X120015000Y-90170000D01*
X167075000Y-90170000D02*
X169735000Y-87510000D01*
X120015000Y-90170000D02*
X167075000Y-90170000D01*
G04 #@! TO.N,Net-(J10-Pad4)*
X111760000Y-80010000D02*
X114935000Y-83185000D01*
X111125000Y-80010000D02*
X111760000Y-80010000D01*
G04 #@! TO.N,Net-(J14-Pad20)*
X139700000Y-55880000D02*
X144780000Y-60960000D01*
X139700000Y-53340000D02*
X139700000Y-55880000D01*
G04 #@! TO.N,Net-(J14-Pad11)*
X131445000Y-50800000D02*
X130175000Y-52070000D01*
X130175000Y-52070000D02*
X130175000Y-56515000D01*
X130175000Y-56515000D02*
X134620000Y-60960000D01*
X142334999Y-68039999D02*
X143510000Y-69215000D01*
X140429999Y-68039999D02*
X142334999Y-68039999D01*
X139605001Y-67215001D02*
X140429999Y-68039999D01*
X139605001Y-65945001D02*
X139605001Y-67215001D01*
X134620000Y-60960000D02*
X139605001Y-65945001D01*
G04 #@! TO.N,Net-(J14-Pad12)*
X139700000Y-63500000D02*
X137160000Y-60960000D01*
X133205001Y-57005001D02*
X133205001Y-51925001D01*
X137160000Y-60960000D02*
X133205001Y-57005001D01*
X133205001Y-51925001D02*
X132715000Y-51435000D01*
X140335000Y-63500000D02*
X143510000Y-66675000D01*
X139700000Y-63500000D02*
X140335000Y-63500000D01*
G04 #@! TO.N,Net-(J14-Pad20)*
X144780000Y-60960000D02*
X147320000Y-63500000D01*
X150495000Y-63500000D02*
X153670000Y-66675000D01*
X147320000Y-63500000D02*
X150495000Y-63500000D01*
G04 #@! TO.N,Net-(J16-Pad1)*
X130175000Y-48456998D02*
X130175000Y-48260000D01*
X131883002Y-50165000D02*
X130175000Y-48456998D01*
X133350000Y-50165000D02*
X131883002Y-50165000D01*
X135255000Y-52070000D02*
X133350000Y-50165000D01*
X146050000Y-52070000D02*
X135255000Y-52070000D01*
X147320000Y-53340000D02*
X146050000Y-52070000D01*
G04 #@! TO.N,Net-(J16-Pad2)*
X149860000Y-53340000D02*
X148035030Y-51515030D01*
X135970030Y-51515030D02*
X132715000Y-48260000D01*
X148035030Y-51515030D02*
X135970030Y-51515030D01*
G04 #@! TO.N,Net-(J16-Pad3)*
X138060020Y-51065020D02*
X135255000Y-48260000D01*
X150125020Y-51065020D02*
X138060020Y-51065020D01*
X152400000Y-53340000D02*
X150125020Y-51065020D01*
G04 #@! TO.N,Net-(J16-Pad4)*
X140150010Y-50615010D02*
X137795000Y-48260000D01*
X152215010Y-50615010D02*
X140150010Y-50615010D01*
X154940000Y-53340000D02*
X152215010Y-50615010D01*
G04 #@! TO.N,Net-(J16-Pad5)*
X157480000Y-53340000D02*
X154305000Y-50165000D01*
X142240000Y-50165000D02*
X140335000Y-48260000D01*
X154305000Y-50165000D02*
X142240000Y-50165000D01*
G04 #@! TO.N,Net-(J17-Pad1)*
X167005000Y-59055000D02*
X167005000Y-48260000D01*
X165100000Y-60960000D02*
X167005000Y-59055000D01*
G04 #@! TO.N,Net-(J17-Pad2)*
X162560000Y-60960000D02*
X162560000Y-59055000D01*
X162560000Y-59055000D02*
X163830000Y-57785000D01*
X163830000Y-48895000D02*
X164465000Y-48260000D01*
X163830000Y-57785000D02*
X163830000Y-48895000D01*
G04 #@! TO.N,Net-(J17-Pad3)*
X160020000Y-60960000D02*
X160020000Y-59055000D01*
X161434999Y-48750001D02*
X161925000Y-48260000D01*
X161434999Y-57640001D02*
X161434999Y-48750001D01*
X160020000Y-59055000D02*
X161434999Y-57640001D01*
G04 #@! TO.N,Net-(J17-Pad4)*
X157480000Y-60960000D02*
X157480000Y-59055000D01*
X158894999Y-48750001D02*
X159385000Y-48260000D01*
X158894999Y-57640001D02*
X158894999Y-48750001D01*
X157480000Y-59055000D02*
X158894999Y-57640001D01*
G04 #@! TO.N,Net-(J17-Pad5)*
X154940000Y-60960000D02*
X154940000Y-58420000D01*
X154940000Y-58420000D02*
X156210000Y-57150000D01*
X156210000Y-57150000D02*
X156210000Y-55245000D01*
G04 #@! TO.N,Net-(J17-Pad6)*
X153670000Y-55245000D02*
X153670000Y-57150000D01*
X152400000Y-58420000D02*
X152400000Y-60960000D01*
X153670000Y-57150000D02*
X152400000Y-58420000D01*
G04 #@! TO.N,Net-(J17-Pad7)*
X149860000Y-60960000D02*
X149860000Y-58420000D01*
X149860000Y-58420000D02*
X151130000Y-57150000D01*
X151130000Y-57150000D02*
X151130000Y-55245000D01*
G04 #@! TD*
M02*
