M48
; DRILL file {KiCad (5.1.8)-1} date 10/10/21 22:10:14
; FORMAT={-:-/ absolute / metric / decimal}
; #@! TF.CreationDate,2021-10-10T22:10:14+09:00
; #@! TF.GenerationSoftware,Kicad,Pcbnew,(5.1.8)-1
FMAT,2
METRIC
T1C0.400
T2C0.800
T3C1.000
T4C1.200
T5C1.400
T6C1.500
T7C2.200
T8C4.000
%
G90
G05
T1
X117.385Y-84.455
X117.385Y-86.995
X119.38Y-84.455
X119.38Y-86.995
X130.175Y-113.03
X131.445Y-50.8
X132.715Y-51.435
X142.24Y-111.125
X142.24Y-127.635
X147.32Y-91.44
X147.32Y-128.905
X148.59Y-108.585
X151.13Y-55.245
X152.4Y-83.185
X153.67Y-55.245
X156.21Y-55.245
X183.515Y-120.65
X187.325Y-121.92
T2
X192.405Y-123.54
X192.405Y-125.54
X192.405Y-127.54
X192.405Y-129.54
X175.895Y-81.915
X175.895Y-83.915
X175.895Y-85.915
X175.895Y-87.915
X145.13Y-44.45
X147.13Y-44.45
X149.13Y-44.45
X151.13Y-44.45
X132.08Y-53.34
X132.08Y-60.96
X134.62Y-53.34
X134.62Y-60.96
X137.16Y-53.34
X137.16Y-60.96
X139.7Y-53.34
X139.7Y-60.96
X142.24Y-53.34
X142.24Y-60.96
X144.78Y-53.34
X144.78Y-60.96
X147.32Y-53.34
X147.32Y-60.96
X149.86Y-53.34
X149.86Y-60.96
X152.4Y-53.34
X152.4Y-60.96
X154.94Y-53.34
X154.94Y-60.96
X157.48Y-53.34
X157.48Y-60.96
X160.02Y-53.34
X160.02Y-60.96
X162.56Y-53.34
X162.56Y-60.96
X165.1Y-53.34
X165.1Y-60.96
X121.92Y-80.645
X121.92Y-88.265
X124.46Y-80.645
X124.46Y-88.265
X127.0Y-80.645
X127.0Y-88.265
X129.54Y-80.645
X129.54Y-88.265
X132.08Y-80.645
X132.08Y-88.265
X134.62Y-80.645
X134.62Y-88.265
X137.16Y-80.645
X137.16Y-88.265
X139.7Y-80.645
X139.7Y-88.265
X142.24Y-80.645
X142.24Y-88.265
X144.78Y-80.645
X144.78Y-88.265
X147.32Y-80.645
X147.32Y-88.265
X149.86Y-80.645
X149.86Y-88.265
X152.4Y-80.645
X152.4Y-88.265
X154.94Y-80.645
X154.94Y-88.265
T3
X130.81Y-66.675
X130.81Y-69.215
X133.35Y-66.675
X133.35Y-69.215
X135.89Y-66.675
X135.89Y-69.215
X138.43Y-66.675
X138.43Y-69.215
X140.97Y-66.675
X140.97Y-69.215
X143.51Y-66.675
X143.51Y-69.215
X146.05Y-66.675
X146.05Y-69.215
X148.59Y-66.675
X148.59Y-69.215
X151.13Y-66.675
X151.13Y-69.215
X153.67Y-66.675
X153.67Y-69.215
X156.21Y-66.675
X156.21Y-69.215
X158.75Y-66.675
X158.75Y-69.215
X161.29Y-66.675
X161.29Y-69.215
X163.83Y-66.675
X163.83Y-69.215
X166.37Y-66.675
X166.37Y-69.215
X111.125Y-77.47
X111.125Y-80.01
X108.585Y-123.19
X108.585Y-125.73
X108.585Y-128.27
X108.585Y-130.81
X142.875Y-105.41
X142.875Y-107.95
X108.585Y-80.645
X108.585Y-83.185
X108.585Y-85.725
X108.585Y-88.265
X161.735Y-87.51
X165.735Y-87.51
X169.735Y-87.51
X121.92Y-77.47
X124.46Y-77.47
X127.0Y-77.47
X129.54Y-77.47
X132.08Y-77.47
X134.62Y-77.47
X137.16Y-77.47
X139.7Y-77.47
X127.0Y-92.075
X129.54Y-92.075
X132.08Y-92.075
X134.62Y-92.075
X137.16Y-92.075
X139.7Y-92.075
X146.05Y-134.62
X148.59Y-134.62
X151.13Y-134.62
X153.67Y-134.62
X156.21Y-134.62
X158.75Y-134.62
X194.945Y-102.87
X194.945Y-105.41
X194.945Y-107.95
X194.945Y-110.49
X114.935Y-75.565
X114.935Y-78.105
X114.935Y-80.645
X114.935Y-83.185
X114.935Y-85.725
X114.935Y-88.265
X114.935Y-90.805
X114.935Y-93.345
X125.095Y-105.41
X125.095Y-107.95
X140.97Y-114.3
X143.51Y-114.3
X146.05Y-114.3
X148.59Y-114.3
X151.13Y-114.3
X153.67Y-114.3
X156.21Y-114.3
X158.75Y-114.3
X130.175Y-48.26
X132.715Y-48.26
X135.255Y-48.26
X137.795Y-48.26
X140.335Y-48.26
X142.875Y-48.26
X108.585Y-102.87
X108.585Y-105.41
X108.585Y-107.95
X108.585Y-110.49
X149.225Y-48.26
X151.765Y-48.26
X154.305Y-48.26
X156.845Y-48.26
X159.385Y-48.26
X161.925Y-48.26
X164.465Y-48.26
X167.005Y-48.26
T4
X182.245Y-104.14
X184.785Y-110.49
X147.955Y-104.14
X154.305Y-101.6
X136.525Y-102.87
X139.065Y-109.22
X118.745Y-102.87
X121.285Y-109.22
X118.745Y-123.19
X121.285Y-129.54
X182.245Y-124.46
X184.785Y-130.81
X147.955Y-124.46
X154.305Y-121.92
X136.525Y-123.19
X139.065Y-129.54
X164.465Y-124.46
X167.005Y-130.81
X164.465Y-104.14
X167.005Y-110.49
T5
X160.735Y-77.51
X170.735Y-77.51
T6
X180.165Y-79.455
X180.165Y-81.955
X180.165Y-86.955
X180.165Y-89.455
X185.165Y-84.455
T7
X107.315Y-77.47
X107.315Y-99.695
X107.315Y-120.015
X130.175Y-44.45
X130.175Y-63.5
X167.005Y-44.45
X167.005Y-63.5
X184.785Y-75.565
X184.785Y-93.345
X196.215Y-113.665
X196.215Y-133.985
T8
X116.205Y-127.0
X187.325Y-127.0
X151.765Y-127.0
X133.985Y-127.0
X169.545Y-127.0
X169.545Y-106.68
X187.325Y-106.68
X151.765Y-106.68
X133.985Y-106.68
X116.205Y-106.68
T0
M30
