M48
; DRILL file {KiCad (5.1.8)-1} date 04/24/23 00:28:38
; FORMAT={-:-/ absolute / metric / decimal}
; #@! TF.CreationDate,2023-04-24T00:28:38+09:00
; #@! TF.GenerationSoftware,Kicad,Pcbnew,(5.1.8)-1
FMAT,2
METRIC
T1C0.400
T2C0.800
T3C0.900
T4C1.000
T5C1.200
T6C1.400
T7C1.900
T8C3.400
%
G90
G05
T1
X142.0Y-75.5
X163.0Y-96.0
X164.5Y-96.0
X181.5Y-74.0
X184.5Y-77.0
X186.0Y-77.0
X186.0Y-79.0
X186.5Y-93.0
X186.5Y-99.5
X187.5Y-92.5
X187.5Y-98.5
X188.5Y-77.5
X190.0Y-71.5
X191.0Y-97.0
X191.5Y-69.5
X193.0Y-91.5
X195.0Y-97.0
X195.5Y-68.0
X195.5Y-89.5
X197.0Y-68.0
X198.5Y-77.0
X198.5Y-99.5
X200.395Y-71.5
X202.5Y-71.5
X214.5Y-97.5
T2
X179.4Y-109.0
X179.42Y-99.0
X181.96Y-99.0
X181.96Y-109.0
X184.5Y-99.0
X184.5Y-109.0
X213.0Y-110.5
X215.0Y-110.5
X217.0Y-110.5
X219.0Y-110.5
X166.9Y-109.0
X166.92Y-99.0
X169.46Y-99.0
X169.46Y-109.0
X172.0Y-99.0
X172.0Y-109.0
T3
X129.69Y-88.19
X129.69Y-90.73
X129.69Y-93.27
X129.69Y-95.81
X137.31Y-88.19
X137.31Y-90.73
X137.31Y-93.27
X137.31Y-95.81
T4
X229.0Y-99.5
X231.54Y-99.5
X229.0Y-108.0
X231.54Y-108.0
X148.96Y-106.5
X151.5Y-106.5
X127.5Y-71.46
X127.5Y-74.0
X128.0Y-114.5
X132.0Y-114.5
X136.0Y-114.5
X148.96Y-111.0
X151.5Y-111.0
T5
X173.518Y-117.456
X177.498Y-121.139
X153.018Y-117.456
X156.998Y-121.139
X188.601Y-66.281
X194.018Y-66.544
X214.518Y-117.456
X218.498Y-121.139
X154.8Y-82.0
X156.9Y-87.0
X173.8Y-82.0
X175.9Y-87.0
X235.018Y-117.456
X238.998Y-121.139
X194.018Y-117.456
X197.998Y-121.139
X133.5Y-84.5
X133.5Y-99.5
X147.601Y-66.281
X153.018Y-66.544
X209.101Y-66.281
X214.518Y-66.544
X168.101Y-66.281
X173.518Y-66.544
X229.601Y-66.281
X235.018Y-66.544
T6
X127.0Y-124.5
X137.0Y-124.5
T7
X227.832Y-62.881
X238.168Y-59.119
X166.332Y-121.119
X176.668Y-124.881
X145.832Y-121.119
X156.168Y-124.881
X186.832Y-62.881
X197.168Y-59.119
X207.332Y-121.119
X217.668Y-124.881
X151.0Y-81.5
X151.0Y-92.5
X170.0Y-81.5
X170.0Y-92.5
X227.832Y-121.119
X238.168Y-124.881
X186.832Y-121.119
X197.168Y-124.881
X145.832Y-62.881
X156.168Y-59.119
X207.332Y-62.881
X217.668Y-59.119
X166.332Y-62.881
X176.668Y-59.119
T8
X233.0Y-61.0
X171.5Y-123.0
X151.0Y-123.0
X192.0Y-61.0
X212.5Y-123.0
X151.0Y-87.0
X170.0Y-87.0
X233.0Y-123.0
X192.0Y-123.0
X151.0Y-61.0
X212.5Y-61.0
X171.5Y-61.0
T4
G00X238.75Y-99.0
M15
G01X238.25Y-99.0
M16
G05
G00X238.75Y-101.5
M15
G01X238.25Y-101.5
M16
G05
G00X238.75Y-106.5
M15
G01X238.25Y-106.5
M16
G05
G00X238.75Y-109.0
M15
G01X238.25Y-109.0
M16
G05
G00X243.5Y-103.75
M15
G01X243.5Y-104.25
M16
G05
G00X127.5Y-65.25
M15
G01X127.5Y-65.75
M16
G05
G00X130.0Y-65.25
M15
G01X130.0Y-65.75
M16
G05
G00X132.25Y-60.5
M15
G01X132.75Y-60.5
M16
G05
G00X135.0Y-65.25
M15
G01X135.0Y-65.75
M16
G05
G00X137.5Y-65.25
M15
G01X137.5Y-65.75
M16
G05
T0
M30
