G04 #@! TF.GenerationSoftware,KiCad,Pcbnew,(5.1.8)-1*
G04 #@! TF.CreationDate,2023-04-24T00:28:35+09:00*
G04 #@! TF.ProjectId,windsynth,77696e64-7379-46e7-9468-2e6b69636164,rev?*
G04 #@! TF.SameCoordinates,Original*
G04 #@! TF.FileFunction,Soldermask,Top*
G04 #@! TF.FilePolarity,Negative*
%FSLAX46Y46*%
G04 Gerber Fmt 4.6, Leading zero omitted, Abs format (unit mm)*
G04 Created by KiCad (PCBNEW (5.1.8)-1) date 2023-04-24 00:28:35*
%MOMM*%
%LPD*%
G01*
G04 APERTURE LIST*
%ADD10O,1.700000X1.700000*%
%ADD11R,1.700000X1.700000*%
%ADD12R,1.350000X1.350000*%
%ADD13O,1.350000X1.350000*%
%ADD14R,1.600000X1.600000*%
%ADD15O,1.600000X1.600000*%
%ADD16O,1.200000X1.200000*%
%ADD17C,1.524000*%
%ADD18C,2.000000*%
%ADD19O,1.700000X2.000000*%
%ADD20O,2.000000X1.700000*%
%ADD21C,0.100000*%
%ADD22C,1.900000*%
%ADD23C,3.400000*%
%ADD24C,1.800000*%
G04 APERTURE END LIST*
D10*
G04 #@! TO.C,10u*
X127500000Y-71460000D03*
D11*
X127500000Y-74000000D03*
G04 #@! TD*
D12*
G04 #@! TO.C,I2C*
X219000000Y-110500000D03*
D13*
X217000000Y-110500000D03*
X215000000Y-110500000D03*
X213000000Y-110500000D03*
G04 #@! TD*
D14*
G04 #@! TO.C,BreathSensor1*
X172000000Y-109000000D03*
D15*
X166920000Y-99000000D03*
D16*
X169460000Y-109000000D03*
D15*
X169460000Y-99000000D03*
X166900000Y-109000000D03*
X172000000Y-99000000D03*
G04 #@! TD*
D17*
G04 #@! TO.C,AE-PAM8012*
X137310000Y-88190000D03*
X137310000Y-90730000D03*
X137310000Y-93270000D03*
X137310000Y-95810000D03*
X129690000Y-88190000D03*
X129690000Y-90730000D03*
X129690000Y-93270000D03*
X129690000Y-95810000D03*
G04 #@! TD*
D18*
G04 #@! TO.C,Speaker*
X133500000Y-84500000D03*
X133500000Y-99500000D03*
G04 #@! TD*
G04 #@! TO.C,HEADPHONE*
X132500000Y-60500000D03*
D19*
X127500000Y-65500000D03*
X130000000Y-65500000D03*
X135000000Y-65500000D03*
X137500000Y-65500000D03*
G04 #@! TD*
D20*
G04 #@! TO.C,MIDI-TRS*
X238500000Y-109000000D03*
X238500000Y-106500000D03*
X238500000Y-101500000D03*
X238500000Y-99000000D03*
D19*
X243500000Y-104000000D03*
G04 #@! TD*
D21*
G04 #@! TO.C,KeyA*
G36*
X169209328Y-57630234D02*
G01*
X168081697Y-58040659D01*
X167568666Y-56631120D01*
X168696297Y-56220695D01*
X169209328Y-57630234D01*
G37*
G36*
X172216345Y-56535769D02*
G01*
X171088714Y-56946194D01*
X170575683Y-55536655D01*
X171703314Y-55126230D01*
X172216345Y-56535769D01*
G37*
D22*
X176668309Y-59118889D03*
X166331691Y-62881111D03*
D23*
X171500000Y-61000000D03*
D18*
X168101213Y-66280933D03*
X173517919Y-66544186D03*
G04 #@! TD*
G04 #@! TO.C,KeyB*
X153017919Y-66544186D03*
X147601213Y-66280933D03*
D23*
X151000000Y-61000000D03*
D22*
X145831691Y-62881111D03*
X156168309Y-59118889D03*
D21*
G36*
X151716345Y-56535769D02*
G01*
X150588714Y-56946194D01*
X150075683Y-55536655D01*
X151203314Y-55126230D01*
X151716345Y-56535769D01*
G37*
G36*
X148709328Y-57630234D02*
G01*
X147581697Y-58040659D01*
X147068666Y-56631120D01*
X148196297Y-56220695D01*
X148709328Y-57630234D01*
G37*
G04 #@! TD*
D18*
G04 #@! TO.C,KeyD*
X194017919Y-117455814D03*
X197998140Y-121139269D03*
D23*
X192000000Y-123000000D03*
D22*
X197168309Y-124881111D03*
X186831691Y-121118889D03*
D21*
G36*
X188581697Y-125959341D02*
G01*
X189709328Y-126369766D01*
X189196297Y-127779305D01*
X188068666Y-127368880D01*
X188581697Y-125959341D01*
G37*
G36*
X191588714Y-127053806D02*
G01*
X192716345Y-127464231D01*
X192203314Y-128873770D01*
X191075683Y-128463345D01*
X191588714Y-127053806D01*
G37*
G04 #@! TD*
G04 #@! TO.C,KeyEb*
G36*
X212088714Y-127053806D02*
G01*
X213216345Y-127464231D01*
X212703314Y-128873770D01*
X211575683Y-128463345D01*
X212088714Y-127053806D01*
G37*
G36*
X209081697Y-125959341D02*
G01*
X210209328Y-126369766D01*
X209696297Y-127779305D01*
X208568666Y-127368880D01*
X209081697Y-125959341D01*
G37*
D22*
X207331691Y-121118889D03*
X217668309Y-124881111D03*
D23*
X212500000Y-123000000D03*
D18*
X218498140Y-121139269D03*
X214517919Y-117455814D03*
G04 #@! TD*
D21*
G04 #@! TO.C,KeyE*
G36*
X171088714Y-127053806D02*
G01*
X172216345Y-127464231D01*
X171703314Y-128873770D01*
X170575683Y-128463345D01*
X171088714Y-127053806D01*
G37*
G36*
X168081697Y-125959341D02*
G01*
X169209328Y-126369766D01*
X168696297Y-127779305D01*
X167568666Y-127368880D01*
X168081697Y-125959341D01*
G37*
D22*
X166331691Y-121118889D03*
X176668309Y-124881111D03*
D23*
X171500000Y-123000000D03*
D18*
X177498140Y-121139269D03*
X173517919Y-117455814D03*
G04 #@! TD*
G04 #@! TO.C,KeyF*
X153017919Y-117455814D03*
X156998140Y-121139269D03*
D23*
X151000000Y-123000000D03*
D22*
X156168309Y-124881111D03*
X145831691Y-121118889D03*
D21*
G36*
X147581697Y-125959341D02*
G01*
X148709328Y-126369766D01*
X148196297Y-127779305D01*
X147068666Y-127368880D01*
X147581697Y-125959341D01*
G37*
G36*
X150588714Y-127053806D02*
G01*
X151716345Y-127464231D01*
X151203314Y-128873770D01*
X150075683Y-128463345D01*
X150588714Y-127053806D01*
G37*
G04 #@! TD*
G04 #@! TO.C,KeyG*
G36*
X189709328Y-57630234D02*
G01*
X188581697Y-58040659D01*
X188068666Y-56631120D01*
X189196297Y-56220695D01*
X189709328Y-57630234D01*
G37*
G36*
X192716345Y-56535769D02*
G01*
X191588714Y-56946194D01*
X191075683Y-55536655D01*
X192203314Y-55126230D01*
X192716345Y-56535769D01*
G37*
D22*
X197168309Y-59118889D03*
X186831691Y-62881111D03*
D23*
X192000000Y-61000000D03*
D18*
X188601213Y-66280933D03*
X194017919Y-66544186D03*
G04 #@! TD*
G04 #@! TO.C,KeyGs*
X214517919Y-66544186D03*
X209101213Y-66280933D03*
D23*
X212500000Y-61000000D03*
D22*
X207331691Y-62881111D03*
X217668309Y-59118889D03*
D21*
G36*
X213216345Y-56535769D02*
G01*
X212088714Y-56946194D01*
X211575683Y-55536655D01*
X212703314Y-55126230D01*
X213216345Y-56535769D01*
G37*
G36*
X210209328Y-57630234D02*
G01*
X209081697Y-58040659D01*
X208568666Y-56631120D01*
X209696297Y-56220695D01*
X210209328Y-57630234D01*
G37*
G04 #@! TD*
D18*
G04 #@! TO.C,KeyLowC*
X235017919Y-117455814D03*
X238998140Y-121139269D03*
D23*
X233000000Y-123000000D03*
D22*
X238168309Y-124881111D03*
X227831691Y-121118889D03*
D21*
G36*
X229581697Y-125959341D02*
G01*
X230709328Y-126369766D01*
X230196297Y-127779305D01*
X229068666Y-127368880D01*
X229581697Y-125959341D01*
G37*
G36*
X232588714Y-127053806D02*
G01*
X233716345Y-127464231D01*
X233203314Y-128873770D01*
X232075683Y-128463345D01*
X232588714Y-127053806D01*
G37*
G04 #@! TD*
G04 #@! TO.C,KeyLowCs*
G36*
X230709328Y-57630234D02*
G01*
X229581697Y-58040659D01*
X229068666Y-56631120D01*
X230196297Y-56220695D01*
X230709328Y-57630234D01*
G37*
G36*
X233716345Y-56535769D02*
G01*
X232588714Y-56946194D01*
X232075683Y-55536655D01*
X233203314Y-55126230D01*
X233716345Y-56535769D01*
G37*
D22*
X238168309Y-59118889D03*
X227831691Y-62881111D03*
D23*
X233000000Y-61000000D03*
D18*
X229601213Y-66280933D03*
X235017919Y-66544186D03*
G04 #@! TD*
D22*
G04 #@! TO.C,OctDown*
X170000000Y-92500000D03*
X170000000Y-81500000D03*
D23*
X170000000Y-87000000D03*
D18*
X173800000Y-82000000D03*
X175900000Y-87000000D03*
G04 #@! TD*
G04 #@! TO.C,OctUp*
X156900000Y-87000000D03*
X154800000Y-82000000D03*
D23*
X151000000Y-87000000D03*
D22*
X151000000Y-81500000D03*
X151000000Y-92500000D03*
G04 #@! TD*
D11*
G04 #@! TO.C,56k*
X151500000Y-111000000D03*
D10*
X148960000Y-111000000D03*
G04 #@! TD*
D11*
G04 #@! TO.C,220*
X151500000Y-106500000D03*
D10*
X148960000Y-106500000D03*
G04 #@! TD*
G04 #@! TO.C,47*
X231540000Y-99500000D03*
D11*
X229000000Y-99500000D03*
G04 #@! TD*
G04 #@! TO.C,47*
X229000000Y-108000000D03*
D10*
X231540000Y-108000000D03*
G04 #@! TD*
D18*
G04 #@! TO.C,VOLUME*
X127000000Y-124500000D03*
D24*
X128000000Y-114500000D03*
X132000000Y-114500000D03*
X136000000Y-114500000D03*
D18*
X137000000Y-124500000D03*
G04 #@! TD*
D14*
G04 #@! TO.C,BreathSensor2*
X184500000Y-109000000D03*
D15*
X179420000Y-99000000D03*
D16*
X181960000Y-109000000D03*
D15*
X181960000Y-99000000D03*
X179400000Y-109000000D03*
X184500000Y-99000000D03*
G04 #@! TD*
M02*
