G04 #@! TF.GenerationSoftware,KiCad,Pcbnew,(5.1.8)-1*
G04 #@! TF.CreationDate,2023-04-24T00:28:35+09:00*
G04 #@! TF.ProjectId,windsynth,77696e64-7379-46e7-9468-2e6b69636164,rev?*
G04 #@! TF.SameCoordinates,Original*
G04 #@! TF.FileFunction,Profile,NP*
%FSLAX46Y46*%
G04 Gerber Fmt 4.6, Leading zero omitted, Abs format (unit mm)*
G04 Created by KiCad (PCBNEW (5.1.8)-1) date 2023-04-24 00:28:35*
%MOMM*%
%LPD*%
G01*
G04 APERTURE LIST*
G04 #@! TA.AperFunction,Profile*
%ADD10C,0.050000*%
G04 #@! TD*
G04 APERTURE END LIST*
D10*
X184300000Y-105900000D02*
G75*
G03*
X184300000Y-105900000I-2300000J0D01*
G01*
X171800000Y-105900000D02*
G75*
G03*
X171800000Y-105900000I-2300000J0D01*
G01*
X224700000Y-115000000D02*
G75*
G03*
X224700000Y-115000000I-1200000J0D01*
G01*
X224700000Y-69000000D02*
G75*
G03*
X224700000Y-69000000I-1200000J0D01*
G01*
X142700000Y-115000000D02*
G75*
G03*
X142700000Y-115000000I-1200000J0D01*
G01*
X162700000Y-69000000D02*
G75*
G03*
X162700000Y-69000000I-1200000J0D01*
G01*
X142700000Y-69000000D02*
G75*
G03*
X142700000Y-69000000I-1200000J0D01*
G01*
X162700000Y-115000000D02*
G75*
G03*
X162700000Y-115000000I-1200000J0D01*
G01*
X243700000Y-115000000D02*
G75*
G03*
X243700000Y-115000000I-1200000J0D01*
G01*
X243700000Y-69000000D02*
G75*
G03*
X243700000Y-69000000I-1200000J0D01*
G01*
X245000000Y-55000000D02*
X123000000Y-55000000D01*
X245000000Y-55000000D02*
G75*
G02*
X245500000Y-55500000I0J-500000D01*
G01*
X245500000Y-71000000D02*
X245500000Y-55500000D01*
X245500000Y-71000000D02*
G75*
G02*
X245000000Y-71500000I-500000J0D01*
G01*
X205500000Y-71500000D02*
X245000000Y-71500000D01*
X205500000Y-79000000D02*
X205500000Y-71500000D01*
X205500000Y-79000000D02*
G75*
G02*
X205000000Y-79500000I-500000J0D01*
G01*
X205000000Y-88500000D02*
G75*
G02*
X205500000Y-89000000I0J-500000D01*
G01*
X205500000Y-96500000D02*
X205500000Y-89000000D01*
X245000000Y-96500000D02*
X205500000Y-96500000D01*
X245000000Y-96500000D02*
G75*
G02*
X245500000Y-97000000I0J-500000D01*
G01*
X245500000Y-128500000D02*
X245500000Y-97000000D01*
X245500000Y-128500000D02*
G75*
G02*
X245000000Y-129000000I-500000J0D01*
G01*
X199000000Y-88500000D02*
X205000000Y-88500000D01*
X199000000Y-79500000D02*
X199000000Y-88500000D01*
X205000000Y-79500000D02*
X199000000Y-79500000D01*
X125500000Y-129000000D02*
X123000000Y-129000000D01*
X126500000Y-128000000D02*
G75*
G02*
X125500000Y-129000000I-1000000J0D01*
G01*
X139500000Y-128000000D02*
X139500000Y-127000000D01*
X126500000Y-127000000D02*
X126500000Y-128000000D01*
X139500000Y-127000000D02*
X126500000Y-127000000D01*
X140500000Y-129000000D02*
G75*
G02*
X139500000Y-128000000I0J1000000D01*
G01*
X122500000Y-55500000D02*
X122500000Y-128500000D01*
X123000000Y-129000000D02*
G75*
G02*
X122500000Y-128500000I0J500000D01*
G01*
X122500000Y-55500000D02*
G75*
G02*
X123000000Y-55000000I500000J0D01*
G01*
X140500000Y-129000000D02*
X245000000Y-129000000D01*
M02*
