M48
;DRILL file {KiCad 4.0.1-stable} date 2019/01/29 0:04:26
;FORMAT={-:-/ absolute / inch / decimal}
FMAT,2
INCH,TZ
T1C0.016
T2C0.020
T3C0.028
T4C0.031
T5C0.039
T6C0.047
T7C0.067
T8C0.157
%
G90
G05
M72
T1
X4.3Y-4.5
X4.35Y-4.2
X4.4Y-4.15
X4.55Y-4.6
X4.6Y-4.
X4.6Y-4.2
X4.75Y-3.85
X4.75Y-3.9
X4.75Y-3.95
X4.8Y-4.75
X4.8Y-4.85
X4.85Y-3.85
X4.85Y-3.9
X4.85Y-3.95
X4.9Y-4.75
X4.9Y-4.85
T2
X4.287Y-2.85
X4.3185Y-2.8028
X4.35Y-2.85
X4.3815Y-2.8028
X4.413Y-2.85
T3
X4.Y-3.75
X4.Y-3.95
X4.1Y-3.85
T4
X4.2Y-3.
X4.2Y-3.1
X4.2Y-3.2
X4.2Y-3.3
X4.2Y-3.45
X4.2Y-3.55
X4.2Y-3.65
X4.2Y-3.75
X4.2Y-3.85
X4.2Y-3.95
X4.2Y-4.05
X4.2Y-4.15
X4.2Y-4.25
X4.2Y-4.35
X4.2Y-4.45
X4.2Y-4.55
X4.2Y-4.65
X4.2Y-4.75
X4.5Y-3.
X4.5Y-3.1
X4.5Y-3.2
X4.5Y-3.3
X4.5Y-3.45
X4.5Y-3.55
X4.5Y-3.65
X4.5Y-3.75
X4.5Y-3.85
X4.5Y-3.95
X4.5Y-4.05
X4.5Y-4.15
X4.5Y-4.25
X4.5Y-4.35
X4.5Y-4.45
X4.5Y-4.55
X4.5Y-4.65
X4.5Y-4.75
T5
X3.95Y-2.85
X3.95Y-5.75
X3.95Y-5.85
X3.95Y-5.95
X3.95Y-6.05
X4.05Y-2.85
X4.05Y-3.05
X4.05Y-3.15
X4.05Y-3.35
X4.05Y-3.45
X4.05Y-4.2
X4.05Y-4.3
X4.05Y-4.4
X4.65Y-2.85
X4.65Y-3.1
X4.65Y-3.2
X4.65Y-4.45
X4.65Y-4.55
X4.65Y-4.65
X4.7Y-3.4
X4.7Y-3.5
X4.7Y-3.65
X4.7Y-3.75
X4.7Y-4.15
X4.7Y-4.25
X4.75Y-2.85
X4.75Y-4.45
X4.75Y-4.55
X4.75Y-4.65
X4.75Y-5.3
X4.75Y-5.4
X4.75Y-5.75
X4.75Y-5.85
X4.75Y-5.95
T6
X3.35Y-2.85
X3.35Y-3.55
X3.35Y-4.25
X3.35Y-4.95
X3.35Y-5.65
X3.45Y-3.1
X3.45Y-3.8
X3.45Y-4.5
X3.45Y-5.2
X3.45Y-5.9
X4.2Y-5.2
X4.2Y-5.85
X4.45Y-5.3
X4.45Y-5.95
X5.25Y-2.8
X5.25Y-3.5
X5.25Y-4.2
X5.25Y-4.9
X5.25Y-5.6
X5.35Y-3.05
X5.35Y-3.75
X5.35Y-4.45
X5.35Y-5.15
X5.35Y-5.85
T7
X4.2004Y-2.6295
X4.4996Y-2.6295
T8
X3.55Y-2.95
X3.55Y-3.65
X3.55Y-4.35
X3.55Y-5.05
X3.55Y-5.75
X4.35Y-5.1
X4.35Y-5.75
X5.15Y-2.95
X5.15Y-3.65
X5.15Y-4.35
X5.15Y-5.05
X5.15Y-5.75
T0
M30
