G04 #@! TF.GenerationSoftware,KiCad,Pcbnew,(5.1.8)-1*
G04 #@! TF.CreationDate,2021-12-03T11:16:53+09:00*
G04 #@! TF.ProjectId,windsynth,77696e64-7379-46e7-9468-2e6b69636164,rev?*
G04 #@! TF.SameCoordinates,Original*
G04 #@! TF.FileFunction,Legend,Top*
G04 #@! TF.FilePolarity,Positive*
%FSLAX46Y46*%
G04 Gerber Fmt 4.6, Leading zero omitted, Abs format (unit mm)*
G04 Created by KiCad (PCBNEW (5.1.8)-1) date 2021-12-03 11:16:53*
%MOMM*%
%LPD*%
G01*
G04 APERTURE LIST*
%ADD10C,0.120000*%
%ADD11C,0.150000*%
G04 APERTURE END LIST*
D10*
X131500000Y-106000000D02*
X144500000Y-106000000D01*
X131500000Y-83000000D02*
X131500000Y-106000000D01*
X144500000Y-83000000D02*
X131500000Y-83000000D01*
X174000000Y-87000000D02*
X149000000Y-87000000D01*
X174000000Y-102000000D02*
X174000000Y-87000000D01*
X149000000Y-102000000D02*
X174000000Y-102000000D01*
X149000000Y-87000000D02*
X149000000Y-102000000D01*
X144500000Y-83000000D02*
X144500000Y-106000000D01*
X191500000Y-83000000D02*
X144500000Y-83000000D01*
X191500000Y-106000000D02*
X191500000Y-83000000D01*
D11*
X182952380Y-97142857D02*
X181952380Y-97142857D01*
X182666666Y-96809523D01*
X181952380Y-96476190D01*
X182952380Y-96476190D01*
X181952380Y-95523809D02*
X181952380Y-96000000D01*
X182428571Y-96047619D01*
X182380952Y-96000000D01*
X182333333Y-95904761D01*
X182333333Y-95666666D01*
X182380952Y-95571428D01*
X182428571Y-95523809D01*
X182523809Y-95476190D01*
X182761904Y-95476190D01*
X182857142Y-95523809D01*
X182904761Y-95571428D01*
X182952380Y-95666666D01*
X182952380Y-95904761D01*
X182904761Y-96000000D01*
X182857142Y-96047619D01*
X182904761Y-95095238D02*
X182952380Y-94952380D01*
X182952380Y-94714285D01*
X182904761Y-94619047D01*
X182857142Y-94571428D01*
X182761904Y-94523809D01*
X182666666Y-94523809D01*
X182571428Y-94571428D01*
X182523809Y-94619047D01*
X182476190Y-94714285D01*
X182428571Y-94904761D01*
X182380952Y-95000000D01*
X182333333Y-95047619D01*
X182238095Y-95095238D01*
X182142857Y-95095238D01*
X182047619Y-95047619D01*
X182000000Y-95000000D01*
X181952380Y-94904761D01*
X181952380Y-94666666D01*
X182000000Y-94523809D01*
X182285714Y-94238095D02*
X182285714Y-93857142D01*
X181952380Y-94095238D02*
X182809523Y-94095238D01*
X182904761Y-94047619D01*
X182952380Y-93952380D01*
X182952380Y-93857142D01*
X182952380Y-93523809D02*
X182285714Y-93523809D01*
X181952380Y-93523809D02*
X182000000Y-93571428D01*
X182047619Y-93523809D01*
X182000000Y-93476190D01*
X181952380Y-93523809D01*
X182047619Y-93523809D01*
X182904761Y-92619047D02*
X182952380Y-92714285D01*
X182952380Y-92904761D01*
X182904761Y-93000000D01*
X182857142Y-93047619D01*
X182761904Y-93095238D01*
X182476190Y-93095238D01*
X182380952Y-93047619D01*
X182333333Y-93000000D01*
X182285714Y-92904761D01*
X182285714Y-92714285D01*
X182333333Y-92619047D01*
X182952380Y-92190476D02*
X181952380Y-92190476D01*
X182571428Y-92095238D02*
X182952380Y-91809523D01*
X182285714Y-91809523D02*
X182666666Y-92190476D01*
X182857142Y-90809523D02*
X182904761Y-90857142D01*
X182952380Y-91000000D01*
X182952380Y-91095238D01*
X182904761Y-91238095D01*
X182809523Y-91333333D01*
X182714285Y-91380952D01*
X182523809Y-91428571D01*
X182380952Y-91428571D01*
X182190476Y-91380952D01*
X182095238Y-91333333D01*
X182000000Y-91238095D01*
X181952380Y-91095238D01*
X181952380Y-91000000D01*
X182000000Y-90857142D01*
X182047619Y-90809523D01*
D10*
X144500000Y-106000000D02*
X191500000Y-106000000D01*
D11*
X156000000Y-93016666D02*
X156476190Y-93016666D01*
X155904761Y-93302380D02*
X156238095Y-92302380D01*
X156571428Y-93302380D01*
X157238095Y-92778571D02*
X156904761Y-92778571D01*
X156904761Y-93302380D02*
X156904761Y-92302380D01*
X157380952Y-92302380D01*
X157761904Y-92302380D02*
X157761904Y-93111904D01*
X157809523Y-93207142D01*
X157857142Y-93254761D01*
X157952380Y-93302380D01*
X158142857Y-93302380D01*
X158238095Y-93254761D01*
X158285714Y-93207142D01*
X158333333Y-93111904D01*
X158333333Y-92302380D01*
X158809523Y-92302380D02*
X158809523Y-93111904D01*
X158857142Y-93207142D01*
X158904761Y-93254761D01*
X159000000Y-93302380D01*
X159190476Y-93302380D01*
X159285714Y-93254761D01*
X159333333Y-93207142D01*
X159380952Y-93111904D01*
X159380952Y-92302380D01*
X159857142Y-92778571D02*
X160190476Y-92778571D01*
X160333333Y-93302380D02*
X159857142Y-93302380D01*
X159857142Y-92302380D01*
X160333333Y-92302380D01*
X161857142Y-92778571D02*
X162000000Y-92826190D01*
X162047619Y-92873809D01*
X162095238Y-92969047D01*
X162095238Y-93111904D01*
X162047619Y-93207142D01*
X162000000Y-93254761D01*
X161904761Y-93302380D01*
X161523809Y-93302380D01*
X161523809Y-92302380D01*
X161857142Y-92302380D01*
X161952380Y-92350000D01*
X162000000Y-92397619D01*
X162047619Y-92492857D01*
X162047619Y-92588095D01*
X162000000Y-92683333D01*
X161952380Y-92730952D01*
X161857142Y-92778571D01*
X161523809Y-92778571D01*
X162714285Y-92302380D02*
X162904761Y-92302380D01*
X163000000Y-92350000D01*
X163095238Y-92445238D01*
X163142857Y-92635714D01*
X163142857Y-92969047D01*
X163095238Y-93159523D01*
X163000000Y-93254761D01*
X162904761Y-93302380D01*
X162714285Y-93302380D01*
X162619047Y-93254761D01*
X162523809Y-93159523D01*
X162476190Y-92969047D01*
X162476190Y-92635714D01*
X162523809Y-92445238D01*
X162619047Y-92350000D01*
X162714285Y-92302380D01*
X163523809Y-93016666D02*
X164000000Y-93016666D01*
X163428571Y-93302380D02*
X163761904Y-92302380D01*
X164095238Y-93302380D01*
X165000000Y-93302380D02*
X164666666Y-92826190D01*
X164428571Y-93302380D02*
X164428571Y-92302380D01*
X164809523Y-92302380D01*
X164904761Y-92350000D01*
X164952380Y-92397619D01*
X165000000Y-92492857D01*
X165000000Y-92635714D01*
X164952380Y-92730952D01*
X164904761Y-92778571D01*
X164809523Y-92826190D01*
X164428571Y-92826190D01*
X165428571Y-93302380D02*
X165428571Y-92302380D01*
X165666666Y-92302380D01*
X165809523Y-92350000D01*
X165904761Y-92445238D01*
X165952380Y-92540476D01*
X166000000Y-92730952D01*
X166000000Y-92873809D01*
X165952380Y-93064285D01*
X165904761Y-93159523D01*
X165809523Y-93254761D01*
X165666666Y-93302380D01*
X165428571Y-93302380D01*
X153071428Y-93952380D02*
X153404761Y-94952380D01*
X153738095Y-93952380D01*
X154452380Y-94904761D02*
X154357142Y-94952380D01*
X154166666Y-94952380D01*
X154071428Y-94904761D01*
X154023809Y-94809523D01*
X154023809Y-94428571D01*
X154071428Y-94333333D01*
X154166666Y-94285714D01*
X154357142Y-94285714D01*
X154452380Y-94333333D01*
X154500000Y-94428571D01*
X154500000Y-94523809D01*
X154023809Y-94619047D01*
X154928571Y-94952380D02*
X154928571Y-94285714D01*
X154928571Y-94476190D02*
X154976190Y-94380952D01*
X155023809Y-94333333D01*
X155119047Y-94285714D01*
X155214285Y-94285714D01*
X156833333Y-94952380D02*
X156261904Y-94952380D01*
X156547619Y-94952380D02*
X156547619Y-93952380D01*
X156452380Y-94095238D01*
X156357142Y-94190476D01*
X156261904Y-94238095D01*
X157261904Y-94857142D02*
X157309523Y-94904761D01*
X157261904Y-94952380D01*
X157214285Y-94904761D01*
X157261904Y-94857142D01*
X157261904Y-94952380D01*
X157880952Y-94380952D02*
X157785714Y-94333333D01*
X157738095Y-94285714D01*
X157690476Y-94190476D01*
X157690476Y-94142857D01*
X157738095Y-94047619D01*
X157785714Y-94000000D01*
X157880952Y-93952380D01*
X158071428Y-93952380D01*
X158166666Y-94000000D01*
X158214285Y-94047619D01*
X158261904Y-94142857D01*
X158261904Y-94190476D01*
X158214285Y-94285714D01*
X158166666Y-94333333D01*
X158071428Y-94380952D01*
X157880952Y-94380952D01*
X157785714Y-94428571D01*
X157738095Y-94476190D01*
X157690476Y-94571428D01*
X157690476Y-94761904D01*
X157738095Y-94857142D01*
X157785714Y-94904761D01*
X157880952Y-94952380D01*
X158071428Y-94952380D01*
X158166666Y-94904761D01*
X158214285Y-94857142D01*
X158261904Y-94761904D01*
X158261904Y-94571428D01*
X158214285Y-94476190D01*
X158166666Y-94428571D01*
X158071428Y-94380952D01*
X159452380Y-94571428D02*
X160214285Y-94571428D01*
X161404761Y-94047619D02*
X161452380Y-94000000D01*
X161547619Y-93952380D01*
X161785714Y-93952380D01*
X161880952Y-94000000D01*
X161928571Y-94047619D01*
X161976190Y-94142857D01*
X161976190Y-94238095D01*
X161928571Y-94380952D01*
X161357142Y-94952380D01*
X161976190Y-94952380D01*
X162928571Y-94952380D02*
X162357142Y-94952380D01*
X162642857Y-94952380D02*
X162642857Y-93952380D01*
X162547619Y-94095238D01*
X162452380Y-94190476D01*
X162357142Y-94238095D01*
X164071428Y-93904761D02*
X163214285Y-95190476D01*
X164928571Y-94952380D02*
X164357142Y-94952380D01*
X164642857Y-94952380D02*
X164642857Y-93952380D01*
X164547619Y-94095238D01*
X164452380Y-94190476D01*
X164357142Y-94238095D01*
X165309523Y-94047619D02*
X165357142Y-94000000D01*
X165452380Y-93952380D01*
X165690476Y-93952380D01*
X165785714Y-94000000D01*
X165833333Y-94047619D01*
X165880952Y-94142857D01*
X165880952Y-94238095D01*
X165833333Y-94380952D01*
X165261904Y-94952380D01*
X165880952Y-94952380D01*
X167023809Y-93904761D02*
X166166666Y-95190476D01*
X167547619Y-93952380D02*
X167642857Y-93952380D01*
X167738095Y-94000000D01*
X167785714Y-94047619D01*
X167833333Y-94142857D01*
X167880952Y-94333333D01*
X167880952Y-94571428D01*
X167833333Y-94761904D01*
X167785714Y-94857142D01*
X167738095Y-94904761D01*
X167642857Y-94952380D01*
X167547619Y-94952380D01*
X167452380Y-94904761D01*
X167404761Y-94857142D01*
X167357142Y-94761904D01*
X167309523Y-94571428D01*
X167309523Y-94333333D01*
X167357142Y-94142857D01*
X167404761Y-94047619D01*
X167452380Y-94000000D01*
X167547619Y-93952380D01*
X168214285Y-93952380D02*
X168833333Y-93952380D01*
X168500000Y-94333333D01*
X168642857Y-94333333D01*
X168738095Y-94380952D01*
X168785714Y-94428571D01*
X168833333Y-94523809D01*
X168833333Y-94761904D01*
X168785714Y-94857142D01*
X168738095Y-94904761D01*
X168642857Y-94952380D01*
X168357142Y-94952380D01*
X168261904Y-94904761D01*
X168214285Y-94857142D01*
X157309523Y-96126190D02*
X157261904Y-96078571D01*
X157166666Y-96030952D01*
X157071428Y-96030952D01*
X156976190Y-96078571D01*
X156928571Y-96126190D01*
X156880952Y-96221428D01*
X156880952Y-96316666D01*
X156928571Y-96411904D01*
X156976190Y-96459523D01*
X157071428Y-96507142D01*
X157166666Y-96507142D01*
X157261904Y-96459523D01*
X157309523Y-96411904D01*
X157309523Y-96030952D02*
X157309523Y-96411904D01*
X157357142Y-96459523D01*
X157404761Y-96459523D01*
X157500000Y-96411904D01*
X157547619Y-96316666D01*
X157547619Y-96078571D01*
X157452380Y-95935714D01*
X157309523Y-95840476D01*
X157119047Y-95792857D01*
X156928571Y-95840476D01*
X156785714Y-95935714D01*
X156690476Y-96078571D01*
X156642857Y-96269047D01*
X156690476Y-96459523D01*
X156785714Y-96602380D01*
X156928571Y-96697619D01*
X157119047Y-96745238D01*
X157309523Y-96697619D01*
X157452380Y-96602380D01*
X158166666Y-95602380D02*
X158357142Y-95602380D01*
X158452380Y-95650000D01*
X158547619Y-95745238D01*
X158595238Y-95935714D01*
X158595238Y-96269047D01*
X158547619Y-96459523D01*
X158452380Y-96554761D01*
X158357142Y-96602380D01*
X158166666Y-96602380D01*
X158071428Y-96554761D01*
X157976190Y-96459523D01*
X157928571Y-96269047D01*
X157928571Y-95935714D01*
X157976190Y-95745238D01*
X158071428Y-95650000D01*
X158166666Y-95602380D01*
X158880952Y-95935714D02*
X159261904Y-95935714D01*
X159023809Y-95602380D02*
X159023809Y-96459523D01*
X159071428Y-96554761D01*
X159166666Y-96602380D01*
X159261904Y-96602380D01*
X159738095Y-96602380D02*
X159642857Y-96554761D01*
X159595238Y-96507142D01*
X159547619Y-96411904D01*
X159547619Y-96126190D01*
X159595238Y-96030952D01*
X159642857Y-95983333D01*
X159738095Y-95935714D01*
X159880952Y-95935714D01*
X159976190Y-95983333D01*
X160023809Y-96030952D01*
X160071428Y-96126190D01*
X160071428Y-96411904D01*
X160023809Y-96507142D01*
X159976190Y-96554761D01*
X159880952Y-96602380D01*
X159738095Y-96602380D01*
X160642857Y-96602380D02*
X160547619Y-96554761D01*
X160500000Y-96507142D01*
X160452380Y-96411904D01*
X160452380Y-96126190D01*
X160500000Y-96030952D01*
X160547619Y-95983333D01*
X160642857Y-95935714D01*
X160785714Y-95935714D01*
X160880952Y-95983333D01*
X160928571Y-96030952D01*
X160976190Y-96126190D01*
X160976190Y-96411904D01*
X160928571Y-96507142D01*
X160880952Y-96554761D01*
X160785714Y-96602380D01*
X160642857Y-96602380D01*
X161404761Y-95935714D02*
X161404761Y-96602380D01*
X161404761Y-96030952D02*
X161452380Y-95983333D01*
X161547619Y-95935714D01*
X161690476Y-95935714D01*
X161785714Y-95983333D01*
X161833333Y-96078571D01*
X161833333Y-96602380D01*
X162690476Y-96554761D02*
X162595238Y-96602380D01*
X162404761Y-96602380D01*
X162309523Y-96554761D01*
X162261904Y-96459523D01*
X162261904Y-96078571D01*
X162309523Y-95983333D01*
X162404761Y-95935714D01*
X162595238Y-95935714D01*
X162690476Y-95983333D01*
X162738095Y-96078571D01*
X162738095Y-96173809D01*
X162261904Y-96269047D01*
X163166666Y-96602380D02*
X163166666Y-95602380D01*
X163404761Y-95602380D01*
X163547619Y-95650000D01*
X163642857Y-95745238D01*
X163690476Y-95840476D01*
X163738095Y-96030952D01*
X163738095Y-96173809D01*
X163690476Y-96364285D01*
X163642857Y-96459523D01*
X163547619Y-96554761D01*
X163404761Y-96602380D01*
X163166666Y-96602380D01*
X164547619Y-96554761D02*
X164452380Y-96602380D01*
X164261904Y-96602380D01*
X164166666Y-96554761D01*
X164119047Y-96459523D01*
X164119047Y-96078571D01*
X164166666Y-95983333D01*
X164261904Y-95935714D01*
X164452380Y-95935714D01*
X164547619Y-95983333D01*
X164595238Y-96078571D01*
X164595238Y-96173809D01*
X164119047Y-96269047D01*
X164928571Y-95935714D02*
X165166666Y-96602380D01*
X165404761Y-95935714D01*
G04 #@! TO.C,KeyLowC*
X180460000Y-123070000D02*
X180460000Y-108070000D01*
X195460000Y-123070000D02*
X180460000Y-123070000D01*
X195460000Y-108070000D02*
X195460000Y-123070000D01*
X180460000Y-108070000D02*
X195460000Y-108070000D01*
D10*
G04 #@! TO.C,KeyEb*
X180330000Y-113630000D02*
X177670000Y-113630000D01*
X180330000Y-116230000D02*
X180330000Y-113630000D01*
X177670000Y-116230000D02*
X177670000Y-113630000D01*
X180330000Y-116230000D02*
X177670000Y-116230000D01*
X180330000Y-117500000D02*
X180330000Y-118830000D01*
X180330000Y-118830000D02*
X179000000Y-118830000D01*
D11*
G04 #@! TO.C,KeyD*
X162680000Y-123070000D02*
X162680000Y-108070000D01*
X177680000Y-123070000D02*
X162680000Y-123070000D01*
X177680000Y-108070000D02*
X177680000Y-123070000D01*
X162680000Y-108070000D02*
X177680000Y-108070000D01*
G04 #@! TO.C,KeyE*
X144900000Y-123070000D02*
X144900000Y-108070000D01*
X159900000Y-123070000D02*
X144900000Y-123070000D01*
X159900000Y-108070000D02*
X159900000Y-123070000D01*
X144900000Y-108070000D02*
X159900000Y-108070000D01*
G04 #@! TO.C,KeyF*
X127120000Y-108070000D02*
X142120000Y-108070000D01*
X142120000Y-108070000D02*
X142120000Y-123070000D01*
X142120000Y-123070000D02*
X127120000Y-123070000D01*
X127120000Y-123070000D02*
X127120000Y-108070000D01*
G04 #@! TO.C,KeyLowCs*
X195460000Y-65525000D02*
X195460000Y-80525000D01*
X180460000Y-65525000D02*
X195460000Y-65525000D01*
X180460000Y-80525000D02*
X180460000Y-65525000D01*
X195460000Y-80525000D02*
X180460000Y-80525000D01*
D10*
G04 #@! TO.C,KeyGs*
X177740000Y-69790000D02*
X179070000Y-69790000D01*
X177740000Y-71120000D02*
X177740000Y-69790000D01*
X177740000Y-72390000D02*
X180400000Y-72390000D01*
X180400000Y-72390000D02*
X180400000Y-74990000D01*
X177740000Y-72390000D02*
X177740000Y-74990000D01*
X177740000Y-74990000D02*
X180400000Y-74990000D01*
D11*
G04 #@! TO.C,KeyG*
X177680000Y-80525000D02*
X162680000Y-80525000D01*
X162680000Y-80525000D02*
X162680000Y-65525000D01*
X162680000Y-65525000D02*
X177680000Y-65525000D01*
X177680000Y-65525000D02*
X177680000Y-80525000D01*
G04 #@! TO.C,KeyA*
X159900000Y-65525000D02*
X159900000Y-80525000D01*
X144900000Y-65525000D02*
X159900000Y-65525000D01*
X144900000Y-80525000D02*
X144900000Y-65525000D01*
X159900000Y-80525000D02*
X144900000Y-80525000D01*
G04 #@! TO.C,KeyB*
X142120000Y-80525000D02*
X127120000Y-80525000D01*
X127120000Y-80525000D02*
X127120000Y-65525000D01*
X127120000Y-65525000D02*
X142120000Y-65525000D01*
X142120000Y-65525000D02*
X142120000Y-80525000D01*
G04 #@! TO.C,KeyLowC*
X185007619Y-119562380D02*
X185007619Y-118562380D01*
X185579047Y-119562380D02*
X185150476Y-118990952D01*
X185579047Y-118562380D02*
X185007619Y-119133809D01*
X186388571Y-119514761D02*
X186293333Y-119562380D01*
X186102857Y-119562380D01*
X186007619Y-119514761D01*
X185960000Y-119419523D01*
X185960000Y-119038571D01*
X186007619Y-118943333D01*
X186102857Y-118895714D01*
X186293333Y-118895714D01*
X186388571Y-118943333D01*
X186436190Y-119038571D01*
X186436190Y-119133809D01*
X185960000Y-119229047D01*
X186769523Y-118895714D02*
X187007619Y-119562380D01*
X187245714Y-118895714D02*
X187007619Y-119562380D01*
X186912380Y-119800476D01*
X186864761Y-119848095D01*
X186769523Y-119895714D01*
X188102857Y-119562380D02*
X187626666Y-119562380D01*
X187626666Y-118562380D01*
X188579047Y-119562380D02*
X188483809Y-119514761D01*
X188436190Y-119467142D01*
X188388571Y-119371904D01*
X188388571Y-119086190D01*
X188436190Y-118990952D01*
X188483809Y-118943333D01*
X188579047Y-118895714D01*
X188721904Y-118895714D01*
X188817142Y-118943333D01*
X188864761Y-118990952D01*
X188912380Y-119086190D01*
X188912380Y-119371904D01*
X188864761Y-119467142D01*
X188817142Y-119514761D01*
X188721904Y-119562380D01*
X188579047Y-119562380D01*
X189245714Y-118895714D02*
X189436190Y-119562380D01*
X189626666Y-119086190D01*
X189817142Y-119562380D01*
X190007619Y-118895714D01*
X190960000Y-119467142D02*
X190912380Y-119514761D01*
X190769523Y-119562380D01*
X190674285Y-119562380D01*
X190531428Y-119514761D01*
X190436190Y-119419523D01*
X190388571Y-119324285D01*
X190340952Y-119133809D01*
X190340952Y-118990952D01*
X190388571Y-118800476D01*
X190436190Y-118705238D01*
X190531428Y-118610000D01*
X190674285Y-118562380D01*
X190769523Y-118562380D01*
X190912380Y-118610000D01*
X190960000Y-118657619D01*
G04 #@! TO.C,KeyEb*
X177023809Y-120282380D02*
X177023809Y-119282380D01*
X177595238Y-120282380D02*
X177166666Y-119710952D01*
X177595238Y-119282380D02*
X177023809Y-119853809D01*
X178404761Y-120234761D02*
X178309523Y-120282380D01*
X178119047Y-120282380D01*
X178023809Y-120234761D01*
X177976190Y-120139523D01*
X177976190Y-119758571D01*
X178023809Y-119663333D01*
X178119047Y-119615714D01*
X178309523Y-119615714D01*
X178404761Y-119663333D01*
X178452380Y-119758571D01*
X178452380Y-119853809D01*
X177976190Y-119949047D01*
X178785714Y-119615714D02*
X179023809Y-120282380D01*
X179261904Y-119615714D02*
X179023809Y-120282380D01*
X178928571Y-120520476D01*
X178880952Y-120568095D01*
X178785714Y-120615714D01*
X179642857Y-119758571D02*
X179976190Y-119758571D01*
X180119047Y-120282380D02*
X179642857Y-120282380D01*
X179642857Y-119282380D01*
X180119047Y-119282380D01*
X180547619Y-120282380D02*
X180547619Y-119282380D01*
X180547619Y-119663333D02*
X180642857Y-119615714D01*
X180833333Y-119615714D01*
X180928571Y-119663333D01*
X180976190Y-119710952D01*
X181023809Y-119806190D01*
X181023809Y-120091904D01*
X180976190Y-120187142D01*
X180928571Y-120234761D01*
X180833333Y-120282380D01*
X180642857Y-120282380D01*
X180547619Y-120234761D01*
G04 #@! TO.C,KeyD*
X168608571Y-119562380D02*
X168608571Y-118562380D01*
X169180000Y-119562380D02*
X168751428Y-118990952D01*
X169180000Y-118562380D02*
X168608571Y-119133809D01*
X169989523Y-119514761D02*
X169894285Y-119562380D01*
X169703809Y-119562380D01*
X169608571Y-119514761D01*
X169560952Y-119419523D01*
X169560952Y-119038571D01*
X169608571Y-118943333D01*
X169703809Y-118895714D01*
X169894285Y-118895714D01*
X169989523Y-118943333D01*
X170037142Y-119038571D01*
X170037142Y-119133809D01*
X169560952Y-119229047D01*
X170370476Y-118895714D02*
X170608571Y-119562380D01*
X170846666Y-118895714D02*
X170608571Y-119562380D01*
X170513333Y-119800476D01*
X170465714Y-119848095D01*
X170370476Y-119895714D01*
X171227619Y-119562380D02*
X171227619Y-118562380D01*
X171465714Y-118562380D01*
X171608571Y-118610000D01*
X171703809Y-118705238D01*
X171751428Y-118800476D01*
X171799047Y-118990952D01*
X171799047Y-119133809D01*
X171751428Y-119324285D01*
X171703809Y-119419523D01*
X171608571Y-119514761D01*
X171465714Y-119562380D01*
X171227619Y-119562380D01*
G04 #@! TO.C,KeyE*
X150876190Y-119562380D02*
X150876190Y-118562380D01*
X151447619Y-119562380D02*
X151019047Y-118990952D01*
X151447619Y-118562380D02*
X150876190Y-119133809D01*
X152257142Y-119514761D02*
X152161904Y-119562380D01*
X151971428Y-119562380D01*
X151876190Y-119514761D01*
X151828571Y-119419523D01*
X151828571Y-119038571D01*
X151876190Y-118943333D01*
X151971428Y-118895714D01*
X152161904Y-118895714D01*
X152257142Y-118943333D01*
X152304761Y-119038571D01*
X152304761Y-119133809D01*
X151828571Y-119229047D01*
X152638095Y-118895714D02*
X152876190Y-119562380D01*
X153114285Y-118895714D02*
X152876190Y-119562380D01*
X152780952Y-119800476D01*
X152733333Y-119848095D01*
X152638095Y-119895714D01*
X153495238Y-119038571D02*
X153828571Y-119038571D01*
X153971428Y-119562380D02*
X153495238Y-119562380D01*
X153495238Y-118562380D01*
X153971428Y-118562380D01*
G04 #@! TO.C,KeyF*
X133120000Y-119562380D02*
X133120000Y-118562380D01*
X133691428Y-119562380D02*
X133262857Y-118990952D01*
X133691428Y-118562380D02*
X133120000Y-119133809D01*
X134500952Y-119514761D02*
X134405714Y-119562380D01*
X134215238Y-119562380D01*
X134120000Y-119514761D01*
X134072380Y-119419523D01*
X134072380Y-119038571D01*
X134120000Y-118943333D01*
X134215238Y-118895714D01*
X134405714Y-118895714D01*
X134500952Y-118943333D01*
X134548571Y-119038571D01*
X134548571Y-119133809D01*
X134072380Y-119229047D01*
X134881904Y-118895714D02*
X135120000Y-119562380D01*
X135358095Y-118895714D02*
X135120000Y-119562380D01*
X135024761Y-119800476D01*
X134977142Y-119848095D01*
X134881904Y-119895714D01*
X136072380Y-119038571D02*
X135739047Y-119038571D01*
X135739047Y-119562380D02*
X135739047Y-118562380D01*
X136215238Y-118562380D01*
G04 #@! TO.C,KeyLowCs*
X183142857Y-69937380D02*
X183142857Y-68937380D01*
X183714285Y-69937380D02*
X183285714Y-69365952D01*
X183714285Y-68937380D02*
X183142857Y-69508809D01*
X184523809Y-69889761D02*
X184428571Y-69937380D01*
X184238095Y-69937380D01*
X184142857Y-69889761D01*
X184095238Y-69794523D01*
X184095238Y-69413571D01*
X184142857Y-69318333D01*
X184238095Y-69270714D01*
X184428571Y-69270714D01*
X184523809Y-69318333D01*
X184571428Y-69413571D01*
X184571428Y-69508809D01*
X184095238Y-69604047D01*
X184904761Y-69270714D02*
X185142857Y-69937380D01*
X185380952Y-69270714D02*
X185142857Y-69937380D01*
X185047619Y-70175476D01*
X185000000Y-70223095D01*
X184904761Y-70270714D01*
X186238095Y-69937380D02*
X185761904Y-69937380D01*
X185761904Y-68937380D01*
X186714285Y-69937380D02*
X186619047Y-69889761D01*
X186571428Y-69842142D01*
X186523809Y-69746904D01*
X186523809Y-69461190D01*
X186571428Y-69365952D01*
X186619047Y-69318333D01*
X186714285Y-69270714D01*
X186857142Y-69270714D01*
X186952380Y-69318333D01*
X187000000Y-69365952D01*
X187047619Y-69461190D01*
X187047619Y-69746904D01*
X187000000Y-69842142D01*
X186952380Y-69889761D01*
X186857142Y-69937380D01*
X186714285Y-69937380D01*
X187380952Y-69270714D02*
X187571428Y-69937380D01*
X187761904Y-69461190D01*
X187952380Y-69937380D01*
X188142857Y-69270714D01*
X189095238Y-69842142D02*
X189047619Y-69889761D01*
X188904761Y-69937380D01*
X188809523Y-69937380D01*
X188666666Y-69889761D01*
X188571428Y-69794523D01*
X188523809Y-69699285D01*
X188476190Y-69508809D01*
X188476190Y-69365952D01*
X188523809Y-69175476D01*
X188571428Y-69080238D01*
X188666666Y-68985000D01*
X188809523Y-68937380D01*
X188904761Y-68937380D01*
X189047619Y-68985000D01*
X189095238Y-69032619D01*
X189476190Y-69889761D02*
X189571428Y-69937380D01*
X189761904Y-69937380D01*
X189857142Y-69889761D01*
X189904761Y-69794523D01*
X189904761Y-69746904D01*
X189857142Y-69651666D01*
X189761904Y-69604047D01*
X189619047Y-69604047D01*
X189523809Y-69556428D01*
X189476190Y-69461190D01*
X189476190Y-69413571D01*
X189523809Y-69318333D01*
X189619047Y-69270714D01*
X189761904Y-69270714D01*
X189857142Y-69318333D01*
G04 #@! TO.C,KeyGs*
X177023809Y-76452380D02*
X177023809Y-75452380D01*
X177595238Y-76452380D02*
X177166666Y-75880952D01*
X177595238Y-75452380D02*
X177023809Y-76023809D01*
X178404761Y-76404761D02*
X178309523Y-76452380D01*
X178119047Y-76452380D01*
X178023809Y-76404761D01*
X177976190Y-76309523D01*
X177976190Y-75928571D01*
X178023809Y-75833333D01*
X178119047Y-75785714D01*
X178309523Y-75785714D01*
X178404761Y-75833333D01*
X178452380Y-75928571D01*
X178452380Y-76023809D01*
X177976190Y-76119047D01*
X178785714Y-75785714D02*
X179023809Y-76452380D01*
X179261904Y-75785714D02*
X179023809Y-76452380D01*
X178928571Y-76690476D01*
X178880952Y-76738095D01*
X178785714Y-76785714D01*
X180166666Y-75500000D02*
X180071428Y-75452380D01*
X179928571Y-75452380D01*
X179785714Y-75500000D01*
X179690476Y-75595238D01*
X179642857Y-75690476D01*
X179595238Y-75880952D01*
X179595238Y-76023809D01*
X179642857Y-76214285D01*
X179690476Y-76309523D01*
X179785714Y-76404761D01*
X179928571Y-76452380D01*
X180023809Y-76452380D01*
X180166666Y-76404761D01*
X180214285Y-76357142D01*
X180214285Y-76023809D01*
X180023809Y-76023809D01*
X180595238Y-76404761D02*
X180690476Y-76452380D01*
X180880952Y-76452380D01*
X180976190Y-76404761D01*
X181023809Y-76309523D01*
X181023809Y-76261904D01*
X180976190Y-76166666D01*
X180880952Y-76119047D01*
X180738095Y-76119047D01*
X180642857Y-76071428D01*
X180595238Y-75976190D01*
X180595238Y-75928571D01*
X180642857Y-75833333D01*
X180738095Y-75785714D01*
X180880952Y-75785714D01*
X180976190Y-75833333D01*
G04 #@! TO.C,KeyG*
X163928571Y-69937380D02*
X163928571Y-68937380D01*
X164500000Y-69937380D02*
X164071428Y-69365952D01*
X164500000Y-68937380D02*
X163928571Y-69508809D01*
X165309523Y-69889761D02*
X165214285Y-69937380D01*
X165023809Y-69937380D01*
X164928571Y-69889761D01*
X164880952Y-69794523D01*
X164880952Y-69413571D01*
X164928571Y-69318333D01*
X165023809Y-69270714D01*
X165214285Y-69270714D01*
X165309523Y-69318333D01*
X165357142Y-69413571D01*
X165357142Y-69508809D01*
X164880952Y-69604047D01*
X165690476Y-69270714D02*
X165928571Y-69937380D01*
X166166666Y-69270714D02*
X165928571Y-69937380D01*
X165833333Y-70175476D01*
X165785714Y-70223095D01*
X165690476Y-70270714D01*
X167071428Y-68985000D02*
X166976190Y-68937380D01*
X166833333Y-68937380D01*
X166690476Y-68985000D01*
X166595238Y-69080238D01*
X166547619Y-69175476D01*
X166500000Y-69365952D01*
X166500000Y-69508809D01*
X166547619Y-69699285D01*
X166595238Y-69794523D01*
X166690476Y-69889761D01*
X166833333Y-69937380D01*
X166928571Y-69937380D01*
X167071428Y-69889761D01*
X167119047Y-69842142D01*
X167119047Y-69508809D01*
X166928571Y-69508809D01*
G04 #@! TO.C,KeyA*
X146500000Y-69937380D02*
X146500000Y-68937380D01*
X147071428Y-69937380D02*
X146642857Y-69365952D01*
X147071428Y-68937380D02*
X146500000Y-69508809D01*
X147880952Y-69889761D02*
X147785714Y-69937380D01*
X147595238Y-69937380D01*
X147500000Y-69889761D01*
X147452380Y-69794523D01*
X147452380Y-69413571D01*
X147500000Y-69318333D01*
X147595238Y-69270714D01*
X147785714Y-69270714D01*
X147880952Y-69318333D01*
X147928571Y-69413571D01*
X147928571Y-69508809D01*
X147452380Y-69604047D01*
X148261904Y-69270714D02*
X148500000Y-69937380D01*
X148738095Y-69270714D02*
X148500000Y-69937380D01*
X148404761Y-70175476D01*
X148357142Y-70223095D01*
X148261904Y-70270714D01*
X149071428Y-69651666D02*
X149547619Y-69651666D01*
X148976190Y-69937380D02*
X149309523Y-68937380D01*
X149642857Y-69937380D01*
G04 #@! TO.C,KeyB*
X134928571Y-69937380D02*
X134928571Y-68937380D01*
X135500000Y-69937380D02*
X135071428Y-69365952D01*
X135500000Y-68937380D02*
X134928571Y-69508809D01*
X136309523Y-69889761D02*
X136214285Y-69937380D01*
X136023809Y-69937380D01*
X135928571Y-69889761D01*
X135880952Y-69794523D01*
X135880952Y-69413571D01*
X135928571Y-69318333D01*
X136023809Y-69270714D01*
X136214285Y-69270714D01*
X136309523Y-69318333D01*
X136357142Y-69413571D01*
X136357142Y-69508809D01*
X135880952Y-69604047D01*
X136690476Y-69270714D02*
X136928571Y-69937380D01*
X137166666Y-69270714D02*
X136928571Y-69937380D01*
X136833333Y-70175476D01*
X136785714Y-70223095D01*
X136690476Y-70270714D01*
X137880952Y-69413571D02*
X138023809Y-69461190D01*
X138071428Y-69508809D01*
X138119047Y-69604047D01*
X138119047Y-69746904D01*
X138071428Y-69842142D01*
X138023809Y-69889761D01*
X137928571Y-69937380D01*
X137547619Y-69937380D01*
X137547619Y-68937380D01*
X137880952Y-68937380D01*
X137976190Y-68985000D01*
X138023809Y-69032619D01*
X138071428Y-69127857D01*
X138071428Y-69223095D01*
X138023809Y-69318333D01*
X137976190Y-69365952D01*
X137880952Y-69413571D01*
X137547619Y-69413571D01*
G04 #@! TD*
M02*
