G04 #@! TF.GenerationSoftware,KiCad,Pcbnew,(5.1.8)-1*
G04 #@! TF.CreationDate,2021-12-03T11:16:52+09:00*
G04 #@! TF.ProjectId,windsynth,77696e64-7379-46e7-9468-2e6b69636164,rev?*
G04 #@! TF.SameCoordinates,Original*
G04 #@! TF.FileFunction,Copper,L1,Top*
G04 #@! TF.FilePolarity,Positive*
%FSLAX46Y46*%
G04 Gerber Fmt 4.6, Leading zero omitted, Abs format (unit mm)*
G04 Created by KiCad (PCBNEW (5.1.8)-1) date 2021-12-03 11:16:52*
%MOMM*%
%LPD*%
G01*
G04 APERTURE LIST*
G04 #@! TA.AperFunction,ComponentPad*
%ADD10R,1.350000X1.350000*%
G04 #@! TD*
G04 #@! TA.AperFunction,ComponentPad*
%ADD11O,1.350000X1.350000*%
G04 #@! TD*
G04 #@! TA.AperFunction,ComponentPad*
%ADD12C,4.200000*%
G04 #@! TD*
G04 #@! TA.AperFunction,ComponentPad*
%ADD13C,2.000000*%
G04 #@! TD*
G04 #@! TA.AperFunction,ComponentPad*
%ADD14R,1.700000X1.700000*%
G04 #@! TD*
G04 #@! TA.AperFunction,ComponentPad*
%ADD15O,1.700000X1.700000*%
G04 #@! TD*
G04 #@! TA.AperFunction,ViaPad*
%ADD16C,2.400000*%
G04 #@! TD*
G04 #@! TA.AperFunction,ViaPad*
%ADD17C,0.800000*%
G04 #@! TD*
G04 #@! TA.AperFunction,ViaPad*
%ADD18C,2.200000*%
G04 #@! TD*
G04 #@! TA.AperFunction,Conductor*
%ADD19C,0.250000*%
G04 #@! TD*
G04 #@! TA.AperFunction,Conductor*
%ADD20C,0.254000*%
G04 #@! TD*
G04 #@! TA.AperFunction,Conductor*
%ADD21C,0.100000*%
G04 #@! TD*
G04 APERTURE END LIST*
D10*
G04 #@! TO.P,I2C,1*
G04 #@! TO.N,GND*
X188000000Y-97155000D03*
D11*
G04 #@! TO.P,I2C,2*
G04 #@! TO.N,+3V3*
X188000000Y-95155000D03*
G04 #@! TO.P,I2C,3*
G04 #@! TO.N,Net-(J1-Pad3)*
X188000000Y-93155000D03*
G04 #@! TO.P,I2C,4*
G04 #@! TO.N,Net-(J1-Pad4)*
X188000000Y-91155000D03*
G04 #@! TD*
G04 #@! TO.P,I2C,4*
G04 #@! TO.N,Net-(J1-Pad4)*
X134500000Y-97000000D03*
G04 #@! TO.P,I2C,3*
G04 #@! TO.N,Net-(J1-Pad3)*
X134500000Y-95000000D03*
G04 #@! TO.P,I2C,2*
G04 #@! TO.N,+3V3*
X134500000Y-93000000D03*
D10*
G04 #@! TO.P,I2C,1*
G04 #@! TO.N,GND*
X134500000Y-91000000D03*
G04 #@! TD*
D12*
G04 #@! TO.P,KeyLowC,3*
G04 #@! TO.N,N/C*
X187960000Y-115570000D03*
D13*
G04 #@! TO.P,KeyLowC,2*
G04 #@! TO.N,Net-(SW1-Pad2)*
X190500000Y-110490000D03*
G04 #@! TO.P,KeyLowC,1*
G04 #@! TO.N,GND*
X184150000Y-113030000D03*
G04 #@! TD*
D14*
G04 #@! TO.P,KeyEb,1*
G04 #@! TO.N,GND*
X179000000Y-117500000D03*
D15*
G04 #@! TO.P,KeyEb,2*
G04 #@! TO.N,Net-(SW2-Pad2)*
X179000000Y-114960000D03*
G04 #@! TD*
D12*
G04 #@! TO.P,KeyD,3*
G04 #@! TO.N,N/C*
X170180000Y-115570000D03*
D13*
G04 #@! TO.P,KeyD,2*
G04 #@! TO.N,Net-(SW3-Pad2)*
X172720000Y-110490000D03*
G04 #@! TO.P,KeyD,1*
G04 #@! TO.N,GND*
X166370000Y-113030000D03*
G04 #@! TD*
D12*
G04 #@! TO.P,KeyE,3*
G04 #@! TO.N,N/C*
X152400000Y-115570000D03*
D13*
G04 #@! TO.P,KeyE,2*
G04 #@! TO.N,Net-(SW4-Pad2)*
X154940000Y-110490000D03*
G04 #@! TO.P,KeyE,1*
G04 #@! TO.N,GND*
X148590000Y-113030000D03*
G04 #@! TD*
G04 #@! TO.P,KeyF,1*
G04 #@! TO.N,GND*
X130810000Y-113030000D03*
G04 #@! TO.P,KeyF,2*
G04 #@! TO.N,Net-(SW5-Pad2)*
X137160000Y-110490000D03*
D12*
G04 #@! TO.P,KeyF,3*
G04 #@! TO.N,N/C*
X134620000Y-115570000D03*
G04 #@! TD*
G04 #@! TO.P,KeyLowCs,3*
G04 #@! TO.N,N/C*
X187960000Y-73025000D03*
D13*
G04 #@! TO.P,KeyLowCs,2*
G04 #@! TO.N,Net-(SW6-Pad2)*
X185420000Y-78105000D03*
G04 #@! TO.P,KeyLowCs,1*
G04 #@! TO.N,GND*
X191770000Y-75565000D03*
G04 #@! TD*
D15*
G04 #@! TO.P,KeyGs,2*
G04 #@! TO.N,Net-(SW7-Pad2)*
X179070000Y-73660000D03*
D14*
G04 #@! TO.P,KeyGs,1*
G04 #@! TO.N,GND*
X179070000Y-71120000D03*
G04 #@! TD*
D13*
G04 #@! TO.P,KeyG,1*
G04 #@! TO.N,GND*
X173990000Y-75565000D03*
G04 #@! TO.P,KeyG,2*
G04 #@! TO.N,Net-(SW8-Pad2)*
X167640000Y-78105000D03*
D12*
G04 #@! TO.P,KeyG,3*
G04 #@! TO.N,N/C*
X170180000Y-73025000D03*
G04 #@! TD*
G04 #@! TO.P,KeyA,3*
G04 #@! TO.N,N/C*
X152400000Y-73025000D03*
D13*
G04 #@! TO.P,KeyA,2*
G04 #@! TO.N,Net-(SW9-Pad2)*
X149860000Y-78105000D03*
G04 #@! TO.P,KeyA,1*
G04 #@! TO.N,GND*
X156210000Y-75565000D03*
G04 #@! TD*
G04 #@! TO.P,KeyB,1*
G04 #@! TO.N,GND*
X138430000Y-75565000D03*
G04 #@! TO.P,KeyB,2*
G04 #@! TO.N,Net-(SW10-Pad2)*
X132080000Y-78105000D03*
D12*
G04 #@! TO.P,KeyB,3*
G04 #@! TO.N,N/C*
X134620000Y-73025000D03*
G04 #@! TD*
D14*
G04 #@! TO.P,KeyDown,1*
G04 #@! TO.N,GND*
X154000000Y-91000000D03*
D15*
G04 #@! TO.P,KeyDown,2*
G04 #@! TO.N,Net-(SW11-Pad2)*
X154000000Y-88460000D03*
G04 #@! TD*
D13*
G04 #@! TO.P,KeyUp,1*
G04 #@! TO.N,GND*
X147955000Y-92075000D03*
G04 #@! TO.P,KeyUp,2*
G04 #@! TO.N,Net-(SW12-Pad2)*
X141605000Y-89535000D03*
D12*
G04 #@! TO.P,KeyUp,3*
G04 #@! TO.N,N/C*
X144145000Y-94615000D03*
G04 #@! TD*
D16*
G04 #@! TO.N,*
X182500000Y-86500000D03*
X182500000Y-102500000D03*
X128500000Y-86500000D03*
X128500000Y-102500000D03*
X140500000Y-86500000D03*
X140500000Y-102500000D03*
X194000000Y-86500000D03*
G04 #@! TO.N,GND*
X194000000Y-102500000D03*
D17*
G04 #@! TO.N,Net-(J1-Pad4)*
X171000000Y-92000000D03*
G04 #@! TO.N,Net-(J1-Pad3)*
X169500000Y-93500000D03*
D18*
G04 #@! TO.N,GND*
X191500000Y-68500000D03*
X176500000Y-83500000D03*
X171500000Y-68500000D03*
X184000000Y-81500000D03*
X191500000Y-81500000D03*
X181500000Y-68500000D03*
X161500000Y-68500000D03*
X151500000Y-68500000D03*
X141500000Y-68500000D03*
X131500000Y-68500000D03*
D17*
G04 #@! TO.N,+3V3*
X170000000Y-101500000D03*
X168000000Y-88000000D03*
X167500000Y-92000000D03*
G04 #@! TO.N,Net-(SW2-Pad2)*
X165000000Y-107500000D03*
G04 #@! TO.N,Net-(SW6-Pad2)*
X158500000Y-87000000D03*
G04 #@! TO.N,Net-(SW7-Pad2)*
X160000000Y-86000000D03*
G04 #@! TO.N,Net-(SW8-Pad2)*
X161000000Y-83000000D03*
G04 #@! TO.N,Net-(SW9-Pad2)*
X162000000Y-84000000D03*
G04 #@! TO.N,Net-(SW10-Pad2)*
X163500000Y-85000000D03*
G04 #@! TO.N,Net-(SW11-Pad2)*
X164500000Y-88000000D03*
G04 #@! TO.N,Net-(SW12-Pad2)*
X166000000Y-93500000D03*
G04 #@! TD*
D19*
G04 #@! TO.N,Net-(J1-Pad4)*
X134500000Y-97000000D02*
X137500000Y-97000000D01*
X137540001Y-97040001D02*
X167459999Y-97040001D01*
X137500000Y-97000000D02*
X137540001Y-97040001D01*
X171000000Y-93500000D02*
X171000000Y-92000000D01*
X167459999Y-97040001D02*
X171000000Y-93500000D01*
G04 #@! TO.N,Net-(J1-Pad3)*
X134500000Y-95000000D02*
X139500000Y-95000000D01*
X139500000Y-95000000D02*
X142500000Y-92000000D01*
X145918998Y-92000000D02*
X149918998Y-96000000D01*
X142500000Y-92000000D02*
X145918998Y-92000000D01*
X149918998Y-96000000D02*
X167000000Y-96000000D01*
X167000000Y-96000000D02*
X169500000Y-93500000D01*
G04 #@! TO.N,+3V3*
X170000000Y-101500000D02*
X175000000Y-101500000D01*
X175000000Y-101500000D02*
X176500000Y-100000000D01*
X176500000Y-100000000D02*
X176500000Y-88500000D01*
X176500000Y-88500000D02*
X175000000Y-87000000D01*
X175000000Y-87000000D02*
X169000000Y-87000000D01*
X169000000Y-87000000D02*
X168000000Y-88000000D01*
X134500000Y-93000000D02*
X140000000Y-93000000D01*
X140101002Y-93000000D02*
X142601002Y-90500000D01*
X140000000Y-93000000D02*
X140101002Y-93000000D01*
X148341002Y-90500000D02*
X152341002Y-94500000D01*
X142601002Y-90500000D02*
X148341002Y-90500000D01*
X152341002Y-94500000D02*
X167000000Y-94500000D01*
X167000000Y-94500000D02*
X167500000Y-94000000D01*
X167500000Y-94000000D02*
X167500000Y-92000000D01*
G04 #@! TO.N,Net-(SW2-Pad2)*
X179000000Y-114960000D02*
X174960000Y-114960000D01*
X174960000Y-114960000D02*
X169500000Y-109500000D01*
X169500000Y-109500000D02*
X167000000Y-109500000D01*
X167000000Y-109500000D02*
X165000000Y-107500000D01*
G04 #@! TO.N,Net-(SW6-Pad2)*
X185420000Y-78105000D02*
X176395000Y-78105000D01*
X176395000Y-78105000D02*
X167500000Y-87000000D01*
X167500000Y-87000000D02*
X158500000Y-87000000D01*
G04 #@! TO.N,Net-(SW7-Pad2)*
X179070000Y-73660000D02*
X166730000Y-86000000D01*
X166730000Y-86000000D02*
X160000000Y-86000000D01*
G04 #@! TO.N,Net-(SW8-Pad2)*
X167640000Y-78105000D02*
X165895000Y-78105000D01*
X165895000Y-78105000D02*
X161000000Y-83000000D01*
G04 #@! TO.N,Net-(SW9-Pad2)*
X149860000Y-78105000D02*
X153105000Y-78105000D01*
X153105000Y-78105000D02*
X159000000Y-84000000D01*
X159000000Y-84000000D02*
X162000000Y-84000000D01*
G04 #@! TO.N,Net-(SW10-Pad2)*
X132080000Y-78105000D02*
X145605000Y-78105000D01*
X145605000Y-78105000D02*
X147500000Y-80000000D01*
X147500000Y-80000000D02*
X153500000Y-80000000D01*
X153500000Y-80000000D02*
X158500000Y-85000000D01*
X158500000Y-85000000D02*
X163500000Y-85000000D01*
G04 #@! TO.N,Net-(SW11-Pad2)*
X154460000Y-88000000D02*
X154000000Y-88460000D01*
X164500000Y-88000000D02*
X154460000Y-88000000D01*
G04 #@! TO.N,Net-(SW12-Pad2)*
X141605000Y-89535000D02*
X149535000Y-89535000D01*
X149535000Y-89535000D02*
X153500000Y-93500000D01*
X153500000Y-93500000D02*
X166000000Y-93500000D01*
G04 #@! TD*
D20*
G04 #@! TO.N,GND*
X195565424Y-65169580D02*
X195628356Y-65188580D01*
X195686405Y-65219445D01*
X195737343Y-65260989D01*
X195779248Y-65311644D01*
X195810515Y-65369471D01*
X195829956Y-65432272D01*
X195840001Y-65527845D01*
X195840000Y-122967721D01*
X195830420Y-123065424D01*
X195811420Y-123128357D01*
X195780554Y-123186406D01*
X195739011Y-123237343D01*
X195688356Y-123279248D01*
X195630529Y-123310515D01*
X195567728Y-123329956D01*
X195472165Y-123340000D01*
X127032279Y-123340000D01*
X126934576Y-123330420D01*
X126871643Y-123311420D01*
X126813594Y-123280554D01*
X126762657Y-123239011D01*
X126720752Y-123188356D01*
X126689485Y-123130529D01*
X126670044Y-123067728D01*
X126660000Y-122972165D01*
X126660000Y-118350000D01*
X177511928Y-118350000D01*
X177524188Y-118474482D01*
X177560498Y-118594180D01*
X177619463Y-118704494D01*
X177698815Y-118801185D01*
X177795506Y-118880537D01*
X177905820Y-118939502D01*
X178025518Y-118975812D01*
X178150000Y-118988072D01*
X178714250Y-118985000D01*
X178873000Y-118826250D01*
X178873000Y-117627000D01*
X179127000Y-117627000D01*
X179127000Y-118826250D01*
X179285750Y-118985000D01*
X179850000Y-118988072D01*
X179974482Y-118975812D01*
X180094180Y-118939502D01*
X180204494Y-118880537D01*
X180301185Y-118801185D01*
X180380537Y-118704494D01*
X180439502Y-118594180D01*
X180475812Y-118474482D01*
X180488072Y-118350000D01*
X180485000Y-117785750D01*
X180326250Y-117627000D01*
X179127000Y-117627000D01*
X178873000Y-117627000D01*
X177673750Y-117627000D01*
X177515000Y-117785750D01*
X177511928Y-118350000D01*
X126660000Y-118350000D01*
X126660000Y-115300626D01*
X131885000Y-115300626D01*
X131885000Y-115839374D01*
X131990105Y-116367770D01*
X132196275Y-116865508D01*
X132495587Y-117313461D01*
X132876539Y-117694413D01*
X133324492Y-117993725D01*
X133822230Y-118199895D01*
X134350626Y-118305000D01*
X134889374Y-118305000D01*
X135417770Y-118199895D01*
X135915508Y-117993725D01*
X136363461Y-117694413D01*
X136744413Y-117313461D01*
X137043725Y-116865508D01*
X137249895Y-116367770D01*
X137355000Y-115839374D01*
X137355000Y-115300626D01*
X149665000Y-115300626D01*
X149665000Y-115839374D01*
X149770105Y-116367770D01*
X149976275Y-116865508D01*
X150275587Y-117313461D01*
X150656539Y-117694413D01*
X151104492Y-117993725D01*
X151602230Y-118199895D01*
X152130626Y-118305000D01*
X152669374Y-118305000D01*
X153197770Y-118199895D01*
X153695508Y-117993725D01*
X154143461Y-117694413D01*
X154524413Y-117313461D01*
X154823725Y-116865508D01*
X155029895Y-116367770D01*
X155135000Y-115839374D01*
X155135000Y-115300626D01*
X167445000Y-115300626D01*
X167445000Y-115839374D01*
X167550105Y-116367770D01*
X167756275Y-116865508D01*
X168055587Y-117313461D01*
X168436539Y-117694413D01*
X168884492Y-117993725D01*
X169382230Y-118199895D01*
X169910626Y-118305000D01*
X170449374Y-118305000D01*
X170977770Y-118199895D01*
X171475508Y-117993725D01*
X171923461Y-117694413D01*
X172304413Y-117313461D01*
X172603725Y-116865508D01*
X172809895Y-116367770D01*
X172915000Y-115839374D01*
X172915000Y-115300626D01*
X172809895Y-114772230D01*
X172603725Y-114274492D01*
X172304413Y-113826539D01*
X171923461Y-113445587D01*
X171475508Y-113146275D01*
X170977770Y-112940105D01*
X170449374Y-112835000D01*
X169910626Y-112835000D01*
X169382230Y-112940105D01*
X168884492Y-113146275D01*
X168436539Y-113445587D01*
X168055587Y-113826539D01*
X167756275Y-114274492D01*
X167550105Y-114772230D01*
X167445000Y-115300626D01*
X155135000Y-115300626D01*
X155029895Y-114772230D01*
X154823725Y-114274492D01*
X154750841Y-114165413D01*
X165414192Y-114165413D01*
X165509956Y-114429814D01*
X165799571Y-114570704D01*
X166111108Y-114652384D01*
X166432595Y-114671718D01*
X166751675Y-114627961D01*
X167056088Y-114522795D01*
X167230044Y-114429814D01*
X167325808Y-114165413D01*
X166370000Y-113209605D01*
X165414192Y-114165413D01*
X154750841Y-114165413D01*
X154524413Y-113826539D01*
X154143461Y-113445587D01*
X153695508Y-113146275D01*
X153565914Y-113092595D01*
X164728282Y-113092595D01*
X164772039Y-113411675D01*
X164877205Y-113716088D01*
X164970186Y-113890044D01*
X165234587Y-113985808D01*
X166190395Y-113030000D01*
X166549605Y-113030000D01*
X167505413Y-113985808D01*
X167769814Y-113890044D01*
X167910704Y-113600429D01*
X167992384Y-113288892D01*
X168011718Y-112967405D01*
X167967961Y-112648325D01*
X167862795Y-112343912D01*
X167769814Y-112169956D01*
X167505413Y-112074192D01*
X166549605Y-113030000D01*
X166190395Y-113030000D01*
X165234587Y-112074192D01*
X164970186Y-112169956D01*
X164829296Y-112459571D01*
X164747616Y-112771108D01*
X164728282Y-113092595D01*
X153565914Y-113092595D01*
X153197770Y-112940105D01*
X152669374Y-112835000D01*
X152130626Y-112835000D01*
X151602230Y-112940105D01*
X151104492Y-113146275D01*
X150656539Y-113445587D01*
X150275587Y-113826539D01*
X149976275Y-114274492D01*
X149770105Y-114772230D01*
X149665000Y-115300626D01*
X137355000Y-115300626D01*
X137249895Y-114772230D01*
X137043725Y-114274492D01*
X136970841Y-114165413D01*
X147634192Y-114165413D01*
X147729956Y-114429814D01*
X148019571Y-114570704D01*
X148331108Y-114652384D01*
X148652595Y-114671718D01*
X148971675Y-114627961D01*
X149276088Y-114522795D01*
X149450044Y-114429814D01*
X149545808Y-114165413D01*
X148590000Y-113209605D01*
X147634192Y-114165413D01*
X136970841Y-114165413D01*
X136744413Y-113826539D01*
X136363461Y-113445587D01*
X135915508Y-113146275D01*
X135785914Y-113092595D01*
X146948282Y-113092595D01*
X146992039Y-113411675D01*
X147097205Y-113716088D01*
X147190186Y-113890044D01*
X147454587Y-113985808D01*
X148410395Y-113030000D01*
X148769605Y-113030000D01*
X149725413Y-113985808D01*
X149989814Y-113890044D01*
X150130704Y-113600429D01*
X150212384Y-113288892D01*
X150231718Y-112967405D01*
X150187961Y-112648325D01*
X150082795Y-112343912D01*
X149989814Y-112169956D01*
X149725413Y-112074192D01*
X148769605Y-113030000D01*
X148410395Y-113030000D01*
X147454587Y-112074192D01*
X147190186Y-112169956D01*
X147049296Y-112459571D01*
X146967616Y-112771108D01*
X146948282Y-113092595D01*
X135785914Y-113092595D01*
X135417770Y-112940105D01*
X134889374Y-112835000D01*
X134350626Y-112835000D01*
X133822230Y-112940105D01*
X133324492Y-113146275D01*
X132876539Y-113445587D01*
X132495587Y-113826539D01*
X132196275Y-114274492D01*
X131990105Y-114772230D01*
X131885000Y-115300626D01*
X126660000Y-115300626D01*
X126660000Y-114165413D01*
X129854192Y-114165413D01*
X129949956Y-114429814D01*
X130239571Y-114570704D01*
X130551108Y-114652384D01*
X130872595Y-114671718D01*
X131191675Y-114627961D01*
X131496088Y-114522795D01*
X131670044Y-114429814D01*
X131765808Y-114165413D01*
X130810000Y-113209605D01*
X129854192Y-114165413D01*
X126660000Y-114165413D01*
X126660000Y-113092595D01*
X129168282Y-113092595D01*
X129212039Y-113411675D01*
X129317205Y-113716088D01*
X129410186Y-113890044D01*
X129674587Y-113985808D01*
X130630395Y-113030000D01*
X130989605Y-113030000D01*
X131945413Y-113985808D01*
X132209814Y-113890044D01*
X132350704Y-113600429D01*
X132432384Y-113288892D01*
X132451718Y-112967405D01*
X132407961Y-112648325D01*
X132302795Y-112343912D01*
X132209814Y-112169956D01*
X131945413Y-112074192D01*
X130989605Y-113030000D01*
X130630395Y-113030000D01*
X129674587Y-112074192D01*
X129410186Y-112169956D01*
X129269296Y-112459571D01*
X129187616Y-112771108D01*
X129168282Y-113092595D01*
X126660000Y-113092595D01*
X126660000Y-111894587D01*
X129854192Y-111894587D01*
X130810000Y-112850395D01*
X131765808Y-111894587D01*
X131670044Y-111630186D01*
X131380429Y-111489296D01*
X131068892Y-111407616D01*
X130747405Y-111388282D01*
X130428325Y-111432039D01*
X130123912Y-111537205D01*
X129949956Y-111630186D01*
X129854192Y-111894587D01*
X126660000Y-111894587D01*
X126660000Y-110328967D01*
X135525000Y-110328967D01*
X135525000Y-110651033D01*
X135587832Y-110966912D01*
X135711082Y-111264463D01*
X135890013Y-111532252D01*
X136117748Y-111759987D01*
X136385537Y-111938918D01*
X136683088Y-112062168D01*
X136998967Y-112125000D01*
X137321033Y-112125000D01*
X137636912Y-112062168D01*
X137934463Y-111938918D01*
X138000808Y-111894587D01*
X147634192Y-111894587D01*
X148590000Y-112850395D01*
X149545808Y-111894587D01*
X149450044Y-111630186D01*
X149160429Y-111489296D01*
X148848892Y-111407616D01*
X148527405Y-111388282D01*
X148208325Y-111432039D01*
X147903912Y-111537205D01*
X147729956Y-111630186D01*
X147634192Y-111894587D01*
X138000808Y-111894587D01*
X138202252Y-111759987D01*
X138429987Y-111532252D01*
X138608918Y-111264463D01*
X138732168Y-110966912D01*
X138795000Y-110651033D01*
X138795000Y-110328967D01*
X153305000Y-110328967D01*
X153305000Y-110651033D01*
X153367832Y-110966912D01*
X153491082Y-111264463D01*
X153670013Y-111532252D01*
X153897748Y-111759987D01*
X154165537Y-111938918D01*
X154463088Y-112062168D01*
X154778967Y-112125000D01*
X155101033Y-112125000D01*
X155416912Y-112062168D01*
X155714463Y-111938918D01*
X155780808Y-111894587D01*
X165414192Y-111894587D01*
X166370000Y-112850395D01*
X167325808Y-111894587D01*
X167230044Y-111630186D01*
X166940429Y-111489296D01*
X166628892Y-111407616D01*
X166307405Y-111388282D01*
X165988325Y-111432039D01*
X165683912Y-111537205D01*
X165509956Y-111630186D01*
X165414192Y-111894587D01*
X155780808Y-111894587D01*
X155982252Y-111759987D01*
X156209987Y-111532252D01*
X156388918Y-111264463D01*
X156512168Y-110966912D01*
X156575000Y-110651033D01*
X156575000Y-110328967D01*
X156512168Y-110013088D01*
X156388918Y-109715537D01*
X156209987Y-109447748D01*
X155982252Y-109220013D01*
X155714463Y-109041082D01*
X155416912Y-108917832D01*
X155101033Y-108855000D01*
X154778967Y-108855000D01*
X154463088Y-108917832D01*
X154165537Y-109041082D01*
X153897748Y-109220013D01*
X153670013Y-109447748D01*
X153491082Y-109715537D01*
X153367832Y-110013088D01*
X153305000Y-110328967D01*
X138795000Y-110328967D01*
X138732168Y-110013088D01*
X138608918Y-109715537D01*
X138429987Y-109447748D01*
X138202252Y-109220013D01*
X137934463Y-109041082D01*
X137636912Y-108917832D01*
X137321033Y-108855000D01*
X136998967Y-108855000D01*
X136683088Y-108917832D01*
X136385537Y-109041082D01*
X136117748Y-109220013D01*
X135890013Y-109447748D01*
X135711082Y-109715537D01*
X135587832Y-110013088D01*
X135525000Y-110328967D01*
X126660000Y-110328967D01*
X126660000Y-107398061D01*
X163965000Y-107398061D01*
X163965000Y-107601939D01*
X164004774Y-107801898D01*
X164082795Y-107990256D01*
X164196063Y-108159774D01*
X164340226Y-108303937D01*
X164509744Y-108417205D01*
X164698102Y-108495226D01*
X164898061Y-108535000D01*
X164960199Y-108535000D01*
X166436200Y-110011002D01*
X166459999Y-110040001D01*
X166488997Y-110063799D01*
X166575723Y-110134974D01*
X166707753Y-110205546D01*
X166851014Y-110249003D01*
X166962667Y-110260000D01*
X166962676Y-110260000D01*
X166999999Y-110263676D01*
X167037322Y-110260000D01*
X169185199Y-110260000D01*
X174396201Y-115471003D01*
X174419999Y-115500001D01*
X174448997Y-115523799D01*
X174535723Y-115594974D01*
X174663759Y-115663411D01*
X174667753Y-115665546D01*
X174811014Y-115709003D01*
X174922667Y-115720000D01*
X174922676Y-115720000D01*
X174959999Y-115723676D01*
X174997322Y-115720000D01*
X177721822Y-115720000D01*
X177846525Y-115906632D01*
X177978380Y-116038487D01*
X177905820Y-116060498D01*
X177795506Y-116119463D01*
X177698815Y-116198815D01*
X177619463Y-116295506D01*
X177560498Y-116405820D01*
X177524188Y-116525518D01*
X177511928Y-116650000D01*
X177515000Y-117214250D01*
X177673750Y-117373000D01*
X178873000Y-117373000D01*
X178873000Y-117353000D01*
X179127000Y-117353000D01*
X179127000Y-117373000D01*
X180326250Y-117373000D01*
X180485000Y-117214250D01*
X180488072Y-116650000D01*
X180475812Y-116525518D01*
X180439502Y-116405820D01*
X180380537Y-116295506D01*
X180301185Y-116198815D01*
X180204494Y-116119463D01*
X180094180Y-116060498D01*
X180021620Y-116038487D01*
X180153475Y-115906632D01*
X180315990Y-115663411D01*
X180427932Y-115393158D01*
X180446337Y-115300626D01*
X185225000Y-115300626D01*
X185225000Y-115839374D01*
X185330105Y-116367770D01*
X185536275Y-116865508D01*
X185835587Y-117313461D01*
X186216539Y-117694413D01*
X186664492Y-117993725D01*
X187162230Y-118199895D01*
X187690626Y-118305000D01*
X188229374Y-118305000D01*
X188757770Y-118199895D01*
X189255508Y-117993725D01*
X189703461Y-117694413D01*
X190084413Y-117313461D01*
X190383725Y-116865508D01*
X190589895Y-116367770D01*
X190695000Y-115839374D01*
X190695000Y-115300626D01*
X190589895Y-114772230D01*
X190383725Y-114274492D01*
X190084413Y-113826539D01*
X189703461Y-113445587D01*
X189255508Y-113146275D01*
X188757770Y-112940105D01*
X188229374Y-112835000D01*
X187690626Y-112835000D01*
X187162230Y-112940105D01*
X186664492Y-113146275D01*
X186216539Y-113445587D01*
X185835587Y-113826539D01*
X185536275Y-114274492D01*
X185330105Y-114772230D01*
X185225000Y-115300626D01*
X180446337Y-115300626D01*
X180485000Y-115106260D01*
X180485000Y-114813740D01*
X180427932Y-114526842D01*
X180315990Y-114256589D01*
X180255069Y-114165413D01*
X183194192Y-114165413D01*
X183289956Y-114429814D01*
X183579571Y-114570704D01*
X183891108Y-114652384D01*
X184212595Y-114671718D01*
X184531675Y-114627961D01*
X184836088Y-114522795D01*
X185010044Y-114429814D01*
X185105808Y-114165413D01*
X184150000Y-113209605D01*
X183194192Y-114165413D01*
X180255069Y-114165413D01*
X180153475Y-114013368D01*
X179946632Y-113806525D01*
X179703411Y-113644010D01*
X179433158Y-113532068D01*
X179146260Y-113475000D01*
X178853740Y-113475000D01*
X178566842Y-113532068D01*
X178296589Y-113644010D01*
X178053368Y-113806525D01*
X177846525Y-114013368D01*
X177721822Y-114200000D01*
X175274802Y-114200000D01*
X174167397Y-113092595D01*
X182508282Y-113092595D01*
X182552039Y-113411675D01*
X182657205Y-113716088D01*
X182750186Y-113890044D01*
X183014587Y-113985808D01*
X183970395Y-113030000D01*
X184329605Y-113030000D01*
X185285413Y-113985808D01*
X185549814Y-113890044D01*
X185690704Y-113600429D01*
X185772384Y-113288892D01*
X185791718Y-112967405D01*
X185747961Y-112648325D01*
X185642795Y-112343912D01*
X185549814Y-112169956D01*
X185285413Y-112074192D01*
X184329605Y-113030000D01*
X183970395Y-113030000D01*
X183014587Y-112074192D01*
X182750186Y-112169956D01*
X182609296Y-112459571D01*
X182527616Y-112771108D01*
X182508282Y-113092595D01*
X174167397Y-113092595D01*
X173146915Y-112072113D01*
X173196912Y-112062168D01*
X173494463Y-111938918D01*
X173560808Y-111894587D01*
X183194192Y-111894587D01*
X184150000Y-112850395D01*
X185105808Y-111894587D01*
X185010044Y-111630186D01*
X184720429Y-111489296D01*
X184408892Y-111407616D01*
X184087405Y-111388282D01*
X183768325Y-111432039D01*
X183463912Y-111537205D01*
X183289956Y-111630186D01*
X183194192Y-111894587D01*
X173560808Y-111894587D01*
X173762252Y-111759987D01*
X173989987Y-111532252D01*
X174168918Y-111264463D01*
X174292168Y-110966912D01*
X174355000Y-110651033D01*
X174355000Y-110328967D01*
X188865000Y-110328967D01*
X188865000Y-110651033D01*
X188927832Y-110966912D01*
X189051082Y-111264463D01*
X189230013Y-111532252D01*
X189457748Y-111759987D01*
X189725537Y-111938918D01*
X190023088Y-112062168D01*
X190338967Y-112125000D01*
X190661033Y-112125000D01*
X190976912Y-112062168D01*
X191274463Y-111938918D01*
X191542252Y-111759987D01*
X191769987Y-111532252D01*
X191948918Y-111264463D01*
X192072168Y-110966912D01*
X192135000Y-110651033D01*
X192135000Y-110328967D01*
X192072168Y-110013088D01*
X191948918Y-109715537D01*
X191769987Y-109447748D01*
X191542252Y-109220013D01*
X191274463Y-109041082D01*
X190976912Y-108917832D01*
X190661033Y-108855000D01*
X190338967Y-108855000D01*
X190023088Y-108917832D01*
X189725537Y-109041082D01*
X189457748Y-109220013D01*
X189230013Y-109447748D01*
X189051082Y-109715537D01*
X188927832Y-110013088D01*
X188865000Y-110328967D01*
X174355000Y-110328967D01*
X174292168Y-110013088D01*
X174168918Y-109715537D01*
X173989987Y-109447748D01*
X173762252Y-109220013D01*
X173494463Y-109041082D01*
X173196912Y-108917832D01*
X172881033Y-108855000D01*
X172558967Y-108855000D01*
X172243088Y-108917832D01*
X171945537Y-109041082D01*
X171677748Y-109220013D01*
X171450013Y-109447748D01*
X171271082Y-109715537D01*
X171147832Y-110013088D01*
X171137887Y-110063086D01*
X170063804Y-108989003D01*
X170040001Y-108959999D01*
X169924276Y-108865026D01*
X169792247Y-108794454D01*
X169648986Y-108750997D01*
X169537333Y-108740000D01*
X169537322Y-108740000D01*
X169500000Y-108736324D01*
X169462678Y-108740000D01*
X167314802Y-108740000D01*
X166035000Y-107460199D01*
X166035000Y-107398061D01*
X165995226Y-107198102D01*
X165917205Y-107009744D01*
X165803937Y-106840226D01*
X165659774Y-106696063D01*
X165490256Y-106582795D01*
X165301898Y-106504774D01*
X165101939Y-106465000D01*
X164898061Y-106465000D01*
X164698102Y-106504774D01*
X164509744Y-106582795D01*
X164340226Y-106696063D01*
X164196063Y-106840226D01*
X164082795Y-107009744D01*
X164004774Y-107198102D01*
X163965000Y-107398061D01*
X126660000Y-107398061D01*
X126660000Y-102319268D01*
X126665000Y-102319268D01*
X126665000Y-102680732D01*
X126735518Y-103035250D01*
X126873844Y-103369199D01*
X127074662Y-103669744D01*
X127330256Y-103925338D01*
X127630801Y-104126156D01*
X127964750Y-104264482D01*
X128319268Y-104335000D01*
X128680732Y-104335000D01*
X129035250Y-104264482D01*
X129369199Y-104126156D01*
X129669744Y-103925338D01*
X129925338Y-103669744D01*
X130126156Y-103369199D01*
X130264482Y-103035250D01*
X130335000Y-102680732D01*
X130335000Y-102319268D01*
X138665000Y-102319268D01*
X138665000Y-102680732D01*
X138735518Y-103035250D01*
X138873844Y-103369199D01*
X139074662Y-103669744D01*
X139330256Y-103925338D01*
X139630801Y-104126156D01*
X139964750Y-104264482D01*
X140319268Y-104335000D01*
X140680732Y-104335000D01*
X141035250Y-104264482D01*
X141369199Y-104126156D01*
X141669744Y-103925338D01*
X141925338Y-103669744D01*
X142126156Y-103369199D01*
X142264482Y-103035250D01*
X142335000Y-102680732D01*
X142335000Y-102319268D01*
X142264482Y-101964750D01*
X142126156Y-101630801D01*
X141925338Y-101330256D01*
X141669744Y-101074662D01*
X141369199Y-100873844D01*
X141035250Y-100735518D01*
X140680732Y-100665000D01*
X140319268Y-100665000D01*
X139964750Y-100735518D01*
X139630801Y-100873844D01*
X139330256Y-101074662D01*
X139074662Y-101330256D01*
X138873844Y-101630801D01*
X138735518Y-101964750D01*
X138665000Y-102319268D01*
X130335000Y-102319268D01*
X130264482Y-101964750D01*
X130126156Y-101630801D01*
X129925338Y-101330256D01*
X129669744Y-101074662D01*
X129369199Y-100873844D01*
X129035250Y-100735518D01*
X128680732Y-100665000D01*
X128319268Y-100665000D01*
X127964750Y-100735518D01*
X127630801Y-100873844D01*
X127330256Y-101074662D01*
X127074662Y-101330256D01*
X126873844Y-101630801D01*
X126735518Y-101964750D01*
X126665000Y-102319268D01*
X126660000Y-102319268D01*
X126660000Y-91675000D01*
X133186928Y-91675000D01*
X133199188Y-91799482D01*
X133235498Y-91919180D01*
X133294463Y-92029494D01*
X133373815Y-92126185D01*
X133460697Y-92197487D01*
X133339093Y-92379482D01*
X133240342Y-92617887D01*
X133190000Y-92870976D01*
X133190000Y-93129024D01*
X133240342Y-93382113D01*
X133339093Y-93620518D01*
X133482456Y-93835077D01*
X133647379Y-94000000D01*
X133482456Y-94164923D01*
X133339093Y-94379482D01*
X133240342Y-94617887D01*
X133190000Y-94870976D01*
X133190000Y-95129024D01*
X133240342Y-95382113D01*
X133339093Y-95620518D01*
X133482456Y-95835077D01*
X133647379Y-96000000D01*
X133482456Y-96164923D01*
X133339093Y-96379482D01*
X133240342Y-96617887D01*
X133190000Y-96870976D01*
X133190000Y-97129024D01*
X133240342Y-97382113D01*
X133339093Y-97620518D01*
X133482456Y-97835077D01*
X133664923Y-98017544D01*
X133879482Y-98160907D01*
X134117887Y-98259658D01*
X134370976Y-98310000D01*
X134629024Y-98310000D01*
X134882113Y-98259658D01*
X135120518Y-98160907D01*
X135335077Y-98017544D01*
X135517544Y-97835077D01*
X135567709Y-97760000D01*
X137295400Y-97760000D01*
X137391015Y-97789004D01*
X137502668Y-97800001D01*
X137502679Y-97800001D01*
X137540001Y-97803677D01*
X137577324Y-97800001D01*
X167422677Y-97800001D01*
X167459999Y-97803677D01*
X167497321Y-97800001D01*
X167497332Y-97800001D01*
X167608985Y-97789004D01*
X167752246Y-97745547D01*
X167884275Y-97674975D01*
X168000000Y-97580002D01*
X168023803Y-97550998D01*
X171511009Y-94063794D01*
X171540001Y-94040001D01*
X171563795Y-94011008D01*
X171563799Y-94011004D01*
X171634973Y-93924277D01*
X171634974Y-93924276D01*
X171705546Y-93792247D01*
X171749003Y-93648986D01*
X171760000Y-93537333D01*
X171760000Y-93537324D01*
X171763676Y-93500001D01*
X171760000Y-93462678D01*
X171760000Y-92703711D01*
X171803937Y-92659774D01*
X171917205Y-92490256D01*
X171995226Y-92301898D01*
X172035000Y-92101939D01*
X172035000Y-91898061D01*
X171995226Y-91698102D01*
X171917205Y-91509744D01*
X171803937Y-91340226D01*
X171659774Y-91196063D01*
X171490256Y-91082795D01*
X171301898Y-91004774D01*
X171101939Y-90965000D01*
X170898061Y-90965000D01*
X170698102Y-91004774D01*
X170509744Y-91082795D01*
X170340226Y-91196063D01*
X170196063Y-91340226D01*
X170082795Y-91509744D01*
X170004774Y-91698102D01*
X169965000Y-91898061D01*
X169965000Y-92101939D01*
X170004774Y-92301898D01*
X170082795Y-92490256D01*
X170196063Y-92659774D01*
X170240001Y-92703712D01*
X170240000Y-92776289D01*
X170159774Y-92696063D01*
X169990256Y-92582795D01*
X169801898Y-92504774D01*
X169601939Y-92465000D01*
X169398061Y-92465000D01*
X169198102Y-92504774D01*
X169009744Y-92582795D01*
X168840226Y-92696063D01*
X168696063Y-92840226D01*
X168582795Y-93009744D01*
X168504774Y-93198102D01*
X168465000Y-93398061D01*
X168465000Y-93460198D01*
X168260000Y-93665198D01*
X168260000Y-92703711D01*
X168303937Y-92659774D01*
X168417205Y-92490256D01*
X168495226Y-92301898D01*
X168535000Y-92101939D01*
X168535000Y-91898061D01*
X168495226Y-91698102D01*
X168417205Y-91509744D01*
X168303937Y-91340226D01*
X168159774Y-91196063D01*
X167990256Y-91082795D01*
X167801898Y-91004774D01*
X167601939Y-90965000D01*
X167398061Y-90965000D01*
X167198102Y-91004774D01*
X167009744Y-91082795D01*
X166840226Y-91196063D01*
X166696063Y-91340226D01*
X166582795Y-91509744D01*
X166504774Y-91698102D01*
X166465000Y-91898061D01*
X166465000Y-92101939D01*
X166504774Y-92301898D01*
X166582795Y-92490256D01*
X166696063Y-92659774D01*
X166740001Y-92703712D01*
X166740001Y-92776290D01*
X166659774Y-92696063D01*
X166490256Y-92582795D01*
X166301898Y-92504774D01*
X166101939Y-92465000D01*
X165898061Y-92465000D01*
X165698102Y-92504774D01*
X165509744Y-92582795D01*
X165340226Y-92696063D01*
X165296289Y-92740000D01*
X153814802Y-92740000D01*
X153560638Y-92485836D01*
X153714250Y-92485000D01*
X153873000Y-92326250D01*
X153873000Y-91127000D01*
X154127000Y-91127000D01*
X154127000Y-92326250D01*
X154285750Y-92485000D01*
X154850000Y-92488072D01*
X154974482Y-92475812D01*
X155094180Y-92439502D01*
X155204494Y-92380537D01*
X155301185Y-92301185D01*
X155380537Y-92204494D01*
X155439502Y-92094180D01*
X155475812Y-91974482D01*
X155488072Y-91850000D01*
X155485000Y-91285750D01*
X155326250Y-91127000D01*
X154127000Y-91127000D01*
X153873000Y-91127000D01*
X152673750Y-91127000D01*
X152515000Y-91285750D01*
X152514164Y-91439362D01*
X150098804Y-89024003D01*
X150075001Y-88994999D01*
X149959276Y-88900026D01*
X149827247Y-88829454D01*
X149683986Y-88785997D01*
X149572333Y-88775000D01*
X149572322Y-88775000D01*
X149535000Y-88771324D01*
X149497678Y-88775000D01*
X143059909Y-88775000D01*
X143053918Y-88760537D01*
X142874987Y-88492748D01*
X142647252Y-88265013D01*
X142379463Y-88086082D01*
X142081912Y-87962832D01*
X141766033Y-87900000D01*
X141695082Y-87900000D01*
X141925338Y-87669744D01*
X142126156Y-87369199D01*
X142264482Y-87035250D01*
X142335000Y-86680732D01*
X142335000Y-86319268D01*
X142264482Y-85964750D01*
X142126156Y-85630801D01*
X141925338Y-85330256D01*
X141669744Y-85074662D01*
X141369199Y-84873844D01*
X141035250Y-84735518D01*
X140680732Y-84665000D01*
X140319268Y-84665000D01*
X139964750Y-84735518D01*
X139630801Y-84873844D01*
X139330256Y-85074662D01*
X139074662Y-85330256D01*
X138873844Y-85630801D01*
X138735518Y-85964750D01*
X138665000Y-86319268D01*
X138665000Y-86680732D01*
X138735518Y-87035250D01*
X138873844Y-87369199D01*
X139074662Y-87669744D01*
X139330256Y-87925338D01*
X139630801Y-88126156D01*
X139964750Y-88264482D01*
X140319268Y-88335000D01*
X140492761Y-88335000D01*
X140335013Y-88492748D01*
X140156082Y-88760537D01*
X140032832Y-89058088D01*
X139970000Y-89373967D01*
X139970000Y-89696033D01*
X140032832Y-90011912D01*
X140156082Y-90309463D01*
X140335013Y-90577252D01*
X140562748Y-90804987D01*
X140830537Y-90983918D01*
X140980264Y-91045937D01*
X139786201Y-92240000D01*
X135567709Y-92240000D01*
X135539303Y-92197487D01*
X135626185Y-92126185D01*
X135705537Y-92029494D01*
X135764502Y-91919180D01*
X135800812Y-91799482D01*
X135813072Y-91675000D01*
X135810000Y-91285750D01*
X135651250Y-91127000D01*
X134627000Y-91127000D01*
X134627000Y-91147000D01*
X134373000Y-91147000D01*
X134373000Y-91127000D01*
X133348750Y-91127000D01*
X133190000Y-91285750D01*
X133186928Y-91675000D01*
X126660000Y-91675000D01*
X126660000Y-90325000D01*
X133186928Y-90325000D01*
X133190000Y-90714250D01*
X133348750Y-90873000D01*
X134373000Y-90873000D01*
X134373000Y-89848750D01*
X134627000Y-89848750D01*
X134627000Y-90873000D01*
X135651250Y-90873000D01*
X135810000Y-90714250D01*
X135813072Y-90325000D01*
X135800812Y-90200518D01*
X135764502Y-90080820D01*
X135705537Y-89970506D01*
X135626185Y-89873815D01*
X135529494Y-89794463D01*
X135419180Y-89735498D01*
X135299482Y-89699188D01*
X135175000Y-89686928D01*
X134785750Y-89690000D01*
X134627000Y-89848750D01*
X134373000Y-89848750D01*
X134214250Y-89690000D01*
X133825000Y-89686928D01*
X133700518Y-89699188D01*
X133580820Y-89735498D01*
X133470506Y-89794463D01*
X133373815Y-89873815D01*
X133294463Y-89970506D01*
X133235498Y-90080820D01*
X133199188Y-90200518D01*
X133186928Y-90325000D01*
X126660000Y-90325000D01*
X126660000Y-86319268D01*
X126665000Y-86319268D01*
X126665000Y-86680732D01*
X126735518Y-87035250D01*
X126873844Y-87369199D01*
X127074662Y-87669744D01*
X127330256Y-87925338D01*
X127630801Y-88126156D01*
X127964750Y-88264482D01*
X128319268Y-88335000D01*
X128680732Y-88335000D01*
X129035250Y-88264482D01*
X129369199Y-88126156D01*
X129669744Y-87925338D01*
X129925338Y-87669744D01*
X130126156Y-87369199D01*
X130264482Y-87035250D01*
X130335000Y-86680732D01*
X130335000Y-86319268D01*
X130264482Y-85964750D01*
X130126156Y-85630801D01*
X129925338Y-85330256D01*
X129669744Y-85074662D01*
X129369199Y-84873844D01*
X129035250Y-84735518D01*
X128680732Y-84665000D01*
X128319268Y-84665000D01*
X127964750Y-84735518D01*
X127630801Y-84873844D01*
X127330256Y-85074662D01*
X127074662Y-85330256D01*
X126873844Y-85630801D01*
X126735518Y-85964750D01*
X126665000Y-86319268D01*
X126660000Y-86319268D01*
X126660000Y-77943967D01*
X130445000Y-77943967D01*
X130445000Y-78266033D01*
X130507832Y-78581912D01*
X130631082Y-78879463D01*
X130810013Y-79147252D01*
X131037748Y-79374987D01*
X131305537Y-79553918D01*
X131603088Y-79677168D01*
X131918967Y-79740000D01*
X132241033Y-79740000D01*
X132556912Y-79677168D01*
X132854463Y-79553918D01*
X133122252Y-79374987D01*
X133349987Y-79147252D01*
X133528918Y-78879463D01*
X133534909Y-78865000D01*
X145290199Y-78865000D01*
X146936200Y-80511002D01*
X146959999Y-80540001D01*
X147075724Y-80634974D01*
X147207753Y-80705546D01*
X147351014Y-80749003D01*
X147462667Y-80760000D01*
X147462675Y-80760000D01*
X147500000Y-80763676D01*
X147537325Y-80760000D01*
X153185199Y-80760000D01*
X157936201Y-85511003D01*
X157959999Y-85540001D01*
X158075724Y-85634974D01*
X158207753Y-85705546D01*
X158351014Y-85749003D01*
X158462667Y-85760000D01*
X158462677Y-85760000D01*
X158500000Y-85763676D01*
X158537323Y-85760000D01*
X158992462Y-85760000D01*
X158965000Y-85898061D01*
X158965000Y-86072334D01*
X158801898Y-86004774D01*
X158601939Y-85965000D01*
X158398061Y-85965000D01*
X158198102Y-86004774D01*
X158009744Y-86082795D01*
X157840226Y-86196063D01*
X157696063Y-86340226D01*
X157582795Y-86509744D01*
X157504774Y-86698102D01*
X157465000Y-86898061D01*
X157465000Y-87101939D01*
X157492462Y-87240000D01*
X154847070Y-87240000D01*
X154703411Y-87144010D01*
X154433158Y-87032068D01*
X154146260Y-86975000D01*
X153853740Y-86975000D01*
X153566842Y-87032068D01*
X153296589Y-87144010D01*
X153053368Y-87306525D01*
X152846525Y-87513368D01*
X152684010Y-87756589D01*
X152572068Y-88026842D01*
X152515000Y-88313740D01*
X152515000Y-88606260D01*
X152572068Y-88893158D01*
X152684010Y-89163411D01*
X152846525Y-89406632D01*
X152978380Y-89538487D01*
X152905820Y-89560498D01*
X152795506Y-89619463D01*
X152698815Y-89698815D01*
X152619463Y-89795506D01*
X152560498Y-89905820D01*
X152524188Y-90025518D01*
X152511928Y-90150000D01*
X152515000Y-90714250D01*
X152673750Y-90873000D01*
X153873000Y-90873000D01*
X153873000Y-90853000D01*
X154127000Y-90853000D01*
X154127000Y-90873000D01*
X155326250Y-90873000D01*
X155485000Y-90714250D01*
X155488072Y-90150000D01*
X155475812Y-90025518D01*
X155439502Y-89905820D01*
X155380537Y-89795506D01*
X155301185Y-89698815D01*
X155204494Y-89619463D01*
X155094180Y-89560498D01*
X155021620Y-89538487D01*
X155153475Y-89406632D01*
X155315990Y-89163411D01*
X155427932Y-88893158D01*
X155454419Y-88760000D01*
X163796289Y-88760000D01*
X163840226Y-88803937D01*
X164009744Y-88917205D01*
X164198102Y-88995226D01*
X164398061Y-89035000D01*
X164601939Y-89035000D01*
X164801898Y-88995226D01*
X164990256Y-88917205D01*
X165159774Y-88803937D01*
X165303937Y-88659774D01*
X165417205Y-88490256D01*
X165495226Y-88301898D01*
X165535000Y-88101939D01*
X165535000Y-87898061D01*
X165507538Y-87760000D01*
X166992462Y-87760000D01*
X166965000Y-87898061D01*
X166965000Y-88101939D01*
X167004774Y-88301898D01*
X167082795Y-88490256D01*
X167196063Y-88659774D01*
X167340226Y-88803937D01*
X167509744Y-88917205D01*
X167698102Y-88995226D01*
X167898061Y-89035000D01*
X168101939Y-89035000D01*
X168301898Y-88995226D01*
X168490256Y-88917205D01*
X168659774Y-88803937D01*
X168803937Y-88659774D01*
X168917205Y-88490256D01*
X168995226Y-88301898D01*
X169035000Y-88101939D01*
X169035000Y-88039801D01*
X169314802Y-87760000D01*
X174685199Y-87760000D01*
X175740001Y-88814803D01*
X175740000Y-99685198D01*
X174685199Y-100740000D01*
X170703711Y-100740000D01*
X170659774Y-100696063D01*
X170490256Y-100582795D01*
X170301898Y-100504774D01*
X170101939Y-100465000D01*
X169898061Y-100465000D01*
X169698102Y-100504774D01*
X169509744Y-100582795D01*
X169340226Y-100696063D01*
X169196063Y-100840226D01*
X169082795Y-101009744D01*
X169004774Y-101198102D01*
X168965000Y-101398061D01*
X168965000Y-101601939D01*
X169004774Y-101801898D01*
X169082795Y-101990256D01*
X169196063Y-102159774D01*
X169340226Y-102303937D01*
X169509744Y-102417205D01*
X169698102Y-102495226D01*
X169898061Y-102535000D01*
X170101939Y-102535000D01*
X170301898Y-102495226D01*
X170490256Y-102417205D01*
X170636829Y-102319268D01*
X180665000Y-102319268D01*
X180665000Y-102680732D01*
X180735518Y-103035250D01*
X180873844Y-103369199D01*
X181074662Y-103669744D01*
X181330256Y-103925338D01*
X181630801Y-104126156D01*
X181964750Y-104264482D01*
X182319268Y-104335000D01*
X182680732Y-104335000D01*
X183035250Y-104264482D01*
X183369199Y-104126156D01*
X183669744Y-103925338D01*
X183925338Y-103669744D01*
X184126156Y-103369199D01*
X184264482Y-103035250D01*
X184335000Y-102680732D01*
X184335000Y-102319268D01*
X184264482Y-101964750D01*
X184126156Y-101630801D01*
X183925338Y-101330256D01*
X183669744Y-101074662D01*
X183369199Y-100873844D01*
X183035250Y-100735518D01*
X182680732Y-100665000D01*
X182319268Y-100665000D01*
X181964750Y-100735518D01*
X181630801Y-100873844D01*
X181330256Y-101074662D01*
X181074662Y-101330256D01*
X180873844Y-101630801D01*
X180735518Y-101964750D01*
X180665000Y-102319268D01*
X170636829Y-102319268D01*
X170659774Y-102303937D01*
X170703711Y-102260000D01*
X174962678Y-102260000D01*
X175000000Y-102263676D01*
X175037322Y-102260000D01*
X175037333Y-102260000D01*
X175148986Y-102249003D01*
X175292247Y-102205546D01*
X175424276Y-102134974D01*
X175540001Y-102040001D01*
X175563804Y-102010997D01*
X177011004Y-100563798D01*
X177040001Y-100540001D01*
X177134974Y-100424276D01*
X177205546Y-100292247D01*
X177249003Y-100148986D01*
X177260000Y-100037333D01*
X177260000Y-100037324D01*
X177263676Y-100000001D01*
X177260000Y-99962678D01*
X177260000Y-97830000D01*
X186686928Y-97830000D01*
X186699188Y-97954482D01*
X186735498Y-98074180D01*
X186794463Y-98184494D01*
X186873815Y-98281185D01*
X186970506Y-98360537D01*
X187080820Y-98419502D01*
X187200518Y-98455812D01*
X187325000Y-98468072D01*
X187714250Y-98465000D01*
X187873000Y-98306250D01*
X187873000Y-97282000D01*
X188127000Y-97282000D01*
X188127000Y-98306250D01*
X188285750Y-98465000D01*
X188675000Y-98468072D01*
X188799482Y-98455812D01*
X188919180Y-98419502D01*
X189029494Y-98360537D01*
X189126185Y-98281185D01*
X189205537Y-98184494D01*
X189264502Y-98074180D01*
X189300812Y-97954482D01*
X189313072Y-97830000D01*
X189310000Y-97440750D01*
X189151250Y-97282000D01*
X188127000Y-97282000D01*
X187873000Y-97282000D01*
X186848750Y-97282000D01*
X186690000Y-97440750D01*
X186686928Y-97830000D01*
X177260000Y-97830000D01*
X177260000Y-96480000D01*
X186686928Y-96480000D01*
X186690000Y-96869250D01*
X186848750Y-97028000D01*
X187873000Y-97028000D01*
X187873000Y-97008000D01*
X188127000Y-97008000D01*
X188127000Y-97028000D01*
X189151250Y-97028000D01*
X189310000Y-96869250D01*
X189313072Y-96480000D01*
X189300812Y-96355518D01*
X189264502Y-96235820D01*
X189205537Y-96125506D01*
X189126185Y-96028815D01*
X189039303Y-95957513D01*
X189160907Y-95775518D01*
X189259658Y-95537113D01*
X189310000Y-95284024D01*
X189310000Y-95025976D01*
X189259658Y-94772887D01*
X189160907Y-94534482D01*
X189017544Y-94319923D01*
X188852621Y-94155000D01*
X189017544Y-93990077D01*
X189160907Y-93775518D01*
X189259658Y-93537113D01*
X189310000Y-93284024D01*
X189310000Y-93025976D01*
X189259658Y-92772887D01*
X189160907Y-92534482D01*
X189017544Y-92319923D01*
X188852621Y-92155000D01*
X189017544Y-91990077D01*
X189160907Y-91775518D01*
X189259658Y-91537113D01*
X189310000Y-91284024D01*
X189310000Y-91025976D01*
X189259658Y-90772887D01*
X189160907Y-90534482D01*
X189017544Y-90319923D01*
X188835077Y-90137456D01*
X188620518Y-89994093D01*
X188382113Y-89895342D01*
X188129024Y-89845000D01*
X187870976Y-89845000D01*
X187617887Y-89895342D01*
X187379482Y-89994093D01*
X187164923Y-90137456D01*
X186982456Y-90319923D01*
X186839093Y-90534482D01*
X186740342Y-90772887D01*
X186690000Y-91025976D01*
X186690000Y-91284024D01*
X186740342Y-91537113D01*
X186839093Y-91775518D01*
X186982456Y-91990077D01*
X187147379Y-92155000D01*
X186982456Y-92319923D01*
X186839093Y-92534482D01*
X186740342Y-92772887D01*
X186690000Y-93025976D01*
X186690000Y-93284024D01*
X186740342Y-93537113D01*
X186839093Y-93775518D01*
X186982456Y-93990077D01*
X187147379Y-94155000D01*
X186982456Y-94319923D01*
X186839093Y-94534482D01*
X186740342Y-94772887D01*
X186690000Y-95025976D01*
X186690000Y-95284024D01*
X186740342Y-95537113D01*
X186839093Y-95775518D01*
X186960697Y-95957513D01*
X186873815Y-96028815D01*
X186794463Y-96125506D01*
X186735498Y-96235820D01*
X186699188Y-96355518D01*
X186686928Y-96480000D01*
X177260000Y-96480000D01*
X177260000Y-88537322D01*
X177263676Y-88499999D01*
X177260000Y-88462676D01*
X177260000Y-88462667D01*
X177249003Y-88351014D01*
X177205546Y-88207753D01*
X177134974Y-88075724D01*
X177040001Y-87959999D01*
X177011003Y-87936201D01*
X175563804Y-86489003D01*
X175540001Y-86459999D01*
X175424276Y-86365026D01*
X175338671Y-86319268D01*
X180665000Y-86319268D01*
X180665000Y-86680732D01*
X180735518Y-87035250D01*
X180873844Y-87369199D01*
X181074662Y-87669744D01*
X181330256Y-87925338D01*
X181630801Y-88126156D01*
X181964750Y-88264482D01*
X182319268Y-88335000D01*
X182680732Y-88335000D01*
X183035250Y-88264482D01*
X183369199Y-88126156D01*
X183669744Y-87925338D01*
X183925338Y-87669744D01*
X184126156Y-87369199D01*
X184264482Y-87035250D01*
X184335000Y-86680732D01*
X184335000Y-86319268D01*
X192165000Y-86319268D01*
X192165000Y-86680732D01*
X192235518Y-87035250D01*
X192373844Y-87369199D01*
X192574662Y-87669744D01*
X192830256Y-87925338D01*
X193130801Y-88126156D01*
X193464750Y-88264482D01*
X193819268Y-88335000D01*
X194180732Y-88335000D01*
X194535250Y-88264482D01*
X194869199Y-88126156D01*
X195169744Y-87925338D01*
X195425338Y-87669744D01*
X195626156Y-87369199D01*
X195764482Y-87035250D01*
X195835000Y-86680732D01*
X195835000Y-86319268D01*
X195764482Y-85964750D01*
X195626156Y-85630801D01*
X195425338Y-85330256D01*
X195169744Y-85074662D01*
X194869199Y-84873844D01*
X194535250Y-84735518D01*
X194180732Y-84665000D01*
X193819268Y-84665000D01*
X193464750Y-84735518D01*
X193130801Y-84873844D01*
X192830256Y-85074662D01*
X192574662Y-85330256D01*
X192373844Y-85630801D01*
X192235518Y-85964750D01*
X192165000Y-86319268D01*
X184335000Y-86319268D01*
X184264482Y-85964750D01*
X184126156Y-85630801D01*
X183925338Y-85330256D01*
X183669744Y-85074662D01*
X183369199Y-84873844D01*
X183035250Y-84735518D01*
X182680732Y-84665000D01*
X182319268Y-84665000D01*
X181964750Y-84735518D01*
X181630801Y-84873844D01*
X181330256Y-85074662D01*
X181074662Y-85330256D01*
X180873844Y-85630801D01*
X180735518Y-85964750D01*
X180665000Y-86319268D01*
X175338671Y-86319268D01*
X175292247Y-86294454D01*
X175148986Y-86250997D01*
X175037333Y-86240000D01*
X175037322Y-86240000D01*
X175000000Y-86236324D01*
X174962678Y-86240000D01*
X169334801Y-86240000D01*
X176709802Y-78865000D01*
X183965091Y-78865000D01*
X183971082Y-78879463D01*
X184150013Y-79147252D01*
X184377748Y-79374987D01*
X184645537Y-79553918D01*
X184943088Y-79677168D01*
X185258967Y-79740000D01*
X185581033Y-79740000D01*
X185896912Y-79677168D01*
X186194463Y-79553918D01*
X186462252Y-79374987D01*
X186689987Y-79147252D01*
X186868918Y-78879463D01*
X186992168Y-78581912D01*
X187055000Y-78266033D01*
X187055000Y-77943967D01*
X186992168Y-77628088D01*
X186868918Y-77330537D01*
X186689987Y-77062748D01*
X186462252Y-76835013D01*
X186260809Y-76700413D01*
X190814192Y-76700413D01*
X190909956Y-76964814D01*
X191199571Y-77105704D01*
X191511108Y-77187384D01*
X191832595Y-77206718D01*
X192151675Y-77162961D01*
X192456088Y-77057795D01*
X192630044Y-76964814D01*
X192725808Y-76700413D01*
X191770000Y-75744605D01*
X190814192Y-76700413D01*
X186260809Y-76700413D01*
X186194463Y-76656082D01*
X185896912Y-76532832D01*
X185581033Y-76470000D01*
X185258967Y-76470000D01*
X184943088Y-76532832D01*
X184645537Y-76656082D01*
X184377748Y-76835013D01*
X184150013Y-77062748D01*
X183971082Y-77330537D01*
X183965091Y-77345000D01*
X176459802Y-77345000D01*
X178703592Y-75101210D01*
X178923740Y-75145000D01*
X179216260Y-75145000D01*
X179503158Y-75087932D01*
X179773411Y-74975990D01*
X180016632Y-74813475D01*
X180223475Y-74606632D01*
X180385990Y-74363411D01*
X180497932Y-74093158D01*
X180555000Y-73806260D01*
X180555000Y-73513740D01*
X180497932Y-73226842D01*
X180385990Y-72956589D01*
X180251711Y-72755626D01*
X185225000Y-72755626D01*
X185225000Y-73294374D01*
X185330105Y-73822770D01*
X185536275Y-74320508D01*
X185835587Y-74768461D01*
X186216539Y-75149413D01*
X186664492Y-75448725D01*
X187162230Y-75654895D01*
X187690626Y-75760000D01*
X188229374Y-75760000D01*
X188757770Y-75654895D01*
X188823677Y-75627595D01*
X190128282Y-75627595D01*
X190172039Y-75946675D01*
X190277205Y-76251088D01*
X190370186Y-76425044D01*
X190634587Y-76520808D01*
X191590395Y-75565000D01*
X191949605Y-75565000D01*
X192905413Y-76520808D01*
X193169814Y-76425044D01*
X193310704Y-76135429D01*
X193392384Y-75823892D01*
X193411718Y-75502405D01*
X193367961Y-75183325D01*
X193262795Y-74878912D01*
X193169814Y-74704956D01*
X192905413Y-74609192D01*
X191949605Y-75565000D01*
X191590395Y-75565000D01*
X190634587Y-74609192D01*
X190370186Y-74704956D01*
X190229296Y-74994571D01*
X190147616Y-75306108D01*
X190128282Y-75627595D01*
X188823677Y-75627595D01*
X189255508Y-75448725D01*
X189703461Y-75149413D01*
X190084413Y-74768461D01*
X190310840Y-74429587D01*
X190814192Y-74429587D01*
X191770000Y-75385395D01*
X192725808Y-74429587D01*
X192630044Y-74165186D01*
X192340429Y-74024296D01*
X192028892Y-73942616D01*
X191707405Y-73923282D01*
X191388325Y-73967039D01*
X191083912Y-74072205D01*
X190909956Y-74165186D01*
X190814192Y-74429587D01*
X190310840Y-74429587D01*
X190383725Y-74320508D01*
X190589895Y-73822770D01*
X190695000Y-73294374D01*
X190695000Y-72755626D01*
X190589895Y-72227230D01*
X190383725Y-71729492D01*
X190084413Y-71281539D01*
X189703461Y-70900587D01*
X189255508Y-70601275D01*
X188757770Y-70395105D01*
X188229374Y-70290000D01*
X187690626Y-70290000D01*
X187162230Y-70395105D01*
X186664492Y-70601275D01*
X186216539Y-70900587D01*
X185835587Y-71281539D01*
X185536275Y-71729492D01*
X185330105Y-72227230D01*
X185225000Y-72755626D01*
X180251711Y-72755626D01*
X180223475Y-72713368D01*
X180091620Y-72581513D01*
X180164180Y-72559502D01*
X180274494Y-72500537D01*
X180371185Y-72421185D01*
X180450537Y-72324494D01*
X180509502Y-72214180D01*
X180545812Y-72094482D01*
X180558072Y-71970000D01*
X180555000Y-71405750D01*
X180396250Y-71247000D01*
X179197000Y-71247000D01*
X179197000Y-71267000D01*
X178943000Y-71267000D01*
X178943000Y-71247000D01*
X177743750Y-71247000D01*
X177585000Y-71405750D01*
X177581928Y-71970000D01*
X177594188Y-72094482D01*
X177630498Y-72214180D01*
X177689463Y-72324494D01*
X177768815Y-72421185D01*
X177865506Y-72500537D01*
X177975820Y-72559502D01*
X178048380Y-72581513D01*
X177916525Y-72713368D01*
X177754010Y-72956589D01*
X177642068Y-73226842D01*
X177585000Y-73513740D01*
X177585000Y-73806260D01*
X177628790Y-74026408D01*
X175534590Y-76120609D01*
X175612384Y-75823892D01*
X175631718Y-75502405D01*
X175587961Y-75183325D01*
X175482795Y-74878912D01*
X175389814Y-74704956D01*
X175125413Y-74609192D01*
X174169605Y-75565000D01*
X174183748Y-75579143D01*
X174004143Y-75758748D01*
X173990000Y-75744605D01*
X173034192Y-76700413D01*
X173129956Y-76964814D01*
X173419571Y-77105704D01*
X173731108Y-77187384D01*
X174052595Y-77206718D01*
X174371675Y-77162961D01*
X174555872Y-77099326D01*
X166415199Y-85240000D01*
X164507538Y-85240000D01*
X164535000Y-85101939D01*
X164535000Y-84898061D01*
X164495226Y-84698102D01*
X164417205Y-84509744D01*
X164303937Y-84340226D01*
X164159774Y-84196063D01*
X163990256Y-84082795D01*
X163801898Y-84004774D01*
X163601939Y-83965000D01*
X163398061Y-83965000D01*
X163198102Y-84004774D01*
X163035000Y-84072334D01*
X163035000Y-83898061D01*
X162995226Y-83698102D01*
X162917205Y-83509744D01*
X162803937Y-83340226D01*
X162659774Y-83196063D01*
X162490256Y-83082795D01*
X162301898Y-83004774D01*
X162108497Y-82966304D01*
X166192787Y-78882015D01*
X166370013Y-79147252D01*
X166597748Y-79374987D01*
X166865537Y-79553918D01*
X167163088Y-79677168D01*
X167478967Y-79740000D01*
X167801033Y-79740000D01*
X168116912Y-79677168D01*
X168414463Y-79553918D01*
X168682252Y-79374987D01*
X168909987Y-79147252D01*
X169088918Y-78879463D01*
X169212168Y-78581912D01*
X169275000Y-78266033D01*
X169275000Y-77943967D01*
X169212168Y-77628088D01*
X169088918Y-77330537D01*
X168909987Y-77062748D01*
X168682252Y-76835013D01*
X168414463Y-76656082D01*
X168116912Y-76532832D01*
X167801033Y-76470000D01*
X167478967Y-76470000D01*
X167163088Y-76532832D01*
X166865537Y-76656082D01*
X166597748Y-76835013D01*
X166370013Y-77062748D01*
X166191082Y-77330537D01*
X166185091Y-77345000D01*
X165932322Y-77345000D01*
X165894999Y-77341324D01*
X165857676Y-77345000D01*
X165857667Y-77345000D01*
X165746014Y-77355997D01*
X165602753Y-77399454D01*
X165470724Y-77470026D01*
X165470722Y-77470027D01*
X165470723Y-77470027D01*
X165383996Y-77541201D01*
X165383992Y-77541205D01*
X165354999Y-77564999D01*
X165331205Y-77593992D01*
X160960199Y-81965000D01*
X160898061Y-81965000D01*
X160698102Y-82004774D01*
X160509744Y-82082795D01*
X160340226Y-82196063D01*
X160196063Y-82340226D01*
X160082795Y-82509744D01*
X160004774Y-82698102D01*
X159965000Y-82898061D01*
X159965000Y-83101939D01*
X159992462Y-83240000D01*
X159314802Y-83240000D01*
X153668804Y-77594003D01*
X153645001Y-77564999D01*
X153529276Y-77470026D01*
X153397247Y-77399454D01*
X153253986Y-77355997D01*
X153142333Y-77345000D01*
X153142322Y-77345000D01*
X153105000Y-77341324D01*
X153067678Y-77345000D01*
X151314909Y-77345000D01*
X151308918Y-77330537D01*
X151129987Y-77062748D01*
X150902252Y-76835013D01*
X150700809Y-76700413D01*
X155254192Y-76700413D01*
X155349956Y-76964814D01*
X155639571Y-77105704D01*
X155951108Y-77187384D01*
X156272595Y-77206718D01*
X156591675Y-77162961D01*
X156896088Y-77057795D01*
X157070044Y-76964814D01*
X157165808Y-76700413D01*
X156210000Y-75744605D01*
X155254192Y-76700413D01*
X150700809Y-76700413D01*
X150634463Y-76656082D01*
X150336912Y-76532832D01*
X150021033Y-76470000D01*
X149698967Y-76470000D01*
X149383088Y-76532832D01*
X149085537Y-76656082D01*
X148817748Y-76835013D01*
X148590013Y-77062748D01*
X148411082Y-77330537D01*
X148287832Y-77628088D01*
X148225000Y-77943967D01*
X148225000Y-78266033D01*
X148287832Y-78581912D01*
X148411082Y-78879463D01*
X148590013Y-79147252D01*
X148682761Y-79240000D01*
X147814802Y-79240000D01*
X146168804Y-77594003D01*
X146145001Y-77564999D01*
X146029276Y-77470026D01*
X145897247Y-77399454D01*
X145753986Y-77355997D01*
X145642333Y-77345000D01*
X145642322Y-77345000D01*
X145605000Y-77341324D01*
X145567678Y-77345000D01*
X133534909Y-77345000D01*
X133528918Y-77330537D01*
X133349987Y-77062748D01*
X133122252Y-76835013D01*
X132920809Y-76700413D01*
X137474192Y-76700413D01*
X137569956Y-76964814D01*
X137859571Y-77105704D01*
X138171108Y-77187384D01*
X138492595Y-77206718D01*
X138811675Y-77162961D01*
X139116088Y-77057795D01*
X139290044Y-76964814D01*
X139385808Y-76700413D01*
X138430000Y-75744605D01*
X137474192Y-76700413D01*
X132920809Y-76700413D01*
X132854463Y-76656082D01*
X132556912Y-76532832D01*
X132241033Y-76470000D01*
X131918967Y-76470000D01*
X131603088Y-76532832D01*
X131305537Y-76656082D01*
X131037748Y-76835013D01*
X130810013Y-77062748D01*
X130631082Y-77330537D01*
X130507832Y-77628088D01*
X130445000Y-77943967D01*
X126660000Y-77943967D01*
X126660000Y-72755626D01*
X131885000Y-72755626D01*
X131885000Y-73294374D01*
X131990105Y-73822770D01*
X132196275Y-74320508D01*
X132495587Y-74768461D01*
X132876539Y-75149413D01*
X133324492Y-75448725D01*
X133822230Y-75654895D01*
X134350626Y-75760000D01*
X134889374Y-75760000D01*
X135417770Y-75654895D01*
X135483677Y-75627595D01*
X136788282Y-75627595D01*
X136832039Y-75946675D01*
X136937205Y-76251088D01*
X137030186Y-76425044D01*
X137294587Y-76520808D01*
X138250395Y-75565000D01*
X138609605Y-75565000D01*
X139565413Y-76520808D01*
X139829814Y-76425044D01*
X139970704Y-76135429D01*
X140052384Y-75823892D01*
X140071718Y-75502405D01*
X140027961Y-75183325D01*
X139922795Y-74878912D01*
X139829814Y-74704956D01*
X139565413Y-74609192D01*
X138609605Y-75565000D01*
X138250395Y-75565000D01*
X137294587Y-74609192D01*
X137030186Y-74704956D01*
X136889296Y-74994571D01*
X136807616Y-75306108D01*
X136788282Y-75627595D01*
X135483677Y-75627595D01*
X135915508Y-75448725D01*
X136363461Y-75149413D01*
X136744413Y-74768461D01*
X136970840Y-74429587D01*
X137474192Y-74429587D01*
X138430000Y-75385395D01*
X139385808Y-74429587D01*
X139290044Y-74165186D01*
X139000429Y-74024296D01*
X138688892Y-73942616D01*
X138367405Y-73923282D01*
X138048325Y-73967039D01*
X137743912Y-74072205D01*
X137569956Y-74165186D01*
X137474192Y-74429587D01*
X136970840Y-74429587D01*
X137043725Y-74320508D01*
X137249895Y-73822770D01*
X137355000Y-73294374D01*
X137355000Y-72755626D01*
X149665000Y-72755626D01*
X149665000Y-73294374D01*
X149770105Y-73822770D01*
X149976275Y-74320508D01*
X150275587Y-74768461D01*
X150656539Y-75149413D01*
X151104492Y-75448725D01*
X151602230Y-75654895D01*
X152130626Y-75760000D01*
X152669374Y-75760000D01*
X153197770Y-75654895D01*
X153263677Y-75627595D01*
X154568282Y-75627595D01*
X154612039Y-75946675D01*
X154717205Y-76251088D01*
X154810186Y-76425044D01*
X155074587Y-76520808D01*
X156030395Y-75565000D01*
X156389605Y-75565000D01*
X157345413Y-76520808D01*
X157609814Y-76425044D01*
X157750704Y-76135429D01*
X157832384Y-75823892D01*
X157851718Y-75502405D01*
X157807961Y-75183325D01*
X157702795Y-74878912D01*
X157609814Y-74704956D01*
X157345413Y-74609192D01*
X156389605Y-75565000D01*
X156030395Y-75565000D01*
X155074587Y-74609192D01*
X154810186Y-74704956D01*
X154669296Y-74994571D01*
X154587616Y-75306108D01*
X154568282Y-75627595D01*
X153263677Y-75627595D01*
X153695508Y-75448725D01*
X154143461Y-75149413D01*
X154524413Y-74768461D01*
X154750840Y-74429587D01*
X155254192Y-74429587D01*
X156210000Y-75385395D01*
X157165808Y-74429587D01*
X157070044Y-74165186D01*
X156780429Y-74024296D01*
X156468892Y-73942616D01*
X156147405Y-73923282D01*
X155828325Y-73967039D01*
X155523912Y-74072205D01*
X155349956Y-74165186D01*
X155254192Y-74429587D01*
X154750840Y-74429587D01*
X154823725Y-74320508D01*
X155029895Y-73822770D01*
X155135000Y-73294374D01*
X155135000Y-72755626D01*
X167445000Y-72755626D01*
X167445000Y-73294374D01*
X167550105Y-73822770D01*
X167756275Y-74320508D01*
X168055587Y-74768461D01*
X168436539Y-75149413D01*
X168884492Y-75448725D01*
X169382230Y-75654895D01*
X169910626Y-75760000D01*
X170449374Y-75760000D01*
X170977770Y-75654895D01*
X171043677Y-75627595D01*
X172348282Y-75627595D01*
X172392039Y-75946675D01*
X172497205Y-76251088D01*
X172590186Y-76425044D01*
X172854587Y-76520808D01*
X173810395Y-75565000D01*
X172854587Y-74609192D01*
X172590186Y-74704956D01*
X172449296Y-74994571D01*
X172367616Y-75306108D01*
X172348282Y-75627595D01*
X171043677Y-75627595D01*
X171475508Y-75448725D01*
X171923461Y-75149413D01*
X172304413Y-74768461D01*
X172530840Y-74429587D01*
X173034192Y-74429587D01*
X173990000Y-75385395D01*
X174945808Y-74429587D01*
X174850044Y-74165186D01*
X174560429Y-74024296D01*
X174248892Y-73942616D01*
X173927405Y-73923282D01*
X173608325Y-73967039D01*
X173303912Y-74072205D01*
X173129956Y-74165186D01*
X173034192Y-74429587D01*
X172530840Y-74429587D01*
X172603725Y-74320508D01*
X172809895Y-73822770D01*
X172915000Y-73294374D01*
X172915000Y-72755626D01*
X172809895Y-72227230D01*
X172603725Y-71729492D01*
X172304413Y-71281539D01*
X171923461Y-70900587D01*
X171475508Y-70601275D01*
X170977770Y-70395105D01*
X170449374Y-70290000D01*
X169910626Y-70290000D01*
X169382230Y-70395105D01*
X168884492Y-70601275D01*
X168436539Y-70900587D01*
X168055587Y-71281539D01*
X167756275Y-71729492D01*
X167550105Y-72227230D01*
X167445000Y-72755626D01*
X155135000Y-72755626D01*
X155029895Y-72227230D01*
X154823725Y-71729492D01*
X154524413Y-71281539D01*
X154143461Y-70900587D01*
X153695508Y-70601275D01*
X153197770Y-70395105D01*
X152669374Y-70290000D01*
X152130626Y-70290000D01*
X151602230Y-70395105D01*
X151104492Y-70601275D01*
X150656539Y-70900587D01*
X150275587Y-71281539D01*
X149976275Y-71729492D01*
X149770105Y-72227230D01*
X149665000Y-72755626D01*
X137355000Y-72755626D01*
X137249895Y-72227230D01*
X137043725Y-71729492D01*
X136744413Y-71281539D01*
X136363461Y-70900587D01*
X135915508Y-70601275D01*
X135417770Y-70395105D01*
X134889374Y-70290000D01*
X134350626Y-70290000D01*
X133822230Y-70395105D01*
X133324492Y-70601275D01*
X132876539Y-70900587D01*
X132495587Y-71281539D01*
X132196275Y-71729492D01*
X131990105Y-72227230D01*
X131885000Y-72755626D01*
X126660000Y-72755626D01*
X126660000Y-70270000D01*
X177581928Y-70270000D01*
X177585000Y-70834250D01*
X177743750Y-70993000D01*
X178943000Y-70993000D01*
X178943000Y-69793750D01*
X179197000Y-69793750D01*
X179197000Y-70993000D01*
X180396250Y-70993000D01*
X180555000Y-70834250D01*
X180558072Y-70270000D01*
X180545812Y-70145518D01*
X180509502Y-70025820D01*
X180450537Y-69915506D01*
X180371185Y-69818815D01*
X180274494Y-69739463D01*
X180164180Y-69680498D01*
X180044482Y-69644188D01*
X179920000Y-69631928D01*
X179355750Y-69635000D01*
X179197000Y-69793750D01*
X178943000Y-69793750D01*
X178784250Y-69635000D01*
X178220000Y-69631928D01*
X178095518Y-69644188D01*
X177975820Y-69680498D01*
X177865506Y-69739463D01*
X177768815Y-69818815D01*
X177689463Y-69915506D01*
X177630498Y-70025820D01*
X177594188Y-70145518D01*
X177581928Y-70270000D01*
X126660000Y-70270000D01*
X126660000Y-65532279D01*
X126669580Y-65434576D01*
X126688580Y-65371644D01*
X126719445Y-65313595D01*
X126760989Y-65262657D01*
X126811644Y-65220752D01*
X126869471Y-65189485D01*
X126932272Y-65170044D01*
X127027835Y-65160000D01*
X195467721Y-65160000D01*
X195565424Y-65169580D01*
G04 #@! TA.AperFunction,Conductor*
D21*
G36*
X195565424Y-65169580D02*
G01*
X195628356Y-65188580D01*
X195686405Y-65219445D01*
X195737343Y-65260989D01*
X195779248Y-65311644D01*
X195810515Y-65369471D01*
X195829956Y-65432272D01*
X195840001Y-65527845D01*
X195840000Y-122967721D01*
X195830420Y-123065424D01*
X195811420Y-123128357D01*
X195780554Y-123186406D01*
X195739011Y-123237343D01*
X195688356Y-123279248D01*
X195630529Y-123310515D01*
X195567728Y-123329956D01*
X195472165Y-123340000D01*
X127032279Y-123340000D01*
X126934576Y-123330420D01*
X126871643Y-123311420D01*
X126813594Y-123280554D01*
X126762657Y-123239011D01*
X126720752Y-123188356D01*
X126689485Y-123130529D01*
X126670044Y-123067728D01*
X126660000Y-122972165D01*
X126660000Y-118350000D01*
X177511928Y-118350000D01*
X177524188Y-118474482D01*
X177560498Y-118594180D01*
X177619463Y-118704494D01*
X177698815Y-118801185D01*
X177795506Y-118880537D01*
X177905820Y-118939502D01*
X178025518Y-118975812D01*
X178150000Y-118988072D01*
X178714250Y-118985000D01*
X178873000Y-118826250D01*
X178873000Y-117627000D01*
X179127000Y-117627000D01*
X179127000Y-118826250D01*
X179285750Y-118985000D01*
X179850000Y-118988072D01*
X179974482Y-118975812D01*
X180094180Y-118939502D01*
X180204494Y-118880537D01*
X180301185Y-118801185D01*
X180380537Y-118704494D01*
X180439502Y-118594180D01*
X180475812Y-118474482D01*
X180488072Y-118350000D01*
X180485000Y-117785750D01*
X180326250Y-117627000D01*
X179127000Y-117627000D01*
X178873000Y-117627000D01*
X177673750Y-117627000D01*
X177515000Y-117785750D01*
X177511928Y-118350000D01*
X126660000Y-118350000D01*
X126660000Y-115300626D01*
X131885000Y-115300626D01*
X131885000Y-115839374D01*
X131990105Y-116367770D01*
X132196275Y-116865508D01*
X132495587Y-117313461D01*
X132876539Y-117694413D01*
X133324492Y-117993725D01*
X133822230Y-118199895D01*
X134350626Y-118305000D01*
X134889374Y-118305000D01*
X135417770Y-118199895D01*
X135915508Y-117993725D01*
X136363461Y-117694413D01*
X136744413Y-117313461D01*
X137043725Y-116865508D01*
X137249895Y-116367770D01*
X137355000Y-115839374D01*
X137355000Y-115300626D01*
X149665000Y-115300626D01*
X149665000Y-115839374D01*
X149770105Y-116367770D01*
X149976275Y-116865508D01*
X150275587Y-117313461D01*
X150656539Y-117694413D01*
X151104492Y-117993725D01*
X151602230Y-118199895D01*
X152130626Y-118305000D01*
X152669374Y-118305000D01*
X153197770Y-118199895D01*
X153695508Y-117993725D01*
X154143461Y-117694413D01*
X154524413Y-117313461D01*
X154823725Y-116865508D01*
X155029895Y-116367770D01*
X155135000Y-115839374D01*
X155135000Y-115300626D01*
X167445000Y-115300626D01*
X167445000Y-115839374D01*
X167550105Y-116367770D01*
X167756275Y-116865508D01*
X168055587Y-117313461D01*
X168436539Y-117694413D01*
X168884492Y-117993725D01*
X169382230Y-118199895D01*
X169910626Y-118305000D01*
X170449374Y-118305000D01*
X170977770Y-118199895D01*
X171475508Y-117993725D01*
X171923461Y-117694413D01*
X172304413Y-117313461D01*
X172603725Y-116865508D01*
X172809895Y-116367770D01*
X172915000Y-115839374D01*
X172915000Y-115300626D01*
X172809895Y-114772230D01*
X172603725Y-114274492D01*
X172304413Y-113826539D01*
X171923461Y-113445587D01*
X171475508Y-113146275D01*
X170977770Y-112940105D01*
X170449374Y-112835000D01*
X169910626Y-112835000D01*
X169382230Y-112940105D01*
X168884492Y-113146275D01*
X168436539Y-113445587D01*
X168055587Y-113826539D01*
X167756275Y-114274492D01*
X167550105Y-114772230D01*
X167445000Y-115300626D01*
X155135000Y-115300626D01*
X155029895Y-114772230D01*
X154823725Y-114274492D01*
X154750841Y-114165413D01*
X165414192Y-114165413D01*
X165509956Y-114429814D01*
X165799571Y-114570704D01*
X166111108Y-114652384D01*
X166432595Y-114671718D01*
X166751675Y-114627961D01*
X167056088Y-114522795D01*
X167230044Y-114429814D01*
X167325808Y-114165413D01*
X166370000Y-113209605D01*
X165414192Y-114165413D01*
X154750841Y-114165413D01*
X154524413Y-113826539D01*
X154143461Y-113445587D01*
X153695508Y-113146275D01*
X153565914Y-113092595D01*
X164728282Y-113092595D01*
X164772039Y-113411675D01*
X164877205Y-113716088D01*
X164970186Y-113890044D01*
X165234587Y-113985808D01*
X166190395Y-113030000D01*
X166549605Y-113030000D01*
X167505413Y-113985808D01*
X167769814Y-113890044D01*
X167910704Y-113600429D01*
X167992384Y-113288892D01*
X168011718Y-112967405D01*
X167967961Y-112648325D01*
X167862795Y-112343912D01*
X167769814Y-112169956D01*
X167505413Y-112074192D01*
X166549605Y-113030000D01*
X166190395Y-113030000D01*
X165234587Y-112074192D01*
X164970186Y-112169956D01*
X164829296Y-112459571D01*
X164747616Y-112771108D01*
X164728282Y-113092595D01*
X153565914Y-113092595D01*
X153197770Y-112940105D01*
X152669374Y-112835000D01*
X152130626Y-112835000D01*
X151602230Y-112940105D01*
X151104492Y-113146275D01*
X150656539Y-113445587D01*
X150275587Y-113826539D01*
X149976275Y-114274492D01*
X149770105Y-114772230D01*
X149665000Y-115300626D01*
X137355000Y-115300626D01*
X137249895Y-114772230D01*
X137043725Y-114274492D01*
X136970841Y-114165413D01*
X147634192Y-114165413D01*
X147729956Y-114429814D01*
X148019571Y-114570704D01*
X148331108Y-114652384D01*
X148652595Y-114671718D01*
X148971675Y-114627961D01*
X149276088Y-114522795D01*
X149450044Y-114429814D01*
X149545808Y-114165413D01*
X148590000Y-113209605D01*
X147634192Y-114165413D01*
X136970841Y-114165413D01*
X136744413Y-113826539D01*
X136363461Y-113445587D01*
X135915508Y-113146275D01*
X135785914Y-113092595D01*
X146948282Y-113092595D01*
X146992039Y-113411675D01*
X147097205Y-113716088D01*
X147190186Y-113890044D01*
X147454587Y-113985808D01*
X148410395Y-113030000D01*
X148769605Y-113030000D01*
X149725413Y-113985808D01*
X149989814Y-113890044D01*
X150130704Y-113600429D01*
X150212384Y-113288892D01*
X150231718Y-112967405D01*
X150187961Y-112648325D01*
X150082795Y-112343912D01*
X149989814Y-112169956D01*
X149725413Y-112074192D01*
X148769605Y-113030000D01*
X148410395Y-113030000D01*
X147454587Y-112074192D01*
X147190186Y-112169956D01*
X147049296Y-112459571D01*
X146967616Y-112771108D01*
X146948282Y-113092595D01*
X135785914Y-113092595D01*
X135417770Y-112940105D01*
X134889374Y-112835000D01*
X134350626Y-112835000D01*
X133822230Y-112940105D01*
X133324492Y-113146275D01*
X132876539Y-113445587D01*
X132495587Y-113826539D01*
X132196275Y-114274492D01*
X131990105Y-114772230D01*
X131885000Y-115300626D01*
X126660000Y-115300626D01*
X126660000Y-114165413D01*
X129854192Y-114165413D01*
X129949956Y-114429814D01*
X130239571Y-114570704D01*
X130551108Y-114652384D01*
X130872595Y-114671718D01*
X131191675Y-114627961D01*
X131496088Y-114522795D01*
X131670044Y-114429814D01*
X131765808Y-114165413D01*
X130810000Y-113209605D01*
X129854192Y-114165413D01*
X126660000Y-114165413D01*
X126660000Y-113092595D01*
X129168282Y-113092595D01*
X129212039Y-113411675D01*
X129317205Y-113716088D01*
X129410186Y-113890044D01*
X129674587Y-113985808D01*
X130630395Y-113030000D01*
X130989605Y-113030000D01*
X131945413Y-113985808D01*
X132209814Y-113890044D01*
X132350704Y-113600429D01*
X132432384Y-113288892D01*
X132451718Y-112967405D01*
X132407961Y-112648325D01*
X132302795Y-112343912D01*
X132209814Y-112169956D01*
X131945413Y-112074192D01*
X130989605Y-113030000D01*
X130630395Y-113030000D01*
X129674587Y-112074192D01*
X129410186Y-112169956D01*
X129269296Y-112459571D01*
X129187616Y-112771108D01*
X129168282Y-113092595D01*
X126660000Y-113092595D01*
X126660000Y-111894587D01*
X129854192Y-111894587D01*
X130810000Y-112850395D01*
X131765808Y-111894587D01*
X131670044Y-111630186D01*
X131380429Y-111489296D01*
X131068892Y-111407616D01*
X130747405Y-111388282D01*
X130428325Y-111432039D01*
X130123912Y-111537205D01*
X129949956Y-111630186D01*
X129854192Y-111894587D01*
X126660000Y-111894587D01*
X126660000Y-110328967D01*
X135525000Y-110328967D01*
X135525000Y-110651033D01*
X135587832Y-110966912D01*
X135711082Y-111264463D01*
X135890013Y-111532252D01*
X136117748Y-111759987D01*
X136385537Y-111938918D01*
X136683088Y-112062168D01*
X136998967Y-112125000D01*
X137321033Y-112125000D01*
X137636912Y-112062168D01*
X137934463Y-111938918D01*
X138000808Y-111894587D01*
X147634192Y-111894587D01*
X148590000Y-112850395D01*
X149545808Y-111894587D01*
X149450044Y-111630186D01*
X149160429Y-111489296D01*
X148848892Y-111407616D01*
X148527405Y-111388282D01*
X148208325Y-111432039D01*
X147903912Y-111537205D01*
X147729956Y-111630186D01*
X147634192Y-111894587D01*
X138000808Y-111894587D01*
X138202252Y-111759987D01*
X138429987Y-111532252D01*
X138608918Y-111264463D01*
X138732168Y-110966912D01*
X138795000Y-110651033D01*
X138795000Y-110328967D01*
X153305000Y-110328967D01*
X153305000Y-110651033D01*
X153367832Y-110966912D01*
X153491082Y-111264463D01*
X153670013Y-111532252D01*
X153897748Y-111759987D01*
X154165537Y-111938918D01*
X154463088Y-112062168D01*
X154778967Y-112125000D01*
X155101033Y-112125000D01*
X155416912Y-112062168D01*
X155714463Y-111938918D01*
X155780808Y-111894587D01*
X165414192Y-111894587D01*
X166370000Y-112850395D01*
X167325808Y-111894587D01*
X167230044Y-111630186D01*
X166940429Y-111489296D01*
X166628892Y-111407616D01*
X166307405Y-111388282D01*
X165988325Y-111432039D01*
X165683912Y-111537205D01*
X165509956Y-111630186D01*
X165414192Y-111894587D01*
X155780808Y-111894587D01*
X155982252Y-111759987D01*
X156209987Y-111532252D01*
X156388918Y-111264463D01*
X156512168Y-110966912D01*
X156575000Y-110651033D01*
X156575000Y-110328967D01*
X156512168Y-110013088D01*
X156388918Y-109715537D01*
X156209987Y-109447748D01*
X155982252Y-109220013D01*
X155714463Y-109041082D01*
X155416912Y-108917832D01*
X155101033Y-108855000D01*
X154778967Y-108855000D01*
X154463088Y-108917832D01*
X154165537Y-109041082D01*
X153897748Y-109220013D01*
X153670013Y-109447748D01*
X153491082Y-109715537D01*
X153367832Y-110013088D01*
X153305000Y-110328967D01*
X138795000Y-110328967D01*
X138732168Y-110013088D01*
X138608918Y-109715537D01*
X138429987Y-109447748D01*
X138202252Y-109220013D01*
X137934463Y-109041082D01*
X137636912Y-108917832D01*
X137321033Y-108855000D01*
X136998967Y-108855000D01*
X136683088Y-108917832D01*
X136385537Y-109041082D01*
X136117748Y-109220013D01*
X135890013Y-109447748D01*
X135711082Y-109715537D01*
X135587832Y-110013088D01*
X135525000Y-110328967D01*
X126660000Y-110328967D01*
X126660000Y-107398061D01*
X163965000Y-107398061D01*
X163965000Y-107601939D01*
X164004774Y-107801898D01*
X164082795Y-107990256D01*
X164196063Y-108159774D01*
X164340226Y-108303937D01*
X164509744Y-108417205D01*
X164698102Y-108495226D01*
X164898061Y-108535000D01*
X164960199Y-108535000D01*
X166436200Y-110011002D01*
X166459999Y-110040001D01*
X166488997Y-110063799D01*
X166575723Y-110134974D01*
X166707753Y-110205546D01*
X166851014Y-110249003D01*
X166962667Y-110260000D01*
X166962676Y-110260000D01*
X166999999Y-110263676D01*
X167037322Y-110260000D01*
X169185199Y-110260000D01*
X174396201Y-115471003D01*
X174419999Y-115500001D01*
X174448997Y-115523799D01*
X174535723Y-115594974D01*
X174663759Y-115663411D01*
X174667753Y-115665546D01*
X174811014Y-115709003D01*
X174922667Y-115720000D01*
X174922676Y-115720000D01*
X174959999Y-115723676D01*
X174997322Y-115720000D01*
X177721822Y-115720000D01*
X177846525Y-115906632D01*
X177978380Y-116038487D01*
X177905820Y-116060498D01*
X177795506Y-116119463D01*
X177698815Y-116198815D01*
X177619463Y-116295506D01*
X177560498Y-116405820D01*
X177524188Y-116525518D01*
X177511928Y-116650000D01*
X177515000Y-117214250D01*
X177673750Y-117373000D01*
X178873000Y-117373000D01*
X178873000Y-117353000D01*
X179127000Y-117353000D01*
X179127000Y-117373000D01*
X180326250Y-117373000D01*
X180485000Y-117214250D01*
X180488072Y-116650000D01*
X180475812Y-116525518D01*
X180439502Y-116405820D01*
X180380537Y-116295506D01*
X180301185Y-116198815D01*
X180204494Y-116119463D01*
X180094180Y-116060498D01*
X180021620Y-116038487D01*
X180153475Y-115906632D01*
X180315990Y-115663411D01*
X180427932Y-115393158D01*
X180446337Y-115300626D01*
X185225000Y-115300626D01*
X185225000Y-115839374D01*
X185330105Y-116367770D01*
X185536275Y-116865508D01*
X185835587Y-117313461D01*
X186216539Y-117694413D01*
X186664492Y-117993725D01*
X187162230Y-118199895D01*
X187690626Y-118305000D01*
X188229374Y-118305000D01*
X188757770Y-118199895D01*
X189255508Y-117993725D01*
X189703461Y-117694413D01*
X190084413Y-117313461D01*
X190383725Y-116865508D01*
X190589895Y-116367770D01*
X190695000Y-115839374D01*
X190695000Y-115300626D01*
X190589895Y-114772230D01*
X190383725Y-114274492D01*
X190084413Y-113826539D01*
X189703461Y-113445587D01*
X189255508Y-113146275D01*
X188757770Y-112940105D01*
X188229374Y-112835000D01*
X187690626Y-112835000D01*
X187162230Y-112940105D01*
X186664492Y-113146275D01*
X186216539Y-113445587D01*
X185835587Y-113826539D01*
X185536275Y-114274492D01*
X185330105Y-114772230D01*
X185225000Y-115300626D01*
X180446337Y-115300626D01*
X180485000Y-115106260D01*
X180485000Y-114813740D01*
X180427932Y-114526842D01*
X180315990Y-114256589D01*
X180255069Y-114165413D01*
X183194192Y-114165413D01*
X183289956Y-114429814D01*
X183579571Y-114570704D01*
X183891108Y-114652384D01*
X184212595Y-114671718D01*
X184531675Y-114627961D01*
X184836088Y-114522795D01*
X185010044Y-114429814D01*
X185105808Y-114165413D01*
X184150000Y-113209605D01*
X183194192Y-114165413D01*
X180255069Y-114165413D01*
X180153475Y-114013368D01*
X179946632Y-113806525D01*
X179703411Y-113644010D01*
X179433158Y-113532068D01*
X179146260Y-113475000D01*
X178853740Y-113475000D01*
X178566842Y-113532068D01*
X178296589Y-113644010D01*
X178053368Y-113806525D01*
X177846525Y-114013368D01*
X177721822Y-114200000D01*
X175274802Y-114200000D01*
X174167397Y-113092595D01*
X182508282Y-113092595D01*
X182552039Y-113411675D01*
X182657205Y-113716088D01*
X182750186Y-113890044D01*
X183014587Y-113985808D01*
X183970395Y-113030000D01*
X184329605Y-113030000D01*
X185285413Y-113985808D01*
X185549814Y-113890044D01*
X185690704Y-113600429D01*
X185772384Y-113288892D01*
X185791718Y-112967405D01*
X185747961Y-112648325D01*
X185642795Y-112343912D01*
X185549814Y-112169956D01*
X185285413Y-112074192D01*
X184329605Y-113030000D01*
X183970395Y-113030000D01*
X183014587Y-112074192D01*
X182750186Y-112169956D01*
X182609296Y-112459571D01*
X182527616Y-112771108D01*
X182508282Y-113092595D01*
X174167397Y-113092595D01*
X173146915Y-112072113D01*
X173196912Y-112062168D01*
X173494463Y-111938918D01*
X173560808Y-111894587D01*
X183194192Y-111894587D01*
X184150000Y-112850395D01*
X185105808Y-111894587D01*
X185010044Y-111630186D01*
X184720429Y-111489296D01*
X184408892Y-111407616D01*
X184087405Y-111388282D01*
X183768325Y-111432039D01*
X183463912Y-111537205D01*
X183289956Y-111630186D01*
X183194192Y-111894587D01*
X173560808Y-111894587D01*
X173762252Y-111759987D01*
X173989987Y-111532252D01*
X174168918Y-111264463D01*
X174292168Y-110966912D01*
X174355000Y-110651033D01*
X174355000Y-110328967D01*
X188865000Y-110328967D01*
X188865000Y-110651033D01*
X188927832Y-110966912D01*
X189051082Y-111264463D01*
X189230013Y-111532252D01*
X189457748Y-111759987D01*
X189725537Y-111938918D01*
X190023088Y-112062168D01*
X190338967Y-112125000D01*
X190661033Y-112125000D01*
X190976912Y-112062168D01*
X191274463Y-111938918D01*
X191542252Y-111759987D01*
X191769987Y-111532252D01*
X191948918Y-111264463D01*
X192072168Y-110966912D01*
X192135000Y-110651033D01*
X192135000Y-110328967D01*
X192072168Y-110013088D01*
X191948918Y-109715537D01*
X191769987Y-109447748D01*
X191542252Y-109220013D01*
X191274463Y-109041082D01*
X190976912Y-108917832D01*
X190661033Y-108855000D01*
X190338967Y-108855000D01*
X190023088Y-108917832D01*
X189725537Y-109041082D01*
X189457748Y-109220013D01*
X189230013Y-109447748D01*
X189051082Y-109715537D01*
X188927832Y-110013088D01*
X188865000Y-110328967D01*
X174355000Y-110328967D01*
X174292168Y-110013088D01*
X174168918Y-109715537D01*
X173989987Y-109447748D01*
X173762252Y-109220013D01*
X173494463Y-109041082D01*
X173196912Y-108917832D01*
X172881033Y-108855000D01*
X172558967Y-108855000D01*
X172243088Y-108917832D01*
X171945537Y-109041082D01*
X171677748Y-109220013D01*
X171450013Y-109447748D01*
X171271082Y-109715537D01*
X171147832Y-110013088D01*
X171137887Y-110063086D01*
X170063804Y-108989003D01*
X170040001Y-108959999D01*
X169924276Y-108865026D01*
X169792247Y-108794454D01*
X169648986Y-108750997D01*
X169537333Y-108740000D01*
X169537322Y-108740000D01*
X169500000Y-108736324D01*
X169462678Y-108740000D01*
X167314802Y-108740000D01*
X166035000Y-107460199D01*
X166035000Y-107398061D01*
X165995226Y-107198102D01*
X165917205Y-107009744D01*
X165803937Y-106840226D01*
X165659774Y-106696063D01*
X165490256Y-106582795D01*
X165301898Y-106504774D01*
X165101939Y-106465000D01*
X164898061Y-106465000D01*
X164698102Y-106504774D01*
X164509744Y-106582795D01*
X164340226Y-106696063D01*
X164196063Y-106840226D01*
X164082795Y-107009744D01*
X164004774Y-107198102D01*
X163965000Y-107398061D01*
X126660000Y-107398061D01*
X126660000Y-102319268D01*
X126665000Y-102319268D01*
X126665000Y-102680732D01*
X126735518Y-103035250D01*
X126873844Y-103369199D01*
X127074662Y-103669744D01*
X127330256Y-103925338D01*
X127630801Y-104126156D01*
X127964750Y-104264482D01*
X128319268Y-104335000D01*
X128680732Y-104335000D01*
X129035250Y-104264482D01*
X129369199Y-104126156D01*
X129669744Y-103925338D01*
X129925338Y-103669744D01*
X130126156Y-103369199D01*
X130264482Y-103035250D01*
X130335000Y-102680732D01*
X130335000Y-102319268D01*
X138665000Y-102319268D01*
X138665000Y-102680732D01*
X138735518Y-103035250D01*
X138873844Y-103369199D01*
X139074662Y-103669744D01*
X139330256Y-103925338D01*
X139630801Y-104126156D01*
X139964750Y-104264482D01*
X140319268Y-104335000D01*
X140680732Y-104335000D01*
X141035250Y-104264482D01*
X141369199Y-104126156D01*
X141669744Y-103925338D01*
X141925338Y-103669744D01*
X142126156Y-103369199D01*
X142264482Y-103035250D01*
X142335000Y-102680732D01*
X142335000Y-102319268D01*
X142264482Y-101964750D01*
X142126156Y-101630801D01*
X141925338Y-101330256D01*
X141669744Y-101074662D01*
X141369199Y-100873844D01*
X141035250Y-100735518D01*
X140680732Y-100665000D01*
X140319268Y-100665000D01*
X139964750Y-100735518D01*
X139630801Y-100873844D01*
X139330256Y-101074662D01*
X139074662Y-101330256D01*
X138873844Y-101630801D01*
X138735518Y-101964750D01*
X138665000Y-102319268D01*
X130335000Y-102319268D01*
X130264482Y-101964750D01*
X130126156Y-101630801D01*
X129925338Y-101330256D01*
X129669744Y-101074662D01*
X129369199Y-100873844D01*
X129035250Y-100735518D01*
X128680732Y-100665000D01*
X128319268Y-100665000D01*
X127964750Y-100735518D01*
X127630801Y-100873844D01*
X127330256Y-101074662D01*
X127074662Y-101330256D01*
X126873844Y-101630801D01*
X126735518Y-101964750D01*
X126665000Y-102319268D01*
X126660000Y-102319268D01*
X126660000Y-91675000D01*
X133186928Y-91675000D01*
X133199188Y-91799482D01*
X133235498Y-91919180D01*
X133294463Y-92029494D01*
X133373815Y-92126185D01*
X133460697Y-92197487D01*
X133339093Y-92379482D01*
X133240342Y-92617887D01*
X133190000Y-92870976D01*
X133190000Y-93129024D01*
X133240342Y-93382113D01*
X133339093Y-93620518D01*
X133482456Y-93835077D01*
X133647379Y-94000000D01*
X133482456Y-94164923D01*
X133339093Y-94379482D01*
X133240342Y-94617887D01*
X133190000Y-94870976D01*
X133190000Y-95129024D01*
X133240342Y-95382113D01*
X133339093Y-95620518D01*
X133482456Y-95835077D01*
X133647379Y-96000000D01*
X133482456Y-96164923D01*
X133339093Y-96379482D01*
X133240342Y-96617887D01*
X133190000Y-96870976D01*
X133190000Y-97129024D01*
X133240342Y-97382113D01*
X133339093Y-97620518D01*
X133482456Y-97835077D01*
X133664923Y-98017544D01*
X133879482Y-98160907D01*
X134117887Y-98259658D01*
X134370976Y-98310000D01*
X134629024Y-98310000D01*
X134882113Y-98259658D01*
X135120518Y-98160907D01*
X135335077Y-98017544D01*
X135517544Y-97835077D01*
X135567709Y-97760000D01*
X137295400Y-97760000D01*
X137391015Y-97789004D01*
X137502668Y-97800001D01*
X137502679Y-97800001D01*
X137540001Y-97803677D01*
X137577324Y-97800001D01*
X167422677Y-97800001D01*
X167459999Y-97803677D01*
X167497321Y-97800001D01*
X167497332Y-97800001D01*
X167608985Y-97789004D01*
X167752246Y-97745547D01*
X167884275Y-97674975D01*
X168000000Y-97580002D01*
X168023803Y-97550998D01*
X171511009Y-94063794D01*
X171540001Y-94040001D01*
X171563795Y-94011008D01*
X171563799Y-94011004D01*
X171634973Y-93924277D01*
X171634974Y-93924276D01*
X171705546Y-93792247D01*
X171749003Y-93648986D01*
X171760000Y-93537333D01*
X171760000Y-93537324D01*
X171763676Y-93500001D01*
X171760000Y-93462678D01*
X171760000Y-92703711D01*
X171803937Y-92659774D01*
X171917205Y-92490256D01*
X171995226Y-92301898D01*
X172035000Y-92101939D01*
X172035000Y-91898061D01*
X171995226Y-91698102D01*
X171917205Y-91509744D01*
X171803937Y-91340226D01*
X171659774Y-91196063D01*
X171490256Y-91082795D01*
X171301898Y-91004774D01*
X171101939Y-90965000D01*
X170898061Y-90965000D01*
X170698102Y-91004774D01*
X170509744Y-91082795D01*
X170340226Y-91196063D01*
X170196063Y-91340226D01*
X170082795Y-91509744D01*
X170004774Y-91698102D01*
X169965000Y-91898061D01*
X169965000Y-92101939D01*
X170004774Y-92301898D01*
X170082795Y-92490256D01*
X170196063Y-92659774D01*
X170240001Y-92703712D01*
X170240000Y-92776289D01*
X170159774Y-92696063D01*
X169990256Y-92582795D01*
X169801898Y-92504774D01*
X169601939Y-92465000D01*
X169398061Y-92465000D01*
X169198102Y-92504774D01*
X169009744Y-92582795D01*
X168840226Y-92696063D01*
X168696063Y-92840226D01*
X168582795Y-93009744D01*
X168504774Y-93198102D01*
X168465000Y-93398061D01*
X168465000Y-93460198D01*
X168260000Y-93665198D01*
X168260000Y-92703711D01*
X168303937Y-92659774D01*
X168417205Y-92490256D01*
X168495226Y-92301898D01*
X168535000Y-92101939D01*
X168535000Y-91898061D01*
X168495226Y-91698102D01*
X168417205Y-91509744D01*
X168303937Y-91340226D01*
X168159774Y-91196063D01*
X167990256Y-91082795D01*
X167801898Y-91004774D01*
X167601939Y-90965000D01*
X167398061Y-90965000D01*
X167198102Y-91004774D01*
X167009744Y-91082795D01*
X166840226Y-91196063D01*
X166696063Y-91340226D01*
X166582795Y-91509744D01*
X166504774Y-91698102D01*
X166465000Y-91898061D01*
X166465000Y-92101939D01*
X166504774Y-92301898D01*
X166582795Y-92490256D01*
X166696063Y-92659774D01*
X166740001Y-92703712D01*
X166740001Y-92776290D01*
X166659774Y-92696063D01*
X166490256Y-92582795D01*
X166301898Y-92504774D01*
X166101939Y-92465000D01*
X165898061Y-92465000D01*
X165698102Y-92504774D01*
X165509744Y-92582795D01*
X165340226Y-92696063D01*
X165296289Y-92740000D01*
X153814802Y-92740000D01*
X153560638Y-92485836D01*
X153714250Y-92485000D01*
X153873000Y-92326250D01*
X153873000Y-91127000D01*
X154127000Y-91127000D01*
X154127000Y-92326250D01*
X154285750Y-92485000D01*
X154850000Y-92488072D01*
X154974482Y-92475812D01*
X155094180Y-92439502D01*
X155204494Y-92380537D01*
X155301185Y-92301185D01*
X155380537Y-92204494D01*
X155439502Y-92094180D01*
X155475812Y-91974482D01*
X155488072Y-91850000D01*
X155485000Y-91285750D01*
X155326250Y-91127000D01*
X154127000Y-91127000D01*
X153873000Y-91127000D01*
X152673750Y-91127000D01*
X152515000Y-91285750D01*
X152514164Y-91439362D01*
X150098804Y-89024003D01*
X150075001Y-88994999D01*
X149959276Y-88900026D01*
X149827247Y-88829454D01*
X149683986Y-88785997D01*
X149572333Y-88775000D01*
X149572322Y-88775000D01*
X149535000Y-88771324D01*
X149497678Y-88775000D01*
X143059909Y-88775000D01*
X143053918Y-88760537D01*
X142874987Y-88492748D01*
X142647252Y-88265013D01*
X142379463Y-88086082D01*
X142081912Y-87962832D01*
X141766033Y-87900000D01*
X141695082Y-87900000D01*
X141925338Y-87669744D01*
X142126156Y-87369199D01*
X142264482Y-87035250D01*
X142335000Y-86680732D01*
X142335000Y-86319268D01*
X142264482Y-85964750D01*
X142126156Y-85630801D01*
X141925338Y-85330256D01*
X141669744Y-85074662D01*
X141369199Y-84873844D01*
X141035250Y-84735518D01*
X140680732Y-84665000D01*
X140319268Y-84665000D01*
X139964750Y-84735518D01*
X139630801Y-84873844D01*
X139330256Y-85074662D01*
X139074662Y-85330256D01*
X138873844Y-85630801D01*
X138735518Y-85964750D01*
X138665000Y-86319268D01*
X138665000Y-86680732D01*
X138735518Y-87035250D01*
X138873844Y-87369199D01*
X139074662Y-87669744D01*
X139330256Y-87925338D01*
X139630801Y-88126156D01*
X139964750Y-88264482D01*
X140319268Y-88335000D01*
X140492761Y-88335000D01*
X140335013Y-88492748D01*
X140156082Y-88760537D01*
X140032832Y-89058088D01*
X139970000Y-89373967D01*
X139970000Y-89696033D01*
X140032832Y-90011912D01*
X140156082Y-90309463D01*
X140335013Y-90577252D01*
X140562748Y-90804987D01*
X140830537Y-90983918D01*
X140980264Y-91045937D01*
X139786201Y-92240000D01*
X135567709Y-92240000D01*
X135539303Y-92197487D01*
X135626185Y-92126185D01*
X135705537Y-92029494D01*
X135764502Y-91919180D01*
X135800812Y-91799482D01*
X135813072Y-91675000D01*
X135810000Y-91285750D01*
X135651250Y-91127000D01*
X134627000Y-91127000D01*
X134627000Y-91147000D01*
X134373000Y-91147000D01*
X134373000Y-91127000D01*
X133348750Y-91127000D01*
X133190000Y-91285750D01*
X133186928Y-91675000D01*
X126660000Y-91675000D01*
X126660000Y-90325000D01*
X133186928Y-90325000D01*
X133190000Y-90714250D01*
X133348750Y-90873000D01*
X134373000Y-90873000D01*
X134373000Y-89848750D01*
X134627000Y-89848750D01*
X134627000Y-90873000D01*
X135651250Y-90873000D01*
X135810000Y-90714250D01*
X135813072Y-90325000D01*
X135800812Y-90200518D01*
X135764502Y-90080820D01*
X135705537Y-89970506D01*
X135626185Y-89873815D01*
X135529494Y-89794463D01*
X135419180Y-89735498D01*
X135299482Y-89699188D01*
X135175000Y-89686928D01*
X134785750Y-89690000D01*
X134627000Y-89848750D01*
X134373000Y-89848750D01*
X134214250Y-89690000D01*
X133825000Y-89686928D01*
X133700518Y-89699188D01*
X133580820Y-89735498D01*
X133470506Y-89794463D01*
X133373815Y-89873815D01*
X133294463Y-89970506D01*
X133235498Y-90080820D01*
X133199188Y-90200518D01*
X133186928Y-90325000D01*
X126660000Y-90325000D01*
X126660000Y-86319268D01*
X126665000Y-86319268D01*
X126665000Y-86680732D01*
X126735518Y-87035250D01*
X126873844Y-87369199D01*
X127074662Y-87669744D01*
X127330256Y-87925338D01*
X127630801Y-88126156D01*
X127964750Y-88264482D01*
X128319268Y-88335000D01*
X128680732Y-88335000D01*
X129035250Y-88264482D01*
X129369199Y-88126156D01*
X129669744Y-87925338D01*
X129925338Y-87669744D01*
X130126156Y-87369199D01*
X130264482Y-87035250D01*
X130335000Y-86680732D01*
X130335000Y-86319268D01*
X130264482Y-85964750D01*
X130126156Y-85630801D01*
X129925338Y-85330256D01*
X129669744Y-85074662D01*
X129369199Y-84873844D01*
X129035250Y-84735518D01*
X128680732Y-84665000D01*
X128319268Y-84665000D01*
X127964750Y-84735518D01*
X127630801Y-84873844D01*
X127330256Y-85074662D01*
X127074662Y-85330256D01*
X126873844Y-85630801D01*
X126735518Y-85964750D01*
X126665000Y-86319268D01*
X126660000Y-86319268D01*
X126660000Y-77943967D01*
X130445000Y-77943967D01*
X130445000Y-78266033D01*
X130507832Y-78581912D01*
X130631082Y-78879463D01*
X130810013Y-79147252D01*
X131037748Y-79374987D01*
X131305537Y-79553918D01*
X131603088Y-79677168D01*
X131918967Y-79740000D01*
X132241033Y-79740000D01*
X132556912Y-79677168D01*
X132854463Y-79553918D01*
X133122252Y-79374987D01*
X133349987Y-79147252D01*
X133528918Y-78879463D01*
X133534909Y-78865000D01*
X145290199Y-78865000D01*
X146936200Y-80511002D01*
X146959999Y-80540001D01*
X147075724Y-80634974D01*
X147207753Y-80705546D01*
X147351014Y-80749003D01*
X147462667Y-80760000D01*
X147462675Y-80760000D01*
X147500000Y-80763676D01*
X147537325Y-80760000D01*
X153185199Y-80760000D01*
X157936201Y-85511003D01*
X157959999Y-85540001D01*
X158075724Y-85634974D01*
X158207753Y-85705546D01*
X158351014Y-85749003D01*
X158462667Y-85760000D01*
X158462677Y-85760000D01*
X158500000Y-85763676D01*
X158537323Y-85760000D01*
X158992462Y-85760000D01*
X158965000Y-85898061D01*
X158965000Y-86072334D01*
X158801898Y-86004774D01*
X158601939Y-85965000D01*
X158398061Y-85965000D01*
X158198102Y-86004774D01*
X158009744Y-86082795D01*
X157840226Y-86196063D01*
X157696063Y-86340226D01*
X157582795Y-86509744D01*
X157504774Y-86698102D01*
X157465000Y-86898061D01*
X157465000Y-87101939D01*
X157492462Y-87240000D01*
X154847070Y-87240000D01*
X154703411Y-87144010D01*
X154433158Y-87032068D01*
X154146260Y-86975000D01*
X153853740Y-86975000D01*
X153566842Y-87032068D01*
X153296589Y-87144010D01*
X153053368Y-87306525D01*
X152846525Y-87513368D01*
X152684010Y-87756589D01*
X152572068Y-88026842D01*
X152515000Y-88313740D01*
X152515000Y-88606260D01*
X152572068Y-88893158D01*
X152684010Y-89163411D01*
X152846525Y-89406632D01*
X152978380Y-89538487D01*
X152905820Y-89560498D01*
X152795506Y-89619463D01*
X152698815Y-89698815D01*
X152619463Y-89795506D01*
X152560498Y-89905820D01*
X152524188Y-90025518D01*
X152511928Y-90150000D01*
X152515000Y-90714250D01*
X152673750Y-90873000D01*
X153873000Y-90873000D01*
X153873000Y-90853000D01*
X154127000Y-90853000D01*
X154127000Y-90873000D01*
X155326250Y-90873000D01*
X155485000Y-90714250D01*
X155488072Y-90150000D01*
X155475812Y-90025518D01*
X155439502Y-89905820D01*
X155380537Y-89795506D01*
X155301185Y-89698815D01*
X155204494Y-89619463D01*
X155094180Y-89560498D01*
X155021620Y-89538487D01*
X155153475Y-89406632D01*
X155315990Y-89163411D01*
X155427932Y-88893158D01*
X155454419Y-88760000D01*
X163796289Y-88760000D01*
X163840226Y-88803937D01*
X164009744Y-88917205D01*
X164198102Y-88995226D01*
X164398061Y-89035000D01*
X164601939Y-89035000D01*
X164801898Y-88995226D01*
X164990256Y-88917205D01*
X165159774Y-88803937D01*
X165303937Y-88659774D01*
X165417205Y-88490256D01*
X165495226Y-88301898D01*
X165535000Y-88101939D01*
X165535000Y-87898061D01*
X165507538Y-87760000D01*
X166992462Y-87760000D01*
X166965000Y-87898061D01*
X166965000Y-88101939D01*
X167004774Y-88301898D01*
X167082795Y-88490256D01*
X167196063Y-88659774D01*
X167340226Y-88803937D01*
X167509744Y-88917205D01*
X167698102Y-88995226D01*
X167898061Y-89035000D01*
X168101939Y-89035000D01*
X168301898Y-88995226D01*
X168490256Y-88917205D01*
X168659774Y-88803937D01*
X168803937Y-88659774D01*
X168917205Y-88490256D01*
X168995226Y-88301898D01*
X169035000Y-88101939D01*
X169035000Y-88039801D01*
X169314802Y-87760000D01*
X174685199Y-87760000D01*
X175740001Y-88814803D01*
X175740000Y-99685198D01*
X174685199Y-100740000D01*
X170703711Y-100740000D01*
X170659774Y-100696063D01*
X170490256Y-100582795D01*
X170301898Y-100504774D01*
X170101939Y-100465000D01*
X169898061Y-100465000D01*
X169698102Y-100504774D01*
X169509744Y-100582795D01*
X169340226Y-100696063D01*
X169196063Y-100840226D01*
X169082795Y-101009744D01*
X169004774Y-101198102D01*
X168965000Y-101398061D01*
X168965000Y-101601939D01*
X169004774Y-101801898D01*
X169082795Y-101990256D01*
X169196063Y-102159774D01*
X169340226Y-102303937D01*
X169509744Y-102417205D01*
X169698102Y-102495226D01*
X169898061Y-102535000D01*
X170101939Y-102535000D01*
X170301898Y-102495226D01*
X170490256Y-102417205D01*
X170636829Y-102319268D01*
X180665000Y-102319268D01*
X180665000Y-102680732D01*
X180735518Y-103035250D01*
X180873844Y-103369199D01*
X181074662Y-103669744D01*
X181330256Y-103925338D01*
X181630801Y-104126156D01*
X181964750Y-104264482D01*
X182319268Y-104335000D01*
X182680732Y-104335000D01*
X183035250Y-104264482D01*
X183369199Y-104126156D01*
X183669744Y-103925338D01*
X183925338Y-103669744D01*
X184126156Y-103369199D01*
X184264482Y-103035250D01*
X184335000Y-102680732D01*
X184335000Y-102319268D01*
X184264482Y-101964750D01*
X184126156Y-101630801D01*
X183925338Y-101330256D01*
X183669744Y-101074662D01*
X183369199Y-100873844D01*
X183035250Y-100735518D01*
X182680732Y-100665000D01*
X182319268Y-100665000D01*
X181964750Y-100735518D01*
X181630801Y-100873844D01*
X181330256Y-101074662D01*
X181074662Y-101330256D01*
X180873844Y-101630801D01*
X180735518Y-101964750D01*
X180665000Y-102319268D01*
X170636829Y-102319268D01*
X170659774Y-102303937D01*
X170703711Y-102260000D01*
X174962678Y-102260000D01*
X175000000Y-102263676D01*
X175037322Y-102260000D01*
X175037333Y-102260000D01*
X175148986Y-102249003D01*
X175292247Y-102205546D01*
X175424276Y-102134974D01*
X175540001Y-102040001D01*
X175563804Y-102010997D01*
X177011004Y-100563798D01*
X177040001Y-100540001D01*
X177134974Y-100424276D01*
X177205546Y-100292247D01*
X177249003Y-100148986D01*
X177260000Y-100037333D01*
X177260000Y-100037324D01*
X177263676Y-100000001D01*
X177260000Y-99962678D01*
X177260000Y-97830000D01*
X186686928Y-97830000D01*
X186699188Y-97954482D01*
X186735498Y-98074180D01*
X186794463Y-98184494D01*
X186873815Y-98281185D01*
X186970506Y-98360537D01*
X187080820Y-98419502D01*
X187200518Y-98455812D01*
X187325000Y-98468072D01*
X187714250Y-98465000D01*
X187873000Y-98306250D01*
X187873000Y-97282000D01*
X188127000Y-97282000D01*
X188127000Y-98306250D01*
X188285750Y-98465000D01*
X188675000Y-98468072D01*
X188799482Y-98455812D01*
X188919180Y-98419502D01*
X189029494Y-98360537D01*
X189126185Y-98281185D01*
X189205537Y-98184494D01*
X189264502Y-98074180D01*
X189300812Y-97954482D01*
X189313072Y-97830000D01*
X189310000Y-97440750D01*
X189151250Y-97282000D01*
X188127000Y-97282000D01*
X187873000Y-97282000D01*
X186848750Y-97282000D01*
X186690000Y-97440750D01*
X186686928Y-97830000D01*
X177260000Y-97830000D01*
X177260000Y-96480000D01*
X186686928Y-96480000D01*
X186690000Y-96869250D01*
X186848750Y-97028000D01*
X187873000Y-97028000D01*
X187873000Y-97008000D01*
X188127000Y-97008000D01*
X188127000Y-97028000D01*
X189151250Y-97028000D01*
X189310000Y-96869250D01*
X189313072Y-96480000D01*
X189300812Y-96355518D01*
X189264502Y-96235820D01*
X189205537Y-96125506D01*
X189126185Y-96028815D01*
X189039303Y-95957513D01*
X189160907Y-95775518D01*
X189259658Y-95537113D01*
X189310000Y-95284024D01*
X189310000Y-95025976D01*
X189259658Y-94772887D01*
X189160907Y-94534482D01*
X189017544Y-94319923D01*
X188852621Y-94155000D01*
X189017544Y-93990077D01*
X189160907Y-93775518D01*
X189259658Y-93537113D01*
X189310000Y-93284024D01*
X189310000Y-93025976D01*
X189259658Y-92772887D01*
X189160907Y-92534482D01*
X189017544Y-92319923D01*
X188852621Y-92155000D01*
X189017544Y-91990077D01*
X189160907Y-91775518D01*
X189259658Y-91537113D01*
X189310000Y-91284024D01*
X189310000Y-91025976D01*
X189259658Y-90772887D01*
X189160907Y-90534482D01*
X189017544Y-90319923D01*
X188835077Y-90137456D01*
X188620518Y-89994093D01*
X188382113Y-89895342D01*
X188129024Y-89845000D01*
X187870976Y-89845000D01*
X187617887Y-89895342D01*
X187379482Y-89994093D01*
X187164923Y-90137456D01*
X186982456Y-90319923D01*
X186839093Y-90534482D01*
X186740342Y-90772887D01*
X186690000Y-91025976D01*
X186690000Y-91284024D01*
X186740342Y-91537113D01*
X186839093Y-91775518D01*
X186982456Y-91990077D01*
X187147379Y-92155000D01*
X186982456Y-92319923D01*
X186839093Y-92534482D01*
X186740342Y-92772887D01*
X186690000Y-93025976D01*
X186690000Y-93284024D01*
X186740342Y-93537113D01*
X186839093Y-93775518D01*
X186982456Y-93990077D01*
X187147379Y-94155000D01*
X186982456Y-94319923D01*
X186839093Y-94534482D01*
X186740342Y-94772887D01*
X186690000Y-95025976D01*
X186690000Y-95284024D01*
X186740342Y-95537113D01*
X186839093Y-95775518D01*
X186960697Y-95957513D01*
X186873815Y-96028815D01*
X186794463Y-96125506D01*
X186735498Y-96235820D01*
X186699188Y-96355518D01*
X186686928Y-96480000D01*
X177260000Y-96480000D01*
X177260000Y-88537322D01*
X177263676Y-88499999D01*
X177260000Y-88462676D01*
X177260000Y-88462667D01*
X177249003Y-88351014D01*
X177205546Y-88207753D01*
X177134974Y-88075724D01*
X177040001Y-87959999D01*
X177011003Y-87936201D01*
X175563804Y-86489003D01*
X175540001Y-86459999D01*
X175424276Y-86365026D01*
X175338671Y-86319268D01*
X180665000Y-86319268D01*
X180665000Y-86680732D01*
X180735518Y-87035250D01*
X180873844Y-87369199D01*
X181074662Y-87669744D01*
X181330256Y-87925338D01*
X181630801Y-88126156D01*
X181964750Y-88264482D01*
X182319268Y-88335000D01*
X182680732Y-88335000D01*
X183035250Y-88264482D01*
X183369199Y-88126156D01*
X183669744Y-87925338D01*
X183925338Y-87669744D01*
X184126156Y-87369199D01*
X184264482Y-87035250D01*
X184335000Y-86680732D01*
X184335000Y-86319268D01*
X192165000Y-86319268D01*
X192165000Y-86680732D01*
X192235518Y-87035250D01*
X192373844Y-87369199D01*
X192574662Y-87669744D01*
X192830256Y-87925338D01*
X193130801Y-88126156D01*
X193464750Y-88264482D01*
X193819268Y-88335000D01*
X194180732Y-88335000D01*
X194535250Y-88264482D01*
X194869199Y-88126156D01*
X195169744Y-87925338D01*
X195425338Y-87669744D01*
X195626156Y-87369199D01*
X195764482Y-87035250D01*
X195835000Y-86680732D01*
X195835000Y-86319268D01*
X195764482Y-85964750D01*
X195626156Y-85630801D01*
X195425338Y-85330256D01*
X195169744Y-85074662D01*
X194869199Y-84873844D01*
X194535250Y-84735518D01*
X194180732Y-84665000D01*
X193819268Y-84665000D01*
X193464750Y-84735518D01*
X193130801Y-84873844D01*
X192830256Y-85074662D01*
X192574662Y-85330256D01*
X192373844Y-85630801D01*
X192235518Y-85964750D01*
X192165000Y-86319268D01*
X184335000Y-86319268D01*
X184264482Y-85964750D01*
X184126156Y-85630801D01*
X183925338Y-85330256D01*
X183669744Y-85074662D01*
X183369199Y-84873844D01*
X183035250Y-84735518D01*
X182680732Y-84665000D01*
X182319268Y-84665000D01*
X181964750Y-84735518D01*
X181630801Y-84873844D01*
X181330256Y-85074662D01*
X181074662Y-85330256D01*
X180873844Y-85630801D01*
X180735518Y-85964750D01*
X180665000Y-86319268D01*
X175338671Y-86319268D01*
X175292247Y-86294454D01*
X175148986Y-86250997D01*
X175037333Y-86240000D01*
X175037322Y-86240000D01*
X175000000Y-86236324D01*
X174962678Y-86240000D01*
X169334801Y-86240000D01*
X176709802Y-78865000D01*
X183965091Y-78865000D01*
X183971082Y-78879463D01*
X184150013Y-79147252D01*
X184377748Y-79374987D01*
X184645537Y-79553918D01*
X184943088Y-79677168D01*
X185258967Y-79740000D01*
X185581033Y-79740000D01*
X185896912Y-79677168D01*
X186194463Y-79553918D01*
X186462252Y-79374987D01*
X186689987Y-79147252D01*
X186868918Y-78879463D01*
X186992168Y-78581912D01*
X187055000Y-78266033D01*
X187055000Y-77943967D01*
X186992168Y-77628088D01*
X186868918Y-77330537D01*
X186689987Y-77062748D01*
X186462252Y-76835013D01*
X186260809Y-76700413D01*
X190814192Y-76700413D01*
X190909956Y-76964814D01*
X191199571Y-77105704D01*
X191511108Y-77187384D01*
X191832595Y-77206718D01*
X192151675Y-77162961D01*
X192456088Y-77057795D01*
X192630044Y-76964814D01*
X192725808Y-76700413D01*
X191770000Y-75744605D01*
X190814192Y-76700413D01*
X186260809Y-76700413D01*
X186194463Y-76656082D01*
X185896912Y-76532832D01*
X185581033Y-76470000D01*
X185258967Y-76470000D01*
X184943088Y-76532832D01*
X184645537Y-76656082D01*
X184377748Y-76835013D01*
X184150013Y-77062748D01*
X183971082Y-77330537D01*
X183965091Y-77345000D01*
X176459802Y-77345000D01*
X178703592Y-75101210D01*
X178923740Y-75145000D01*
X179216260Y-75145000D01*
X179503158Y-75087932D01*
X179773411Y-74975990D01*
X180016632Y-74813475D01*
X180223475Y-74606632D01*
X180385990Y-74363411D01*
X180497932Y-74093158D01*
X180555000Y-73806260D01*
X180555000Y-73513740D01*
X180497932Y-73226842D01*
X180385990Y-72956589D01*
X180251711Y-72755626D01*
X185225000Y-72755626D01*
X185225000Y-73294374D01*
X185330105Y-73822770D01*
X185536275Y-74320508D01*
X185835587Y-74768461D01*
X186216539Y-75149413D01*
X186664492Y-75448725D01*
X187162230Y-75654895D01*
X187690626Y-75760000D01*
X188229374Y-75760000D01*
X188757770Y-75654895D01*
X188823677Y-75627595D01*
X190128282Y-75627595D01*
X190172039Y-75946675D01*
X190277205Y-76251088D01*
X190370186Y-76425044D01*
X190634587Y-76520808D01*
X191590395Y-75565000D01*
X191949605Y-75565000D01*
X192905413Y-76520808D01*
X193169814Y-76425044D01*
X193310704Y-76135429D01*
X193392384Y-75823892D01*
X193411718Y-75502405D01*
X193367961Y-75183325D01*
X193262795Y-74878912D01*
X193169814Y-74704956D01*
X192905413Y-74609192D01*
X191949605Y-75565000D01*
X191590395Y-75565000D01*
X190634587Y-74609192D01*
X190370186Y-74704956D01*
X190229296Y-74994571D01*
X190147616Y-75306108D01*
X190128282Y-75627595D01*
X188823677Y-75627595D01*
X189255508Y-75448725D01*
X189703461Y-75149413D01*
X190084413Y-74768461D01*
X190310840Y-74429587D01*
X190814192Y-74429587D01*
X191770000Y-75385395D01*
X192725808Y-74429587D01*
X192630044Y-74165186D01*
X192340429Y-74024296D01*
X192028892Y-73942616D01*
X191707405Y-73923282D01*
X191388325Y-73967039D01*
X191083912Y-74072205D01*
X190909956Y-74165186D01*
X190814192Y-74429587D01*
X190310840Y-74429587D01*
X190383725Y-74320508D01*
X190589895Y-73822770D01*
X190695000Y-73294374D01*
X190695000Y-72755626D01*
X190589895Y-72227230D01*
X190383725Y-71729492D01*
X190084413Y-71281539D01*
X189703461Y-70900587D01*
X189255508Y-70601275D01*
X188757770Y-70395105D01*
X188229374Y-70290000D01*
X187690626Y-70290000D01*
X187162230Y-70395105D01*
X186664492Y-70601275D01*
X186216539Y-70900587D01*
X185835587Y-71281539D01*
X185536275Y-71729492D01*
X185330105Y-72227230D01*
X185225000Y-72755626D01*
X180251711Y-72755626D01*
X180223475Y-72713368D01*
X180091620Y-72581513D01*
X180164180Y-72559502D01*
X180274494Y-72500537D01*
X180371185Y-72421185D01*
X180450537Y-72324494D01*
X180509502Y-72214180D01*
X180545812Y-72094482D01*
X180558072Y-71970000D01*
X180555000Y-71405750D01*
X180396250Y-71247000D01*
X179197000Y-71247000D01*
X179197000Y-71267000D01*
X178943000Y-71267000D01*
X178943000Y-71247000D01*
X177743750Y-71247000D01*
X177585000Y-71405750D01*
X177581928Y-71970000D01*
X177594188Y-72094482D01*
X177630498Y-72214180D01*
X177689463Y-72324494D01*
X177768815Y-72421185D01*
X177865506Y-72500537D01*
X177975820Y-72559502D01*
X178048380Y-72581513D01*
X177916525Y-72713368D01*
X177754010Y-72956589D01*
X177642068Y-73226842D01*
X177585000Y-73513740D01*
X177585000Y-73806260D01*
X177628790Y-74026408D01*
X175534590Y-76120609D01*
X175612384Y-75823892D01*
X175631718Y-75502405D01*
X175587961Y-75183325D01*
X175482795Y-74878912D01*
X175389814Y-74704956D01*
X175125413Y-74609192D01*
X174169605Y-75565000D01*
X174183748Y-75579143D01*
X174004143Y-75758748D01*
X173990000Y-75744605D01*
X173034192Y-76700413D01*
X173129956Y-76964814D01*
X173419571Y-77105704D01*
X173731108Y-77187384D01*
X174052595Y-77206718D01*
X174371675Y-77162961D01*
X174555872Y-77099326D01*
X166415199Y-85240000D01*
X164507538Y-85240000D01*
X164535000Y-85101939D01*
X164535000Y-84898061D01*
X164495226Y-84698102D01*
X164417205Y-84509744D01*
X164303937Y-84340226D01*
X164159774Y-84196063D01*
X163990256Y-84082795D01*
X163801898Y-84004774D01*
X163601939Y-83965000D01*
X163398061Y-83965000D01*
X163198102Y-84004774D01*
X163035000Y-84072334D01*
X163035000Y-83898061D01*
X162995226Y-83698102D01*
X162917205Y-83509744D01*
X162803937Y-83340226D01*
X162659774Y-83196063D01*
X162490256Y-83082795D01*
X162301898Y-83004774D01*
X162108497Y-82966304D01*
X166192787Y-78882015D01*
X166370013Y-79147252D01*
X166597748Y-79374987D01*
X166865537Y-79553918D01*
X167163088Y-79677168D01*
X167478967Y-79740000D01*
X167801033Y-79740000D01*
X168116912Y-79677168D01*
X168414463Y-79553918D01*
X168682252Y-79374987D01*
X168909987Y-79147252D01*
X169088918Y-78879463D01*
X169212168Y-78581912D01*
X169275000Y-78266033D01*
X169275000Y-77943967D01*
X169212168Y-77628088D01*
X169088918Y-77330537D01*
X168909987Y-77062748D01*
X168682252Y-76835013D01*
X168414463Y-76656082D01*
X168116912Y-76532832D01*
X167801033Y-76470000D01*
X167478967Y-76470000D01*
X167163088Y-76532832D01*
X166865537Y-76656082D01*
X166597748Y-76835013D01*
X166370013Y-77062748D01*
X166191082Y-77330537D01*
X166185091Y-77345000D01*
X165932322Y-77345000D01*
X165894999Y-77341324D01*
X165857676Y-77345000D01*
X165857667Y-77345000D01*
X165746014Y-77355997D01*
X165602753Y-77399454D01*
X165470724Y-77470026D01*
X165470722Y-77470027D01*
X165470723Y-77470027D01*
X165383996Y-77541201D01*
X165383992Y-77541205D01*
X165354999Y-77564999D01*
X165331205Y-77593992D01*
X160960199Y-81965000D01*
X160898061Y-81965000D01*
X160698102Y-82004774D01*
X160509744Y-82082795D01*
X160340226Y-82196063D01*
X160196063Y-82340226D01*
X160082795Y-82509744D01*
X160004774Y-82698102D01*
X159965000Y-82898061D01*
X159965000Y-83101939D01*
X159992462Y-83240000D01*
X159314802Y-83240000D01*
X153668804Y-77594003D01*
X153645001Y-77564999D01*
X153529276Y-77470026D01*
X153397247Y-77399454D01*
X153253986Y-77355997D01*
X153142333Y-77345000D01*
X153142322Y-77345000D01*
X153105000Y-77341324D01*
X153067678Y-77345000D01*
X151314909Y-77345000D01*
X151308918Y-77330537D01*
X151129987Y-77062748D01*
X150902252Y-76835013D01*
X150700809Y-76700413D01*
X155254192Y-76700413D01*
X155349956Y-76964814D01*
X155639571Y-77105704D01*
X155951108Y-77187384D01*
X156272595Y-77206718D01*
X156591675Y-77162961D01*
X156896088Y-77057795D01*
X157070044Y-76964814D01*
X157165808Y-76700413D01*
X156210000Y-75744605D01*
X155254192Y-76700413D01*
X150700809Y-76700413D01*
X150634463Y-76656082D01*
X150336912Y-76532832D01*
X150021033Y-76470000D01*
X149698967Y-76470000D01*
X149383088Y-76532832D01*
X149085537Y-76656082D01*
X148817748Y-76835013D01*
X148590013Y-77062748D01*
X148411082Y-77330537D01*
X148287832Y-77628088D01*
X148225000Y-77943967D01*
X148225000Y-78266033D01*
X148287832Y-78581912D01*
X148411082Y-78879463D01*
X148590013Y-79147252D01*
X148682761Y-79240000D01*
X147814802Y-79240000D01*
X146168804Y-77594003D01*
X146145001Y-77564999D01*
X146029276Y-77470026D01*
X145897247Y-77399454D01*
X145753986Y-77355997D01*
X145642333Y-77345000D01*
X145642322Y-77345000D01*
X145605000Y-77341324D01*
X145567678Y-77345000D01*
X133534909Y-77345000D01*
X133528918Y-77330537D01*
X133349987Y-77062748D01*
X133122252Y-76835013D01*
X132920809Y-76700413D01*
X137474192Y-76700413D01*
X137569956Y-76964814D01*
X137859571Y-77105704D01*
X138171108Y-77187384D01*
X138492595Y-77206718D01*
X138811675Y-77162961D01*
X139116088Y-77057795D01*
X139290044Y-76964814D01*
X139385808Y-76700413D01*
X138430000Y-75744605D01*
X137474192Y-76700413D01*
X132920809Y-76700413D01*
X132854463Y-76656082D01*
X132556912Y-76532832D01*
X132241033Y-76470000D01*
X131918967Y-76470000D01*
X131603088Y-76532832D01*
X131305537Y-76656082D01*
X131037748Y-76835013D01*
X130810013Y-77062748D01*
X130631082Y-77330537D01*
X130507832Y-77628088D01*
X130445000Y-77943967D01*
X126660000Y-77943967D01*
X126660000Y-72755626D01*
X131885000Y-72755626D01*
X131885000Y-73294374D01*
X131990105Y-73822770D01*
X132196275Y-74320508D01*
X132495587Y-74768461D01*
X132876539Y-75149413D01*
X133324492Y-75448725D01*
X133822230Y-75654895D01*
X134350626Y-75760000D01*
X134889374Y-75760000D01*
X135417770Y-75654895D01*
X135483677Y-75627595D01*
X136788282Y-75627595D01*
X136832039Y-75946675D01*
X136937205Y-76251088D01*
X137030186Y-76425044D01*
X137294587Y-76520808D01*
X138250395Y-75565000D01*
X138609605Y-75565000D01*
X139565413Y-76520808D01*
X139829814Y-76425044D01*
X139970704Y-76135429D01*
X140052384Y-75823892D01*
X140071718Y-75502405D01*
X140027961Y-75183325D01*
X139922795Y-74878912D01*
X139829814Y-74704956D01*
X139565413Y-74609192D01*
X138609605Y-75565000D01*
X138250395Y-75565000D01*
X137294587Y-74609192D01*
X137030186Y-74704956D01*
X136889296Y-74994571D01*
X136807616Y-75306108D01*
X136788282Y-75627595D01*
X135483677Y-75627595D01*
X135915508Y-75448725D01*
X136363461Y-75149413D01*
X136744413Y-74768461D01*
X136970840Y-74429587D01*
X137474192Y-74429587D01*
X138430000Y-75385395D01*
X139385808Y-74429587D01*
X139290044Y-74165186D01*
X139000429Y-74024296D01*
X138688892Y-73942616D01*
X138367405Y-73923282D01*
X138048325Y-73967039D01*
X137743912Y-74072205D01*
X137569956Y-74165186D01*
X137474192Y-74429587D01*
X136970840Y-74429587D01*
X137043725Y-74320508D01*
X137249895Y-73822770D01*
X137355000Y-73294374D01*
X137355000Y-72755626D01*
X149665000Y-72755626D01*
X149665000Y-73294374D01*
X149770105Y-73822770D01*
X149976275Y-74320508D01*
X150275587Y-74768461D01*
X150656539Y-75149413D01*
X151104492Y-75448725D01*
X151602230Y-75654895D01*
X152130626Y-75760000D01*
X152669374Y-75760000D01*
X153197770Y-75654895D01*
X153263677Y-75627595D01*
X154568282Y-75627595D01*
X154612039Y-75946675D01*
X154717205Y-76251088D01*
X154810186Y-76425044D01*
X155074587Y-76520808D01*
X156030395Y-75565000D01*
X156389605Y-75565000D01*
X157345413Y-76520808D01*
X157609814Y-76425044D01*
X157750704Y-76135429D01*
X157832384Y-75823892D01*
X157851718Y-75502405D01*
X157807961Y-75183325D01*
X157702795Y-74878912D01*
X157609814Y-74704956D01*
X157345413Y-74609192D01*
X156389605Y-75565000D01*
X156030395Y-75565000D01*
X155074587Y-74609192D01*
X154810186Y-74704956D01*
X154669296Y-74994571D01*
X154587616Y-75306108D01*
X154568282Y-75627595D01*
X153263677Y-75627595D01*
X153695508Y-75448725D01*
X154143461Y-75149413D01*
X154524413Y-74768461D01*
X154750840Y-74429587D01*
X155254192Y-74429587D01*
X156210000Y-75385395D01*
X157165808Y-74429587D01*
X157070044Y-74165186D01*
X156780429Y-74024296D01*
X156468892Y-73942616D01*
X156147405Y-73923282D01*
X155828325Y-73967039D01*
X155523912Y-74072205D01*
X155349956Y-74165186D01*
X155254192Y-74429587D01*
X154750840Y-74429587D01*
X154823725Y-74320508D01*
X155029895Y-73822770D01*
X155135000Y-73294374D01*
X155135000Y-72755626D01*
X167445000Y-72755626D01*
X167445000Y-73294374D01*
X167550105Y-73822770D01*
X167756275Y-74320508D01*
X168055587Y-74768461D01*
X168436539Y-75149413D01*
X168884492Y-75448725D01*
X169382230Y-75654895D01*
X169910626Y-75760000D01*
X170449374Y-75760000D01*
X170977770Y-75654895D01*
X171043677Y-75627595D01*
X172348282Y-75627595D01*
X172392039Y-75946675D01*
X172497205Y-76251088D01*
X172590186Y-76425044D01*
X172854587Y-76520808D01*
X173810395Y-75565000D01*
X172854587Y-74609192D01*
X172590186Y-74704956D01*
X172449296Y-74994571D01*
X172367616Y-75306108D01*
X172348282Y-75627595D01*
X171043677Y-75627595D01*
X171475508Y-75448725D01*
X171923461Y-75149413D01*
X172304413Y-74768461D01*
X172530840Y-74429587D01*
X173034192Y-74429587D01*
X173990000Y-75385395D01*
X174945808Y-74429587D01*
X174850044Y-74165186D01*
X174560429Y-74024296D01*
X174248892Y-73942616D01*
X173927405Y-73923282D01*
X173608325Y-73967039D01*
X173303912Y-74072205D01*
X173129956Y-74165186D01*
X173034192Y-74429587D01*
X172530840Y-74429587D01*
X172603725Y-74320508D01*
X172809895Y-73822770D01*
X172915000Y-73294374D01*
X172915000Y-72755626D01*
X172809895Y-72227230D01*
X172603725Y-71729492D01*
X172304413Y-71281539D01*
X171923461Y-70900587D01*
X171475508Y-70601275D01*
X170977770Y-70395105D01*
X170449374Y-70290000D01*
X169910626Y-70290000D01*
X169382230Y-70395105D01*
X168884492Y-70601275D01*
X168436539Y-70900587D01*
X168055587Y-71281539D01*
X167756275Y-71729492D01*
X167550105Y-72227230D01*
X167445000Y-72755626D01*
X155135000Y-72755626D01*
X155029895Y-72227230D01*
X154823725Y-71729492D01*
X154524413Y-71281539D01*
X154143461Y-70900587D01*
X153695508Y-70601275D01*
X153197770Y-70395105D01*
X152669374Y-70290000D01*
X152130626Y-70290000D01*
X151602230Y-70395105D01*
X151104492Y-70601275D01*
X150656539Y-70900587D01*
X150275587Y-71281539D01*
X149976275Y-71729492D01*
X149770105Y-72227230D01*
X149665000Y-72755626D01*
X137355000Y-72755626D01*
X137249895Y-72227230D01*
X137043725Y-71729492D01*
X136744413Y-71281539D01*
X136363461Y-70900587D01*
X135915508Y-70601275D01*
X135417770Y-70395105D01*
X134889374Y-70290000D01*
X134350626Y-70290000D01*
X133822230Y-70395105D01*
X133324492Y-70601275D01*
X132876539Y-70900587D01*
X132495587Y-71281539D01*
X132196275Y-71729492D01*
X131990105Y-72227230D01*
X131885000Y-72755626D01*
X126660000Y-72755626D01*
X126660000Y-70270000D01*
X177581928Y-70270000D01*
X177585000Y-70834250D01*
X177743750Y-70993000D01*
X178943000Y-70993000D01*
X178943000Y-69793750D01*
X179197000Y-69793750D01*
X179197000Y-70993000D01*
X180396250Y-70993000D01*
X180555000Y-70834250D01*
X180558072Y-70270000D01*
X180545812Y-70145518D01*
X180509502Y-70025820D01*
X180450537Y-69915506D01*
X180371185Y-69818815D01*
X180274494Y-69739463D01*
X180164180Y-69680498D01*
X180044482Y-69644188D01*
X179920000Y-69631928D01*
X179355750Y-69635000D01*
X179197000Y-69793750D01*
X178943000Y-69793750D01*
X178784250Y-69635000D01*
X178220000Y-69631928D01*
X178095518Y-69644188D01*
X177975820Y-69680498D01*
X177865506Y-69739463D01*
X177768815Y-69818815D01*
X177689463Y-69915506D01*
X177630498Y-70025820D01*
X177594188Y-70145518D01*
X177581928Y-70270000D01*
X126660000Y-70270000D01*
X126660000Y-65532279D01*
X126669580Y-65434576D01*
X126688580Y-65371644D01*
X126719445Y-65313595D01*
X126760989Y-65262657D01*
X126811644Y-65220752D01*
X126869471Y-65189485D01*
X126932272Y-65170044D01*
X127027835Y-65160000D01*
X195467721Y-65160000D01*
X195565424Y-65169580D01*
G37*
G04 #@! TD.AperFunction*
D20*
X148148748Y-92060858D02*
X148134605Y-92075000D01*
X149090413Y-93030808D01*
X149354814Y-92935044D01*
X149468189Y-92701989D01*
X151777203Y-95011003D01*
X151801001Y-95040001D01*
X151916726Y-95134974D01*
X152048755Y-95205546D01*
X152162337Y-95240000D01*
X150233800Y-95240000D01*
X148582006Y-93588206D01*
X148641088Y-93567795D01*
X148815044Y-93474814D01*
X148910808Y-93210413D01*
X147955000Y-92254605D01*
X147940858Y-92268748D01*
X147761253Y-92089143D01*
X147775395Y-92075000D01*
X147761253Y-92060858D01*
X147940858Y-91881253D01*
X147955000Y-91895395D01*
X147969143Y-91881253D01*
X148148748Y-92060858D01*
G04 #@! TA.AperFunction,Conductor*
D21*
G36*
X148148748Y-92060858D02*
G01*
X148134605Y-92075000D01*
X149090413Y-93030808D01*
X149354814Y-92935044D01*
X149468189Y-92701989D01*
X151777203Y-95011003D01*
X151801001Y-95040001D01*
X151916726Y-95134974D01*
X152048755Y-95205546D01*
X152162337Y-95240000D01*
X150233800Y-95240000D01*
X148582006Y-93588206D01*
X148641088Y-93567795D01*
X148815044Y-93474814D01*
X148910808Y-93210413D01*
X147955000Y-92254605D01*
X147940858Y-92268748D01*
X147761253Y-92089143D01*
X147775395Y-92075000D01*
X147761253Y-92060858D01*
X147940858Y-91881253D01*
X147955000Y-91895395D01*
X147969143Y-91881253D01*
X148148748Y-92060858D01*
G37*
G04 #@! TD.AperFunction*
G04 #@! TD*
M02*
