G04 #@! TF.GenerationSoftware,KiCad,Pcbnew,(5.1.8)-1*
G04 #@! TF.CreationDate,2022-03-17T23:11:15+09:00*
G04 #@! TF.ProjectId,windsynth,77696e64-7379-46e7-9468-2e6b69636164,rev?*
G04 #@! TF.SameCoordinates,Original*
G04 #@! TF.FileFunction,Legend,Top*
G04 #@! TF.FilePolarity,Positive*
%FSLAX46Y46*%
G04 Gerber Fmt 4.6, Leading zero omitted, Abs format (unit mm)*
G04 Created by KiCad (PCBNEW (5.1.8)-1) date 2022-03-17 23:11:15*
%MOMM*%
%LPD*%
G01*
G04 APERTURE LIST*
%ADD10C,0.120000*%
%ADD11C,0.150000*%
G04 APERTURE END LIST*
D10*
G04 #@! TO.C,Grove*
X201440000Y-87940000D02*
X201440000Y-96060000D01*
X201440000Y-96060000D02*
X203060000Y-96060000D01*
X203060000Y-96060000D02*
X203060000Y-87940000D01*
X203060000Y-87940000D02*
X201440000Y-87940000D01*
X203060000Y-88690000D02*
X207260000Y-88690000D01*
X207260000Y-88690000D02*
X207260000Y-89310000D01*
X207260000Y-89310000D02*
X203060000Y-89310000D01*
X203060000Y-88750000D02*
X207260000Y-88750000D01*
X203060000Y-88870000D02*
X207260000Y-88870000D01*
X203060000Y-88990000D02*
X207260000Y-88990000D01*
X203060000Y-89110000D02*
X207260000Y-89110000D01*
X203060000Y-89230000D02*
X207260000Y-89230000D01*
X200935000Y-88690000D02*
X201440000Y-88690000D01*
X200935000Y-89310000D02*
X201440000Y-89310000D01*
X201440000Y-90000000D02*
X203060000Y-90000000D01*
X203060000Y-90690000D02*
X207260000Y-90690000D01*
X207260000Y-90690000D02*
X207260000Y-91310000D01*
X207260000Y-91310000D02*
X203060000Y-91310000D01*
X200882114Y-90690000D02*
X201440000Y-90690000D01*
X200882114Y-91310000D02*
X201440000Y-91310000D01*
X201440000Y-92000000D02*
X203060000Y-92000000D01*
X203060000Y-92690000D02*
X207260000Y-92690000D01*
X207260000Y-92690000D02*
X207260000Y-93310000D01*
X207260000Y-93310000D02*
X203060000Y-93310000D01*
X200882114Y-92690000D02*
X201440000Y-92690000D01*
X200882114Y-93310000D02*
X201440000Y-93310000D01*
X201440000Y-94000000D02*
X203060000Y-94000000D01*
X203060000Y-94690000D02*
X207260000Y-94690000D01*
X207260000Y-94690000D02*
X207260000Y-95310000D01*
X207260000Y-95310000D02*
X203060000Y-95310000D01*
X200882114Y-94690000D02*
X201440000Y-94690000D01*
X200882114Y-95310000D02*
X201440000Y-95310000D01*
X199000000Y-89000000D02*
X199000000Y-88000000D01*
X199000000Y-88000000D02*
X200000000Y-88000000D01*
D11*
G04 #@! TO.C,KeyLowC*
X197000000Y-123000000D02*
X197000000Y-108000000D01*
X212000000Y-123000000D02*
X197000000Y-123000000D01*
X212000000Y-108000000D02*
X212000000Y-123000000D01*
X197000000Y-108000000D02*
X212000000Y-108000000D01*
G04 #@! TO.C,KeyD*
X160000000Y-123000000D02*
X160000000Y-108000000D01*
X175000000Y-123000000D02*
X160000000Y-123000000D01*
X175000000Y-108000000D02*
X175000000Y-123000000D01*
X160000000Y-108000000D02*
X175000000Y-108000000D01*
G04 #@! TO.C,KeyE*
X141500000Y-123000000D02*
X141500000Y-108000000D01*
X156500000Y-123000000D02*
X141500000Y-123000000D01*
X156500000Y-108000000D02*
X156500000Y-123000000D01*
X141500000Y-108000000D02*
X156500000Y-108000000D01*
G04 #@! TO.C,KeyF*
X123000000Y-108000000D02*
X138000000Y-108000000D01*
X138000000Y-108000000D02*
X138000000Y-123000000D01*
X138000000Y-123000000D02*
X123000000Y-123000000D01*
X123000000Y-123000000D02*
X123000000Y-108000000D01*
G04 #@! TO.C,KeyLowCs*
X212000000Y-61000000D02*
X212000000Y-76000000D01*
X197000000Y-61000000D02*
X212000000Y-61000000D01*
X197000000Y-76000000D02*
X197000000Y-61000000D01*
X212000000Y-76000000D02*
X197000000Y-76000000D01*
G04 #@! TO.C,KeyG*
X175000000Y-75953000D02*
X160000000Y-75953000D01*
X160000000Y-75953000D02*
X160000000Y-60953000D01*
X160000000Y-60953000D02*
X175000000Y-60953000D01*
X175000000Y-60953000D02*
X175000000Y-75953000D01*
G04 #@! TO.C,KeyA*
X156500000Y-60953000D02*
X156500000Y-75953000D01*
X141500000Y-60953000D02*
X156500000Y-60953000D01*
X141500000Y-75953000D02*
X141500000Y-60953000D01*
X156500000Y-75953000D02*
X141500000Y-75953000D01*
G04 #@! TO.C,KeyB*
X138000000Y-76000000D02*
X123000000Y-76000000D01*
X123000000Y-76000000D02*
X123000000Y-61000000D01*
X123000000Y-61000000D02*
X138000000Y-61000000D01*
X138000000Y-61000000D02*
X138000000Y-76000000D01*
G04 #@! TO.C,SPEAKER(\u002A)*
X156508331Y-92000000D02*
G75*
G03*
X156508331Y-92000000I-15008331J0D01*
G01*
D10*
G04 #@! TO.C,MCP23017*
X197330000Y-94960000D02*
X197330000Y-93310000D01*
X161650000Y-94960000D02*
X197330000Y-94960000D01*
X161650000Y-89660000D02*
X161650000Y-94960000D01*
X197330000Y-89660000D02*
X161650000Y-89660000D01*
X197330000Y-91310000D02*
X197330000Y-89660000D01*
X197330000Y-93310000D02*
G75*
G02*
X197330000Y-91310000I0J1000000D01*
G01*
D11*
G04 #@! TO.C,KeyEb*
X178500000Y-123000000D02*
X178500000Y-108000000D01*
X193500000Y-123000000D02*
X178500000Y-123000000D01*
X193500000Y-108000000D02*
X193500000Y-123000000D01*
X178500000Y-108000000D02*
X193500000Y-108000000D01*
G04 #@! TO.C,KeyGs*
X193500000Y-76000000D02*
X178500000Y-76000000D01*
X178500000Y-76000000D02*
X178500000Y-61000000D01*
X178500000Y-61000000D02*
X193500000Y-61000000D01*
X193500000Y-61000000D02*
X193500000Y-76000000D01*
G04 #@! TO.C,Grove*
X207910000Y-93164523D02*
X207862380Y-93259761D01*
X207862380Y-93402619D01*
X207910000Y-93545476D01*
X208005238Y-93640714D01*
X208100476Y-93688333D01*
X208290952Y-93735952D01*
X208433809Y-93735952D01*
X208624285Y-93688333D01*
X208719523Y-93640714D01*
X208814761Y-93545476D01*
X208862380Y-93402619D01*
X208862380Y-93307380D01*
X208814761Y-93164523D01*
X208767142Y-93116904D01*
X208433809Y-93116904D01*
X208433809Y-93307380D01*
X208862380Y-92688333D02*
X208195714Y-92688333D01*
X208386190Y-92688333D02*
X208290952Y-92640714D01*
X208243333Y-92593095D01*
X208195714Y-92497857D01*
X208195714Y-92402619D01*
X208862380Y-91926428D02*
X208814761Y-92021666D01*
X208767142Y-92069285D01*
X208671904Y-92116904D01*
X208386190Y-92116904D01*
X208290952Y-92069285D01*
X208243333Y-92021666D01*
X208195714Y-91926428D01*
X208195714Y-91783571D01*
X208243333Y-91688333D01*
X208290952Y-91640714D01*
X208386190Y-91593095D01*
X208671904Y-91593095D01*
X208767142Y-91640714D01*
X208814761Y-91688333D01*
X208862380Y-91783571D01*
X208862380Y-91926428D01*
X208195714Y-91259761D02*
X208862380Y-91021666D01*
X208195714Y-90783571D01*
X208814761Y-90021666D02*
X208862380Y-90116904D01*
X208862380Y-90307380D01*
X208814761Y-90402619D01*
X208719523Y-90450238D01*
X208338571Y-90450238D01*
X208243333Y-90402619D01*
X208195714Y-90307380D01*
X208195714Y-90116904D01*
X208243333Y-90021666D01*
X208338571Y-89974047D01*
X208433809Y-89974047D01*
X208529047Y-90450238D01*
G04 #@! TO.C,KeyLowC*
X201547619Y-119492380D02*
X201547619Y-118492380D01*
X202119047Y-119492380D02*
X201690476Y-118920952D01*
X202119047Y-118492380D02*
X201547619Y-119063809D01*
X202928571Y-119444761D02*
X202833333Y-119492380D01*
X202642857Y-119492380D01*
X202547619Y-119444761D01*
X202500000Y-119349523D01*
X202500000Y-118968571D01*
X202547619Y-118873333D01*
X202642857Y-118825714D01*
X202833333Y-118825714D01*
X202928571Y-118873333D01*
X202976190Y-118968571D01*
X202976190Y-119063809D01*
X202500000Y-119159047D01*
X203309523Y-118825714D02*
X203547619Y-119492380D01*
X203785714Y-118825714D02*
X203547619Y-119492380D01*
X203452380Y-119730476D01*
X203404761Y-119778095D01*
X203309523Y-119825714D01*
X204642857Y-119492380D02*
X204166666Y-119492380D01*
X204166666Y-118492380D01*
X205119047Y-119492380D02*
X205023809Y-119444761D01*
X204976190Y-119397142D01*
X204928571Y-119301904D01*
X204928571Y-119016190D01*
X204976190Y-118920952D01*
X205023809Y-118873333D01*
X205119047Y-118825714D01*
X205261904Y-118825714D01*
X205357142Y-118873333D01*
X205404761Y-118920952D01*
X205452380Y-119016190D01*
X205452380Y-119301904D01*
X205404761Y-119397142D01*
X205357142Y-119444761D01*
X205261904Y-119492380D01*
X205119047Y-119492380D01*
X205785714Y-118825714D02*
X205976190Y-119492380D01*
X206166666Y-119016190D01*
X206357142Y-119492380D01*
X206547619Y-118825714D01*
X207500000Y-119397142D02*
X207452380Y-119444761D01*
X207309523Y-119492380D01*
X207214285Y-119492380D01*
X207071428Y-119444761D01*
X206976190Y-119349523D01*
X206928571Y-119254285D01*
X206880952Y-119063809D01*
X206880952Y-118920952D01*
X206928571Y-118730476D01*
X206976190Y-118635238D01*
X207071428Y-118540000D01*
X207214285Y-118492380D01*
X207309523Y-118492380D01*
X207452380Y-118540000D01*
X207500000Y-118587619D01*
G04 #@! TO.C,KeyD*
X165928571Y-119492380D02*
X165928571Y-118492380D01*
X166500000Y-119492380D02*
X166071428Y-118920952D01*
X166500000Y-118492380D02*
X165928571Y-119063809D01*
X167309523Y-119444761D02*
X167214285Y-119492380D01*
X167023809Y-119492380D01*
X166928571Y-119444761D01*
X166880952Y-119349523D01*
X166880952Y-118968571D01*
X166928571Y-118873333D01*
X167023809Y-118825714D01*
X167214285Y-118825714D01*
X167309523Y-118873333D01*
X167357142Y-118968571D01*
X167357142Y-119063809D01*
X166880952Y-119159047D01*
X167690476Y-118825714D02*
X167928571Y-119492380D01*
X168166666Y-118825714D02*
X167928571Y-119492380D01*
X167833333Y-119730476D01*
X167785714Y-119778095D01*
X167690476Y-119825714D01*
X168547619Y-119492380D02*
X168547619Y-118492380D01*
X168785714Y-118492380D01*
X168928571Y-118540000D01*
X169023809Y-118635238D01*
X169071428Y-118730476D01*
X169119047Y-118920952D01*
X169119047Y-119063809D01*
X169071428Y-119254285D01*
X169023809Y-119349523D01*
X168928571Y-119444761D01*
X168785714Y-119492380D01*
X168547619Y-119492380D01*
G04 #@! TO.C,KeyE*
X147476190Y-119492380D02*
X147476190Y-118492380D01*
X148047619Y-119492380D02*
X147619047Y-118920952D01*
X148047619Y-118492380D02*
X147476190Y-119063809D01*
X148857142Y-119444761D02*
X148761904Y-119492380D01*
X148571428Y-119492380D01*
X148476190Y-119444761D01*
X148428571Y-119349523D01*
X148428571Y-118968571D01*
X148476190Y-118873333D01*
X148571428Y-118825714D01*
X148761904Y-118825714D01*
X148857142Y-118873333D01*
X148904761Y-118968571D01*
X148904761Y-119063809D01*
X148428571Y-119159047D01*
X149238095Y-118825714D02*
X149476190Y-119492380D01*
X149714285Y-118825714D02*
X149476190Y-119492380D01*
X149380952Y-119730476D01*
X149333333Y-119778095D01*
X149238095Y-119825714D01*
X150095238Y-118968571D02*
X150428571Y-118968571D01*
X150571428Y-119492380D02*
X150095238Y-119492380D01*
X150095238Y-118492380D01*
X150571428Y-118492380D01*
G04 #@! TO.C,KeyF*
X129000000Y-119492380D02*
X129000000Y-118492380D01*
X129571428Y-119492380D02*
X129142857Y-118920952D01*
X129571428Y-118492380D02*
X129000000Y-119063809D01*
X130380952Y-119444761D02*
X130285714Y-119492380D01*
X130095238Y-119492380D01*
X130000000Y-119444761D01*
X129952380Y-119349523D01*
X129952380Y-118968571D01*
X130000000Y-118873333D01*
X130095238Y-118825714D01*
X130285714Y-118825714D01*
X130380952Y-118873333D01*
X130428571Y-118968571D01*
X130428571Y-119063809D01*
X129952380Y-119159047D01*
X130761904Y-118825714D02*
X131000000Y-119492380D01*
X131238095Y-118825714D02*
X131000000Y-119492380D01*
X130904761Y-119730476D01*
X130857142Y-119778095D01*
X130761904Y-119825714D01*
X131952380Y-118968571D02*
X131619047Y-118968571D01*
X131619047Y-119492380D02*
X131619047Y-118492380D01*
X132095238Y-118492380D01*
G04 #@! TO.C,KeyLowCs*
X199642857Y-65452380D02*
X199642857Y-64452380D01*
X200214285Y-65452380D02*
X199785714Y-64880952D01*
X200214285Y-64452380D02*
X199642857Y-65023809D01*
X201023809Y-65404761D02*
X200928571Y-65452380D01*
X200738095Y-65452380D01*
X200642857Y-65404761D01*
X200595238Y-65309523D01*
X200595238Y-64928571D01*
X200642857Y-64833333D01*
X200738095Y-64785714D01*
X200928571Y-64785714D01*
X201023809Y-64833333D01*
X201071428Y-64928571D01*
X201071428Y-65023809D01*
X200595238Y-65119047D01*
X201404761Y-64785714D02*
X201642857Y-65452380D01*
X201880952Y-64785714D02*
X201642857Y-65452380D01*
X201547619Y-65690476D01*
X201500000Y-65738095D01*
X201404761Y-65785714D01*
X202738095Y-65452380D02*
X202261904Y-65452380D01*
X202261904Y-64452380D01*
X203214285Y-65452380D02*
X203119047Y-65404761D01*
X203071428Y-65357142D01*
X203023809Y-65261904D01*
X203023809Y-64976190D01*
X203071428Y-64880952D01*
X203119047Y-64833333D01*
X203214285Y-64785714D01*
X203357142Y-64785714D01*
X203452380Y-64833333D01*
X203500000Y-64880952D01*
X203547619Y-64976190D01*
X203547619Y-65261904D01*
X203500000Y-65357142D01*
X203452380Y-65404761D01*
X203357142Y-65452380D01*
X203214285Y-65452380D01*
X203880952Y-64785714D02*
X204071428Y-65452380D01*
X204261904Y-64976190D01*
X204452380Y-65452380D01*
X204642857Y-64785714D01*
X205595238Y-65357142D02*
X205547619Y-65404761D01*
X205404761Y-65452380D01*
X205309523Y-65452380D01*
X205166666Y-65404761D01*
X205071428Y-65309523D01*
X205023809Y-65214285D01*
X204976190Y-65023809D01*
X204976190Y-64880952D01*
X205023809Y-64690476D01*
X205071428Y-64595238D01*
X205166666Y-64500000D01*
X205309523Y-64452380D01*
X205404761Y-64452380D01*
X205547619Y-64500000D01*
X205595238Y-64547619D01*
X205976190Y-65404761D02*
X206071428Y-65452380D01*
X206261904Y-65452380D01*
X206357142Y-65404761D01*
X206404761Y-65309523D01*
X206404761Y-65261904D01*
X206357142Y-65166666D01*
X206261904Y-65119047D01*
X206119047Y-65119047D01*
X206023809Y-65071428D01*
X205976190Y-64976190D01*
X205976190Y-64928571D01*
X206023809Y-64833333D01*
X206119047Y-64785714D01*
X206261904Y-64785714D01*
X206357142Y-64833333D01*
G04 #@! TO.C,KeyG*
X160928571Y-68952380D02*
X160928571Y-67952380D01*
X161500000Y-68952380D02*
X161071428Y-68380952D01*
X161500000Y-67952380D02*
X160928571Y-68523809D01*
X162309523Y-68904761D02*
X162214285Y-68952380D01*
X162023809Y-68952380D01*
X161928571Y-68904761D01*
X161880952Y-68809523D01*
X161880952Y-68428571D01*
X161928571Y-68333333D01*
X162023809Y-68285714D01*
X162214285Y-68285714D01*
X162309523Y-68333333D01*
X162357142Y-68428571D01*
X162357142Y-68523809D01*
X161880952Y-68619047D01*
X162690476Y-68285714D02*
X162928571Y-68952380D01*
X163166666Y-68285714D02*
X162928571Y-68952380D01*
X162833333Y-69190476D01*
X162785714Y-69238095D01*
X162690476Y-69285714D01*
X164071428Y-68000000D02*
X163976190Y-67952380D01*
X163833333Y-67952380D01*
X163690476Y-68000000D01*
X163595238Y-68095238D01*
X163547619Y-68190476D01*
X163500000Y-68380952D01*
X163500000Y-68523809D01*
X163547619Y-68714285D01*
X163595238Y-68809523D01*
X163690476Y-68904761D01*
X163833333Y-68952380D01*
X163928571Y-68952380D01*
X164071428Y-68904761D01*
X164119047Y-68857142D01*
X164119047Y-68523809D01*
X163928571Y-68523809D01*
G04 #@! TO.C,KeyA*
X142500000Y-68952380D02*
X142500000Y-67952380D01*
X143071428Y-68952380D02*
X142642857Y-68380952D01*
X143071428Y-67952380D02*
X142500000Y-68523809D01*
X143880952Y-68904761D02*
X143785714Y-68952380D01*
X143595238Y-68952380D01*
X143500000Y-68904761D01*
X143452380Y-68809523D01*
X143452380Y-68428571D01*
X143500000Y-68333333D01*
X143595238Y-68285714D01*
X143785714Y-68285714D01*
X143880952Y-68333333D01*
X143928571Y-68428571D01*
X143928571Y-68523809D01*
X143452380Y-68619047D01*
X144261904Y-68285714D02*
X144500000Y-68952380D01*
X144738095Y-68285714D02*
X144500000Y-68952380D01*
X144404761Y-69190476D01*
X144357142Y-69238095D01*
X144261904Y-69285714D01*
X145071428Y-68666666D02*
X145547619Y-68666666D01*
X144976190Y-68952380D02*
X145309523Y-67952380D01*
X145642857Y-68952380D01*
G04 #@! TO.C,KeyB*
X123928571Y-68952380D02*
X123928571Y-67952380D01*
X124500000Y-68952380D02*
X124071428Y-68380952D01*
X124500000Y-67952380D02*
X123928571Y-68523809D01*
X125309523Y-68904761D02*
X125214285Y-68952380D01*
X125023809Y-68952380D01*
X124928571Y-68904761D01*
X124880952Y-68809523D01*
X124880952Y-68428571D01*
X124928571Y-68333333D01*
X125023809Y-68285714D01*
X125214285Y-68285714D01*
X125309523Y-68333333D01*
X125357142Y-68428571D01*
X125357142Y-68523809D01*
X124880952Y-68619047D01*
X125690476Y-68285714D02*
X125928571Y-68952380D01*
X126166666Y-68285714D02*
X125928571Y-68952380D01*
X125833333Y-69190476D01*
X125785714Y-69238095D01*
X125690476Y-69285714D01*
X126880952Y-68428571D02*
X127023809Y-68476190D01*
X127071428Y-68523809D01*
X127119047Y-68619047D01*
X127119047Y-68761904D01*
X127071428Y-68857142D01*
X127023809Y-68904761D01*
X126928571Y-68952380D01*
X126547619Y-68952380D01*
X126547619Y-67952380D01*
X126880952Y-67952380D01*
X126976190Y-68000000D01*
X127023809Y-68047619D01*
X127071428Y-68142857D01*
X127071428Y-68238095D01*
X127023809Y-68333333D01*
X126976190Y-68380952D01*
X126880952Y-68428571D01*
X126547619Y-68428571D01*
G04 #@! TO.C,SPEAKER(\u002A)*
X141404761Y-96166666D02*
X141452380Y-96023809D01*
X141452380Y-95785714D01*
X141404761Y-95690476D01*
X141357142Y-95642857D01*
X141261904Y-95595238D01*
X141166666Y-95595238D01*
X141071428Y-95642857D01*
X141023809Y-95690476D01*
X140976190Y-95785714D01*
X140928571Y-95976190D01*
X140880952Y-96071428D01*
X140833333Y-96119047D01*
X140738095Y-96166666D01*
X140642857Y-96166666D01*
X140547619Y-96119047D01*
X140500000Y-96071428D01*
X140452380Y-95976190D01*
X140452380Y-95738095D01*
X140500000Y-95595238D01*
X141452380Y-95166666D02*
X140452380Y-95166666D01*
X140452380Y-94785714D01*
X140500000Y-94690476D01*
X140547619Y-94642857D01*
X140642857Y-94595238D01*
X140785714Y-94595238D01*
X140880952Y-94642857D01*
X140928571Y-94690476D01*
X140976190Y-94785714D01*
X140976190Y-95166666D01*
X140928571Y-94166666D02*
X140928571Y-93833333D01*
X141452380Y-93690476D02*
X141452380Y-94166666D01*
X140452380Y-94166666D01*
X140452380Y-93690476D01*
X141166666Y-93309523D02*
X141166666Y-92833333D01*
X141452380Y-93404761D02*
X140452380Y-93071428D01*
X141452380Y-92738095D01*
X141452380Y-92404761D02*
X140452380Y-92404761D01*
X141452380Y-91833333D02*
X140880952Y-92261904D01*
X140452380Y-91833333D02*
X141023809Y-92404761D01*
X140928571Y-91404761D02*
X140928571Y-91071428D01*
X141452380Y-90928571D02*
X141452380Y-91404761D01*
X140452380Y-91404761D01*
X140452380Y-90928571D01*
X141452380Y-89928571D02*
X140976190Y-90261904D01*
X141452380Y-90500000D02*
X140452380Y-90500000D01*
X140452380Y-90119047D01*
X140500000Y-90023809D01*
X140547619Y-89976190D01*
X140642857Y-89928571D01*
X140785714Y-89928571D01*
X140880952Y-89976190D01*
X140928571Y-90023809D01*
X140976190Y-90119047D01*
X140976190Y-90500000D01*
X141833333Y-89214285D02*
X141785714Y-89261904D01*
X141642857Y-89357142D01*
X141547619Y-89404761D01*
X141404761Y-89452380D01*
X141166666Y-89500000D01*
X140976190Y-89500000D01*
X140738095Y-89452380D01*
X140595238Y-89404761D01*
X140500000Y-89357142D01*
X140357142Y-89261904D01*
X140309523Y-89214285D01*
X140452380Y-88690476D02*
X140690476Y-88690476D01*
X140595238Y-88928571D02*
X140690476Y-88690476D01*
X140595238Y-88452380D01*
X140880952Y-88833333D02*
X140690476Y-88690476D01*
X140880952Y-88547619D01*
X141833333Y-88166666D02*
X141785714Y-88119047D01*
X141642857Y-88023809D01*
X141547619Y-87976190D01*
X141404761Y-87928571D01*
X141166666Y-87880952D01*
X140976190Y-87880952D01*
X140738095Y-87928571D01*
X140595238Y-87976190D01*
X140500000Y-88023809D01*
X140357142Y-88119047D01*
X140309523Y-88166666D01*
G04 #@! TO.C,MCP23017*
X175785714Y-92762380D02*
X175785714Y-91762380D01*
X176119047Y-92476666D01*
X176452380Y-91762380D01*
X176452380Y-92762380D01*
X177500000Y-92667142D02*
X177452380Y-92714761D01*
X177309523Y-92762380D01*
X177214285Y-92762380D01*
X177071428Y-92714761D01*
X176976190Y-92619523D01*
X176928571Y-92524285D01*
X176880952Y-92333809D01*
X176880952Y-92190952D01*
X176928571Y-92000476D01*
X176976190Y-91905238D01*
X177071428Y-91810000D01*
X177214285Y-91762380D01*
X177309523Y-91762380D01*
X177452380Y-91810000D01*
X177500000Y-91857619D01*
X177928571Y-92762380D02*
X177928571Y-91762380D01*
X178309523Y-91762380D01*
X178404761Y-91810000D01*
X178452380Y-91857619D01*
X178500000Y-91952857D01*
X178500000Y-92095714D01*
X178452380Y-92190952D01*
X178404761Y-92238571D01*
X178309523Y-92286190D01*
X177928571Y-92286190D01*
X178880952Y-91857619D02*
X178928571Y-91810000D01*
X179023809Y-91762380D01*
X179261904Y-91762380D01*
X179357142Y-91810000D01*
X179404761Y-91857619D01*
X179452380Y-91952857D01*
X179452380Y-92048095D01*
X179404761Y-92190952D01*
X178833333Y-92762380D01*
X179452380Y-92762380D01*
X179785714Y-91762380D02*
X180404761Y-91762380D01*
X180071428Y-92143333D01*
X180214285Y-92143333D01*
X180309523Y-92190952D01*
X180357142Y-92238571D01*
X180404761Y-92333809D01*
X180404761Y-92571904D01*
X180357142Y-92667142D01*
X180309523Y-92714761D01*
X180214285Y-92762380D01*
X179928571Y-92762380D01*
X179833333Y-92714761D01*
X179785714Y-92667142D01*
X181023809Y-91762380D02*
X181119047Y-91762380D01*
X181214285Y-91810000D01*
X181261904Y-91857619D01*
X181309523Y-91952857D01*
X181357142Y-92143333D01*
X181357142Y-92381428D01*
X181309523Y-92571904D01*
X181261904Y-92667142D01*
X181214285Y-92714761D01*
X181119047Y-92762380D01*
X181023809Y-92762380D01*
X180928571Y-92714761D01*
X180880952Y-92667142D01*
X180833333Y-92571904D01*
X180785714Y-92381428D01*
X180785714Y-92143333D01*
X180833333Y-91952857D01*
X180880952Y-91857619D01*
X180928571Y-91810000D01*
X181023809Y-91762380D01*
X182309523Y-92762380D02*
X181738095Y-92762380D01*
X182023809Y-92762380D02*
X182023809Y-91762380D01*
X181928571Y-91905238D01*
X181833333Y-92000476D01*
X181738095Y-92048095D01*
X182642857Y-91762380D02*
X183309523Y-91762380D01*
X182880952Y-92762380D01*
G04 #@! TO.C,KeyEb*
X184023809Y-119452380D02*
X184023809Y-118452380D01*
X184595238Y-119452380D02*
X184166666Y-118880952D01*
X184595238Y-118452380D02*
X184023809Y-119023809D01*
X185404761Y-119404761D02*
X185309523Y-119452380D01*
X185119047Y-119452380D01*
X185023809Y-119404761D01*
X184976190Y-119309523D01*
X184976190Y-118928571D01*
X185023809Y-118833333D01*
X185119047Y-118785714D01*
X185309523Y-118785714D01*
X185404761Y-118833333D01*
X185452380Y-118928571D01*
X185452380Y-119023809D01*
X184976190Y-119119047D01*
X185785714Y-118785714D02*
X186023809Y-119452380D01*
X186261904Y-118785714D02*
X186023809Y-119452380D01*
X185928571Y-119690476D01*
X185880952Y-119738095D01*
X185785714Y-119785714D01*
X186642857Y-118928571D02*
X186976190Y-118928571D01*
X187119047Y-119452380D02*
X186642857Y-119452380D01*
X186642857Y-118452380D01*
X187119047Y-118452380D01*
X187547619Y-119452380D02*
X187547619Y-118452380D01*
X187547619Y-118833333D02*
X187642857Y-118785714D01*
X187833333Y-118785714D01*
X187928571Y-118833333D01*
X187976190Y-118880952D01*
X188023809Y-118976190D01*
X188023809Y-119261904D01*
X187976190Y-119357142D01*
X187928571Y-119404761D01*
X187833333Y-119452380D01*
X187642857Y-119452380D01*
X187547619Y-119404761D01*
G04 #@! TO.C,KeyGs*
X179023809Y-68952380D02*
X179023809Y-67952380D01*
X179595238Y-68952380D02*
X179166666Y-68380952D01*
X179595238Y-67952380D02*
X179023809Y-68523809D01*
X180404761Y-68904761D02*
X180309523Y-68952380D01*
X180119047Y-68952380D01*
X180023809Y-68904761D01*
X179976190Y-68809523D01*
X179976190Y-68428571D01*
X180023809Y-68333333D01*
X180119047Y-68285714D01*
X180309523Y-68285714D01*
X180404761Y-68333333D01*
X180452380Y-68428571D01*
X180452380Y-68523809D01*
X179976190Y-68619047D01*
X180785714Y-68285714D02*
X181023809Y-68952380D01*
X181261904Y-68285714D02*
X181023809Y-68952380D01*
X180928571Y-69190476D01*
X180880952Y-69238095D01*
X180785714Y-69285714D01*
X182166666Y-68000000D02*
X182071428Y-67952380D01*
X181928571Y-67952380D01*
X181785714Y-68000000D01*
X181690476Y-68095238D01*
X181642857Y-68190476D01*
X181595238Y-68380952D01*
X181595238Y-68523809D01*
X181642857Y-68714285D01*
X181690476Y-68809523D01*
X181785714Y-68904761D01*
X181928571Y-68952380D01*
X182023809Y-68952380D01*
X182166666Y-68904761D01*
X182214285Y-68857142D01*
X182214285Y-68523809D01*
X182023809Y-68523809D01*
X182595238Y-68904761D02*
X182690476Y-68952380D01*
X182880952Y-68952380D01*
X182976190Y-68904761D01*
X183023809Y-68809523D01*
X183023809Y-68761904D01*
X182976190Y-68666666D01*
X182880952Y-68619047D01*
X182738095Y-68619047D01*
X182642857Y-68571428D01*
X182595238Y-68476190D01*
X182595238Y-68428571D01*
X182642857Y-68333333D01*
X182738095Y-68285714D01*
X182880952Y-68285714D01*
X182976190Y-68333333D01*
G04 #@! TD*
M02*
