M48
; DRILL file {KiCad (5.1.8)-1} date 03/17/22 23:11:18
; FORMAT={-:-/ absolute / metric / decimal}
; #@! TF.CreationDate,2022-03-17T23:11:18+09:00
; #@! TF.GenerationSoftware,Kicad,Pcbnew,(5.1.8)-1
FMAT,2
METRIC
T1C0.400
T2C0.800
T3C0.900
T4C1.000
T5C1.200
T6C2.200
T7C4.000
%
G90
G05
T1
X174.0Y-93.0
X192.0Y-119.0
X192.0Y-122.0
T2
X123.5Y-110.5
X123.5Y-121.5
X128.0Y-65.0
X130.0Y-110.3
X136.2Y-108.8
X136.5Y-121.5
X138.0Y-65.0
X141.5Y-121.5
X148.0Y-65.0
X158.0Y-65.0
X168.0Y-65.0
X178.0Y-65.0
X188.0Y-65.0
X198.0Y-65.0
X198.0Y-75.0
X208.0Y-65.0
X208.0Y-75.0
X208.0Y-85.0
X208.0Y-95.0
X208.0Y-105.0
X208.0Y-115.0
X200.0Y-89.0
X200.0Y-91.0
X200.0Y-93.0
X200.0Y-95.0
X147.5Y-100.5
X150.04Y-97.96
X152.58Y-100.5
X162.98Y-88.5
X162.98Y-96.12
X165.52Y-88.5
X165.52Y-96.12
X168.06Y-88.5
X168.06Y-96.12
X170.6Y-88.5
X170.6Y-96.12
X173.14Y-88.5
X173.14Y-96.12
X175.68Y-88.5
X175.68Y-96.12
X178.22Y-88.5
X178.22Y-96.12
X180.76Y-88.5
X180.76Y-96.12
X183.3Y-88.5
X183.3Y-96.12
X185.84Y-88.5
X185.84Y-96.12
X188.38Y-88.5
X188.38Y-96.12
X190.92Y-88.5
X190.92Y-96.12
X193.46Y-88.5
X193.46Y-96.12
X196.0Y-88.5
X196.0Y-96.12
T3
X145.19Y-86.69
X145.19Y-89.23
X145.19Y-91.77
X145.19Y-94.31
X152.81Y-86.69
X152.81Y-89.23
X152.81Y-91.77
X152.81Y-94.31
T4
X132.0Y-98.0
X132.0Y-100.54
X132.0Y-103.08
X132.0Y-105.62
X140.5Y-80.0
X143.04Y-80.0
X152.0Y-79.0
X152.0Y-81.54
X157.75Y-83.106
X157.75Y-85.646
X157.75Y-88.186
X157.75Y-90.726
X157.75Y-93.266
X157.75Y-95.806
X157.75Y-98.346
X157.75Y-100.886
X147.5Y-79.0
X147.5Y-81.54
T5
X127.96Y-73.58
X134.31Y-71.04
X146.46Y-73.533
X152.81Y-70.993
X183.46Y-73.58
X189.81Y-71.04
X126.69Y-112.96
X133.04Y-110.42
X182.19Y-112.96
X188.54Y-110.42
X200.69Y-112.96
X207.04Y-110.42
X163.69Y-112.96
X170.04Y-110.42
X141.5Y-84.5
X141.5Y-99.5
X164.96Y-73.533
X171.31Y-70.993
X133.04Y-91.31
X135.58Y-84.96
X145.19Y-112.96
X151.54Y-110.42
X201.96Y-73.58
X208.31Y-71.04
T6
X139.5Y-73.0
X139.5Y-111.0
X200.295Y-83.995
X200.295Y-100.06
T7
X149.0Y-68.453
X186.0Y-68.5
X167.5Y-68.453
X130.5Y-87.5
X204.5Y-68.5
X130.5Y-68.5
X130.5Y-115.5
X186.0Y-115.5
X204.5Y-115.5
X167.5Y-115.5
X149.0Y-115.5
T0
M30
