M48
; DRILL file {KiCad (5.1.8)-1} date 10/14/21 01:25:21
; FORMAT={-:-/ absolute / metric / decimal}
; #@! TF.CreationDate,2021-10-14T01:25:21+09:00
; #@! TF.GenerationSoftware,Kicad,Pcbnew,(5.1.8)-1
FMAT,2
METRIC
T1C0.400
T2C1.000
T3C1.200
T4C2.200
T5C4.000
%
G90
G05
T1
X130.175Y-113.03
X142.24Y-111.125
X148.59Y-108.585
T2
X125.095Y-105.41
X125.095Y-107.95
X140.97Y-114.3
X143.51Y-114.3
X146.05Y-114.3
X148.59Y-114.3
X151.13Y-114.3
X153.67Y-114.3
X156.21Y-114.3
X158.75Y-114.3
X194.945Y-102.87
X194.945Y-105.41
X194.945Y-107.95
X194.945Y-110.49
X142.875Y-105.41
X142.875Y-107.95
X108.585Y-102.87
X108.585Y-105.41
X108.585Y-107.95
X108.585Y-110.49
T3
X182.245Y-104.14
X184.785Y-110.49
X118.745Y-102.87
X121.285Y-109.22
X136.525Y-102.87
X139.065Y-109.22
X164.465Y-104.14
X167.005Y-110.49
X147.955Y-104.14
X154.305Y-101.6
T4
X107.315Y-99.695
X196.215Y-113.665
T5
X169.545Y-106.68
X151.765Y-106.68
X187.325Y-106.68
X116.205Y-106.68
X133.985Y-106.68
T0
M30
