G04 #@! TF.GenerationSoftware,KiCad,Pcbnew,(5.1.8)-1*
G04 #@! TF.CreationDate,2021-10-14T01:25:15+09:00*
G04 #@! TF.ProjectId,windsynth,77696e64-7379-46e7-9468-2e6b69636164,rev?*
G04 #@! TF.SameCoordinates,Original*
G04 #@! TF.FileFunction,Legend,Bot*
G04 #@! TF.FilePolarity,Positive*
%FSLAX46Y46*%
G04 Gerber Fmt 4.6, Leading zero omitted, Abs format (unit mm)*
G04 Created by KiCad (PCBNEW (5.1.8)-1) date 2021-10-14 01:25:15*
%MOMM*%
%LPD*%
G01*
G04 APERTURE LIST*
%ADD10C,0.150000*%
%ADD11C,0.120000*%
G04 APERTURE END LIST*
D10*
X175046666Y-100156190D02*
X175046666Y-100632380D01*
X175332380Y-100060952D02*
X174332380Y-100394285D01*
X175332380Y-100727619D01*
X174808571Y-101394285D02*
X174808571Y-101060952D01*
X175332380Y-101060952D02*
X174332380Y-101060952D01*
X174332380Y-101537142D01*
X174332380Y-101918095D02*
X175141904Y-101918095D01*
X175237142Y-101965714D01*
X175284761Y-102013333D01*
X175332380Y-102108571D01*
X175332380Y-102299047D01*
X175284761Y-102394285D01*
X175237142Y-102441904D01*
X175141904Y-102489523D01*
X174332380Y-102489523D01*
X174332380Y-102965714D02*
X175141904Y-102965714D01*
X175237142Y-103013333D01*
X175284761Y-103060952D01*
X175332380Y-103156190D01*
X175332380Y-103346666D01*
X175284761Y-103441904D01*
X175237142Y-103489523D01*
X175141904Y-103537142D01*
X174332380Y-103537142D01*
X174808571Y-104013333D02*
X174808571Y-104346666D01*
X175332380Y-104489523D02*
X175332380Y-104013333D01*
X174332380Y-104013333D01*
X174332380Y-104489523D01*
X174808571Y-106013333D02*
X174856190Y-106156190D01*
X174903809Y-106203809D01*
X174999047Y-106251428D01*
X175141904Y-106251428D01*
X175237142Y-106203809D01*
X175284761Y-106156190D01*
X175332380Y-106060952D01*
X175332380Y-105680000D01*
X174332380Y-105680000D01*
X174332380Y-106013333D01*
X174380000Y-106108571D01*
X174427619Y-106156190D01*
X174522857Y-106203809D01*
X174618095Y-106203809D01*
X174713333Y-106156190D01*
X174760952Y-106108571D01*
X174808571Y-106013333D01*
X174808571Y-105680000D01*
X174332380Y-106870476D02*
X174332380Y-107060952D01*
X174380000Y-107156190D01*
X174475238Y-107251428D01*
X174665714Y-107299047D01*
X174999047Y-107299047D01*
X175189523Y-107251428D01*
X175284761Y-107156190D01*
X175332380Y-107060952D01*
X175332380Y-106870476D01*
X175284761Y-106775238D01*
X175189523Y-106680000D01*
X174999047Y-106632380D01*
X174665714Y-106632380D01*
X174475238Y-106680000D01*
X174380000Y-106775238D01*
X174332380Y-106870476D01*
X175046666Y-107680000D02*
X175046666Y-108156190D01*
X175332380Y-107584761D02*
X174332380Y-107918095D01*
X175332380Y-108251428D01*
X175332380Y-109156190D02*
X174856190Y-108822857D01*
X175332380Y-108584761D02*
X174332380Y-108584761D01*
X174332380Y-108965714D01*
X174380000Y-109060952D01*
X174427619Y-109108571D01*
X174522857Y-109156190D01*
X174665714Y-109156190D01*
X174760952Y-109108571D01*
X174808571Y-109060952D01*
X174856190Y-108965714D01*
X174856190Y-108584761D01*
X175332380Y-109584761D02*
X174332380Y-109584761D01*
X174332380Y-109822857D01*
X174380000Y-109965714D01*
X174475238Y-110060952D01*
X174570476Y-110108571D01*
X174760952Y-110156190D01*
X174903809Y-110156190D01*
X175094285Y-110108571D01*
X175189523Y-110060952D01*
X175284761Y-109965714D01*
X175332380Y-109822857D01*
X175332380Y-109584761D01*
X175713333Y-111632380D02*
X175665714Y-111584761D01*
X175522857Y-111489523D01*
X175427619Y-111441904D01*
X175284761Y-111394285D01*
X175046666Y-111346666D01*
X174856190Y-111346666D01*
X174618095Y-111394285D01*
X174475238Y-111441904D01*
X174380000Y-111489523D01*
X174237142Y-111584761D01*
X174189523Y-111632380D01*
X174427619Y-111965714D02*
X174380000Y-112013333D01*
X174332380Y-112108571D01*
X174332380Y-112346666D01*
X174380000Y-112441904D01*
X174427619Y-112489523D01*
X174522857Y-112537142D01*
X174618095Y-112537142D01*
X174760952Y-112489523D01*
X175332380Y-111918095D01*
X175332380Y-112537142D01*
X175713333Y-112870476D02*
X175665714Y-112918095D01*
X175522857Y-113013333D01*
X175427619Y-113060952D01*
X175284761Y-113108571D01*
X175046666Y-113156190D01*
X174856190Y-113156190D01*
X174618095Y-113108571D01*
X174475238Y-113060952D01*
X174380000Y-113013333D01*
X174237142Y-112918095D01*
X174189523Y-112870476D01*
X175982380Y-99132380D02*
X176982380Y-99465714D01*
X175982380Y-99799047D01*
X176934761Y-100513333D02*
X176982380Y-100418095D01*
X176982380Y-100227619D01*
X176934761Y-100132380D01*
X176839523Y-100084761D01*
X176458571Y-100084761D01*
X176363333Y-100132380D01*
X176315714Y-100227619D01*
X176315714Y-100418095D01*
X176363333Y-100513333D01*
X176458571Y-100560952D01*
X176553809Y-100560952D01*
X176649047Y-100084761D01*
X176982380Y-100989523D02*
X176315714Y-100989523D01*
X176506190Y-100989523D02*
X176410952Y-101037142D01*
X176363333Y-101084761D01*
X176315714Y-101180000D01*
X176315714Y-101275238D01*
X176982380Y-102132380D02*
X176982380Y-101560952D01*
X176982380Y-101846666D02*
X175982380Y-101846666D01*
X176125238Y-101751428D01*
X176220476Y-101656190D01*
X176268095Y-101560952D01*
X176887142Y-102560952D02*
X176934761Y-102608571D01*
X176982380Y-102560952D01*
X176934761Y-102513333D01*
X176887142Y-102560952D01*
X176982380Y-102560952D01*
X175982380Y-102941904D02*
X175982380Y-103608571D01*
X176982380Y-103180000D01*
X176601428Y-104751428D02*
X176601428Y-105513333D01*
X176077619Y-106703809D02*
X176030000Y-106751428D01*
X175982380Y-106846666D01*
X175982380Y-107084761D01*
X176030000Y-107180000D01*
X176077619Y-107227619D01*
X176172857Y-107275238D01*
X176268095Y-107275238D01*
X176410952Y-107227619D01*
X176982380Y-106656190D01*
X176982380Y-107275238D01*
X176982380Y-108227619D02*
X176982380Y-107656190D01*
X176982380Y-107941904D02*
X175982380Y-107941904D01*
X176125238Y-107846666D01*
X176220476Y-107751428D01*
X176268095Y-107656190D01*
X175934761Y-109370476D02*
X177220476Y-108513333D01*
X176982380Y-110227619D02*
X176982380Y-109656190D01*
X176982380Y-109941904D02*
X175982380Y-109941904D01*
X176125238Y-109846666D01*
X176220476Y-109751428D01*
X176268095Y-109656190D01*
X175982380Y-110846666D02*
X175982380Y-110941904D01*
X176030000Y-111037142D01*
X176077619Y-111084761D01*
X176172857Y-111132380D01*
X176363333Y-111180000D01*
X176601428Y-111180000D01*
X176791904Y-111132380D01*
X176887142Y-111084761D01*
X176934761Y-111037142D01*
X176982380Y-110941904D01*
X176982380Y-110846666D01*
X176934761Y-110751428D01*
X176887142Y-110703809D01*
X176791904Y-110656190D01*
X176601428Y-110608571D01*
X176363333Y-110608571D01*
X176172857Y-110656190D01*
X176077619Y-110703809D01*
X176030000Y-110751428D01*
X175982380Y-110846666D01*
X175934761Y-112322857D02*
X177220476Y-111465714D01*
X176982380Y-113180000D02*
X176982380Y-112608571D01*
X176982380Y-112894285D02*
X175982380Y-112894285D01*
X176125238Y-112799047D01*
X176220476Y-112703809D01*
X176268095Y-112608571D01*
X175982380Y-113799047D02*
X175982380Y-113894285D01*
X176030000Y-113989523D01*
X176077619Y-114037142D01*
X176172857Y-114084761D01*
X176363333Y-114132380D01*
X176601428Y-114132380D01*
X176791904Y-114084761D01*
X176887142Y-114037142D01*
X176934761Y-113989523D01*
X176982380Y-113894285D01*
X176982380Y-113799047D01*
X176934761Y-113703809D01*
X176887142Y-113656190D01*
X176791904Y-113608571D01*
X176601428Y-113560952D01*
X176363333Y-113560952D01*
X176172857Y-113608571D01*
X176077619Y-113656190D01*
X176030000Y-113703809D01*
X175982380Y-113799047D01*
X178156190Y-102989523D02*
X178108571Y-102941904D01*
X178060952Y-102846666D01*
X178060952Y-102751428D01*
X178108571Y-102656190D01*
X178156190Y-102608571D01*
X178251428Y-102560952D01*
X178346666Y-102560952D01*
X178441904Y-102608571D01*
X178489523Y-102656190D01*
X178537142Y-102751428D01*
X178537142Y-102846666D01*
X178489523Y-102941904D01*
X178441904Y-102989523D01*
X178060952Y-102989523D02*
X178441904Y-102989523D01*
X178489523Y-103037142D01*
X178489523Y-103084761D01*
X178441904Y-103180000D01*
X178346666Y-103227619D01*
X178108571Y-103227619D01*
X177965714Y-103132380D01*
X177870476Y-102989523D01*
X177822857Y-102799047D01*
X177870476Y-102608571D01*
X177965714Y-102465714D01*
X178108571Y-102370476D01*
X178299047Y-102322857D01*
X178489523Y-102370476D01*
X178632380Y-102465714D01*
X178727619Y-102608571D01*
X178775238Y-102799047D01*
X178727619Y-102989523D01*
X178632380Y-103132380D01*
X177632380Y-103846666D02*
X177632380Y-104037142D01*
X177680000Y-104132380D01*
X177775238Y-104227619D01*
X177965714Y-104275238D01*
X178299047Y-104275238D01*
X178489523Y-104227619D01*
X178584761Y-104132380D01*
X178632380Y-104037142D01*
X178632380Y-103846666D01*
X178584761Y-103751428D01*
X178489523Y-103656190D01*
X178299047Y-103608571D01*
X177965714Y-103608571D01*
X177775238Y-103656190D01*
X177680000Y-103751428D01*
X177632380Y-103846666D01*
X177965714Y-104560952D02*
X177965714Y-104941904D01*
X177632380Y-104703809D02*
X178489523Y-104703809D01*
X178584761Y-104751428D01*
X178632380Y-104846666D01*
X178632380Y-104941904D01*
X178632380Y-105418095D02*
X178584761Y-105322857D01*
X178537142Y-105275238D01*
X178441904Y-105227619D01*
X178156190Y-105227619D01*
X178060952Y-105275238D01*
X178013333Y-105322857D01*
X177965714Y-105418095D01*
X177965714Y-105560952D01*
X178013333Y-105656190D01*
X178060952Y-105703809D01*
X178156190Y-105751428D01*
X178441904Y-105751428D01*
X178537142Y-105703809D01*
X178584761Y-105656190D01*
X178632380Y-105560952D01*
X178632380Y-105418095D01*
X178632380Y-106322857D02*
X178584761Y-106227619D01*
X178537142Y-106180000D01*
X178441904Y-106132380D01*
X178156190Y-106132380D01*
X178060952Y-106180000D01*
X178013333Y-106227619D01*
X177965714Y-106322857D01*
X177965714Y-106465714D01*
X178013333Y-106560952D01*
X178060952Y-106608571D01*
X178156190Y-106656190D01*
X178441904Y-106656190D01*
X178537142Y-106608571D01*
X178584761Y-106560952D01*
X178632380Y-106465714D01*
X178632380Y-106322857D01*
X177965714Y-107084761D02*
X178632380Y-107084761D01*
X178060952Y-107084761D02*
X178013333Y-107132380D01*
X177965714Y-107227619D01*
X177965714Y-107370476D01*
X178013333Y-107465714D01*
X178108571Y-107513333D01*
X178632380Y-107513333D01*
X178584761Y-108370476D02*
X178632380Y-108275238D01*
X178632380Y-108084761D01*
X178584761Y-107989523D01*
X178489523Y-107941904D01*
X178108571Y-107941904D01*
X178013333Y-107989523D01*
X177965714Y-108084761D01*
X177965714Y-108275238D01*
X178013333Y-108370476D01*
X178108571Y-108418095D01*
X178203809Y-108418095D01*
X178299047Y-107941904D01*
X178632380Y-108846666D02*
X177632380Y-108846666D01*
X177632380Y-109084761D01*
X177680000Y-109227619D01*
X177775238Y-109322857D01*
X177870476Y-109370476D01*
X178060952Y-109418095D01*
X178203809Y-109418095D01*
X178394285Y-109370476D01*
X178489523Y-109322857D01*
X178584761Y-109227619D01*
X178632380Y-109084761D01*
X178632380Y-108846666D01*
X178584761Y-110227619D02*
X178632380Y-110132380D01*
X178632380Y-109941904D01*
X178584761Y-109846666D01*
X178489523Y-109799047D01*
X178108571Y-109799047D01*
X178013333Y-109846666D01*
X177965714Y-109941904D01*
X177965714Y-110132380D01*
X178013333Y-110227619D01*
X178108571Y-110275238D01*
X178203809Y-110275238D01*
X178299047Y-109799047D01*
X177965714Y-110608571D02*
X178632380Y-110846666D01*
X177965714Y-111084761D01*
D11*
G04 #@! TO.C,SW11*
X144205000Y-104080000D02*
X142875000Y-104080000D01*
X144205000Y-105410000D02*
X144205000Y-104080000D01*
X144205000Y-106680000D02*
X141545000Y-106680000D01*
X141545000Y-106680000D02*
X141545000Y-109280000D01*
X144205000Y-106680000D02*
X144205000Y-109280000D01*
X144205000Y-109280000D02*
X141545000Y-109280000D01*
G04 #@! TO.C,SW12*
X126425000Y-109280000D02*
X123765000Y-109280000D01*
X126425000Y-106680000D02*
X126425000Y-109280000D01*
X123765000Y-106680000D02*
X123765000Y-109280000D01*
X126425000Y-106680000D02*
X123765000Y-106680000D01*
X126425000Y-105410000D02*
X126425000Y-104080000D01*
X126425000Y-104080000D02*
X125095000Y-104080000D01*
G04 #@! TO.C,J6*
X139640000Y-115630000D02*
X139640000Y-112970000D01*
X157480000Y-115630000D02*
X139640000Y-115630000D01*
X157480000Y-112970000D02*
X139640000Y-112970000D01*
X157480000Y-115630000D02*
X157480000Y-112970000D01*
X158750000Y-115630000D02*
X160080000Y-115630000D01*
X160080000Y-115630000D02*
X160080000Y-114300000D01*
G04 #@! TO.C,SW11*
D10*
X144684523Y-103484761D02*
X144541666Y-103532380D01*
X144303571Y-103532380D01*
X144208333Y-103484761D01*
X144160714Y-103437142D01*
X144113095Y-103341904D01*
X144113095Y-103246666D01*
X144160714Y-103151428D01*
X144208333Y-103103809D01*
X144303571Y-103056190D01*
X144494047Y-103008571D01*
X144589285Y-102960952D01*
X144636904Y-102913333D01*
X144684523Y-102818095D01*
X144684523Y-102722857D01*
X144636904Y-102627619D01*
X144589285Y-102580000D01*
X144494047Y-102532380D01*
X144255952Y-102532380D01*
X144113095Y-102580000D01*
X143779761Y-102532380D02*
X143541666Y-103532380D01*
X143351190Y-102818095D01*
X143160714Y-103532380D01*
X142922619Y-102532380D01*
X142017857Y-103532380D02*
X142589285Y-103532380D01*
X142303571Y-103532380D02*
X142303571Y-102532380D01*
X142398809Y-102675238D01*
X142494047Y-102770476D01*
X142589285Y-102818095D01*
X141065476Y-103532380D02*
X141636904Y-103532380D01*
X141351190Y-103532380D02*
X141351190Y-102532380D01*
X141446428Y-102675238D01*
X141541666Y-102770476D01*
X141636904Y-102818095D01*
G04 #@! TO.C,SW12*
X126904523Y-103484761D02*
X126761666Y-103532380D01*
X126523571Y-103532380D01*
X126428333Y-103484761D01*
X126380714Y-103437142D01*
X126333095Y-103341904D01*
X126333095Y-103246666D01*
X126380714Y-103151428D01*
X126428333Y-103103809D01*
X126523571Y-103056190D01*
X126714047Y-103008571D01*
X126809285Y-102960952D01*
X126856904Y-102913333D01*
X126904523Y-102818095D01*
X126904523Y-102722857D01*
X126856904Y-102627619D01*
X126809285Y-102580000D01*
X126714047Y-102532380D01*
X126475952Y-102532380D01*
X126333095Y-102580000D01*
X125999761Y-102532380D02*
X125761666Y-103532380D01*
X125571190Y-102818095D01*
X125380714Y-103532380D01*
X125142619Y-102532380D01*
X124237857Y-103532380D02*
X124809285Y-103532380D01*
X124523571Y-103532380D02*
X124523571Y-102532380D01*
X124618809Y-102675238D01*
X124714047Y-102770476D01*
X124809285Y-102818095D01*
X123856904Y-102627619D02*
X123809285Y-102580000D01*
X123714047Y-102532380D01*
X123475952Y-102532380D01*
X123380714Y-102580000D01*
X123333095Y-102627619D01*
X123285476Y-102722857D01*
X123285476Y-102818095D01*
X123333095Y-102960952D01*
X123904523Y-103532380D01*
X123285476Y-103532380D01*
G04 #@! TO.C,J6*
X160532380Y-113966666D02*
X161246666Y-113966666D01*
X161389523Y-113919047D01*
X161484761Y-113823809D01*
X161532380Y-113680952D01*
X161532380Y-113585714D01*
X160532380Y-114871428D02*
X160532380Y-114680952D01*
X160580000Y-114585714D01*
X160627619Y-114538095D01*
X160770476Y-114442857D01*
X160960952Y-114395238D01*
X161341904Y-114395238D01*
X161437142Y-114442857D01*
X161484761Y-114490476D01*
X161532380Y-114585714D01*
X161532380Y-114776190D01*
X161484761Y-114871428D01*
X161437142Y-114919047D01*
X161341904Y-114966666D01*
X161103809Y-114966666D01*
X161008571Y-114919047D01*
X160960952Y-114871428D01*
X160913333Y-114776190D01*
X160913333Y-114585714D01*
X160960952Y-114490476D01*
X161008571Y-114442857D01*
X161103809Y-114395238D01*
G04 #@! TD*
M02*
