G04 #@! TF.GenerationSoftware,KiCad,Pcbnew,(5.1.8)-1*
G04 #@! TF.CreationDate,2021-10-14T01:25:15+09:00*
G04 #@! TF.ProjectId,windsynth,77696e64-7379-46e7-9468-2e6b69636164,rev?*
G04 #@! TF.SameCoordinates,Original*
G04 #@! TF.FileFunction,Copper,L2,Bot*
G04 #@! TF.FilePolarity,Positive*
%FSLAX46Y46*%
G04 Gerber Fmt 4.6, Leading zero omitted, Abs format (unit mm)*
G04 Created by KiCad (PCBNEW (5.1.8)-1) date 2021-10-14 01:25:15*
%MOMM*%
%LPD*%
G01*
G04 APERTURE LIST*
G04 #@! TA.AperFunction,ComponentPad*
%ADD10C,2.000000*%
G04 #@! TD*
G04 #@! TA.AperFunction,ComponentPad*
%ADD11C,4.200000*%
G04 #@! TD*
G04 #@! TA.AperFunction,ComponentPad*
%ADD12O,1.700000X1.700000*%
G04 #@! TD*
G04 #@! TA.AperFunction,ComponentPad*
%ADD13R,1.700000X1.700000*%
G04 #@! TD*
G04 #@! TA.AperFunction,ViaPad*
%ADD14C,2.400000*%
G04 #@! TD*
G04 #@! TA.AperFunction,ViaPad*
%ADD15C,0.800000*%
G04 #@! TD*
G04 #@! TA.AperFunction,Conductor*
%ADD16C,0.250000*%
G04 #@! TD*
G04 #@! TA.AperFunction,Conductor*
%ADD17C,0.254000*%
G04 #@! TD*
G04 #@! TA.AperFunction,Conductor*
%ADD18C,0.100000*%
G04 #@! TD*
G04 APERTURE END LIST*
D10*
G04 #@! TO.P,SW6,1*
G04 #@! TO.N,GND1*
X184785000Y-110490000D03*
G04 #@! TO.P,SW6,2*
G04 #@! TO.N,Net-(J6-Pad1)*
X182245000Y-104140000D03*
D11*
G04 #@! TO.P,SW6,3*
G04 #@! TO.N,N/C*
X187325000Y-106680000D03*
G04 #@! TD*
G04 #@! TO.P,SW7,3*
G04 #@! TO.N,N/C*
X169545000Y-106680000D03*
D10*
G04 #@! TO.P,SW7,2*
G04 #@! TO.N,Net-(J6-Pad2)*
X164465000Y-104140000D03*
G04 #@! TO.P,SW7,1*
G04 #@! TO.N,GND1*
X167005000Y-110490000D03*
G04 #@! TD*
G04 #@! TO.P,SW8,1*
G04 #@! TO.N,GND1*
X147955000Y-104140000D03*
G04 #@! TO.P,SW8,2*
G04 #@! TO.N,Net-(J6-Pad3)*
X154305000Y-101600000D03*
D11*
G04 #@! TO.P,SW8,3*
G04 #@! TO.N,N/C*
X151765000Y-106680000D03*
G04 #@! TD*
G04 #@! TO.P,SW9,3*
G04 #@! TO.N,N/C*
X133985000Y-106680000D03*
D10*
G04 #@! TO.P,SW9,2*
G04 #@! TO.N,Net-(J6-Pad4)*
X139065000Y-109220000D03*
G04 #@! TO.P,SW9,1*
G04 #@! TO.N,GND1*
X136525000Y-102870000D03*
G04 #@! TD*
G04 #@! TO.P,SW10,1*
G04 #@! TO.N,GND1*
X118745000Y-102870000D03*
G04 #@! TO.P,SW10,2*
G04 #@! TO.N,Net-(J6-Pad5)*
X121285000Y-109220000D03*
D11*
G04 #@! TO.P,SW10,3*
G04 #@! TO.N,N/C*
X116205000Y-106680000D03*
G04 #@! TD*
D12*
G04 #@! TO.P,SW11,2*
G04 #@! TO.N,Net-(J6-Pad6)*
X142875000Y-107950000D03*
D13*
G04 #@! TO.P,SW11,1*
G04 #@! TO.N,GND1*
X142875000Y-105410000D03*
G04 #@! TD*
G04 #@! TO.P,SW12,1*
G04 #@! TO.N,GND1*
X125095000Y-105410000D03*
D12*
G04 #@! TO.P,SW12,2*
G04 #@! TO.N,Net-(J6-Pad7)*
X125095000Y-107950000D03*
G04 #@! TD*
G04 #@! TO.P,J4,4*
G04 #@! TO.N,Net-(J4-Pad4)*
X194945000Y-110490000D03*
G04 #@! TO.P,J4,3*
G04 #@! TO.N,Net-(J4-Pad3)*
X194945000Y-107950000D03*
G04 #@! TO.P,J4,2*
G04 #@! TO.N,Net-(J4-Pad2)*
X194945000Y-105410000D03*
D13*
G04 #@! TO.P,J4,1*
G04 #@! TO.N,GND1*
X194945000Y-102870000D03*
G04 #@! TD*
G04 #@! TO.P,J5,1*
G04 #@! TO.N,GND1*
X108585000Y-102870000D03*
D12*
G04 #@! TO.P,J5,2*
G04 #@! TO.N,Net-(J4-Pad2)*
X108585000Y-105410000D03*
G04 #@! TO.P,J5,3*
G04 #@! TO.N,Net-(J4-Pad3)*
X108585000Y-107950000D03*
G04 #@! TO.P,J5,4*
G04 #@! TO.N,Net-(J4-Pad4)*
X108585000Y-110490000D03*
G04 #@! TD*
D13*
G04 #@! TO.P,J6,1*
G04 #@! TO.N,Net-(J6-Pad1)*
X158750000Y-114300000D03*
D12*
G04 #@! TO.P,J6,2*
G04 #@! TO.N,Net-(J6-Pad2)*
X156210000Y-114300000D03*
G04 #@! TO.P,J6,3*
G04 #@! TO.N,Net-(J6-Pad3)*
X153670000Y-114300000D03*
G04 #@! TO.P,J6,4*
G04 #@! TO.N,Net-(J6-Pad4)*
X151130000Y-114300000D03*
G04 #@! TO.P,J6,5*
G04 #@! TO.N,Net-(J6-Pad5)*
X148590000Y-114300000D03*
G04 #@! TO.P,J6,6*
G04 #@! TO.N,Net-(J6-Pad6)*
X146050000Y-114300000D03*
G04 #@! TO.P,J6,7*
G04 #@! TO.N,Net-(J6-Pad7)*
X143510000Y-114300000D03*
G04 #@! TO.P,J6,8*
G04 #@! TO.N,GND1*
X140970000Y-114300000D03*
G04 #@! TD*
D14*
G04 #@! TO.N,*
X107315000Y-99695000D03*
X196215000Y-113665000D03*
D15*
G04 #@! TO.N,Net-(J6-Pad4)*
X142240000Y-111125000D03*
G04 #@! TO.N,Net-(J6-Pad5)*
X148590000Y-108585000D03*
G04 #@! TO.N,Net-(J6-Pad7)*
X130175000Y-113030000D03*
G04 #@! TD*
D16*
G04 #@! TO.N,GND1*
X108585000Y-102870000D02*
X118745000Y-102870000D01*
X146685000Y-102870000D02*
X147955000Y-104140000D01*
X118745000Y-102870000D02*
X146685000Y-102870000D01*
X160655000Y-104140000D02*
X167005000Y-110490000D01*
X167005000Y-110490000D02*
X184785000Y-110490000D01*
X136525000Y-109855000D02*
X140970000Y-114300000D01*
X136525000Y-102870000D02*
X136525000Y-109855000D01*
X147955000Y-104140000D02*
X152400000Y-99695000D01*
X152400000Y-99695000D02*
X156210000Y-99695000D01*
X156210000Y-99695000D02*
X160655000Y-104140000D01*
X122555000Y-102870000D02*
X125095000Y-105410000D01*
X118745000Y-102870000D02*
X122555000Y-102870000D01*
X146685000Y-105410000D02*
X147955000Y-104140000D01*
X142875000Y-105410000D02*
X146685000Y-105410000D01*
X194724002Y-102870000D02*
X194945000Y-102870000D01*
X187104002Y-110490000D02*
X194724002Y-102870000D01*
X184785000Y-110490000D02*
X187104002Y-110490000D01*
G04 #@! TO.N,Net-(J6-Pad3)*
X153670000Y-114300000D02*
X154940000Y-113030000D01*
X154940000Y-102235000D02*
X154305000Y-101600000D01*
X154940000Y-113030000D02*
X154940000Y-102235000D01*
G04 #@! TO.N,Net-(J6-Pad4)*
X140970000Y-111125000D02*
X139065000Y-109220000D01*
X142240000Y-111125000D02*
X140970000Y-111125000D01*
G04 #@! TO.N,Net-(J6-Pad5)*
X148590000Y-114300000D02*
X148590000Y-108585000D01*
G04 #@! TO.N,Net-(J6-Pad7)*
X130175000Y-113030000D02*
X125095000Y-107950000D01*
G04 #@! TO.N,Net-(J6-Pad6)*
X146050000Y-111125000D02*
X142875000Y-107950000D01*
X146050000Y-114300000D02*
X146050000Y-111125000D01*
G04 #@! TD*
D17*
G04 #@! TO.N,GND1*
X193650000Y-99727418D02*
X193652845Y-99756300D01*
X193652762Y-99768117D01*
X193653662Y-99777288D01*
X193692525Y-100147043D01*
X193704553Y-100205636D01*
X193715762Y-100264399D01*
X193718425Y-100273221D01*
X193828367Y-100628385D01*
X193851551Y-100683536D01*
X193873956Y-100738992D01*
X193878283Y-100747128D01*
X194055114Y-101074173D01*
X194088570Y-101123774D01*
X194121320Y-101173821D01*
X194127145Y-101180962D01*
X194294296Y-101383013D01*
X194095000Y-101381928D01*
X193970518Y-101394188D01*
X193850820Y-101430498D01*
X193740506Y-101489463D01*
X193643815Y-101568815D01*
X193564463Y-101665506D01*
X193505498Y-101775820D01*
X193469188Y-101895518D01*
X193456928Y-102020000D01*
X193460000Y-102584250D01*
X193618750Y-102743000D01*
X194818000Y-102743000D01*
X194818000Y-102723000D01*
X195072000Y-102723000D01*
X195072000Y-102743000D01*
X195092000Y-102743000D01*
X195092000Y-102997000D01*
X195072000Y-102997000D01*
X195072000Y-103017000D01*
X194818000Y-103017000D01*
X194818000Y-102997000D01*
X193618750Y-102997000D01*
X193460000Y-103155750D01*
X193456928Y-103720000D01*
X193469188Y-103844482D01*
X193505498Y-103964180D01*
X193564463Y-104074494D01*
X193643815Y-104171185D01*
X193740506Y-104250537D01*
X193850820Y-104309502D01*
X193923380Y-104331513D01*
X193791525Y-104463368D01*
X193629010Y-104706589D01*
X193517068Y-104976842D01*
X193460000Y-105263740D01*
X193460000Y-105556260D01*
X193517068Y-105843158D01*
X193629010Y-106113411D01*
X193791525Y-106356632D01*
X193998368Y-106563475D01*
X194172760Y-106680000D01*
X193998368Y-106796525D01*
X193791525Y-107003368D01*
X193629010Y-107246589D01*
X193517068Y-107516842D01*
X193460000Y-107803740D01*
X193460000Y-108096260D01*
X193517068Y-108383158D01*
X193629010Y-108653411D01*
X193791525Y-108896632D01*
X193998368Y-109103475D01*
X194172760Y-109220000D01*
X193998368Y-109336525D01*
X193791525Y-109543368D01*
X193629010Y-109786589D01*
X193517068Y-110056842D01*
X193460000Y-110343740D01*
X193460000Y-110636260D01*
X193517068Y-110923158D01*
X193629010Y-111193411D01*
X193791525Y-111436632D01*
X193998368Y-111643475D01*
X194241589Y-111805990D01*
X194511842Y-111917932D01*
X194798740Y-111975000D01*
X195091260Y-111975000D01*
X195378158Y-111917932D01*
X195559946Y-111842633D01*
X195564550Y-111889382D01*
X195580410Y-111941666D01*
X195345801Y-112038844D01*
X195045256Y-112239662D01*
X194789662Y-112495256D01*
X194588844Y-112795801D01*
X194450518Y-113129750D01*
X194380000Y-113484268D01*
X194380000Y-113845732D01*
X194450518Y-114200250D01*
X194588844Y-114534199D01*
X194789662Y-114834744D01*
X194864918Y-114910000D01*
X160238072Y-114910000D01*
X160238072Y-113450000D01*
X160225812Y-113325518D01*
X160189502Y-113205820D01*
X160130537Y-113095506D01*
X160051185Y-112998815D01*
X159954494Y-112919463D01*
X159844180Y-112860498D01*
X159724482Y-112824188D01*
X159600000Y-112811928D01*
X157900000Y-112811928D01*
X157775518Y-112824188D01*
X157655820Y-112860498D01*
X157545506Y-112919463D01*
X157448815Y-112998815D01*
X157369463Y-113095506D01*
X157310498Y-113205820D01*
X157288487Y-113278380D01*
X157156632Y-113146525D01*
X156913411Y-112984010D01*
X156643158Y-112872068D01*
X156356260Y-112815000D01*
X156063740Y-112815000D01*
X155776842Y-112872068D01*
X155700000Y-112903897D01*
X155700000Y-111625413D01*
X166049192Y-111625413D01*
X166144956Y-111889814D01*
X166434571Y-112030704D01*
X166746108Y-112112384D01*
X167067595Y-112131718D01*
X167386675Y-112087961D01*
X167691088Y-111982795D01*
X167865044Y-111889814D01*
X167960808Y-111625413D01*
X183829192Y-111625413D01*
X183924956Y-111889814D01*
X184214571Y-112030704D01*
X184526108Y-112112384D01*
X184847595Y-112131718D01*
X185166675Y-112087961D01*
X185471088Y-111982795D01*
X185645044Y-111889814D01*
X185740808Y-111625413D01*
X184785000Y-110669605D01*
X183829192Y-111625413D01*
X167960808Y-111625413D01*
X167005000Y-110669605D01*
X166049192Y-111625413D01*
X155700000Y-111625413D01*
X155700000Y-110552595D01*
X165363282Y-110552595D01*
X165407039Y-110871675D01*
X165512205Y-111176088D01*
X165605186Y-111350044D01*
X165869587Y-111445808D01*
X166825395Y-110490000D01*
X167184605Y-110490000D01*
X168140413Y-111445808D01*
X168404814Y-111350044D01*
X168545704Y-111060429D01*
X168627384Y-110748892D01*
X168639189Y-110552595D01*
X183143282Y-110552595D01*
X183187039Y-110871675D01*
X183292205Y-111176088D01*
X183385186Y-111350044D01*
X183649587Y-111445808D01*
X184605395Y-110490000D01*
X184964605Y-110490000D01*
X185920413Y-111445808D01*
X186184814Y-111350044D01*
X186325704Y-111060429D01*
X186407384Y-110748892D01*
X186426718Y-110427405D01*
X186382961Y-110108325D01*
X186277795Y-109803912D01*
X186184814Y-109629956D01*
X185920413Y-109534192D01*
X184964605Y-110490000D01*
X184605395Y-110490000D01*
X183649587Y-109534192D01*
X183385186Y-109629956D01*
X183244296Y-109919571D01*
X183162616Y-110231108D01*
X183143282Y-110552595D01*
X168639189Y-110552595D01*
X168646718Y-110427405D01*
X168602961Y-110108325D01*
X168497795Y-109803912D01*
X168404814Y-109629956D01*
X168140413Y-109534192D01*
X167184605Y-110490000D01*
X166825395Y-110490000D01*
X165869587Y-109534192D01*
X165605186Y-109629956D01*
X165464296Y-109919571D01*
X165382616Y-110231108D01*
X165363282Y-110552595D01*
X155700000Y-110552595D01*
X155700000Y-109354587D01*
X166049192Y-109354587D01*
X167005000Y-110310395D01*
X167960808Y-109354587D01*
X167865044Y-109090186D01*
X167575429Y-108949296D01*
X167263892Y-108867616D01*
X166942405Y-108848282D01*
X166623325Y-108892039D01*
X166318912Y-108997205D01*
X166144956Y-109090186D01*
X166049192Y-109354587D01*
X155700000Y-109354587D01*
X155700000Y-106410626D01*
X166810000Y-106410626D01*
X166810000Y-106949374D01*
X166915105Y-107477770D01*
X167121275Y-107975508D01*
X167420587Y-108423461D01*
X167801539Y-108804413D01*
X168249492Y-109103725D01*
X168747230Y-109309895D01*
X169275626Y-109415000D01*
X169814374Y-109415000D01*
X170118089Y-109354587D01*
X183829192Y-109354587D01*
X184785000Y-110310395D01*
X185740808Y-109354587D01*
X185645044Y-109090186D01*
X185355429Y-108949296D01*
X185043892Y-108867616D01*
X184722405Y-108848282D01*
X184403325Y-108892039D01*
X184098912Y-108997205D01*
X183924956Y-109090186D01*
X183829192Y-109354587D01*
X170118089Y-109354587D01*
X170342770Y-109309895D01*
X170840508Y-109103725D01*
X171288461Y-108804413D01*
X171669413Y-108423461D01*
X171968725Y-107975508D01*
X172174895Y-107477770D01*
X172280000Y-106949374D01*
X172280000Y-106410626D01*
X184590000Y-106410626D01*
X184590000Y-106949374D01*
X184695105Y-107477770D01*
X184901275Y-107975508D01*
X185200587Y-108423461D01*
X185581539Y-108804413D01*
X186029492Y-109103725D01*
X186527230Y-109309895D01*
X187055626Y-109415000D01*
X187594374Y-109415000D01*
X188122770Y-109309895D01*
X188620508Y-109103725D01*
X189068461Y-108804413D01*
X189449413Y-108423461D01*
X189748725Y-107975508D01*
X189954895Y-107477770D01*
X190060000Y-106949374D01*
X190060000Y-106410626D01*
X189954895Y-105882230D01*
X189748725Y-105384492D01*
X189449413Y-104936539D01*
X189068461Y-104555587D01*
X188620508Y-104256275D01*
X188122770Y-104050105D01*
X187594374Y-103945000D01*
X187055626Y-103945000D01*
X186527230Y-104050105D01*
X186029492Y-104256275D01*
X185581539Y-104555587D01*
X185200587Y-104936539D01*
X184901275Y-105384492D01*
X184695105Y-105882230D01*
X184590000Y-106410626D01*
X172280000Y-106410626D01*
X172174895Y-105882230D01*
X171968725Y-105384492D01*
X171669413Y-104936539D01*
X171288461Y-104555587D01*
X170840508Y-104256275D01*
X170342770Y-104050105D01*
X169985137Y-103978967D01*
X180610000Y-103978967D01*
X180610000Y-104301033D01*
X180672832Y-104616912D01*
X180796082Y-104914463D01*
X180975013Y-105182252D01*
X181202748Y-105409987D01*
X181470537Y-105588918D01*
X181768088Y-105712168D01*
X182083967Y-105775000D01*
X182406033Y-105775000D01*
X182721912Y-105712168D01*
X183019463Y-105588918D01*
X183287252Y-105409987D01*
X183514987Y-105182252D01*
X183693918Y-104914463D01*
X183817168Y-104616912D01*
X183880000Y-104301033D01*
X183880000Y-103978967D01*
X183817168Y-103663088D01*
X183693918Y-103365537D01*
X183514987Y-103097748D01*
X183287252Y-102870013D01*
X183019463Y-102691082D01*
X182721912Y-102567832D01*
X182406033Y-102505000D01*
X182083967Y-102505000D01*
X181768088Y-102567832D01*
X181470537Y-102691082D01*
X181202748Y-102870013D01*
X180975013Y-103097748D01*
X180796082Y-103365537D01*
X180672832Y-103663088D01*
X180610000Y-103978967D01*
X169985137Y-103978967D01*
X169814374Y-103945000D01*
X169275626Y-103945000D01*
X168747230Y-104050105D01*
X168249492Y-104256275D01*
X167801539Y-104555587D01*
X167420587Y-104936539D01*
X167121275Y-105384492D01*
X166915105Y-105882230D01*
X166810000Y-106410626D01*
X155700000Y-106410626D01*
X155700000Y-103978967D01*
X162830000Y-103978967D01*
X162830000Y-104301033D01*
X162892832Y-104616912D01*
X163016082Y-104914463D01*
X163195013Y-105182252D01*
X163422748Y-105409987D01*
X163690537Y-105588918D01*
X163988088Y-105712168D01*
X164303967Y-105775000D01*
X164626033Y-105775000D01*
X164941912Y-105712168D01*
X165239463Y-105588918D01*
X165507252Y-105409987D01*
X165734987Y-105182252D01*
X165913918Y-104914463D01*
X166037168Y-104616912D01*
X166100000Y-104301033D01*
X166100000Y-103978967D01*
X166037168Y-103663088D01*
X165913918Y-103365537D01*
X165734987Y-103097748D01*
X165507252Y-102870013D01*
X165239463Y-102691082D01*
X164941912Y-102567832D01*
X164626033Y-102505000D01*
X164303967Y-102505000D01*
X163988088Y-102567832D01*
X163690537Y-102691082D01*
X163422748Y-102870013D01*
X163195013Y-103097748D01*
X163016082Y-103365537D01*
X162892832Y-103663088D01*
X162830000Y-103978967D01*
X155700000Y-103978967D01*
X155700000Y-102455157D01*
X155753918Y-102374463D01*
X155877168Y-102076912D01*
X155940000Y-101761033D01*
X155940000Y-101438967D01*
X155877168Y-101123088D01*
X155753918Y-100825537D01*
X155574987Y-100557748D01*
X155347252Y-100330013D01*
X155079463Y-100151082D01*
X154781912Y-100027832D01*
X154466033Y-99965000D01*
X154143967Y-99965000D01*
X153828088Y-100027832D01*
X153530537Y-100151082D01*
X153262748Y-100330013D01*
X153035013Y-100557748D01*
X152856082Y-100825537D01*
X152732832Y-101123088D01*
X152670000Y-101438967D01*
X152670000Y-101761033D01*
X152732832Y-102076912D01*
X152856082Y-102374463D01*
X153035013Y-102642252D01*
X153262748Y-102869987D01*
X153530537Y-103048918D01*
X153828088Y-103172168D01*
X154143967Y-103235000D01*
X154180001Y-103235000D01*
X154180001Y-105371435D01*
X153889413Y-104936539D01*
X153508461Y-104555587D01*
X153060508Y-104256275D01*
X152562770Y-104050105D01*
X152034374Y-103945000D01*
X151495626Y-103945000D01*
X150967230Y-104050105D01*
X150469492Y-104256275D01*
X150021539Y-104555587D01*
X149640587Y-104936539D01*
X149341275Y-105384492D01*
X149135105Y-105882230D01*
X149030000Y-106410626D01*
X149030000Y-106949374D01*
X149135105Y-107477770D01*
X149268482Y-107799771D01*
X149249774Y-107781063D01*
X149080256Y-107667795D01*
X148891898Y-107589774D01*
X148691939Y-107550000D01*
X148488061Y-107550000D01*
X148288102Y-107589774D01*
X148099744Y-107667795D01*
X147930226Y-107781063D01*
X147786063Y-107925226D01*
X147672795Y-108094744D01*
X147594774Y-108283102D01*
X147555000Y-108483061D01*
X147555000Y-108686939D01*
X147594774Y-108886898D01*
X147672795Y-109075256D01*
X147786063Y-109244774D01*
X147830001Y-109288712D01*
X147830000Y-113021821D01*
X147643368Y-113146525D01*
X147436525Y-113353368D01*
X147320000Y-113527760D01*
X147203475Y-113353368D01*
X146996632Y-113146525D01*
X146810000Y-113021822D01*
X146810000Y-111162322D01*
X146813676Y-111124999D01*
X146810000Y-111087676D01*
X146810000Y-111087667D01*
X146799003Y-110976014D01*
X146755546Y-110832753D01*
X146710721Y-110748892D01*
X146684974Y-110700723D01*
X146613799Y-110613997D01*
X146590001Y-110584999D01*
X146561003Y-110561201D01*
X144316209Y-108316408D01*
X144360000Y-108096260D01*
X144360000Y-107803740D01*
X144302932Y-107516842D01*
X144190990Y-107246589D01*
X144028475Y-107003368D01*
X143896620Y-106871513D01*
X143969180Y-106849502D01*
X144079494Y-106790537D01*
X144176185Y-106711185D01*
X144255537Y-106614494D01*
X144314502Y-106504180D01*
X144350812Y-106384482D01*
X144363072Y-106260000D01*
X144360000Y-105695750D01*
X144201250Y-105537000D01*
X143002000Y-105537000D01*
X143002000Y-105557000D01*
X142748000Y-105557000D01*
X142748000Y-105537000D01*
X141548750Y-105537000D01*
X141390000Y-105695750D01*
X141386928Y-106260000D01*
X141399188Y-106384482D01*
X141435498Y-106504180D01*
X141494463Y-106614494D01*
X141573815Y-106711185D01*
X141670506Y-106790537D01*
X141780820Y-106849502D01*
X141853380Y-106871513D01*
X141721525Y-107003368D01*
X141559010Y-107246589D01*
X141447068Y-107516842D01*
X141390000Y-107803740D01*
X141390000Y-108096260D01*
X141447068Y-108383158D01*
X141559010Y-108653411D01*
X141721525Y-108896632D01*
X141928368Y-109103475D01*
X142171589Y-109265990D01*
X142441842Y-109377932D01*
X142728740Y-109435000D01*
X143021260Y-109435000D01*
X143241408Y-109391209D01*
X145290001Y-111439803D01*
X145290000Y-113021821D01*
X145103368Y-113146525D01*
X144896525Y-113353368D01*
X144780000Y-113527760D01*
X144663475Y-113353368D01*
X144456632Y-113146525D01*
X144213411Y-112984010D01*
X143943158Y-112872068D01*
X143656260Y-112815000D01*
X143363740Y-112815000D01*
X143076842Y-112872068D01*
X142806589Y-112984010D01*
X142563368Y-113146525D01*
X142356525Y-113353368D01*
X142234805Y-113535534D01*
X142165178Y-113418645D01*
X141970269Y-113202412D01*
X141736920Y-113028359D01*
X141474099Y-112903175D01*
X141326890Y-112858524D01*
X141097000Y-112979845D01*
X141097000Y-114173000D01*
X141117000Y-114173000D01*
X141117000Y-114427000D01*
X141097000Y-114427000D01*
X141097000Y-114447000D01*
X140843000Y-114447000D01*
X140843000Y-114427000D01*
X139649186Y-114427000D01*
X139528519Y-114656891D01*
X139618304Y-114910000D01*
X109880000Y-114910000D01*
X109880000Y-113632581D01*
X109877155Y-113603699D01*
X109877238Y-113591883D01*
X109876338Y-113582712D01*
X109837475Y-113212958D01*
X109825449Y-113154371D01*
X109814238Y-113095601D01*
X109811574Y-113086779D01*
X109701633Y-112731615D01*
X109678449Y-112676464D01*
X109656044Y-112621008D01*
X109651717Y-112612872D01*
X109474885Y-112285827D01*
X109441469Y-112236285D01*
X109408680Y-112186178D01*
X109402855Y-112179037D01*
X109165866Y-111892568D01*
X109140413Y-111867292D01*
X109288411Y-111805990D01*
X109531632Y-111643475D01*
X109738475Y-111436632D01*
X109900990Y-111193411D01*
X110012932Y-110923158D01*
X110070000Y-110636260D01*
X110070000Y-110343740D01*
X110012932Y-110056842D01*
X109900990Y-109786589D01*
X109738475Y-109543368D01*
X109531632Y-109336525D01*
X109357240Y-109220000D01*
X109531632Y-109103475D01*
X109738475Y-108896632D01*
X109900990Y-108653411D01*
X110012932Y-108383158D01*
X110070000Y-108096260D01*
X110070000Y-107803740D01*
X110012932Y-107516842D01*
X109900990Y-107246589D01*
X109738475Y-107003368D01*
X109531632Y-106796525D01*
X109357240Y-106680000D01*
X109531632Y-106563475D01*
X109684481Y-106410626D01*
X113470000Y-106410626D01*
X113470000Y-106949374D01*
X113575105Y-107477770D01*
X113781275Y-107975508D01*
X114080587Y-108423461D01*
X114461539Y-108804413D01*
X114909492Y-109103725D01*
X115407230Y-109309895D01*
X115935626Y-109415000D01*
X116474374Y-109415000D01*
X117002770Y-109309895D01*
X117500508Y-109103725D01*
X117567493Y-109058967D01*
X119650000Y-109058967D01*
X119650000Y-109381033D01*
X119712832Y-109696912D01*
X119836082Y-109994463D01*
X120015013Y-110262252D01*
X120242748Y-110489987D01*
X120510537Y-110668918D01*
X120808088Y-110792168D01*
X121123967Y-110855000D01*
X121446033Y-110855000D01*
X121761912Y-110792168D01*
X122059463Y-110668918D01*
X122327252Y-110489987D01*
X122554987Y-110262252D01*
X122733918Y-109994463D01*
X122857168Y-109696912D01*
X122920000Y-109381033D01*
X122920000Y-109058967D01*
X122857168Y-108743088D01*
X122733918Y-108445537D01*
X122554987Y-108177748D01*
X122327252Y-107950013D01*
X122059463Y-107771082D01*
X121761912Y-107647832D01*
X121446033Y-107585000D01*
X121123967Y-107585000D01*
X120808088Y-107647832D01*
X120510537Y-107771082D01*
X120242748Y-107950013D01*
X120015013Y-108177748D01*
X119836082Y-108445537D01*
X119712832Y-108743088D01*
X119650000Y-109058967D01*
X117567493Y-109058967D01*
X117948461Y-108804413D01*
X118329413Y-108423461D01*
X118628725Y-107975508D01*
X118834895Y-107477770D01*
X118940000Y-106949374D01*
X118940000Y-106410626D01*
X118910039Y-106260000D01*
X123606928Y-106260000D01*
X123619188Y-106384482D01*
X123655498Y-106504180D01*
X123714463Y-106614494D01*
X123793815Y-106711185D01*
X123890506Y-106790537D01*
X124000820Y-106849502D01*
X124073380Y-106871513D01*
X123941525Y-107003368D01*
X123779010Y-107246589D01*
X123667068Y-107516842D01*
X123610000Y-107803740D01*
X123610000Y-108096260D01*
X123667068Y-108383158D01*
X123779010Y-108653411D01*
X123941525Y-108896632D01*
X124148368Y-109103475D01*
X124391589Y-109265990D01*
X124661842Y-109377932D01*
X124948740Y-109435000D01*
X125241260Y-109435000D01*
X125461408Y-109391209D01*
X129140000Y-113069802D01*
X129140000Y-113131939D01*
X129179774Y-113331898D01*
X129257795Y-113520256D01*
X129371063Y-113689774D01*
X129515226Y-113833937D01*
X129684744Y-113947205D01*
X129873102Y-114025226D01*
X130073061Y-114065000D01*
X130276939Y-114065000D01*
X130476898Y-114025226D01*
X130665256Y-113947205D01*
X130671386Y-113943109D01*
X139528519Y-113943109D01*
X139649186Y-114173000D01*
X140843000Y-114173000D01*
X140843000Y-112979845D01*
X140613110Y-112858524D01*
X140465901Y-112903175D01*
X140203080Y-113028359D01*
X139969731Y-113202412D01*
X139774822Y-113418645D01*
X139625843Y-113668748D01*
X139528519Y-113943109D01*
X130671386Y-113943109D01*
X130834774Y-113833937D01*
X130978937Y-113689774D01*
X131092205Y-113520256D01*
X131170226Y-113331898D01*
X131210000Y-113131939D01*
X131210000Y-112928061D01*
X131170226Y-112728102D01*
X131092205Y-112539744D01*
X130978937Y-112370226D01*
X130834774Y-112226063D01*
X130665256Y-112112795D01*
X130476898Y-112034774D01*
X130276939Y-111995000D01*
X130214802Y-111995000D01*
X126536209Y-108316408D01*
X126580000Y-108096260D01*
X126580000Y-107803740D01*
X126522932Y-107516842D01*
X126410990Y-107246589D01*
X126248475Y-107003368D01*
X126116620Y-106871513D01*
X126189180Y-106849502D01*
X126299494Y-106790537D01*
X126396185Y-106711185D01*
X126475537Y-106614494D01*
X126534502Y-106504180D01*
X126562881Y-106410626D01*
X131250000Y-106410626D01*
X131250000Y-106949374D01*
X131355105Y-107477770D01*
X131561275Y-107975508D01*
X131860587Y-108423461D01*
X132241539Y-108804413D01*
X132689492Y-109103725D01*
X133187230Y-109309895D01*
X133715626Y-109415000D01*
X134254374Y-109415000D01*
X134782770Y-109309895D01*
X135280508Y-109103725D01*
X135347493Y-109058967D01*
X137430000Y-109058967D01*
X137430000Y-109381033D01*
X137492832Y-109696912D01*
X137616082Y-109994463D01*
X137795013Y-110262252D01*
X138022748Y-110489987D01*
X138290537Y-110668918D01*
X138588088Y-110792168D01*
X138903967Y-110855000D01*
X139226033Y-110855000D01*
X139541912Y-110792168D01*
X139556375Y-110786177D01*
X140406201Y-111636003D01*
X140429999Y-111665001D01*
X140545724Y-111759974D01*
X140677753Y-111830546D01*
X140821014Y-111874003D01*
X140932667Y-111885000D01*
X140932677Y-111885000D01*
X140970000Y-111888676D01*
X141007323Y-111885000D01*
X141536289Y-111885000D01*
X141580226Y-111928937D01*
X141749744Y-112042205D01*
X141938102Y-112120226D01*
X142138061Y-112160000D01*
X142341939Y-112160000D01*
X142541898Y-112120226D01*
X142730256Y-112042205D01*
X142899774Y-111928937D01*
X143043937Y-111784774D01*
X143157205Y-111615256D01*
X143235226Y-111426898D01*
X143275000Y-111226939D01*
X143275000Y-111023061D01*
X143235226Y-110823102D01*
X143157205Y-110634744D01*
X143043937Y-110465226D01*
X142899774Y-110321063D01*
X142730256Y-110207795D01*
X142541898Y-110129774D01*
X142341939Y-110090000D01*
X142138061Y-110090000D01*
X141938102Y-110129774D01*
X141749744Y-110207795D01*
X141580226Y-110321063D01*
X141536289Y-110365000D01*
X141284802Y-110365000D01*
X140631177Y-109711375D01*
X140637168Y-109696912D01*
X140700000Y-109381033D01*
X140700000Y-109058967D01*
X140637168Y-108743088D01*
X140513918Y-108445537D01*
X140334987Y-108177748D01*
X140107252Y-107950013D01*
X139839463Y-107771082D01*
X139541912Y-107647832D01*
X139226033Y-107585000D01*
X138903967Y-107585000D01*
X138588088Y-107647832D01*
X138290537Y-107771082D01*
X138022748Y-107950013D01*
X137795013Y-108177748D01*
X137616082Y-108445537D01*
X137492832Y-108743088D01*
X137430000Y-109058967D01*
X135347493Y-109058967D01*
X135728461Y-108804413D01*
X136109413Y-108423461D01*
X136408725Y-107975508D01*
X136614895Y-107477770D01*
X136720000Y-106949374D01*
X136720000Y-106410626D01*
X136614895Y-105882230D01*
X136408725Y-105384492D01*
X136109413Y-104936539D01*
X135732874Y-104560000D01*
X141386928Y-104560000D01*
X141390000Y-105124250D01*
X141548750Y-105283000D01*
X142748000Y-105283000D01*
X142748000Y-104083750D01*
X143002000Y-104083750D01*
X143002000Y-105283000D01*
X144201250Y-105283000D01*
X144208837Y-105275413D01*
X146999192Y-105275413D01*
X147094956Y-105539814D01*
X147384571Y-105680704D01*
X147696108Y-105762384D01*
X148017595Y-105781718D01*
X148336675Y-105737961D01*
X148641088Y-105632795D01*
X148815044Y-105539814D01*
X148910808Y-105275413D01*
X147955000Y-104319605D01*
X146999192Y-105275413D01*
X144208837Y-105275413D01*
X144360000Y-105124250D01*
X144363072Y-104560000D01*
X144350812Y-104435518D01*
X144314502Y-104315820D01*
X144255537Y-104205506D01*
X144253149Y-104202595D01*
X146313282Y-104202595D01*
X146357039Y-104521675D01*
X146462205Y-104826088D01*
X146555186Y-105000044D01*
X146819587Y-105095808D01*
X147775395Y-104140000D01*
X148134605Y-104140000D01*
X149090413Y-105095808D01*
X149354814Y-105000044D01*
X149495704Y-104710429D01*
X149577384Y-104398892D01*
X149596718Y-104077405D01*
X149552961Y-103758325D01*
X149447795Y-103453912D01*
X149354814Y-103279956D01*
X149090413Y-103184192D01*
X148134605Y-104140000D01*
X147775395Y-104140000D01*
X146819587Y-103184192D01*
X146555186Y-103279956D01*
X146414296Y-103569571D01*
X146332616Y-103881108D01*
X146313282Y-104202595D01*
X144253149Y-104202595D01*
X144176185Y-104108815D01*
X144079494Y-104029463D01*
X143969180Y-103970498D01*
X143849482Y-103934188D01*
X143725000Y-103921928D01*
X143160750Y-103925000D01*
X143002000Y-104083750D01*
X142748000Y-104083750D01*
X142589250Y-103925000D01*
X142025000Y-103921928D01*
X141900518Y-103934188D01*
X141780820Y-103970498D01*
X141670506Y-104029463D01*
X141573815Y-104108815D01*
X141494463Y-104205506D01*
X141435498Y-104315820D01*
X141399188Y-104435518D01*
X141386928Y-104560000D01*
X135732874Y-104560000D01*
X135728461Y-104555587D01*
X135280508Y-104256275D01*
X134782770Y-104050105D01*
X134558090Y-104005413D01*
X135569192Y-104005413D01*
X135664956Y-104269814D01*
X135954571Y-104410704D01*
X136266108Y-104492384D01*
X136587595Y-104511718D01*
X136906675Y-104467961D01*
X137211088Y-104362795D01*
X137385044Y-104269814D01*
X137480808Y-104005413D01*
X136525000Y-103049605D01*
X135569192Y-104005413D01*
X134558090Y-104005413D01*
X134254374Y-103945000D01*
X133715626Y-103945000D01*
X133187230Y-104050105D01*
X132689492Y-104256275D01*
X132241539Y-104555587D01*
X131860587Y-104936539D01*
X131561275Y-105384492D01*
X131355105Y-105882230D01*
X131250000Y-106410626D01*
X126562881Y-106410626D01*
X126570812Y-106384482D01*
X126583072Y-106260000D01*
X126580000Y-105695750D01*
X126421250Y-105537000D01*
X125222000Y-105537000D01*
X125222000Y-105557000D01*
X124968000Y-105557000D01*
X124968000Y-105537000D01*
X123768750Y-105537000D01*
X123610000Y-105695750D01*
X123606928Y-106260000D01*
X118910039Y-106260000D01*
X118834895Y-105882230D01*
X118628725Y-105384492D01*
X118329413Y-104936539D01*
X117952874Y-104560000D01*
X123606928Y-104560000D01*
X123610000Y-105124250D01*
X123768750Y-105283000D01*
X124968000Y-105283000D01*
X124968000Y-104083750D01*
X125222000Y-104083750D01*
X125222000Y-105283000D01*
X126421250Y-105283000D01*
X126580000Y-105124250D01*
X126583072Y-104560000D01*
X126570812Y-104435518D01*
X126534502Y-104315820D01*
X126475537Y-104205506D01*
X126396185Y-104108815D01*
X126299494Y-104029463D01*
X126189180Y-103970498D01*
X126069482Y-103934188D01*
X125945000Y-103921928D01*
X125380750Y-103925000D01*
X125222000Y-104083750D01*
X124968000Y-104083750D01*
X124809250Y-103925000D01*
X124245000Y-103921928D01*
X124120518Y-103934188D01*
X124000820Y-103970498D01*
X123890506Y-104029463D01*
X123793815Y-104108815D01*
X123714463Y-104205506D01*
X123655498Y-104315820D01*
X123619188Y-104435518D01*
X123606928Y-104560000D01*
X117952874Y-104560000D01*
X117948461Y-104555587D01*
X117500508Y-104256275D01*
X117002770Y-104050105D01*
X116778090Y-104005413D01*
X117789192Y-104005413D01*
X117884956Y-104269814D01*
X118174571Y-104410704D01*
X118486108Y-104492384D01*
X118807595Y-104511718D01*
X119126675Y-104467961D01*
X119431088Y-104362795D01*
X119605044Y-104269814D01*
X119700808Y-104005413D01*
X118745000Y-103049605D01*
X117789192Y-104005413D01*
X116778090Y-104005413D01*
X116474374Y-103945000D01*
X115935626Y-103945000D01*
X115407230Y-104050105D01*
X114909492Y-104256275D01*
X114461539Y-104555587D01*
X114080587Y-104936539D01*
X113781275Y-105384492D01*
X113575105Y-105882230D01*
X113470000Y-106410626D01*
X109684481Y-106410626D01*
X109738475Y-106356632D01*
X109900990Y-106113411D01*
X110012932Y-105843158D01*
X110070000Y-105556260D01*
X110070000Y-105263740D01*
X110012932Y-104976842D01*
X109900990Y-104706589D01*
X109738475Y-104463368D01*
X109606620Y-104331513D01*
X109679180Y-104309502D01*
X109789494Y-104250537D01*
X109886185Y-104171185D01*
X109965537Y-104074494D01*
X110024502Y-103964180D01*
X110060812Y-103844482D01*
X110073072Y-103720000D01*
X110070000Y-103155750D01*
X109911250Y-102997000D01*
X108712000Y-102997000D01*
X108712000Y-103017000D01*
X108458000Y-103017000D01*
X108458000Y-102997000D01*
X108438000Y-102997000D01*
X108438000Y-102932595D01*
X117103282Y-102932595D01*
X117147039Y-103251675D01*
X117252205Y-103556088D01*
X117345186Y-103730044D01*
X117609587Y-103825808D01*
X118565395Y-102870000D01*
X118924605Y-102870000D01*
X119880413Y-103825808D01*
X120144814Y-103730044D01*
X120285704Y-103440429D01*
X120367384Y-103128892D01*
X120379189Y-102932595D01*
X134883282Y-102932595D01*
X134927039Y-103251675D01*
X135032205Y-103556088D01*
X135125186Y-103730044D01*
X135389587Y-103825808D01*
X136345395Y-102870000D01*
X136704605Y-102870000D01*
X137660413Y-103825808D01*
X137924814Y-103730044D01*
X138065704Y-103440429D01*
X138147384Y-103128892D01*
X138154859Y-103004587D01*
X146999192Y-103004587D01*
X147955000Y-103960395D01*
X148910808Y-103004587D01*
X148815044Y-102740186D01*
X148525429Y-102599296D01*
X148213892Y-102517616D01*
X147892405Y-102498282D01*
X147573325Y-102542039D01*
X147268912Y-102647205D01*
X147094956Y-102740186D01*
X146999192Y-103004587D01*
X138154859Y-103004587D01*
X138166718Y-102807405D01*
X138122961Y-102488325D01*
X138017795Y-102183912D01*
X137924814Y-102009956D01*
X137660413Y-101914192D01*
X136704605Y-102870000D01*
X136345395Y-102870000D01*
X135389587Y-101914192D01*
X135125186Y-102009956D01*
X134984296Y-102299571D01*
X134902616Y-102611108D01*
X134883282Y-102932595D01*
X120379189Y-102932595D01*
X120386718Y-102807405D01*
X120342961Y-102488325D01*
X120237795Y-102183912D01*
X120144814Y-102009956D01*
X119880413Y-101914192D01*
X118924605Y-102870000D01*
X118565395Y-102870000D01*
X117609587Y-101914192D01*
X117345186Y-102009956D01*
X117204296Y-102299571D01*
X117122616Y-102611108D01*
X117103282Y-102932595D01*
X108438000Y-102932595D01*
X108438000Y-102743000D01*
X108458000Y-102743000D01*
X108458000Y-101543750D01*
X108712000Y-101543750D01*
X108712000Y-102743000D01*
X109911250Y-102743000D01*
X110070000Y-102584250D01*
X110073072Y-102020000D01*
X110060812Y-101895518D01*
X110024502Y-101775820D01*
X110002463Y-101734587D01*
X117789192Y-101734587D01*
X118745000Y-102690395D01*
X119700808Y-101734587D01*
X135569192Y-101734587D01*
X136525000Y-102690395D01*
X137480808Y-101734587D01*
X137385044Y-101470186D01*
X137095429Y-101329296D01*
X136783892Y-101247616D01*
X136462405Y-101228282D01*
X136143325Y-101272039D01*
X135838912Y-101377205D01*
X135664956Y-101470186D01*
X135569192Y-101734587D01*
X119700808Y-101734587D01*
X119605044Y-101470186D01*
X119315429Y-101329296D01*
X119003892Y-101247616D01*
X118682405Y-101228282D01*
X118363325Y-101272039D01*
X118058912Y-101377205D01*
X117884956Y-101470186D01*
X117789192Y-101734587D01*
X110002463Y-101734587D01*
X109965537Y-101665506D01*
X109886185Y-101568815D01*
X109789494Y-101489463D01*
X109679180Y-101430498D01*
X109559482Y-101394188D01*
X109435000Y-101381928D01*
X108870750Y-101385000D01*
X108712000Y-101543750D01*
X108458000Y-101543750D01*
X108299250Y-101385000D01*
X108033558Y-101383553D01*
X108184199Y-101321156D01*
X108484744Y-101120338D01*
X108740338Y-100864744D01*
X108941156Y-100564199D01*
X109079482Y-100230250D01*
X109150000Y-99875732D01*
X109150000Y-99514268D01*
X109079482Y-99159750D01*
X108941156Y-98825801D01*
X108740338Y-98525256D01*
X108665082Y-98450000D01*
X193650001Y-98450000D01*
X193650000Y-99727418D01*
G04 #@! TA.AperFunction,Conductor*
D18*
G36*
X193650000Y-99727418D02*
G01*
X193652845Y-99756300D01*
X193652762Y-99768117D01*
X193653662Y-99777288D01*
X193692525Y-100147043D01*
X193704553Y-100205636D01*
X193715762Y-100264399D01*
X193718425Y-100273221D01*
X193828367Y-100628385D01*
X193851551Y-100683536D01*
X193873956Y-100738992D01*
X193878283Y-100747128D01*
X194055114Y-101074173D01*
X194088570Y-101123774D01*
X194121320Y-101173821D01*
X194127145Y-101180962D01*
X194294296Y-101383013D01*
X194095000Y-101381928D01*
X193970518Y-101394188D01*
X193850820Y-101430498D01*
X193740506Y-101489463D01*
X193643815Y-101568815D01*
X193564463Y-101665506D01*
X193505498Y-101775820D01*
X193469188Y-101895518D01*
X193456928Y-102020000D01*
X193460000Y-102584250D01*
X193618750Y-102743000D01*
X194818000Y-102743000D01*
X194818000Y-102723000D01*
X195072000Y-102723000D01*
X195072000Y-102743000D01*
X195092000Y-102743000D01*
X195092000Y-102997000D01*
X195072000Y-102997000D01*
X195072000Y-103017000D01*
X194818000Y-103017000D01*
X194818000Y-102997000D01*
X193618750Y-102997000D01*
X193460000Y-103155750D01*
X193456928Y-103720000D01*
X193469188Y-103844482D01*
X193505498Y-103964180D01*
X193564463Y-104074494D01*
X193643815Y-104171185D01*
X193740506Y-104250537D01*
X193850820Y-104309502D01*
X193923380Y-104331513D01*
X193791525Y-104463368D01*
X193629010Y-104706589D01*
X193517068Y-104976842D01*
X193460000Y-105263740D01*
X193460000Y-105556260D01*
X193517068Y-105843158D01*
X193629010Y-106113411D01*
X193791525Y-106356632D01*
X193998368Y-106563475D01*
X194172760Y-106680000D01*
X193998368Y-106796525D01*
X193791525Y-107003368D01*
X193629010Y-107246589D01*
X193517068Y-107516842D01*
X193460000Y-107803740D01*
X193460000Y-108096260D01*
X193517068Y-108383158D01*
X193629010Y-108653411D01*
X193791525Y-108896632D01*
X193998368Y-109103475D01*
X194172760Y-109220000D01*
X193998368Y-109336525D01*
X193791525Y-109543368D01*
X193629010Y-109786589D01*
X193517068Y-110056842D01*
X193460000Y-110343740D01*
X193460000Y-110636260D01*
X193517068Y-110923158D01*
X193629010Y-111193411D01*
X193791525Y-111436632D01*
X193998368Y-111643475D01*
X194241589Y-111805990D01*
X194511842Y-111917932D01*
X194798740Y-111975000D01*
X195091260Y-111975000D01*
X195378158Y-111917932D01*
X195559946Y-111842633D01*
X195564550Y-111889382D01*
X195580410Y-111941666D01*
X195345801Y-112038844D01*
X195045256Y-112239662D01*
X194789662Y-112495256D01*
X194588844Y-112795801D01*
X194450518Y-113129750D01*
X194380000Y-113484268D01*
X194380000Y-113845732D01*
X194450518Y-114200250D01*
X194588844Y-114534199D01*
X194789662Y-114834744D01*
X194864918Y-114910000D01*
X160238072Y-114910000D01*
X160238072Y-113450000D01*
X160225812Y-113325518D01*
X160189502Y-113205820D01*
X160130537Y-113095506D01*
X160051185Y-112998815D01*
X159954494Y-112919463D01*
X159844180Y-112860498D01*
X159724482Y-112824188D01*
X159600000Y-112811928D01*
X157900000Y-112811928D01*
X157775518Y-112824188D01*
X157655820Y-112860498D01*
X157545506Y-112919463D01*
X157448815Y-112998815D01*
X157369463Y-113095506D01*
X157310498Y-113205820D01*
X157288487Y-113278380D01*
X157156632Y-113146525D01*
X156913411Y-112984010D01*
X156643158Y-112872068D01*
X156356260Y-112815000D01*
X156063740Y-112815000D01*
X155776842Y-112872068D01*
X155700000Y-112903897D01*
X155700000Y-111625413D01*
X166049192Y-111625413D01*
X166144956Y-111889814D01*
X166434571Y-112030704D01*
X166746108Y-112112384D01*
X167067595Y-112131718D01*
X167386675Y-112087961D01*
X167691088Y-111982795D01*
X167865044Y-111889814D01*
X167960808Y-111625413D01*
X183829192Y-111625413D01*
X183924956Y-111889814D01*
X184214571Y-112030704D01*
X184526108Y-112112384D01*
X184847595Y-112131718D01*
X185166675Y-112087961D01*
X185471088Y-111982795D01*
X185645044Y-111889814D01*
X185740808Y-111625413D01*
X184785000Y-110669605D01*
X183829192Y-111625413D01*
X167960808Y-111625413D01*
X167005000Y-110669605D01*
X166049192Y-111625413D01*
X155700000Y-111625413D01*
X155700000Y-110552595D01*
X165363282Y-110552595D01*
X165407039Y-110871675D01*
X165512205Y-111176088D01*
X165605186Y-111350044D01*
X165869587Y-111445808D01*
X166825395Y-110490000D01*
X167184605Y-110490000D01*
X168140413Y-111445808D01*
X168404814Y-111350044D01*
X168545704Y-111060429D01*
X168627384Y-110748892D01*
X168639189Y-110552595D01*
X183143282Y-110552595D01*
X183187039Y-110871675D01*
X183292205Y-111176088D01*
X183385186Y-111350044D01*
X183649587Y-111445808D01*
X184605395Y-110490000D01*
X184964605Y-110490000D01*
X185920413Y-111445808D01*
X186184814Y-111350044D01*
X186325704Y-111060429D01*
X186407384Y-110748892D01*
X186426718Y-110427405D01*
X186382961Y-110108325D01*
X186277795Y-109803912D01*
X186184814Y-109629956D01*
X185920413Y-109534192D01*
X184964605Y-110490000D01*
X184605395Y-110490000D01*
X183649587Y-109534192D01*
X183385186Y-109629956D01*
X183244296Y-109919571D01*
X183162616Y-110231108D01*
X183143282Y-110552595D01*
X168639189Y-110552595D01*
X168646718Y-110427405D01*
X168602961Y-110108325D01*
X168497795Y-109803912D01*
X168404814Y-109629956D01*
X168140413Y-109534192D01*
X167184605Y-110490000D01*
X166825395Y-110490000D01*
X165869587Y-109534192D01*
X165605186Y-109629956D01*
X165464296Y-109919571D01*
X165382616Y-110231108D01*
X165363282Y-110552595D01*
X155700000Y-110552595D01*
X155700000Y-109354587D01*
X166049192Y-109354587D01*
X167005000Y-110310395D01*
X167960808Y-109354587D01*
X167865044Y-109090186D01*
X167575429Y-108949296D01*
X167263892Y-108867616D01*
X166942405Y-108848282D01*
X166623325Y-108892039D01*
X166318912Y-108997205D01*
X166144956Y-109090186D01*
X166049192Y-109354587D01*
X155700000Y-109354587D01*
X155700000Y-106410626D01*
X166810000Y-106410626D01*
X166810000Y-106949374D01*
X166915105Y-107477770D01*
X167121275Y-107975508D01*
X167420587Y-108423461D01*
X167801539Y-108804413D01*
X168249492Y-109103725D01*
X168747230Y-109309895D01*
X169275626Y-109415000D01*
X169814374Y-109415000D01*
X170118089Y-109354587D01*
X183829192Y-109354587D01*
X184785000Y-110310395D01*
X185740808Y-109354587D01*
X185645044Y-109090186D01*
X185355429Y-108949296D01*
X185043892Y-108867616D01*
X184722405Y-108848282D01*
X184403325Y-108892039D01*
X184098912Y-108997205D01*
X183924956Y-109090186D01*
X183829192Y-109354587D01*
X170118089Y-109354587D01*
X170342770Y-109309895D01*
X170840508Y-109103725D01*
X171288461Y-108804413D01*
X171669413Y-108423461D01*
X171968725Y-107975508D01*
X172174895Y-107477770D01*
X172280000Y-106949374D01*
X172280000Y-106410626D01*
X184590000Y-106410626D01*
X184590000Y-106949374D01*
X184695105Y-107477770D01*
X184901275Y-107975508D01*
X185200587Y-108423461D01*
X185581539Y-108804413D01*
X186029492Y-109103725D01*
X186527230Y-109309895D01*
X187055626Y-109415000D01*
X187594374Y-109415000D01*
X188122770Y-109309895D01*
X188620508Y-109103725D01*
X189068461Y-108804413D01*
X189449413Y-108423461D01*
X189748725Y-107975508D01*
X189954895Y-107477770D01*
X190060000Y-106949374D01*
X190060000Y-106410626D01*
X189954895Y-105882230D01*
X189748725Y-105384492D01*
X189449413Y-104936539D01*
X189068461Y-104555587D01*
X188620508Y-104256275D01*
X188122770Y-104050105D01*
X187594374Y-103945000D01*
X187055626Y-103945000D01*
X186527230Y-104050105D01*
X186029492Y-104256275D01*
X185581539Y-104555587D01*
X185200587Y-104936539D01*
X184901275Y-105384492D01*
X184695105Y-105882230D01*
X184590000Y-106410626D01*
X172280000Y-106410626D01*
X172174895Y-105882230D01*
X171968725Y-105384492D01*
X171669413Y-104936539D01*
X171288461Y-104555587D01*
X170840508Y-104256275D01*
X170342770Y-104050105D01*
X169985137Y-103978967D01*
X180610000Y-103978967D01*
X180610000Y-104301033D01*
X180672832Y-104616912D01*
X180796082Y-104914463D01*
X180975013Y-105182252D01*
X181202748Y-105409987D01*
X181470537Y-105588918D01*
X181768088Y-105712168D01*
X182083967Y-105775000D01*
X182406033Y-105775000D01*
X182721912Y-105712168D01*
X183019463Y-105588918D01*
X183287252Y-105409987D01*
X183514987Y-105182252D01*
X183693918Y-104914463D01*
X183817168Y-104616912D01*
X183880000Y-104301033D01*
X183880000Y-103978967D01*
X183817168Y-103663088D01*
X183693918Y-103365537D01*
X183514987Y-103097748D01*
X183287252Y-102870013D01*
X183019463Y-102691082D01*
X182721912Y-102567832D01*
X182406033Y-102505000D01*
X182083967Y-102505000D01*
X181768088Y-102567832D01*
X181470537Y-102691082D01*
X181202748Y-102870013D01*
X180975013Y-103097748D01*
X180796082Y-103365537D01*
X180672832Y-103663088D01*
X180610000Y-103978967D01*
X169985137Y-103978967D01*
X169814374Y-103945000D01*
X169275626Y-103945000D01*
X168747230Y-104050105D01*
X168249492Y-104256275D01*
X167801539Y-104555587D01*
X167420587Y-104936539D01*
X167121275Y-105384492D01*
X166915105Y-105882230D01*
X166810000Y-106410626D01*
X155700000Y-106410626D01*
X155700000Y-103978967D01*
X162830000Y-103978967D01*
X162830000Y-104301033D01*
X162892832Y-104616912D01*
X163016082Y-104914463D01*
X163195013Y-105182252D01*
X163422748Y-105409987D01*
X163690537Y-105588918D01*
X163988088Y-105712168D01*
X164303967Y-105775000D01*
X164626033Y-105775000D01*
X164941912Y-105712168D01*
X165239463Y-105588918D01*
X165507252Y-105409987D01*
X165734987Y-105182252D01*
X165913918Y-104914463D01*
X166037168Y-104616912D01*
X166100000Y-104301033D01*
X166100000Y-103978967D01*
X166037168Y-103663088D01*
X165913918Y-103365537D01*
X165734987Y-103097748D01*
X165507252Y-102870013D01*
X165239463Y-102691082D01*
X164941912Y-102567832D01*
X164626033Y-102505000D01*
X164303967Y-102505000D01*
X163988088Y-102567832D01*
X163690537Y-102691082D01*
X163422748Y-102870013D01*
X163195013Y-103097748D01*
X163016082Y-103365537D01*
X162892832Y-103663088D01*
X162830000Y-103978967D01*
X155700000Y-103978967D01*
X155700000Y-102455157D01*
X155753918Y-102374463D01*
X155877168Y-102076912D01*
X155940000Y-101761033D01*
X155940000Y-101438967D01*
X155877168Y-101123088D01*
X155753918Y-100825537D01*
X155574987Y-100557748D01*
X155347252Y-100330013D01*
X155079463Y-100151082D01*
X154781912Y-100027832D01*
X154466033Y-99965000D01*
X154143967Y-99965000D01*
X153828088Y-100027832D01*
X153530537Y-100151082D01*
X153262748Y-100330013D01*
X153035013Y-100557748D01*
X152856082Y-100825537D01*
X152732832Y-101123088D01*
X152670000Y-101438967D01*
X152670000Y-101761033D01*
X152732832Y-102076912D01*
X152856082Y-102374463D01*
X153035013Y-102642252D01*
X153262748Y-102869987D01*
X153530537Y-103048918D01*
X153828088Y-103172168D01*
X154143967Y-103235000D01*
X154180001Y-103235000D01*
X154180001Y-105371435D01*
X153889413Y-104936539D01*
X153508461Y-104555587D01*
X153060508Y-104256275D01*
X152562770Y-104050105D01*
X152034374Y-103945000D01*
X151495626Y-103945000D01*
X150967230Y-104050105D01*
X150469492Y-104256275D01*
X150021539Y-104555587D01*
X149640587Y-104936539D01*
X149341275Y-105384492D01*
X149135105Y-105882230D01*
X149030000Y-106410626D01*
X149030000Y-106949374D01*
X149135105Y-107477770D01*
X149268482Y-107799771D01*
X149249774Y-107781063D01*
X149080256Y-107667795D01*
X148891898Y-107589774D01*
X148691939Y-107550000D01*
X148488061Y-107550000D01*
X148288102Y-107589774D01*
X148099744Y-107667795D01*
X147930226Y-107781063D01*
X147786063Y-107925226D01*
X147672795Y-108094744D01*
X147594774Y-108283102D01*
X147555000Y-108483061D01*
X147555000Y-108686939D01*
X147594774Y-108886898D01*
X147672795Y-109075256D01*
X147786063Y-109244774D01*
X147830001Y-109288712D01*
X147830000Y-113021821D01*
X147643368Y-113146525D01*
X147436525Y-113353368D01*
X147320000Y-113527760D01*
X147203475Y-113353368D01*
X146996632Y-113146525D01*
X146810000Y-113021822D01*
X146810000Y-111162322D01*
X146813676Y-111124999D01*
X146810000Y-111087676D01*
X146810000Y-111087667D01*
X146799003Y-110976014D01*
X146755546Y-110832753D01*
X146710721Y-110748892D01*
X146684974Y-110700723D01*
X146613799Y-110613997D01*
X146590001Y-110584999D01*
X146561003Y-110561201D01*
X144316209Y-108316408D01*
X144360000Y-108096260D01*
X144360000Y-107803740D01*
X144302932Y-107516842D01*
X144190990Y-107246589D01*
X144028475Y-107003368D01*
X143896620Y-106871513D01*
X143969180Y-106849502D01*
X144079494Y-106790537D01*
X144176185Y-106711185D01*
X144255537Y-106614494D01*
X144314502Y-106504180D01*
X144350812Y-106384482D01*
X144363072Y-106260000D01*
X144360000Y-105695750D01*
X144201250Y-105537000D01*
X143002000Y-105537000D01*
X143002000Y-105557000D01*
X142748000Y-105557000D01*
X142748000Y-105537000D01*
X141548750Y-105537000D01*
X141390000Y-105695750D01*
X141386928Y-106260000D01*
X141399188Y-106384482D01*
X141435498Y-106504180D01*
X141494463Y-106614494D01*
X141573815Y-106711185D01*
X141670506Y-106790537D01*
X141780820Y-106849502D01*
X141853380Y-106871513D01*
X141721525Y-107003368D01*
X141559010Y-107246589D01*
X141447068Y-107516842D01*
X141390000Y-107803740D01*
X141390000Y-108096260D01*
X141447068Y-108383158D01*
X141559010Y-108653411D01*
X141721525Y-108896632D01*
X141928368Y-109103475D01*
X142171589Y-109265990D01*
X142441842Y-109377932D01*
X142728740Y-109435000D01*
X143021260Y-109435000D01*
X143241408Y-109391209D01*
X145290001Y-111439803D01*
X145290000Y-113021821D01*
X145103368Y-113146525D01*
X144896525Y-113353368D01*
X144780000Y-113527760D01*
X144663475Y-113353368D01*
X144456632Y-113146525D01*
X144213411Y-112984010D01*
X143943158Y-112872068D01*
X143656260Y-112815000D01*
X143363740Y-112815000D01*
X143076842Y-112872068D01*
X142806589Y-112984010D01*
X142563368Y-113146525D01*
X142356525Y-113353368D01*
X142234805Y-113535534D01*
X142165178Y-113418645D01*
X141970269Y-113202412D01*
X141736920Y-113028359D01*
X141474099Y-112903175D01*
X141326890Y-112858524D01*
X141097000Y-112979845D01*
X141097000Y-114173000D01*
X141117000Y-114173000D01*
X141117000Y-114427000D01*
X141097000Y-114427000D01*
X141097000Y-114447000D01*
X140843000Y-114447000D01*
X140843000Y-114427000D01*
X139649186Y-114427000D01*
X139528519Y-114656891D01*
X139618304Y-114910000D01*
X109880000Y-114910000D01*
X109880000Y-113632581D01*
X109877155Y-113603699D01*
X109877238Y-113591883D01*
X109876338Y-113582712D01*
X109837475Y-113212958D01*
X109825449Y-113154371D01*
X109814238Y-113095601D01*
X109811574Y-113086779D01*
X109701633Y-112731615D01*
X109678449Y-112676464D01*
X109656044Y-112621008D01*
X109651717Y-112612872D01*
X109474885Y-112285827D01*
X109441469Y-112236285D01*
X109408680Y-112186178D01*
X109402855Y-112179037D01*
X109165866Y-111892568D01*
X109140413Y-111867292D01*
X109288411Y-111805990D01*
X109531632Y-111643475D01*
X109738475Y-111436632D01*
X109900990Y-111193411D01*
X110012932Y-110923158D01*
X110070000Y-110636260D01*
X110070000Y-110343740D01*
X110012932Y-110056842D01*
X109900990Y-109786589D01*
X109738475Y-109543368D01*
X109531632Y-109336525D01*
X109357240Y-109220000D01*
X109531632Y-109103475D01*
X109738475Y-108896632D01*
X109900990Y-108653411D01*
X110012932Y-108383158D01*
X110070000Y-108096260D01*
X110070000Y-107803740D01*
X110012932Y-107516842D01*
X109900990Y-107246589D01*
X109738475Y-107003368D01*
X109531632Y-106796525D01*
X109357240Y-106680000D01*
X109531632Y-106563475D01*
X109684481Y-106410626D01*
X113470000Y-106410626D01*
X113470000Y-106949374D01*
X113575105Y-107477770D01*
X113781275Y-107975508D01*
X114080587Y-108423461D01*
X114461539Y-108804413D01*
X114909492Y-109103725D01*
X115407230Y-109309895D01*
X115935626Y-109415000D01*
X116474374Y-109415000D01*
X117002770Y-109309895D01*
X117500508Y-109103725D01*
X117567493Y-109058967D01*
X119650000Y-109058967D01*
X119650000Y-109381033D01*
X119712832Y-109696912D01*
X119836082Y-109994463D01*
X120015013Y-110262252D01*
X120242748Y-110489987D01*
X120510537Y-110668918D01*
X120808088Y-110792168D01*
X121123967Y-110855000D01*
X121446033Y-110855000D01*
X121761912Y-110792168D01*
X122059463Y-110668918D01*
X122327252Y-110489987D01*
X122554987Y-110262252D01*
X122733918Y-109994463D01*
X122857168Y-109696912D01*
X122920000Y-109381033D01*
X122920000Y-109058967D01*
X122857168Y-108743088D01*
X122733918Y-108445537D01*
X122554987Y-108177748D01*
X122327252Y-107950013D01*
X122059463Y-107771082D01*
X121761912Y-107647832D01*
X121446033Y-107585000D01*
X121123967Y-107585000D01*
X120808088Y-107647832D01*
X120510537Y-107771082D01*
X120242748Y-107950013D01*
X120015013Y-108177748D01*
X119836082Y-108445537D01*
X119712832Y-108743088D01*
X119650000Y-109058967D01*
X117567493Y-109058967D01*
X117948461Y-108804413D01*
X118329413Y-108423461D01*
X118628725Y-107975508D01*
X118834895Y-107477770D01*
X118940000Y-106949374D01*
X118940000Y-106410626D01*
X118910039Y-106260000D01*
X123606928Y-106260000D01*
X123619188Y-106384482D01*
X123655498Y-106504180D01*
X123714463Y-106614494D01*
X123793815Y-106711185D01*
X123890506Y-106790537D01*
X124000820Y-106849502D01*
X124073380Y-106871513D01*
X123941525Y-107003368D01*
X123779010Y-107246589D01*
X123667068Y-107516842D01*
X123610000Y-107803740D01*
X123610000Y-108096260D01*
X123667068Y-108383158D01*
X123779010Y-108653411D01*
X123941525Y-108896632D01*
X124148368Y-109103475D01*
X124391589Y-109265990D01*
X124661842Y-109377932D01*
X124948740Y-109435000D01*
X125241260Y-109435000D01*
X125461408Y-109391209D01*
X129140000Y-113069802D01*
X129140000Y-113131939D01*
X129179774Y-113331898D01*
X129257795Y-113520256D01*
X129371063Y-113689774D01*
X129515226Y-113833937D01*
X129684744Y-113947205D01*
X129873102Y-114025226D01*
X130073061Y-114065000D01*
X130276939Y-114065000D01*
X130476898Y-114025226D01*
X130665256Y-113947205D01*
X130671386Y-113943109D01*
X139528519Y-113943109D01*
X139649186Y-114173000D01*
X140843000Y-114173000D01*
X140843000Y-112979845D01*
X140613110Y-112858524D01*
X140465901Y-112903175D01*
X140203080Y-113028359D01*
X139969731Y-113202412D01*
X139774822Y-113418645D01*
X139625843Y-113668748D01*
X139528519Y-113943109D01*
X130671386Y-113943109D01*
X130834774Y-113833937D01*
X130978937Y-113689774D01*
X131092205Y-113520256D01*
X131170226Y-113331898D01*
X131210000Y-113131939D01*
X131210000Y-112928061D01*
X131170226Y-112728102D01*
X131092205Y-112539744D01*
X130978937Y-112370226D01*
X130834774Y-112226063D01*
X130665256Y-112112795D01*
X130476898Y-112034774D01*
X130276939Y-111995000D01*
X130214802Y-111995000D01*
X126536209Y-108316408D01*
X126580000Y-108096260D01*
X126580000Y-107803740D01*
X126522932Y-107516842D01*
X126410990Y-107246589D01*
X126248475Y-107003368D01*
X126116620Y-106871513D01*
X126189180Y-106849502D01*
X126299494Y-106790537D01*
X126396185Y-106711185D01*
X126475537Y-106614494D01*
X126534502Y-106504180D01*
X126562881Y-106410626D01*
X131250000Y-106410626D01*
X131250000Y-106949374D01*
X131355105Y-107477770D01*
X131561275Y-107975508D01*
X131860587Y-108423461D01*
X132241539Y-108804413D01*
X132689492Y-109103725D01*
X133187230Y-109309895D01*
X133715626Y-109415000D01*
X134254374Y-109415000D01*
X134782770Y-109309895D01*
X135280508Y-109103725D01*
X135347493Y-109058967D01*
X137430000Y-109058967D01*
X137430000Y-109381033D01*
X137492832Y-109696912D01*
X137616082Y-109994463D01*
X137795013Y-110262252D01*
X138022748Y-110489987D01*
X138290537Y-110668918D01*
X138588088Y-110792168D01*
X138903967Y-110855000D01*
X139226033Y-110855000D01*
X139541912Y-110792168D01*
X139556375Y-110786177D01*
X140406201Y-111636003D01*
X140429999Y-111665001D01*
X140545724Y-111759974D01*
X140677753Y-111830546D01*
X140821014Y-111874003D01*
X140932667Y-111885000D01*
X140932677Y-111885000D01*
X140970000Y-111888676D01*
X141007323Y-111885000D01*
X141536289Y-111885000D01*
X141580226Y-111928937D01*
X141749744Y-112042205D01*
X141938102Y-112120226D01*
X142138061Y-112160000D01*
X142341939Y-112160000D01*
X142541898Y-112120226D01*
X142730256Y-112042205D01*
X142899774Y-111928937D01*
X143043937Y-111784774D01*
X143157205Y-111615256D01*
X143235226Y-111426898D01*
X143275000Y-111226939D01*
X143275000Y-111023061D01*
X143235226Y-110823102D01*
X143157205Y-110634744D01*
X143043937Y-110465226D01*
X142899774Y-110321063D01*
X142730256Y-110207795D01*
X142541898Y-110129774D01*
X142341939Y-110090000D01*
X142138061Y-110090000D01*
X141938102Y-110129774D01*
X141749744Y-110207795D01*
X141580226Y-110321063D01*
X141536289Y-110365000D01*
X141284802Y-110365000D01*
X140631177Y-109711375D01*
X140637168Y-109696912D01*
X140700000Y-109381033D01*
X140700000Y-109058967D01*
X140637168Y-108743088D01*
X140513918Y-108445537D01*
X140334987Y-108177748D01*
X140107252Y-107950013D01*
X139839463Y-107771082D01*
X139541912Y-107647832D01*
X139226033Y-107585000D01*
X138903967Y-107585000D01*
X138588088Y-107647832D01*
X138290537Y-107771082D01*
X138022748Y-107950013D01*
X137795013Y-108177748D01*
X137616082Y-108445537D01*
X137492832Y-108743088D01*
X137430000Y-109058967D01*
X135347493Y-109058967D01*
X135728461Y-108804413D01*
X136109413Y-108423461D01*
X136408725Y-107975508D01*
X136614895Y-107477770D01*
X136720000Y-106949374D01*
X136720000Y-106410626D01*
X136614895Y-105882230D01*
X136408725Y-105384492D01*
X136109413Y-104936539D01*
X135732874Y-104560000D01*
X141386928Y-104560000D01*
X141390000Y-105124250D01*
X141548750Y-105283000D01*
X142748000Y-105283000D01*
X142748000Y-104083750D01*
X143002000Y-104083750D01*
X143002000Y-105283000D01*
X144201250Y-105283000D01*
X144208837Y-105275413D01*
X146999192Y-105275413D01*
X147094956Y-105539814D01*
X147384571Y-105680704D01*
X147696108Y-105762384D01*
X148017595Y-105781718D01*
X148336675Y-105737961D01*
X148641088Y-105632795D01*
X148815044Y-105539814D01*
X148910808Y-105275413D01*
X147955000Y-104319605D01*
X146999192Y-105275413D01*
X144208837Y-105275413D01*
X144360000Y-105124250D01*
X144363072Y-104560000D01*
X144350812Y-104435518D01*
X144314502Y-104315820D01*
X144255537Y-104205506D01*
X144253149Y-104202595D01*
X146313282Y-104202595D01*
X146357039Y-104521675D01*
X146462205Y-104826088D01*
X146555186Y-105000044D01*
X146819587Y-105095808D01*
X147775395Y-104140000D01*
X148134605Y-104140000D01*
X149090413Y-105095808D01*
X149354814Y-105000044D01*
X149495704Y-104710429D01*
X149577384Y-104398892D01*
X149596718Y-104077405D01*
X149552961Y-103758325D01*
X149447795Y-103453912D01*
X149354814Y-103279956D01*
X149090413Y-103184192D01*
X148134605Y-104140000D01*
X147775395Y-104140000D01*
X146819587Y-103184192D01*
X146555186Y-103279956D01*
X146414296Y-103569571D01*
X146332616Y-103881108D01*
X146313282Y-104202595D01*
X144253149Y-104202595D01*
X144176185Y-104108815D01*
X144079494Y-104029463D01*
X143969180Y-103970498D01*
X143849482Y-103934188D01*
X143725000Y-103921928D01*
X143160750Y-103925000D01*
X143002000Y-104083750D01*
X142748000Y-104083750D01*
X142589250Y-103925000D01*
X142025000Y-103921928D01*
X141900518Y-103934188D01*
X141780820Y-103970498D01*
X141670506Y-104029463D01*
X141573815Y-104108815D01*
X141494463Y-104205506D01*
X141435498Y-104315820D01*
X141399188Y-104435518D01*
X141386928Y-104560000D01*
X135732874Y-104560000D01*
X135728461Y-104555587D01*
X135280508Y-104256275D01*
X134782770Y-104050105D01*
X134558090Y-104005413D01*
X135569192Y-104005413D01*
X135664956Y-104269814D01*
X135954571Y-104410704D01*
X136266108Y-104492384D01*
X136587595Y-104511718D01*
X136906675Y-104467961D01*
X137211088Y-104362795D01*
X137385044Y-104269814D01*
X137480808Y-104005413D01*
X136525000Y-103049605D01*
X135569192Y-104005413D01*
X134558090Y-104005413D01*
X134254374Y-103945000D01*
X133715626Y-103945000D01*
X133187230Y-104050105D01*
X132689492Y-104256275D01*
X132241539Y-104555587D01*
X131860587Y-104936539D01*
X131561275Y-105384492D01*
X131355105Y-105882230D01*
X131250000Y-106410626D01*
X126562881Y-106410626D01*
X126570812Y-106384482D01*
X126583072Y-106260000D01*
X126580000Y-105695750D01*
X126421250Y-105537000D01*
X125222000Y-105537000D01*
X125222000Y-105557000D01*
X124968000Y-105557000D01*
X124968000Y-105537000D01*
X123768750Y-105537000D01*
X123610000Y-105695750D01*
X123606928Y-106260000D01*
X118910039Y-106260000D01*
X118834895Y-105882230D01*
X118628725Y-105384492D01*
X118329413Y-104936539D01*
X117952874Y-104560000D01*
X123606928Y-104560000D01*
X123610000Y-105124250D01*
X123768750Y-105283000D01*
X124968000Y-105283000D01*
X124968000Y-104083750D01*
X125222000Y-104083750D01*
X125222000Y-105283000D01*
X126421250Y-105283000D01*
X126580000Y-105124250D01*
X126583072Y-104560000D01*
X126570812Y-104435518D01*
X126534502Y-104315820D01*
X126475537Y-104205506D01*
X126396185Y-104108815D01*
X126299494Y-104029463D01*
X126189180Y-103970498D01*
X126069482Y-103934188D01*
X125945000Y-103921928D01*
X125380750Y-103925000D01*
X125222000Y-104083750D01*
X124968000Y-104083750D01*
X124809250Y-103925000D01*
X124245000Y-103921928D01*
X124120518Y-103934188D01*
X124000820Y-103970498D01*
X123890506Y-104029463D01*
X123793815Y-104108815D01*
X123714463Y-104205506D01*
X123655498Y-104315820D01*
X123619188Y-104435518D01*
X123606928Y-104560000D01*
X117952874Y-104560000D01*
X117948461Y-104555587D01*
X117500508Y-104256275D01*
X117002770Y-104050105D01*
X116778090Y-104005413D01*
X117789192Y-104005413D01*
X117884956Y-104269814D01*
X118174571Y-104410704D01*
X118486108Y-104492384D01*
X118807595Y-104511718D01*
X119126675Y-104467961D01*
X119431088Y-104362795D01*
X119605044Y-104269814D01*
X119700808Y-104005413D01*
X118745000Y-103049605D01*
X117789192Y-104005413D01*
X116778090Y-104005413D01*
X116474374Y-103945000D01*
X115935626Y-103945000D01*
X115407230Y-104050105D01*
X114909492Y-104256275D01*
X114461539Y-104555587D01*
X114080587Y-104936539D01*
X113781275Y-105384492D01*
X113575105Y-105882230D01*
X113470000Y-106410626D01*
X109684481Y-106410626D01*
X109738475Y-106356632D01*
X109900990Y-106113411D01*
X110012932Y-105843158D01*
X110070000Y-105556260D01*
X110070000Y-105263740D01*
X110012932Y-104976842D01*
X109900990Y-104706589D01*
X109738475Y-104463368D01*
X109606620Y-104331513D01*
X109679180Y-104309502D01*
X109789494Y-104250537D01*
X109886185Y-104171185D01*
X109965537Y-104074494D01*
X110024502Y-103964180D01*
X110060812Y-103844482D01*
X110073072Y-103720000D01*
X110070000Y-103155750D01*
X109911250Y-102997000D01*
X108712000Y-102997000D01*
X108712000Y-103017000D01*
X108458000Y-103017000D01*
X108458000Y-102997000D01*
X108438000Y-102997000D01*
X108438000Y-102932595D01*
X117103282Y-102932595D01*
X117147039Y-103251675D01*
X117252205Y-103556088D01*
X117345186Y-103730044D01*
X117609587Y-103825808D01*
X118565395Y-102870000D01*
X118924605Y-102870000D01*
X119880413Y-103825808D01*
X120144814Y-103730044D01*
X120285704Y-103440429D01*
X120367384Y-103128892D01*
X120379189Y-102932595D01*
X134883282Y-102932595D01*
X134927039Y-103251675D01*
X135032205Y-103556088D01*
X135125186Y-103730044D01*
X135389587Y-103825808D01*
X136345395Y-102870000D01*
X136704605Y-102870000D01*
X137660413Y-103825808D01*
X137924814Y-103730044D01*
X138065704Y-103440429D01*
X138147384Y-103128892D01*
X138154859Y-103004587D01*
X146999192Y-103004587D01*
X147955000Y-103960395D01*
X148910808Y-103004587D01*
X148815044Y-102740186D01*
X148525429Y-102599296D01*
X148213892Y-102517616D01*
X147892405Y-102498282D01*
X147573325Y-102542039D01*
X147268912Y-102647205D01*
X147094956Y-102740186D01*
X146999192Y-103004587D01*
X138154859Y-103004587D01*
X138166718Y-102807405D01*
X138122961Y-102488325D01*
X138017795Y-102183912D01*
X137924814Y-102009956D01*
X137660413Y-101914192D01*
X136704605Y-102870000D01*
X136345395Y-102870000D01*
X135389587Y-101914192D01*
X135125186Y-102009956D01*
X134984296Y-102299571D01*
X134902616Y-102611108D01*
X134883282Y-102932595D01*
X120379189Y-102932595D01*
X120386718Y-102807405D01*
X120342961Y-102488325D01*
X120237795Y-102183912D01*
X120144814Y-102009956D01*
X119880413Y-101914192D01*
X118924605Y-102870000D01*
X118565395Y-102870000D01*
X117609587Y-101914192D01*
X117345186Y-102009956D01*
X117204296Y-102299571D01*
X117122616Y-102611108D01*
X117103282Y-102932595D01*
X108438000Y-102932595D01*
X108438000Y-102743000D01*
X108458000Y-102743000D01*
X108458000Y-101543750D01*
X108712000Y-101543750D01*
X108712000Y-102743000D01*
X109911250Y-102743000D01*
X110070000Y-102584250D01*
X110073072Y-102020000D01*
X110060812Y-101895518D01*
X110024502Y-101775820D01*
X110002463Y-101734587D01*
X117789192Y-101734587D01*
X118745000Y-102690395D01*
X119700808Y-101734587D01*
X135569192Y-101734587D01*
X136525000Y-102690395D01*
X137480808Y-101734587D01*
X137385044Y-101470186D01*
X137095429Y-101329296D01*
X136783892Y-101247616D01*
X136462405Y-101228282D01*
X136143325Y-101272039D01*
X135838912Y-101377205D01*
X135664956Y-101470186D01*
X135569192Y-101734587D01*
X119700808Y-101734587D01*
X119605044Y-101470186D01*
X119315429Y-101329296D01*
X119003892Y-101247616D01*
X118682405Y-101228282D01*
X118363325Y-101272039D01*
X118058912Y-101377205D01*
X117884956Y-101470186D01*
X117789192Y-101734587D01*
X110002463Y-101734587D01*
X109965537Y-101665506D01*
X109886185Y-101568815D01*
X109789494Y-101489463D01*
X109679180Y-101430498D01*
X109559482Y-101394188D01*
X109435000Y-101381928D01*
X108870750Y-101385000D01*
X108712000Y-101543750D01*
X108458000Y-101543750D01*
X108299250Y-101385000D01*
X108033558Y-101383553D01*
X108184199Y-101321156D01*
X108484744Y-101120338D01*
X108740338Y-100864744D01*
X108941156Y-100564199D01*
X109079482Y-100230250D01*
X109150000Y-99875732D01*
X109150000Y-99514268D01*
X109079482Y-99159750D01*
X108941156Y-98825801D01*
X108740338Y-98525256D01*
X108665082Y-98450000D01*
X193650001Y-98450000D01*
X193650000Y-99727418D01*
G37*
G04 #@! TD.AperFunction*
G04 #@! TD*
M02*
