G04 #@! TF.GenerationSoftware,KiCad,Pcbnew,(5.1.8)-1*
G04 #@! TF.CreationDate,2021-10-14T01:25:15+09:00*
G04 #@! TF.ProjectId,windsynth,77696e64-7379-46e7-9468-2e6b69636164,rev?*
G04 #@! TF.SameCoordinates,Original*
G04 #@! TF.FileFunction,Copper,L1,Top*
G04 #@! TF.FilePolarity,Positive*
%FSLAX46Y46*%
G04 Gerber Fmt 4.6, Leading zero omitted, Abs format (unit mm)*
G04 Created by KiCad (PCBNEW (5.1.8)-1) date 2021-10-14 01:25:15*
%MOMM*%
%LPD*%
G01*
G04 APERTURE LIST*
G04 #@! TA.AperFunction,ComponentPad*
%ADD10C,2.000000*%
G04 #@! TD*
G04 #@! TA.AperFunction,ComponentPad*
%ADD11C,4.200000*%
G04 #@! TD*
G04 #@! TA.AperFunction,ComponentPad*
%ADD12O,1.700000X1.700000*%
G04 #@! TD*
G04 #@! TA.AperFunction,ComponentPad*
%ADD13R,1.700000X1.700000*%
G04 #@! TD*
G04 #@! TA.AperFunction,ViaPad*
%ADD14C,2.400000*%
G04 #@! TD*
G04 #@! TA.AperFunction,ViaPad*
%ADD15C,0.800000*%
G04 #@! TD*
G04 #@! TA.AperFunction,Conductor*
%ADD16C,0.250000*%
G04 #@! TD*
G04 APERTURE END LIST*
D10*
G04 #@! TO.P,SW6,1*
G04 #@! TO.N,GND1*
X184785000Y-110490000D03*
G04 #@! TO.P,SW6,2*
G04 #@! TO.N,Net-(J6-Pad1)*
X182245000Y-104140000D03*
D11*
G04 #@! TO.P,SW6,3*
G04 #@! TO.N,N/C*
X187325000Y-106680000D03*
G04 #@! TD*
G04 #@! TO.P,SW7,3*
G04 #@! TO.N,N/C*
X169545000Y-106680000D03*
D10*
G04 #@! TO.P,SW7,2*
G04 #@! TO.N,Net-(J6-Pad2)*
X164465000Y-104140000D03*
G04 #@! TO.P,SW7,1*
G04 #@! TO.N,GND1*
X167005000Y-110490000D03*
G04 #@! TD*
G04 #@! TO.P,SW8,1*
G04 #@! TO.N,GND1*
X147955000Y-104140000D03*
G04 #@! TO.P,SW8,2*
G04 #@! TO.N,Net-(J6-Pad3)*
X154305000Y-101600000D03*
D11*
G04 #@! TO.P,SW8,3*
G04 #@! TO.N,N/C*
X151765000Y-106680000D03*
G04 #@! TD*
G04 #@! TO.P,SW9,3*
G04 #@! TO.N,N/C*
X133985000Y-106680000D03*
D10*
G04 #@! TO.P,SW9,2*
G04 #@! TO.N,Net-(J6-Pad4)*
X139065000Y-109220000D03*
G04 #@! TO.P,SW9,1*
G04 #@! TO.N,GND1*
X136525000Y-102870000D03*
G04 #@! TD*
G04 #@! TO.P,SW10,1*
G04 #@! TO.N,GND1*
X118745000Y-102870000D03*
G04 #@! TO.P,SW10,2*
G04 #@! TO.N,Net-(J6-Pad5)*
X121285000Y-109220000D03*
D11*
G04 #@! TO.P,SW10,3*
G04 #@! TO.N,N/C*
X116205000Y-106680000D03*
G04 #@! TD*
D12*
G04 #@! TO.P,SW11,2*
G04 #@! TO.N,Net-(J6-Pad6)*
X142875000Y-107950000D03*
D13*
G04 #@! TO.P,SW11,1*
G04 #@! TO.N,GND1*
X142875000Y-105410000D03*
G04 #@! TD*
G04 #@! TO.P,SW12,1*
G04 #@! TO.N,GND1*
X125095000Y-105410000D03*
D12*
G04 #@! TO.P,SW12,2*
G04 #@! TO.N,Net-(J6-Pad7)*
X125095000Y-107950000D03*
G04 #@! TD*
G04 #@! TO.P,J4,4*
G04 #@! TO.N,Net-(J4-Pad4)*
X194945000Y-110490000D03*
G04 #@! TO.P,J4,3*
G04 #@! TO.N,Net-(J4-Pad3)*
X194945000Y-107950000D03*
G04 #@! TO.P,J4,2*
G04 #@! TO.N,Net-(J4-Pad2)*
X194945000Y-105410000D03*
D13*
G04 #@! TO.P,J4,1*
G04 #@! TO.N,GND1*
X194945000Y-102870000D03*
G04 #@! TD*
G04 #@! TO.P,J5,1*
G04 #@! TO.N,GND1*
X108585000Y-102870000D03*
D12*
G04 #@! TO.P,J5,2*
G04 #@! TO.N,Net-(J4-Pad2)*
X108585000Y-105410000D03*
G04 #@! TO.P,J5,3*
G04 #@! TO.N,Net-(J4-Pad3)*
X108585000Y-107950000D03*
G04 #@! TO.P,J5,4*
G04 #@! TO.N,Net-(J4-Pad4)*
X108585000Y-110490000D03*
G04 #@! TD*
D13*
G04 #@! TO.P,J6,1*
G04 #@! TO.N,Net-(J6-Pad1)*
X158750000Y-114300000D03*
D12*
G04 #@! TO.P,J6,2*
G04 #@! TO.N,Net-(J6-Pad2)*
X156210000Y-114300000D03*
G04 #@! TO.P,J6,3*
G04 #@! TO.N,Net-(J6-Pad3)*
X153670000Y-114300000D03*
G04 #@! TO.P,J6,4*
G04 #@! TO.N,Net-(J6-Pad4)*
X151130000Y-114300000D03*
G04 #@! TO.P,J6,5*
G04 #@! TO.N,Net-(J6-Pad5)*
X148590000Y-114300000D03*
G04 #@! TO.P,J6,6*
G04 #@! TO.N,Net-(J6-Pad6)*
X146050000Y-114300000D03*
G04 #@! TO.P,J6,7*
G04 #@! TO.N,Net-(J6-Pad7)*
X143510000Y-114300000D03*
G04 #@! TO.P,J6,8*
G04 #@! TO.N,GND1*
X140970000Y-114300000D03*
G04 #@! TD*
D14*
G04 #@! TO.N,*
X107315000Y-99695000D03*
X196215000Y-113665000D03*
D15*
G04 #@! TO.N,Net-(J6-Pad4)*
X142240000Y-111125000D03*
G04 #@! TO.N,Net-(J6-Pad5)*
X148590000Y-108585000D03*
G04 #@! TO.N,Net-(J6-Pad7)*
X130175000Y-113030000D03*
G04 #@! TD*
D16*
G04 #@! TO.N,Net-(J4-Pad4)*
X108585000Y-110490000D02*
X114300000Y-110490000D01*
X114300000Y-110490000D02*
X115570000Y-111760000D01*
X115570000Y-111760000D02*
X139700000Y-111760000D01*
X139700000Y-111760000D02*
X141605000Y-109855000D01*
X141605000Y-109855000D02*
X154305000Y-109855000D01*
X154305000Y-109855000D02*
X162560000Y-101600000D01*
X186055000Y-101600000D02*
X194945000Y-110490000D01*
X162560000Y-101600000D02*
X186055000Y-101600000D01*
G04 #@! TO.N,Net-(J4-Pad3)*
X116205000Y-100330000D02*
X108585000Y-107950000D01*
X151765000Y-103505000D02*
X148590000Y-100330000D01*
X148590000Y-100330000D02*
X116205000Y-100330000D01*
X156845000Y-103505000D02*
X151765000Y-103505000D01*
X160020000Y-100330000D02*
X156845000Y-103505000D01*
X187325000Y-100330000D02*
X160020000Y-100330000D01*
X194945000Y-107950000D02*
X187325000Y-100330000D01*
G04 #@! TO.N,Net-(J4-Pad2)*
X188595000Y-99060000D02*
X194945000Y-105410000D01*
X114935000Y-99060000D02*
X188595000Y-99060000D01*
X108585000Y-105410000D02*
X114935000Y-99060000D01*
G04 #@! TO.N,Net-(J6-Pad1)*
X158750000Y-112395000D02*
X158750000Y-114300000D01*
X182245000Y-104140000D02*
X180975000Y-104140000D01*
X172720000Y-112395000D02*
X158750000Y-112395000D01*
X180975000Y-104140000D02*
X172720000Y-112395000D01*
G04 #@! TO.N,Net-(J6-Pad2)*
X156210000Y-112395000D02*
X156210000Y-111125000D01*
X156210000Y-112395000D02*
X156210000Y-114300000D01*
X163195000Y-104140000D02*
X164465000Y-104140000D01*
X156210000Y-111125000D02*
X163195000Y-104140000D01*
G04 #@! TO.N,Net-(J6-Pad4)*
X151130000Y-114300000D02*
X147955000Y-111125000D01*
X147955000Y-111125000D02*
X142240000Y-111125000D01*
G04 #@! TO.N,Net-(J6-Pad5)*
X121285000Y-103505000D02*
X121285000Y-109220000D01*
X132715000Y-101600000D02*
X123190000Y-101600000D01*
X135890000Y-104775000D02*
X132715000Y-101600000D01*
X123190000Y-101600000D02*
X121285000Y-103505000D01*
X139065000Y-104775000D02*
X135890000Y-104775000D01*
X140335000Y-103505000D02*
X139065000Y-104775000D01*
X144145000Y-103505000D02*
X140335000Y-103505000D01*
X148590000Y-107950000D02*
X144145000Y-103505000D01*
X148590000Y-108585000D02*
X148590000Y-107950000D01*
G04 #@! TO.N,Net-(J6-Pad7)*
X143510000Y-114300000D02*
X142240000Y-113030000D01*
X142240000Y-113030000D02*
X130175000Y-113030000D01*
G04 #@! TD*
M02*
