<?xml version="1.0" standalone="no"?>
 <!DOCTYPE svg PUBLIC "-//W3C//DTD SVG 1.1//EN" 
 "http://www.w3.org/Graphics/SVG/1.1/DTD/svg11.dtd"> 
<svg
  xmlns:svg="http://www.w3.org/2000/svg"
  xmlns="http://www.w3.org/2000/svg"
  xmlns:xlink="http://www.w3.org/1999/xlink"
  version="1.1"
  width="14.348460cm" height="13.124180cm" viewBox="0 0 56490 51670">
<title>SVG Picture created as windsynth-brd.svg date 2021/10/16 21:37:26 </title>
  <desc>Picture generated by PCBNEW </desc>
<g style="fill:#000000; fill-opacity:1;stroke:#000000; stroke-opacity:1;
stroke-linecap:round; stroke-linejoin:round;"
 transform="translate(0 0) scale(1 1)">
</g>
<g style="fill:#000000; fill-opacity:0.0; 
stroke:#000000; stroke-width:-0.000393701; stroke-opacity:1; 
stroke-linecap:round; stroke-linejoin:round;">
</g>
<g style="fill:#000000; fill-opacity:0.0; 
stroke:#000000; stroke-width:19.685; stroke-opacity:1; 
stroke-linecap:round; stroke-linejoin:round;">
<path d="M38247 27560
L42497 27560
" />
<path d="M12747 27560
L38247 27560
" />
<path d="M8247 27560
L12747 27560
" />
<path d="M11497 34560
L41247 34560
" />
<path d="M8997 34560
L11497 34560
" />
<path d="M41247 34560
L43247 34560
" />
<path d="M43247 33060
L43247 29060
" />
<path d="M8247 29060
L8247 33060
" />
<path d="M8997 34560
L8997 33810
" />
<path d="M8997.38 33810 A750 750 0.0 0 0 8247.38 33060" />
<path d="M42497 28310
L42497 27560
" />
<path d="M42497.4 28310 A750 750 0.0 0 0 43247.4 29060" />
<path d="M43247.4 34560 A750 750 0.0 0 0 43247.4 33060" />
<path d="M8247.38 27560 A750 750 0.0 0 0 8247.38 29060" />
<g >
</g>
<g >
</g>
<g >
</g>
<g >
</g>
<g >
</g>
<g >
</g>
<g >
</g>
<g >
</g>
<g >
</g>
<g >
</g>
<g >
</g>
</g> 
</svg>
