<?xml version="1.0" standalone="no"?>
 <!DOCTYPE svg PUBLIC "-//W3C//DTD SVG 1.1//EN" 
 "http://www.w3.org/Graphics/SVG/1.1/DTD/svg11.dtd"> 
<svg
  xmlns:svg="http://www.w3.org/2000/svg"
  xmlns="http://www.w3.org/2000/svg"
  xmlns:xlink="http://www.w3.org/1999/xlink"
  version="1.1"
  width="29.700220cm" height="21.000720cm" viewBox="0 0 116930 82680">
<title>SVG Picture created as windsynth-B_Cu.svg date 2021/10/16 21:24:01 </title>
  <desc>Picture generated by PCBNEW </desc>
<g style="fill:#000000; fill-opacity:1;stroke:#000000; stroke-opacity:1;
stroke-linecap:round; stroke-linejoin:round;"
 transform="translate(0 0) scale(1 1)">
</g>
<g style="fill:#000000; fill-opacity:0.0; 
stroke:#000000; stroke-width:-0.000393701; stroke-opacity:1; 
stroke-linecap:round; stroke-linejoin:round;">
</g>
<g style="fill:#000000; fill-opacity:0.0; 
stroke:#000000; stroke-width:39.3701; stroke-opacity:1; 
stroke-linecap:round; stroke-linejoin:round;">
</g>
<g style="fill:#000000; fill-opacity:0.0; 
stroke:#000000; stroke-width:59.0551; stroke-opacity:1; 
stroke-linecap:round; stroke-linejoin:round;">
<rect x="69685.9" y="65357.2" width="42519.7" height="12598.4" rx="0" />
</g>
<g style="fill:#000000; fill-opacity:0.0; 
stroke:#000000; stroke-width:39.3701; stroke-opacity:1; 
stroke-linecap:round; stroke-linejoin:round;">
</g>
<g style="fill:#000000; fill-opacity:0.0; 
stroke:#000000; stroke-width:59.0551; stroke-opacity:1; 
stroke-linecap:round; stroke-linejoin:round;">
<rect x="3937.01" y="3937.01" width="109056" height="74806" rx="0" />
</g>
<g style="fill:#000000; fill-opacity:0.0; 
stroke:#000000; stroke-width:39.3701; stroke-opacity:1; 
stroke-linecap:round; stroke-linejoin:round;">
</g>
<g style="fill:#000000; fill-opacity:0.0; 
stroke:#000000; stroke-width:59.0551; stroke-opacity:1; 
stroke-linecap:round; stroke-linejoin:round;">
<rect x="4724.41" y="4724.41" width="107481" height="73231.2" rx="0" />
</g>
<g style="fill:#000000; fill-opacity:0.0; 
stroke:#000000; stroke-width:39.3701; stroke-opacity:1; 
stroke-linecap:round; stroke-linejoin:round;">
</g>
<g style="fill:#000000; fill-opacity:0.0; 
stroke:#000000; stroke-width:59.0551; stroke-opacity:1; 
stroke-linecap:round; stroke-linejoin:round;">
<path d="M23622 4724
L23622 3937
" />
</g>
<g style="fill:#000000; fill-opacity:0.0; 
stroke:#000000; stroke-width:39.3701; stroke-opacity:1; 
stroke-linecap:round; stroke-linejoin:round;">
</g>
<g style="fill:#000000; fill-opacity:0.0; 
stroke:#000000; stroke-width:59.0551; stroke-opacity:1; 
stroke-linecap:round; stroke-linejoin:round;">
<path d="M43307 4724
L43307 3937
" />
</g>
<g style="fill:#000000; fill-opacity:0.0; 
stroke:#000000; stroke-width:39.3701; stroke-opacity:1; 
stroke-linecap:round; stroke-linejoin:round;">
</g>
<g style="fill:#000000; fill-opacity:0.0; 
stroke:#000000; stroke-width:59.0551; stroke-opacity:1; 
stroke-linecap:round; stroke-linejoin:round;">
<path d="M62992 4724
L62992 3937
" />
</g>
<g style="fill:#000000; fill-opacity:0.0; 
stroke:#000000; stroke-width:39.3701; stroke-opacity:1; 
stroke-linecap:round; stroke-linejoin:round;">
</g>
<g style="fill:#000000; fill-opacity:0.0; 
stroke:#000000; stroke-width:59.0551; stroke-opacity:1; 
stroke-linecap:round; stroke-linejoin:round;">
<path d="M82677 4724
L82677 3937
" />
</g>
<g style="fill:#000000; fill-opacity:0.0; 
stroke:#000000; stroke-width:39.3701; stroke-opacity:1; 
stroke-linecap:round; stroke-linejoin:round;">
</g>
<g style="fill:#000000; fill-opacity:0.0; 
stroke:#000000; stroke-width:59.0551; stroke-opacity:1; 
stroke-linecap:round; stroke-linejoin:round;">
<path d="M102362 4724
L102362 3937
" />
</g>
<g style="fill:#000000; fill-opacity:0.0; 
stroke:#000000; stroke-width:39.3701; stroke-opacity:1; 
stroke-linecap:round; stroke-linejoin:round;">
</g>
<g style="fill:#000000; fill-opacity:0.0; 
stroke:#000000; stroke-width:59.0551; stroke-opacity:1; 
stroke-linecap:round; stroke-linejoin:round;">
<text x="13779.5" y="4586.61"
textLength="546.494" font-size="682.415" lengthAdjust="spacingAndGlyphs"
text-anchor="start" opacity="0">1</text>
<path d="M14199 4562
L13906 4562
" />
<path d="M14052 4562
L14052 4050
L14004 4123
L13955 4172
L13906 4196
" />
</g>
<g style="fill:#000000; fill-opacity:0.0; 
stroke:#000000; stroke-width:39.3701; stroke-opacity:1; 
stroke-linecap:round; stroke-linejoin:round;">
</g>
<g style="fill:#000000; fill-opacity:0.0; 
stroke:#000000; stroke-width:59.0551; stroke-opacity:1; 
stroke-linecap:round; stroke-linejoin:round;">
<text x="33464.6" y="4586.61"
textLength="546.494" font-size="682.415" lengthAdjust="spacingAndGlyphs"
text-anchor="start" opacity="0">2</text>
<path d="M33591 4099
L33615 4074
L33664 4050
L33786 4050
L33835 4074
L33859 4099
L33884 4147
L33884 4196
L33859 4269
L33567 4562
L33884 4562
" />
</g>
<g style="fill:#000000; fill-opacity:0.0; 
stroke:#000000; stroke-width:39.3701; stroke-opacity:1; 
stroke-linecap:round; stroke-linejoin:round;">
</g>
<g style="fill:#000000; fill-opacity:0.0; 
stroke:#000000; stroke-width:59.0551; stroke-opacity:1; 
stroke-linecap:round; stroke-linejoin:round;">
<text x="53149.6" y="4586.61"
textLength="546.494" font-size="682.415" lengthAdjust="spacingAndGlyphs"
text-anchor="start" opacity="0">3</text>
<path d="M53252 4050
L53569 4050
L53398 4245
L53471 4245
L53520 4269
L53544 4294
L53569 4342
L53569 4464
L53544 4513
L53520 4537
L53471 4562
L53325 4562
L53276 4537
L53252 4513
" />
</g>
<g style="fill:#000000; fill-opacity:0.0; 
stroke:#000000; stroke-width:39.3701; stroke-opacity:1; 
stroke-linecap:round; stroke-linejoin:round;">
</g>
<g style="fill:#000000; fill-opacity:0.0; 
stroke:#000000; stroke-width:59.0551; stroke-opacity:1; 
stroke-linecap:round; stroke-linejoin:round;">
<text x="72834.6" y="4586.61"
textLength="546.494" font-size="682.415" lengthAdjust="spacingAndGlyphs"
text-anchor="start" opacity="0">4</text>
<path d="M73205 4221
L73205 4562
" />
<path d="M73083 4026
L72961 4391
L73278 4391
" />
</g>
<g style="fill:#000000; fill-opacity:0.0; 
stroke:#000000; stroke-width:39.3701; stroke-opacity:1; 
stroke-linecap:round; stroke-linejoin:round;">
</g>
<g style="fill:#000000; fill-opacity:0.0; 
stroke:#000000; stroke-width:59.0551; stroke-opacity:1; 
stroke-linecap:round; stroke-linejoin:round;">
<text x="92519.7" y="4586.61"
textLength="546.494" font-size="682.415" lengthAdjust="spacingAndGlyphs"
text-anchor="start" opacity="0">5</text>
<path d="M92914 4050
L92671 4050
L92646 4294
L92671 4269
L92719 4245
L92841 4245
L92890 4269
L92914 4294
L92939 4342
L92939 4464
L92914 4513
L92890 4537
L92841 4562
L92719 4562
L92671 4537
L92646 4513
" />
</g>
<g style="fill:#000000; fill-opacity:0.0; 
stroke:#000000; stroke-width:39.3701; stroke-opacity:1; 
stroke-linecap:round; stroke-linejoin:round;">
</g>
<g style="fill:#000000; fill-opacity:0.0; 
stroke:#000000; stroke-width:59.0551; stroke-opacity:1; 
stroke-linecap:round; stroke-linejoin:round;">
<text x="112205" y="4586.61"
textLength="546.494" font-size="682.415" lengthAdjust="spacingAndGlyphs"
text-anchor="start" opacity="0">6</text>
<path d="M112575 4050
L112477 4050
L112429 4074
L112404 4099
L112356 4172
L112331 4269
L112331 4464
L112356 4513
L112380 4537
L112429 4562
L112526 4562
L112575 4537
L112599 4513
L112624 4464
L112624 4342
L112599 4294
L112575 4269
L112526 4245
L112429 4245
L112380 4269
L112356 4294
L112331 4342
" />
</g>
<g style="fill:#000000; fill-opacity:0.0; 
stroke:#000000; stroke-width:39.3701; stroke-opacity:1; 
stroke-linecap:round; stroke-linejoin:round;">
</g>
<g style="fill:#000000; fill-opacity:0.0; 
stroke:#000000; stroke-width:59.0551; stroke-opacity:1; 
stroke-linecap:round; stroke-linejoin:round;">
<path d="M23622 77955
L23622 78742
" />
</g>
<g style="fill:#000000; fill-opacity:0.0; 
stroke:#000000; stroke-width:39.3701; stroke-opacity:1; 
stroke-linecap:round; stroke-linejoin:round;">
</g>
<g style="fill:#000000; fill-opacity:0.0; 
stroke:#000000; stroke-width:59.0551; stroke-opacity:1; 
stroke-linecap:round; stroke-linejoin:round;">
<path d="M43307 77955
L43307 78742
" />
</g>
<g style="fill:#000000; fill-opacity:0.0; 
stroke:#000000; stroke-width:39.3701; stroke-opacity:1; 
stroke-linecap:round; stroke-linejoin:round;">
</g>
<g style="fill:#000000; fill-opacity:0.0; 
stroke:#000000; stroke-width:59.0551; stroke-opacity:1; 
stroke-linecap:round; stroke-linejoin:round;">
<path d="M62992 77955
L62992 78742
" />
</g>
<g style="fill:#000000; fill-opacity:0.0; 
stroke:#000000; stroke-width:39.3701; stroke-opacity:1; 
stroke-linecap:round; stroke-linejoin:round;">
</g>
<g style="fill:#000000; fill-opacity:0.0; 
stroke:#000000; stroke-width:59.0551; stroke-opacity:1; 
stroke-linecap:round; stroke-linejoin:round;">
<path d="M82677 77955
L82677 78742
" />
</g>
<g style="fill:#000000; fill-opacity:0.0; 
stroke:#000000; stroke-width:39.3701; stroke-opacity:1; 
stroke-linecap:round; stroke-linejoin:round;">
</g>
<g style="fill:#000000; fill-opacity:0.0; 
stroke:#000000; stroke-width:59.0551; stroke-opacity:1; 
stroke-linecap:round; stroke-linejoin:round;">
<path d="M102362 77955
L102362 78742
" />
</g>
<g style="fill:#000000; fill-opacity:0.0; 
stroke:#000000; stroke-width:39.3701; stroke-opacity:1; 
stroke-linecap:round; stroke-linejoin:round;">
</g>
<g style="fill:#000000; fill-opacity:0.0; 
stroke:#000000; stroke-width:59.0551; stroke-opacity:1; 
stroke-linecap:round; stroke-linejoin:round;">
<text x="13779.5" y="78605.2"
textLength="546.494" font-size="682.415" lengthAdjust="spacingAndGlyphs"
text-anchor="start" opacity="0">1</text>
<path d="M14199 78580
L13906 78580
" />
<path d="M14052 78580
L14052 78069
L14004 78142
L13955 78190
L13906 78215
" />
</g>
<g style="fill:#000000; fill-opacity:0.0; 
stroke:#000000; stroke-width:39.3701; stroke-opacity:1; 
stroke-linecap:round; stroke-linejoin:round;">
</g>
<g style="fill:#000000; fill-opacity:0.0; 
stroke:#000000; stroke-width:59.0551; stroke-opacity:1; 
stroke-linecap:round; stroke-linejoin:round;">
<text x="33464.6" y="78605.2"
textLength="546.494" font-size="682.415" lengthAdjust="spacingAndGlyphs"
text-anchor="start" opacity="0">2</text>
<path d="M33591 78117
L33615 78093
L33664 78069
L33786 78069
L33835 78093
L33859 78117
L33884 78166
L33884 78215
L33859 78288
L33567 78580
L33884 78580
" />
</g>
<g style="fill:#000000; fill-opacity:0.0; 
stroke:#000000; stroke-width:39.3701; stroke-opacity:1; 
stroke-linecap:round; stroke-linejoin:round;">
</g>
<g style="fill:#000000; fill-opacity:0.0; 
stroke:#000000; stroke-width:59.0551; stroke-opacity:1; 
stroke-linecap:round; stroke-linejoin:round;">
<text x="53149.6" y="78605.2"
textLength="546.494" font-size="682.415" lengthAdjust="spacingAndGlyphs"
text-anchor="start" opacity="0">3</text>
<path d="M53252 78069
L53569 78069
L53398 78263
L53471 78263
L53520 78288
L53544 78312
L53569 78361
L53569 78483
L53544 78532
L53520 78556
L53471 78580
L53325 78580
L53276 78556
L53252 78532
" />
</g>
<g style="fill:#000000; fill-opacity:0.0; 
stroke:#000000; stroke-width:39.3701; stroke-opacity:1; 
stroke-linecap:round; stroke-linejoin:round;">
</g>
<g style="fill:#000000; fill-opacity:0.0; 
stroke:#000000; stroke-width:59.0551; stroke-opacity:1; 
stroke-linecap:round; stroke-linejoin:round;">
<text x="72834.6" y="78605.2"
textLength="546.494" font-size="682.415" lengthAdjust="spacingAndGlyphs"
text-anchor="start" opacity="0">4</text>
<path d="M73205 78239
L73205 78580
" />
<path d="M73083 78044
L72961 78410
L73278 78410
" />
</g>
<g style="fill:#000000; fill-opacity:0.0; 
stroke:#000000; stroke-width:39.3701; stroke-opacity:1; 
stroke-linecap:round; stroke-linejoin:round;">
</g>
<g style="fill:#000000; fill-opacity:0.0; 
stroke:#000000; stroke-width:59.0551; stroke-opacity:1; 
stroke-linecap:round; stroke-linejoin:round;">
<text x="92519.7" y="78605.2"
textLength="546.494" font-size="682.415" lengthAdjust="spacingAndGlyphs"
text-anchor="start" opacity="0">5</text>
<path d="M92914 78069
L92671 78069
L92646 78312
L92671 78288
L92719 78263
L92841 78263
L92890 78288
L92914 78312
L92939 78361
L92939 78483
L92914 78532
L92890 78556
L92841 78580
L92719 78580
L92671 78556
L92646 78532
" />
</g>
<g style="fill:#000000; fill-opacity:0.0; 
stroke:#000000; stroke-width:39.3701; stroke-opacity:1; 
stroke-linecap:round; stroke-linejoin:round;">
</g>
<g style="fill:#000000; fill-opacity:0.0; 
stroke:#000000; stroke-width:59.0551; stroke-opacity:1; 
stroke-linecap:round; stroke-linejoin:round;">
<text x="112205" y="78605.2"
textLength="546.494" font-size="682.415" lengthAdjust="spacingAndGlyphs"
text-anchor="start" opacity="0">6</text>
<path d="M112575 78069
L112477 78069
L112429 78093
L112404 78117
L112356 78190
L112331 78288
L112331 78483
L112356 78532
L112380 78556
L112429 78580
L112526 78580
L112575 78556
L112599 78532
L112624 78483
L112624 78361
L112599 78312
L112575 78288
L112526 78263
L112429 78263
L112380 78288
L112356 78312
L112331 78361
" />
</g>
<g style="fill:#000000; fill-opacity:0.0; 
stroke:#000000; stroke-width:39.3701; stroke-opacity:1; 
stroke-linecap:round; stroke-linejoin:round;">
</g>
<g style="fill:#000000; fill-opacity:0.0; 
stroke:#000000; stroke-width:59.0551; stroke-opacity:1; 
stroke-linecap:round; stroke-linejoin:round;">
<path d="M3937 23622
L4724 23622
" />
</g>
<g style="fill:#000000; fill-opacity:0.0; 
stroke:#000000; stroke-width:39.3701; stroke-opacity:1; 
stroke-linecap:round; stroke-linejoin:round;">
</g>
<g style="fill:#000000; fill-opacity:0.0; 
stroke:#000000; stroke-width:59.0551; stroke-opacity:1; 
stroke-linecap:round; stroke-linejoin:round;">
<path d="M3937 43307
L4724 43307
" />
</g>
<g style="fill:#000000; fill-opacity:0.0; 
stroke:#000000; stroke-width:39.3701; stroke-opacity:1; 
stroke-linecap:round; stroke-linejoin:round;">
</g>
<g style="fill:#000000; fill-opacity:0.0; 
stroke:#000000; stroke-width:59.0551; stroke-opacity:1; 
stroke-linecap:round; stroke-linejoin:round;">
<path d="M3937 62992
L4724 62992
" />
</g>
<g style="fill:#000000; fill-opacity:0.0; 
stroke:#000000; stroke-width:39.3701; stroke-opacity:1; 
stroke-linecap:round; stroke-linejoin:round;">
</g>
<g style="fill:#000000; fill-opacity:0.0; 
stroke:#000000; stroke-width:59.0551; stroke-opacity:1; 
stroke-linecap:round; stroke-linejoin:round;">
<text x="4330.71" y="14035.4"
textLength="497.75" font-size="682.415" lengthAdjust="spacingAndGlyphs"
text-anchor="middle" opacity="0">A</text>
<path d="M4208 13864
L4452 13864
" />
<path d="M4160 14011
L4330 13499
L4501 14011
" />
</g>
<g style="fill:#000000; fill-opacity:0.0; 
stroke:#000000; stroke-width:39.3701; stroke-opacity:1; 
stroke-linecap:round; stroke-linejoin:round;">
</g>
<g style="fill:#000000; fill-opacity:0.0; 
stroke:#000000; stroke-width:59.0551; stroke-opacity:1; 
stroke-linecap:round; stroke-linejoin:round;">
<text x="4330.71" y="33720.5"
textLength="570.866" font-size="682.415" lengthAdjust="spacingAndGlyphs"
text-anchor="middle" opacity="0">B</text>
<path d="M4367 33428
L4440 33452
L4464 33476
L4489 33525
L4489 33598
L4464 33647
L4440 33671
L4391 33696
L4196 33696
L4196 33184
L4367 33184
L4416 33208
L4440 33233
L4464 33281
L4464 33330
L4440 33379
L4416 33403
L4367 33428
L4196 33428
" />
</g>
<g style="fill:#000000; fill-opacity:0.0; 
stroke:#000000; stroke-width:39.3701; stroke-opacity:1; 
stroke-linecap:round; stroke-linejoin:round;">
</g>
<g style="fill:#000000; fill-opacity:0.0; 
stroke:#000000; stroke-width:59.0551; stroke-opacity:1; 
stroke-linecap:round; stroke-linejoin:round;">
<text x="4330.71" y="53405.5"
textLength="570.866" font-size="682.415" lengthAdjust="spacingAndGlyphs"
text-anchor="middle" opacity="0">C</text>
<path d="M4489 53332
L4464 53356
L4391 53381
L4342 53381
L4269 53356
L4221 53308
L4196 53259
L4172 53161
L4172 53088
L4196 52991
L4221 52942
L4269 52893
L4342 52869
L4391 52869
L4464 52893
L4489 52918
" />
</g>
<g style="fill:#000000; fill-opacity:0.0; 
stroke:#000000; stroke-width:39.3701; stroke-opacity:1; 
stroke-linecap:round; stroke-linejoin:round;">
</g>
<g style="fill:#000000; fill-opacity:0.0; 
stroke:#000000; stroke-width:59.0551; stroke-opacity:1; 
stroke-linecap:round; stroke-linejoin:round;">
<text x="4330.71" y="73090.6"
textLength="570.866" font-size="682.415" lengthAdjust="spacingAndGlyphs"
text-anchor="middle" opacity="0">D</text>
<path d="M4196 73066
L4196 72554
L4318 72554
L4391 72578
L4440 72627
L4464 72676
L4489 72773
L4489 72846
L4464 72944
L4440 72993
L4391 73041
L4318 73066
L4196 73066
" />
</g>
<g style="fill:#000000; fill-opacity:0.0; 
stroke:#000000; stroke-width:39.3701; stroke-opacity:1; 
stroke-linecap:round; stroke-linejoin:round;">
</g>
<g style="fill:#000000; fill-opacity:0.0; 
stroke:#000000; stroke-width:59.0551; stroke-opacity:1; 
stroke-linecap:round; stroke-linejoin:round;">
<path d="M112992 23622
L112205 23622
" />
</g>
<g style="fill:#000000; fill-opacity:0.0; 
stroke:#000000; stroke-width:39.3701; stroke-opacity:1; 
stroke-linecap:round; stroke-linejoin:round;">
</g>
<g style="fill:#000000; fill-opacity:0.0; 
stroke:#000000; stroke-width:59.0551; stroke-opacity:1; 
stroke-linecap:round; stroke-linejoin:round;">
<path d="M112992 43307
L112205 43307
" />
</g>
<g style="fill:#000000; fill-opacity:0.0; 
stroke:#000000; stroke-width:39.3701; stroke-opacity:1; 
stroke-linecap:round; stroke-linejoin:round;">
</g>
<g style="fill:#000000; fill-opacity:0.0; 
stroke:#000000; stroke-width:59.0551; stroke-opacity:1; 
stroke-linecap:round; stroke-linejoin:round;">
<path d="M112992 62992
L112205 62992
" />
</g>
<g style="fill:#000000; fill-opacity:0.0; 
stroke:#000000; stroke-width:39.3701; stroke-opacity:1; 
stroke-linecap:round; stroke-linejoin:round;">
</g>
<g style="fill:#000000; fill-opacity:0.0; 
stroke:#000000; stroke-width:59.0551; stroke-opacity:1; 
stroke-linecap:round; stroke-linejoin:round;">
<text x="112599" y="14035.4"
textLength="497.75" font-size="682.415" lengthAdjust="spacingAndGlyphs"
text-anchor="middle" opacity="0">A</text>
<path d="M112477 13864
L112721 13864
" />
<path d="M112428 14011
L112599 13499
L112769 14011
" />
</g>
<g style="fill:#000000; fill-opacity:0.0; 
stroke:#000000; stroke-width:39.3701; stroke-opacity:1; 
stroke-linecap:round; stroke-linejoin:round;">
</g>
<g style="fill:#000000; fill-opacity:0.0; 
stroke:#000000; stroke-width:59.0551; stroke-opacity:1; 
stroke-linecap:round; stroke-linejoin:round;">
<text x="112599" y="33720.5"
textLength="570.866" font-size="682.415" lengthAdjust="spacingAndGlyphs"
text-anchor="middle" opacity="0">B</text>
<path d="M112635 33428
L112708 33452
L112733 33476
L112757 33525
L112757 33598
L112733 33647
L112708 33671
L112660 33696
L112465 33696
L112465 33184
L112635 33184
L112684 33208
L112708 33233
L112733 33281
L112733 33330
L112708 33379
L112684 33403
L112635 33428
L112465 33428
" />
</g>
<g style="fill:#000000; fill-opacity:0.0; 
stroke:#000000; stroke-width:39.3701; stroke-opacity:1; 
stroke-linecap:round; stroke-linejoin:round;">
</g>
<g style="fill:#000000; fill-opacity:0.0; 
stroke:#000000; stroke-width:59.0551; stroke-opacity:1; 
stroke-linecap:round; stroke-linejoin:round;">
<text x="112599" y="53405.5"
textLength="570.866" font-size="682.415" lengthAdjust="spacingAndGlyphs"
text-anchor="middle" opacity="0">C</text>
<path d="M112757 53332
L112733 53356
L112660 53381
L112611 53381
L112538 53356
L112489 53308
L112465 53259
L112440 53161
L112440 53088
L112465 52991
L112489 52942
L112538 52893
L112611 52869
L112660 52869
L112733 52893
L112757 52918
" />
</g>
<g style="fill:#000000; fill-opacity:0.0; 
stroke:#000000; stroke-width:39.3701; stroke-opacity:1; 
stroke-linecap:round; stroke-linejoin:round;">
</g>
<g style="fill:#000000; fill-opacity:0.0; 
stroke:#000000; stroke-width:59.0551; stroke-opacity:1; 
stroke-linecap:round; stroke-linejoin:round;">
<text x="112599" y="73090.6"
textLength="570.866" font-size="682.415" lengthAdjust="spacingAndGlyphs"
text-anchor="middle" opacity="0">D</text>
<path d="M112465 73066
L112465 72554
L112587 72554
L112660 72578
L112708 72627
L112733 72676
L112757 72773
L112757 72846
L112733 72944
L112708 72993
L112660 73041
L112587 73066
L112465 73066
" />
</g>
<g style="fill:#000000; fill-opacity:0.0; 
stroke:#000000; stroke-width:39.3701; stroke-opacity:1; 
stroke-linecap:round; stroke-linejoin:round;">
</g>
<g style="fill:#000000; fill-opacity:0.0; 
stroke:#000000; stroke-width:59.0551; stroke-opacity:1; 
stroke-linecap:round; stroke-linejoin:round;">
<text x="78741" y="76321.7"
textLength="2758.72" font-size="787.402" lengthAdjust="spacingAndGlyphs"
text-anchor="start" opacity="0">Date: </text>
<path d="M78911 76293
L78911 75703
L79051 75703
L79136 75731
L79192 75787
L79220 75843
L79248 75956
L79248 76040
L79220 76153
L79192 76209
L79136 76265
L79051 76293
L78911 76293
" />
<path d="M79754 76293
L79754 75984
L79726 75928
L79670 75899
L79557 75899
L79501 75928
" />
<path d="M79754 76265
L79698 76293
L79557 76293
L79501 76265
L79473 76209
L79473 76153
L79501 76096
L79557 76068
L79698 76068
L79754 76040
" />
<path d="M79951 75899
L80176 75899
" />
<path d="M80036 75703
L80036 76209
L80064 76265
L80120 76293
L80176 76293
" />
<path d="M80598 76265
L80542 76293
L80429 76293
L80373 76265
L80345 76209
L80345 75984
L80373 75928
L80429 75899
L80542 75899
L80598 75928
L80626 75984
L80626 76040
L80345 76096
" />
<path d="M80879 76237
L80907 76265
L80879 76293
L80851 76265
L80879 76237
L80879 76293
" />
<path d="M80879 75928
L80907 75956
L80879 75984
L80851 75956
L80879 75928
L80879 75984
" />
</g>
<g style="fill:#000000; fill-opacity:0.0; 
stroke:#000000; stroke-width:39.3701; stroke-opacity:1; 
stroke-linecap:round; stroke-linejoin:round;">
</g>
<g style="fill:#000000; fill-opacity:0.0; 
stroke:#000000; stroke-width:59.0551; stroke-opacity:1; 
stroke-linecap:round; stroke-linejoin:round;">
<path d="M69685 76577
L112205 76577
" />
</g>
<g style="fill:#000000; fill-opacity:0.0; 
stroke:#000000; stroke-width:39.3701; stroke-opacity:1; 
stroke-linecap:round; stroke-linejoin:round;">
</g>
<g style="fill:#000000; fill-opacity:0.0; 
stroke:#000000; stroke-width:59.0551; stroke-opacity:1; 
stroke-linecap:round; stroke-linejoin:round;">
<text x="70079.6" y="77424.1"
textLength="13529.2" font-size="787.402" lengthAdjust="spacingAndGlyphs"
text-anchor="start" opacity="0">KiCad E.D.A.  kicad (5.1.8)-1</text>
<path d="M70249 77395
L70249 76805
" />
<path d="M70587 77395
L70334 77058
" />
<path d="M70587 76805
L70249 77142
" />
<path d="M70840 77395
L70840 77002
" />
<path d="M70840 76805
L70812 76833
L70840 76861
L70868 76833
L70840 76805
L70840 76861
" />
<path d="M71458 77339
L71430 77367
L71346 77395
L71290 77395
L71205 77367
L71149 77311
L71121 77255
L71093 77142
L71093 77058
L71121 76946
L71149 76889
L71205 76833
L71290 76805
L71346 76805
L71430 76833
L71458 76861
" />
<path d="M71965 77395
L71965 77086
L71937 77030
L71880 77002
L71768 77002
L71712 77030
" />
<path d="M71965 77367
L71908 77395
L71768 77395
L71712 77367
L71683 77311
L71683 77255
L71712 77199
L71768 77171
L71908 77171
L71965 77142
" />
<path d="M72499 77395
L72499 76805
" />
<path d="M72499 77367
L72443 77395
L72330 77395
L72274 77367
L72246 77339
L72218 77283
L72218 77114
L72246 77058
L72274 77030
L72330 77002
L72443 77002
L72499 77030
" />
<path d="M73230 77086
L73427 77086
" />
<path d="M73511 77395
L73230 77395
L73230 76805
L73511 76805
" />
<path d="M73764 77339
L73793 77367
L73764 77395
L73736 77367
L73764 77339
L73764 77395
" />
<path d="M74046 77395
L74046 76805
L74186 76805
L74271 76833
L74327 76889
L74355 76946
L74383 77058
L74383 77142
L74355 77255
L74327 77311
L74271 77367
L74186 77395
L74046 77395
" />
<path d="M74636 77339
L74664 77367
L74636 77395
L74608 77367
L74636 77339
L74636 77395
" />
<path d="M74889 77227
L75171 77227
" />
<path d="M74833 77395
L75030 76805
L75227 77395
" />
<path d="M75424 77339
L75452 77367
L75424 77395
L75395 77367
L75424 77339
L75424 77395
" />
<path d="M76605 77395
L76605 76805
" />
<path d="M76661 77171
L76830 77395
" />
<path d="M76830 77002
L76605 77227
" />
<path d="M77083 77395
L77083 77002
" />
<path d="M77083 76805
L77055 76833
L77083 76861
L77111 76833
L77083 76805
L77083 76861
" />
<path d="M77617 77367
L77561 77395
L77448 77395
L77392 77367
L77364 77339
L77336 77283
L77336 77114
L77364 77058
L77392 77030
L77448 77002
L77561 77002
L77617 77030
" />
<path d="M78123 77395
L78123 77086
L78095 77030
L78039 77002
L77926 77002
L77870 77030
" />
<path d="M78123 77367
L78067 77395
L77926 77395
L77870 77367
L77842 77311
L77842 77255
L77870 77199
L77926 77171
L78067 77171
L78123 77142
" />
<path d="M78658 77395
L78658 76805
" />
<path d="M78658 77367
L78601 77395
L78489 77395
L78433 77367
L78404 77339
L78376 77283
L78376 77114
L78404 77058
L78433 77030
L78489 77002
L78601 77002
L78658 77030
" />
<path d="M79557 77620
L79529 77592
L79473 77508
L79445 77452
L79417 77367
L79389 77227
L79389 77114
L79417 76974
L79445 76889
L79473 76833
L79529 76749
L79557 76721
" />
<path d="M80064 76805
L79782 76805
L79754 77086
L79782 77058
L79839 77030
L79979 77030
L80036 77058
L80064 77086
L80092 77142
L80092 77283
L80064 77339
L80036 77367
L79979 77395
L79839 77395
L79782 77367
L79754 77339
" />
<path d="M80345 77339
L80373 77367
L80345 77395
L80317 77367
L80345 77339
L80345 77395
" />
<path d="M80935 77395
L80598 77395
" />
<path d="M80767 77395
L80767 76805
L80710 76889
L80654 76946
L80598 76974
" />
<path d="M81188 77339
L81217 77367
L81188 77395
L81160 77367
L81188 77339
L81188 77395
" />
<path d="M81554 77058
L81498 77030
L81470 77002
L81442 76946
L81442 76917
L81470 76861
L81498 76833
L81554 76805
L81667 76805
L81723 76833
L81751 76861
L81779 76917
L81779 76946
L81751 77002
L81723 77030
L81667 77058
L81554 77058
L81498 77086
L81470 77114
L81442 77171
L81442 77283
L81470 77339
L81498 77367
L81554 77395
L81667 77395
L81723 77367
L81751 77339
L81779 77283
L81779 77171
L81751 77114
L81723 77086
L81667 77058
" />
<path d="M81976 77620
L82004 77592
L82060 77508
L82088 77452
L82117 77367
L82145 77227
L82145 77114
L82117 76974
L82088 76889
L82060 76833
L82004 76749
L81976 76721
" />
<path d="M82426 77171
L82876 77171
" />
<path d="M83466 77395
L83129 77395
" />
<path d="M83298 77395
L83298 76805
L83241 76889
L83185 76946
L83129 76974
" />
</g>
<g style="fill:#000000; fill-opacity:0.0; 
stroke:#000000; stroke-width:39.3701; stroke-opacity:1; 
stroke-linecap:round; stroke-linejoin:round;">
</g>
<g style="fill:#000000; fill-opacity:0.0; 
stroke:#000000; stroke-width:59.0551; stroke-opacity:1; 
stroke-linecap:round; stroke-linejoin:round;">
<path d="M69685 75396
L112205 75396
" />
</g>
<g style="fill:#000000; fill-opacity:0.0; 
stroke:#000000; stroke-width:39.3701; stroke-opacity:1; 
stroke-linecap:round; stroke-linejoin:round;">
</g>
<g style="fill:#000000; fill-opacity:0.0; 
stroke:#000000; stroke-width:118.11; stroke-opacity:1; 
stroke-linecap:round; stroke-linejoin:round;">
<text x="103544" y="76321.7"
textLength="2336.9" font-size="787.402" lengthAdjust="spacingAndGlyphs"
text-anchor="start" opacity="0">Rev: </text>
<path d="M104099 76293
L103902 76012
" />
<path d="M103761 76293
L103761 75703
L103986 75703
L104042 75731
L104070 75759
L104099 75815
L104099 75899
L104070 75956
L104042 75984
L103986 76012
L103761 76012
" />
<path d="M104577 76265
L104520 76293
L104408 76293
L104352 76265
L104323 76209
L104323 75984
L104352 75928
L104408 75899
L104520 75899
L104577 75928
L104605 75984
L104605 76040
L104323 76096
" />
<path d="M104802 75899
L104942 76293
L105083 75899
" />
<path d="M105308 76237
L105336 76265
L105308 76293
L105280 76265
L105308 76237
L105308 76293
" />
<path d="M105308 75928
L105336 75956
L105308 75984
L105280 75956
L105308 75928
L105308 75984
" />
</g>
<g style="fill:#000000; fill-opacity:0.0; 
stroke:#000000; stroke-width:39.3701; stroke-opacity:1; 
stroke-linecap:round; stroke-linejoin:round;">
</g>
<g style="fill:#000000; fill-opacity:0.0; 
stroke:#000000; stroke-width:59.0551; stroke-opacity:1; 
stroke-linecap:round; stroke-linejoin:round;">
<text x="70079.6" y="76321.7"
textLength="3781.21" font-size="787.402" lengthAdjust="spacingAndGlyphs"
text-anchor="start" opacity="0">Size: A4</text>
<path d="M70221 76265
L70305 76293
L70446 76293
L70502 76265
L70530 76237
L70559 76181
L70559 76124
L70530 76068
L70502 76040
L70446 76012
L70334 75984
L70277 75956
L70249 75928
L70221 75871
L70221 75815
L70249 75759
L70277 75731
L70334 75703
L70474 75703
L70559 75731
" />
<path d="M70812 76293
L70812 75899
" />
<path d="M70812 75703
L70784 75731
L70812 75759
L70840 75731
L70812 75703
L70812 75759
" />
<path d="M71037 75899
L71346 75899
L71037 76293
L71346 76293
" />
<path d="M71796 76265
L71740 76293
L71627 76293
L71571 76265
L71543 76209
L71543 75984
L71571 75928
L71627 75899
L71740 75899
L71796 75928
L71824 75984
L71824 76040
L71543 76096
" />
<path d="M72077 76237
L72105 76265
L72077 76293
L72049 76265
L72077 76237
L72077 76293
" />
<path d="M72077 75928
L72105 75956
L72077 75984
L72049 75956
L72077 75928
L72077 75984
" />
<path d="M72780 76124
L73061 76124
" />
<path d="M72724 76293
L72921 75703
L73118 76293
" />
<path d="M73568 75899
L73568 76293
" />
<path d="M73427 75674
L73286 76096
L73652 76096
" />
</g>
<g style="fill:#000000; fill-opacity:0.0; 
stroke:#000000; stroke-width:39.3701; stroke-opacity:1; 
stroke-linecap:round; stroke-linejoin:round;">
</g>
<g style="fill:#000000; fill-opacity:0.0; 
stroke:#000000; stroke-width:59.0551; stroke-opacity:1; 
stroke-linecap:round; stroke-linejoin:round;">
<text x="103544" y="77424.1"
textLength="3349.27" font-size="787.402" lengthAdjust="spacingAndGlyphs"
text-anchor="start" opacity="0">Id: 1/1</text>
<path d="M103714 77395
L103714 76805
" />
<path d="M104248 77395
L104248 76805
" />
<path d="M104248 77367
L104192 77395
L104079 77395
L104023 77367
L103995 77339
L103967 77283
L103967 77114
L103995 77058
L104023 77030
L104079 77002
L104192 77002
L104248 77030
" />
<path d="M104529 77339
L104557 77367
L104529 77395
L104501 77367
L104529 77339
L104529 77395
" />
<path d="M104529 77030
L104557 77058
L104529 77086
L104501 77058
L104529 77030
L104529 77086
" />
<path d="M105570 77395
L105232 77395
" />
<path d="M105401 77395
L105401 76805
L105345 76889
L105289 76946
L105232 76974
" />
<path d="M106245 76777
L105739 77536
" />
<path d="M106751 77395
L106413 77395
" />
<path d="M106582 77395
L106582 76805
L106526 76889
L106470 76946
L106413 76974
" />
</g>
<g style="fill:#000000; fill-opacity:0.0; 
stroke:#000000; stroke-width:39.3701; stroke-opacity:1; 
stroke-linecap:round; stroke-linejoin:round;">
</g>
<g style="fill:#000000; fill-opacity:0.0; 
stroke:#000000; stroke-width:59.0551; stroke-opacity:1; 
stroke-linecap:round; stroke-linejoin:round;">
<path d="M69685 73821
L112205 73821
" />
</g>
<g style="fill:#000000; fill-opacity:0.0; 
stroke:#000000; stroke-width:39.3701; stroke-opacity:1; 
stroke-linecap:round; stroke-linejoin:round;">
</g>
<g style="fill:#000000; fill-opacity:0.0; 
stroke:#000000; stroke-width:157.48; stroke-opacity:1; 
stroke-linecap:round; stroke-linejoin:round;">
<text x="70079.6" y="74924.1"
textLength="3701.14" font-size="1049.87" lengthAdjust="spacingAndGlyphs"
text-anchor="start" opacity="0">Title: </text>
<path d="M70360 74099
L70810 74099
" />
<path d="M70486 74886
L70585 74099
" />
<path d="M70974 74886
L71039 74361
" />
<path d="M71072 74099
L71030 74136
L71063 74174
L71105 74136
L71072 74099
L71063 74174
" />
<path d="M71302 74361
L71602 74361
" />
<path d="M71447 74099
L71363 74774
L71391 74849
L71461 74886
L71536 74886
" />
<path d="M71911 74886
L71841 74849
L71813 74774
L71897 74099
" />
<path d="M72516 74849
L72436 74886
L72286 74886
L72216 74849
L72187 74774
L72225 74474
L72272 74399
L72352 74361
L72501 74361
L72572 74399
L72600 74474
L72591 74549
L72206 74624
" />
<path d="M72895 74811
L72928 74849
L72886 74886
L72853 74849
L72895 74811
L72886 74886
" />
<path d="M72947 74399
L72980 74436
L72937 74474
L72905 74436
L72947 74399
L72937 74474
" />
</g>
<g style="fill:#000000; fill-opacity:0.0; 
stroke:#000000; stroke-width:39.3701; stroke-opacity:1; 
stroke-linecap:round; stroke-linejoin:round;">
</g>
<g style="fill:#000000; fill-opacity:0.0; 
stroke:#000000; stroke-width:59.0551; stroke-opacity:1; 
stroke-linecap:round; stroke-linejoin:round;">
<text x="70079.6" y="73408.3"
textLength="11481.4" font-size="787.402" lengthAdjust="spacingAndGlyphs"
text-anchor="start" opacity="0">File: windsynth.kicad_pcb</text>
<path d="M70446 73070
L70249 73070
" />
<path d="M70249 73380
L70249 72789
L70530 72789
" />
<path d="M70755 73380
L70755 72986
" />
<path d="M70755 72789
L70727 72817
L70755 72845
L70784 72817
L70755 72789
L70755 72845
" />
<path d="M71121 73380
L71065 73352
L71037 73295
L71037 72789
" />
<path d="M71571 73352
L71515 73380
L71402 73380
L71346 73352
L71318 73295
L71318 73070
L71346 73014
L71402 72986
L71515 72986
L71571 73014
L71599 73070
L71599 73127
L71318 73183
" />
<path d="M71852 73323
L71880 73352
L71852 73380
L71824 73352
L71852 73323
L71852 73380
" />
<path d="M71852 73014
L71880 73042
L71852 73070
L71824 73042
L71852 73014
L71852 73070
" />
<path d="M72527 72986
L72640 73380
L72752 73099
L72865 73380
L72977 72986
" />
<path d="M73202 73380
L73202 72986
" />
<path d="M73202 72789
L73174 72817
L73202 72845
L73230 72817
L73202 72789
L73202 72845
" />
<path d="M73483 72986
L73483 73380
" />
<path d="M73483 73042
L73511 73014
L73568 72986
L73652 72986
L73708 73014
L73736 73070
L73736 73380
" />
<path d="M74271 73380
L74271 72789
" />
<path d="M74271 73352
L74214 73380
L74102 73380
L74046 73352
L74018 73323
L73989 73267
L73989 73099
L74018 73042
L74046 73014
L74102 72986
L74214 72986
L74271 73014
" />
<path d="M74524 73352
L74580 73380
L74692 73380
L74749 73352
L74777 73295
L74777 73267
L74749 73211
L74692 73183
L74608 73183
L74552 73155
L74524 73099
L74524 73070
L74552 73014
L74608 72986
L74692 72986
L74749 73014
" />
<path d="M74974 72986
L75114 73380
" />
<path d="M75255 72986
L75114 73380
L75058 73520
L75030 73548
L74974 73577
" />
<path d="M75480 72986
L75480 73380
" />
<path d="M75480 73042
L75508 73014
L75564 72986
L75649 72986
L75705 73014
L75733 73070
L75733 73380
" />
<path d="M75930 72986
L76155 72986
" />
<path d="M76014 72789
L76014 73295
L76042 73352
L76099 73380
L76155 73380
" />
<path d="M76352 73380
L76352 72789
" />
<path d="M76605 73380
L76605 73070
L76577 73014
L76520 72986
L76436 72986
L76380 73014
L76352 73042
" />
<path d="M76886 73323
L76914 73352
L76886 73380
L76858 73352
L76886 73323
L76886 73380
" />
<path d="M77167 73380
L77167 72789
" />
<path d="M77223 73155
L77392 73380
" />
<path d="M77392 72986
L77167 73211
" />
<path d="M77645 73380
L77645 72986
" />
<path d="M77645 72789
L77617 72817
L77645 72845
L77673 72817
L77645 72789
L77645 72845
" />
<path d="M78180 73352
L78123 73380
L78011 73380
L77955 73352
L77926 73323
L77898 73267
L77898 73099
L77926 73042
L77955 73014
L78011 72986
L78123 72986
L78180 73014
" />
<path d="M78686 73380
L78686 73070
L78658 73014
L78601 72986
L78489 72986
L78433 73014
" />
<path d="M78686 73352
L78629 73380
L78489 73380
L78433 73352
L78404 73295
L78404 73239
L78433 73183
L78489 73155
L78629 73155
L78686 73127
" />
<path d="M79220 73380
L79220 72789
" />
<path d="M79220 73352
L79164 73380
L79051 73380
L78995 73352
L78967 73323
L78939 73267
L78939 73099
L78967 73042
L78995 73014
L79051 72986
L79164 72986
L79220 73014
" />
<path d="M79361 73436
L79811 73436
" />
<path d="M79951 72986
L79951 73577
" />
<path d="M79951 73014
L80007 72986
L80120 72986
L80176 73014
L80204 73042
L80232 73099
L80232 73267
L80204 73323
L80176 73352
L80120 73380
L80007 73380
L79951 73352
" />
<path d="M80739 73352
L80682 73380
L80570 73380
L80514 73352
L80485 73323
L80457 73267
L80457 73099
L80485 73042
L80514 73014
L80570 72986
L80682 72986
L80739 73014
" />
<path d="M80992 73380
L80992 72789
" />
<path d="M80992 73014
L81048 72986
L81160 72986
L81217 73014
L81245 73042
L81273 73099
L81273 73267
L81245 73323
L81217 73352
L81160 73380
L81048 73380
L80992 73352
" />
</g>
<g style="fill:#000000; fill-opacity:0.0; 
stroke:#000000; stroke-width:39.3701; stroke-opacity:1; 
stroke-linecap:round; stroke-linejoin:round;">
</g>
<g style="fill:#000000; fill-opacity:0.0; 
stroke:#000000; stroke-width:59.0551; stroke-opacity:1; 
stroke-linecap:round; stroke-linejoin:round;">
<path d="M69685 71459
L112205 71459
" />
</g>
<g style="fill:#000000; fill-opacity:0.0; 
stroke:#000000; stroke-width:39.3701; stroke-opacity:1; 
stroke-linecap:round; stroke-linejoin:round;">
</g>
<g style="fill:#000000; fill-opacity:0.0; 
stroke:#000000; stroke-width:59.0551; stroke-opacity:1; 
stroke-linecap:round; stroke-linejoin:round;">
<text x="70079.6" y="72345.4"
textLength="3236.78" font-size="787.402" lengthAdjust="spacingAndGlyphs"
text-anchor="start" opacity="0">Sheet: </text>
<path d="M70221 72289
L70305 72317
L70446 72317
L70502 72289
L70530 72260
L70559 72204
L70559 72148
L70530 72092
L70502 72064
L70446 72036
L70334 72007
L70277 71979
L70249 71951
L70221 71895
L70221 71839
L70249 71782
L70277 71754
L70334 71726
L70474 71726
L70559 71754
" />
<path d="M70812 72317
L70812 71726
" />
<path d="M71065 72317
L71065 72007
L71037 71951
L70980 71923
L70896 71923
L70840 71951
L70812 71979
" />
<path d="M71571 72289
L71515 72317
L71402 72317
L71346 72289
L71318 72232
L71318 72007
L71346 71951
L71402 71923
L71515 71923
L71571 71951
L71599 72007
L71599 72064
L71318 72120
" />
<path d="M72077 72289
L72021 72317
L71908 72317
L71852 72289
L71824 72232
L71824 72007
L71852 71951
L71908 71923
L72021 71923
L72077 71951
L72105 72007
L72105 72064
L71824 72120
" />
<path d="M72274 71923
L72499 71923
" />
<path d="M72358 71726
L72358 72232
L72386 72289
L72443 72317
L72499 72317
" />
<path d="M72696 72260
L72724 72289
L72696 72317
L72668 72289
L72696 72260
L72696 72317
" />
<path d="M72696 71951
L72724 71979
L72696 72007
L72668 71979
L72696 71951
L72696 72007
" />
</g>
<g style="fill:#000000; fill-opacity:0.0; 
stroke:#000000; stroke-width:39.3701; stroke-opacity:1; 
stroke-linecap:round; stroke-linejoin:round;">
</g>
<g style="fill:#000000; fill-opacity:0.0; 
stroke:#000000; stroke-width:59.0551; stroke-opacity:1; 
stroke-linecap:round; stroke-linejoin:round;">
<path d="M77559 75396
L77559 76577
" />
</g>
<g style="fill:#000000; fill-opacity:0.0; 
stroke:#000000; stroke-width:39.3701; stroke-opacity:1; 
stroke-linecap:round; stroke-linejoin:round;">
</g>
<g style="fill:#000000; fill-opacity:0.0; 
stroke:#000000; stroke-width:59.0551; stroke-opacity:1; 
stroke-linecap:round; stroke-linejoin:round;">
<path d="M102756 75396
L102756 77955
" />
<g >
</g>
<g style="fill:#848400; fill-opacity:0.0; 
stroke:#848400; stroke-width:59.0551; stroke-opacity:1; 
stroke-linecap:round; stroke-linejoin:round;">
</g>
<g style="fill:#848400; fill-opacity:1.0; 
stroke:#848400; stroke-width:0; stroke-opacity:1; 
stroke-linecap:round; stroke-linejoin:round;">
<circle cx="72750" cy="43500" r="393.701" /> 
</g>
<g style="fill:#848400; fill-opacity:1.0; 
stroke:#848400; stroke-width:39.3701; stroke-opacity:1; 
stroke-linecap:round; stroke-linejoin:round;">
</g>
<g style="fill:#848400; fill-opacity:1.0; 
stroke:#848400; stroke-width:0; stroke-opacity:1; 
stroke-linecap:round; stroke-linejoin:round;">
<circle cx="71750" cy="41000" r="393.701" /> 
</g>
<g style="fill:#848400; fill-opacity:1.0; 
stroke:#848400; stroke-width:39.3701; stroke-opacity:1; 
stroke-linecap:round; stroke-linejoin:round;">
</g>
<g style="fill:#848400; fill-opacity:1.0; 
stroke:#848400; stroke-width:0; stroke-opacity:1; 
stroke-linecap:round; stroke-linejoin:round;">
<circle cx="73750" cy="42000" r="826.772" /> 
</g>
<g style="fill:#848400; fill-opacity:1.0; 
stroke:#848400; stroke-width:39.3701; stroke-opacity:1; 
stroke-linecap:round; stroke-linejoin:round;">
</g>
<g >
</g>
<g style="fill:#848400; fill-opacity:1.0; 
stroke:#848400; stroke-width:39.3701; stroke-opacity:1; 
stroke-linecap:round; stroke-linejoin:round;">
</g>
<g style="fill:#848400; fill-opacity:1.0; 
stroke:#848400; stroke-width:0; stroke-opacity:1; 
stroke-linecap:round; stroke-linejoin:round;">
<circle cx="66750" cy="42000" r="826.772" /> 
</g>
<g style="fill:#848400; fill-opacity:1.0; 
stroke:#848400; stroke-width:39.3701; stroke-opacity:1; 
stroke-linecap:round; stroke-linejoin:round;">
</g>
<g style="fill:#848400; fill-opacity:1.0; 
stroke:#848400; stroke-width:0; stroke-opacity:1; 
stroke-linecap:round; stroke-linejoin:round;">
<circle cx="64750" cy="41000" r="393.701" /> 
</g>
<g style="fill:#848400; fill-opacity:1.0; 
stroke:#848400; stroke-width:39.3701; stroke-opacity:1; 
stroke-linecap:round; stroke-linejoin:round;">
</g>
<g style="fill:#848400; fill-opacity:1.0; 
stroke:#848400; stroke-width:0; stroke-opacity:1; 
stroke-linecap:round; stroke-linejoin:round;">
<circle cx="65750" cy="43500" r="393.701" /> 
</g>
<g style="fill:#848400; fill-opacity:1.0; 
stroke:#848400; stroke-width:39.3701; stroke-opacity:1; 
stroke-linecap:round; stroke-linejoin:round;">
</g>
<g >
</g>
<g style="fill:#848400; fill-opacity:1.0; 
stroke:#848400; stroke-width:39.3701; stroke-opacity:1; 
stroke-linecap:round; stroke-linejoin:round;">
</g>
<g style="fill:#848400; fill-opacity:1.0; 
stroke:#848400; stroke-width:0; stroke-opacity:1; 
stroke-linecap:round; stroke-linejoin:round;">
<circle cx="58250" cy="41000" r="393.701" /> 
</g>
<g style="fill:#848400; fill-opacity:1.0; 
stroke:#848400; stroke-width:39.3701; stroke-opacity:1; 
stroke-linecap:round; stroke-linejoin:round;">
</g>
<g style="fill:#848400; fill-opacity:1.0; 
stroke:#848400; stroke-width:0; stroke-opacity:1; 
stroke-linecap:round; stroke-linejoin:round;">
<circle cx="60750" cy="40000" r="393.701" /> 
</g>
<g style="fill:#848400; fill-opacity:1.0; 
stroke:#848400; stroke-width:39.3701; stroke-opacity:1; 
stroke-linecap:round; stroke-linejoin:round;">
</g>
<g style="fill:#848400; fill-opacity:1.0; 
stroke:#848400; stroke-width:0; stroke-opacity:1; 
stroke-linecap:round; stroke-linejoin:round;">
<circle cx="59750" cy="42000" r="826.772" /> 
</g>
<g style="fill:#848400; fill-opacity:1.0; 
stroke:#848400; stroke-width:39.3701; stroke-opacity:1; 
stroke-linecap:round; stroke-linejoin:round;">
</g>
<g >
</g>
<g style="fill:#848400; fill-opacity:1.0; 
stroke:#848400; stroke-width:39.3701; stroke-opacity:1; 
stroke-linecap:round; stroke-linejoin:round;">
</g>
<g style="fill:#848400; fill-opacity:1.0; 
stroke:#848400; stroke-width:0; stroke-opacity:1; 
stroke-linecap:round; stroke-linejoin:round;">
<circle cx="52750" cy="42000" r="826.772" /> 
</g>
<g style="fill:#848400; fill-opacity:1.0; 
stroke:#848400; stroke-width:39.3701; stroke-opacity:1; 
stroke-linecap:round; stroke-linejoin:round;">
</g>
<g style="fill:#848400; fill-opacity:1.0; 
stroke:#848400; stroke-width:0; stroke-opacity:1; 
stroke-linecap:round; stroke-linejoin:round;">
<circle cx="54750" cy="43000" r="393.701" /> 
</g>
<g style="fill:#848400; fill-opacity:1.0; 
stroke:#848400; stroke-width:39.3701; stroke-opacity:1; 
stroke-linecap:round; stroke-linejoin:round;">
</g>
<g style="fill:#848400; fill-opacity:1.0; 
stroke:#848400; stroke-width:0; stroke-opacity:1; 
stroke-linecap:round; stroke-linejoin:round;">
<circle cx="53750" cy="40500" r="393.701" /> 
</g>
<g style="fill:#848400; fill-opacity:1.0; 
stroke:#848400; stroke-width:39.3701; stroke-opacity:1; 
stroke-linecap:round; stroke-linejoin:round;">
</g>
<g >
</g>
<g style="fill:#848400; fill-opacity:1.0; 
stroke:#848400; stroke-width:39.3701; stroke-opacity:1; 
stroke-linecap:round; stroke-linejoin:round;">
</g>
<g style="fill:#848400; fill-opacity:1.0; 
stroke:#848400; stroke-width:0; stroke-opacity:1; 
stroke-linecap:round; stroke-linejoin:round;">
<circle cx="46750" cy="40500" r="393.701" /> 
</g>
<g style="fill:#848400; fill-opacity:1.0; 
stroke:#848400; stroke-width:39.3701; stroke-opacity:1; 
stroke-linecap:round; stroke-linejoin:round;">
</g>
<g style="fill:#848400; fill-opacity:1.0; 
stroke:#848400; stroke-width:0; stroke-opacity:1; 
stroke-linecap:round; stroke-linejoin:round;">
<circle cx="47750" cy="43000" r="393.701" /> 
</g>
<g style="fill:#848400; fill-opacity:1.0; 
stroke:#848400; stroke-width:39.3701; stroke-opacity:1; 
stroke-linecap:round; stroke-linejoin:round;">
</g>
<g style="fill:#848400; fill-opacity:1.0; 
stroke:#848400; stroke-width:0; stroke-opacity:1; 
stroke-linecap:round; stroke-linejoin:round;">
<circle cx="45750" cy="42000" r="826.772" /> 
</g>
<g style="fill:#848400; fill-opacity:1.0; 
stroke:#848400; stroke-width:39.3701; stroke-opacity:1; 
stroke-linecap:round; stroke-linejoin:round;">
</g>
<g >
</g>
<g style="fill:#848400; fill-opacity:1.0; 
stroke:#848400; stroke-width:39.3701; stroke-opacity:1; 
stroke-linecap:round; stroke-linejoin:round;">
</g>
<g style="fill:#848400; fill-opacity:1.0; 
stroke:#848400; stroke-width:0; stroke-opacity:1; 
stroke-linecap:round; stroke-linejoin:round;">
<circle cx="56250" cy="42500" r="334.646" /> 
<path style="fill:#848400; fill-opacity:1.0; 
stroke:#848400; stroke-width:0; stroke-opacity:1; 
stroke-linecap:round; stroke-linejoin:round;fill-rule:evenodd;"
d="M 56584.6,41165.4
56584.6,41834.6
55915.4,41834.6
55915.4,41165.4
Z" /> 
</g>
<g >
</g>
<g style="fill:#848400; fill-opacity:1.0; 
stroke:#848400; stroke-width:0; stroke-opacity:1; 
stroke-linecap:round; stroke-linejoin:round;">
<path style="fill:#848400; fill-opacity:1.0; 
stroke:#848400; stroke-width:0; stroke-opacity:1; 
stroke-linecap:round; stroke-linejoin:round;fill-rule:evenodd;"
d="M 49584.6,41165.4
49584.6,41834.6
48915.4,41834.6
48915.4,41165.4
Z" /> 
<circle cx="49250" cy="42500" r="334.646" /> 
</g>
<g >
</g>
<g style="fill:#848400; fill-opacity:1.0; 
stroke:#848400; stroke-width:0; stroke-opacity:1; 
stroke-linecap:round; stroke-linejoin:round;">
<circle cx="76750" cy="43500" r="334.646" /> 
<circle cx="76750" cy="42500" r="334.646" /> 
<circle cx="76750" cy="41500" r="334.646" /> 
<path style="fill:#848400; fill-opacity:1.0; 
stroke:#848400; stroke-width:0; stroke-opacity:1; 
stroke-linecap:round; stroke-linejoin:round;fill-rule:evenodd;"
d="M 76415.4,40834.6
76415.4,40165.4
77084.6,40165.4
77084.6,40834.6
Z" /> 
</g>
<g >
</g>
<g style="fill:#848400; fill-opacity:1.0; 
stroke:#848400; stroke-width:0; stroke-opacity:1; 
stroke-linecap:round; stroke-linejoin:round;">
<path style="fill:#848400; fill-opacity:1.0; 
stroke:#848400; stroke-width:0; stroke-opacity:1; 
stroke-linecap:round; stroke-linejoin:round;fill-rule:evenodd;"
d="M 42415.4,40834.6
42415.4,40165.4
43084.6,40165.4
43084.6,40834.6
Z" /> 
<circle cx="42750" cy="41500" r="334.646" /> 
<circle cx="42750" cy="42500" r="334.646" /> 
<circle cx="42750" cy="43500" r="334.646" /> 
</g>
<g >
</g>
<g style="fill:#848400; fill-opacity:1.0; 
stroke:#848400; stroke-width:0; stroke-opacity:1; 
stroke-linecap:round; stroke-linejoin:round;">
<path style="fill:#848400; fill-opacity:1.0; 
stroke:#848400; stroke-width:0; stroke-opacity:1; 
stroke-linecap:round; stroke-linejoin:round;fill-rule:evenodd;"
d="M 62834.6,45334.6
62165.4,45334.6
62165.4,44665.4
62834.6,44665.4
Z" /> 
<circle cx="61500" cy="45000" r="334.646" /> 
<circle cx="60500" cy="45000" r="334.646" /> 
<circle cx="59500" cy="45000" r="334.646" /> 
<circle cx="58500" cy="45000" r="334.646" /> 
<circle cx="57500" cy="45000" r="334.646" /> 
<circle cx="56500" cy="45000" r="334.646" /> 
<circle cx="55500" cy="45000" r="334.646" /> 
</g>
<g >
</g>
<g style="fill:#C2C2C2; fill-opacity:1.0; 
stroke:#C2C2C2; stroke-width:0; stroke-opacity:1; 
stroke-linecap:round; stroke-linejoin:round;">
<circle cx="42250" cy="39250" r="472.441" /> 
</g>
<g style="fill:#C2C2C2; fill-opacity:1.0; 
stroke:#C2C2C2; stroke-width:39.3701; stroke-opacity:1; 
stroke-linecap:round; stroke-linejoin:round;">
</g>
<g style="fill:#C2C2C2; fill-opacity:1.0; 
stroke:#C2C2C2; stroke-width:0; stroke-opacity:1; 
stroke-linecap:round; stroke-linejoin:round;">
<circle cx="77250" cy="44750" r="472.441" /> 
</g>
<g style="fill:#C2C2C2; fill-opacity:1.0; 
stroke:#C2C2C2; stroke-width:39.3701; stroke-opacity:1; 
stroke-linecap:round; stroke-linejoin:round;">
</g>
<g style="fill:#C2C2C2; fill-opacity:1.0; 
stroke:#C2C2C2; stroke-width:0; stroke-opacity:1; 
stroke-linecap:round; stroke-linejoin:round;">
<circle cx="56000" cy="43750" r="157.48" /> 
</g>
<g style="fill:#C2C2C2; fill-opacity:1.0; 
stroke:#C2C2C2; stroke-width:39.3701; stroke-opacity:1; 
stroke-linecap:round; stroke-linejoin:round;">
</g>
<g style="fill:#C2C2C2; fill-opacity:1.0; 
stroke:#C2C2C2; stroke-width:0; stroke-opacity:1; 
stroke-linecap:round; stroke-linejoin:round;">
<circle cx="58500" cy="42750" r="157.48" /> 
</g>
<g style="fill:#C2C2C2; fill-opacity:1.0; 
stroke:#C2C2C2; stroke-width:39.3701; stroke-opacity:1; 
stroke-linecap:round; stroke-linejoin:round;">
</g>
<g style="fill:#C2C2C2; fill-opacity:1.0; 
stroke:#C2C2C2; stroke-width:0; stroke-opacity:1; 
stroke-linecap:round; stroke-linejoin:round;">
<circle cx="51250" cy="44500" r="157.48" /> 
</g>
<g style="fill:#C2C2C2; fill-opacity:1.0; 
stroke:#C2C2C2; stroke-width:39.3701; stroke-opacity:1; 
stroke-linecap:round; stroke-linejoin:round;">
</g>
<g >
</g>
<g style="fill:#008400; fill-opacity:1.0; 
stroke:#008400; stroke-width:39.3701; stroke-opacity:1; 
stroke-linecap:round; stroke-linejoin:round;">
</g>
<g style="fill:#008400; fill-opacity:1.0; 
stroke:#008400; stroke-width:98.4252; stroke-opacity:1; 
stroke-linecap:round; stroke-linejoin:round;">
</g>
<g style="fill:#008400; fill-opacity:0.0; 
stroke:#008400; stroke-width:98.4252; stroke-opacity:1; 
stroke-linecap:round; stroke-linejoin:round;">
<path d="M42750 40500
L46750 40500
" />
<path d="M57750 40500
L58250 41000
" />
<path d="M46750 40500
L57750 40500
" />
<path d="M63250 41000
L65750 43500
" />
<path d="M65750 43500
L72750 43500
" />
<path d="M53750 43250
L55500 45000
" />
<path d="M53750 40500
L53750 43250
" />
<path d="M58250 41000
L60000 39250
" />
<path d="M60000 39250
L61500 39250
" />
<path d="M61500 39250
L63250 41000
" />
<path d="M48250 40500
L49250 41500
" />
<path d="M46750 40500
L48250 40500
" />
<path d="M57750 41500
L58250 41000
" />
<path d="M56250 41500
L57750 41500
" />
<path d="M76662 40500
L76750 40500
" />
<path d="M73662 43500
L76662 40500
" />
<path d="M72750 43500
L73662 43500
" />
<path d="M60500 45000
L61000 44500
" />
<path d="M61000 40250
L60750 40000
" />
<path d="M61000 44500
L61000 40250
" />
<path d="M55500 43750
L54750 43000
" />
<path d="M56000 43750
L55500 43750
" />
<path d="M58500 45000
L58500 42750
" />
<path d="M51250 44500
L49250 42500
" />
<path d="M57500 43750
L56250 42500
" />
<path d="M57500 45000
L57500 43750
" />
</g>
<g >
</g>
<g style="fill:#008400; fill-opacity:0.0; 
stroke:#008400; stroke-width:98.4252; stroke-opacity:1; 
stroke-linecap:round; stroke-linejoin:round;">
<g >
</g>
<g style="fill:#008400; fill-opacity:1.0; 
stroke:#008400; stroke-width:100; stroke-opacity:1; 
stroke-linecap:round; stroke-linejoin:round;">
<path style="fill:#008400; fill-opacity:1.0; 
stroke:#008400; stroke-width:100; stroke-opacity:1; 
stroke-linecap:round; stroke-linejoin:round;fill-rule:evenodd;"
d="M 76240.2,39262.8
76241.3,39274.1
76241.2,39278.8
76241.6,39282.4
76256.9,39428
76261.6,39451
76266,39474.2
76267.1,39477.6
76310.4,39617.5
76319.5,39639.2
76328.3,39661
76330,39664.2
76399.7,39793
76412.8,39812.5
76425.7,39832.2
76428,39835
76493.8,39914.6
76415.4,39914.1
76366.3,39919
76319.2,39933.3
76275.8,39956.5
76237.7,39987.7
76206.5,40025.8
76183.3,40069.2
76169,40116.3
76164.1,40165.4
76165.4,40387.5
76227.9,40450
76700,40450
76700,40442.1
76800,40442.1
76800,40450
76807.9,40450
76807.9,40550
76800,40550
76800,40557.9
76700,40557.9
76700,40550
76227.9,40550
76165.4,40612.5
76164.1,40834.6
76169,40883.7
76183.3,40930.8
76206.5,40974.2
76237.7,41012.3
76275.8,41043.5
76319.2,41066.7
76347.8,41075.4
76295.9,41127.3
76231.9,41223.1
76187.8,41329.5
76165.4,41442.4
76165.4,41557.6
76187.8,41670.5
76231.9,41776.9
76295.9,41872.7
76377.3,41954.1
76446,42000
76377.3,42045.9
76295.9,42127.3
76231.9,42223.1
76187.8,42329.5
76165.4,42442.4
76165.4,42557.6
76187.8,42670.5
76231.9,42776.9
76295.9,42872.7
76377.3,42954.1
76446,43000
76377.3,43045.9
76295.9,43127.3
76231.9,43223.1
76187.8,43329.5
76165.4,43442.4
76165.4,43557.6
76187.8,43670.5
76231.9,43776.9
76295.9,43872.7
76377.3,43954.1
76473.1,44018.1
76579.5,44062.2
76692.4,44084.6
76807.6,44084.6
76920.5,44062.2
76992.1,44032.5
76993.9,44050.9
77000.2,44071.5
76907.8,44109.8
76789.5,44188.8
76688.8,44289.5
76609.8,44407.8
76555.3,44539.3
76527.6,44678.8
76527.6,44821.2
76555.3,44960.7
76609.8,45092.2
76688.8,45210.5
76718.5,45240.2
63085.9,45240.2
63085.9,44665.4
63081,44616.3
63066.7,44569.2
63043.5,44525.8
63012.3,44487.7
62974.2,44456.5
62930.8,44433.3
62883.7,44419
62834.6,44414.1
62165.4,44414.1
62116.3,44419
62069.2,44433.3
62025.8,44456.5
61987.7,44487.7
61956.5,44525.8
61933.3,44569.2
61924.6,44597.8
61872.7,44545.9
61776.9,44481.9
61670.5,44437.8
61557.6,44415.4
61442.4,44415.4
61329.5,44437.8
61299.2,44450.4
61299.2,43947
65373.7,43947
65411.4,44051.1
65525.4,44106.6
65648.1,44138.7
65774.6,44146.3
65900.3,44129.1
66020.1,44087.7
66088.6,44051.1
66126.3,43947
72373.7,43947
72411.4,44051.1
72525.4,44106.6
72648.1,44138.7
72774.6,44146.3
72900.3,44129.1
73020.1,44087.7
73088.6,44051.1
73126.3,43947
72750,43570.7
72373.7,43947
66126.3,43947
65750,43570.7
65373.7,43947
61299.2,43947
61299.2,43524.6
65103.7,43524.6
65120.9,43650.3
65162.3,43770.1
65198.9,43838.6
65303,43876.3
65679.3,43500
65820.7,43500
66197,43876.3
66301.1,43838.6
66356.6,43724.6
66388.7,43601.9
66393.4,43524.6
72103.7,43524.6
72120.9,43650.3
72162.3,43770.1
72198.9,43838.6
72303,43876.3
72679.3,43500
72820.7,43500
73197,43876.3
73301.1,43838.6
73356.6,43724.6
73388.7,43601.9
73396.3,43475.4
73379.1,43349.7
73337.7,43229.9
73301.1,43161.4
73197,43123.7
72820.7,43500
72679.3,43500
72303,43123.7
72198.9,43161.4
72143.4,43275.4
72111.3,43398.1
72103.7,43524.6
66393.4,43524.6
66396.3,43475.4
66379.1,43349.7
66337.7,43229.9
66301.1,43161.4
66197,43123.7
65820.7,43500
65679.3,43500
65303,43123.7
65198.9,43161.4
65143.4,43275.4
65111.3,43398.1
65103.7,43524.6
61299.2,43524.6
61299.2,43053
65373.7,43053
65750,43429.3
66126.3,43053
66088.6,42948.9
65974.6,42893.4
65851.9,42861.3
65725.4,42853.7
65599.7,42870.9
65479.9,42912.3
65411.4,42948.9
65373.7,43053
61299.2,43053
61299.2,41893.9
65673.2,41893.9
65673.2,42106.1
65714.6,42314.1
65795.8,42510
65913.6,42686.4
66063.6,42836.4
66240,42954.2
66435.9,43035.4
66643.9,43076.8
66856.1,43076.8
66975.6,43053
72373.7,43053
72750,43429.3
73126.3,43053
73088.6,42948.9
72974.6,42893.4
72851.9,42861.3
72725.4,42853.7
72599.7,42870.9
72479.9,42912.3
72411.4,42948.9
72373.7,43053
66975.6,43053
67064.1,43035.4
67260,42954.2
67436.4,42836.4
67586.4,42686.4
67704.2,42510
67785.4,42314.1
67826.8,42106.1
67826.8,41893.9
72673.2,41893.9
72673.2,42106.1
72714.6,42314.1
72795.8,42510
72913.6,42686.4
73063.6,42836.4
73240,42954.2
73435.9,43035.4
73643.9,43076.8
73856.1,43076.8
74064.1,43035.4
74260,42954.2
74436.4,42836.4
74586.4,42686.4
74704.2,42510
74785.4,42314.1
74826.8,42106.1
74826.8,41893.9
74785.4,41685.9
74704.2,41490
74586.4,41313.6
74436.4,41163.6
74260,41045.8
74064.1,40964.6
73856.1,40923.2
73643.9,40923.2
73435.9,40964.6
73240,41045.8
73063.6,41163.6
72913.6,41313.6
72795.8,41490
72714.6,41685.9
72673.2,41893.9
67826.8,41893.9
67785.4,41685.9
67704.2,41490
67586.4,41313.6
67436.4,41163.6
67260,41045.8
67064.1,40964.6
66923.3,40936.6
71106.3,40936.6
71106.3,41063.4
71131,41187.8
71179.6,41304.9
71250,41410.3
71339.7,41500
71445.1,41570.4
71562.2,41619
71686.6,41643.7
71813.4,41643.7
71937.8,41619
72054.9,41570.4
72160.3,41500
72250,41410.3
72320.4,41304.9
72369,41187.8
72393.7,41063.4
72393.7,40936.6
72369,40812.2
72320.4,40695.1
72250,40589.7
72160.3,40500
72054.9,40429.6
71937.8,40381
71813.4,40356.3
71686.6,40356.3
71562.2,40381
71445.1,40429.6
71339.7,40500
71250,40589.7
71179.6,40695.1
71131,40812.2
71106.3,40936.6
66923.3,40936.6
66856.1,40923.2
66643.9,40923.2
66435.9,40964.6
66240,41045.8
66063.6,41163.6
65913.6,41313.6
65795.8,41490
65714.6,41685.9
65673.2,41893.9
61299.2,41893.9
61299.2,40936.6
64106.3,40936.6
64106.3,41063.4
64131,41187.8
64179.6,41304.9
64250,41410.3
64339.7,41500
64445.1,41570.4
64562.2,41619
64686.6,41643.7
64813.4,41643.7
64937.8,41619
65054.9,41570.4
65160.3,41500
65250,41410.3
65320.4,41304.9
65369,41187.8
65393.7,41063.4
65393.7,40936.6
65369,40812.2
65320.4,40695.1
65250,40589.7
65160.3,40500
65054.9,40429.6
64937.8,40381
64813.4,40356.3
64686.6,40356.3
64562.2,40381
64445.1,40429.6
64339.7,40500
64250,40589.7
64179.6,40695.1
64131,40812.2
64106.3,40936.6
61299.2,40936.6
61299.2,40336.7
61320.4,40304.9
61369,40187.8
61393.7,40063.4
61393.7,39936.6
61369,39812.2
61320.4,39695.1
61250,39589.7
61160.3,39500
61054.9,39429.6
60937.8,39381
60813.4,39356.3
60686.6,39356.3
60562.2,39381
60445.1,39429.6
60339.7,39500
60250,39589.7
60179.6,39695.1
60131,39812.2
60106.3,39936.6
60106.3,40063.4
60131,40187.8
60179.6,40304.9
60250,40410.3
60339.7,40500
60445.1,40570.4
60562.2,40619
60686.6,40643.7
60700.8,40643.7
60700.8,41484.8
60586.4,41313.6
60436.4,41163.6
60260,41045.8
60064.1,40964.6
59856.1,40923.2
59643.9,40923.2
59435.9,40964.6
59240,41045.8
59063.6,41163.6
58913.6,41313.6
58795.8,41490
58714.6,41685.9
58673.2,41893.9
58673.2,42106.1
58714.6,42314.1
58767.1,42440.9
58759.8,42433.5
58693,42388.9
58618.9,42358.2
58540.1,42342.5
58459.9,42342.5
58381.1,42358.2
58307,42388.9
58240.2,42433.5
58183.5,42490.2
58138.9,42557
58108.2,42631.1
58092.5,42709.9
58092.5,42790.1
58108.2,42868.9
58138.9,42943
58183.5,43009.8
58200.8,43027.1
58200.8,44496.8
58127.3,44545.9
58045.9,44627.3
58000,44696
57954.1,44627.3
57872.7,44545.9
57799.2,44496.8
57799.2,43764.7
57800.7,43750
57799.2,43735.3
57799.2,43735.3
57794.9,43691.3
57777.8,43634.9
57760.1,43601.9
57750,43583
57722,43548.8
57712.6,43537.4
57701.2,43528
56817.4,42644.3
56834.6,42557.6
56834.6,42442.4
56812.2,42329.5
56768.1,42223.1
56704.1,42127.3
56652.2,42075.4
56680.8,42066.7
56724.2,42043.5
56762.3,42012.3
56793.5,41974.2
56816.7,41930.8
56831,41883.7
56835.9,41834.6
56834.6,41612.5
56772.1,41550
56300,41550
56300,41557.9
56200,41557.9
56200,41550
55727.9,41550
55665.4,41612.5
55664.1,41834.6
55669,41883.7
55683.3,41930.8
55706.5,41974.2
55737.7,42012.3
55775.8,42043.5
55819.2,42066.7
55847.8,42075.4
55795.9,42127.3
55731.9,42223.1
55687.8,42329.5
55665.4,42442.4
55665.4,42557.6
55687.8,42670.5
55731.9,42776.9
55795.9,42872.7
55877.3,42954.1
55973.1,43018.1
56079.5,43062.2
56192.4,43084.6
56307.6,43084.6
56394.3,43067.4
57200.8,43873.9
57200.8,44496.8
57127.3,44545.9
57045.9,44627.3
57000,44696
56954.1,44627.3
56872.7,44545.9
56776.9,44481.9
56670.5,44437.8
56557.6,44415.4
56442.4,44415.4
56329.5,44437.8
56223.1,44481.9
56127.3,44545.9
56045.9,44627.3
55998,44699
55970.5,44653
55893.8,44567.9
55801.9,44499.4
55698.5,44450.1
55640.5,44432.5
55550,44480.3
55550,44950
55557.9,44950
55557.9,45050
55550,45050
55550,45057.9
55450,45057.9
55450,45050
54980,45050
54932.5,45140.5
54967.8,45240.2
43259.8,45240.2
43259.8,44737.2
43258.7,44725.9
43258.8,44721.2
43258.4,44717.6
43243.1,44572
43238.4,44549
43234,44525.8
43232.9,44522.4
43189.6,44382.5
43180.5,44360.8
43171.7,44339
43170,44335.8
43100.3,44207
43087.2,44187.5
43074.3,44167.8
43072,44165
42978.7,44052.2
42968.7,44042.2
43026.9,44018.1
43122.7,43954.1
43204.1,43872.7
43268.1,43776.9
43312.2,43670.5
43334.6,43557.6
43334.6,43442.4
43312.2,43329.5
43268.1,43223.1
43204.1,43127.3
43122.7,43045.9
43054,43000
43122.7,42954.1
43204.1,42872.7
43268.1,42776.9
43312.2,42670.5
43334.6,42557.6
43334.6,42442.4
43312.2,42329.5
43268.1,42223.1
43204.1,42127.3
43122.7,42045.9
43054,42000
43122.7,41954.1
43182.9,41893.9
44673.2,41893.9
44673.2,42106.1
44714.6,42314.1
44795.8,42510
44913.6,42686.4
45063.6,42836.4
45240,42954.2
45435.9,43035.4
45643.9,43076.8
45856.1,43076.8
46064.1,43035.4
46260,42954.2
46286.4,42936.6
47106.3,42936.6
47106.3,43063.4
47131,43187.8
47179.6,43304.9
47250,43410.3
47339.7,43500
47445.1,43570.4
47562.2,43619
47686.6,43643.7
47813.4,43643.7
47937.8,43619
48054.9,43570.4
48160.3,43500
48250,43410.3
48320.4,43304.9
48369,43187.8
48393.7,43063.4
48393.7,42936.6
48369,42812.2
48320.4,42695.1
48250,42589.7
48160.3,42500
48054.9,42429.6
47937.8,42381
47813.4,42356.3
47686.6,42356.3
47562.2,42381
47445.1,42429.6
47339.7,42500
47250,42589.7
47179.6,42695.1
47131,42812.2
47106.3,42936.6
46286.4,42936.6
46436.4,42836.4
46586.4,42686.4
46704.2,42510
46785.4,42314.1
46826.8,42106.1
46826.8,41893.9
46815,41834.6
48664.1,41834.6
48669,41883.7
48683.3,41930.8
48706.5,41974.2
48737.7,42012.3
48775.8,42043.5
48819.2,42066.7
48847.8,42075.4
48795.9,42127.3
48731.9,42223.1
48687.8,42329.5
48665.4,42442.4
48665.4,42557.6
48687.8,42670.5
48731.9,42776.9
48795.9,42872.7
48877.3,42954.1
48973.1,43018.1
49079.5,43062.2
49192.4,43084.6
49307.6,43084.6
49394.3,43067.4
50842.5,44515.7
50842.5,44540.1
50858.2,44618.9
50888.9,44693
50933.5,44759.8
50990.2,44816.5
51057,44861.1
51131.1,44891.8
51209.9,44907.5
51290.1,44907.5
51368.9,44891.8
51443,44861.1
51445.4,44859.5
54932.5,44859.5
54980,44950
55450,44950
55450,44480.3
55359.5,44432.5
55301.5,44450.1
55198.1,44499.4
55106.2,44567.9
55029.5,44653
54970.8,44751.5
54932.5,44859.5
51445.4,44859.5
51509.8,44816.5
51566.5,44759.8
51611.1,44693
51641.8,44618.9
51657.5,44540.1
51657.5,44459.9
51641.8,44381.1
51611.1,44307
51566.5,44240.2
51509.8,44183.5
51443,44138.9
51368.9,44108.2
51290.1,44092.5
51265.7,44092.5
49817.4,42644.3
49834.6,42557.6
49834.6,42442.4
49812.2,42329.5
49768.1,42223.1
49704.1,42127.3
49652.2,42075.4
49680.8,42066.7
49724.2,42043.5
49762.3,42012.3
49793.5,41974.2
49816.7,41930.8
49827.9,41893.9
51673.2,41893.9
51673.2,42106.1
51714.6,42314.1
51795.8,42510
51913.6,42686.4
52063.6,42836.4
52240,42954.2
52435.9,43035.4
52643.9,43076.8
52856.1,43076.8
53064.1,43035.4
53260,42954.2
53286.4,42936.6
54106.3,42936.6
54106.3,43063.4
54131,43187.8
54179.6,43304.9
54250,43410.3
54339.7,43500
54445.1,43570.4
54562.2,43619
54686.6,43643.7
54813.4,43643.7
54937.8,43619
54943.5,43616.6
55278,43951.2
55287.4,43962.6
55333,44000
55384.9,44027.8
55441.3,44044.9
55485.3,44049.2
55485.3,44049.2
55500,44050.7
55514.7,44049.2
55722.9,44049.2
55740.2,44066.5
55807,44111.1
55881.1,44141.8
55959.9,44157.5
56040.1,44157.5
56118.9,44141.8
56193,44111.1
56259.8,44066.5
56316.5,44009.8
56361.1,43943
56391.8,43868.9
56407.5,43790.1
56407.5,43709.9
56391.8,43631.1
56361.1,43557
56316.5,43490.2
56259.8,43433.5
56193,43388.9
56118.9,43358.2
56040.1,43342.5
55959.9,43342.5
55881.1,43358.2
55807,43388.9
55740.2,43433.5
55722.9,43450.8
55623.9,43450.8
55366.6,43193.5
55369,43187.8
55393.7,43063.4
55393.7,42936.6
55369,42812.2
55320.4,42695.1
55250,42589.7
55160.3,42500
55054.9,42429.6
54937.8,42381
54813.4,42356.3
54686.6,42356.3
54562.2,42381
54445.1,42429.6
54339.7,42500
54250,42589.7
54179.6,42695.1
54131,42812.2
54106.3,42936.6
53286.4,42936.6
53436.4,42836.4
53586.4,42686.4
53704.2,42510
53785.4,42314.1
53826.8,42106.1
53826.8,41893.9
53785.4,41685.9
53704.2,41490
53586.4,41313.6
53438.1,41165.4
55664.1,41165.4
55665.4,41387.5
55727.9,41450
56200,41450
56200,40977.9
56300,40977.9
56300,41450
56772.1,41450
56775.1,41447
57873.7,41447
57911.4,41551.1
58025.4,41606.6
58148.1,41638.7
58274.6,41646.3
58400.3,41629.1
58520.1,41587.7
58588.6,41551.1
58626.3,41447
58250,41070.7
57873.7,41447
56775.1,41447
56834.6,41387.5
56835.9,41165.4
56831,41116.3
56816.7,41069.2
56793.5,41025.8
56792.6,41024.6
57603.7,41024.6
57620.9,41150.3
57662.3,41270.1
57698.9,41338.6
57803,41376.3
58179.3,41000
58320.7,41000
58697,41376.3
58801.1,41338.6
58856.6,41224.6
58888.7,41101.9
58896.3,40975.4
58879.1,40849.7
58837.7,40729.9
58801.1,40661.4
58697,40623.7
58320.7,41000
58179.3,41000
57803,40623.7
57698.9,40661.4
57643.4,40775.4
57611.3,40898.1
57603.7,41024.6
56792.6,41024.6
56762.3,40987.7
56724.2,40956.5
56680.8,40933.3
56633.7,40919
56584.6,40914.1
56362.5,40915.4
56300,40977.9
56200,40977.9
56137.5,40915.4
55915.4,40914.1
55866.3,40919
55819.2,40933.3
55775.8,40956.5
55737.7,40987.7
55706.5,41025.8
55683.3,41069.2
55669,41116.3
55664.1,41165.4
53438.1,41165.4
53436.4,41163.6
53260,41045.8
53064.1,40964.6
52975.6,40947
53373.7,40947
53411.4,41051.1
53525.4,41106.6
53648.1,41138.7
53774.6,41146.3
53900.3,41129.1
54020.1,41087.7
54088.6,41051.1
54126.3,40947
53750,40570.7
53373.7,40947
52975.6,40947
52856.1,40923.2
52643.9,40923.2
52435.9,40964.6
52240,41045.8
52063.6,41163.6
51913.6,41313.6
51795.8,41490
51714.6,41685.9
51673.2,41893.9
49827.9,41893.9
49831,41883.7
49835.9,41834.6
49834.6,41612.5
49772.1,41550
49300,41550
49300,41557.9
49200,41557.9
49200,41550
48727.9,41550
48665.4,41612.5
48664.1,41834.6
46815,41834.6
46785.4,41685.9
46704.2,41490
46586.4,41313.6
46438.1,41165.4
48664.1,41165.4
48665.4,41387.5
48727.9,41450
49200,41450
49200,40977.9
49300,40977.9
49300,41450
49772.1,41450
49834.6,41387.5
49835.9,41165.4
49831,41116.3
49816.7,41069.2
49793.5,41025.8
49762.3,40987.7
49724.2,40956.5
49680.8,40933.3
49633.7,40919
49584.6,40914.1
49362.5,40915.4
49300,40977.9
49200,40977.9
49137.5,40915.4
48915.4,40914.1
48866.3,40919
48819.2,40933.3
48775.8,40956.5
48737.7,40987.7
48706.5,41025.8
48683.3,41069.2
48669,41116.3
48664.1,41165.4
46438.1,41165.4
46436.4,41163.6
46260,41045.8
46064.1,40964.6
45975.6,40947
46373.7,40947
46411.4,41051.1
46525.4,41106.6
46648.1,41138.7
46774.6,41146.3
46900.3,41129.1
47020.1,41087.7
47088.6,41051.1
47126.3,40947
46750,40570.7
46373.7,40947
45975.6,40947
45856.1,40923.2
45643.9,40923.2
45435.9,40964.6
45240,41045.8
45063.6,41163.6
44913.6,41313.6
44795.8,41490
44714.6,41685.9
44673.2,41893.9
43182.9,41893.9
43204.1,41872.7
43268.1,41776.9
43312.2,41670.5
43334.6,41557.6
43334.6,41442.4
43312.2,41329.5
43268.1,41223.1
43204.1,41127.3
43152.2,41075.4
43180.8,41066.7
43224.2,41043.5
43262.3,41012.3
43293.5,40974.2
43316.7,40930.8
43331,40883.7
43335.9,40834.6
43334.6,40612.5
43272.1,40550
42800,40550
42800,40557.9
42700,40557.9
42700,40550
42692.1,40550
42692.1,40524.6
46103.7,40524.6
46120.9,40650.3
46162.3,40770.1
46198.9,40838.6
46303,40876.3
46679.3,40500
46820.7,40500
47197,40876.3
47301.1,40838.6
47356.6,40724.6
47388.7,40601.9
47393.4,40524.6
53103.7,40524.6
53120.9,40650.3
53162.3,40770.1
53198.9,40838.6
53303,40876.3
53679.3,40500
53820.7,40500
54197,40876.3
54301.1,40838.6
54356.6,40724.6
54388.7,40601.9
54391.7,40553
57873.7,40553
58250,40929.3
58626.3,40553
58588.6,40448.9
58474.6,40393.4
58351.9,40361.3
58225.4,40353.7
58099.7,40370.9
57979.9,40412.3
57911.4,40448.9
57873.7,40553
54391.7,40553
54396.3,40475.4
54379.1,40349.7
54337.7,40229.9
54301.1,40161.4
54197,40123.7
53820.7,40500
53679.3,40500
53303,40123.7
53198.9,40161.4
53143.4,40275.4
53111.3,40398.1
53103.7,40524.6
47393.4,40524.6
47396.3,40475.4
47379.1,40349.7
47337.7,40229.9
47301.1,40161.4
47197,40123.7
46820.7,40500
46679.3,40500
46303,40123.7
46198.9,40161.4
46143.4,40275.4
46111.3,40398.1
46103.7,40524.6
42692.1,40524.6
42692.1,40450
42700,40450
42700,39977.9
42800,39977.9
42800,40450
43272.1,40450
43334.6,40387.5
43335.9,40165.4
43331,40116.3
43316.7,40069.2
43308.1,40053
46373.7,40053
46750,40429.3
47126.3,40053
53373.7,40053
53750,40429.3
54126.3,40053
54088.6,39948.9
53974.6,39893.4
53851.9,39861.3
53725.4,39853.7
53599.7,39870.9
53479.9,39912.3
53411.4,39948.9
53373.7,40053
47126.3,40053
47088.6,39948.9
46974.6,39893.4
46851.9,39861.3
46725.4,39853.7
46599.7,39870.9
46479.9,39912.3
46411.4,39948.9
46373.7,40053
43308.1,40053
43293.5,40025.8
43262.3,39987.7
43224.2,39956.5
43180.8,39933.3
43133.7,39919
43084.6,39914.1
42862.5,39915.4
42800,39977.9
42700,39977.9
42637.5,39915.4
42532.9,39914.8
42592.2,39890.2
42710.5,39811.2
42811.2,39710.5
42890.2,39592.2
42944.7,39460.7
42972.4,39321.2
42972.4,39178.8
42944.7,39039.3
42890.2,38907.8
42811.2,38789.5
42781.5,38759.8
76240.2,38759.8
Z" /> 
</g>
</g>
</g>
<g style="fill:#FFFFFF; fill-opacity:1.0; 
stroke:#FFFFFF; stroke-width:100; stroke-opacity:1; 
stroke-linecap:round; stroke-linejoin:round;">
</g>
<g style="fill:#FFFFFF; fill-opacity:1.0; 
stroke:#FFFFFF; stroke-width:0; stroke-opacity:1; 
stroke-linecap:round; stroke-linejoin:round;">
<circle cx="42250" cy="39250" r="433.071" /> 
</g>
<g style="fill:#FFFFFF; fill-opacity:1.0; 
stroke:#FFFFFF; stroke-width:39.3701; stroke-opacity:1; 
stroke-linecap:round; stroke-linejoin:round;">
</g>
<g style="fill:#FFFFFF; fill-opacity:1.0; 
stroke:#FFFFFF; stroke-width:0; stroke-opacity:1; 
stroke-linecap:round; stroke-linejoin:round;">
<circle cx="77250" cy="44750" r="433.071" /> 
</g>
<g style="fill:#FFFFFF; fill-opacity:1.0; 
stroke:#FFFFFF; stroke-width:39.3701; stroke-opacity:1; 
stroke-linecap:round; stroke-linejoin:round;">
</g>
<g style="fill:#FFFFFF; fill-opacity:1.0; 
stroke:#FFFFFF; stroke-width:0; stroke-opacity:1; 
stroke-linecap:round; stroke-linejoin:round;">
<circle cx="56000" cy="43750" r="78.7402" /> 
</g>
<g style="fill:#FFFFFF; fill-opacity:1.0; 
stroke:#FFFFFF; stroke-width:39.3701; stroke-opacity:1; 
stroke-linecap:round; stroke-linejoin:round;">
</g>
<g style="fill:#FFFFFF; fill-opacity:1.0; 
stroke:#FFFFFF; stroke-width:0; stroke-opacity:1; 
stroke-linecap:round; stroke-linejoin:round;">
<circle cx="58500" cy="42750" r="78.7402" /> 
</g>
<g style="fill:#FFFFFF; fill-opacity:1.0; 
stroke:#FFFFFF; stroke-width:39.3701; stroke-opacity:1; 
stroke-linecap:round; stroke-linejoin:round;">
</g>
<g style="fill:#FFFFFF; fill-opacity:1.0; 
stroke:#FFFFFF; stroke-width:0; stroke-opacity:1; 
stroke-linecap:round; stroke-linejoin:round;">
<circle cx="51250" cy="44500" r="78.7402" /> 
</g>
<g style="fill:#FFFFFF; fill-opacity:1.0; 
stroke:#FFFFFF; stroke-width:39.3701; stroke-opacity:1; 
stroke-linecap:round; stroke-linejoin:round;">
</g>
<g style="fill:#FFFFFF; fill-opacity:1.0; 
stroke:#FFFFFF; stroke-width:0; stroke-opacity:1; 
stroke-linecap:round; stroke-linejoin:round;">
<circle cx="72750" cy="43500" r="236.22" /> 
</g>
<g style="fill:#FFFFFF; fill-opacity:1.0; 
stroke:#FFFFFF; stroke-width:39.3701; stroke-opacity:1; 
stroke-linecap:round; stroke-linejoin:round;">
</g>
<g style="fill:#FFFFFF; fill-opacity:1.0; 
stroke:#FFFFFF; stroke-width:0; stroke-opacity:1; 
stroke-linecap:round; stroke-linejoin:round;">
<circle cx="71750" cy="41000" r="236.22" /> 
</g>
<g style="fill:#FFFFFF; fill-opacity:1.0; 
stroke:#FFFFFF; stroke-width:39.3701; stroke-opacity:1; 
stroke-linecap:round; stroke-linejoin:round;">
</g>
<g style="fill:#FFFFFF; fill-opacity:1.0; 
stroke:#FFFFFF; stroke-width:0; stroke-opacity:1; 
stroke-linecap:round; stroke-linejoin:round;">
<circle cx="73750" cy="42000" r="787.402" /> 
</g>
<g style="fill:#FFFFFF; fill-opacity:1.0; 
stroke:#FFFFFF; stroke-width:39.3701; stroke-opacity:1; 
stroke-linecap:round; stroke-linejoin:round;">
</g>
<g style="fill:#FFFFFF; fill-opacity:1.0; 
stroke:#FFFFFF; stroke-width:0; stroke-opacity:1; 
stroke-linecap:round; stroke-linejoin:round;">
<circle cx="66750" cy="42000" r="787.402" /> 
</g>
<g style="fill:#FFFFFF; fill-opacity:1.0; 
stroke:#FFFFFF; stroke-width:39.3701; stroke-opacity:1; 
stroke-linecap:round; stroke-linejoin:round;">
</g>
<g style="fill:#FFFFFF; fill-opacity:1.0; 
stroke:#FFFFFF; stroke-width:0; stroke-opacity:1; 
stroke-linecap:round; stroke-linejoin:round;">
<circle cx="64750" cy="41000" r="236.22" /> 
</g>
<g style="fill:#FFFFFF; fill-opacity:1.0; 
stroke:#FFFFFF; stroke-width:39.3701; stroke-opacity:1; 
stroke-linecap:round; stroke-linejoin:round;">
</g>
<g style="fill:#FFFFFF; fill-opacity:1.0; 
stroke:#FFFFFF; stroke-width:0; stroke-opacity:1; 
stroke-linecap:round; stroke-linejoin:round;">
<circle cx="65750" cy="43500" r="236.22" /> 
</g>
<g style="fill:#FFFFFF; fill-opacity:1.0; 
stroke:#FFFFFF; stroke-width:39.3701; stroke-opacity:1; 
stroke-linecap:round; stroke-linejoin:round;">
</g>
<g style="fill:#FFFFFF; fill-opacity:1.0; 
stroke:#FFFFFF; stroke-width:0; stroke-opacity:1; 
stroke-linecap:round; stroke-linejoin:round;">
<circle cx="58250" cy="41000" r="236.22" /> 
</g>
<g style="fill:#FFFFFF; fill-opacity:1.0; 
stroke:#FFFFFF; stroke-width:39.3701; stroke-opacity:1; 
stroke-linecap:round; stroke-linejoin:round;">
</g>
<g style="fill:#FFFFFF; fill-opacity:1.0; 
stroke:#FFFFFF; stroke-width:0; stroke-opacity:1; 
stroke-linecap:round; stroke-linejoin:round;">
<circle cx="60750" cy="40000" r="236.22" /> 
</g>
<g style="fill:#FFFFFF; fill-opacity:1.0; 
stroke:#FFFFFF; stroke-width:39.3701; stroke-opacity:1; 
stroke-linecap:round; stroke-linejoin:round;">
</g>
<g style="fill:#FFFFFF; fill-opacity:1.0; 
stroke:#FFFFFF; stroke-width:0; stroke-opacity:1; 
stroke-linecap:round; stroke-linejoin:round;">
<circle cx="59750" cy="42000" r="787.402" /> 
</g>
<g style="fill:#FFFFFF; fill-opacity:1.0; 
stroke:#FFFFFF; stroke-width:39.3701; stroke-opacity:1; 
stroke-linecap:round; stroke-linejoin:round;">
</g>
<g style="fill:#FFFFFF; fill-opacity:1.0; 
stroke:#FFFFFF; stroke-width:0; stroke-opacity:1; 
stroke-linecap:round; stroke-linejoin:round;">
<circle cx="52750" cy="42000" r="787.402" /> 
</g>
<g style="fill:#FFFFFF; fill-opacity:1.0; 
stroke:#FFFFFF; stroke-width:39.3701; stroke-opacity:1; 
stroke-linecap:round; stroke-linejoin:round;">
</g>
<g style="fill:#FFFFFF; fill-opacity:1.0; 
stroke:#FFFFFF; stroke-width:0; stroke-opacity:1; 
stroke-linecap:round; stroke-linejoin:round;">
<circle cx="54750" cy="43000" r="236.22" /> 
</g>
<g style="fill:#FFFFFF; fill-opacity:1.0; 
stroke:#FFFFFF; stroke-width:39.3701; stroke-opacity:1; 
stroke-linecap:round; stroke-linejoin:round;">
</g>
<g style="fill:#FFFFFF; fill-opacity:1.0; 
stroke:#FFFFFF; stroke-width:0; stroke-opacity:1; 
stroke-linecap:round; stroke-linejoin:round;">
<circle cx="53750" cy="40500" r="236.22" /> 
</g>
<g style="fill:#FFFFFF; fill-opacity:1.0; 
stroke:#FFFFFF; stroke-width:39.3701; stroke-opacity:1; 
stroke-linecap:round; stroke-linejoin:round;">
</g>
<g style="fill:#FFFFFF; fill-opacity:1.0; 
stroke:#FFFFFF; stroke-width:0; stroke-opacity:1; 
stroke-linecap:round; stroke-linejoin:round;">
<circle cx="46750" cy="40500" r="236.22" /> 
</g>
<g style="fill:#FFFFFF; fill-opacity:1.0; 
stroke:#FFFFFF; stroke-width:39.3701; stroke-opacity:1; 
stroke-linecap:round; stroke-linejoin:round;">
</g>
<g style="fill:#FFFFFF; fill-opacity:1.0; 
stroke:#FFFFFF; stroke-width:0; stroke-opacity:1; 
stroke-linecap:round; stroke-linejoin:round;">
<circle cx="47750" cy="43000" r="236.22" /> 
</g>
<g style="fill:#FFFFFF; fill-opacity:1.0; 
stroke:#FFFFFF; stroke-width:39.3701; stroke-opacity:1; 
stroke-linecap:round; stroke-linejoin:round;">
</g>
<g style="fill:#FFFFFF; fill-opacity:1.0; 
stroke:#FFFFFF; stroke-width:0; stroke-opacity:1; 
stroke-linecap:round; stroke-linejoin:round;">
<circle cx="45750" cy="42000" r="787.402" /> 
</g>
<g style="fill:#FFFFFF; fill-opacity:1.0; 
stroke:#FFFFFF; stroke-width:39.3701; stroke-opacity:1; 
stroke-linecap:round; stroke-linejoin:round;">
</g>
<g style="fill:#FFFFFF; fill-opacity:1.0; 
stroke:#FFFFFF; stroke-width:0; stroke-opacity:1; 
stroke-linecap:round; stroke-linejoin:round;">
<circle cx="56250" cy="42500" r="196.85" /> 
</g>
<g style="fill:#FFFFFF; fill-opacity:1.0; 
stroke:#FFFFFF; stroke-width:39.3701; stroke-opacity:1; 
stroke-linecap:round; stroke-linejoin:round;">
</g>
<g style="fill:#FFFFFF; fill-opacity:1.0; 
stroke:#FFFFFF; stroke-width:0; stroke-opacity:1; 
stroke-linecap:round; stroke-linejoin:round;">
<circle cx="56250" cy="41500" r="196.85" /> 
</g>
<g style="fill:#FFFFFF; fill-opacity:1.0; 
stroke:#FFFFFF; stroke-width:39.3701; stroke-opacity:1; 
stroke-linecap:round; stroke-linejoin:round;">
</g>
<g style="fill:#FFFFFF; fill-opacity:1.0; 
stroke:#FFFFFF; stroke-width:0; stroke-opacity:1; 
stroke-linecap:round; stroke-linejoin:round;">
<circle cx="49250" cy="41500" r="196.85" /> 
</g>
<g style="fill:#FFFFFF; fill-opacity:1.0; 
stroke:#FFFFFF; stroke-width:39.3701; stroke-opacity:1; 
stroke-linecap:round; stroke-linejoin:round;">
</g>
<g style="fill:#FFFFFF; fill-opacity:1.0; 
stroke:#FFFFFF; stroke-width:0; stroke-opacity:1; 
stroke-linecap:round; stroke-linejoin:round;">
<circle cx="49250" cy="42500" r="196.85" /> 
</g>
<g style="fill:#FFFFFF; fill-opacity:1.0; 
stroke:#FFFFFF; stroke-width:39.3701; stroke-opacity:1; 
stroke-linecap:round; stroke-linejoin:round;">
</g>
<g style="fill:#FFFFFF; fill-opacity:1.0; 
stroke:#FFFFFF; stroke-width:0; stroke-opacity:1; 
stroke-linecap:round; stroke-linejoin:round;">
<circle cx="76750" cy="43500" r="196.85" /> 
</g>
<g style="fill:#FFFFFF; fill-opacity:1.0; 
stroke:#FFFFFF; stroke-width:39.3701; stroke-opacity:1; 
stroke-linecap:round; stroke-linejoin:round;">
</g>
<g style="fill:#FFFFFF; fill-opacity:1.0; 
stroke:#FFFFFF; stroke-width:0; stroke-opacity:1; 
stroke-linecap:round; stroke-linejoin:round;">
<circle cx="76750" cy="42500" r="196.85" /> 
</g>
<g style="fill:#FFFFFF; fill-opacity:1.0; 
stroke:#FFFFFF; stroke-width:39.3701; stroke-opacity:1; 
stroke-linecap:round; stroke-linejoin:round;">
</g>
<g style="fill:#FFFFFF; fill-opacity:1.0; 
stroke:#FFFFFF; stroke-width:0; stroke-opacity:1; 
stroke-linecap:round; stroke-linejoin:round;">
<circle cx="76750" cy="41500" r="196.85" /> 
</g>
<g style="fill:#FFFFFF; fill-opacity:1.0; 
stroke:#FFFFFF; stroke-width:39.3701; stroke-opacity:1; 
stroke-linecap:round; stroke-linejoin:round;">
</g>
<g style="fill:#FFFFFF; fill-opacity:1.0; 
stroke:#FFFFFF; stroke-width:0; stroke-opacity:1; 
stroke-linecap:round; stroke-linejoin:round;">
<circle cx="76750" cy="40500" r="196.85" /> 
</g>
<g style="fill:#FFFFFF; fill-opacity:1.0; 
stroke:#FFFFFF; stroke-width:39.3701; stroke-opacity:1; 
stroke-linecap:round; stroke-linejoin:round;">
</g>
<g style="fill:#FFFFFF; fill-opacity:1.0; 
stroke:#FFFFFF; stroke-width:0; stroke-opacity:1; 
stroke-linecap:round; stroke-linejoin:round;">
<circle cx="42750" cy="40500" r="196.85" /> 
</g>
<g style="fill:#FFFFFF; fill-opacity:1.0; 
stroke:#FFFFFF; stroke-width:39.3701; stroke-opacity:1; 
stroke-linecap:round; stroke-linejoin:round;">
</g>
<g style="fill:#FFFFFF; fill-opacity:1.0; 
stroke:#FFFFFF; stroke-width:0; stroke-opacity:1; 
stroke-linecap:round; stroke-linejoin:round;">
<circle cx="42750" cy="41500" r="196.85" /> 
</g>
<g style="fill:#FFFFFF; fill-opacity:1.0; 
stroke:#FFFFFF; stroke-width:39.3701; stroke-opacity:1; 
stroke-linecap:round; stroke-linejoin:round;">
</g>
<g style="fill:#FFFFFF; fill-opacity:1.0; 
stroke:#FFFFFF; stroke-width:0; stroke-opacity:1; 
stroke-linecap:round; stroke-linejoin:round;">
<circle cx="42750" cy="42500" r="196.85" /> 
</g>
<g style="fill:#FFFFFF; fill-opacity:1.0; 
stroke:#FFFFFF; stroke-width:39.3701; stroke-opacity:1; 
stroke-linecap:round; stroke-linejoin:round;">
</g>
<g style="fill:#FFFFFF; fill-opacity:1.0; 
stroke:#FFFFFF; stroke-width:0; stroke-opacity:1; 
stroke-linecap:round; stroke-linejoin:round;">
<circle cx="42750" cy="43500" r="196.85" /> 
</g>
<g style="fill:#FFFFFF; fill-opacity:1.0; 
stroke:#FFFFFF; stroke-width:39.3701; stroke-opacity:1; 
stroke-linecap:round; stroke-linejoin:round;">
</g>
<g style="fill:#FFFFFF; fill-opacity:1.0; 
stroke:#FFFFFF; stroke-width:0; stroke-opacity:1; 
stroke-linecap:round; stroke-linejoin:round;">
<circle cx="62500" cy="45000" r="196.85" /> 
</g>
<g style="fill:#FFFFFF; fill-opacity:1.0; 
stroke:#FFFFFF; stroke-width:39.3701; stroke-opacity:1; 
stroke-linecap:round; stroke-linejoin:round;">
</g>
<g style="fill:#FFFFFF; fill-opacity:1.0; 
stroke:#FFFFFF; stroke-width:0; stroke-opacity:1; 
stroke-linecap:round; stroke-linejoin:round;">
<circle cx="61500" cy="45000" r="196.85" /> 
</g>
<g style="fill:#FFFFFF; fill-opacity:1.0; 
stroke:#FFFFFF; stroke-width:39.3701; stroke-opacity:1; 
stroke-linecap:round; stroke-linejoin:round;">
</g>
<g style="fill:#FFFFFF; fill-opacity:1.0; 
stroke:#FFFFFF; stroke-width:0; stroke-opacity:1; 
stroke-linecap:round; stroke-linejoin:round;">
<circle cx="60500" cy="45000" r="196.85" /> 
</g>
<g style="fill:#FFFFFF; fill-opacity:1.0; 
stroke:#FFFFFF; stroke-width:39.3701; stroke-opacity:1; 
stroke-linecap:round; stroke-linejoin:round;">
</g>
<g style="fill:#FFFFFF; fill-opacity:1.0; 
stroke:#FFFFFF; stroke-width:0; stroke-opacity:1; 
stroke-linecap:round; stroke-linejoin:round;">
<circle cx="59500" cy="45000" r="196.85" /> 
</g>
<g style="fill:#FFFFFF; fill-opacity:1.0; 
stroke:#FFFFFF; stroke-width:39.3701; stroke-opacity:1; 
stroke-linecap:round; stroke-linejoin:round;">
</g>
<g style="fill:#FFFFFF; fill-opacity:1.0; 
stroke:#FFFFFF; stroke-width:0; stroke-opacity:1; 
stroke-linecap:round; stroke-linejoin:round;">
<circle cx="58500" cy="45000" r="196.85" /> 
</g>
<g style="fill:#FFFFFF; fill-opacity:1.0; 
stroke:#FFFFFF; stroke-width:39.3701; stroke-opacity:1; 
stroke-linecap:round; stroke-linejoin:round;">
</g>
<g style="fill:#FFFFFF; fill-opacity:1.0; 
stroke:#FFFFFF; stroke-width:0; stroke-opacity:1; 
stroke-linecap:round; stroke-linejoin:round;">
<circle cx="57500" cy="45000" r="196.85" /> 
</g>
<g style="fill:#FFFFFF; fill-opacity:1.0; 
stroke:#FFFFFF; stroke-width:39.3701; stroke-opacity:1; 
stroke-linecap:round; stroke-linejoin:round;">
</g>
<g style="fill:#FFFFFF; fill-opacity:1.0; 
stroke:#FFFFFF; stroke-width:0; stroke-opacity:1; 
stroke-linecap:round; stroke-linejoin:round;">
<circle cx="56500" cy="45000" r="196.85" /> 
</g>
<g style="fill:#FFFFFF; fill-opacity:1.0; 
stroke:#FFFFFF; stroke-width:39.3701; stroke-opacity:1; 
stroke-linecap:round; stroke-linejoin:round;">
</g>
<g style="fill:#FFFFFF; fill-opacity:1.0; 
stroke:#FFFFFF; stroke-width:0; stroke-opacity:1; 
stroke-linecap:round; stroke-linejoin:round;">
<circle cx="55500" cy="45000" r="196.85" /> 
</g>
<g style="fill:#FFFFFF; fill-opacity:1.0; 
stroke:#FFFFFF; stroke-width:39.3701; stroke-opacity:1; 
stroke-linecap:round; stroke-linejoin:round;">
</g>
<g style="fill:#000000; fill-opacity:1.0; 
stroke:#000000; stroke-width:39.3701; stroke-opacity:1; 
stroke-linecap:round; stroke-linejoin:round;">
</g>
<g style="fill:#C2C200; fill-opacity:1.0; 
stroke:#C2C200; stroke-width:39.3701; stroke-opacity:1; 
stroke-linecap:round; stroke-linejoin:round;">
</g>
<g style="fill:#C2C200; fill-opacity:1.0; 
stroke:#C2C200; stroke-width:19.685; stroke-opacity:1; 
stroke-linecap:round; stroke-linejoin:round;">
</g>
<g style="fill:#C2C200; fill-opacity:0.0; 
stroke:#C2C200; stroke-width:19.685; stroke-opacity:1; 
stroke-linecap:round; stroke-linejoin:round;">
<path d="M72250 38500
L76500 38500
" />
<path d="M46750 38500
L72250 38500
" />
<path d="M42250 38500
L46750 38500
" />
<path d="M45500 45500
L75250 45500
" />
<path d="M43000 45500
L45500 45500
" />
<path d="M75250 45500
L77250 45500
" />
<path d="M77250 44000
L77250 40000
" />
<path d="M42250 40000
L42250 44000
" />
<path d="M43000 45500
L43000 44750
" />
<path d="M43000 44750 A750 750 0.0 0 0 42250 44000" />
<path d="M76500 39250
L76500 38500
" />
<path d="M76500 39250 A750 750 0.0 0 0 77250 40000" />
<path d="M77250 45500 A750 750 0.0 0 0 77250 44000" />
<path d="M42250 38500 A750 750 0.0 0 0 42250 40000" />
<g >
</g>
<g >
</g>
<g >
</g>
<g >
</g>
<g >
</g>
<g >
</g>
<g >
</g>
<g >
</g>
<g >
</g>
<g >
</g>
<g >
</g>
</g> 
</svg>
