G04 #@! TF.GenerationSoftware,KiCad,Pcbnew,(5.1.8)-1*
G04 #@! TF.CreationDate,2023-06-19T23:59:53+09:00*
G04 #@! TF.ProjectId,windsynth,77696e64-7379-46e7-9468-2e6b69636164,rev?*
G04 #@! TF.SameCoordinates,Original*
G04 #@! TF.FileFunction,Legend,Bot*
G04 #@! TF.FilePolarity,Positive*
%FSLAX46Y46*%
G04 Gerber Fmt 4.6, Leading zero omitted, Abs format (unit mm)*
G04 Created by KiCad (PCBNEW (5.1.8)-1) date 2023-06-19 23:59:53*
%MOMM*%
%LPD*%
G01*
G04 APERTURE LIST*
%ADD10C,0.120000*%
%ADD11C,0.150000*%
G04 APERTURE END LIST*
D10*
X170800000Y-103800000D02*
G75*
G02*
X172400000Y-103800000I800000J0D01*
G01*
X172400000Y-103800000D02*
X175400000Y-103800000D01*
X175400000Y-103800000D02*
X175400000Y-96200000D01*
X175400000Y-96200000D02*
X167800000Y-96200000D01*
X167800000Y-103800000D02*
X170800000Y-103800000D01*
X167800000Y-96200000D02*
X167800000Y-103800000D01*
D11*
X129380952Y-117071428D02*
X128619047Y-117071428D01*
X129000000Y-117452380D02*
X129000000Y-116690476D01*
X159619047Y-93928571D02*
X160380952Y-93928571D01*
X160000000Y-93547619D02*
X160000000Y-94309523D01*
D10*
X152300000Y-103800000D02*
G75*
G02*
X153900000Y-103800000I800000J0D01*
G01*
X156900000Y-96200000D02*
X149300000Y-96200000D01*
X156900000Y-103800000D02*
X156900000Y-96200000D01*
X153900000Y-103800000D02*
X156900000Y-103800000D01*
X149300000Y-103800000D02*
X152300000Y-103800000D01*
X149300000Y-96200000D02*
X149300000Y-103800000D01*
D11*
X220119047Y-112714285D02*
X220880952Y-112428571D01*
X220119047Y-112142857D01*
X201119047Y-112714285D02*
X201880952Y-112428571D01*
X201119047Y-112142857D01*
X182119047Y-112714285D02*
X182880952Y-112428571D01*
X182119047Y-112142857D01*
X163119047Y-112714285D02*
X163880952Y-112428571D01*
X163119047Y-112142857D01*
X144119047Y-112714285D02*
X144880952Y-112428571D01*
X144119047Y-112142857D01*
X232380952Y-71285714D02*
X231619047Y-71571428D01*
X232380952Y-71857142D01*
X213880952Y-71285714D02*
X213119047Y-71571428D01*
X213880952Y-71857142D01*
X194380952Y-71285714D02*
X193619047Y-71571428D01*
X194380952Y-71857142D01*
X175880952Y-71285714D02*
X175119047Y-71571428D01*
X175880952Y-71857142D01*
X156380952Y-71285714D02*
X155619047Y-71571428D01*
X156380952Y-71857142D01*
D10*
X215294000Y-99532000D02*
X190294000Y-99532000D01*
X215294000Y-84532000D02*
X215294000Y-99532000D01*
X190294000Y-84532000D02*
X215294000Y-84532000D01*
X190294000Y-99532000D02*
X190294000Y-84532000D01*
X185794000Y-103532000D02*
X185794000Y-80532000D01*
X232695000Y-103532000D02*
X185695000Y-103532000D01*
X232695000Y-80532000D02*
X232695000Y-103532000D01*
X185695000Y-80532000D02*
X232695000Y-80532000D01*
D11*
X227712023Y-78666666D02*
X227235833Y-78666666D01*
X227807261Y-78952380D02*
X227473928Y-77952380D01*
X227140595Y-78952380D01*
X226473928Y-78428571D02*
X226807261Y-78428571D01*
X226807261Y-78952380D02*
X226807261Y-77952380D01*
X226331071Y-77952380D01*
X225950119Y-77952380D02*
X225950119Y-78761904D01*
X225902500Y-78857142D01*
X225854880Y-78904761D01*
X225759642Y-78952380D01*
X225569166Y-78952380D01*
X225473928Y-78904761D01*
X225426309Y-78857142D01*
X225378690Y-78761904D01*
X225378690Y-77952380D01*
X224902500Y-77952380D02*
X224902500Y-78761904D01*
X224854880Y-78857142D01*
X224807261Y-78904761D01*
X224712023Y-78952380D01*
X224521547Y-78952380D01*
X224426309Y-78904761D01*
X224378690Y-78857142D01*
X224331071Y-78761904D01*
X224331071Y-77952380D01*
X223854880Y-78428571D02*
X223521547Y-78428571D01*
X223378690Y-78952380D02*
X223854880Y-78952380D01*
X223854880Y-77952380D01*
X223378690Y-77952380D01*
X221854880Y-78428571D02*
X221712023Y-78476190D01*
X221664404Y-78523809D01*
X221616785Y-78619047D01*
X221616785Y-78761904D01*
X221664404Y-78857142D01*
X221712023Y-78904761D01*
X221807261Y-78952380D01*
X222188214Y-78952380D01*
X222188214Y-77952380D01*
X221854880Y-77952380D01*
X221759642Y-78000000D01*
X221712023Y-78047619D01*
X221664404Y-78142857D01*
X221664404Y-78238095D01*
X221712023Y-78333333D01*
X221759642Y-78380952D01*
X221854880Y-78428571D01*
X222188214Y-78428571D01*
X220997738Y-77952380D02*
X220807261Y-77952380D01*
X220712023Y-78000000D01*
X220616785Y-78095238D01*
X220569166Y-78285714D01*
X220569166Y-78619047D01*
X220616785Y-78809523D01*
X220712023Y-78904761D01*
X220807261Y-78952380D01*
X220997738Y-78952380D01*
X221092976Y-78904761D01*
X221188214Y-78809523D01*
X221235833Y-78619047D01*
X221235833Y-78285714D01*
X221188214Y-78095238D01*
X221092976Y-78000000D01*
X220997738Y-77952380D01*
X220188214Y-78666666D02*
X219712023Y-78666666D01*
X220283452Y-78952380D02*
X219950119Y-77952380D01*
X219616785Y-78952380D01*
X218712023Y-78952380D02*
X219045357Y-78476190D01*
X219283452Y-78952380D02*
X219283452Y-77952380D01*
X218902500Y-77952380D01*
X218807261Y-78000000D01*
X218759642Y-78047619D01*
X218712023Y-78142857D01*
X218712023Y-78285714D01*
X218759642Y-78380952D01*
X218807261Y-78428571D01*
X218902500Y-78476190D01*
X219283452Y-78476190D01*
X218283452Y-78952380D02*
X218283452Y-77952380D01*
X218045357Y-77952380D01*
X217902500Y-78000000D01*
X217807261Y-78095238D01*
X217759642Y-78190476D01*
X217712023Y-78380952D01*
X217712023Y-78523809D01*
X217759642Y-78714285D01*
X217807261Y-78809523D01*
X217902500Y-78904761D01*
X218045357Y-78952380D01*
X218283452Y-78952380D01*
X216664404Y-77952380D02*
X216331071Y-78952380D01*
X215997738Y-77952380D01*
X215283452Y-78904761D02*
X215378690Y-78952380D01*
X215569166Y-78952380D01*
X215664404Y-78904761D01*
X215712023Y-78809523D01*
X215712023Y-78428571D01*
X215664404Y-78333333D01*
X215569166Y-78285714D01*
X215378690Y-78285714D01*
X215283452Y-78333333D01*
X215235833Y-78428571D01*
X215235833Y-78523809D01*
X215712023Y-78619047D01*
X214807261Y-78952380D02*
X214807261Y-78285714D01*
X214807261Y-78476190D02*
X214759642Y-78380952D01*
X214712023Y-78333333D01*
X214616785Y-78285714D01*
X214521547Y-78285714D01*
X212902500Y-78952380D02*
X213473928Y-78952380D01*
X213188214Y-78952380D02*
X213188214Y-77952380D01*
X213283452Y-78095238D01*
X213378690Y-78190476D01*
X213473928Y-78238095D01*
X212473928Y-78857142D02*
X212426309Y-78904761D01*
X212473928Y-78952380D01*
X212521547Y-78904761D01*
X212473928Y-78857142D01*
X212473928Y-78952380D01*
X211950119Y-78952380D02*
X211759642Y-78952380D01*
X211664404Y-78904761D01*
X211616785Y-78857142D01*
X211521547Y-78714285D01*
X211473928Y-78523809D01*
X211473928Y-78142857D01*
X211521547Y-78047619D01*
X211569166Y-78000000D01*
X211664404Y-77952380D01*
X211854880Y-77952380D01*
X211950119Y-78000000D01*
X211997738Y-78047619D01*
X212045357Y-78142857D01*
X212045357Y-78380952D01*
X211997738Y-78476190D01*
X211950119Y-78523809D01*
X211854880Y-78571428D01*
X211664404Y-78571428D01*
X211569166Y-78523809D01*
X211521547Y-78476190D01*
X211473928Y-78380952D01*
X210616785Y-78904761D02*
X210712023Y-78952380D01*
X210902500Y-78952380D01*
X210997738Y-78904761D01*
X211045357Y-78857142D01*
X211092976Y-78761904D01*
X211092976Y-78476190D01*
X211045357Y-78380952D01*
X210997738Y-78333333D01*
X210902500Y-78285714D01*
X210712023Y-78285714D01*
X210616785Y-78333333D01*
X209473928Y-78047619D02*
X209426309Y-78000000D01*
X209331071Y-77952380D01*
X209092976Y-77952380D01*
X208997738Y-78000000D01*
X208950119Y-78047619D01*
X208902500Y-78142857D01*
X208902500Y-78238095D01*
X208950119Y-78380952D01*
X209521547Y-78952380D01*
X208902500Y-78952380D01*
X208283452Y-77952380D02*
X208188214Y-77952380D01*
X208092976Y-78000000D01*
X208045357Y-78047619D01*
X207997738Y-78142857D01*
X207950119Y-78333333D01*
X207950119Y-78571428D01*
X207997738Y-78761904D01*
X208045357Y-78857142D01*
X208092976Y-78904761D01*
X208188214Y-78952380D01*
X208283452Y-78952380D01*
X208378690Y-78904761D01*
X208426309Y-78857142D01*
X208473928Y-78761904D01*
X208521547Y-78571428D01*
X208521547Y-78333333D01*
X208473928Y-78142857D01*
X208426309Y-78047619D01*
X208378690Y-78000000D01*
X208283452Y-77952380D01*
X207569166Y-78047619D02*
X207521547Y-78000000D01*
X207426309Y-77952380D01*
X207188214Y-77952380D01*
X207092976Y-78000000D01*
X207045357Y-78047619D01*
X206997738Y-78142857D01*
X206997738Y-78238095D01*
X207045357Y-78380952D01*
X207616785Y-78952380D01*
X206997738Y-78952380D01*
X206664404Y-77952380D02*
X206045357Y-77952380D01*
X206378690Y-78333333D01*
X206235833Y-78333333D01*
X206140595Y-78380952D01*
X206092976Y-78428571D01*
X206045357Y-78523809D01*
X206045357Y-78761904D01*
X206092976Y-78857142D01*
X206140595Y-78904761D01*
X206235833Y-78952380D01*
X206521547Y-78952380D01*
X206616785Y-78904761D01*
X206664404Y-78857142D01*
X204902500Y-77904761D02*
X205759642Y-79190476D01*
X204378690Y-77952380D02*
X204283452Y-77952380D01*
X204188214Y-78000000D01*
X204140595Y-78047619D01*
X204092976Y-78142857D01*
X204045357Y-78333333D01*
X204045357Y-78571428D01*
X204092976Y-78761904D01*
X204140595Y-78857142D01*
X204188214Y-78904761D01*
X204283452Y-78952380D01*
X204378690Y-78952380D01*
X204473928Y-78904761D01*
X204521547Y-78857142D01*
X204569166Y-78761904D01*
X204616785Y-78571428D01*
X204616785Y-78333333D01*
X204569166Y-78142857D01*
X204521547Y-78047619D01*
X204473928Y-78000000D01*
X204378690Y-77952380D01*
X203188214Y-77952380D02*
X203378690Y-77952380D01*
X203473928Y-78000000D01*
X203521547Y-78047619D01*
X203616785Y-78190476D01*
X203664404Y-78380952D01*
X203664404Y-78761904D01*
X203616785Y-78857142D01*
X203569166Y-78904761D01*
X203473928Y-78952380D01*
X203283452Y-78952380D01*
X203188214Y-78904761D01*
X203140595Y-78857142D01*
X203092976Y-78761904D01*
X203092976Y-78523809D01*
X203140595Y-78428571D01*
X203188214Y-78380952D01*
X203283452Y-78333333D01*
X203473928Y-78333333D01*
X203569166Y-78380952D01*
X203616785Y-78428571D01*
X203664404Y-78523809D01*
X201950119Y-77904761D02*
X202807261Y-79190476D01*
X201092976Y-78952380D02*
X201664404Y-78952380D01*
X201378690Y-78952380D02*
X201378690Y-77952380D01*
X201473928Y-78095238D01*
X201569166Y-78190476D01*
X201664404Y-78238095D01*
X200616785Y-78952380D02*
X200426309Y-78952380D01*
X200331071Y-78904761D01*
X200283452Y-78857142D01*
X200188214Y-78714285D01*
X200140595Y-78523809D01*
X200140595Y-78142857D01*
X200188214Y-78047619D01*
X200235833Y-78000000D01*
X200331071Y-77952380D01*
X200521547Y-77952380D01*
X200616785Y-78000000D01*
X200664404Y-78047619D01*
X200712023Y-78142857D01*
X200712023Y-78380952D01*
X200664404Y-78476190D01*
X200616785Y-78523809D01*
X200521547Y-78571428D01*
X200331071Y-78571428D01*
X200235833Y-78523809D01*
X200188214Y-78476190D01*
X200140595Y-78380952D01*
X198331071Y-78476190D02*
X198378690Y-78428571D01*
X198473928Y-78380952D01*
X198569166Y-78380952D01*
X198664404Y-78428571D01*
X198712023Y-78476190D01*
X198759642Y-78571428D01*
X198759642Y-78666666D01*
X198712023Y-78761904D01*
X198664404Y-78809523D01*
X198569166Y-78857142D01*
X198473928Y-78857142D01*
X198378690Y-78809523D01*
X198331071Y-78761904D01*
X198331071Y-78380952D02*
X198331071Y-78761904D01*
X198283452Y-78809523D01*
X198235833Y-78809523D01*
X198140595Y-78761904D01*
X198092976Y-78666666D01*
X198092976Y-78428571D01*
X198188214Y-78285714D01*
X198331071Y-78190476D01*
X198521547Y-78142857D01*
X198712023Y-78190476D01*
X198854880Y-78285714D01*
X198950119Y-78428571D01*
X198997738Y-78619047D01*
X198950119Y-78809523D01*
X198854880Y-78952380D01*
X198712023Y-79047619D01*
X198521547Y-79095238D01*
X198331071Y-79047619D01*
X198188214Y-78952380D01*
X197473928Y-77952380D02*
X197283452Y-77952380D01*
X197188214Y-78000000D01*
X197092976Y-78095238D01*
X197045357Y-78285714D01*
X197045357Y-78619047D01*
X197092976Y-78809523D01*
X197188214Y-78904761D01*
X197283452Y-78952380D01*
X197473928Y-78952380D01*
X197569166Y-78904761D01*
X197664404Y-78809523D01*
X197712023Y-78619047D01*
X197712023Y-78285714D01*
X197664404Y-78095238D01*
X197569166Y-78000000D01*
X197473928Y-77952380D01*
X196759642Y-78285714D02*
X196378690Y-78285714D01*
X196616785Y-77952380D02*
X196616785Y-78809523D01*
X196569166Y-78904761D01*
X196473928Y-78952380D01*
X196378690Y-78952380D01*
X195902500Y-78952380D02*
X195997738Y-78904761D01*
X196045357Y-78857142D01*
X196092976Y-78761904D01*
X196092976Y-78476190D01*
X196045357Y-78380952D01*
X195997738Y-78333333D01*
X195902500Y-78285714D01*
X195759642Y-78285714D01*
X195664404Y-78333333D01*
X195616785Y-78380952D01*
X195569166Y-78476190D01*
X195569166Y-78761904D01*
X195616785Y-78857142D01*
X195664404Y-78904761D01*
X195759642Y-78952380D01*
X195902500Y-78952380D01*
X194997738Y-78952380D02*
X195092976Y-78904761D01*
X195140595Y-78857142D01*
X195188214Y-78761904D01*
X195188214Y-78476190D01*
X195140595Y-78380952D01*
X195092976Y-78333333D01*
X194997738Y-78285714D01*
X194854880Y-78285714D01*
X194759642Y-78333333D01*
X194712023Y-78380952D01*
X194664404Y-78476190D01*
X194664404Y-78761904D01*
X194712023Y-78857142D01*
X194759642Y-78904761D01*
X194854880Y-78952380D01*
X194997738Y-78952380D01*
X194235833Y-78285714D02*
X194235833Y-78952380D01*
X194235833Y-78380952D02*
X194188214Y-78333333D01*
X194092976Y-78285714D01*
X193950119Y-78285714D01*
X193854880Y-78333333D01*
X193807261Y-78428571D01*
X193807261Y-78952380D01*
X192950119Y-78904761D02*
X193045357Y-78952380D01*
X193235833Y-78952380D01*
X193331071Y-78904761D01*
X193378690Y-78809523D01*
X193378690Y-78428571D01*
X193331071Y-78333333D01*
X193235833Y-78285714D01*
X193045357Y-78285714D01*
X192950119Y-78333333D01*
X192902500Y-78428571D01*
X192902500Y-78523809D01*
X193378690Y-78619047D01*
X192473928Y-78952380D02*
X192473928Y-77952380D01*
X192235833Y-77952380D01*
X192092976Y-78000000D01*
X191997738Y-78095238D01*
X191950119Y-78190476D01*
X191902500Y-78380952D01*
X191902500Y-78523809D01*
X191950119Y-78714285D01*
X191997738Y-78809523D01*
X192092976Y-78904761D01*
X192235833Y-78952380D01*
X192473928Y-78952380D01*
X191092976Y-78904761D02*
X191188214Y-78952380D01*
X191378690Y-78952380D01*
X191473928Y-78904761D01*
X191521547Y-78809523D01*
X191521547Y-78428571D01*
X191473928Y-78333333D01*
X191378690Y-78285714D01*
X191188214Y-78285714D01*
X191092976Y-78333333D01*
X191045357Y-78428571D01*
X191045357Y-78523809D01*
X191521547Y-78619047D01*
X190712023Y-78285714D02*
X190473928Y-78952380D01*
X190235833Y-78285714D01*
G04 #@! TO.C,AE-PAM8012*
X127300000Y-97500000D02*
X137800000Y-97500000D01*
X137800000Y-97500000D02*
X137800000Y-86500000D01*
X137800000Y-86500000D02*
X127300000Y-86500000D01*
X127300000Y-86500000D02*
X127300000Y-97500000D01*
D10*
G04 #@! TO.C,D10*
X154315000Y-72040000D02*
X157000000Y-72040000D01*
X154315000Y-73960000D02*
X154315000Y-72040000D01*
X157000000Y-73960000D02*
X154315000Y-73960000D01*
G04 #@! TO.C,J3*
X182690000Y-102216000D02*
X182690000Y-81776000D01*
X182690000Y-81776000D02*
X185350000Y-81776000D01*
X185350000Y-81776000D02*
X185350000Y-102216000D01*
X185350000Y-102216000D02*
X182690000Y-102216000D01*
X185350000Y-101266000D02*
X191350000Y-101266000D01*
X191350000Y-101266000D02*
X191350000Y-100506000D01*
X191350000Y-100506000D02*
X185350000Y-100506000D01*
X185350000Y-101206000D02*
X191350000Y-101206000D01*
X185350000Y-101086000D02*
X191350000Y-101086000D01*
X185350000Y-100966000D02*
X191350000Y-100966000D01*
X185350000Y-100846000D02*
X191350000Y-100846000D01*
X185350000Y-100726000D02*
X191350000Y-100726000D01*
X185350000Y-100606000D02*
X191350000Y-100606000D01*
X182360000Y-101266000D02*
X182690000Y-101266000D01*
X182360000Y-100506000D02*
X182690000Y-100506000D01*
X182690000Y-99616000D02*
X185350000Y-99616000D01*
X185350000Y-98726000D02*
X191350000Y-98726000D01*
X191350000Y-98726000D02*
X191350000Y-97966000D01*
X191350000Y-97966000D02*
X185350000Y-97966000D01*
X182292929Y-98726000D02*
X182690000Y-98726000D01*
X182292929Y-97966000D02*
X182690000Y-97966000D01*
X182690000Y-97076000D02*
X185350000Y-97076000D01*
X185350000Y-96186000D02*
X191350000Y-96186000D01*
X191350000Y-96186000D02*
X191350000Y-95426000D01*
X191350000Y-95426000D02*
X185350000Y-95426000D01*
X182292929Y-96186000D02*
X182690000Y-96186000D01*
X182292929Y-95426000D02*
X182690000Y-95426000D01*
X182690000Y-94536000D02*
X185350000Y-94536000D01*
X185350000Y-93646000D02*
X191350000Y-93646000D01*
X191350000Y-93646000D02*
X191350000Y-92886000D01*
X191350000Y-92886000D02*
X185350000Y-92886000D01*
X182292929Y-93646000D02*
X182690000Y-93646000D01*
X182292929Y-92886000D02*
X182690000Y-92886000D01*
X182690000Y-91996000D02*
X185350000Y-91996000D01*
X185350000Y-91106000D02*
X191350000Y-91106000D01*
X191350000Y-91106000D02*
X191350000Y-90346000D01*
X191350000Y-90346000D02*
X185350000Y-90346000D01*
X182292929Y-91106000D02*
X182690000Y-91106000D01*
X182292929Y-90346000D02*
X182690000Y-90346000D01*
X182690000Y-89456000D02*
X185350000Y-89456000D01*
X185350000Y-88566000D02*
X191350000Y-88566000D01*
X191350000Y-88566000D02*
X191350000Y-87806000D01*
X191350000Y-87806000D02*
X185350000Y-87806000D01*
X182292929Y-88566000D02*
X182690000Y-88566000D01*
X182292929Y-87806000D02*
X182690000Y-87806000D01*
X182690000Y-86916000D02*
X185350000Y-86916000D01*
X185350000Y-86026000D02*
X191350000Y-86026000D01*
X191350000Y-86026000D02*
X191350000Y-85266000D01*
X191350000Y-85266000D02*
X185350000Y-85266000D01*
X182292929Y-86026000D02*
X182690000Y-86026000D01*
X182292929Y-85266000D02*
X182690000Y-85266000D01*
X182690000Y-84376000D02*
X185350000Y-84376000D01*
X185350000Y-83486000D02*
X191350000Y-83486000D01*
X191350000Y-83486000D02*
X191350000Y-82726000D01*
X191350000Y-82726000D02*
X185350000Y-82726000D01*
X182292929Y-83486000D02*
X182690000Y-83486000D01*
X182292929Y-82726000D02*
X182690000Y-82726000D01*
X179980000Y-100886000D02*
X179980000Y-102156000D01*
X179980000Y-102156000D02*
X181250000Y-102156000D01*
G04 #@! TO.C,D1*
X219500000Y-110040000D02*
X222185000Y-110040000D01*
X222185000Y-110040000D02*
X222185000Y-111960000D01*
X222185000Y-111960000D02*
X219500000Y-111960000D01*
G04 #@! TO.C,D2*
X200500000Y-110040000D02*
X203185000Y-110040000D01*
X203185000Y-110040000D02*
X203185000Y-111960000D01*
X203185000Y-111960000D02*
X200500000Y-111960000D01*
G04 #@! TO.C,D3*
X181500000Y-110040000D02*
X184185000Y-110040000D01*
X184185000Y-110040000D02*
X184185000Y-111960000D01*
X184185000Y-111960000D02*
X181500000Y-111960000D01*
G04 #@! TO.C,D4*
X162500000Y-110040000D02*
X165185000Y-110040000D01*
X165185000Y-110040000D02*
X165185000Y-111960000D01*
X165185000Y-111960000D02*
X162500000Y-111960000D01*
G04 #@! TO.C,D5*
X143500000Y-110040000D02*
X146185000Y-110040000D01*
X146185000Y-110040000D02*
X146185000Y-111960000D01*
X146185000Y-111960000D02*
X143500000Y-111960000D01*
G04 #@! TO.C,D6*
X233000000Y-73960000D02*
X230315000Y-73960000D01*
X230315000Y-73960000D02*
X230315000Y-72040000D01*
X230315000Y-72040000D02*
X233000000Y-72040000D01*
G04 #@! TO.C,D7*
X214500000Y-73960000D02*
X211815000Y-73960000D01*
X211815000Y-73960000D02*
X211815000Y-72040000D01*
X211815000Y-72040000D02*
X214500000Y-72040000D01*
G04 #@! TO.C,D8*
X195062500Y-73960000D02*
X192377500Y-73960000D01*
X192377500Y-73960000D02*
X192377500Y-72040000D01*
X192377500Y-72040000D02*
X195062500Y-72040000D01*
G04 #@! TO.C,D9*
X173815000Y-72040000D02*
X176500000Y-72040000D01*
X173815000Y-73960000D02*
X173815000Y-72040000D01*
X176500000Y-73960000D02*
X173815000Y-73960000D01*
G04 #@! TO.C,KeyDown*
X171200000Y-87500000D02*
G75*
G03*
X171200000Y-87500000I-1700000J0D01*
G01*
X177000000Y-80000000D02*
X177000000Y-95000000D01*
X162000000Y-80000000D02*
X177000000Y-80000000D01*
X162000000Y-95000000D02*
X162000000Y-80000000D01*
X177000000Y-95000000D02*
X162000000Y-95000000D01*
G04 #@! TO.C,KeyUp*
X152200000Y-87500000D02*
G75*
G03*
X152200000Y-87500000I-1700000J0D01*
G01*
X158000000Y-80000000D02*
X158000000Y-95000000D01*
X143000000Y-80000000D02*
X158000000Y-80000000D01*
X143000000Y-95000000D02*
X143000000Y-80000000D01*
X158000000Y-95000000D02*
X143000000Y-95000000D01*
G04 #@! TO.C,C1*
X164870000Y-94670000D02*
X164870000Y-97330000D01*
X162270000Y-94670000D02*
X164870000Y-94670000D01*
X162270000Y-97330000D02*
X164870000Y-97330000D01*
X162270000Y-94670000D02*
X162270000Y-97330000D01*
X161000000Y-94670000D02*
X159670000Y-94670000D01*
X159670000Y-94670000D02*
X159670000Y-96000000D01*
G04 #@! TO.C,C2*
X125670000Y-116830000D02*
X127000000Y-116830000D01*
X125670000Y-115500000D02*
X125670000Y-116830000D01*
X125670000Y-114230000D02*
X128330000Y-114230000D01*
X128330000Y-114230000D02*
X128330000Y-111630000D01*
X125670000Y-114230000D02*
X125670000Y-111630000D01*
X125670000Y-111630000D02*
X128330000Y-111630000D01*
G04 #@! TO.C,EN-LED*
X180100000Y-105700000D02*
X180100000Y-106300000D01*
X182200000Y-105000000D02*
X180800000Y-105000000D01*
X182900000Y-106300000D02*
X182900000Y-105700000D01*
X180800000Y-107000000D02*
X182200000Y-107000000D01*
X182200000Y-107000000D02*
G75*
G03*
X182900000Y-106300000I0J700000D01*
G01*
X182900000Y-105700000D02*
G75*
G03*
X182200000Y-105000000I-700000J0D01*
G01*
X180800000Y-105000000D02*
G75*
G03*
X180100000Y-105700000I0J-700000D01*
G01*
X180100000Y-106300000D02*
G75*
G03*
X180800000Y-107000000I700000J0D01*
G01*
G04 #@! TO.C,AE-PAM8012*
D11*
X126666666Y-87285714D02*
X126666666Y-87761904D01*
X126952380Y-87190476D02*
X125952380Y-87523809D01*
X126952380Y-87857142D01*
X126428571Y-88190476D02*
X126428571Y-88523809D01*
X126952380Y-88666666D02*
X126952380Y-88190476D01*
X125952380Y-88190476D01*
X125952380Y-88666666D01*
X126571428Y-89095238D02*
X126571428Y-89857142D01*
X126952380Y-90333333D02*
X125952380Y-90333333D01*
X125952380Y-90714285D01*
X126000000Y-90809523D01*
X126047619Y-90857142D01*
X126142857Y-90904761D01*
X126285714Y-90904761D01*
X126380952Y-90857142D01*
X126428571Y-90809523D01*
X126476190Y-90714285D01*
X126476190Y-90333333D01*
X126666666Y-91285714D02*
X126666666Y-91761904D01*
X126952380Y-91190476D02*
X125952380Y-91523809D01*
X126952380Y-91857142D01*
X126952380Y-92190476D02*
X125952380Y-92190476D01*
X126666666Y-92523809D01*
X125952380Y-92857142D01*
X126952380Y-92857142D01*
X126380952Y-93476190D02*
X126333333Y-93380952D01*
X126285714Y-93333333D01*
X126190476Y-93285714D01*
X126142857Y-93285714D01*
X126047619Y-93333333D01*
X126000000Y-93380952D01*
X125952380Y-93476190D01*
X125952380Y-93666666D01*
X126000000Y-93761904D01*
X126047619Y-93809523D01*
X126142857Y-93857142D01*
X126190476Y-93857142D01*
X126285714Y-93809523D01*
X126333333Y-93761904D01*
X126380952Y-93666666D01*
X126380952Y-93476190D01*
X126428571Y-93380952D01*
X126476190Y-93333333D01*
X126571428Y-93285714D01*
X126761904Y-93285714D01*
X126857142Y-93333333D01*
X126904761Y-93380952D01*
X126952380Y-93476190D01*
X126952380Y-93666666D01*
X126904761Y-93761904D01*
X126857142Y-93809523D01*
X126761904Y-93857142D01*
X126571428Y-93857142D01*
X126476190Y-93809523D01*
X126428571Y-93761904D01*
X126380952Y-93666666D01*
X125952380Y-94476190D02*
X125952380Y-94571428D01*
X126000000Y-94666666D01*
X126047619Y-94714285D01*
X126142857Y-94761904D01*
X126333333Y-94809523D01*
X126571428Y-94809523D01*
X126761904Y-94761904D01*
X126857142Y-94714285D01*
X126904761Y-94666666D01*
X126952380Y-94571428D01*
X126952380Y-94476190D01*
X126904761Y-94380952D01*
X126857142Y-94333333D01*
X126761904Y-94285714D01*
X126571428Y-94238095D01*
X126333333Y-94238095D01*
X126142857Y-94285714D01*
X126047619Y-94333333D01*
X126000000Y-94380952D01*
X125952380Y-94476190D01*
X126952380Y-95761904D02*
X126952380Y-95190476D01*
X126952380Y-95476190D02*
X125952380Y-95476190D01*
X126095238Y-95380952D01*
X126190476Y-95285714D01*
X126238095Y-95190476D01*
X126047619Y-96142857D02*
X126000000Y-96190476D01*
X125952380Y-96285714D01*
X125952380Y-96523809D01*
X126000000Y-96619047D01*
X126047619Y-96666666D01*
X126142857Y-96714285D01*
X126238095Y-96714285D01*
X126380952Y-96666666D01*
X126952380Y-96095238D01*
X126952380Y-96714285D01*
X130031428Y-89079047D02*
X130031428Y-89840952D01*
X130412380Y-89460000D02*
X129650476Y-89460000D01*
X130031428Y-94159047D02*
X130031428Y-94920952D01*
X137952380Y-88126666D02*
X138952380Y-88460000D01*
X137952380Y-88793333D01*
X138857142Y-89698095D02*
X138904761Y-89650476D01*
X138952380Y-89507619D01*
X138952380Y-89412380D01*
X138904761Y-89269523D01*
X138809523Y-89174285D01*
X138714285Y-89126666D01*
X138523809Y-89079047D01*
X138380952Y-89079047D01*
X138190476Y-89126666D01*
X138095238Y-89174285D01*
X138000000Y-89269523D01*
X137952380Y-89412380D01*
X137952380Y-89507619D01*
X138000000Y-89650476D01*
X138047619Y-89698095D01*
X138857142Y-90698095D02*
X138904761Y-90650476D01*
X138952380Y-90507619D01*
X138952380Y-90412380D01*
X138904761Y-90269523D01*
X138809523Y-90174285D01*
X138714285Y-90126666D01*
X138523809Y-90079047D01*
X138380952Y-90079047D01*
X138190476Y-90126666D01*
X138095238Y-90174285D01*
X138000000Y-90269523D01*
X137952380Y-90412380D01*
X137952380Y-90507619D01*
X138000000Y-90650476D01*
X138047619Y-90698095D01*
X138904761Y-93214285D02*
X138952380Y-93357142D01*
X138952380Y-93595238D01*
X138904761Y-93690476D01*
X138857142Y-93738095D01*
X138761904Y-93785714D01*
X138666666Y-93785714D01*
X138571428Y-93738095D01*
X138523809Y-93690476D01*
X138476190Y-93595238D01*
X138428571Y-93404761D01*
X138380952Y-93309523D01*
X138333333Y-93261904D01*
X138238095Y-93214285D01*
X138142857Y-93214285D01*
X138047619Y-93261904D01*
X138000000Y-93309523D01*
X137952380Y-93404761D01*
X137952380Y-93642857D01*
X138000000Y-93785714D01*
X138952380Y-94785714D02*
X138476190Y-94452380D01*
X138952380Y-94214285D02*
X137952380Y-94214285D01*
X137952380Y-94595238D01*
X138000000Y-94690476D01*
X138047619Y-94738095D01*
X138142857Y-94785714D01*
X138285714Y-94785714D01*
X138380952Y-94738095D01*
X138428571Y-94690476D01*
X138476190Y-94595238D01*
X138476190Y-94214285D01*
X138857142Y-95785714D02*
X138904761Y-95738095D01*
X138952380Y-95595238D01*
X138952380Y-95500000D01*
X138904761Y-95357142D01*
X138809523Y-95261904D01*
X138714285Y-95214285D01*
X138523809Y-95166666D01*
X138380952Y-95166666D01*
X138190476Y-95214285D01*
X138095238Y-95261904D01*
X138000000Y-95357142D01*
X137952380Y-95500000D01*
X137952380Y-95595238D01*
X138000000Y-95738095D01*
X138047619Y-95785714D01*
G04 #@! TO.C,MIS2503 (Main)*
X159214285Y-105452380D02*
X159214285Y-104452380D01*
X158880952Y-105166666D01*
X158547619Y-104452380D01*
X158547619Y-105452380D01*
X158071428Y-105452380D02*
X158071428Y-104452380D01*
X157642857Y-105404761D02*
X157500000Y-105452380D01*
X157261904Y-105452380D01*
X157166666Y-105404761D01*
X157119047Y-105357142D01*
X157071428Y-105261904D01*
X157071428Y-105166666D01*
X157119047Y-105071428D01*
X157166666Y-105023809D01*
X157261904Y-104976190D01*
X157452380Y-104928571D01*
X157547619Y-104880952D01*
X157595238Y-104833333D01*
X157642857Y-104738095D01*
X157642857Y-104642857D01*
X157595238Y-104547619D01*
X157547619Y-104500000D01*
X157452380Y-104452380D01*
X157214285Y-104452380D01*
X157071428Y-104500000D01*
X156690476Y-104547619D02*
X156642857Y-104500000D01*
X156547619Y-104452380D01*
X156309523Y-104452380D01*
X156214285Y-104500000D01*
X156166666Y-104547619D01*
X156119047Y-104642857D01*
X156119047Y-104738095D01*
X156166666Y-104880952D01*
X156738095Y-105452380D01*
X156119047Y-105452380D01*
X155214285Y-104452380D02*
X155690476Y-104452380D01*
X155738095Y-104928571D01*
X155690476Y-104880952D01*
X155595238Y-104833333D01*
X155357142Y-104833333D01*
X155261904Y-104880952D01*
X155214285Y-104928571D01*
X155166666Y-105023809D01*
X155166666Y-105261904D01*
X155214285Y-105357142D01*
X155261904Y-105404761D01*
X155357142Y-105452380D01*
X155595238Y-105452380D01*
X155690476Y-105404761D01*
X155738095Y-105357142D01*
X154547619Y-104452380D02*
X154452380Y-104452380D01*
X154357142Y-104500000D01*
X154309523Y-104547619D01*
X154261904Y-104642857D01*
X154214285Y-104833333D01*
X154214285Y-105071428D01*
X154261904Y-105261904D01*
X154309523Y-105357142D01*
X154357142Y-105404761D01*
X154452380Y-105452380D01*
X154547619Y-105452380D01*
X154642857Y-105404761D01*
X154690476Y-105357142D01*
X154738095Y-105261904D01*
X154785714Y-105071428D01*
X154785714Y-104833333D01*
X154738095Y-104642857D01*
X154690476Y-104547619D01*
X154642857Y-104500000D01*
X154547619Y-104452380D01*
X153880952Y-104452380D02*
X153261904Y-104452380D01*
X153595238Y-104833333D01*
X153452380Y-104833333D01*
X153357142Y-104880952D01*
X153309523Y-104928571D01*
X153261904Y-105023809D01*
X153261904Y-105261904D01*
X153309523Y-105357142D01*
X153357142Y-105404761D01*
X153452380Y-105452380D01*
X153738095Y-105452380D01*
X153833333Y-105404761D01*
X153880952Y-105357142D01*
X151785714Y-105833333D02*
X151833333Y-105785714D01*
X151928571Y-105642857D01*
X151976190Y-105547619D01*
X152023809Y-105404761D01*
X152071428Y-105166666D01*
X152071428Y-104976190D01*
X152023809Y-104738095D01*
X151976190Y-104595238D01*
X151928571Y-104500000D01*
X151833333Y-104357142D01*
X151785714Y-104309523D01*
X151404761Y-105452380D02*
X151404761Y-104452380D01*
X151071428Y-105166666D01*
X150738095Y-104452380D01*
X150738095Y-105452380D01*
X149833333Y-105452380D02*
X149833333Y-104928571D01*
X149880952Y-104833333D01*
X149976190Y-104785714D01*
X150166666Y-104785714D01*
X150261904Y-104833333D01*
X149833333Y-105404761D02*
X149928571Y-105452380D01*
X150166666Y-105452380D01*
X150261904Y-105404761D01*
X150309523Y-105309523D01*
X150309523Y-105214285D01*
X150261904Y-105119047D01*
X150166666Y-105071428D01*
X149928571Y-105071428D01*
X149833333Y-105023809D01*
X149357142Y-105452380D02*
X149357142Y-104785714D01*
X149357142Y-104452380D02*
X149404761Y-104500000D01*
X149357142Y-104547619D01*
X149309523Y-104500000D01*
X149357142Y-104452380D01*
X149357142Y-104547619D01*
X148880952Y-104785714D02*
X148880952Y-105452380D01*
X148880952Y-104880952D02*
X148833333Y-104833333D01*
X148738095Y-104785714D01*
X148595238Y-104785714D01*
X148500000Y-104833333D01*
X148452380Y-104928571D01*
X148452380Y-105452380D01*
X148071428Y-105833333D02*
X148023809Y-105785714D01*
X147928571Y-105642857D01*
X147880952Y-105547619D01*
X147833333Y-105404761D01*
X147785714Y-105166666D01*
X147785714Y-104976190D01*
X147833333Y-104738095D01*
X147880952Y-104595238D01*
X147928571Y-104500000D01*
X148023809Y-104357142D01*
X148071428Y-104309523D01*
G04 #@! TO.C,D10*
X157214285Y-75102380D02*
X157214285Y-74102380D01*
X156976190Y-74102380D01*
X156833333Y-74150000D01*
X156738095Y-74245238D01*
X156690476Y-74340476D01*
X156642857Y-74530952D01*
X156642857Y-74673809D01*
X156690476Y-74864285D01*
X156738095Y-74959523D01*
X156833333Y-75054761D01*
X156976190Y-75102380D01*
X157214285Y-75102380D01*
X155690476Y-75102380D02*
X156261904Y-75102380D01*
X155976190Y-75102380D02*
X155976190Y-74102380D01*
X156071428Y-74245238D01*
X156166666Y-74340476D01*
X156261904Y-74388095D01*
X155071428Y-74102380D02*
X154976190Y-74102380D01*
X154880952Y-74150000D01*
X154833333Y-74197619D01*
X154785714Y-74292857D01*
X154738095Y-74483333D01*
X154738095Y-74721428D01*
X154785714Y-74911904D01*
X154833333Y-75007142D01*
X154880952Y-75054761D01*
X154976190Y-75102380D01*
X155071428Y-75102380D01*
X155166666Y-75054761D01*
X155214285Y-75007142D01*
X155261904Y-74911904D01*
X155309523Y-74721428D01*
X155309523Y-74483333D01*
X155261904Y-74292857D01*
X155214285Y-74197619D01*
X155166666Y-74150000D01*
X155071428Y-74102380D01*
G04 #@! TO.C,J3*
X227952380Y-91166666D02*
X228666666Y-91166666D01*
X228809523Y-91119047D01*
X228904761Y-91023809D01*
X228952380Y-90880952D01*
X228952380Y-90785714D01*
X227952380Y-91547619D02*
X227952380Y-92166666D01*
X228333333Y-91833333D01*
X228333333Y-91976190D01*
X228380952Y-92071428D01*
X228428571Y-92119047D01*
X228523809Y-92166666D01*
X228761904Y-92166666D01*
X228857142Y-92119047D01*
X228904761Y-92071428D01*
X228952380Y-91976190D01*
X228952380Y-91690476D01*
X228904761Y-91595238D01*
X228857142Y-91547619D01*
G04 #@! TO.C,D1*
X221238095Y-109802380D02*
X221238095Y-108802380D01*
X221000000Y-108802380D01*
X220857142Y-108850000D01*
X220761904Y-108945238D01*
X220714285Y-109040476D01*
X220666666Y-109230952D01*
X220666666Y-109373809D01*
X220714285Y-109564285D01*
X220761904Y-109659523D01*
X220857142Y-109754761D01*
X221000000Y-109802380D01*
X221238095Y-109802380D01*
X219714285Y-109802380D02*
X220285714Y-109802380D01*
X220000000Y-109802380D02*
X220000000Y-108802380D01*
X220095238Y-108945238D01*
X220190476Y-109040476D01*
X220285714Y-109088095D01*
G04 #@! TO.C,D2*
X202238095Y-109802380D02*
X202238095Y-108802380D01*
X202000000Y-108802380D01*
X201857142Y-108850000D01*
X201761904Y-108945238D01*
X201714285Y-109040476D01*
X201666666Y-109230952D01*
X201666666Y-109373809D01*
X201714285Y-109564285D01*
X201761904Y-109659523D01*
X201857142Y-109754761D01*
X202000000Y-109802380D01*
X202238095Y-109802380D01*
X201285714Y-108897619D02*
X201238095Y-108850000D01*
X201142857Y-108802380D01*
X200904761Y-108802380D01*
X200809523Y-108850000D01*
X200761904Y-108897619D01*
X200714285Y-108992857D01*
X200714285Y-109088095D01*
X200761904Y-109230952D01*
X201333333Y-109802380D01*
X200714285Y-109802380D01*
G04 #@! TO.C,D3*
X183238095Y-109802380D02*
X183238095Y-108802380D01*
X183000000Y-108802380D01*
X182857142Y-108850000D01*
X182761904Y-108945238D01*
X182714285Y-109040476D01*
X182666666Y-109230952D01*
X182666666Y-109373809D01*
X182714285Y-109564285D01*
X182761904Y-109659523D01*
X182857142Y-109754761D01*
X183000000Y-109802380D01*
X183238095Y-109802380D01*
X182333333Y-108802380D02*
X181714285Y-108802380D01*
X182047619Y-109183333D01*
X181904761Y-109183333D01*
X181809523Y-109230952D01*
X181761904Y-109278571D01*
X181714285Y-109373809D01*
X181714285Y-109611904D01*
X181761904Y-109707142D01*
X181809523Y-109754761D01*
X181904761Y-109802380D01*
X182190476Y-109802380D01*
X182285714Y-109754761D01*
X182333333Y-109707142D01*
G04 #@! TO.C,D4*
X164238095Y-109802380D02*
X164238095Y-108802380D01*
X164000000Y-108802380D01*
X163857142Y-108850000D01*
X163761904Y-108945238D01*
X163714285Y-109040476D01*
X163666666Y-109230952D01*
X163666666Y-109373809D01*
X163714285Y-109564285D01*
X163761904Y-109659523D01*
X163857142Y-109754761D01*
X164000000Y-109802380D01*
X164238095Y-109802380D01*
X162809523Y-109135714D02*
X162809523Y-109802380D01*
X163047619Y-108754761D02*
X163285714Y-109469047D01*
X162666666Y-109469047D01*
G04 #@! TO.C,D5*
X145238095Y-109802380D02*
X145238095Y-108802380D01*
X145000000Y-108802380D01*
X144857142Y-108850000D01*
X144761904Y-108945238D01*
X144714285Y-109040476D01*
X144666666Y-109230952D01*
X144666666Y-109373809D01*
X144714285Y-109564285D01*
X144761904Y-109659523D01*
X144857142Y-109754761D01*
X145000000Y-109802380D01*
X145238095Y-109802380D01*
X143761904Y-108802380D02*
X144238095Y-108802380D01*
X144285714Y-109278571D01*
X144238095Y-109230952D01*
X144142857Y-109183333D01*
X143904761Y-109183333D01*
X143809523Y-109230952D01*
X143761904Y-109278571D01*
X143714285Y-109373809D01*
X143714285Y-109611904D01*
X143761904Y-109707142D01*
X143809523Y-109754761D01*
X143904761Y-109802380D01*
X144142857Y-109802380D01*
X144238095Y-109754761D01*
X144285714Y-109707142D01*
G04 #@! TO.C,D6*
X232738095Y-75102380D02*
X232738095Y-74102380D01*
X232500000Y-74102380D01*
X232357142Y-74150000D01*
X232261904Y-74245238D01*
X232214285Y-74340476D01*
X232166666Y-74530952D01*
X232166666Y-74673809D01*
X232214285Y-74864285D01*
X232261904Y-74959523D01*
X232357142Y-75054761D01*
X232500000Y-75102380D01*
X232738095Y-75102380D01*
X231309523Y-74102380D02*
X231500000Y-74102380D01*
X231595238Y-74150000D01*
X231642857Y-74197619D01*
X231738095Y-74340476D01*
X231785714Y-74530952D01*
X231785714Y-74911904D01*
X231738095Y-75007142D01*
X231690476Y-75054761D01*
X231595238Y-75102380D01*
X231404761Y-75102380D01*
X231309523Y-75054761D01*
X231261904Y-75007142D01*
X231214285Y-74911904D01*
X231214285Y-74673809D01*
X231261904Y-74578571D01*
X231309523Y-74530952D01*
X231404761Y-74483333D01*
X231595238Y-74483333D01*
X231690476Y-74530952D01*
X231738095Y-74578571D01*
X231785714Y-74673809D01*
G04 #@! TO.C,D7*
X214238095Y-75102380D02*
X214238095Y-74102380D01*
X214000000Y-74102380D01*
X213857142Y-74150000D01*
X213761904Y-74245238D01*
X213714285Y-74340476D01*
X213666666Y-74530952D01*
X213666666Y-74673809D01*
X213714285Y-74864285D01*
X213761904Y-74959523D01*
X213857142Y-75054761D01*
X214000000Y-75102380D01*
X214238095Y-75102380D01*
X213333333Y-74102380D02*
X212666666Y-74102380D01*
X213095238Y-75102380D01*
G04 #@! TO.C,D8*
X194800595Y-75102380D02*
X194800595Y-74102380D01*
X194562500Y-74102380D01*
X194419642Y-74150000D01*
X194324404Y-74245238D01*
X194276785Y-74340476D01*
X194229166Y-74530952D01*
X194229166Y-74673809D01*
X194276785Y-74864285D01*
X194324404Y-74959523D01*
X194419642Y-75054761D01*
X194562500Y-75102380D01*
X194800595Y-75102380D01*
X193657738Y-74530952D02*
X193752976Y-74483333D01*
X193800595Y-74435714D01*
X193848214Y-74340476D01*
X193848214Y-74292857D01*
X193800595Y-74197619D01*
X193752976Y-74150000D01*
X193657738Y-74102380D01*
X193467261Y-74102380D01*
X193372023Y-74150000D01*
X193324404Y-74197619D01*
X193276785Y-74292857D01*
X193276785Y-74340476D01*
X193324404Y-74435714D01*
X193372023Y-74483333D01*
X193467261Y-74530952D01*
X193657738Y-74530952D01*
X193752976Y-74578571D01*
X193800595Y-74626190D01*
X193848214Y-74721428D01*
X193848214Y-74911904D01*
X193800595Y-75007142D01*
X193752976Y-75054761D01*
X193657738Y-75102380D01*
X193467261Y-75102380D01*
X193372023Y-75054761D01*
X193324404Y-75007142D01*
X193276785Y-74911904D01*
X193276785Y-74721428D01*
X193324404Y-74626190D01*
X193372023Y-74578571D01*
X193467261Y-74530952D01*
G04 #@! TO.C,D9*
X176238095Y-75102380D02*
X176238095Y-74102380D01*
X176000000Y-74102380D01*
X175857142Y-74150000D01*
X175761904Y-74245238D01*
X175714285Y-74340476D01*
X175666666Y-74530952D01*
X175666666Y-74673809D01*
X175714285Y-74864285D01*
X175761904Y-74959523D01*
X175857142Y-75054761D01*
X176000000Y-75102380D01*
X176238095Y-75102380D01*
X175190476Y-75102380D02*
X175000000Y-75102380D01*
X174904761Y-75054761D01*
X174857142Y-75007142D01*
X174761904Y-74864285D01*
X174714285Y-74673809D01*
X174714285Y-74292857D01*
X174761904Y-74197619D01*
X174809523Y-74150000D01*
X174904761Y-74102380D01*
X175095238Y-74102380D01*
X175190476Y-74150000D01*
X175238095Y-74197619D01*
X175285714Y-74292857D01*
X175285714Y-74530952D01*
X175238095Y-74626190D01*
X175190476Y-74673809D01*
X175095238Y-74721428D01*
X174904761Y-74721428D01*
X174809523Y-74673809D01*
X174761904Y-74626190D01*
X174714285Y-74530952D01*
G04 #@! TO.C,KeyDown*
X172500000Y-79452380D02*
X172500000Y-78452380D01*
X171928571Y-79452380D02*
X172357142Y-78880952D01*
X171928571Y-78452380D02*
X172500000Y-79023809D01*
X171119047Y-79404761D02*
X171214285Y-79452380D01*
X171404761Y-79452380D01*
X171500000Y-79404761D01*
X171547619Y-79309523D01*
X171547619Y-78928571D01*
X171500000Y-78833333D01*
X171404761Y-78785714D01*
X171214285Y-78785714D01*
X171119047Y-78833333D01*
X171071428Y-78928571D01*
X171071428Y-79023809D01*
X171547619Y-79119047D01*
X170738095Y-78785714D02*
X170500000Y-79452380D01*
X170261904Y-78785714D02*
X170500000Y-79452380D01*
X170595238Y-79690476D01*
X170642857Y-79738095D01*
X170738095Y-79785714D01*
X169880952Y-79452380D02*
X169880952Y-78452380D01*
X169642857Y-78452380D01*
X169500000Y-78500000D01*
X169404761Y-78595238D01*
X169357142Y-78690476D01*
X169309523Y-78880952D01*
X169309523Y-79023809D01*
X169357142Y-79214285D01*
X169404761Y-79309523D01*
X169500000Y-79404761D01*
X169642857Y-79452380D01*
X169880952Y-79452380D01*
X168738095Y-79452380D02*
X168833333Y-79404761D01*
X168880952Y-79357142D01*
X168928571Y-79261904D01*
X168928571Y-78976190D01*
X168880952Y-78880952D01*
X168833333Y-78833333D01*
X168738095Y-78785714D01*
X168595238Y-78785714D01*
X168500000Y-78833333D01*
X168452380Y-78880952D01*
X168404761Y-78976190D01*
X168404761Y-79261904D01*
X168452380Y-79357142D01*
X168500000Y-79404761D01*
X168595238Y-79452380D01*
X168738095Y-79452380D01*
X168071428Y-78785714D02*
X167880952Y-79452380D01*
X167690476Y-78976190D01*
X167500000Y-79452380D01*
X167309523Y-78785714D01*
X166928571Y-78785714D02*
X166928571Y-79452380D01*
X166928571Y-78880952D02*
X166880952Y-78833333D01*
X166785714Y-78785714D01*
X166642857Y-78785714D01*
X166547619Y-78833333D01*
X166500000Y-78928571D01*
X166500000Y-79452380D01*
G04 #@! TO.C,KeyUp*
X152547619Y-79452380D02*
X152547619Y-78452380D01*
X151976190Y-79452380D02*
X152404761Y-78880952D01*
X151976190Y-78452380D02*
X152547619Y-79023809D01*
X151166666Y-79404761D02*
X151261904Y-79452380D01*
X151452380Y-79452380D01*
X151547619Y-79404761D01*
X151595238Y-79309523D01*
X151595238Y-78928571D01*
X151547619Y-78833333D01*
X151452380Y-78785714D01*
X151261904Y-78785714D01*
X151166666Y-78833333D01*
X151119047Y-78928571D01*
X151119047Y-79023809D01*
X151595238Y-79119047D01*
X150785714Y-78785714D02*
X150547619Y-79452380D01*
X150309523Y-78785714D02*
X150547619Y-79452380D01*
X150642857Y-79690476D01*
X150690476Y-79738095D01*
X150785714Y-79785714D01*
X149928571Y-78452380D02*
X149928571Y-79261904D01*
X149880952Y-79357142D01*
X149833333Y-79404761D01*
X149738095Y-79452380D01*
X149547619Y-79452380D01*
X149452380Y-79404761D01*
X149404761Y-79357142D01*
X149357142Y-79261904D01*
X149357142Y-78452380D01*
X148880952Y-78785714D02*
X148880952Y-79785714D01*
X148880952Y-78833333D02*
X148785714Y-78785714D01*
X148595238Y-78785714D01*
X148500000Y-78833333D01*
X148452380Y-78880952D01*
X148404761Y-78976190D01*
X148404761Y-79261904D01*
X148452380Y-79357142D01*
X148500000Y-79404761D01*
X148595238Y-79452380D01*
X148785714Y-79452380D01*
X148880952Y-79404761D01*
G04 #@! TO.C,C1*
X162666666Y-98857142D02*
X162714285Y-98904761D01*
X162857142Y-98952380D01*
X162952380Y-98952380D01*
X163095238Y-98904761D01*
X163190476Y-98809523D01*
X163238095Y-98714285D01*
X163285714Y-98523809D01*
X163285714Y-98380952D01*
X163238095Y-98190476D01*
X163190476Y-98095238D01*
X163095238Y-98000000D01*
X162952380Y-97952380D01*
X162857142Y-97952380D01*
X162714285Y-98000000D01*
X162666666Y-98047619D01*
X161714285Y-98952380D02*
X162285714Y-98952380D01*
X162000000Y-98952380D02*
X162000000Y-97952380D01*
X162095238Y-98095238D01*
X162190476Y-98190476D01*
X162285714Y-98238095D01*
G04 #@! TO.C,C2*
X129666666Y-114857142D02*
X129714285Y-114904761D01*
X129857142Y-114952380D01*
X129952380Y-114952380D01*
X130095238Y-114904761D01*
X130190476Y-114809523D01*
X130238095Y-114714285D01*
X130285714Y-114523809D01*
X130285714Y-114380952D01*
X130238095Y-114190476D01*
X130190476Y-114095238D01*
X130095238Y-114000000D01*
X129952380Y-113952380D01*
X129857142Y-113952380D01*
X129714285Y-114000000D01*
X129666666Y-114047619D01*
X129285714Y-114047619D02*
X129238095Y-114000000D01*
X129142857Y-113952380D01*
X128904761Y-113952380D01*
X128809523Y-114000000D01*
X128761904Y-114047619D01*
X128714285Y-114142857D01*
X128714285Y-114238095D01*
X128761904Y-114380952D01*
X129333333Y-114952380D01*
X128714285Y-114952380D01*
G04 #@! TO.C,EN-LED*
X186714285Y-104428571D02*
X186380952Y-104428571D01*
X186238095Y-104952380D02*
X186714285Y-104952380D01*
X186714285Y-103952380D01*
X186238095Y-103952380D01*
X185809523Y-104952380D02*
X185809523Y-103952380D01*
X185238095Y-104952380D01*
X185238095Y-103952380D01*
X184761904Y-104571428D02*
X184000000Y-104571428D01*
X183047619Y-104952380D02*
X183523809Y-104952380D01*
X183523809Y-103952380D01*
X182714285Y-104428571D02*
X182380952Y-104428571D01*
X182238095Y-104952380D02*
X182714285Y-104952380D01*
X182714285Y-103952380D01*
X182238095Y-103952380D01*
X181809523Y-104952380D02*
X181809523Y-103952380D01*
X181571428Y-103952380D01*
X181428571Y-104000000D01*
X181333333Y-104095238D01*
X181285714Y-104190476D01*
X181238095Y-104380952D01*
X181238095Y-104523809D01*
X181285714Y-104714285D01*
X181333333Y-104809523D01*
X181428571Y-104904761D01*
X181571428Y-104952380D01*
X181809523Y-104952380D01*
G04 #@! TO.C,MIS2503 (Sub)*
X176680952Y-104952380D02*
X176680952Y-103952380D01*
X176347619Y-104666666D01*
X176014285Y-103952380D01*
X176014285Y-104952380D01*
X175538095Y-104952380D02*
X175538095Y-103952380D01*
X175109523Y-104904761D02*
X174966666Y-104952380D01*
X174728571Y-104952380D01*
X174633333Y-104904761D01*
X174585714Y-104857142D01*
X174538095Y-104761904D01*
X174538095Y-104666666D01*
X174585714Y-104571428D01*
X174633333Y-104523809D01*
X174728571Y-104476190D01*
X174919047Y-104428571D01*
X175014285Y-104380952D01*
X175061904Y-104333333D01*
X175109523Y-104238095D01*
X175109523Y-104142857D01*
X175061904Y-104047619D01*
X175014285Y-104000000D01*
X174919047Y-103952380D01*
X174680952Y-103952380D01*
X174538095Y-104000000D01*
X174157142Y-104047619D02*
X174109523Y-104000000D01*
X174014285Y-103952380D01*
X173776190Y-103952380D01*
X173680952Y-104000000D01*
X173633333Y-104047619D01*
X173585714Y-104142857D01*
X173585714Y-104238095D01*
X173633333Y-104380952D01*
X174204761Y-104952380D01*
X173585714Y-104952380D01*
X172680952Y-103952380D02*
X173157142Y-103952380D01*
X173204761Y-104428571D01*
X173157142Y-104380952D01*
X173061904Y-104333333D01*
X172823809Y-104333333D01*
X172728571Y-104380952D01*
X172680952Y-104428571D01*
X172633333Y-104523809D01*
X172633333Y-104761904D01*
X172680952Y-104857142D01*
X172728571Y-104904761D01*
X172823809Y-104952380D01*
X173061904Y-104952380D01*
X173157142Y-104904761D01*
X173204761Y-104857142D01*
X172014285Y-103952380D02*
X171919047Y-103952380D01*
X171823809Y-104000000D01*
X171776190Y-104047619D01*
X171728571Y-104142857D01*
X171680952Y-104333333D01*
X171680952Y-104571428D01*
X171728571Y-104761904D01*
X171776190Y-104857142D01*
X171823809Y-104904761D01*
X171919047Y-104952380D01*
X172014285Y-104952380D01*
X172109523Y-104904761D01*
X172157142Y-104857142D01*
X172204761Y-104761904D01*
X172252380Y-104571428D01*
X172252380Y-104333333D01*
X172204761Y-104142857D01*
X172157142Y-104047619D01*
X172109523Y-104000000D01*
X172014285Y-103952380D01*
X171347619Y-103952380D02*
X170728571Y-103952380D01*
X171061904Y-104333333D01*
X170919047Y-104333333D01*
X170823809Y-104380952D01*
X170776190Y-104428571D01*
X170728571Y-104523809D01*
X170728571Y-104761904D01*
X170776190Y-104857142D01*
X170823809Y-104904761D01*
X170919047Y-104952380D01*
X171204761Y-104952380D01*
X171300000Y-104904761D01*
X171347619Y-104857142D01*
X169252380Y-105333333D02*
X169300000Y-105285714D01*
X169395238Y-105142857D01*
X169442857Y-105047619D01*
X169490476Y-104904761D01*
X169538095Y-104666666D01*
X169538095Y-104476190D01*
X169490476Y-104238095D01*
X169442857Y-104095238D01*
X169395238Y-104000000D01*
X169300000Y-103857142D01*
X169252380Y-103809523D01*
X168919047Y-104904761D02*
X168776190Y-104952380D01*
X168538095Y-104952380D01*
X168442857Y-104904761D01*
X168395238Y-104857142D01*
X168347619Y-104761904D01*
X168347619Y-104666666D01*
X168395238Y-104571428D01*
X168442857Y-104523809D01*
X168538095Y-104476190D01*
X168728571Y-104428571D01*
X168823809Y-104380952D01*
X168871428Y-104333333D01*
X168919047Y-104238095D01*
X168919047Y-104142857D01*
X168871428Y-104047619D01*
X168823809Y-104000000D01*
X168728571Y-103952380D01*
X168490476Y-103952380D01*
X168347619Y-104000000D01*
X167490476Y-104285714D02*
X167490476Y-104952380D01*
X167919047Y-104285714D02*
X167919047Y-104809523D01*
X167871428Y-104904761D01*
X167776190Y-104952380D01*
X167633333Y-104952380D01*
X167538095Y-104904761D01*
X167490476Y-104857142D01*
X167014285Y-104952380D02*
X167014285Y-103952380D01*
X167014285Y-104333333D02*
X166919047Y-104285714D01*
X166728571Y-104285714D01*
X166633333Y-104333333D01*
X166585714Y-104380952D01*
X166538095Y-104476190D01*
X166538095Y-104761904D01*
X166585714Y-104857142D01*
X166633333Y-104904761D01*
X166728571Y-104952380D01*
X166919047Y-104952380D01*
X167014285Y-104904761D01*
X166204761Y-105333333D02*
X166157142Y-105285714D01*
X166061904Y-105142857D01*
X166014285Y-105047619D01*
X165966666Y-104904761D01*
X165919047Y-104666666D01*
X165919047Y-104476190D01*
X165966666Y-104238095D01*
X166014285Y-104095238D01*
X166061904Y-104000000D01*
X166157142Y-103857142D01*
X166204761Y-103809523D01*
G04 #@! TD*
M02*
