G04 #@! TF.GenerationSoftware,KiCad,Pcbnew,(5.1.8)-1*
G04 #@! TF.CreationDate,2023-06-19T23:59:53+09:00*
G04 #@! TF.ProjectId,windsynth,77696e64-7379-46e7-9468-2e6b69636164,rev?*
G04 #@! TF.SameCoordinates,Original*
G04 #@! TF.FileFunction,Soldermask,Top*
G04 #@! TF.FilePolarity,Negative*
%FSLAX46Y46*%
G04 Gerber Fmt 4.6, Leading zero omitted, Abs format (unit mm)*
G04 Created by KiCad (PCBNEW (5.1.8)-1) date 2023-06-19 23:59:53*
%MOMM*%
%LPD*%
G01*
G04 APERTURE LIST*
%ADD10O,1.700000X1.700000*%
%ADD11R,1.700000X1.700000*%
%ADD12C,0.100000*%
%ADD13R,1.200000X1.500000*%
%ADD14C,1.900000*%
%ADD15C,3.400000*%
%ADD16C,2.000000*%
%ADD17O,1.700000X2.000000*%
%ADD18O,2.000000X1.700000*%
%ADD19C,1.524000*%
%ADD20O,1.600000X1.600000*%
%ADD21O,1.000000X1.000000*%
%ADD22R,1.600000X1.600000*%
%ADD23C,1.800000*%
%ADD24R,1.560000X0.650000*%
%ADD25C,1.600000*%
%ADD26R,1.350000X1.350000*%
%ADD27O,1.350000X1.350000*%
G04 APERTURE END LIST*
D10*
G04 #@! TO.C,R2*
X175460000Y-106000000D03*
D11*
X178000000Y-106000000D03*
G04 #@! TD*
D12*
G04 #@! TO.C,DAC-DIRECT*
G36*
X157250000Y-94150000D02*
G01*
X157250000Y-94650000D01*
X157249398Y-94650000D01*
X157249398Y-94674534D01*
X157244588Y-94723365D01*
X157235016Y-94771490D01*
X157220772Y-94818445D01*
X157201995Y-94863778D01*
X157178864Y-94907051D01*
X157151604Y-94947850D01*
X157120476Y-94985779D01*
X157085779Y-95020476D01*
X157047850Y-95051604D01*
X157007051Y-95078864D01*
X156963778Y-95101995D01*
X156918445Y-95120772D01*
X156871490Y-95135016D01*
X156823365Y-95144588D01*
X156774534Y-95149398D01*
X156750000Y-95149398D01*
X156750000Y-95150000D01*
X156250000Y-95150000D01*
X156250000Y-95149398D01*
X156225466Y-95149398D01*
X156176635Y-95144588D01*
X156128510Y-95135016D01*
X156081555Y-95120772D01*
X156036222Y-95101995D01*
X155992949Y-95078864D01*
X155952150Y-95051604D01*
X155914221Y-95020476D01*
X155879524Y-94985779D01*
X155848396Y-94947850D01*
X155821136Y-94907051D01*
X155798005Y-94863778D01*
X155779228Y-94818445D01*
X155764984Y-94771490D01*
X155755412Y-94723365D01*
X155750602Y-94674534D01*
X155750602Y-94650000D01*
X155750000Y-94650000D01*
X155750000Y-94150000D01*
X157250000Y-94150000D01*
G37*
G36*
X155750602Y-93350000D02*
G01*
X155750602Y-93325466D01*
X155755412Y-93276635D01*
X155764984Y-93228510D01*
X155779228Y-93181555D01*
X155798005Y-93136222D01*
X155821136Y-93092949D01*
X155848396Y-93052150D01*
X155879524Y-93014221D01*
X155914221Y-92979524D01*
X155952150Y-92948396D01*
X155992949Y-92921136D01*
X156036222Y-92898005D01*
X156081555Y-92879228D01*
X156128510Y-92864984D01*
X156176635Y-92855412D01*
X156225466Y-92850602D01*
X156250000Y-92850602D01*
X156250000Y-92850000D01*
X156750000Y-92850000D01*
X156750000Y-92850602D01*
X156774534Y-92850602D01*
X156823365Y-92855412D01*
X156871490Y-92864984D01*
X156918445Y-92879228D01*
X156963778Y-92898005D01*
X157007051Y-92921136D01*
X157047850Y-92948396D01*
X157085779Y-92979524D01*
X157120476Y-93014221D01*
X157151604Y-93052150D01*
X157178864Y-93092949D01*
X157201995Y-93136222D01*
X157220772Y-93181555D01*
X157235016Y-93228510D01*
X157244588Y-93276635D01*
X157249398Y-93325466D01*
X157249398Y-93350000D01*
X157250000Y-93350000D01*
X157250000Y-93850000D01*
X155750000Y-93850000D01*
X155750000Y-93350000D01*
X155750602Y-93350000D01*
G37*
G04 #@! TD*
D13*
G04 #@! TO.C,KeyD*
X186900000Y-110800000D03*
X190100000Y-110800000D03*
D14*
X194000000Y-115500000D03*
X183000000Y-115500000D03*
D15*
X188500000Y-115500000D03*
D16*
X183500000Y-119300000D03*
X188500000Y-121400000D03*
G04 #@! TD*
D17*
G04 #@! TO.C,HEADPHONE*
X134968000Y-70000000D03*
X132468000Y-70000000D03*
X127468000Y-70000000D03*
X124968000Y-70000000D03*
D18*
X129968000Y-65000000D03*
G04 #@! TD*
D19*
G04 #@! TO.C,AE-PAM8012*
X128690000Y-95810000D03*
X128690000Y-93270000D03*
X128690000Y-90730000D03*
X128690000Y-88190000D03*
X136310000Y-95810000D03*
X136310000Y-93270000D03*
X136310000Y-90730000D03*
X136310000Y-88190000D03*
G04 #@! TD*
D20*
G04 #@! TO.C,MIS2503 (Main)*
X158000000Y-102500000D03*
X148000000Y-97400000D03*
X158000000Y-99960000D03*
D21*
X148000000Y-99960000D03*
D20*
X158000000Y-97420000D03*
D22*
X148000000Y-102500000D03*
G04 #@! TD*
D16*
G04 #@! TO.C,KeyB*
X150500000Y-62600000D03*
X155500000Y-64700000D03*
D15*
X150500000Y-68500000D03*
D14*
X156000000Y-68500000D03*
X145000000Y-68500000D03*
D13*
X148900000Y-73200000D03*
X152100000Y-73200000D03*
G04 #@! TD*
D10*
G04 #@! TO.C,J3*
X181250000Y-83106000D03*
X181250000Y-85646000D03*
X181250000Y-88186000D03*
X181250000Y-90726000D03*
X181250000Y-93266000D03*
X181250000Y-95806000D03*
X181250000Y-98346000D03*
D11*
X181250000Y-100886000D03*
G04 #@! TD*
D16*
G04 #@! TO.C,SPEAKER*
X131500000Y-99500000D03*
X131500000Y-84500000D03*
G04 #@! TD*
D13*
G04 #@! TO.C,KeyC*
X224900000Y-110800000D03*
X228100000Y-110800000D03*
D14*
X232000000Y-115500000D03*
X221000000Y-115500000D03*
D15*
X226500000Y-115500000D03*
D16*
X221500000Y-119300000D03*
X226500000Y-121400000D03*
G04 #@! TD*
D13*
G04 #@! TO.C,KeyEb*
X205900000Y-110800000D03*
X209100000Y-110800000D03*
D14*
X213000000Y-115500000D03*
X202000000Y-115500000D03*
D15*
X207500000Y-115500000D03*
D16*
X202500000Y-119300000D03*
X207500000Y-121400000D03*
G04 #@! TD*
D13*
G04 #@! TO.C,KeyE*
X167900000Y-110800000D03*
X171100000Y-110800000D03*
D14*
X175000000Y-115500000D03*
X164000000Y-115500000D03*
D15*
X169500000Y-115500000D03*
D16*
X164500000Y-119300000D03*
X169500000Y-121400000D03*
G04 #@! TD*
D13*
G04 #@! TO.C,KeyF*
X148900000Y-110800000D03*
X152100000Y-110800000D03*
D14*
X156000000Y-115500000D03*
X145000000Y-115500000D03*
D15*
X150500000Y-115500000D03*
D16*
X145500000Y-119300000D03*
X150500000Y-121400000D03*
G04 #@! TD*
D13*
G04 #@! TO.C,KeyCs*
X228100000Y-73200000D03*
X224900000Y-73200000D03*
D14*
X221000000Y-68500000D03*
X232000000Y-68500000D03*
D15*
X226500000Y-68500000D03*
D16*
X231500000Y-64700000D03*
X226500000Y-62600000D03*
G04 #@! TD*
D13*
G04 #@! TO.C,KeyGs*
X209100000Y-73200000D03*
X205900000Y-73200000D03*
D14*
X202000000Y-68500000D03*
X213000000Y-68500000D03*
D15*
X207500000Y-68500000D03*
D16*
X212500000Y-64700000D03*
X207500000Y-62600000D03*
G04 #@! TD*
G04 #@! TO.C,KeyG*
X188500000Y-62600000D03*
X193500000Y-64700000D03*
D15*
X188500000Y-68500000D03*
D14*
X194000000Y-68500000D03*
X183000000Y-68500000D03*
D13*
X186900000Y-73200000D03*
X190100000Y-73200000D03*
G04 #@! TD*
D16*
G04 #@! TO.C,KeyA*
X169500000Y-62600000D03*
X174500000Y-64700000D03*
D15*
X169500000Y-68500000D03*
D14*
X175000000Y-68500000D03*
X164000000Y-68500000D03*
D13*
X167900000Y-73200000D03*
X171100000Y-73200000D03*
G04 #@! TD*
D14*
G04 #@! TO.C,KeyDown*
X169500000Y-93000000D03*
X169500000Y-82000000D03*
D15*
X169500000Y-87500000D03*
D16*
X173300000Y-82500000D03*
X175400000Y-87500000D03*
G04 #@! TD*
D14*
G04 #@! TO.C,KeyUp*
X150500000Y-93000000D03*
X150500000Y-82000000D03*
D15*
X150500000Y-87500000D03*
D16*
X154300000Y-82500000D03*
X156400000Y-87500000D03*
G04 #@! TD*
G04 #@! TO.C,VOLUME*
X128000000Y-119000000D03*
D23*
X129000000Y-109000000D03*
X133000000Y-109000000D03*
X137000000Y-109000000D03*
D16*
X138000000Y-119000000D03*
G04 #@! TD*
G04 #@! TO.C,MCP23017*
G36*
G01*
X193770000Y-89035000D02*
X193470000Y-89035000D01*
G75*
G02*
X193320000Y-88885000I0J150000D01*
G01*
X193320000Y-87135000D01*
G75*
G02*
X193470000Y-86985000I150000J0D01*
G01*
X193770000Y-86985000D01*
G75*
G02*
X193920000Y-87135000I0J-150000D01*
G01*
X193920000Y-88885000D01*
G75*
G02*
X193770000Y-89035000I-150000J0D01*
G01*
G37*
G36*
G01*
X195040000Y-89035000D02*
X194740000Y-89035000D01*
G75*
G02*
X194590000Y-88885000I0J150000D01*
G01*
X194590000Y-87135000D01*
G75*
G02*
X194740000Y-86985000I150000J0D01*
G01*
X195040000Y-86985000D01*
G75*
G02*
X195190000Y-87135000I0J-150000D01*
G01*
X195190000Y-88885000D01*
G75*
G02*
X195040000Y-89035000I-150000J0D01*
G01*
G37*
G36*
G01*
X196310000Y-89035000D02*
X196010000Y-89035000D01*
G75*
G02*
X195860000Y-88885000I0J150000D01*
G01*
X195860000Y-87135000D01*
G75*
G02*
X196010000Y-86985000I150000J0D01*
G01*
X196310000Y-86985000D01*
G75*
G02*
X196460000Y-87135000I0J-150000D01*
G01*
X196460000Y-88885000D01*
G75*
G02*
X196310000Y-89035000I-150000J0D01*
G01*
G37*
G36*
G01*
X197580000Y-89035000D02*
X197280000Y-89035000D01*
G75*
G02*
X197130000Y-88885000I0J150000D01*
G01*
X197130000Y-87135000D01*
G75*
G02*
X197280000Y-86985000I150000J0D01*
G01*
X197580000Y-86985000D01*
G75*
G02*
X197730000Y-87135000I0J-150000D01*
G01*
X197730000Y-88885000D01*
G75*
G02*
X197580000Y-89035000I-150000J0D01*
G01*
G37*
G36*
G01*
X198850000Y-89035000D02*
X198550000Y-89035000D01*
G75*
G02*
X198400000Y-88885000I0J150000D01*
G01*
X198400000Y-87135000D01*
G75*
G02*
X198550000Y-86985000I150000J0D01*
G01*
X198850000Y-86985000D01*
G75*
G02*
X199000000Y-87135000I0J-150000D01*
G01*
X199000000Y-88885000D01*
G75*
G02*
X198850000Y-89035000I-150000J0D01*
G01*
G37*
G36*
G01*
X200120000Y-89035000D02*
X199820000Y-89035000D01*
G75*
G02*
X199670000Y-88885000I0J150000D01*
G01*
X199670000Y-87135000D01*
G75*
G02*
X199820000Y-86985000I150000J0D01*
G01*
X200120000Y-86985000D01*
G75*
G02*
X200270000Y-87135000I0J-150000D01*
G01*
X200270000Y-88885000D01*
G75*
G02*
X200120000Y-89035000I-150000J0D01*
G01*
G37*
G36*
G01*
X201390000Y-89035000D02*
X201090000Y-89035000D01*
G75*
G02*
X200940000Y-88885000I0J150000D01*
G01*
X200940000Y-87135000D01*
G75*
G02*
X201090000Y-86985000I150000J0D01*
G01*
X201390000Y-86985000D01*
G75*
G02*
X201540000Y-87135000I0J-150000D01*
G01*
X201540000Y-88885000D01*
G75*
G02*
X201390000Y-89035000I-150000J0D01*
G01*
G37*
G36*
G01*
X202660000Y-89035000D02*
X202360000Y-89035000D01*
G75*
G02*
X202210000Y-88885000I0J150000D01*
G01*
X202210000Y-87135000D01*
G75*
G02*
X202360000Y-86985000I150000J0D01*
G01*
X202660000Y-86985000D01*
G75*
G02*
X202810000Y-87135000I0J-150000D01*
G01*
X202810000Y-88885000D01*
G75*
G02*
X202660000Y-89035000I-150000J0D01*
G01*
G37*
G36*
G01*
X203930000Y-89035000D02*
X203630000Y-89035000D01*
G75*
G02*
X203480000Y-88885000I0J150000D01*
G01*
X203480000Y-87135000D01*
G75*
G02*
X203630000Y-86985000I150000J0D01*
G01*
X203930000Y-86985000D01*
G75*
G02*
X204080000Y-87135000I0J-150000D01*
G01*
X204080000Y-88885000D01*
G75*
G02*
X203930000Y-89035000I-150000J0D01*
G01*
G37*
G36*
G01*
X205200000Y-89035000D02*
X204900000Y-89035000D01*
G75*
G02*
X204750000Y-88885000I0J150000D01*
G01*
X204750000Y-87135000D01*
G75*
G02*
X204900000Y-86985000I150000J0D01*
G01*
X205200000Y-86985000D01*
G75*
G02*
X205350000Y-87135000I0J-150000D01*
G01*
X205350000Y-88885000D01*
G75*
G02*
X205200000Y-89035000I-150000J0D01*
G01*
G37*
G36*
G01*
X206470000Y-89035000D02*
X206170000Y-89035000D01*
G75*
G02*
X206020000Y-88885000I0J150000D01*
G01*
X206020000Y-87135000D01*
G75*
G02*
X206170000Y-86985000I150000J0D01*
G01*
X206470000Y-86985000D01*
G75*
G02*
X206620000Y-87135000I0J-150000D01*
G01*
X206620000Y-88885000D01*
G75*
G02*
X206470000Y-89035000I-150000J0D01*
G01*
G37*
G36*
G01*
X207740000Y-89035000D02*
X207440000Y-89035000D01*
G75*
G02*
X207290000Y-88885000I0J150000D01*
G01*
X207290000Y-87135000D01*
G75*
G02*
X207440000Y-86985000I150000J0D01*
G01*
X207740000Y-86985000D01*
G75*
G02*
X207890000Y-87135000I0J-150000D01*
G01*
X207890000Y-88885000D01*
G75*
G02*
X207740000Y-89035000I-150000J0D01*
G01*
G37*
G36*
G01*
X209010000Y-89035000D02*
X208710000Y-89035000D01*
G75*
G02*
X208560000Y-88885000I0J150000D01*
G01*
X208560000Y-87135000D01*
G75*
G02*
X208710000Y-86985000I150000J0D01*
G01*
X209010000Y-86985000D01*
G75*
G02*
X209160000Y-87135000I0J-150000D01*
G01*
X209160000Y-88885000D01*
G75*
G02*
X209010000Y-89035000I-150000J0D01*
G01*
G37*
G36*
G01*
X210280000Y-89035000D02*
X209980000Y-89035000D01*
G75*
G02*
X209830000Y-88885000I0J150000D01*
G01*
X209830000Y-87135000D01*
G75*
G02*
X209980000Y-86985000I150000J0D01*
G01*
X210280000Y-86985000D01*
G75*
G02*
X210430000Y-87135000I0J-150000D01*
G01*
X210430000Y-88885000D01*
G75*
G02*
X210280000Y-89035000I-150000J0D01*
G01*
G37*
G36*
G01*
X210280000Y-79735000D02*
X209980000Y-79735000D01*
G75*
G02*
X209830000Y-79585000I0J150000D01*
G01*
X209830000Y-77835000D01*
G75*
G02*
X209980000Y-77685000I150000J0D01*
G01*
X210280000Y-77685000D01*
G75*
G02*
X210430000Y-77835000I0J-150000D01*
G01*
X210430000Y-79585000D01*
G75*
G02*
X210280000Y-79735000I-150000J0D01*
G01*
G37*
G36*
G01*
X209010000Y-79735000D02*
X208710000Y-79735000D01*
G75*
G02*
X208560000Y-79585000I0J150000D01*
G01*
X208560000Y-77835000D01*
G75*
G02*
X208710000Y-77685000I150000J0D01*
G01*
X209010000Y-77685000D01*
G75*
G02*
X209160000Y-77835000I0J-150000D01*
G01*
X209160000Y-79585000D01*
G75*
G02*
X209010000Y-79735000I-150000J0D01*
G01*
G37*
G36*
G01*
X207740000Y-79735000D02*
X207440000Y-79735000D01*
G75*
G02*
X207290000Y-79585000I0J150000D01*
G01*
X207290000Y-77835000D01*
G75*
G02*
X207440000Y-77685000I150000J0D01*
G01*
X207740000Y-77685000D01*
G75*
G02*
X207890000Y-77835000I0J-150000D01*
G01*
X207890000Y-79585000D01*
G75*
G02*
X207740000Y-79735000I-150000J0D01*
G01*
G37*
G36*
G01*
X206470000Y-79735000D02*
X206170000Y-79735000D01*
G75*
G02*
X206020000Y-79585000I0J150000D01*
G01*
X206020000Y-77835000D01*
G75*
G02*
X206170000Y-77685000I150000J0D01*
G01*
X206470000Y-77685000D01*
G75*
G02*
X206620000Y-77835000I0J-150000D01*
G01*
X206620000Y-79585000D01*
G75*
G02*
X206470000Y-79735000I-150000J0D01*
G01*
G37*
G36*
G01*
X205200000Y-79735000D02*
X204900000Y-79735000D01*
G75*
G02*
X204750000Y-79585000I0J150000D01*
G01*
X204750000Y-77835000D01*
G75*
G02*
X204900000Y-77685000I150000J0D01*
G01*
X205200000Y-77685000D01*
G75*
G02*
X205350000Y-77835000I0J-150000D01*
G01*
X205350000Y-79585000D01*
G75*
G02*
X205200000Y-79735000I-150000J0D01*
G01*
G37*
G36*
G01*
X203930000Y-79735000D02*
X203630000Y-79735000D01*
G75*
G02*
X203480000Y-79585000I0J150000D01*
G01*
X203480000Y-77835000D01*
G75*
G02*
X203630000Y-77685000I150000J0D01*
G01*
X203930000Y-77685000D01*
G75*
G02*
X204080000Y-77835000I0J-150000D01*
G01*
X204080000Y-79585000D01*
G75*
G02*
X203930000Y-79735000I-150000J0D01*
G01*
G37*
G36*
G01*
X202660000Y-79735000D02*
X202360000Y-79735000D01*
G75*
G02*
X202210000Y-79585000I0J150000D01*
G01*
X202210000Y-77835000D01*
G75*
G02*
X202360000Y-77685000I150000J0D01*
G01*
X202660000Y-77685000D01*
G75*
G02*
X202810000Y-77835000I0J-150000D01*
G01*
X202810000Y-79585000D01*
G75*
G02*
X202660000Y-79735000I-150000J0D01*
G01*
G37*
G36*
G01*
X201390000Y-79735000D02*
X201090000Y-79735000D01*
G75*
G02*
X200940000Y-79585000I0J150000D01*
G01*
X200940000Y-77835000D01*
G75*
G02*
X201090000Y-77685000I150000J0D01*
G01*
X201390000Y-77685000D01*
G75*
G02*
X201540000Y-77835000I0J-150000D01*
G01*
X201540000Y-79585000D01*
G75*
G02*
X201390000Y-79735000I-150000J0D01*
G01*
G37*
G36*
G01*
X200120000Y-79735000D02*
X199820000Y-79735000D01*
G75*
G02*
X199670000Y-79585000I0J150000D01*
G01*
X199670000Y-77835000D01*
G75*
G02*
X199820000Y-77685000I150000J0D01*
G01*
X200120000Y-77685000D01*
G75*
G02*
X200270000Y-77835000I0J-150000D01*
G01*
X200270000Y-79585000D01*
G75*
G02*
X200120000Y-79735000I-150000J0D01*
G01*
G37*
G36*
G01*
X198850000Y-79735000D02*
X198550000Y-79735000D01*
G75*
G02*
X198400000Y-79585000I0J150000D01*
G01*
X198400000Y-77835000D01*
G75*
G02*
X198550000Y-77685000I150000J0D01*
G01*
X198850000Y-77685000D01*
G75*
G02*
X199000000Y-77835000I0J-150000D01*
G01*
X199000000Y-79585000D01*
G75*
G02*
X198850000Y-79735000I-150000J0D01*
G01*
G37*
G36*
G01*
X197580000Y-79735000D02*
X197280000Y-79735000D01*
G75*
G02*
X197130000Y-79585000I0J150000D01*
G01*
X197130000Y-77835000D01*
G75*
G02*
X197280000Y-77685000I150000J0D01*
G01*
X197580000Y-77685000D01*
G75*
G02*
X197730000Y-77835000I0J-150000D01*
G01*
X197730000Y-79585000D01*
G75*
G02*
X197580000Y-79735000I-150000J0D01*
G01*
G37*
G36*
G01*
X196310000Y-79735000D02*
X196010000Y-79735000D01*
G75*
G02*
X195860000Y-79585000I0J150000D01*
G01*
X195860000Y-77835000D01*
G75*
G02*
X196010000Y-77685000I150000J0D01*
G01*
X196310000Y-77685000D01*
G75*
G02*
X196460000Y-77835000I0J-150000D01*
G01*
X196460000Y-79585000D01*
G75*
G02*
X196310000Y-79735000I-150000J0D01*
G01*
G37*
G36*
G01*
X195040000Y-79735000D02*
X194740000Y-79735000D01*
G75*
G02*
X194590000Y-79585000I0J150000D01*
G01*
X194590000Y-77835000D01*
G75*
G02*
X194740000Y-77685000I150000J0D01*
G01*
X195040000Y-77685000D01*
G75*
G02*
X195190000Y-77835000I0J-150000D01*
G01*
X195190000Y-79585000D01*
G75*
G02*
X195040000Y-79735000I-150000J0D01*
G01*
G37*
G36*
G01*
X193770000Y-79735000D02*
X193470000Y-79735000D01*
G75*
G02*
X193320000Y-79585000I0J150000D01*
G01*
X193320000Y-77835000D01*
G75*
G02*
X193470000Y-77685000I150000J0D01*
G01*
X193770000Y-77685000D01*
G75*
G02*
X193920000Y-77835000I0J-150000D01*
G01*
X193920000Y-79585000D01*
G75*
G02*
X193770000Y-79735000I-150000J0D01*
G01*
G37*
G04 #@! TD*
D11*
G04 #@! TO.C,C1*
X161000000Y-96000000D03*
D10*
X163540000Y-96000000D03*
G04 #@! TD*
D11*
G04 #@! TO.C,R1*
X169000000Y-106000000D03*
D10*
X166460000Y-106000000D03*
G04 #@! TD*
D24*
G04 #@! TO.C,MCP3425*
X198350000Y-97500000D03*
X198350000Y-96550000D03*
X198350000Y-98450000D03*
X195650000Y-98450000D03*
X195650000Y-97500000D03*
X195650000Y-96550000D03*
G04 #@! TD*
G04 #@! TO.C,MCP3425*
X205150000Y-96550000D03*
X205150000Y-97500000D03*
X205150000Y-98450000D03*
X207850000Y-98450000D03*
X207850000Y-96550000D03*
X207850000Y-97500000D03*
G04 #@! TD*
D22*
G04 #@! TO.C,MIS2503 (Sub)*
X166500000Y-102500000D03*
D20*
X176500000Y-97420000D03*
D21*
X166500000Y-99960000D03*
D20*
X176500000Y-99960000D03*
X166500000Y-97400000D03*
X176500000Y-102500000D03*
G04 #@! TD*
G04 #@! TO.C,I2C*
G36*
G01*
X212000000Y-88500000D02*
X217000000Y-88500000D01*
G75*
G02*
X217250000Y-88750000I0J-250000D01*
G01*
X217250000Y-89250000D01*
G75*
G02*
X217000000Y-89500000I-250000J0D01*
G01*
X212000000Y-89500000D01*
G75*
G02*
X211750000Y-89250000I0J250000D01*
G01*
X211750000Y-88750000D01*
G75*
G02*
X212000000Y-88500000I250000J0D01*
G01*
G37*
G36*
G01*
X212000000Y-90500000D02*
X217000000Y-90500000D01*
G75*
G02*
X217250000Y-90750000I0J-250000D01*
G01*
X217250000Y-91250000D01*
G75*
G02*
X217000000Y-91500000I-250000J0D01*
G01*
X212000000Y-91500000D01*
G75*
G02*
X211750000Y-91250000I0J250000D01*
G01*
X211750000Y-90750000D01*
G75*
G02*
X212000000Y-90500000I250000J0D01*
G01*
G37*
G36*
G01*
X212000000Y-92500000D02*
X217000000Y-92500000D01*
G75*
G02*
X217250000Y-92750000I0J-250000D01*
G01*
X217250000Y-93250000D01*
G75*
G02*
X217000000Y-93500000I-250000J0D01*
G01*
X212000000Y-93500000D01*
G75*
G02*
X211750000Y-93250000I0J250000D01*
G01*
X211750000Y-92750000D01*
G75*
G02*
X212000000Y-92500000I250000J0D01*
G01*
G37*
G36*
G01*
X212000000Y-94500000D02*
X217000000Y-94500000D01*
G75*
G02*
X217250000Y-94750000I0J-250000D01*
G01*
X217250000Y-95250000D01*
G75*
G02*
X217000000Y-95500000I-250000J0D01*
G01*
X212000000Y-95500000D01*
G75*
G02*
X211750000Y-95250000I0J250000D01*
G01*
X211750000Y-94750000D01*
G75*
G02*
X212000000Y-94500000I250000J0D01*
G01*
G37*
D25*
X218000000Y-88000000D03*
X218000000Y-96000000D03*
G04 #@! TD*
D26*
G04 #@! TO.C,EXTRA*
X229000000Y-89000000D03*
D27*
X229000000Y-91000000D03*
X229000000Y-93000000D03*
X229000000Y-95000000D03*
G04 #@! TD*
M02*
