M48
; DRILL file {KiCad (5.1.8)-1} date 06/19/23 23:59:56
; FORMAT={-:-/ absolute / metric / decimal}
; #@! TF.CreationDate,2023-06-19T23:59:56+09:00
; #@! TF.GenerationSoftware,Kicad,Pcbnew,(5.1.8)-1
FMAT,2
METRIC
T1C0.400
T2C0.800
T3C0.900
T4C1.000
T5C1.200
T6C1.400
T7C1.900
T8C2.200
T9C3.400
T10C4.500
%
G90
G05
T1
X147.0Y-111.0
X153.61Y-73.2
X156.5Y-108.5
X166.0Y-111.0
X172.82Y-73.325
X177.05Y-89.65
X183.5Y-95.5
X185.0Y-111.0
X188.0Y-95.5
X191.905Y-73.325
X193.0Y-97.5
X195.0Y-85.5
X196.16Y-77.01
X196.16Y-86.625
X197.43Y-75.83
X197.43Y-86.625
X198.5Y-85.5
X199.0Y-76.5
X199.5Y-97.5
X200.5Y-96.5
X203.5Y-96.5
X204.0Y-86.5
X204.0Y-93.0
X204.0Y-111.0
X205.0Y-89.5
X206.0Y-80.5
X208.5Y-96.0
X209.0Y-97.5
X210.99Y-73.325
X218.5Y-91.0
X218.5Y-93.0
X219.655Y-109.395
X220.0Y-89.0
X223.0Y-111.0
X229.44Y-73.325
X231.72Y-75.105
T2
X148.0Y-97.4
X148.0Y-99.96
X148.0Y-102.5
X158.0Y-97.42
X158.0Y-99.96
X158.0Y-102.5
X166.5Y-97.4
X166.5Y-99.96
X166.5Y-102.5
X176.5Y-97.42
X176.5Y-99.96
X176.5Y-102.5
X229.0Y-89.0
X229.0Y-91.0
X229.0Y-93.0
X229.0Y-95.0
T3
X128.69Y-88.19
X128.69Y-90.73
X128.69Y-93.27
X128.69Y-95.81
X136.31Y-88.19
X136.31Y-90.73
X136.31Y-93.27
X136.31Y-95.81
T4
X181.25Y-83.106
X181.25Y-85.646
X181.25Y-88.186
X181.25Y-90.726
X181.25Y-93.266
X181.25Y-95.806
X181.25Y-98.346
X181.25Y-100.886
X129.0Y-109.0
X133.0Y-109.0
X137.0Y-109.0
X175.46Y-106.0
X178.0Y-106.0
X161.0Y-96.0
X163.54Y-96.0
X166.46Y-106.0
X169.0Y-106.0
T5
X221.5Y-119.3
X226.5Y-121.4
X226.5Y-62.6
X231.5Y-64.7
X150.5Y-62.6
X155.5Y-64.7
X173.3Y-82.5
X175.4Y-87.5
X207.5Y-62.6
X212.5Y-64.7
X164.5Y-119.3
X169.5Y-121.4
X183.5Y-119.3
X188.5Y-121.4
X131.5Y-84.5
X131.5Y-99.5
X154.3Y-82.5
X156.4Y-87.5
X218.0Y-88.0
X218.0Y-96.0
X169.5Y-62.6
X174.5Y-64.7
X145.5Y-119.3
X150.5Y-121.4
X188.5Y-62.6
X193.5Y-64.7
X202.5Y-119.3
X207.5Y-121.4
T6
X128.0Y-119.0
X138.0Y-119.0
T7
X183.0Y-68.5
X194.0Y-68.5
X202.0Y-115.5
X213.0Y-115.5
X221.0Y-115.5
X232.0Y-115.5
X221.0Y-68.5
X232.0Y-68.5
X145.0Y-68.5
X156.0Y-68.5
X169.5Y-82.0
X169.5Y-93.0
X202.0Y-68.5
X213.0Y-68.5
X164.0Y-115.5
X175.0Y-115.5
X183.0Y-115.5
X194.0Y-115.5
X150.5Y-82.0
X150.5Y-93.0
X164.0Y-68.5
X175.0Y-68.5
X145.0Y-115.5
X156.0Y-115.5
T8
X125.0Y-109.0
X137.5Y-75.0
X144.0Y-105.0
X224.0Y-84.0
X224.0Y-100.0
X236.5Y-80.5
X236.5Y-103.5
T9
X169.5Y-87.5
X207.5Y-68.5
X169.5Y-115.5
X188.5Y-115.5
X150.5Y-87.5
X169.5Y-68.5
X150.5Y-115.5
X188.5Y-68.5
X207.5Y-115.5
X226.5Y-115.5
X226.5Y-68.5
X150.5Y-68.5
T10
X151.1Y-100.0
X169.5Y-100.0
T4
G00X124.968Y-69.75
M15
G01X124.968Y-70.25
M16
G05
G00X127.468Y-69.75
M15
G01X127.468Y-70.25
M16
G05
G00X129.718Y-65.0
M15
G01X130.218Y-65.0
M16
G05
G00X132.468Y-69.75
M15
G01X132.468Y-70.25
M16
G05
G00X134.968Y-69.75
M15
G01X134.968Y-70.25
M16
G05
T0
M30
