G04 #@! TF.GenerationSoftware,KiCad,Pcbnew,(5.1.8)-1*
G04 #@! TF.CreationDate,2023-06-19T23:59:53+09:00*
G04 #@! TF.ProjectId,windsynth,77696e64-7379-46e7-9468-2e6b69636164,rev?*
G04 #@! TF.SameCoordinates,Original*
G04 #@! TF.FileFunction,Profile,NP*
%FSLAX46Y46*%
G04 Gerber Fmt 4.6, Leading zero omitted, Abs format (unit mm)*
G04 Created by KiCad (PCBNEW (5.1.8)-1) date 2023-06-19 23:59:53*
%MOMM*%
%LPD*%
G01*
G04 APERTURE LIST*
G04 #@! TA.AperFunction,Profile*
%ADD10C,0.050000*%
G04 #@! TD*
G04 APERTURE END LIST*
D10*
X239500000Y-100000000D02*
X239500000Y-107500000D01*
X235500000Y-108000000D02*
X239000000Y-108000000D01*
X235000000Y-108500000D02*
G75*
G02*
X235500000Y-108000000I500000J0D01*
G01*
X239500000Y-107500000D02*
G75*
G02*
X239000000Y-108000000I-500000J0D01*
G01*
X239000000Y-84500000D02*
X235500000Y-84500000D01*
X239000000Y-99500000D02*
X235500000Y-99500000D01*
X239000000Y-99500000D02*
G75*
G02*
X239500000Y-100000000I0J-500000D01*
G01*
X239500000Y-84000000D02*
G75*
G02*
X239000000Y-84500000I-500000J0D01*
G01*
X235500000Y-76000000D02*
X239000000Y-76000000D01*
X235000000Y-60500000D02*
X235000000Y-75500000D01*
X235500000Y-76000000D02*
G75*
G02*
X235000000Y-75500000I0J500000D01*
G01*
X239000000Y-76000000D02*
G75*
G02*
X239500000Y-76500000I0J-500000D01*
G01*
X235000000Y-123500000D02*
X235000000Y-108500000D01*
X233000000Y-87000000D02*
X233000000Y-97000000D01*
X235500000Y-99500000D02*
G75*
G02*
X233000000Y-97000000I0J2500000D01*
G01*
X233000000Y-87000000D02*
G75*
G02*
X235500000Y-84500000I2500000J0D01*
G01*
X125500000Y-124000000D02*
X123000000Y-124000000D01*
X126500000Y-123000000D02*
G75*
G02*
X125500000Y-124000000I-1000000J0D01*
G01*
X139500000Y-123000000D02*
X139500000Y-122000000D01*
X126500000Y-122000000D02*
X126500000Y-123000000D01*
X139500000Y-122000000D02*
X126500000Y-122000000D01*
X140500000Y-124000000D02*
G75*
G02*
X139500000Y-123000000I0J1000000D01*
G01*
X122500000Y-60500000D02*
X122500000Y-123500000D01*
X235000000Y-123500000D02*
G75*
G02*
X234500000Y-124000000I-500000J0D01*
G01*
X123000000Y-124000000D02*
G75*
G02*
X122500000Y-123500000I0J500000D01*
G01*
X122500000Y-60500000D02*
G75*
G02*
X123000000Y-60000000I500000J0D01*
G01*
X234500000Y-60000000D02*
G75*
G02*
X235000000Y-60500000I0J-500000D01*
G01*
X234500000Y-60000000D02*
X123000000Y-60000000D01*
X239500000Y-84000000D02*
X239500000Y-76500000D01*
X140500000Y-124000000D02*
X234500000Y-124000000D01*
M02*
