G04 #@! TF.GenerationSoftware,KiCad,Pcbnew,(5.1.8)-1*
G04 #@! TF.CreationDate,2023-06-19T23:59:53+09:00*
G04 #@! TF.ProjectId,windsynth,77696e64-7379-46e7-9468-2e6b69636164,rev?*
G04 #@! TF.SameCoordinates,Original*
G04 #@! TF.FileFunction,Paste,Top*
G04 #@! TF.FilePolarity,Positive*
%FSLAX46Y46*%
G04 Gerber Fmt 4.6, Leading zero omitted, Abs format (unit mm)*
G04 Created by KiCad (PCBNEW (5.1.8)-1) date 2023-06-19 23:59:53*
%MOMM*%
%LPD*%
G01*
G04 APERTURE LIST*
%ADD10R,1.200000X1.500000*%
%ADD11R,1.560000X0.650000*%
G04 APERTURE END LIST*
D10*
G04 #@! TO.C,KeyD*
X186900000Y-110800000D03*
X190100000Y-110800000D03*
G04 #@! TD*
G04 #@! TO.C,KeyB*
X148900000Y-73200000D03*
X152100000Y-73200000D03*
G04 #@! TD*
G04 #@! TO.C,KeyC*
X224900000Y-110800000D03*
X228100000Y-110800000D03*
G04 #@! TD*
G04 #@! TO.C,KeyEb*
X205900000Y-110800000D03*
X209100000Y-110800000D03*
G04 #@! TD*
G04 #@! TO.C,KeyE*
X167900000Y-110800000D03*
X171100000Y-110800000D03*
G04 #@! TD*
G04 #@! TO.C,KeyF*
X148900000Y-110800000D03*
X152100000Y-110800000D03*
G04 #@! TD*
G04 #@! TO.C,KeyCs*
X228100000Y-73200000D03*
X224900000Y-73200000D03*
G04 #@! TD*
G04 #@! TO.C,KeyGs*
X209100000Y-73200000D03*
X205900000Y-73200000D03*
G04 #@! TD*
G04 #@! TO.C,KeyG*
X186900000Y-73200000D03*
X190100000Y-73200000D03*
G04 #@! TD*
G04 #@! TO.C,KeyA*
X167900000Y-73200000D03*
X171100000Y-73200000D03*
G04 #@! TD*
G04 #@! TO.C,MCP23017*
G36*
G01*
X193770000Y-89035000D02*
X193470000Y-89035000D01*
G75*
G02*
X193320000Y-88885000I0J150000D01*
G01*
X193320000Y-87135000D01*
G75*
G02*
X193470000Y-86985000I150000J0D01*
G01*
X193770000Y-86985000D01*
G75*
G02*
X193920000Y-87135000I0J-150000D01*
G01*
X193920000Y-88885000D01*
G75*
G02*
X193770000Y-89035000I-150000J0D01*
G01*
G37*
G36*
G01*
X195040000Y-89035000D02*
X194740000Y-89035000D01*
G75*
G02*
X194590000Y-88885000I0J150000D01*
G01*
X194590000Y-87135000D01*
G75*
G02*
X194740000Y-86985000I150000J0D01*
G01*
X195040000Y-86985000D01*
G75*
G02*
X195190000Y-87135000I0J-150000D01*
G01*
X195190000Y-88885000D01*
G75*
G02*
X195040000Y-89035000I-150000J0D01*
G01*
G37*
G36*
G01*
X196310000Y-89035000D02*
X196010000Y-89035000D01*
G75*
G02*
X195860000Y-88885000I0J150000D01*
G01*
X195860000Y-87135000D01*
G75*
G02*
X196010000Y-86985000I150000J0D01*
G01*
X196310000Y-86985000D01*
G75*
G02*
X196460000Y-87135000I0J-150000D01*
G01*
X196460000Y-88885000D01*
G75*
G02*
X196310000Y-89035000I-150000J0D01*
G01*
G37*
G36*
G01*
X197580000Y-89035000D02*
X197280000Y-89035000D01*
G75*
G02*
X197130000Y-88885000I0J150000D01*
G01*
X197130000Y-87135000D01*
G75*
G02*
X197280000Y-86985000I150000J0D01*
G01*
X197580000Y-86985000D01*
G75*
G02*
X197730000Y-87135000I0J-150000D01*
G01*
X197730000Y-88885000D01*
G75*
G02*
X197580000Y-89035000I-150000J0D01*
G01*
G37*
G36*
G01*
X198850000Y-89035000D02*
X198550000Y-89035000D01*
G75*
G02*
X198400000Y-88885000I0J150000D01*
G01*
X198400000Y-87135000D01*
G75*
G02*
X198550000Y-86985000I150000J0D01*
G01*
X198850000Y-86985000D01*
G75*
G02*
X199000000Y-87135000I0J-150000D01*
G01*
X199000000Y-88885000D01*
G75*
G02*
X198850000Y-89035000I-150000J0D01*
G01*
G37*
G36*
G01*
X200120000Y-89035000D02*
X199820000Y-89035000D01*
G75*
G02*
X199670000Y-88885000I0J150000D01*
G01*
X199670000Y-87135000D01*
G75*
G02*
X199820000Y-86985000I150000J0D01*
G01*
X200120000Y-86985000D01*
G75*
G02*
X200270000Y-87135000I0J-150000D01*
G01*
X200270000Y-88885000D01*
G75*
G02*
X200120000Y-89035000I-150000J0D01*
G01*
G37*
G36*
G01*
X201390000Y-89035000D02*
X201090000Y-89035000D01*
G75*
G02*
X200940000Y-88885000I0J150000D01*
G01*
X200940000Y-87135000D01*
G75*
G02*
X201090000Y-86985000I150000J0D01*
G01*
X201390000Y-86985000D01*
G75*
G02*
X201540000Y-87135000I0J-150000D01*
G01*
X201540000Y-88885000D01*
G75*
G02*
X201390000Y-89035000I-150000J0D01*
G01*
G37*
G36*
G01*
X202660000Y-89035000D02*
X202360000Y-89035000D01*
G75*
G02*
X202210000Y-88885000I0J150000D01*
G01*
X202210000Y-87135000D01*
G75*
G02*
X202360000Y-86985000I150000J0D01*
G01*
X202660000Y-86985000D01*
G75*
G02*
X202810000Y-87135000I0J-150000D01*
G01*
X202810000Y-88885000D01*
G75*
G02*
X202660000Y-89035000I-150000J0D01*
G01*
G37*
G36*
G01*
X203930000Y-89035000D02*
X203630000Y-89035000D01*
G75*
G02*
X203480000Y-88885000I0J150000D01*
G01*
X203480000Y-87135000D01*
G75*
G02*
X203630000Y-86985000I150000J0D01*
G01*
X203930000Y-86985000D01*
G75*
G02*
X204080000Y-87135000I0J-150000D01*
G01*
X204080000Y-88885000D01*
G75*
G02*
X203930000Y-89035000I-150000J0D01*
G01*
G37*
G36*
G01*
X205200000Y-89035000D02*
X204900000Y-89035000D01*
G75*
G02*
X204750000Y-88885000I0J150000D01*
G01*
X204750000Y-87135000D01*
G75*
G02*
X204900000Y-86985000I150000J0D01*
G01*
X205200000Y-86985000D01*
G75*
G02*
X205350000Y-87135000I0J-150000D01*
G01*
X205350000Y-88885000D01*
G75*
G02*
X205200000Y-89035000I-150000J0D01*
G01*
G37*
G36*
G01*
X206470000Y-89035000D02*
X206170000Y-89035000D01*
G75*
G02*
X206020000Y-88885000I0J150000D01*
G01*
X206020000Y-87135000D01*
G75*
G02*
X206170000Y-86985000I150000J0D01*
G01*
X206470000Y-86985000D01*
G75*
G02*
X206620000Y-87135000I0J-150000D01*
G01*
X206620000Y-88885000D01*
G75*
G02*
X206470000Y-89035000I-150000J0D01*
G01*
G37*
G36*
G01*
X207740000Y-89035000D02*
X207440000Y-89035000D01*
G75*
G02*
X207290000Y-88885000I0J150000D01*
G01*
X207290000Y-87135000D01*
G75*
G02*
X207440000Y-86985000I150000J0D01*
G01*
X207740000Y-86985000D01*
G75*
G02*
X207890000Y-87135000I0J-150000D01*
G01*
X207890000Y-88885000D01*
G75*
G02*
X207740000Y-89035000I-150000J0D01*
G01*
G37*
G36*
G01*
X209010000Y-89035000D02*
X208710000Y-89035000D01*
G75*
G02*
X208560000Y-88885000I0J150000D01*
G01*
X208560000Y-87135000D01*
G75*
G02*
X208710000Y-86985000I150000J0D01*
G01*
X209010000Y-86985000D01*
G75*
G02*
X209160000Y-87135000I0J-150000D01*
G01*
X209160000Y-88885000D01*
G75*
G02*
X209010000Y-89035000I-150000J0D01*
G01*
G37*
G36*
G01*
X210280000Y-89035000D02*
X209980000Y-89035000D01*
G75*
G02*
X209830000Y-88885000I0J150000D01*
G01*
X209830000Y-87135000D01*
G75*
G02*
X209980000Y-86985000I150000J0D01*
G01*
X210280000Y-86985000D01*
G75*
G02*
X210430000Y-87135000I0J-150000D01*
G01*
X210430000Y-88885000D01*
G75*
G02*
X210280000Y-89035000I-150000J0D01*
G01*
G37*
G36*
G01*
X210280000Y-79735000D02*
X209980000Y-79735000D01*
G75*
G02*
X209830000Y-79585000I0J150000D01*
G01*
X209830000Y-77835000D01*
G75*
G02*
X209980000Y-77685000I150000J0D01*
G01*
X210280000Y-77685000D01*
G75*
G02*
X210430000Y-77835000I0J-150000D01*
G01*
X210430000Y-79585000D01*
G75*
G02*
X210280000Y-79735000I-150000J0D01*
G01*
G37*
G36*
G01*
X209010000Y-79735000D02*
X208710000Y-79735000D01*
G75*
G02*
X208560000Y-79585000I0J150000D01*
G01*
X208560000Y-77835000D01*
G75*
G02*
X208710000Y-77685000I150000J0D01*
G01*
X209010000Y-77685000D01*
G75*
G02*
X209160000Y-77835000I0J-150000D01*
G01*
X209160000Y-79585000D01*
G75*
G02*
X209010000Y-79735000I-150000J0D01*
G01*
G37*
G36*
G01*
X207740000Y-79735000D02*
X207440000Y-79735000D01*
G75*
G02*
X207290000Y-79585000I0J150000D01*
G01*
X207290000Y-77835000D01*
G75*
G02*
X207440000Y-77685000I150000J0D01*
G01*
X207740000Y-77685000D01*
G75*
G02*
X207890000Y-77835000I0J-150000D01*
G01*
X207890000Y-79585000D01*
G75*
G02*
X207740000Y-79735000I-150000J0D01*
G01*
G37*
G36*
G01*
X206470000Y-79735000D02*
X206170000Y-79735000D01*
G75*
G02*
X206020000Y-79585000I0J150000D01*
G01*
X206020000Y-77835000D01*
G75*
G02*
X206170000Y-77685000I150000J0D01*
G01*
X206470000Y-77685000D01*
G75*
G02*
X206620000Y-77835000I0J-150000D01*
G01*
X206620000Y-79585000D01*
G75*
G02*
X206470000Y-79735000I-150000J0D01*
G01*
G37*
G36*
G01*
X205200000Y-79735000D02*
X204900000Y-79735000D01*
G75*
G02*
X204750000Y-79585000I0J150000D01*
G01*
X204750000Y-77835000D01*
G75*
G02*
X204900000Y-77685000I150000J0D01*
G01*
X205200000Y-77685000D01*
G75*
G02*
X205350000Y-77835000I0J-150000D01*
G01*
X205350000Y-79585000D01*
G75*
G02*
X205200000Y-79735000I-150000J0D01*
G01*
G37*
G36*
G01*
X203930000Y-79735000D02*
X203630000Y-79735000D01*
G75*
G02*
X203480000Y-79585000I0J150000D01*
G01*
X203480000Y-77835000D01*
G75*
G02*
X203630000Y-77685000I150000J0D01*
G01*
X203930000Y-77685000D01*
G75*
G02*
X204080000Y-77835000I0J-150000D01*
G01*
X204080000Y-79585000D01*
G75*
G02*
X203930000Y-79735000I-150000J0D01*
G01*
G37*
G36*
G01*
X202660000Y-79735000D02*
X202360000Y-79735000D01*
G75*
G02*
X202210000Y-79585000I0J150000D01*
G01*
X202210000Y-77835000D01*
G75*
G02*
X202360000Y-77685000I150000J0D01*
G01*
X202660000Y-77685000D01*
G75*
G02*
X202810000Y-77835000I0J-150000D01*
G01*
X202810000Y-79585000D01*
G75*
G02*
X202660000Y-79735000I-150000J0D01*
G01*
G37*
G36*
G01*
X201390000Y-79735000D02*
X201090000Y-79735000D01*
G75*
G02*
X200940000Y-79585000I0J150000D01*
G01*
X200940000Y-77835000D01*
G75*
G02*
X201090000Y-77685000I150000J0D01*
G01*
X201390000Y-77685000D01*
G75*
G02*
X201540000Y-77835000I0J-150000D01*
G01*
X201540000Y-79585000D01*
G75*
G02*
X201390000Y-79735000I-150000J0D01*
G01*
G37*
G36*
G01*
X200120000Y-79735000D02*
X199820000Y-79735000D01*
G75*
G02*
X199670000Y-79585000I0J150000D01*
G01*
X199670000Y-77835000D01*
G75*
G02*
X199820000Y-77685000I150000J0D01*
G01*
X200120000Y-77685000D01*
G75*
G02*
X200270000Y-77835000I0J-150000D01*
G01*
X200270000Y-79585000D01*
G75*
G02*
X200120000Y-79735000I-150000J0D01*
G01*
G37*
G36*
G01*
X198850000Y-79735000D02*
X198550000Y-79735000D01*
G75*
G02*
X198400000Y-79585000I0J150000D01*
G01*
X198400000Y-77835000D01*
G75*
G02*
X198550000Y-77685000I150000J0D01*
G01*
X198850000Y-77685000D01*
G75*
G02*
X199000000Y-77835000I0J-150000D01*
G01*
X199000000Y-79585000D01*
G75*
G02*
X198850000Y-79735000I-150000J0D01*
G01*
G37*
G36*
G01*
X197580000Y-79735000D02*
X197280000Y-79735000D01*
G75*
G02*
X197130000Y-79585000I0J150000D01*
G01*
X197130000Y-77835000D01*
G75*
G02*
X197280000Y-77685000I150000J0D01*
G01*
X197580000Y-77685000D01*
G75*
G02*
X197730000Y-77835000I0J-150000D01*
G01*
X197730000Y-79585000D01*
G75*
G02*
X197580000Y-79735000I-150000J0D01*
G01*
G37*
G36*
G01*
X196310000Y-79735000D02*
X196010000Y-79735000D01*
G75*
G02*
X195860000Y-79585000I0J150000D01*
G01*
X195860000Y-77835000D01*
G75*
G02*
X196010000Y-77685000I150000J0D01*
G01*
X196310000Y-77685000D01*
G75*
G02*
X196460000Y-77835000I0J-150000D01*
G01*
X196460000Y-79585000D01*
G75*
G02*
X196310000Y-79735000I-150000J0D01*
G01*
G37*
G36*
G01*
X195040000Y-79735000D02*
X194740000Y-79735000D01*
G75*
G02*
X194590000Y-79585000I0J150000D01*
G01*
X194590000Y-77835000D01*
G75*
G02*
X194740000Y-77685000I150000J0D01*
G01*
X195040000Y-77685000D01*
G75*
G02*
X195190000Y-77835000I0J-150000D01*
G01*
X195190000Y-79585000D01*
G75*
G02*
X195040000Y-79735000I-150000J0D01*
G01*
G37*
G36*
G01*
X193770000Y-79735000D02*
X193470000Y-79735000D01*
G75*
G02*
X193320000Y-79585000I0J150000D01*
G01*
X193320000Y-77835000D01*
G75*
G02*
X193470000Y-77685000I150000J0D01*
G01*
X193770000Y-77685000D01*
G75*
G02*
X193920000Y-77835000I0J-150000D01*
G01*
X193920000Y-79585000D01*
G75*
G02*
X193770000Y-79735000I-150000J0D01*
G01*
G37*
G04 #@! TD*
D11*
G04 #@! TO.C,MCP3425*
X198350000Y-97500000D03*
X198350000Y-96550000D03*
X198350000Y-98450000D03*
X195650000Y-98450000D03*
X195650000Y-97500000D03*
X195650000Y-96550000D03*
G04 #@! TD*
G04 #@! TO.C,MCP3425*
X205150000Y-96550000D03*
X205150000Y-97500000D03*
X205150000Y-98450000D03*
X207850000Y-98450000D03*
X207850000Y-96550000D03*
X207850000Y-97500000D03*
G04 #@! TD*
G04 #@! TO.C,I2C*
G36*
G01*
X212000000Y-88500000D02*
X217000000Y-88500000D01*
G75*
G02*
X217250000Y-88750000I0J-250000D01*
G01*
X217250000Y-89250000D01*
G75*
G02*
X217000000Y-89500000I-250000J0D01*
G01*
X212000000Y-89500000D01*
G75*
G02*
X211750000Y-89250000I0J250000D01*
G01*
X211750000Y-88750000D01*
G75*
G02*
X212000000Y-88500000I250000J0D01*
G01*
G37*
G36*
G01*
X212000000Y-90500000D02*
X217000000Y-90500000D01*
G75*
G02*
X217250000Y-90750000I0J-250000D01*
G01*
X217250000Y-91250000D01*
G75*
G02*
X217000000Y-91500000I-250000J0D01*
G01*
X212000000Y-91500000D01*
G75*
G02*
X211750000Y-91250000I0J250000D01*
G01*
X211750000Y-90750000D01*
G75*
G02*
X212000000Y-90500000I250000J0D01*
G01*
G37*
G36*
G01*
X212000000Y-92500000D02*
X217000000Y-92500000D01*
G75*
G02*
X217250000Y-92750000I0J-250000D01*
G01*
X217250000Y-93250000D01*
G75*
G02*
X217000000Y-93500000I-250000J0D01*
G01*
X212000000Y-93500000D01*
G75*
G02*
X211750000Y-93250000I0J250000D01*
G01*
X211750000Y-92750000D01*
G75*
G02*
X212000000Y-92500000I250000J0D01*
G01*
G37*
G36*
G01*
X212000000Y-94500000D02*
X217000000Y-94500000D01*
G75*
G02*
X217250000Y-94750000I0J-250000D01*
G01*
X217250000Y-95250000D01*
G75*
G02*
X217000000Y-95500000I-250000J0D01*
G01*
X212000000Y-95500000D01*
G75*
G02*
X211750000Y-95250000I0J250000D01*
G01*
X211750000Y-94750000D01*
G75*
G02*
X212000000Y-94500000I250000J0D01*
G01*
G37*
G04 #@! TD*
M02*
