G04 #@! TF.GenerationSoftware,KiCad,Pcbnew,(5.1.8)-1*
G04 #@! TF.CreationDate,2022-08-28T16:31:03+09:00*
G04 #@! TF.ProjectId,windsynth,77696e64-7379-46e7-9468-2e6b69636164,rev?*
G04 #@! TF.SameCoordinates,Original*
G04 #@! TF.FileFunction,Soldermask,Bot*
G04 #@! TF.FilePolarity,Negative*
%FSLAX46Y46*%
G04 Gerber Fmt 4.6, Leading zero omitted, Abs format (unit mm)*
G04 Created by KiCad (PCBNEW (5.1.8)-1) date 2022-08-28 16:31:03*
%MOMM*%
%LPD*%
G01*
G04 APERTURE LIST*
%ADD10C,1.524000*%
%ADD11O,1.600000X1.600000*%
%ADD12O,1.000000X1.000000*%
%ADD13R,1.600000X1.600000*%
%ADD14C,2.000000*%
%ADD15C,3.400000*%
%ADD16C,1.900000*%
%ADD17O,1.700000X1.700000*%
%ADD18R,1.700000X1.700000*%
%ADD19O,1.350000X1.350000*%
%ADD20R,1.350000X1.350000*%
%ADD21R,1.500000X1.200000*%
%ADD22C,1.800000*%
G04 APERTURE END LIST*
D10*
G04 #@! TO.C,AE-PAM8012*
X128690000Y-95810000D03*
X128690000Y-93270000D03*
X128690000Y-90730000D03*
X128690000Y-88190000D03*
X136310000Y-95810000D03*
X136310000Y-93270000D03*
X136310000Y-90730000D03*
X136310000Y-88190000D03*
G04 #@! TD*
D11*
G04 #@! TO.C,MIS2503*
X158000000Y-104500000D03*
X148000000Y-99400000D03*
X158000000Y-101960000D03*
D12*
X148000000Y-101960000D03*
D11*
X158000000Y-99420000D03*
D13*
X148000000Y-104500000D03*
G04 #@! TD*
D14*
G04 #@! TO.C,KeyB*
X150500000Y-62600000D03*
X155500000Y-64700000D03*
D15*
X150500000Y-68500000D03*
D16*
X156000000Y-68500000D03*
X145000000Y-68500000D03*
G04 #@! TD*
G04 #@! TO.C,D10*
G36*
G01*
X154575000Y-73456250D02*
X154575000Y-72543750D01*
G75*
G02*
X154818750Y-72300000I243750J0D01*
G01*
X155306250Y-72300000D01*
G75*
G02*
X155550000Y-72543750I0J-243750D01*
G01*
X155550000Y-73456250D01*
G75*
G02*
X155306250Y-73700000I-243750J0D01*
G01*
X154818750Y-73700000D01*
G75*
G02*
X154575000Y-73456250I0J243750D01*
G01*
G37*
G36*
G01*
X156450000Y-73456250D02*
X156450000Y-72543750D01*
G75*
G02*
X156693750Y-72300000I243750J0D01*
G01*
X157181250Y-72300000D01*
G75*
G02*
X157425000Y-72543750I0J-243750D01*
G01*
X157425000Y-73456250D01*
G75*
G02*
X157181250Y-73700000I-243750J0D01*
G01*
X156693750Y-73700000D01*
G75*
G02*
X156450000Y-73456250I0J243750D01*
G01*
G37*
G04 #@! TD*
D17*
G04 #@! TO.C,M5StickC*
X181250000Y-83106000D03*
X181250000Y-85646000D03*
X181250000Y-88186000D03*
X181250000Y-90726000D03*
X181250000Y-93266000D03*
X181250000Y-95806000D03*
X181250000Y-98346000D03*
D18*
X181250000Y-100886000D03*
G04 #@! TD*
D19*
G04 #@! TO.C,I2C*
X223500000Y-95000000D03*
X223500000Y-93000000D03*
X223500000Y-91000000D03*
D20*
X223500000Y-89000000D03*
G04 #@! TD*
D14*
G04 #@! TO.C,SPEAKER*
X131500000Y-99500000D03*
X131500000Y-84500000D03*
G04 #@! TD*
D17*
G04 #@! TO.C,EXTRA*
X181555000Y-105500000D03*
D18*
X184095000Y-105500000D03*
G04 #@! TD*
G04 #@! TO.C,D1*
G36*
G01*
X220050000Y-110543750D02*
X220050000Y-111456250D01*
G75*
G02*
X219806250Y-111700000I-243750J0D01*
G01*
X219318750Y-111700000D01*
G75*
G02*
X219075000Y-111456250I0J243750D01*
G01*
X219075000Y-110543750D01*
G75*
G02*
X219318750Y-110300000I243750J0D01*
G01*
X219806250Y-110300000D01*
G75*
G02*
X220050000Y-110543750I0J-243750D01*
G01*
G37*
G36*
G01*
X221925000Y-110543750D02*
X221925000Y-111456250D01*
G75*
G02*
X221681250Y-111700000I-243750J0D01*
G01*
X221193750Y-111700000D01*
G75*
G02*
X220950000Y-111456250I0J243750D01*
G01*
X220950000Y-110543750D01*
G75*
G02*
X221193750Y-110300000I243750J0D01*
G01*
X221681250Y-110300000D01*
G75*
G02*
X221925000Y-110543750I0J-243750D01*
G01*
G37*
G04 #@! TD*
D17*
G04 #@! TO.C,J7*
X174530000Y-99960000D03*
D18*
X174530000Y-102500000D03*
G04 #@! TD*
D14*
G04 #@! TO.C,HEADPHONE*
X134968000Y-70000000D03*
X132468000Y-70000000D03*
X127468000Y-70000000D03*
X124968000Y-70000000D03*
X129968000Y-65000000D03*
G04 #@! TD*
G04 #@! TO.C,D2*
G36*
G01*
X201050000Y-110543750D02*
X201050000Y-111456250D01*
G75*
G02*
X200806250Y-111700000I-243750J0D01*
G01*
X200318750Y-111700000D01*
G75*
G02*
X200075000Y-111456250I0J243750D01*
G01*
X200075000Y-110543750D01*
G75*
G02*
X200318750Y-110300000I243750J0D01*
G01*
X200806250Y-110300000D01*
G75*
G02*
X201050000Y-110543750I0J-243750D01*
G01*
G37*
G36*
G01*
X202925000Y-110543750D02*
X202925000Y-111456250D01*
G75*
G02*
X202681250Y-111700000I-243750J0D01*
G01*
X202193750Y-111700000D01*
G75*
G02*
X201950000Y-111456250I0J243750D01*
G01*
X201950000Y-110543750D01*
G75*
G02*
X202193750Y-110300000I243750J0D01*
G01*
X202681250Y-110300000D01*
G75*
G02*
X202925000Y-110543750I0J-243750D01*
G01*
G37*
G04 #@! TD*
G04 #@! TO.C,D3*
G36*
G01*
X182050000Y-110543750D02*
X182050000Y-111456250D01*
G75*
G02*
X181806250Y-111700000I-243750J0D01*
G01*
X181318750Y-111700000D01*
G75*
G02*
X181075000Y-111456250I0J243750D01*
G01*
X181075000Y-110543750D01*
G75*
G02*
X181318750Y-110300000I243750J0D01*
G01*
X181806250Y-110300000D01*
G75*
G02*
X182050000Y-110543750I0J-243750D01*
G01*
G37*
G36*
G01*
X183925000Y-110543750D02*
X183925000Y-111456250D01*
G75*
G02*
X183681250Y-111700000I-243750J0D01*
G01*
X183193750Y-111700000D01*
G75*
G02*
X182950000Y-111456250I0J243750D01*
G01*
X182950000Y-110543750D01*
G75*
G02*
X183193750Y-110300000I243750J0D01*
G01*
X183681250Y-110300000D01*
G75*
G02*
X183925000Y-110543750I0J-243750D01*
G01*
G37*
G04 #@! TD*
G04 #@! TO.C,D4*
G36*
G01*
X163050000Y-110543750D02*
X163050000Y-111456250D01*
G75*
G02*
X162806250Y-111700000I-243750J0D01*
G01*
X162318750Y-111700000D01*
G75*
G02*
X162075000Y-111456250I0J243750D01*
G01*
X162075000Y-110543750D01*
G75*
G02*
X162318750Y-110300000I243750J0D01*
G01*
X162806250Y-110300000D01*
G75*
G02*
X163050000Y-110543750I0J-243750D01*
G01*
G37*
G36*
G01*
X164925000Y-110543750D02*
X164925000Y-111456250D01*
G75*
G02*
X164681250Y-111700000I-243750J0D01*
G01*
X164193750Y-111700000D01*
G75*
G02*
X163950000Y-111456250I0J243750D01*
G01*
X163950000Y-110543750D01*
G75*
G02*
X164193750Y-110300000I243750J0D01*
G01*
X164681250Y-110300000D01*
G75*
G02*
X164925000Y-110543750I0J-243750D01*
G01*
G37*
G04 #@! TD*
G04 #@! TO.C,D5*
G36*
G01*
X144050000Y-110543750D02*
X144050000Y-111456250D01*
G75*
G02*
X143806250Y-111700000I-243750J0D01*
G01*
X143318750Y-111700000D01*
G75*
G02*
X143075000Y-111456250I0J243750D01*
G01*
X143075000Y-110543750D01*
G75*
G02*
X143318750Y-110300000I243750J0D01*
G01*
X143806250Y-110300000D01*
G75*
G02*
X144050000Y-110543750I0J-243750D01*
G01*
G37*
G36*
G01*
X145925000Y-110543750D02*
X145925000Y-111456250D01*
G75*
G02*
X145681250Y-111700000I-243750J0D01*
G01*
X145193750Y-111700000D01*
G75*
G02*
X144950000Y-111456250I0J243750D01*
G01*
X144950000Y-110543750D01*
G75*
G02*
X145193750Y-110300000I243750J0D01*
G01*
X145681250Y-110300000D01*
G75*
G02*
X145925000Y-110543750I0J-243750D01*
G01*
G37*
G04 #@! TD*
G04 #@! TO.C,D6*
G36*
G01*
X232450000Y-73456250D02*
X232450000Y-72543750D01*
G75*
G02*
X232693750Y-72300000I243750J0D01*
G01*
X233181250Y-72300000D01*
G75*
G02*
X233425000Y-72543750I0J-243750D01*
G01*
X233425000Y-73456250D01*
G75*
G02*
X233181250Y-73700000I-243750J0D01*
G01*
X232693750Y-73700000D01*
G75*
G02*
X232450000Y-73456250I0J243750D01*
G01*
G37*
G36*
G01*
X230575000Y-73456250D02*
X230575000Y-72543750D01*
G75*
G02*
X230818750Y-72300000I243750J0D01*
G01*
X231306250Y-72300000D01*
G75*
G02*
X231550000Y-72543750I0J-243750D01*
G01*
X231550000Y-73456250D01*
G75*
G02*
X231306250Y-73700000I-243750J0D01*
G01*
X230818750Y-73700000D01*
G75*
G02*
X230575000Y-73456250I0J243750D01*
G01*
G37*
G04 #@! TD*
G04 #@! TO.C,D7*
G36*
G01*
X213950000Y-73456250D02*
X213950000Y-72543750D01*
G75*
G02*
X214193750Y-72300000I243750J0D01*
G01*
X214681250Y-72300000D01*
G75*
G02*
X214925000Y-72543750I0J-243750D01*
G01*
X214925000Y-73456250D01*
G75*
G02*
X214681250Y-73700000I-243750J0D01*
G01*
X214193750Y-73700000D01*
G75*
G02*
X213950000Y-73456250I0J243750D01*
G01*
G37*
G36*
G01*
X212075000Y-73456250D02*
X212075000Y-72543750D01*
G75*
G02*
X212318750Y-72300000I243750J0D01*
G01*
X212806250Y-72300000D01*
G75*
G02*
X213050000Y-72543750I0J-243750D01*
G01*
X213050000Y-73456250D01*
G75*
G02*
X212806250Y-73700000I-243750J0D01*
G01*
X212318750Y-73700000D01*
G75*
G02*
X212075000Y-73456250I0J243750D01*
G01*
G37*
G04 #@! TD*
G04 #@! TO.C,D8*
G36*
G01*
X194512500Y-73456250D02*
X194512500Y-72543750D01*
G75*
G02*
X194756250Y-72300000I243750J0D01*
G01*
X195243750Y-72300000D01*
G75*
G02*
X195487500Y-72543750I0J-243750D01*
G01*
X195487500Y-73456250D01*
G75*
G02*
X195243750Y-73700000I-243750J0D01*
G01*
X194756250Y-73700000D01*
G75*
G02*
X194512500Y-73456250I0J243750D01*
G01*
G37*
G36*
G01*
X192637500Y-73456250D02*
X192637500Y-72543750D01*
G75*
G02*
X192881250Y-72300000I243750J0D01*
G01*
X193368750Y-72300000D01*
G75*
G02*
X193612500Y-72543750I0J-243750D01*
G01*
X193612500Y-73456250D01*
G75*
G02*
X193368750Y-73700000I-243750J0D01*
G01*
X192881250Y-73700000D01*
G75*
G02*
X192637500Y-73456250I0J243750D01*
G01*
G37*
G04 #@! TD*
G04 #@! TO.C,D9*
G36*
G01*
X174075000Y-73456250D02*
X174075000Y-72543750D01*
G75*
G02*
X174318750Y-72300000I243750J0D01*
G01*
X174806250Y-72300000D01*
G75*
G02*
X175050000Y-72543750I0J-243750D01*
G01*
X175050000Y-73456250D01*
G75*
G02*
X174806250Y-73700000I-243750J0D01*
G01*
X174318750Y-73700000D01*
G75*
G02*
X174075000Y-73456250I0J243750D01*
G01*
G37*
G36*
G01*
X175950000Y-73456250D02*
X175950000Y-72543750D01*
G75*
G02*
X176193750Y-72300000I243750J0D01*
G01*
X176681250Y-72300000D01*
G75*
G02*
X176925000Y-72543750I0J-243750D01*
G01*
X176925000Y-73456250D01*
G75*
G02*
X176681250Y-73700000I-243750J0D01*
G01*
X176193750Y-73700000D01*
G75*
G02*
X175950000Y-73456250I0J243750D01*
G01*
G37*
G04 #@! TD*
D16*
G04 #@! TO.C,KeyC*
X232000000Y-115500000D03*
X221000000Y-115500000D03*
D15*
X226500000Y-115500000D03*
D14*
X221500000Y-119300000D03*
X226500000Y-121400000D03*
G04 #@! TD*
D16*
G04 #@! TO.C,KeyEb*
X213000000Y-115500000D03*
X202000000Y-115500000D03*
D15*
X207500000Y-115500000D03*
D14*
X202500000Y-119300000D03*
X207500000Y-121400000D03*
G04 #@! TD*
D16*
G04 #@! TO.C,KeyD*
X194000000Y-115500000D03*
X183000000Y-115500000D03*
D15*
X188500000Y-115500000D03*
D14*
X183500000Y-119300000D03*
X188500000Y-121400000D03*
G04 #@! TD*
D16*
G04 #@! TO.C,KeyE*
X175000000Y-115500000D03*
X164000000Y-115500000D03*
D15*
X169500000Y-115500000D03*
D14*
X164500000Y-119300000D03*
X169500000Y-121400000D03*
G04 #@! TD*
D16*
G04 #@! TO.C,KeyF*
X156000000Y-115500000D03*
X145000000Y-115500000D03*
D15*
X150500000Y-115500000D03*
D14*
X145500000Y-119300000D03*
X150500000Y-121400000D03*
G04 #@! TD*
D16*
G04 #@! TO.C,KeyCs*
X221000000Y-68500000D03*
X232000000Y-68500000D03*
D15*
X226500000Y-68500000D03*
D14*
X231500000Y-64700000D03*
X226500000Y-62600000D03*
G04 #@! TD*
D16*
G04 #@! TO.C,KeyGs*
X202000000Y-68500000D03*
X213000000Y-68500000D03*
D15*
X207500000Y-68500000D03*
D14*
X212500000Y-64700000D03*
X207500000Y-62600000D03*
G04 #@! TD*
G04 #@! TO.C,KeyG*
X188500000Y-62600000D03*
X193500000Y-64700000D03*
D15*
X188500000Y-68500000D03*
D16*
X194000000Y-68500000D03*
X183000000Y-68500000D03*
G04 #@! TD*
D14*
G04 #@! TO.C,KeyA*
X169500000Y-62600000D03*
X174500000Y-64700000D03*
D15*
X169500000Y-68500000D03*
D16*
X175000000Y-68500000D03*
X164000000Y-68500000D03*
G04 #@! TD*
D21*
G04 #@! TO.C,KeyDown*
X164800000Y-85900000D03*
X164800000Y-89100000D03*
D16*
X169500000Y-93000000D03*
X169500000Y-82000000D03*
D15*
X169500000Y-87500000D03*
D14*
X173300000Y-82500000D03*
X175400000Y-87500000D03*
G04 #@! TD*
D21*
G04 #@! TO.C,KeyUp*
X145800000Y-85900000D03*
X145800000Y-89100000D03*
D16*
X150500000Y-93000000D03*
X150500000Y-82000000D03*
D15*
X150500000Y-87500000D03*
D14*
X154300000Y-82500000D03*
X156400000Y-87500000D03*
G04 #@! TD*
G04 #@! TO.C,VOLUME*
X128000000Y-119000000D03*
D22*
X129000000Y-109000000D03*
X133000000Y-109000000D03*
X137000000Y-109000000D03*
D14*
X138000000Y-119000000D03*
G04 #@! TD*
D17*
G04 #@! TO.C,C1*
X168500000Y-102540000D03*
D18*
X168500000Y-100000000D03*
G04 #@! TD*
G04 #@! TO.C,R1*
X163500000Y-100000000D03*
D17*
X163500000Y-102540000D03*
G04 #@! TD*
M02*
