G04 #@! TF.GenerationSoftware,KiCad,Pcbnew,(5.1.8)-1*
G04 #@! TF.CreationDate,2022-08-28T16:31:03+09:00*
G04 #@! TF.ProjectId,windsynth,77696e64-7379-46e7-9468-2e6b69636164,rev?*
G04 #@! TF.SameCoordinates,Original*
G04 #@! TF.FileFunction,Soldermask,Top*
G04 #@! TF.FilePolarity,Negative*
%FSLAX46Y46*%
G04 Gerber Fmt 4.6, Leading zero omitted, Abs format (unit mm)*
G04 Created by KiCad (PCBNEW (5.1.8)-1) date 2022-08-28 16:31:03*
%MOMM*%
%LPD*%
G01*
G04 APERTURE LIST*
%ADD10C,1.524000*%
%ADD11O,1.600000X1.600000*%
%ADD12O,1.000000X1.000000*%
%ADD13R,1.600000X1.600000*%
%ADD14C,2.000000*%
%ADD15C,3.400000*%
%ADD16C,1.900000*%
%ADD17R,1.200000X1.500000*%
%ADD18O,1.700000X1.700000*%
%ADD19R,1.700000X1.700000*%
%ADD20O,1.350000X1.350000*%
%ADD21R,1.350000X1.350000*%
%ADD22C,1.800000*%
G04 APERTURE END LIST*
D10*
G04 #@! TO.C,AE-PAM8012*
X128690000Y-95810000D03*
X128690000Y-93270000D03*
X128690000Y-90730000D03*
X128690000Y-88190000D03*
X136310000Y-95810000D03*
X136310000Y-93270000D03*
X136310000Y-90730000D03*
X136310000Y-88190000D03*
G04 #@! TD*
D11*
G04 #@! TO.C,MIS2503*
X158000000Y-104500000D03*
X148000000Y-99400000D03*
X158000000Y-101960000D03*
D12*
X148000000Y-101960000D03*
D11*
X158000000Y-99420000D03*
D13*
X148000000Y-104500000D03*
G04 #@! TD*
D14*
G04 #@! TO.C,KeyB*
X150500000Y-62600000D03*
X155500000Y-64700000D03*
D15*
X150500000Y-68500000D03*
D16*
X156000000Y-68500000D03*
X145000000Y-68500000D03*
D17*
X148900000Y-73200000D03*
X152100000Y-73200000D03*
G04 #@! TD*
D18*
G04 #@! TO.C,M5StickC*
X181250000Y-83106000D03*
X181250000Y-85646000D03*
X181250000Y-88186000D03*
X181250000Y-90726000D03*
X181250000Y-93266000D03*
X181250000Y-95806000D03*
X181250000Y-98346000D03*
D19*
X181250000Y-100886000D03*
G04 #@! TD*
D20*
G04 #@! TO.C,I2C*
X223500000Y-95000000D03*
X223500000Y-93000000D03*
X223500000Y-91000000D03*
D21*
X223500000Y-89000000D03*
G04 #@! TD*
D14*
G04 #@! TO.C,SPEAKER*
X131500000Y-99500000D03*
X131500000Y-84500000D03*
G04 #@! TD*
D18*
G04 #@! TO.C,EXTRA*
X181555000Y-105500000D03*
D19*
X184095000Y-105500000D03*
G04 #@! TD*
D18*
G04 #@! TO.C,J7*
X174530000Y-99960000D03*
D19*
X174530000Y-102500000D03*
G04 #@! TD*
D14*
G04 #@! TO.C,HEADPHONE*
X134968000Y-70000000D03*
X132468000Y-70000000D03*
X127468000Y-70000000D03*
X124968000Y-70000000D03*
X129968000Y-65000000D03*
G04 #@! TD*
D17*
G04 #@! TO.C,KeyC*
X224900000Y-110800000D03*
X228100000Y-110800000D03*
D16*
X232000000Y-115500000D03*
X221000000Y-115500000D03*
D15*
X226500000Y-115500000D03*
D14*
X221500000Y-119300000D03*
X226500000Y-121400000D03*
G04 #@! TD*
D17*
G04 #@! TO.C,KeyEb*
X205900000Y-110800000D03*
X209100000Y-110800000D03*
D16*
X213000000Y-115500000D03*
X202000000Y-115500000D03*
D15*
X207500000Y-115500000D03*
D14*
X202500000Y-119300000D03*
X207500000Y-121400000D03*
G04 #@! TD*
D17*
G04 #@! TO.C,KeyD*
X186900000Y-110800000D03*
X190100000Y-110800000D03*
D16*
X194000000Y-115500000D03*
X183000000Y-115500000D03*
D15*
X188500000Y-115500000D03*
D14*
X183500000Y-119300000D03*
X188500000Y-121400000D03*
G04 #@! TD*
D17*
G04 #@! TO.C,KeyE*
X167900000Y-110800000D03*
X171100000Y-110800000D03*
D16*
X175000000Y-115500000D03*
X164000000Y-115500000D03*
D15*
X169500000Y-115500000D03*
D14*
X164500000Y-119300000D03*
X169500000Y-121400000D03*
G04 #@! TD*
D17*
G04 #@! TO.C,KeyF*
X148900000Y-110800000D03*
X152100000Y-110800000D03*
D16*
X156000000Y-115500000D03*
X145000000Y-115500000D03*
D15*
X150500000Y-115500000D03*
D14*
X145500000Y-119300000D03*
X150500000Y-121400000D03*
G04 #@! TD*
D17*
G04 #@! TO.C,KeyCs*
X228100000Y-73200000D03*
X224900000Y-73200000D03*
D16*
X221000000Y-68500000D03*
X232000000Y-68500000D03*
D15*
X226500000Y-68500000D03*
D14*
X231500000Y-64700000D03*
X226500000Y-62600000D03*
G04 #@! TD*
D17*
G04 #@! TO.C,KeyGs*
X209100000Y-73200000D03*
X205900000Y-73200000D03*
D16*
X202000000Y-68500000D03*
X213000000Y-68500000D03*
D15*
X207500000Y-68500000D03*
D14*
X212500000Y-64700000D03*
X207500000Y-62600000D03*
G04 #@! TD*
G04 #@! TO.C,KeyG*
X188500000Y-62600000D03*
X193500000Y-64700000D03*
D15*
X188500000Y-68500000D03*
D16*
X194000000Y-68500000D03*
X183000000Y-68500000D03*
D17*
X186900000Y-73200000D03*
X190100000Y-73200000D03*
G04 #@! TD*
D14*
G04 #@! TO.C,KeyA*
X169500000Y-62600000D03*
X174500000Y-64700000D03*
D15*
X169500000Y-68500000D03*
D16*
X175000000Y-68500000D03*
X164000000Y-68500000D03*
D17*
X167900000Y-73200000D03*
X171100000Y-73200000D03*
G04 #@! TD*
D16*
G04 #@! TO.C,KeyDown*
X169500000Y-93000000D03*
X169500000Y-82000000D03*
D15*
X169500000Y-87500000D03*
D14*
X173300000Y-82500000D03*
X175400000Y-87500000D03*
G04 #@! TD*
D16*
G04 #@! TO.C,KeyUp*
X150500000Y-93000000D03*
X150500000Y-82000000D03*
D15*
X150500000Y-87500000D03*
D14*
X154300000Y-82500000D03*
X156400000Y-87500000D03*
G04 #@! TD*
G04 #@! TO.C,VOLUME*
X128000000Y-119000000D03*
D22*
X129000000Y-109000000D03*
X133000000Y-109000000D03*
X137000000Y-109000000D03*
D14*
X138000000Y-119000000D03*
G04 #@! TD*
D18*
G04 #@! TO.C,C1*
X168500000Y-102540000D03*
D19*
X168500000Y-100000000D03*
G04 #@! TD*
G04 #@! TO.C,R1*
X163500000Y-100000000D03*
D18*
X163500000Y-102540000D03*
G04 #@! TD*
G04 #@! TO.C,PCF8574*
G36*
G01*
X215675000Y-103280000D02*
X215675000Y-103580000D01*
G75*
G02*
X215525000Y-103730000I-150000J0D01*
G01*
X213775000Y-103730000D01*
G75*
G02*
X213625000Y-103580000I0J150000D01*
G01*
X213625000Y-103280000D01*
G75*
G02*
X213775000Y-103130000I150000J0D01*
G01*
X215525000Y-103130000D01*
G75*
G02*
X215675000Y-103280000I0J-150000D01*
G01*
G37*
G36*
G01*
X215675000Y-102010000D02*
X215675000Y-102310000D01*
G75*
G02*
X215525000Y-102460000I-150000J0D01*
G01*
X213775000Y-102460000D01*
G75*
G02*
X213625000Y-102310000I0J150000D01*
G01*
X213625000Y-102010000D01*
G75*
G02*
X213775000Y-101860000I150000J0D01*
G01*
X215525000Y-101860000D01*
G75*
G02*
X215675000Y-102010000I0J-150000D01*
G01*
G37*
G36*
G01*
X215675000Y-100740000D02*
X215675000Y-101040000D01*
G75*
G02*
X215525000Y-101190000I-150000J0D01*
G01*
X213775000Y-101190000D01*
G75*
G02*
X213625000Y-101040000I0J150000D01*
G01*
X213625000Y-100740000D01*
G75*
G02*
X213775000Y-100590000I150000J0D01*
G01*
X215525000Y-100590000D01*
G75*
G02*
X215675000Y-100740000I0J-150000D01*
G01*
G37*
G36*
G01*
X215675000Y-99470000D02*
X215675000Y-99770000D01*
G75*
G02*
X215525000Y-99920000I-150000J0D01*
G01*
X213775000Y-99920000D01*
G75*
G02*
X213625000Y-99770000I0J150000D01*
G01*
X213625000Y-99470000D01*
G75*
G02*
X213775000Y-99320000I150000J0D01*
G01*
X215525000Y-99320000D01*
G75*
G02*
X215675000Y-99470000I0J-150000D01*
G01*
G37*
G36*
G01*
X215675000Y-98200000D02*
X215675000Y-98500000D01*
G75*
G02*
X215525000Y-98650000I-150000J0D01*
G01*
X213775000Y-98650000D01*
G75*
G02*
X213625000Y-98500000I0J150000D01*
G01*
X213625000Y-98200000D01*
G75*
G02*
X213775000Y-98050000I150000J0D01*
G01*
X215525000Y-98050000D01*
G75*
G02*
X215675000Y-98200000I0J-150000D01*
G01*
G37*
G36*
G01*
X215675000Y-96930000D02*
X215675000Y-97230000D01*
G75*
G02*
X215525000Y-97380000I-150000J0D01*
G01*
X213775000Y-97380000D01*
G75*
G02*
X213625000Y-97230000I0J150000D01*
G01*
X213625000Y-96930000D01*
G75*
G02*
X213775000Y-96780000I150000J0D01*
G01*
X215525000Y-96780000D01*
G75*
G02*
X215675000Y-96930000I0J-150000D01*
G01*
G37*
G36*
G01*
X215675000Y-95660000D02*
X215675000Y-95960000D01*
G75*
G02*
X215525000Y-96110000I-150000J0D01*
G01*
X213775000Y-96110000D01*
G75*
G02*
X213625000Y-95960000I0J150000D01*
G01*
X213625000Y-95660000D01*
G75*
G02*
X213775000Y-95510000I150000J0D01*
G01*
X215525000Y-95510000D01*
G75*
G02*
X215675000Y-95660000I0J-150000D01*
G01*
G37*
G36*
G01*
X215675000Y-94390000D02*
X215675000Y-94690000D01*
G75*
G02*
X215525000Y-94840000I-150000J0D01*
G01*
X213775000Y-94840000D01*
G75*
G02*
X213625000Y-94690000I0J150000D01*
G01*
X213625000Y-94390000D01*
G75*
G02*
X213775000Y-94240000I150000J0D01*
G01*
X215525000Y-94240000D01*
G75*
G02*
X215675000Y-94390000I0J-150000D01*
G01*
G37*
G36*
G01*
X206375000Y-94390000D02*
X206375000Y-94690000D01*
G75*
G02*
X206225000Y-94840000I-150000J0D01*
G01*
X204475000Y-94840000D01*
G75*
G02*
X204325000Y-94690000I0J150000D01*
G01*
X204325000Y-94390000D01*
G75*
G02*
X204475000Y-94240000I150000J0D01*
G01*
X206225000Y-94240000D01*
G75*
G02*
X206375000Y-94390000I0J-150000D01*
G01*
G37*
G36*
G01*
X206375000Y-95660000D02*
X206375000Y-95960000D01*
G75*
G02*
X206225000Y-96110000I-150000J0D01*
G01*
X204475000Y-96110000D01*
G75*
G02*
X204325000Y-95960000I0J150000D01*
G01*
X204325000Y-95660000D01*
G75*
G02*
X204475000Y-95510000I150000J0D01*
G01*
X206225000Y-95510000D01*
G75*
G02*
X206375000Y-95660000I0J-150000D01*
G01*
G37*
G36*
G01*
X206375000Y-96930000D02*
X206375000Y-97230000D01*
G75*
G02*
X206225000Y-97380000I-150000J0D01*
G01*
X204475000Y-97380000D01*
G75*
G02*
X204325000Y-97230000I0J150000D01*
G01*
X204325000Y-96930000D01*
G75*
G02*
X204475000Y-96780000I150000J0D01*
G01*
X206225000Y-96780000D01*
G75*
G02*
X206375000Y-96930000I0J-150000D01*
G01*
G37*
G36*
G01*
X206375000Y-98200000D02*
X206375000Y-98500000D01*
G75*
G02*
X206225000Y-98650000I-150000J0D01*
G01*
X204475000Y-98650000D01*
G75*
G02*
X204325000Y-98500000I0J150000D01*
G01*
X204325000Y-98200000D01*
G75*
G02*
X204475000Y-98050000I150000J0D01*
G01*
X206225000Y-98050000D01*
G75*
G02*
X206375000Y-98200000I0J-150000D01*
G01*
G37*
G36*
G01*
X206375000Y-99470000D02*
X206375000Y-99770000D01*
G75*
G02*
X206225000Y-99920000I-150000J0D01*
G01*
X204475000Y-99920000D01*
G75*
G02*
X204325000Y-99770000I0J150000D01*
G01*
X204325000Y-99470000D01*
G75*
G02*
X204475000Y-99320000I150000J0D01*
G01*
X206225000Y-99320000D01*
G75*
G02*
X206375000Y-99470000I0J-150000D01*
G01*
G37*
G36*
G01*
X206375000Y-100740000D02*
X206375000Y-101040000D01*
G75*
G02*
X206225000Y-101190000I-150000J0D01*
G01*
X204475000Y-101190000D01*
G75*
G02*
X204325000Y-101040000I0J150000D01*
G01*
X204325000Y-100740000D01*
G75*
G02*
X204475000Y-100590000I150000J0D01*
G01*
X206225000Y-100590000D01*
G75*
G02*
X206375000Y-100740000I0J-150000D01*
G01*
G37*
G36*
G01*
X206375000Y-102010000D02*
X206375000Y-102310000D01*
G75*
G02*
X206225000Y-102460000I-150000J0D01*
G01*
X204475000Y-102460000D01*
G75*
G02*
X204325000Y-102310000I0J150000D01*
G01*
X204325000Y-102010000D01*
G75*
G02*
X204475000Y-101860000I150000J0D01*
G01*
X206225000Y-101860000D01*
G75*
G02*
X206375000Y-102010000I0J-150000D01*
G01*
G37*
G36*
G01*
X206375000Y-103280000D02*
X206375000Y-103580000D01*
G75*
G02*
X206225000Y-103730000I-150000J0D01*
G01*
X204475000Y-103730000D01*
G75*
G02*
X204325000Y-103580000I0J150000D01*
G01*
X204325000Y-103280000D01*
G75*
G02*
X204475000Y-103130000I150000J0D01*
G01*
X206225000Y-103130000D01*
G75*
G02*
X206375000Y-103280000I0J-150000D01*
G01*
G37*
G04 #@! TD*
G04 #@! TO.C,PCF8574*
G36*
G01*
X190875000Y-103280000D02*
X190875000Y-103580000D01*
G75*
G02*
X190725000Y-103730000I-150000J0D01*
G01*
X188975000Y-103730000D01*
G75*
G02*
X188825000Y-103580000I0J150000D01*
G01*
X188825000Y-103280000D01*
G75*
G02*
X188975000Y-103130000I150000J0D01*
G01*
X190725000Y-103130000D01*
G75*
G02*
X190875000Y-103280000I0J-150000D01*
G01*
G37*
G36*
G01*
X190875000Y-102010000D02*
X190875000Y-102310000D01*
G75*
G02*
X190725000Y-102460000I-150000J0D01*
G01*
X188975000Y-102460000D01*
G75*
G02*
X188825000Y-102310000I0J150000D01*
G01*
X188825000Y-102010000D01*
G75*
G02*
X188975000Y-101860000I150000J0D01*
G01*
X190725000Y-101860000D01*
G75*
G02*
X190875000Y-102010000I0J-150000D01*
G01*
G37*
G36*
G01*
X190875000Y-100740000D02*
X190875000Y-101040000D01*
G75*
G02*
X190725000Y-101190000I-150000J0D01*
G01*
X188975000Y-101190000D01*
G75*
G02*
X188825000Y-101040000I0J150000D01*
G01*
X188825000Y-100740000D01*
G75*
G02*
X188975000Y-100590000I150000J0D01*
G01*
X190725000Y-100590000D01*
G75*
G02*
X190875000Y-100740000I0J-150000D01*
G01*
G37*
G36*
G01*
X190875000Y-99470000D02*
X190875000Y-99770000D01*
G75*
G02*
X190725000Y-99920000I-150000J0D01*
G01*
X188975000Y-99920000D01*
G75*
G02*
X188825000Y-99770000I0J150000D01*
G01*
X188825000Y-99470000D01*
G75*
G02*
X188975000Y-99320000I150000J0D01*
G01*
X190725000Y-99320000D01*
G75*
G02*
X190875000Y-99470000I0J-150000D01*
G01*
G37*
G36*
G01*
X190875000Y-98200000D02*
X190875000Y-98500000D01*
G75*
G02*
X190725000Y-98650000I-150000J0D01*
G01*
X188975000Y-98650000D01*
G75*
G02*
X188825000Y-98500000I0J150000D01*
G01*
X188825000Y-98200000D01*
G75*
G02*
X188975000Y-98050000I150000J0D01*
G01*
X190725000Y-98050000D01*
G75*
G02*
X190875000Y-98200000I0J-150000D01*
G01*
G37*
G36*
G01*
X190875000Y-96930000D02*
X190875000Y-97230000D01*
G75*
G02*
X190725000Y-97380000I-150000J0D01*
G01*
X188975000Y-97380000D01*
G75*
G02*
X188825000Y-97230000I0J150000D01*
G01*
X188825000Y-96930000D01*
G75*
G02*
X188975000Y-96780000I150000J0D01*
G01*
X190725000Y-96780000D01*
G75*
G02*
X190875000Y-96930000I0J-150000D01*
G01*
G37*
G36*
G01*
X190875000Y-95660000D02*
X190875000Y-95960000D01*
G75*
G02*
X190725000Y-96110000I-150000J0D01*
G01*
X188975000Y-96110000D01*
G75*
G02*
X188825000Y-95960000I0J150000D01*
G01*
X188825000Y-95660000D01*
G75*
G02*
X188975000Y-95510000I150000J0D01*
G01*
X190725000Y-95510000D01*
G75*
G02*
X190875000Y-95660000I0J-150000D01*
G01*
G37*
G36*
G01*
X190875000Y-94390000D02*
X190875000Y-94690000D01*
G75*
G02*
X190725000Y-94840000I-150000J0D01*
G01*
X188975000Y-94840000D01*
G75*
G02*
X188825000Y-94690000I0J150000D01*
G01*
X188825000Y-94390000D01*
G75*
G02*
X188975000Y-94240000I150000J0D01*
G01*
X190725000Y-94240000D01*
G75*
G02*
X190875000Y-94390000I0J-150000D01*
G01*
G37*
G36*
G01*
X200175000Y-94390000D02*
X200175000Y-94690000D01*
G75*
G02*
X200025000Y-94840000I-150000J0D01*
G01*
X198275000Y-94840000D01*
G75*
G02*
X198125000Y-94690000I0J150000D01*
G01*
X198125000Y-94390000D01*
G75*
G02*
X198275000Y-94240000I150000J0D01*
G01*
X200025000Y-94240000D01*
G75*
G02*
X200175000Y-94390000I0J-150000D01*
G01*
G37*
G36*
G01*
X200175000Y-95660000D02*
X200175000Y-95960000D01*
G75*
G02*
X200025000Y-96110000I-150000J0D01*
G01*
X198275000Y-96110000D01*
G75*
G02*
X198125000Y-95960000I0J150000D01*
G01*
X198125000Y-95660000D01*
G75*
G02*
X198275000Y-95510000I150000J0D01*
G01*
X200025000Y-95510000D01*
G75*
G02*
X200175000Y-95660000I0J-150000D01*
G01*
G37*
G36*
G01*
X200175000Y-96930000D02*
X200175000Y-97230000D01*
G75*
G02*
X200025000Y-97380000I-150000J0D01*
G01*
X198275000Y-97380000D01*
G75*
G02*
X198125000Y-97230000I0J150000D01*
G01*
X198125000Y-96930000D01*
G75*
G02*
X198275000Y-96780000I150000J0D01*
G01*
X200025000Y-96780000D01*
G75*
G02*
X200175000Y-96930000I0J-150000D01*
G01*
G37*
G36*
G01*
X200175000Y-98200000D02*
X200175000Y-98500000D01*
G75*
G02*
X200025000Y-98650000I-150000J0D01*
G01*
X198275000Y-98650000D01*
G75*
G02*
X198125000Y-98500000I0J150000D01*
G01*
X198125000Y-98200000D01*
G75*
G02*
X198275000Y-98050000I150000J0D01*
G01*
X200025000Y-98050000D01*
G75*
G02*
X200175000Y-98200000I0J-150000D01*
G01*
G37*
G36*
G01*
X200175000Y-99470000D02*
X200175000Y-99770000D01*
G75*
G02*
X200025000Y-99920000I-150000J0D01*
G01*
X198275000Y-99920000D01*
G75*
G02*
X198125000Y-99770000I0J150000D01*
G01*
X198125000Y-99470000D01*
G75*
G02*
X198275000Y-99320000I150000J0D01*
G01*
X200025000Y-99320000D01*
G75*
G02*
X200175000Y-99470000I0J-150000D01*
G01*
G37*
G36*
G01*
X200175000Y-100740000D02*
X200175000Y-101040000D01*
G75*
G02*
X200025000Y-101190000I-150000J0D01*
G01*
X198275000Y-101190000D01*
G75*
G02*
X198125000Y-101040000I0J150000D01*
G01*
X198125000Y-100740000D01*
G75*
G02*
X198275000Y-100590000I150000J0D01*
G01*
X200025000Y-100590000D01*
G75*
G02*
X200175000Y-100740000I0J-150000D01*
G01*
G37*
G36*
G01*
X200175000Y-102010000D02*
X200175000Y-102310000D01*
G75*
G02*
X200025000Y-102460000I-150000J0D01*
G01*
X198275000Y-102460000D01*
G75*
G02*
X198125000Y-102310000I0J150000D01*
G01*
X198125000Y-102010000D01*
G75*
G02*
X198275000Y-101860000I150000J0D01*
G01*
X200025000Y-101860000D01*
G75*
G02*
X200175000Y-102010000I0J-150000D01*
G01*
G37*
G36*
G01*
X200175000Y-103280000D02*
X200175000Y-103580000D01*
G75*
G02*
X200025000Y-103730000I-150000J0D01*
G01*
X198275000Y-103730000D01*
G75*
G02*
X198125000Y-103580000I0J150000D01*
G01*
X198125000Y-103280000D01*
G75*
G02*
X198275000Y-103130000I150000J0D01*
G01*
X200025000Y-103130000D01*
G75*
G02*
X200175000Y-103280000I0J-150000D01*
G01*
G37*
G04 #@! TD*
D21*
G04 #@! TO.C,I2C*
X220000000Y-89000000D03*
D20*
X220000000Y-91000000D03*
X220000000Y-93000000D03*
X220000000Y-95000000D03*
G04 #@! TD*
G04 #@! TO.C,MCP23017*
G36*
G01*
X193770000Y-89035000D02*
X193470000Y-89035000D01*
G75*
G02*
X193320000Y-88885000I0J150000D01*
G01*
X193320000Y-87135000D01*
G75*
G02*
X193470000Y-86985000I150000J0D01*
G01*
X193770000Y-86985000D01*
G75*
G02*
X193920000Y-87135000I0J-150000D01*
G01*
X193920000Y-88885000D01*
G75*
G02*
X193770000Y-89035000I-150000J0D01*
G01*
G37*
G36*
G01*
X195040000Y-89035000D02*
X194740000Y-89035000D01*
G75*
G02*
X194590000Y-88885000I0J150000D01*
G01*
X194590000Y-87135000D01*
G75*
G02*
X194740000Y-86985000I150000J0D01*
G01*
X195040000Y-86985000D01*
G75*
G02*
X195190000Y-87135000I0J-150000D01*
G01*
X195190000Y-88885000D01*
G75*
G02*
X195040000Y-89035000I-150000J0D01*
G01*
G37*
G36*
G01*
X196310000Y-89035000D02*
X196010000Y-89035000D01*
G75*
G02*
X195860000Y-88885000I0J150000D01*
G01*
X195860000Y-87135000D01*
G75*
G02*
X196010000Y-86985000I150000J0D01*
G01*
X196310000Y-86985000D01*
G75*
G02*
X196460000Y-87135000I0J-150000D01*
G01*
X196460000Y-88885000D01*
G75*
G02*
X196310000Y-89035000I-150000J0D01*
G01*
G37*
G36*
G01*
X197580000Y-89035000D02*
X197280000Y-89035000D01*
G75*
G02*
X197130000Y-88885000I0J150000D01*
G01*
X197130000Y-87135000D01*
G75*
G02*
X197280000Y-86985000I150000J0D01*
G01*
X197580000Y-86985000D01*
G75*
G02*
X197730000Y-87135000I0J-150000D01*
G01*
X197730000Y-88885000D01*
G75*
G02*
X197580000Y-89035000I-150000J0D01*
G01*
G37*
G36*
G01*
X198850000Y-89035000D02*
X198550000Y-89035000D01*
G75*
G02*
X198400000Y-88885000I0J150000D01*
G01*
X198400000Y-87135000D01*
G75*
G02*
X198550000Y-86985000I150000J0D01*
G01*
X198850000Y-86985000D01*
G75*
G02*
X199000000Y-87135000I0J-150000D01*
G01*
X199000000Y-88885000D01*
G75*
G02*
X198850000Y-89035000I-150000J0D01*
G01*
G37*
G36*
G01*
X200120000Y-89035000D02*
X199820000Y-89035000D01*
G75*
G02*
X199670000Y-88885000I0J150000D01*
G01*
X199670000Y-87135000D01*
G75*
G02*
X199820000Y-86985000I150000J0D01*
G01*
X200120000Y-86985000D01*
G75*
G02*
X200270000Y-87135000I0J-150000D01*
G01*
X200270000Y-88885000D01*
G75*
G02*
X200120000Y-89035000I-150000J0D01*
G01*
G37*
G36*
G01*
X201390000Y-89035000D02*
X201090000Y-89035000D01*
G75*
G02*
X200940000Y-88885000I0J150000D01*
G01*
X200940000Y-87135000D01*
G75*
G02*
X201090000Y-86985000I150000J0D01*
G01*
X201390000Y-86985000D01*
G75*
G02*
X201540000Y-87135000I0J-150000D01*
G01*
X201540000Y-88885000D01*
G75*
G02*
X201390000Y-89035000I-150000J0D01*
G01*
G37*
G36*
G01*
X202660000Y-89035000D02*
X202360000Y-89035000D01*
G75*
G02*
X202210000Y-88885000I0J150000D01*
G01*
X202210000Y-87135000D01*
G75*
G02*
X202360000Y-86985000I150000J0D01*
G01*
X202660000Y-86985000D01*
G75*
G02*
X202810000Y-87135000I0J-150000D01*
G01*
X202810000Y-88885000D01*
G75*
G02*
X202660000Y-89035000I-150000J0D01*
G01*
G37*
G36*
G01*
X203930000Y-89035000D02*
X203630000Y-89035000D01*
G75*
G02*
X203480000Y-88885000I0J150000D01*
G01*
X203480000Y-87135000D01*
G75*
G02*
X203630000Y-86985000I150000J0D01*
G01*
X203930000Y-86985000D01*
G75*
G02*
X204080000Y-87135000I0J-150000D01*
G01*
X204080000Y-88885000D01*
G75*
G02*
X203930000Y-89035000I-150000J0D01*
G01*
G37*
G36*
G01*
X205200000Y-89035000D02*
X204900000Y-89035000D01*
G75*
G02*
X204750000Y-88885000I0J150000D01*
G01*
X204750000Y-87135000D01*
G75*
G02*
X204900000Y-86985000I150000J0D01*
G01*
X205200000Y-86985000D01*
G75*
G02*
X205350000Y-87135000I0J-150000D01*
G01*
X205350000Y-88885000D01*
G75*
G02*
X205200000Y-89035000I-150000J0D01*
G01*
G37*
G36*
G01*
X206470000Y-89035000D02*
X206170000Y-89035000D01*
G75*
G02*
X206020000Y-88885000I0J150000D01*
G01*
X206020000Y-87135000D01*
G75*
G02*
X206170000Y-86985000I150000J0D01*
G01*
X206470000Y-86985000D01*
G75*
G02*
X206620000Y-87135000I0J-150000D01*
G01*
X206620000Y-88885000D01*
G75*
G02*
X206470000Y-89035000I-150000J0D01*
G01*
G37*
G36*
G01*
X207740000Y-89035000D02*
X207440000Y-89035000D01*
G75*
G02*
X207290000Y-88885000I0J150000D01*
G01*
X207290000Y-87135000D01*
G75*
G02*
X207440000Y-86985000I150000J0D01*
G01*
X207740000Y-86985000D01*
G75*
G02*
X207890000Y-87135000I0J-150000D01*
G01*
X207890000Y-88885000D01*
G75*
G02*
X207740000Y-89035000I-150000J0D01*
G01*
G37*
G36*
G01*
X209010000Y-89035000D02*
X208710000Y-89035000D01*
G75*
G02*
X208560000Y-88885000I0J150000D01*
G01*
X208560000Y-87135000D01*
G75*
G02*
X208710000Y-86985000I150000J0D01*
G01*
X209010000Y-86985000D01*
G75*
G02*
X209160000Y-87135000I0J-150000D01*
G01*
X209160000Y-88885000D01*
G75*
G02*
X209010000Y-89035000I-150000J0D01*
G01*
G37*
G36*
G01*
X210280000Y-89035000D02*
X209980000Y-89035000D01*
G75*
G02*
X209830000Y-88885000I0J150000D01*
G01*
X209830000Y-87135000D01*
G75*
G02*
X209980000Y-86985000I150000J0D01*
G01*
X210280000Y-86985000D01*
G75*
G02*
X210430000Y-87135000I0J-150000D01*
G01*
X210430000Y-88885000D01*
G75*
G02*
X210280000Y-89035000I-150000J0D01*
G01*
G37*
G36*
G01*
X210280000Y-79735000D02*
X209980000Y-79735000D01*
G75*
G02*
X209830000Y-79585000I0J150000D01*
G01*
X209830000Y-77835000D01*
G75*
G02*
X209980000Y-77685000I150000J0D01*
G01*
X210280000Y-77685000D01*
G75*
G02*
X210430000Y-77835000I0J-150000D01*
G01*
X210430000Y-79585000D01*
G75*
G02*
X210280000Y-79735000I-150000J0D01*
G01*
G37*
G36*
G01*
X209010000Y-79735000D02*
X208710000Y-79735000D01*
G75*
G02*
X208560000Y-79585000I0J150000D01*
G01*
X208560000Y-77835000D01*
G75*
G02*
X208710000Y-77685000I150000J0D01*
G01*
X209010000Y-77685000D01*
G75*
G02*
X209160000Y-77835000I0J-150000D01*
G01*
X209160000Y-79585000D01*
G75*
G02*
X209010000Y-79735000I-150000J0D01*
G01*
G37*
G36*
G01*
X207740000Y-79735000D02*
X207440000Y-79735000D01*
G75*
G02*
X207290000Y-79585000I0J150000D01*
G01*
X207290000Y-77835000D01*
G75*
G02*
X207440000Y-77685000I150000J0D01*
G01*
X207740000Y-77685000D01*
G75*
G02*
X207890000Y-77835000I0J-150000D01*
G01*
X207890000Y-79585000D01*
G75*
G02*
X207740000Y-79735000I-150000J0D01*
G01*
G37*
G36*
G01*
X206470000Y-79735000D02*
X206170000Y-79735000D01*
G75*
G02*
X206020000Y-79585000I0J150000D01*
G01*
X206020000Y-77835000D01*
G75*
G02*
X206170000Y-77685000I150000J0D01*
G01*
X206470000Y-77685000D01*
G75*
G02*
X206620000Y-77835000I0J-150000D01*
G01*
X206620000Y-79585000D01*
G75*
G02*
X206470000Y-79735000I-150000J0D01*
G01*
G37*
G36*
G01*
X205200000Y-79735000D02*
X204900000Y-79735000D01*
G75*
G02*
X204750000Y-79585000I0J150000D01*
G01*
X204750000Y-77835000D01*
G75*
G02*
X204900000Y-77685000I150000J0D01*
G01*
X205200000Y-77685000D01*
G75*
G02*
X205350000Y-77835000I0J-150000D01*
G01*
X205350000Y-79585000D01*
G75*
G02*
X205200000Y-79735000I-150000J0D01*
G01*
G37*
G36*
G01*
X203930000Y-79735000D02*
X203630000Y-79735000D01*
G75*
G02*
X203480000Y-79585000I0J150000D01*
G01*
X203480000Y-77835000D01*
G75*
G02*
X203630000Y-77685000I150000J0D01*
G01*
X203930000Y-77685000D01*
G75*
G02*
X204080000Y-77835000I0J-150000D01*
G01*
X204080000Y-79585000D01*
G75*
G02*
X203930000Y-79735000I-150000J0D01*
G01*
G37*
G36*
G01*
X202660000Y-79735000D02*
X202360000Y-79735000D01*
G75*
G02*
X202210000Y-79585000I0J150000D01*
G01*
X202210000Y-77835000D01*
G75*
G02*
X202360000Y-77685000I150000J0D01*
G01*
X202660000Y-77685000D01*
G75*
G02*
X202810000Y-77835000I0J-150000D01*
G01*
X202810000Y-79585000D01*
G75*
G02*
X202660000Y-79735000I-150000J0D01*
G01*
G37*
G36*
G01*
X201390000Y-79735000D02*
X201090000Y-79735000D01*
G75*
G02*
X200940000Y-79585000I0J150000D01*
G01*
X200940000Y-77835000D01*
G75*
G02*
X201090000Y-77685000I150000J0D01*
G01*
X201390000Y-77685000D01*
G75*
G02*
X201540000Y-77835000I0J-150000D01*
G01*
X201540000Y-79585000D01*
G75*
G02*
X201390000Y-79735000I-150000J0D01*
G01*
G37*
G36*
G01*
X200120000Y-79735000D02*
X199820000Y-79735000D01*
G75*
G02*
X199670000Y-79585000I0J150000D01*
G01*
X199670000Y-77835000D01*
G75*
G02*
X199820000Y-77685000I150000J0D01*
G01*
X200120000Y-77685000D01*
G75*
G02*
X200270000Y-77835000I0J-150000D01*
G01*
X200270000Y-79585000D01*
G75*
G02*
X200120000Y-79735000I-150000J0D01*
G01*
G37*
G36*
G01*
X198850000Y-79735000D02*
X198550000Y-79735000D01*
G75*
G02*
X198400000Y-79585000I0J150000D01*
G01*
X198400000Y-77835000D01*
G75*
G02*
X198550000Y-77685000I150000J0D01*
G01*
X198850000Y-77685000D01*
G75*
G02*
X199000000Y-77835000I0J-150000D01*
G01*
X199000000Y-79585000D01*
G75*
G02*
X198850000Y-79735000I-150000J0D01*
G01*
G37*
G36*
G01*
X197580000Y-79735000D02*
X197280000Y-79735000D01*
G75*
G02*
X197130000Y-79585000I0J150000D01*
G01*
X197130000Y-77835000D01*
G75*
G02*
X197280000Y-77685000I150000J0D01*
G01*
X197580000Y-77685000D01*
G75*
G02*
X197730000Y-77835000I0J-150000D01*
G01*
X197730000Y-79585000D01*
G75*
G02*
X197580000Y-79735000I-150000J0D01*
G01*
G37*
G36*
G01*
X196310000Y-79735000D02*
X196010000Y-79735000D01*
G75*
G02*
X195860000Y-79585000I0J150000D01*
G01*
X195860000Y-77835000D01*
G75*
G02*
X196010000Y-77685000I150000J0D01*
G01*
X196310000Y-77685000D01*
G75*
G02*
X196460000Y-77835000I0J-150000D01*
G01*
X196460000Y-79585000D01*
G75*
G02*
X196310000Y-79735000I-150000J0D01*
G01*
G37*
G36*
G01*
X195040000Y-79735000D02*
X194740000Y-79735000D01*
G75*
G02*
X194590000Y-79585000I0J150000D01*
G01*
X194590000Y-77835000D01*
G75*
G02*
X194740000Y-77685000I150000J0D01*
G01*
X195040000Y-77685000D01*
G75*
G02*
X195190000Y-77835000I0J-150000D01*
G01*
X195190000Y-79585000D01*
G75*
G02*
X195040000Y-79735000I-150000J0D01*
G01*
G37*
G36*
G01*
X193770000Y-79735000D02*
X193470000Y-79735000D01*
G75*
G02*
X193320000Y-79585000I0J150000D01*
G01*
X193320000Y-77835000D01*
G75*
G02*
X193470000Y-77685000I150000J0D01*
G01*
X193770000Y-77685000D01*
G75*
G02*
X193920000Y-77835000I0J-150000D01*
G01*
X193920000Y-79585000D01*
G75*
G02*
X193770000Y-79735000I-150000J0D01*
G01*
G37*
G04 #@! TD*
M02*
