G04 #@! TF.GenerationSoftware,KiCad,Pcbnew,(5.1.8)-1*
G04 #@! TF.CreationDate,2022-08-28T16:31:03+09:00*
G04 #@! TF.ProjectId,windsynth,77696e64-7379-46e7-9468-2e6b69636164,rev?*
G04 #@! TF.SameCoordinates,Original*
G04 #@! TF.FileFunction,Legend,Bot*
G04 #@! TF.FilePolarity,Positive*
%FSLAX46Y46*%
G04 Gerber Fmt 4.6, Leading zero omitted, Abs format (unit mm)*
G04 Created by KiCad (PCBNEW (5.1.8)-1) date 2022-08-28 16:31:03*
%MOMM*%
%LPD*%
G01*
G04 APERTURE LIST*
%ADD10C,0.120000*%
%ADD11C,0.150000*%
%ADD12C,0.010000*%
G04 APERTURE END LIST*
D10*
X152300000Y-105800000D02*
G75*
G02*
X153900000Y-105800000I800000J0D01*
G01*
X156900000Y-98200000D02*
X149300000Y-98200000D01*
X156900000Y-105800000D02*
X156900000Y-98200000D01*
X153900000Y-105800000D02*
X156900000Y-105800000D01*
X149300000Y-105800000D02*
X152300000Y-105800000D01*
X149300000Y-98200000D02*
X149300000Y-105800000D01*
D11*
X220119047Y-112714285D02*
X220880952Y-112428571D01*
X220119047Y-112142857D01*
X201119047Y-112714285D02*
X201880952Y-112428571D01*
X201119047Y-112142857D01*
X182119047Y-112714285D02*
X182880952Y-112428571D01*
X182119047Y-112142857D01*
X163119047Y-112714285D02*
X163880952Y-112428571D01*
X163119047Y-112142857D01*
X144119047Y-112714285D02*
X144880952Y-112428571D01*
X144119047Y-112142857D01*
X232380952Y-71285714D02*
X231619047Y-71571428D01*
X232380952Y-71857142D01*
X213880952Y-71285714D02*
X213119047Y-71571428D01*
X213880952Y-71857142D01*
X194380952Y-71285714D02*
X193619047Y-71571428D01*
X194380952Y-71857142D01*
X175880952Y-71285714D02*
X175119047Y-71571428D01*
X175880952Y-71857142D01*
X156380952Y-71285714D02*
X155619047Y-71571428D01*
X156380952Y-71857142D01*
D10*
X215294000Y-99532000D02*
X190294000Y-99532000D01*
X215294000Y-84532000D02*
X215294000Y-99532000D01*
X190294000Y-84532000D02*
X215294000Y-84532000D01*
X190294000Y-99532000D02*
X190294000Y-84532000D01*
X185794000Y-103532000D02*
X185794000Y-80532000D01*
X232695000Y-103532000D02*
X185695000Y-103532000D01*
X232695000Y-80532000D02*
X232695000Y-103532000D01*
X185695000Y-80532000D02*
X232695000Y-80532000D01*
D11*
X227712023Y-79666666D02*
X227235833Y-79666666D01*
X227807261Y-79952380D02*
X227473928Y-78952380D01*
X227140595Y-79952380D01*
X226473928Y-79428571D02*
X226807261Y-79428571D01*
X226807261Y-79952380D02*
X226807261Y-78952380D01*
X226331071Y-78952380D01*
X225950119Y-78952380D02*
X225950119Y-79761904D01*
X225902500Y-79857142D01*
X225854880Y-79904761D01*
X225759642Y-79952380D01*
X225569166Y-79952380D01*
X225473928Y-79904761D01*
X225426309Y-79857142D01*
X225378690Y-79761904D01*
X225378690Y-78952380D01*
X224902500Y-78952380D02*
X224902500Y-79761904D01*
X224854880Y-79857142D01*
X224807261Y-79904761D01*
X224712023Y-79952380D01*
X224521547Y-79952380D01*
X224426309Y-79904761D01*
X224378690Y-79857142D01*
X224331071Y-79761904D01*
X224331071Y-78952380D01*
X223854880Y-79428571D02*
X223521547Y-79428571D01*
X223378690Y-79952380D02*
X223854880Y-79952380D01*
X223854880Y-78952380D01*
X223378690Y-78952380D01*
X221854880Y-79428571D02*
X221712023Y-79476190D01*
X221664404Y-79523809D01*
X221616785Y-79619047D01*
X221616785Y-79761904D01*
X221664404Y-79857142D01*
X221712023Y-79904761D01*
X221807261Y-79952380D01*
X222188214Y-79952380D01*
X222188214Y-78952380D01*
X221854880Y-78952380D01*
X221759642Y-79000000D01*
X221712023Y-79047619D01*
X221664404Y-79142857D01*
X221664404Y-79238095D01*
X221712023Y-79333333D01*
X221759642Y-79380952D01*
X221854880Y-79428571D01*
X222188214Y-79428571D01*
X220997738Y-78952380D02*
X220807261Y-78952380D01*
X220712023Y-79000000D01*
X220616785Y-79095238D01*
X220569166Y-79285714D01*
X220569166Y-79619047D01*
X220616785Y-79809523D01*
X220712023Y-79904761D01*
X220807261Y-79952380D01*
X220997738Y-79952380D01*
X221092976Y-79904761D01*
X221188214Y-79809523D01*
X221235833Y-79619047D01*
X221235833Y-79285714D01*
X221188214Y-79095238D01*
X221092976Y-79000000D01*
X220997738Y-78952380D01*
X220188214Y-79666666D02*
X219712023Y-79666666D01*
X220283452Y-79952380D02*
X219950119Y-78952380D01*
X219616785Y-79952380D01*
X218712023Y-79952380D02*
X219045357Y-79476190D01*
X219283452Y-79952380D02*
X219283452Y-78952380D01*
X218902500Y-78952380D01*
X218807261Y-79000000D01*
X218759642Y-79047619D01*
X218712023Y-79142857D01*
X218712023Y-79285714D01*
X218759642Y-79380952D01*
X218807261Y-79428571D01*
X218902500Y-79476190D01*
X219283452Y-79476190D01*
X218283452Y-79952380D02*
X218283452Y-78952380D01*
X218045357Y-78952380D01*
X217902500Y-79000000D01*
X217807261Y-79095238D01*
X217759642Y-79190476D01*
X217712023Y-79380952D01*
X217712023Y-79523809D01*
X217759642Y-79714285D01*
X217807261Y-79809523D01*
X217902500Y-79904761D01*
X218045357Y-79952380D01*
X218283452Y-79952380D01*
X216664404Y-78952380D02*
X216331071Y-79952380D01*
X215997738Y-78952380D01*
X215283452Y-79904761D02*
X215378690Y-79952380D01*
X215569166Y-79952380D01*
X215664404Y-79904761D01*
X215712023Y-79809523D01*
X215712023Y-79428571D01*
X215664404Y-79333333D01*
X215569166Y-79285714D01*
X215378690Y-79285714D01*
X215283452Y-79333333D01*
X215235833Y-79428571D01*
X215235833Y-79523809D01*
X215712023Y-79619047D01*
X214807261Y-79952380D02*
X214807261Y-79285714D01*
X214807261Y-79476190D02*
X214759642Y-79380952D01*
X214712023Y-79333333D01*
X214616785Y-79285714D01*
X214521547Y-79285714D01*
X212902500Y-79952380D02*
X213473928Y-79952380D01*
X213188214Y-79952380D02*
X213188214Y-78952380D01*
X213283452Y-79095238D01*
X213378690Y-79190476D01*
X213473928Y-79238095D01*
X212473928Y-79857142D02*
X212426309Y-79904761D01*
X212473928Y-79952380D01*
X212521547Y-79904761D01*
X212473928Y-79857142D01*
X212473928Y-79952380D01*
X211950119Y-79952380D02*
X211759642Y-79952380D01*
X211664404Y-79904761D01*
X211616785Y-79857142D01*
X211521547Y-79714285D01*
X211473928Y-79523809D01*
X211473928Y-79142857D01*
X211521547Y-79047619D01*
X211569166Y-79000000D01*
X211664404Y-78952380D01*
X211854880Y-78952380D01*
X211950119Y-79000000D01*
X211997738Y-79047619D01*
X212045357Y-79142857D01*
X212045357Y-79380952D01*
X211997738Y-79476190D01*
X211950119Y-79523809D01*
X211854880Y-79571428D01*
X211664404Y-79571428D01*
X211569166Y-79523809D01*
X211521547Y-79476190D01*
X211473928Y-79380952D01*
X211045357Y-79952380D02*
X211045357Y-78952380D01*
X211045357Y-79333333D02*
X210950119Y-79285714D01*
X210759642Y-79285714D01*
X210664404Y-79333333D01*
X210616785Y-79380952D01*
X210569166Y-79476190D01*
X210569166Y-79761904D01*
X210616785Y-79857142D01*
X210664404Y-79904761D01*
X210759642Y-79952380D01*
X210950119Y-79952380D01*
X211045357Y-79904761D01*
X209426309Y-79047619D02*
X209378690Y-79000000D01*
X209283452Y-78952380D01*
X209045357Y-78952380D01*
X208950119Y-79000000D01*
X208902500Y-79047619D01*
X208854880Y-79142857D01*
X208854880Y-79238095D01*
X208902500Y-79380952D01*
X209473928Y-79952380D01*
X208854880Y-79952380D01*
X208235833Y-78952380D02*
X208140595Y-78952380D01*
X208045357Y-79000000D01*
X207997738Y-79047619D01*
X207950119Y-79142857D01*
X207902500Y-79333333D01*
X207902500Y-79571428D01*
X207950119Y-79761904D01*
X207997738Y-79857142D01*
X208045357Y-79904761D01*
X208140595Y-79952380D01*
X208235833Y-79952380D01*
X208331071Y-79904761D01*
X208378690Y-79857142D01*
X208426309Y-79761904D01*
X208473928Y-79571428D01*
X208473928Y-79333333D01*
X208426309Y-79142857D01*
X208378690Y-79047619D01*
X208331071Y-79000000D01*
X208235833Y-78952380D01*
X207521547Y-79047619D02*
X207473928Y-79000000D01*
X207378690Y-78952380D01*
X207140595Y-78952380D01*
X207045357Y-79000000D01*
X206997738Y-79047619D01*
X206950119Y-79142857D01*
X206950119Y-79238095D01*
X206997738Y-79380952D01*
X207569166Y-79952380D01*
X206950119Y-79952380D01*
X206569166Y-79047619D02*
X206521547Y-79000000D01*
X206426309Y-78952380D01*
X206188214Y-78952380D01*
X206092976Y-79000000D01*
X206045357Y-79047619D01*
X205997738Y-79142857D01*
X205997738Y-79238095D01*
X206045357Y-79380952D01*
X206616785Y-79952380D01*
X205997738Y-79952380D01*
X204854880Y-78904761D02*
X205712023Y-80190476D01*
X204331071Y-78952380D02*
X204235833Y-78952380D01*
X204140595Y-79000000D01*
X204092976Y-79047619D01*
X204045357Y-79142857D01*
X203997738Y-79333333D01*
X203997738Y-79571428D01*
X204045357Y-79761904D01*
X204092976Y-79857142D01*
X204140595Y-79904761D01*
X204235833Y-79952380D01*
X204331071Y-79952380D01*
X204426309Y-79904761D01*
X204473928Y-79857142D01*
X204521547Y-79761904D01*
X204569166Y-79571428D01*
X204569166Y-79333333D01*
X204521547Y-79142857D01*
X204473928Y-79047619D01*
X204426309Y-79000000D01*
X204331071Y-78952380D01*
X203426309Y-79380952D02*
X203521547Y-79333333D01*
X203569166Y-79285714D01*
X203616785Y-79190476D01*
X203616785Y-79142857D01*
X203569166Y-79047619D01*
X203521547Y-79000000D01*
X203426309Y-78952380D01*
X203235833Y-78952380D01*
X203140595Y-79000000D01*
X203092976Y-79047619D01*
X203045357Y-79142857D01*
X203045357Y-79190476D01*
X203092976Y-79285714D01*
X203140595Y-79333333D01*
X203235833Y-79380952D01*
X203426309Y-79380952D01*
X203521547Y-79428571D01*
X203569166Y-79476190D01*
X203616785Y-79571428D01*
X203616785Y-79761904D01*
X203569166Y-79857142D01*
X203521547Y-79904761D01*
X203426309Y-79952380D01*
X203235833Y-79952380D01*
X203140595Y-79904761D01*
X203092976Y-79857142D01*
X203045357Y-79761904D01*
X203045357Y-79571428D01*
X203092976Y-79476190D01*
X203140595Y-79428571D01*
X203235833Y-79380952D01*
X201902500Y-78904761D02*
X202759642Y-80190476D01*
X201616785Y-79047619D02*
X201569166Y-79000000D01*
X201473928Y-78952380D01*
X201235833Y-78952380D01*
X201140595Y-79000000D01*
X201092976Y-79047619D01*
X201045357Y-79142857D01*
X201045357Y-79238095D01*
X201092976Y-79380952D01*
X201664404Y-79952380D01*
X201045357Y-79952380D01*
X200473928Y-79380952D02*
X200569166Y-79333333D01*
X200616785Y-79285714D01*
X200664404Y-79190476D01*
X200664404Y-79142857D01*
X200616785Y-79047619D01*
X200569166Y-79000000D01*
X200473928Y-78952380D01*
X200283452Y-78952380D01*
X200188214Y-79000000D01*
X200140595Y-79047619D01*
X200092976Y-79142857D01*
X200092976Y-79190476D01*
X200140595Y-79285714D01*
X200188214Y-79333333D01*
X200283452Y-79380952D01*
X200473928Y-79380952D01*
X200569166Y-79428571D01*
X200616785Y-79476190D01*
X200664404Y-79571428D01*
X200664404Y-79761904D01*
X200616785Y-79857142D01*
X200569166Y-79904761D01*
X200473928Y-79952380D01*
X200283452Y-79952380D01*
X200188214Y-79904761D01*
X200140595Y-79857142D01*
X200092976Y-79761904D01*
X200092976Y-79571428D01*
X200140595Y-79476190D01*
X200188214Y-79428571D01*
X200283452Y-79380952D01*
X198283452Y-79476190D02*
X198331071Y-79428571D01*
X198426309Y-79380952D01*
X198521547Y-79380952D01*
X198616785Y-79428571D01*
X198664404Y-79476190D01*
X198712023Y-79571428D01*
X198712023Y-79666666D01*
X198664404Y-79761904D01*
X198616785Y-79809523D01*
X198521547Y-79857142D01*
X198426309Y-79857142D01*
X198331071Y-79809523D01*
X198283452Y-79761904D01*
X198283452Y-79380952D02*
X198283452Y-79761904D01*
X198235833Y-79809523D01*
X198188214Y-79809523D01*
X198092976Y-79761904D01*
X198045357Y-79666666D01*
X198045357Y-79428571D01*
X198140595Y-79285714D01*
X198283452Y-79190476D01*
X198473928Y-79142857D01*
X198664404Y-79190476D01*
X198807261Y-79285714D01*
X198902500Y-79428571D01*
X198950119Y-79619047D01*
X198902500Y-79809523D01*
X198807261Y-79952380D01*
X198664404Y-80047619D01*
X198473928Y-80095238D01*
X198283452Y-80047619D01*
X198140595Y-79952380D01*
X197426309Y-78952380D02*
X197235833Y-78952380D01*
X197140595Y-79000000D01*
X197045357Y-79095238D01*
X196997738Y-79285714D01*
X196997738Y-79619047D01*
X197045357Y-79809523D01*
X197140595Y-79904761D01*
X197235833Y-79952380D01*
X197426309Y-79952380D01*
X197521547Y-79904761D01*
X197616785Y-79809523D01*
X197664404Y-79619047D01*
X197664404Y-79285714D01*
X197616785Y-79095238D01*
X197521547Y-79000000D01*
X197426309Y-78952380D01*
X196712023Y-79285714D02*
X196331071Y-79285714D01*
X196569166Y-78952380D02*
X196569166Y-79809523D01*
X196521547Y-79904761D01*
X196426309Y-79952380D01*
X196331071Y-79952380D01*
X195854880Y-79952380D02*
X195950119Y-79904761D01*
X195997738Y-79857142D01*
X196045357Y-79761904D01*
X196045357Y-79476190D01*
X195997738Y-79380952D01*
X195950119Y-79333333D01*
X195854880Y-79285714D01*
X195712023Y-79285714D01*
X195616785Y-79333333D01*
X195569166Y-79380952D01*
X195521547Y-79476190D01*
X195521547Y-79761904D01*
X195569166Y-79857142D01*
X195616785Y-79904761D01*
X195712023Y-79952380D01*
X195854880Y-79952380D01*
X194950119Y-79952380D02*
X195045357Y-79904761D01*
X195092976Y-79857142D01*
X195140595Y-79761904D01*
X195140595Y-79476190D01*
X195092976Y-79380952D01*
X195045357Y-79333333D01*
X194950119Y-79285714D01*
X194807261Y-79285714D01*
X194712023Y-79333333D01*
X194664404Y-79380952D01*
X194616785Y-79476190D01*
X194616785Y-79761904D01*
X194664404Y-79857142D01*
X194712023Y-79904761D01*
X194807261Y-79952380D01*
X194950119Y-79952380D01*
X194188214Y-79285714D02*
X194188214Y-79952380D01*
X194188214Y-79380952D02*
X194140595Y-79333333D01*
X194045357Y-79285714D01*
X193902500Y-79285714D01*
X193807261Y-79333333D01*
X193759642Y-79428571D01*
X193759642Y-79952380D01*
X192902500Y-79904761D02*
X192997738Y-79952380D01*
X193188214Y-79952380D01*
X193283452Y-79904761D01*
X193331071Y-79809523D01*
X193331071Y-79428571D01*
X193283452Y-79333333D01*
X193188214Y-79285714D01*
X192997738Y-79285714D01*
X192902500Y-79333333D01*
X192854880Y-79428571D01*
X192854880Y-79523809D01*
X193331071Y-79619047D01*
X192426309Y-79952380D02*
X192426309Y-78952380D01*
X192188214Y-78952380D01*
X192045357Y-79000000D01*
X191950119Y-79095238D01*
X191902500Y-79190476D01*
X191854880Y-79380952D01*
X191854880Y-79523809D01*
X191902500Y-79714285D01*
X191950119Y-79809523D01*
X192045357Y-79904761D01*
X192188214Y-79952380D01*
X192426309Y-79952380D01*
X191045357Y-79904761D02*
X191140595Y-79952380D01*
X191331071Y-79952380D01*
X191426309Y-79904761D01*
X191473928Y-79809523D01*
X191473928Y-79428571D01*
X191426309Y-79333333D01*
X191331071Y-79285714D01*
X191140595Y-79285714D01*
X191045357Y-79333333D01*
X190997738Y-79428571D01*
X190997738Y-79523809D01*
X191473928Y-79619047D01*
X190664404Y-79285714D02*
X190426309Y-79952380D01*
X190188214Y-79285714D01*
D12*
G04 #@! TO.C,G\u002A\u002A\u002A*
G36*
X203393667Y-96699000D02*
G01*
X203393667Y-92620394D01*
X203393721Y-91941095D01*
X203393949Y-91341408D01*
X203394444Y-90816279D01*
X203395300Y-90360653D01*
X203396611Y-89969475D01*
X203398473Y-89637692D01*
X203400979Y-89360249D01*
X203404223Y-89132090D01*
X203408300Y-88948162D01*
X203413305Y-88803411D01*
X203419331Y-88692781D01*
X203426473Y-88611218D01*
X203434826Y-88553668D01*
X203444482Y-88515077D01*
X203455538Y-88490388D01*
X203468087Y-88474550D01*
X203471083Y-88471727D01*
X203583000Y-88407995D01*
X203687655Y-88428304D01*
X203746939Y-88479083D01*
X203758661Y-88497145D01*
X203769009Y-88527189D01*
X203778067Y-88574236D01*
X203785919Y-88643306D01*
X203792650Y-88739421D01*
X203798346Y-88867601D01*
X203803090Y-89032866D01*
X203806968Y-89240238D01*
X203810065Y-89494736D01*
X203812465Y-89801383D01*
X203814253Y-90165198D01*
X203815514Y-90591202D01*
X203816332Y-91084416D01*
X203816793Y-91649860D01*
X203816982Y-92292556D01*
X203817000Y-92627750D01*
X203817000Y-96699000D01*
X204198000Y-96699000D01*
X204198000Y-95755919D01*
X204198879Y-95438626D01*
X204201978Y-95195133D01*
X204207985Y-95014589D01*
X204217590Y-94886142D01*
X204231482Y-94798938D01*
X204250352Y-94742127D01*
X204263900Y-94718752D01*
X204354288Y-94644629D01*
X204460705Y-94628682D01*
X204552064Y-94672121D01*
X204577510Y-94706550D01*
X204592092Y-94776749D01*
X204604143Y-94922619D01*
X204613286Y-95135193D01*
X204619140Y-95405502D01*
X204621327Y-95724579D01*
X204621333Y-95743716D01*
X204621333Y-96699000D01*
X205891333Y-96699000D01*
X205895553Y-95778250D01*
X205898112Y-95501239D01*
X205902879Y-95247635D01*
X205909397Y-95031523D01*
X205917207Y-94866990D01*
X205925849Y-94768121D01*
X205928977Y-94751666D01*
X205984047Y-94663420D01*
X206078081Y-94631940D01*
X206179134Y-94634769D01*
X206238344Y-94658410D01*
X206250523Y-94711998D01*
X206260872Y-94840001D01*
X206269008Y-95032183D01*
X206274550Y-95278305D01*
X206277114Y-95568130D01*
X206277214Y-95698887D01*
X206275720Y-96699000D01*
X207627000Y-96699000D01*
X207627000Y-95791589D01*
X207628595Y-95448525D01*
X207634272Y-95181189D01*
X207645372Y-94980686D01*
X207663233Y-94838123D01*
X207689195Y-94744604D01*
X207724596Y-94691236D01*
X207770776Y-94669124D01*
X207796333Y-94667000D01*
X207847990Y-94677592D01*
X207888243Y-94715299D01*
X207918434Y-94789015D01*
X207939900Y-94907635D01*
X207953981Y-95080052D01*
X207962017Y-95315161D01*
X207965347Y-95621857D01*
X207965667Y-95791589D01*
X207965667Y-96699000D01*
X209278000Y-96699000D01*
X209278000Y-88572951D01*
X209386372Y-88501943D01*
X209466923Y-88456295D01*
X209518467Y-88461068D01*
X209566289Y-88502466D01*
X209578049Y-88522657D01*
X209588736Y-88561168D01*
X209598402Y-88621844D01*
X209607102Y-88708530D01*
X209614890Y-88825071D01*
X209621818Y-88975312D01*
X209627942Y-89163099D01*
X209633314Y-89392276D01*
X209637989Y-89666689D01*
X209642021Y-89990182D01*
X209645463Y-90366601D01*
X209648368Y-90799791D01*
X209650792Y-91293597D01*
X209652788Y-91851864D01*
X209654409Y-92478438D01*
X209655709Y-93177163D01*
X209656743Y-93951884D01*
X209657563Y-94806448D01*
X209657744Y-95037416D01*
X209659000Y-96699000D01*
X210082333Y-96699000D01*
X210082333Y-95733799D01*
X210083859Y-95388361D01*
X210088643Y-95121377D01*
X210096992Y-94926686D01*
X210109215Y-94798127D01*
X210125620Y-94729539D01*
X210133133Y-94717799D01*
X210217325Y-94675669D01*
X210322074Y-94670398D01*
X210409345Y-94699968D01*
X210437637Y-94733962D01*
X210445091Y-94794350D01*
X210451696Y-94926282D01*
X210457119Y-95116636D01*
X210461029Y-95352288D01*
X210463094Y-95620119D01*
X210463333Y-95749962D01*
X210463333Y-96699000D01*
X212029667Y-96699000D01*
X212029667Y-87301000D01*
X211094813Y-87301000D01*
X211094813Y-88511840D01*
X211190526Y-88543773D01*
X211246489Y-88628273D01*
X211246650Y-88628975D01*
X211254857Y-88673480D01*
X211261917Y-88733038D01*
X211267890Y-88813495D01*
X211272836Y-88920700D01*
X211276815Y-89060499D01*
X211279887Y-89238742D01*
X211282113Y-89461275D01*
X211283552Y-89733945D01*
X211284264Y-90062602D01*
X211284311Y-90453092D01*
X211283751Y-90911263D01*
X211282645Y-91442963D01*
X211281225Y-91992077D01*
X211279190Y-92583202D01*
X211276509Y-93094063D01*
X211273091Y-93529064D01*
X211268845Y-93892605D01*
X211263681Y-94189089D01*
X211257508Y-94422918D01*
X211250235Y-94598494D01*
X211241773Y-94720219D01*
X211232031Y-94792494D01*
X211223125Y-94817827D01*
X211144549Y-94865230D01*
X211043894Y-94876551D01*
X210962749Y-94849473D01*
X210948190Y-94833135D01*
X210943653Y-94784357D01*
X210939434Y-94657668D01*
X210935587Y-94459826D01*
X210932165Y-94197586D01*
X210929221Y-93877704D01*
X210926808Y-93506937D01*
X210924979Y-93092041D01*
X210923788Y-92639771D01*
X210923288Y-92156885D01*
X210923484Y-91690078D01*
X210924284Y-91098971D01*
X210925366Y-90586858D01*
X210926856Y-90148067D01*
X210928880Y-89776927D01*
X210931564Y-89467767D01*
X210935034Y-89214913D01*
X210939416Y-89012694D01*
X210944837Y-88855438D01*
X210951423Y-88737473D01*
X210959298Y-88653127D01*
X210968591Y-88596729D01*
X210979426Y-88562606D01*
X210991931Y-88545087D01*
X210993426Y-88543920D01*
X211094813Y-88511840D01*
X211094813Y-87301000D01*
X210301385Y-87301000D01*
X210301385Y-88639384D01*
X210500699Y-88673981D01*
X210657212Y-88779867D01*
X210775444Y-88960183D01*
X210781299Y-88973166D01*
X210827628Y-89095609D01*
X210833574Y-89191019D01*
X210797236Y-89298757D01*
X210762105Y-89370553D01*
X210635259Y-89547147D01*
X210470860Y-89648707D01*
X210265741Y-89678438D01*
X210060439Y-89639283D01*
X209902683Y-89530210D01*
X209861814Y-89469370D01*
X209861814Y-89698025D01*
X209948062Y-89719940D01*
X210007293Y-89790848D01*
X210010956Y-89802580D01*
X210030426Y-89842182D01*
X210075048Y-89866335D01*
X210162231Y-89878726D01*
X210309386Y-89883042D01*
X210392342Y-89883333D01*
X210595736Y-89888750D01*
X210720782Y-89905523D01*
X210773138Y-89934437D01*
X210773963Y-89936250D01*
X210795727Y-89989470D01*
X210798658Y-89996287D01*
X210788784Y-90035680D01*
X210776304Y-90070370D01*
X210746742Y-90104286D01*
X210679176Y-90124878D01*
X210557499Y-90134948D01*
X210391341Y-90137333D01*
X210306804Y-90138201D01*
X210306804Y-90306666D01*
X210441074Y-90341179D01*
X210584641Y-90430886D01*
X210709365Y-90555043D01*
X210768216Y-90646842D01*
X210822825Y-90769731D01*
X210837376Y-90860199D01*
X210813295Y-90959632D01*
X210781739Y-91038802D01*
X210675973Y-91203696D01*
X210527031Y-91321962D01*
X210355396Y-91384357D01*
X210266553Y-91382970D01*
X210266553Y-91461286D01*
X210447186Y-91491299D01*
X210612267Y-91584081D01*
X210744780Y-91738720D01*
X210781299Y-91809500D01*
X210824937Y-91915504D01*
X210835899Y-91989588D01*
X210814095Y-92072775D01*
X210802000Y-92102556D01*
X210802000Y-93648394D01*
X210801352Y-93893113D01*
X210795028Y-94036764D01*
X210779403Y-94149936D01*
X210764529Y-94194915D01*
X210697499Y-94235947D01*
X210648760Y-94236883D01*
X210593329Y-94203168D01*
X210564146Y-94115976D01*
X210556149Y-94042218D01*
X210540095Y-93925725D01*
X210507112Y-93872950D01*
X210460899Y-93862666D01*
X210403187Y-93880980D01*
X210380662Y-93950443D01*
X210378667Y-94005649D01*
X210354770Y-94134688D01*
X210292699Y-94216457D01*
X210206881Y-94234025D01*
X210188706Y-94228564D01*
X210140165Y-94165210D01*
X210124667Y-94029800D01*
X210109781Y-93911967D01*
X210075456Y-93870786D01*
X210037184Y-93905785D01*
X210010459Y-94016493D01*
X210008886Y-94033324D01*
X209980226Y-94174128D01*
X209924126Y-94236546D01*
X209841707Y-94219374D01*
X209837751Y-94216934D01*
X209793352Y-94165275D01*
X209770716Y-94068686D01*
X209764833Y-93921552D01*
X209764833Y-93672166D01*
X210283417Y-93660280D01*
X210802000Y-93648394D01*
X210802000Y-92102556D01*
X210780540Y-92155398D01*
X210665662Y-92345950D01*
X210510939Y-92461833D01*
X210442002Y-92476562D01*
X210442002Y-92635494D01*
X210601084Y-92640204D01*
X210719204Y-92649913D01*
X210775436Y-92664882D01*
X210775563Y-92665007D01*
X210794895Y-92727167D01*
X210793202Y-92781424D01*
X210774207Y-92831413D01*
X210721722Y-92860164D01*
X210615351Y-92875485D01*
X210534069Y-92880629D01*
X210398040Y-92890697D01*
X210332523Y-92906216D01*
X210323364Y-92932539D01*
X210338169Y-92954712D01*
X210405676Y-93007043D01*
X210439077Y-93016000D01*
X210511583Y-93046041D01*
X210605672Y-93120752D01*
X210699070Y-93217012D01*
X210769504Y-93311704D01*
X210794700Y-93381706D01*
X210794273Y-93384690D01*
X210780078Y-93416964D01*
X210742734Y-93438600D01*
X210667988Y-93451671D01*
X210541586Y-93458248D01*
X210349275Y-93460405D01*
X210272833Y-93460500D01*
X210057326Y-93459395D01*
X209912113Y-93454639D01*
X209822839Y-93444071D01*
X209775144Y-93425530D01*
X209754670Y-93396853D01*
X209750860Y-93381920D01*
X209751943Y-93304416D01*
X209800817Y-93256780D01*
X209911023Y-93231262D01*
X210029417Y-93222523D01*
X210153626Y-93211853D01*
X210234292Y-93195158D01*
X210251667Y-93182935D01*
X210218257Y-93147456D01*
X210131011Y-93083895D01*
X210018850Y-93012233D01*
X209849118Y-92892010D01*
X209761722Y-92786589D01*
X209755835Y-92694882D01*
X209764599Y-92677712D01*
X209814591Y-92661375D01*
X209928253Y-92648722D01*
X210084660Y-92640016D01*
X210262885Y-92635519D01*
X210442002Y-92635494D01*
X210442002Y-92476562D01*
X210315343Y-92503624D01*
X210177384Y-92493284D01*
X210000481Y-92425972D01*
X209863571Y-92300137D01*
X209776833Y-92135717D01*
X209750447Y-91952654D01*
X209794594Y-91770889D01*
X209801490Y-91756976D01*
X209926689Y-91593212D01*
X210087382Y-91494953D01*
X210266553Y-91461286D01*
X210266553Y-91382970D01*
X210181550Y-91381641D01*
X210093239Y-91349472D01*
X209912485Y-91220342D01*
X209795391Y-91060918D01*
X209746328Y-90885618D01*
X209769670Y-90708856D01*
X209854542Y-90562394D01*
X210010983Y-90417870D01*
X210181909Y-90328796D01*
X210306804Y-90306666D01*
X210306804Y-90138201D01*
X210215326Y-90139142D01*
X210106234Y-90147258D01*
X210046352Y-90165712D01*
X210017967Y-90198536D01*
X210009337Y-90224277D01*
X209966814Y-90289289D01*
X209875717Y-90298361D01*
X209813098Y-90284637D01*
X209778193Y-90247827D01*
X209760892Y-90166688D01*
X209752031Y-90038511D01*
X209752551Y-89894903D01*
X209767259Y-89781870D01*
X209785337Y-89735965D01*
X209861814Y-89698025D01*
X209861814Y-89469370D01*
X209808567Y-89390102D01*
X209751408Y-89190112D01*
X209769761Y-89002112D01*
X209854493Y-88840015D01*
X209996471Y-88717734D01*
X210186561Y-88649180D01*
X210301385Y-88639384D01*
X210301385Y-87301000D01*
X208616218Y-87301000D01*
X208616218Y-88425214D01*
X208688703Y-88448057D01*
X208719047Y-88468127D01*
X208812333Y-88533467D01*
X208812333Y-91639543D01*
X208812186Y-92231937D01*
X208811666Y-92745362D01*
X208810654Y-93185517D01*
X208809029Y-93558100D01*
X208806672Y-93868808D01*
X208803464Y-94123340D01*
X208799286Y-94327393D01*
X208794018Y-94486665D01*
X208787540Y-94606856D01*
X208779733Y-94693661D01*
X208770477Y-94752780D01*
X208759654Y-94789910D01*
X208747143Y-94810750D01*
X208745809Y-94812142D01*
X208644372Y-94873334D01*
X208543872Y-94850057D01*
X208497585Y-94811870D01*
X208484897Y-94792633D01*
X208473969Y-94758319D01*
X208464700Y-94703224D01*
X208456991Y-94621641D01*
X208450741Y-94507865D01*
X208445850Y-94356188D01*
X208442217Y-94160906D01*
X208439742Y-93916312D01*
X208438324Y-93616700D01*
X208437864Y-93256364D01*
X208438260Y-92829599D01*
X208439413Y-92330697D01*
X208441222Y-91753954D01*
X208441644Y-91631447D01*
X208443731Y-91043896D01*
X208445723Y-90535206D01*
X208447799Y-90099571D01*
X208450139Y-89731185D01*
X208452919Y-89424241D01*
X208456320Y-89172935D01*
X208460519Y-88971460D01*
X208465695Y-88814011D01*
X208472026Y-88694782D01*
X208479691Y-88607967D01*
X208488868Y-88547761D01*
X208499736Y-88508357D01*
X208512474Y-88483949D01*
X208527258Y-88468733D01*
X208539130Y-88460302D01*
X208616218Y-88425214D01*
X208616218Y-87301000D01*
X206949667Y-87301000D01*
X206949667Y-88401666D01*
X207008068Y-88428991D01*
X207076667Y-88486333D01*
X207092660Y-88504075D01*
X207106501Y-88526967D01*
X207118346Y-88560871D01*
X207128350Y-88611648D01*
X207136668Y-88685159D01*
X207143456Y-88787266D01*
X207148869Y-88923829D01*
X207153063Y-89100710D01*
X207156192Y-89323771D01*
X207158414Y-89598873D01*
X207159882Y-89931877D01*
X207160752Y-90328644D01*
X207161180Y-90795037D01*
X207161321Y-91336915D01*
X207161333Y-91679476D01*
X207161187Y-92272112D01*
X207160667Y-92785777D01*
X207159655Y-93226167D01*
X207158032Y-93598979D01*
X207155678Y-93909906D01*
X207152474Y-94164646D01*
X207148300Y-94368894D01*
X207143037Y-94528345D01*
X207136566Y-94648696D01*
X207128768Y-94735642D01*
X207119522Y-94794878D01*
X207108711Y-94832101D01*
X207096214Y-94853006D01*
X207094809Y-94854476D01*
X206992934Y-94911420D01*
X206881374Y-94912144D01*
X206794381Y-94858328D01*
X206781823Y-94839116D01*
X206772141Y-94777636D01*
X206763657Y-94631828D01*
X206756374Y-94402019D01*
X206750298Y-94088540D01*
X206745432Y-93691718D01*
X206741781Y-93211884D01*
X206739350Y-92649365D01*
X206738143Y-92004493D01*
X206738000Y-91664116D01*
X206738048Y-91078441D01*
X206738296Y-90571556D01*
X206738902Y-90137584D01*
X206740021Y-89770649D01*
X206741811Y-89464874D01*
X206744427Y-89214383D01*
X206748027Y-89013298D01*
X206752766Y-88855743D01*
X206758802Y-88735842D01*
X206766291Y-88647717D01*
X206775390Y-88585493D01*
X206786255Y-88543292D01*
X206799043Y-88515239D01*
X206813910Y-88495455D01*
X206822667Y-88486333D01*
X206898483Y-88424179D01*
X206949667Y-88401666D01*
X206949667Y-87301000D01*
X205269399Y-87301000D01*
X205269399Y-88505344D01*
X205344067Y-88530307D01*
X205359485Y-88540693D01*
X205372829Y-88558038D01*
X205384249Y-88588125D01*
X205393893Y-88636736D01*
X205401912Y-88709653D01*
X205408456Y-88812659D01*
X205413674Y-88951536D01*
X205417716Y-89132066D01*
X205420732Y-89360032D01*
X205422872Y-89641215D01*
X205424284Y-89981400D01*
X205425120Y-90386367D01*
X205425528Y-90861898D01*
X205425658Y-91413778D01*
X205425667Y-91681491D01*
X205425152Y-92347032D01*
X205423595Y-92929518D01*
X205420971Y-93430553D01*
X205417259Y-93851740D01*
X205412434Y-94194685D01*
X205406474Y-94460992D01*
X205399356Y-94652265D01*
X205391058Y-94770109D01*
X205381556Y-94816129D01*
X205380927Y-94816653D01*
X205313955Y-94829890D01*
X205231034Y-94816883D01*
X205165601Y-94787274D01*
X205151095Y-94750707D01*
X205151267Y-94750425D01*
X205146714Y-94712316D01*
X205131832Y-94709333D01*
X205125021Y-94668359D01*
X205118660Y-94550873D01*
X205112774Y-94365027D01*
X205107386Y-94118976D01*
X205102524Y-93820872D01*
X205098212Y-93478868D01*
X205094476Y-93101119D01*
X205091341Y-92695776D01*
X205088832Y-92270994D01*
X205086976Y-91834925D01*
X205085796Y-91395723D01*
X205085319Y-90961541D01*
X205085569Y-90540533D01*
X205086573Y-90140850D01*
X205088355Y-89770648D01*
X205090942Y-89438078D01*
X205094357Y-89151295D01*
X205098627Y-88918450D01*
X205103778Y-88747699D01*
X205109833Y-88647194D01*
X205112916Y-88626845D01*
X205172197Y-88530107D01*
X205269399Y-88505344D01*
X205269399Y-87301000D01*
X203012667Y-87301000D01*
X203012667Y-96699000D01*
X203393667Y-96699000D01*
G37*
X203393667Y-96699000D02*
X203393667Y-92620394D01*
X203393721Y-91941095D01*
X203393949Y-91341408D01*
X203394444Y-90816279D01*
X203395300Y-90360653D01*
X203396611Y-89969475D01*
X203398473Y-89637692D01*
X203400979Y-89360249D01*
X203404223Y-89132090D01*
X203408300Y-88948162D01*
X203413305Y-88803411D01*
X203419331Y-88692781D01*
X203426473Y-88611218D01*
X203434826Y-88553668D01*
X203444482Y-88515077D01*
X203455538Y-88490388D01*
X203468087Y-88474550D01*
X203471083Y-88471727D01*
X203583000Y-88407995D01*
X203687655Y-88428304D01*
X203746939Y-88479083D01*
X203758661Y-88497145D01*
X203769009Y-88527189D01*
X203778067Y-88574236D01*
X203785919Y-88643306D01*
X203792650Y-88739421D01*
X203798346Y-88867601D01*
X203803090Y-89032866D01*
X203806968Y-89240238D01*
X203810065Y-89494736D01*
X203812465Y-89801383D01*
X203814253Y-90165198D01*
X203815514Y-90591202D01*
X203816332Y-91084416D01*
X203816793Y-91649860D01*
X203816982Y-92292556D01*
X203817000Y-92627750D01*
X203817000Y-96699000D01*
X204198000Y-96699000D01*
X204198000Y-95755919D01*
X204198879Y-95438626D01*
X204201978Y-95195133D01*
X204207985Y-95014589D01*
X204217590Y-94886142D01*
X204231482Y-94798938D01*
X204250352Y-94742127D01*
X204263900Y-94718752D01*
X204354288Y-94644629D01*
X204460705Y-94628682D01*
X204552064Y-94672121D01*
X204577510Y-94706550D01*
X204592092Y-94776749D01*
X204604143Y-94922619D01*
X204613286Y-95135193D01*
X204619140Y-95405502D01*
X204621327Y-95724579D01*
X204621333Y-95743716D01*
X204621333Y-96699000D01*
X205891333Y-96699000D01*
X205895553Y-95778250D01*
X205898112Y-95501239D01*
X205902879Y-95247635D01*
X205909397Y-95031523D01*
X205917207Y-94866990D01*
X205925849Y-94768121D01*
X205928977Y-94751666D01*
X205984047Y-94663420D01*
X206078081Y-94631940D01*
X206179134Y-94634769D01*
X206238344Y-94658410D01*
X206250523Y-94711998D01*
X206260872Y-94840001D01*
X206269008Y-95032183D01*
X206274550Y-95278305D01*
X206277114Y-95568130D01*
X206277214Y-95698887D01*
X206275720Y-96699000D01*
X207627000Y-96699000D01*
X207627000Y-95791589D01*
X207628595Y-95448525D01*
X207634272Y-95181189D01*
X207645372Y-94980686D01*
X207663233Y-94838123D01*
X207689195Y-94744604D01*
X207724596Y-94691236D01*
X207770776Y-94669124D01*
X207796333Y-94667000D01*
X207847990Y-94677592D01*
X207888243Y-94715299D01*
X207918434Y-94789015D01*
X207939900Y-94907635D01*
X207953981Y-95080052D01*
X207962017Y-95315161D01*
X207965347Y-95621857D01*
X207965667Y-95791589D01*
X207965667Y-96699000D01*
X209278000Y-96699000D01*
X209278000Y-88572951D01*
X209386372Y-88501943D01*
X209466923Y-88456295D01*
X209518467Y-88461068D01*
X209566289Y-88502466D01*
X209578049Y-88522657D01*
X209588736Y-88561168D01*
X209598402Y-88621844D01*
X209607102Y-88708530D01*
X209614890Y-88825071D01*
X209621818Y-88975312D01*
X209627942Y-89163099D01*
X209633314Y-89392276D01*
X209637989Y-89666689D01*
X209642021Y-89990182D01*
X209645463Y-90366601D01*
X209648368Y-90799791D01*
X209650792Y-91293597D01*
X209652788Y-91851864D01*
X209654409Y-92478438D01*
X209655709Y-93177163D01*
X209656743Y-93951884D01*
X209657563Y-94806448D01*
X209657744Y-95037416D01*
X209659000Y-96699000D01*
X210082333Y-96699000D01*
X210082333Y-95733799D01*
X210083859Y-95388361D01*
X210088643Y-95121377D01*
X210096992Y-94926686D01*
X210109215Y-94798127D01*
X210125620Y-94729539D01*
X210133133Y-94717799D01*
X210217325Y-94675669D01*
X210322074Y-94670398D01*
X210409345Y-94699968D01*
X210437637Y-94733962D01*
X210445091Y-94794350D01*
X210451696Y-94926282D01*
X210457119Y-95116636D01*
X210461029Y-95352288D01*
X210463094Y-95620119D01*
X210463333Y-95749962D01*
X210463333Y-96699000D01*
X212029667Y-96699000D01*
X212029667Y-87301000D01*
X211094813Y-87301000D01*
X211094813Y-88511840D01*
X211190526Y-88543773D01*
X211246489Y-88628273D01*
X211246650Y-88628975D01*
X211254857Y-88673480D01*
X211261917Y-88733038D01*
X211267890Y-88813495D01*
X211272836Y-88920700D01*
X211276815Y-89060499D01*
X211279887Y-89238742D01*
X211282113Y-89461275D01*
X211283552Y-89733945D01*
X211284264Y-90062602D01*
X211284311Y-90453092D01*
X211283751Y-90911263D01*
X211282645Y-91442963D01*
X211281225Y-91992077D01*
X211279190Y-92583202D01*
X211276509Y-93094063D01*
X211273091Y-93529064D01*
X211268845Y-93892605D01*
X211263681Y-94189089D01*
X211257508Y-94422918D01*
X211250235Y-94598494D01*
X211241773Y-94720219D01*
X211232031Y-94792494D01*
X211223125Y-94817827D01*
X211144549Y-94865230D01*
X211043894Y-94876551D01*
X210962749Y-94849473D01*
X210948190Y-94833135D01*
X210943653Y-94784357D01*
X210939434Y-94657668D01*
X210935587Y-94459826D01*
X210932165Y-94197586D01*
X210929221Y-93877704D01*
X210926808Y-93506937D01*
X210924979Y-93092041D01*
X210923788Y-92639771D01*
X210923288Y-92156885D01*
X210923484Y-91690078D01*
X210924284Y-91098971D01*
X210925366Y-90586858D01*
X210926856Y-90148067D01*
X210928880Y-89776927D01*
X210931564Y-89467767D01*
X210935034Y-89214913D01*
X210939416Y-89012694D01*
X210944837Y-88855438D01*
X210951423Y-88737473D01*
X210959298Y-88653127D01*
X210968591Y-88596729D01*
X210979426Y-88562606D01*
X210991931Y-88545087D01*
X210993426Y-88543920D01*
X211094813Y-88511840D01*
X211094813Y-87301000D01*
X210301385Y-87301000D01*
X210301385Y-88639384D01*
X210500699Y-88673981D01*
X210657212Y-88779867D01*
X210775444Y-88960183D01*
X210781299Y-88973166D01*
X210827628Y-89095609D01*
X210833574Y-89191019D01*
X210797236Y-89298757D01*
X210762105Y-89370553D01*
X210635259Y-89547147D01*
X210470860Y-89648707D01*
X210265741Y-89678438D01*
X210060439Y-89639283D01*
X209902683Y-89530210D01*
X209861814Y-89469370D01*
X209861814Y-89698025D01*
X209948062Y-89719940D01*
X210007293Y-89790848D01*
X210010956Y-89802580D01*
X210030426Y-89842182D01*
X210075048Y-89866335D01*
X210162231Y-89878726D01*
X210309386Y-89883042D01*
X210392342Y-89883333D01*
X210595736Y-89888750D01*
X210720782Y-89905523D01*
X210773138Y-89934437D01*
X210773963Y-89936250D01*
X210795727Y-89989470D01*
X210798658Y-89996287D01*
X210788784Y-90035680D01*
X210776304Y-90070370D01*
X210746742Y-90104286D01*
X210679176Y-90124878D01*
X210557499Y-90134948D01*
X210391341Y-90137333D01*
X210306804Y-90138201D01*
X210306804Y-90306666D01*
X210441074Y-90341179D01*
X210584641Y-90430886D01*
X210709365Y-90555043D01*
X210768216Y-90646842D01*
X210822825Y-90769731D01*
X210837376Y-90860199D01*
X210813295Y-90959632D01*
X210781739Y-91038802D01*
X210675973Y-91203696D01*
X210527031Y-91321962D01*
X210355396Y-91384357D01*
X210266553Y-91382970D01*
X210266553Y-91461286D01*
X210447186Y-91491299D01*
X210612267Y-91584081D01*
X210744780Y-91738720D01*
X210781299Y-91809500D01*
X210824937Y-91915504D01*
X210835899Y-91989588D01*
X210814095Y-92072775D01*
X210802000Y-92102556D01*
X210802000Y-93648394D01*
X210801352Y-93893113D01*
X210795028Y-94036764D01*
X210779403Y-94149936D01*
X210764529Y-94194915D01*
X210697499Y-94235947D01*
X210648760Y-94236883D01*
X210593329Y-94203168D01*
X210564146Y-94115976D01*
X210556149Y-94042218D01*
X210540095Y-93925725D01*
X210507112Y-93872950D01*
X210460899Y-93862666D01*
X210403187Y-93880980D01*
X210380662Y-93950443D01*
X210378667Y-94005649D01*
X210354770Y-94134688D01*
X210292699Y-94216457D01*
X210206881Y-94234025D01*
X210188706Y-94228564D01*
X210140165Y-94165210D01*
X210124667Y-94029800D01*
X210109781Y-93911967D01*
X210075456Y-93870786D01*
X210037184Y-93905785D01*
X210010459Y-94016493D01*
X210008886Y-94033324D01*
X209980226Y-94174128D01*
X209924126Y-94236546D01*
X209841707Y-94219374D01*
X209837751Y-94216934D01*
X209793352Y-94165275D01*
X209770716Y-94068686D01*
X209764833Y-93921552D01*
X209764833Y-93672166D01*
X210283417Y-93660280D01*
X210802000Y-93648394D01*
X210802000Y-92102556D01*
X210780540Y-92155398D01*
X210665662Y-92345950D01*
X210510939Y-92461833D01*
X210442002Y-92476562D01*
X210442002Y-92635494D01*
X210601084Y-92640204D01*
X210719204Y-92649913D01*
X210775436Y-92664882D01*
X210775563Y-92665007D01*
X210794895Y-92727167D01*
X210793202Y-92781424D01*
X210774207Y-92831413D01*
X210721722Y-92860164D01*
X210615351Y-92875485D01*
X210534069Y-92880629D01*
X210398040Y-92890697D01*
X210332523Y-92906216D01*
X210323364Y-92932539D01*
X210338169Y-92954712D01*
X210405676Y-93007043D01*
X210439077Y-93016000D01*
X210511583Y-93046041D01*
X210605672Y-93120752D01*
X210699070Y-93217012D01*
X210769504Y-93311704D01*
X210794700Y-93381706D01*
X210794273Y-93384690D01*
X210780078Y-93416964D01*
X210742734Y-93438600D01*
X210667988Y-93451671D01*
X210541586Y-93458248D01*
X210349275Y-93460405D01*
X210272833Y-93460500D01*
X210057326Y-93459395D01*
X209912113Y-93454639D01*
X209822839Y-93444071D01*
X209775144Y-93425530D01*
X209754670Y-93396853D01*
X209750860Y-93381920D01*
X209751943Y-93304416D01*
X209800817Y-93256780D01*
X209911023Y-93231262D01*
X210029417Y-93222523D01*
X210153626Y-93211853D01*
X210234292Y-93195158D01*
X210251667Y-93182935D01*
X210218257Y-93147456D01*
X210131011Y-93083895D01*
X210018850Y-93012233D01*
X209849118Y-92892010D01*
X209761722Y-92786589D01*
X209755835Y-92694882D01*
X209764599Y-92677712D01*
X209814591Y-92661375D01*
X209928253Y-92648722D01*
X210084660Y-92640016D01*
X210262885Y-92635519D01*
X210442002Y-92635494D01*
X210442002Y-92476562D01*
X210315343Y-92503624D01*
X210177384Y-92493284D01*
X210000481Y-92425972D01*
X209863571Y-92300137D01*
X209776833Y-92135717D01*
X209750447Y-91952654D01*
X209794594Y-91770889D01*
X209801490Y-91756976D01*
X209926689Y-91593212D01*
X210087382Y-91494953D01*
X210266553Y-91461286D01*
X210266553Y-91382970D01*
X210181550Y-91381641D01*
X210093239Y-91349472D01*
X209912485Y-91220342D01*
X209795391Y-91060918D01*
X209746328Y-90885618D01*
X209769670Y-90708856D01*
X209854542Y-90562394D01*
X210010983Y-90417870D01*
X210181909Y-90328796D01*
X210306804Y-90306666D01*
X210306804Y-90138201D01*
X210215326Y-90139142D01*
X210106234Y-90147258D01*
X210046352Y-90165712D01*
X210017967Y-90198536D01*
X210009337Y-90224277D01*
X209966814Y-90289289D01*
X209875717Y-90298361D01*
X209813098Y-90284637D01*
X209778193Y-90247827D01*
X209760892Y-90166688D01*
X209752031Y-90038511D01*
X209752551Y-89894903D01*
X209767259Y-89781870D01*
X209785337Y-89735965D01*
X209861814Y-89698025D01*
X209861814Y-89469370D01*
X209808567Y-89390102D01*
X209751408Y-89190112D01*
X209769761Y-89002112D01*
X209854493Y-88840015D01*
X209996471Y-88717734D01*
X210186561Y-88649180D01*
X210301385Y-88639384D01*
X210301385Y-87301000D01*
X208616218Y-87301000D01*
X208616218Y-88425214D01*
X208688703Y-88448057D01*
X208719047Y-88468127D01*
X208812333Y-88533467D01*
X208812333Y-91639543D01*
X208812186Y-92231937D01*
X208811666Y-92745362D01*
X208810654Y-93185517D01*
X208809029Y-93558100D01*
X208806672Y-93868808D01*
X208803464Y-94123340D01*
X208799286Y-94327393D01*
X208794018Y-94486665D01*
X208787540Y-94606856D01*
X208779733Y-94693661D01*
X208770477Y-94752780D01*
X208759654Y-94789910D01*
X208747143Y-94810750D01*
X208745809Y-94812142D01*
X208644372Y-94873334D01*
X208543872Y-94850057D01*
X208497585Y-94811870D01*
X208484897Y-94792633D01*
X208473969Y-94758319D01*
X208464700Y-94703224D01*
X208456991Y-94621641D01*
X208450741Y-94507865D01*
X208445850Y-94356188D01*
X208442217Y-94160906D01*
X208439742Y-93916312D01*
X208438324Y-93616700D01*
X208437864Y-93256364D01*
X208438260Y-92829599D01*
X208439413Y-92330697D01*
X208441222Y-91753954D01*
X208441644Y-91631447D01*
X208443731Y-91043896D01*
X208445723Y-90535206D01*
X208447799Y-90099571D01*
X208450139Y-89731185D01*
X208452919Y-89424241D01*
X208456320Y-89172935D01*
X208460519Y-88971460D01*
X208465695Y-88814011D01*
X208472026Y-88694782D01*
X208479691Y-88607967D01*
X208488868Y-88547761D01*
X208499736Y-88508357D01*
X208512474Y-88483949D01*
X208527258Y-88468733D01*
X208539130Y-88460302D01*
X208616218Y-88425214D01*
X208616218Y-87301000D01*
X206949667Y-87301000D01*
X206949667Y-88401666D01*
X207008068Y-88428991D01*
X207076667Y-88486333D01*
X207092660Y-88504075D01*
X207106501Y-88526967D01*
X207118346Y-88560871D01*
X207128350Y-88611648D01*
X207136668Y-88685159D01*
X207143456Y-88787266D01*
X207148869Y-88923829D01*
X207153063Y-89100710D01*
X207156192Y-89323771D01*
X207158414Y-89598873D01*
X207159882Y-89931877D01*
X207160752Y-90328644D01*
X207161180Y-90795037D01*
X207161321Y-91336915D01*
X207161333Y-91679476D01*
X207161187Y-92272112D01*
X207160667Y-92785777D01*
X207159655Y-93226167D01*
X207158032Y-93598979D01*
X207155678Y-93909906D01*
X207152474Y-94164646D01*
X207148300Y-94368894D01*
X207143037Y-94528345D01*
X207136566Y-94648696D01*
X207128768Y-94735642D01*
X207119522Y-94794878D01*
X207108711Y-94832101D01*
X207096214Y-94853006D01*
X207094809Y-94854476D01*
X206992934Y-94911420D01*
X206881374Y-94912144D01*
X206794381Y-94858328D01*
X206781823Y-94839116D01*
X206772141Y-94777636D01*
X206763657Y-94631828D01*
X206756374Y-94402019D01*
X206750298Y-94088540D01*
X206745432Y-93691718D01*
X206741781Y-93211884D01*
X206739350Y-92649365D01*
X206738143Y-92004493D01*
X206738000Y-91664116D01*
X206738048Y-91078441D01*
X206738296Y-90571556D01*
X206738902Y-90137584D01*
X206740021Y-89770649D01*
X206741811Y-89464874D01*
X206744427Y-89214383D01*
X206748027Y-89013298D01*
X206752766Y-88855743D01*
X206758802Y-88735842D01*
X206766291Y-88647717D01*
X206775390Y-88585493D01*
X206786255Y-88543292D01*
X206799043Y-88515239D01*
X206813910Y-88495455D01*
X206822667Y-88486333D01*
X206898483Y-88424179D01*
X206949667Y-88401666D01*
X206949667Y-87301000D01*
X205269399Y-87301000D01*
X205269399Y-88505344D01*
X205344067Y-88530307D01*
X205359485Y-88540693D01*
X205372829Y-88558038D01*
X205384249Y-88588125D01*
X205393893Y-88636736D01*
X205401912Y-88709653D01*
X205408456Y-88812659D01*
X205413674Y-88951536D01*
X205417716Y-89132066D01*
X205420732Y-89360032D01*
X205422872Y-89641215D01*
X205424284Y-89981400D01*
X205425120Y-90386367D01*
X205425528Y-90861898D01*
X205425658Y-91413778D01*
X205425667Y-91681491D01*
X205425152Y-92347032D01*
X205423595Y-92929518D01*
X205420971Y-93430553D01*
X205417259Y-93851740D01*
X205412434Y-94194685D01*
X205406474Y-94460992D01*
X205399356Y-94652265D01*
X205391058Y-94770109D01*
X205381556Y-94816129D01*
X205380927Y-94816653D01*
X205313955Y-94829890D01*
X205231034Y-94816883D01*
X205165601Y-94787274D01*
X205151095Y-94750707D01*
X205151267Y-94750425D01*
X205146714Y-94712316D01*
X205131832Y-94709333D01*
X205125021Y-94668359D01*
X205118660Y-94550873D01*
X205112774Y-94365027D01*
X205107386Y-94118976D01*
X205102524Y-93820872D01*
X205098212Y-93478868D01*
X205094476Y-93101119D01*
X205091341Y-92695776D01*
X205088832Y-92270994D01*
X205086976Y-91834925D01*
X205085796Y-91395723D01*
X205085319Y-90961541D01*
X205085569Y-90540533D01*
X205086573Y-90140850D01*
X205088355Y-89770648D01*
X205090942Y-89438078D01*
X205094357Y-89151295D01*
X205098627Y-88918450D01*
X205103778Y-88747699D01*
X205109833Y-88647194D01*
X205112916Y-88626845D01*
X205172197Y-88530107D01*
X205269399Y-88505344D01*
X205269399Y-87301000D01*
X203012667Y-87301000D01*
X203012667Y-96699000D01*
X203393667Y-96699000D01*
G36*
X210033814Y-89292339D02*
G01*
X210126614Y-89376135D01*
X210270517Y-89411300D01*
X210318762Y-89409886D01*
X210433812Y-89387892D01*
X210499411Y-89331709D01*
X210531641Y-89266418D01*
X210562830Y-89150011D01*
X210541765Y-89051586D01*
X210533577Y-89034288D01*
X210437807Y-88922230D01*
X210310218Y-88879980D01*
X210173321Y-88913011D01*
X210135165Y-88937400D01*
X210030774Y-89054148D01*
X209999429Y-89178736D01*
X210033814Y-89292339D01*
G37*
X210033814Y-89292339D02*
X210126614Y-89376135D01*
X210270517Y-89411300D01*
X210318762Y-89409886D01*
X210433812Y-89387892D01*
X210499411Y-89331709D01*
X210531641Y-89266418D01*
X210562830Y-89150011D01*
X210541765Y-89051586D01*
X210533577Y-89034288D01*
X210437807Y-88922230D01*
X210310218Y-88879980D01*
X210173321Y-88913011D01*
X210135165Y-88937400D01*
X210030774Y-89054148D01*
X209999429Y-89178736D01*
X210033814Y-89292339D01*
G36*
X210067373Y-91027309D02*
G01*
X210187969Y-91095860D01*
X210299450Y-91111000D01*
X210439647Y-91090719D01*
X210518156Y-91021432D01*
X210547086Y-90890467D01*
X210548000Y-90850933D01*
X210528345Y-90717356D01*
X210461326Y-90631933D01*
X210453914Y-90626567D01*
X210311465Y-90566195D01*
X210178361Y-90589728D01*
X210089712Y-90658645D01*
X210009942Y-90790793D01*
X210005263Y-90919650D01*
X210067373Y-91027309D01*
G37*
X210067373Y-91027309D02*
X210187969Y-91095860D01*
X210299450Y-91111000D01*
X210439647Y-91090719D01*
X210518156Y-91021432D01*
X210547086Y-90890467D01*
X210548000Y-90850933D01*
X210528345Y-90717356D01*
X210461326Y-90631933D01*
X210453914Y-90626567D01*
X210311465Y-90566195D01*
X210178361Y-90589728D01*
X210089712Y-90658645D01*
X210009942Y-90790793D01*
X210005263Y-90919650D01*
X210067373Y-91027309D01*
G36*
X210032661Y-92131058D02*
G01*
X210131051Y-92218492D01*
X210282952Y-92247957D01*
X210318762Y-92246219D01*
X210433682Y-92224302D01*
X210498435Y-92168808D01*
X210528920Y-92105833D01*
X210558117Y-91997502D01*
X210557987Y-91915349D01*
X210557981Y-91915333D01*
X210482056Y-91790321D01*
X210370996Y-91723197D01*
X210245938Y-91711012D01*
X210128022Y-91750822D01*
X210038386Y-91839678D01*
X209998168Y-91974634D01*
X209997667Y-91993438D01*
X210032661Y-92131058D01*
G37*
X210032661Y-92131058D02*
X210131051Y-92218492D01*
X210282952Y-92247957D01*
X210318762Y-92246219D01*
X210433682Y-92224302D01*
X210498435Y-92168808D01*
X210528920Y-92105833D01*
X210558117Y-91997502D01*
X210557987Y-91915349D01*
X210557981Y-91915333D01*
X210482056Y-91790321D01*
X210370996Y-91723197D01*
X210245938Y-91711012D01*
X210128022Y-91750822D01*
X210038386Y-91839678D01*
X209998168Y-91974634D01*
X209997667Y-91993438D01*
X210032661Y-92131058D01*
D11*
G04 #@! TO.C,AE-PAM8012*
X127300000Y-97500000D02*
X137800000Y-97500000D01*
X137800000Y-97500000D02*
X137800000Y-86500000D01*
X137800000Y-86500000D02*
X127300000Y-86500000D01*
X127300000Y-86500000D02*
X127300000Y-97500000D01*
D10*
G04 #@! TO.C,D10*
X154315000Y-72040000D02*
X157000000Y-72040000D01*
X154315000Y-73960000D02*
X154315000Y-72040000D01*
X157000000Y-73960000D02*
X154315000Y-73960000D01*
G04 #@! TO.C,M5StickC*
X182690000Y-102216000D02*
X182690000Y-81776000D01*
X182690000Y-81776000D02*
X185350000Y-81776000D01*
X185350000Y-81776000D02*
X185350000Y-102216000D01*
X185350000Y-102216000D02*
X182690000Y-102216000D01*
X185350000Y-101266000D02*
X191350000Y-101266000D01*
X191350000Y-101266000D02*
X191350000Y-100506000D01*
X191350000Y-100506000D02*
X185350000Y-100506000D01*
X185350000Y-101206000D02*
X191350000Y-101206000D01*
X185350000Y-101086000D02*
X191350000Y-101086000D01*
X185350000Y-100966000D02*
X191350000Y-100966000D01*
X185350000Y-100846000D02*
X191350000Y-100846000D01*
X185350000Y-100726000D02*
X191350000Y-100726000D01*
X185350000Y-100606000D02*
X191350000Y-100606000D01*
X182360000Y-101266000D02*
X182690000Y-101266000D01*
X182360000Y-100506000D02*
X182690000Y-100506000D01*
X182690000Y-99616000D02*
X185350000Y-99616000D01*
X185350000Y-98726000D02*
X191350000Y-98726000D01*
X191350000Y-98726000D02*
X191350000Y-97966000D01*
X191350000Y-97966000D02*
X185350000Y-97966000D01*
X182292929Y-98726000D02*
X182690000Y-98726000D01*
X182292929Y-97966000D02*
X182690000Y-97966000D01*
X182690000Y-97076000D02*
X185350000Y-97076000D01*
X185350000Y-96186000D02*
X191350000Y-96186000D01*
X191350000Y-96186000D02*
X191350000Y-95426000D01*
X191350000Y-95426000D02*
X185350000Y-95426000D01*
X182292929Y-96186000D02*
X182690000Y-96186000D01*
X182292929Y-95426000D02*
X182690000Y-95426000D01*
X182690000Y-94536000D02*
X185350000Y-94536000D01*
X185350000Y-93646000D02*
X191350000Y-93646000D01*
X191350000Y-93646000D02*
X191350000Y-92886000D01*
X191350000Y-92886000D02*
X185350000Y-92886000D01*
X182292929Y-93646000D02*
X182690000Y-93646000D01*
X182292929Y-92886000D02*
X182690000Y-92886000D01*
X182690000Y-91996000D02*
X185350000Y-91996000D01*
X185350000Y-91106000D02*
X191350000Y-91106000D01*
X191350000Y-91106000D02*
X191350000Y-90346000D01*
X191350000Y-90346000D02*
X185350000Y-90346000D01*
X182292929Y-91106000D02*
X182690000Y-91106000D01*
X182292929Y-90346000D02*
X182690000Y-90346000D01*
X182690000Y-89456000D02*
X185350000Y-89456000D01*
X185350000Y-88566000D02*
X191350000Y-88566000D01*
X191350000Y-88566000D02*
X191350000Y-87806000D01*
X191350000Y-87806000D02*
X185350000Y-87806000D01*
X182292929Y-88566000D02*
X182690000Y-88566000D01*
X182292929Y-87806000D02*
X182690000Y-87806000D01*
X182690000Y-86916000D02*
X185350000Y-86916000D01*
X185350000Y-86026000D02*
X191350000Y-86026000D01*
X191350000Y-86026000D02*
X191350000Y-85266000D01*
X191350000Y-85266000D02*
X185350000Y-85266000D01*
X182292929Y-86026000D02*
X182690000Y-86026000D01*
X182292929Y-85266000D02*
X182690000Y-85266000D01*
X182690000Y-84376000D02*
X185350000Y-84376000D01*
X185350000Y-83486000D02*
X191350000Y-83486000D01*
X191350000Y-83486000D02*
X191350000Y-82726000D01*
X191350000Y-82726000D02*
X185350000Y-82726000D01*
X182292929Y-83486000D02*
X182690000Y-83486000D01*
X182292929Y-82726000D02*
X182690000Y-82726000D01*
X179980000Y-100886000D02*
X179980000Y-102156000D01*
X179980000Y-102156000D02*
X181250000Y-102156000D01*
G04 #@! TO.C,EXTRA*
X180225000Y-106830000D02*
X180225000Y-104170000D01*
X182825000Y-106830000D02*
X180225000Y-106830000D01*
X182825000Y-104170000D02*
X180225000Y-104170000D01*
X182825000Y-106830000D02*
X182825000Y-104170000D01*
X184095000Y-106830000D02*
X185425000Y-106830000D01*
X185425000Y-106830000D02*
X185425000Y-105500000D01*
G04 #@! TO.C,D1*
X219500000Y-110040000D02*
X222185000Y-110040000D01*
X222185000Y-110040000D02*
X222185000Y-111960000D01*
X222185000Y-111960000D02*
X219500000Y-111960000D01*
G04 #@! TO.C,D2*
X200500000Y-110040000D02*
X203185000Y-110040000D01*
X203185000Y-110040000D02*
X203185000Y-111960000D01*
X203185000Y-111960000D02*
X200500000Y-111960000D01*
G04 #@! TO.C,D3*
X181500000Y-110040000D02*
X184185000Y-110040000D01*
X184185000Y-110040000D02*
X184185000Y-111960000D01*
X184185000Y-111960000D02*
X181500000Y-111960000D01*
G04 #@! TO.C,D4*
X162500000Y-110040000D02*
X165185000Y-110040000D01*
X165185000Y-110040000D02*
X165185000Y-111960000D01*
X165185000Y-111960000D02*
X162500000Y-111960000D01*
G04 #@! TO.C,D5*
X143500000Y-110040000D02*
X146185000Y-110040000D01*
X146185000Y-110040000D02*
X146185000Y-111960000D01*
X146185000Y-111960000D02*
X143500000Y-111960000D01*
G04 #@! TO.C,D6*
X233000000Y-73960000D02*
X230315000Y-73960000D01*
X230315000Y-73960000D02*
X230315000Y-72040000D01*
X230315000Y-72040000D02*
X233000000Y-72040000D01*
G04 #@! TO.C,D7*
X214500000Y-73960000D02*
X211815000Y-73960000D01*
X211815000Y-73960000D02*
X211815000Y-72040000D01*
X211815000Y-72040000D02*
X214500000Y-72040000D01*
G04 #@! TO.C,D8*
X195062500Y-73960000D02*
X192377500Y-73960000D01*
X192377500Y-73960000D02*
X192377500Y-72040000D01*
X192377500Y-72040000D02*
X195062500Y-72040000D01*
G04 #@! TO.C,D9*
X173815000Y-72040000D02*
X176500000Y-72040000D01*
X173815000Y-73960000D02*
X173815000Y-72040000D01*
X176500000Y-73960000D02*
X173815000Y-73960000D01*
G04 #@! TO.C,KeyDown*
X171200000Y-87500000D02*
G75*
G03*
X171200000Y-87500000I-1700000J0D01*
G01*
X177000000Y-80000000D02*
X177000000Y-95000000D01*
X162000000Y-80000000D02*
X177000000Y-80000000D01*
X162000000Y-95000000D02*
X162000000Y-80000000D01*
X177000000Y-95000000D02*
X162000000Y-95000000D01*
G04 #@! TO.C,KeyUp*
X152200000Y-87500000D02*
G75*
G03*
X152200000Y-87500000I-1700000J0D01*
G01*
X158000000Y-80000000D02*
X158000000Y-95000000D01*
X143000000Y-80000000D02*
X158000000Y-80000000D01*
X143000000Y-95000000D02*
X143000000Y-80000000D01*
X158000000Y-95000000D02*
X143000000Y-95000000D01*
G04 #@! TO.C,AE-PAM8012*
D11*
X126666666Y-87285714D02*
X126666666Y-87761904D01*
X126952380Y-87190476D02*
X125952380Y-87523809D01*
X126952380Y-87857142D01*
X126428571Y-88190476D02*
X126428571Y-88523809D01*
X126952380Y-88666666D02*
X126952380Y-88190476D01*
X125952380Y-88190476D01*
X125952380Y-88666666D01*
X126571428Y-89095238D02*
X126571428Y-89857142D01*
X126952380Y-90333333D02*
X125952380Y-90333333D01*
X125952380Y-90714285D01*
X126000000Y-90809523D01*
X126047619Y-90857142D01*
X126142857Y-90904761D01*
X126285714Y-90904761D01*
X126380952Y-90857142D01*
X126428571Y-90809523D01*
X126476190Y-90714285D01*
X126476190Y-90333333D01*
X126666666Y-91285714D02*
X126666666Y-91761904D01*
X126952380Y-91190476D02*
X125952380Y-91523809D01*
X126952380Y-91857142D01*
X126952380Y-92190476D02*
X125952380Y-92190476D01*
X126666666Y-92523809D01*
X125952380Y-92857142D01*
X126952380Y-92857142D01*
X126380952Y-93476190D02*
X126333333Y-93380952D01*
X126285714Y-93333333D01*
X126190476Y-93285714D01*
X126142857Y-93285714D01*
X126047619Y-93333333D01*
X126000000Y-93380952D01*
X125952380Y-93476190D01*
X125952380Y-93666666D01*
X126000000Y-93761904D01*
X126047619Y-93809523D01*
X126142857Y-93857142D01*
X126190476Y-93857142D01*
X126285714Y-93809523D01*
X126333333Y-93761904D01*
X126380952Y-93666666D01*
X126380952Y-93476190D01*
X126428571Y-93380952D01*
X126476190Y-93333333D01*
X126571428Y-93285714D01*
X126761904Y-93285714D01*
X126857142Y-93333333D01*
X126904761Y-93380952D01*
X126952380Y-93476190D01*
X126952380Y-93666666D01*
X126904761Y-93761904D01*
X126857142Y-93809523D01*
X126761904Y-93857142D01*
X126571428Y-93857142D01*
X126476190Y-93809523D01*
X126428571Y-93761904D01*
X126380952Y-93666666D01*
X125952380Y-94476190D02*
X125952380Y-94571428D01*
X126000000Y-94666666D01*
X126047619Y-94714285D01*
X126142857Y-94761904D01*
X126333333Y-94809523D01*
X126571428Y-94809523D01*
X126761904Y-94761904D01*
X126857142Y-94714285D01*
X126904761Y-94666666D01*
X126952380Y-94571428D01*
X126952380Y-94476190D01*
X126904761Y-94380952D01*
X126857142Y-94333333D01*
X126761904Y-94285714D01*
X126571428Y-94238095D01*
X126333333Y-94238095D01*
X126142857Y-94285714D01*
X126047619Y-94333333D01*
X126000000Y-94380952D01*
X125952380Y-94476190D01*
X126952380Y-95761904D02*
X126952380Y-95190476D01*
X126952380Y-95476190D02*
X125952380Y-95476190D01*
X126095238Y-95380952D01*
X126190476Y-95285714D01*
X126238095Y-95190476D01*
X126047619Y-96142857D02*
X126000000Y-96190476D01*
X125952380Y-96285714D01*
X125952380Y-96523809D01*
X126000000Y-96619047D01*
X126047619Y-96666666D01*
X126142857Y-96714285D01*
X126238095Y-96714285D01*
X126380952Y-96666666D01*
X126952380Y-96095238D01*
X126952380Y-96714285D01*
X130031428Y-89079047D02*
X130031428Y-89840952D01*
X130412380Y-89460000D02*
X129650476Y-89460000D01*
X130031428Y-94159047D02*
X130031428Y-94920952D01*
X137952380Y-88126666D02*
X138952380Y-88460000D01*
X137952380Y-88793333D01*
X138857142Y-89698095D02*
X138904761Y-89650476D01*
X138952380Y-89507619D01*
X138952380Y-89412380D01*
X138904761Y-89269523D01*
X138809523Y-89174285D01*
X138714285Y-89126666D01*
X138523809Y-89079047D01*
X138380952Y-89079047D01*
X138190476Y-89126666D01*
X138095238Y-89174285D01*
X138000000Y-89269523D01*
X137952380Y-89412380D01*
X137952380Y-89507619D01*
X138000000Y-89650476D01*
X138047619Y-89698095D01*
X138857142Y-90698095D02*
X138904761Y-90650476D01*
X138952380Y-90507619D01*
X138952380Y-90412380D01*
X138904761Y-90269523D01*
X138809523Y-90174285D01*
X138714285Y-90126666D01*
X138523809Y-90079047D01*
X138380952Y-90079047D01*
X138190476Y-90126666D01*
X138095238Y-90174285D01*
X138000000Y-90269523D01*
X137952380Y-90412380D01*
X137952380Y-90507619D01*
X138000000Y-90650476D01*
X138047619Y-90698095D01*
X138904761Y-93214285D02*
X138952380Y-93357142D01*
X138952380Y-93595238D01*
X138904761Y-93690476D01*
X138857142Y-93738095D01*
X138761904Y-93785714D01*
X138666666Y-93785714D01*
X138571428Y-93738095D01*
X138523809Y-93690476D01*
X138476190Y-93595238D01*
X138428571Y-93404761D01*
X138380952Y-93309523D01*
X138333333Y-93261904D01*
X138238095Y-93214285D01*
X138142857Y-93214285D01*
X138047619Y-93261904D01*
X138000000Y-93309523D01*
X137952380Y-93404761D01*
X137952380Y-93642857D01*
X138000000Y-93785714D01*
X138952380Y-94785714D02*
X138476190Y-94452380D01*
X138952380Y-94214285D02*
X137952380Y-94214285D01*
X137952380Y-94595238D01*
X138000000Y-94690476D01*
X138047619Y-94738095D01*
X138142857Y-94785714D01*
X138285714Y-94785714D01*
X138380952Y-94738095D01*
X138428571Y-94690476D01*
X138476190Y-94595238D01*
X138476190Y-94214285D01*
X138857142Y-95785714D02*
X138904761Y-95738095D01*
X138952380Y-95595238D01*
X138952380Y-95500000D01*
X138904761Y-95357142D01*
X138809523Y-95261904D01*
X138714285Y-95214285D01*
X138523809Y-95166666D01*
X138380952Y-95166666D01*
X138190476Y-95214285D01*
X138095238Y-95261904D01*
X138000000Y-95357142D01*
X137952380Y-95500000D01*
X137952380Y-95595238D01*
X138000000Y-95738095D01*
X138047619Y-95785714D01*
G04 #@! TO.C,MIS2503*
X156452380Y-97452380D02*
X156452380Y-96452380D01*
X156119047Y-97166666D01*
X155785714Y-96452380D01*
X155785714Y-97452380D01*
X155309523Y-97452380D02*
X155309523Y-96452380D01*
X154880952Y-97404761D02*
X154738095Y-97452380D01*
X154500000Y-97452380D01*
X154404761Y-97404761D01*
X154357142Y-97357142D01*
X154309523Y-97261904D01*
X154309523Y-97166666D01*
X154357142Y-97071428D01*
X154404761Y-97023809D01*
X154500000Y-96976190D01*
X154690476Y-96928571D01*
X154785714Y-96880952D01*
X154833333Y-96833333D01*
X154880952Y-96738095D01*
X154880952Y-96642857D01*
X154833333Y-96547619D01*
X154785714Y-96500000D01*
X154690476Y-96452380D01*
X154452380Y-96452380D01*
X154309523Y-96500000D01*
X153928571Y-96547619D02*
X153880952Y-96500000D01*
X153785714Y-96452380D01*
X153547619Y-96452380D01*
X153452380Y-96500000D01*
X153404761Y-96547619D01*
X153357142Y-96642857D01*
X153357142Y-96738095D01*
X153404761Y-96880952D01*
X153976190Y-97452380D01*
X153357142Y-97452380D01*
X152452380Y-96452380D02*
X152928571Y-96452380D01*
X152976190Y-96928571D01*
X152928571Y-96880952D01*
X152833333Y-96833333D01*
X152595238Y-96833333D01*
X152500000Y-96880952D01*
X152452380Y-96928571D01*
X152404761Y-97023809D01*
X152404761Y-97261904D01*
X152452380Y-97357142D01*
X152500000Y-97404761D01*
X152595238Y-97452380D01*
X152833333Y-97452380D01*
X152928571Y-97404761D01*
X152976190Y-97357142D01*
X151785714Y-96452380D02*
X151690476Y-96452380D01*
X151595238Y-96500000D01*
X151547619Y-96547619D01*
X151500000Y-96642857D01*
X151452380Y-96833333D01*
X151452380Y-97071428D01*
X151500000Y-97261904D01*
X151547619Y-97357142D01*
X151595238Y-97404761D01*
X151690476Y-97452380D01*
X151785714Y-97452380D01*
X151880952Y-97404761D01*
X151928571Y-97357142D01*
X151976190Y-97261904D01*
X152023809Y-97071428D01*
X152023809Y-96833333D01*
X151976190Y-96642857D01*
X151928571Y-96547619D01*
X151880952Y-96500000D01*
X151785714Y-96452380D01*
X151119047Y-96452380D02*
X150500000Y-96452380D01*
X150833333Y-96833333D01*
X150690476Y-96833333D01*
X150595238Y-96880952D01*
X150547619Y-96928571D01*
X150500000Y-97023809D01*
X150500000Y-97261904D01*
X150547619Y-97357142D01*
X150595238Y-97404761D01*
X150690476Y-97452380D01*
X150976190Y-97452380D01*
X151071428Y-97404761D01*
X151119047Y-97357142D01*
G04 #@! TO.C,D10*
X157214285Y-75102380D02*
X157214285Y-74102380D01*
X156976190Y-74102380D01*
X156833333Y-74150000D01*
X156738095Y-74245238D01*
X156690476Y-74340476D01*
X156642857Y-74530952D01*
X156642857Y-74673809D01*
X156690476Y-74864285D01*
X156738095Y-74959523D01*
X156833333Y-75054761D01*
X156976190Y-75102380D01*
X157214285Y-75102380D01*
X155690476Y-75102380D02*
X156261904Y-75102380D01*
X155976190Y-75102380D02*
X155976190Y-74102380D01*
X156071428Y-74245238D01*
X156166666Y-74340476D01*
X156261904Y-74388095D01*
X155071428Y-74102380D02*
X154976190Y-74102380D01*
X154880952Y-74150000D01*
X154833333Y-74197619D01*
X154785714Y-74292857D01*
X154738095Y-74483333D01*
X154738095Y-74721428D01*
X154785714Y-74911904D01*
X154833333Y-75007142D01*
X154880952Y-75054761D01*
X154976190Y-75102380D01*
X155071428Y-75102380D01*
X155166666Y-75054761D01*
X155214285Y-75007142D01*
X155261904Y-74911904D01*
X155309523Y-74721428D01*
X155309523Y-74483333D01*
X155261904Y-74292857D01*
X155214285Y-74197619D01*
X155166666Y-74150000D01*
X155071428Y-74102380D01*
G04 #@! TO.C,M5StickC*
X228952380Y-88357142D02*
X227952380Y-88357142D01*
X228666666Y-88690476D01*
X227952380Y-89023809D01*
X228952380Y-89023809D01*
X227952380Y-89976190D02*
X227952380Y-89500000D01*
X228428571Y-89452380D01*
X228380952Y-89500000D01*
X228333333Y-89595238D01*
X228333333Y-89833333D01*
X228380952Y-89928571D01*
X228428571Y-89976190D01*
X228523809Y-90023809D01*
X228761904Y-90023809D01*
X228857142Y-89976190D01*
X228904761Y-89928571D01*
X228952380Y-89833333D01*
X228952380Y-89595238D01*
X228904761Y-89500000D01*
X228857142Y-89452380D01*
X228904761Y-90404761D02*
X228952380Y-90547619D01*
X228952380Y-90785714D01*
X228904761Y-90880952D01*
X228857142Y-90928571D01*
X228761904Y-90976190D01*
X228666666Y-90976190D01*
X228571428Y-90928571D01*
X228523809Y-90880952D01*
X228476190Y-90785714D01*
X228428571Y-90595238D01*
X228380952Y-90500000D01*
X228333333Y-90452380D01*
X228238095Y-90404761D01*
X228142857Y-90404761D01*
X228047619Y-90452380D01*
X228000000Y-90500000D01*
X227952380Y-90595238D01*
X227952380Y-90833333D01*
X228000000Y-90976190D01*
X228285714Y-91261904D02*
X228285714Y-91642857D01*
X227952380Y-91404761D02*
X228809523Y-91404761D01*
X228904761Y-91452380D01*
X228952380Y-91547619D01*
X228952380Y-91642857D01*
X228952380Y-91976190D02*
X228285714Y-91976190D01*
X227952380Y-91976190D02*
X228000000Y-91928571D01*
X228047619Y-91976190D01*
X228000000Y-92023809D01*
X227952380Y-91976190D01*
X228047619Y-91976190D01*
X228904761Y-92880952D02*
X228952380Y-92785714D01*
X228952380Y-92595238D01*
X228904761Y-92500000D01*
X228857142Y-92452380D01*
X228761904Y-92404761D01*
X228476190Y-92404761D01*
X228380952Y-92452380D01*
X228333333Y-92500000D01*
X228285714Y-92595238D01*
X228285714Y-92785714D01*
X228333333Y-92880952D01*
X228952380Y-93309523D02*
X227952380Y-93309523D01*
X228571428Y-93404761D02*
X228952380Y-93690476D01*
X228285714Y-93690476D02*
X228666666Y-93309523D01*
X228857142Y-94690476D02*
X228904761Y-94642857D01*
X228952380Y-94500000D01*
X228952380Y-94404761D01*
X228904761Y-94261904D01*
X228809523Y-94166666D01*
X228714285Y-94119047D01*
X228523809Y-94071428D01*
X228380952Y-94071428D01*
X228190476Y-94119047D01*
X228095238Y-94166666D01*
X228000000Y-94261904D01*
X227952380Y-94404761D01*
X227952380Y-94500000D01*
X228000000Y-94642857D01*
X228047619Y-94690476D01*
G04 #@! TO.C,EXTRA*
X179110000Y-105513571D02*
X178776666Y-105513571D01*
X178633809Y-106037380D02*
X179110000Y-106037380D01*
X179110000Y-105037380D01*
X178633809Y-105037380D01*
X178300476Y-105037380D02*
X177633809Y-106037380D01*
X177633809Y-105037380D02*
X178300476Y-106037380D01*
X177395714Y-105037380D02*
X176824285Y-105037380D01*
X177110000Y-106037380D02*
X177110000Y-105037380D01*
X175919523Y-106037380D02*
X176252857Y-105561190D01*
X176490952Y-106037380D02*
X176490952Y-105037380D01*
X176110000Y-105037380D01*
X176014761Y-105085000D01*
X175967142Y-105132619D01*
X175919523Y-105227857D01*
X175919523Y-105370714D01*
X175967142Y-105465952D01*
X176014761Y-105513571D01*
X176110000Y-105561190D01*
X176490952Y-105561190D01*
X175538571Y-105751666D02*
X175062380Y-105751666D01*
X175633809Y-106037380D02*
X175300476Y-105037380D01*
X174967142Y-106037380D01*
G04 #@! TO.C,D1*
X221238095Y-109802380D02*
X221238095Y-108802380D01*
X221000000Y-108802380D01*
X220857142Y-108850000D01*
X220761904Y-108945238D01*
X220714285Y-109040476D01*
X220666666Y-109230952D01*
X220666666Y-109373809D01*
X220714285Y-109564285D01*
X220761904Y-109659523D01*
X220857142Y-109754761D01*
X221000000Y-109802380D01*
X221238095Y-109802380D01*
X219714285Y-109802380D02*
X220285714Y-109802380D01*
X220000000Y-109802380D02*
X220000000Y-108802380D01*
X220095238Y-108945238D01*
X220190476Y-109040476D01*
X220285714Y-109088095D01*
G04 #@! TO.C,D2*
X202238095Y-109802380D02*
X202238095Y-108802380D01*
X202000000Y-108802380D01*
X201857142Y-108850000D01*
X201761904Y-108945238D01*
X201714285Y-109040476D01*
X201666666Y-109230952D01*
X201666666Y-109373809D01*
X201714285Y-109564285D01*
X201761904Y-109659523D01*
X201857142Y-109754761D01*
X202000000Y-109802380D01*
X202238095Y-109802380D01*
X201285714Y-108897619D02*
X201238095Y-108850000D01*
X201142857Y-108802380D01*
X200904761Y-108802380D01*
X200809523Y-108850000D01*
X200761904Y-108897619D01*
X200714285Y-108992857D01*
X200714285Y-109088095D01*
X200761904Y-109230952D01*
X201333333Y-109802380D01*
X200714285Y-109802380D01*
G04 #@! TO.C,D3*
X183238095Y-109802380D02*
X183238095Y-108802380D01*
X183000000Y-108802380D01*
X182857142Y-108850000D01*
X182761904Y-108945238D01*
X182714285Y-109040476D01*
X182666666Y-109230952D01*
X182666666Y-109373809D01*
X182714285Y-109564285D01*
X182761904Y-109659523D01*
X182857142Y-109754761D01*
X183000000Y-109802380D01*
X183238095Y-109802380D01*
X182333333Y-108802380D02*
X181714285Y-108802380D01*
X182047619Y-109183333D01*
X181904761Y-109183333D01*
X181809523Y-109230952D01*
X181761904Y-109278571D01*
X181714285Y-109373809D01*
X181714285Y-109611904D01*
X181761904Y-109707142D01*
X181809523Y-109754761D01*
X181904761Y-109802380D01*
X182190476Y-109802380D01*
X182285714Y-109754761D01*
X182333333Y-109707142D01*
G04 #@! TO.C,D4*
X164238095Y-109802380D02*
X164238095Y-108802380D01*
X164000000Y-108802380D01*
X163857142Y-108850000D01*
X163761904Y-108945238D01*
X163714285Y-109040476D01*
X163666666Y-109230952D01*
X163666666Y-109373809D01*
X163714285Y-109564285D01*
X163761904Y-109659523D01*
X163857142Y-109754761D01*
X164000000Y-109802380D01*
X164238095Y-109802380D01*
X162809523Y-109135714D02*
X162809523Y-109802380D01*
X163047619Y-108754761D02*
X163285714Y-109469047D01*
X162666666Y-109469047D01*
G04 #@! TO.C,D5*
X145238095Y-109802380D02*
X145238095Y-108802380D01*
X145000000Y-108802380D01*
X144857142Y-108850000D01*
X144761904Y-108945238D01*
X144714285Y-109040476D01*
X144666666Y-109230952D01*
X144666666Y-109373809D01*
X144714285Y-109564285D01*
X144761904Y-109659523D01*
X144857142Y-109754761D01*
X145000000Y-109802380D01*
X145238095Y-109802380D01*
X143761904Y-108802380D02*
X144238095Y-108802380D01*
X144285714Y-109278571D01*
X144238095Y-109230952D01*
X144142857Y-109183333D01*
X143904761Y-109183333D01*
X143809523Y-109230952D01*
X143761904Y-109278571D01*
X143714285Y-109373809D01*
X143714285Y-109611904D01*
X143761904Y-109707142D01*
X143809523Y-109754761D01*
X143904761Y-109802380D01*
X144142857Y-109802380D01*
X144238095Y-109754761D01*
X144285714Y-109707142D01*
G04 #@! TO.C,D6*
X232738095Y-75102380D02*
X232738095Y-74102380D01*
X232500000Y-74102380D01*
X232357142Y-74150000D01*
X232261904Y-74245238D01*
X232214285Y-74340476D01*
X232166666Y-74530952D01*
X232166666Y-74673809D01*
X232214285Y-74864285D01*
X232261904Y-74959523D01*
X232357142Y-75054761D01*
X232500000Y-75102380D01*
X232738095Y-75102380D01*
X231309523Y-74102380D02*
X231500000Y-74102380D01*
X231595238Y-74150000D01*
X231642857Y-74197619D01*
X231738095Y-74340476D01*
X231785714Y-74530952D01*
X231785714Y-74911904D01*
X231738095Y-75007142D01*
X231690476Y-75054761D01*
X231595238Y-75102380D01*
X231404761Y-75102380D01*
X231309523Y-75054761D01*
X231261904Y-75007142D01*
X231214285Y-74911904D01*
X231214285Y-74673809D01*
X231261904Y-74578571D01*
X231309523Y-74530952D01*
X231404761Y-74483333D01*
X231595238Y-74483333D01*
X231690476Y-74530952D01*
X231738095Y-74578571D01*
X231785714Y-74673809D01*
G04 #@! TO.C,D7*
X214238095Y-75102380D02*
X214238095Y-74102380D01*
X214000000Y-74102380D01*
X213857142Y-74150000D01*
X213761904Y-74245238D01*
X213714285Y-74340476D01*
X213666666Y-74530952D01*
X213666666Y-74673809D01*
X213714285Y-74864285D01*
X213761904Y-74959523D01*
X213857142Y-75054761D01*
X214000000Y-75102380D01*
X214238095Y-75102380D01*
X213333333Y-74102380D02*
X212666666Y-74102380D01*
X213095238Y-75102380D01*
G04 #@! TO.C,D8*
X194800595Y-75102380D02*
X194800595Y-74102380D01*
X194562500Y-74102380D01*
X194419642Y-74150000D01*
X194324404Y-74245238D01*
X194276785Y-74340476D01*
X194229166Y-74530952D01*
X194229166Y-74673809D01*
X194276785Y-74864285D01*
X194324404Y-74959523D01*
X194419642Y-75054761D01*
X194562500Y-75102380D01*
X194800595Y-75102380D01*
X193657738Y-74530952D02*
X193752976Y-74483333D01*
X193800595Y-74435714D01*
X193848214Y-74340476D01*
X193848214Y-74292857D01*
X193800595Y-74197619D01*
X193752976Y-74150000D01*
X193657738Y-74102380D01*
X193467261Y-74102380D01*
X193372023Y-74150000D01*
X193324404Y-74197619D01*
X193276785Y-74292857D01*
X193276785Y-74340476D01*
X193324404Y-74435714D01*
X193372023Y-74483333D01*
X193467261Y-74530952D01*
X193657738Y-74530952D01*
X193752976Y-74578571D01*
X193800595Y-74626190D01*
X193848214Y-74721428D01*
X193848214Y-74911904D01*
X193800595Y-75007142D01*
X193752976Y-75054761D01*
X193657738Y-75102380D01*
X193467261Y-75102380D01*
X193372023Y-75054761D01*
X193324404Y-75007142D01*
X193276785Y-74911904D01*
X193276785Y-74721428D01*
X193324404Y-74626190D01*
X193372023Y-74578571D01*
X193467261Y-74530952D01*
G04 #@! TO.C,D9*
X176238095Y-75102380D02*
X176238095Y-74102380D01*
X176000000Y-74102380D01*
X175857142Y-74150000D01*
X175761904Y-74245238D01*
X175714285Y-74340476D01*
X175666666Y-74530952D01*
X175666666Y-74673809D01*
X175714285Y-74864285D01*
X175761904Y-74959523D01*
X175857142Y-75054761D01*
X176000000Y-75102380D01*
X176238095Y-75102380D01*
X175190476Y-75102380D02*
X175000000Y-75102380D01*
X174904761Y-75054761D01*
X174857142Y-75007142D01*
X174761904Y-74864285D01*
X174714285Y-74673809D01*
X174714285Y-74292857D01*
X174761904Y-74197619D01*
X174809523Y-74150000D01*
X174904761Y-74102380D01*
X175095238Y-74102380D01*
X175190476Y-74150000D01*
X175238095Y-74197619D01*
X175285714Y-74292857D01*
X175285714Y-74530952D01*
X175238095Y-74626190D01*
X175190476Y-74673809D01*
X175095238Y-74721428D01*
X174904761Y-74721428D01*
X174809523Y-74673809D01*
X174761904Y-74626190D01*
X174714285Y-74530952D01*
G04 #@! TO.C,KeyDown*
X172500000Y-79452380D02*
X172500000Y-78452380D01*
X171928571Y-79452380D02*
X172357142Y-78880952D01*
X171928571Y-78452380D02*
X172500000Y-79023809D01*
X171119047Y-79404761D02*
X171214285Y-79452380D01*
X171404761Y-79452380D01*
X171500000Y-79404761D01*
X171547619Y-79309523D01*
X171547619Y-78928571D01*
X171500000Y-78833333D01*
X171404761Y-78785714D01*
X171214285Y-78785714D01*
X171119047Y-78833333D01*
X171071428Y-78928571D01*
X171071428Y-79023809D01*
X171547619Y-79119047D01*
X170738095Y-78785714D02*
X170500000Y-79452380D01*
X170261904Y-78785714D02*
X170500000Y-79452380D01*
X170595238Y-79690476D01*
X170642857Y-79738095D01*
X170738095Y-79785714D01*
X169880952Y-79452380D02*
X169880952Y-78452380D01*
X169642857Y-78452380D01*
X169500000Y-78500000D01*
X169404761Y-78595238D01*
X169357142Y-78690476D01*
X169309523Y-78880952D01*
X169309523Y-79023809D01*
X169357142Y-79214285D01*
X169404761Y-79309523D01*
X169500000Y-79404761D01*
X169642857Y-79452380D01*
X169880952Y-79452380D01*
X168738095Y-79452380D02*
X168833333Y-79404761D01*
X168880952Y-79357142D01*
X168928571Y-79261904D01*
X168928571Y-78976190D01*
X168880952Y-78880952D01*
X168833333Y-78833333D01*
X168738095Y-78785714D01*
X168595238Y-78785714D01*
X168500000Y-78833333D01*
X168452380Y-78880952D01*
X168404761Y-78976190D01*
X168404761Y-79261904D01*
X168452380Y-79357142D01*
X168500000Y-79404761D01*
X168595238Y-79452380D01*
X168738095Y-79452380D01*
X168071428Y-78785714D02*
X167880952Y-79452380D01*
X167690476Y-78976190D01*
X167500000Y-79452380D01*
X167309523Y-78785714D01*
X166928571Y-78785714D02*
X166928571Y-79452380D01*
X166928571Y-78880952D02*
X166880952Y-78833333D01*
X166785714Y-78785714D01*
X166642857Y-78785714D01*
X166547619Y-78833333D01*
X166500000Y-78928571D01*
X166500000Y-79452380D01*
G04 #@! TO.C,KeyUp*
X152547619Y-79452380D02*
X152547619Y-78452380D01*
X151976190Y-79452380D02*
X152404761Y-78880952D01*
X151976190Y-78452380D02*
X152547619Y-79023809D01*
X151166666Y-79404761D02*
X151261904Y-79452380D01*
X151452380Y-79452380D01*
X151547619Y-79404761D01*
X151595238Y-79309523D01*
X151595238Y-78928571D01*
X151547619Y-78833333D01*
X151452380Y-78785714D01*
X151261904Y-78785714D01*
X151166666Y-78833333D01*
X151119047Y-78928571D01*
X151119047Y-79023809D01*
X151595238Y-79119047D01*
X150785714Y-78785714D02*
X150547619Y-79452380D01*
X150309523Y-78785714D02*
X150547619Y-79452380D01*
X150642857Y-79690476D01*
X150690476Y-79738095D01*
X150785714Y-79785714D01*
X149928571Y-78452380D02*
X149928571Y-79261904D01*
X149880952Y-79357142D01*
X149833333Y-79404761D01*
X149738095Y-79452380D01*
X149547619Y-79452380D01*
X149452380Y-79404761D01*
X149404761Y-79357142D01*
X149357142Y-79261904D01*
X149357142Y-78452380D01*
X148880952Y-78785714D02*
X148880952Y-79785714D01*
X148880952Y-78833333D02*
X148785714Y-78785714D01*
X148595238Y-78785714D01*
X148500000Y-78833333D01*
X148452380Y-78880952D01*
X148404761Y-78976190D01*
X148404761Y-79261904D01*
X148452380Y-79357142D01*
X148500000Y-79404761D01*
X148595238Y-79452380D01*
X148785714Y-79452380D01*
X148880952Y-79404761D01*
G04 #@! TD*
M02*
