M48
; DRILL file {KiCad (5.1.8)-1} date 08/28/22 16:31:05
; FORMAT={-:-/ absolute / metric / decimal}
; #@! TF.CreationDate,2022-08-28T16:31:05+09:00
; #@! TF.GenerationSoftware,Kicad,Pcbnew,(5.1.8)-1
FMAT,2
METRIC
T1C0.400
T2C0.800
T3C0.900
T4C1.000
T5C1.200
T6C1.400
T7C1.500
T8C1.900
T9C2.200
T10C3.400
T11C4.500
%
G90
G05
T1
X147.0Y-111.0
X149.805Y-71.93
X151.075Y-111.935
X153.61Y-73.2
X162.505Y-87.17
X166.0Y-111.0
X168.855Y-71.93
X170.125Y-111.935
X172.82Y-73.325
X173.3Y-87.17
X177.05Y-89.65
X184.095Y-87.17
X184.095Y-102.41
X185.0Y-111.0
X187.27Y-85.265
X188.067Y-71.93
X188.54Y-83.995
X189.175Y-111.935
X191.715Y-95.425
X191.715Y-96.695
X191.715Y-101.14
X191.715Y-102.41
X191.715Y-103.68
X191.905Y-73.325
X192.985Y-94.79
X196.16Y-77.01
X196.16Y-86.625
X197.43Y-75.83
X197.43Y-86.625
X197.43Y-103.68
X199.335Y-93.52
X201.875Y-108.67
X203.78Y-90.345
X203.78Y-101.14
X203.78Y-102.41
X203.78Y-103.68
X204.0Y-111.0
X205.05Y-85.9
X206.32Y-84.63
X206.32Y-93.52
X206.955Y-71.93
X208.225Y-111.935
X210.13Y-77.01
X210.99Y-73.325
X214.575Y-89.71
X219.655Y-109.395
X220.925Y-80.73
X220.925Y-108.67
X223.0Y-111.0
X226.005Y-71.93
X227.275Y-111.935
X229.44Y-73.325
X231.72Y-75.105
T2
X148.0Y-99.4
X148.0Y-101.96
X148.0Y-104.5
X158.0Y-99.42
X158.0Y-101.96
X158.0Y-104.5
X223.5Y-89.0
X223.5Y-91.0
X223.5Y-93.0
X223.5Y-95.0
T3
X128.69Y-88.19
X128.69Y-90.73
X128.69Y-93.27
X128.69Y-95.81
X136.31Y-88.19
X136.31Y-90.73
X136.31Y-93.27
X136.31Y-95.81
T4
X129.0Y-109.0
X133.0Y-109.0
X137.0Y-109.0
X181.555Y-105.5
X184.095Y-105.5
X163.5Y-100.0
X163.5Y-102.54
X181.25Y-83.106
X181.25Y-85.646
X181.25Y-88.186
X181.25Y-90.726
X181.25Y-93.266
X181.25Y-95.806
X181.25Y-98.346
X181.25Y-100.886
X174.53Y-99.96
X174.53Y-102.5
X168.5Y-100.0
X168.5Y-102.54
T5
X154.3Y-82.5
X156.4Y-87.5
X145.5Y-119.3
X150.5Y-121.4
X164.5Y-119.3
X169.5Y-121.4
X169.5Y-62.6
X174.5Y-64.7
X183.5Y-119.3
X188.5Y-121.4
X150.5Y-62.6
X155.5Y-64.7
X131.5Y-84.5
X131.5Y-99.5
X173.3Y-82.5
X175.4Y-87.5
X207.5Y-62.6
X212.5Y-64.7
X202.5Y-119.3
X207.5Y-121.4
X188.5Y-62.6
X193.5Y-64.7
X226.5Y-62.6
X231.5Y-64.7
X221.5Y-119.3
X226.5Y-121.4
T6
X128.0Y-119.0
X138.0Y-119.0
T7
X124.968Y-70.0
X127.468Y-70.0
X129.968Y-65.0
X132.468Y-70.0
X134.968Y-70.0
T8
X150.5Y-82.0
X150.5Y-93.0
X145.0Y-115.5
X156.0Y-115.5
X164.0Y-115.5
X175.0Y-115.5
X164.0Y-68.5
X175.0Y-68.5
X183.0Y-115.5
X194.0Y-115.5
X145.0Y-68.5
X156.0Y-68.5
X169.5Y-82.0
X169.5Y-93.0
X202.0Y-68.5
X213.0Y-68.5
X202.0Y-115.5
X213.0Y-115.5
X183.0Y-68.5
X194.0Y-68.5
X221.0Y-68.5
X232.0Y-68.5
X221.0Y-115.5
X232.0Y-115.5
T9
X125.0Y-109.0
X137.5Y-75.0
X144.0Y-105.0
X224.0Y-84.0
X224.0Y-100.0
X236.5Y-80.5
X236.5Y-103.5
T10
X150.5Y-87.5
X150.5Y-115.5
X169.5Y-115.5
X169.5Y-68.5
X188.5Y-115.5
X150.5Y-68.5
X169.5Y-87.5
X207.5Y-68.5
X207.5Y-115.5
X188.5Y-68.5
X226.5Y-68.5
X226.5Y-115.5
T11
X151.1Y-102.0
T0
M30
